<svg xmlns="http://www.w3.org/2000/svg" xmlns:xlink="http://www.w3.org/1999/xlink" width="1327.991" height="808.537" viewBox="0 0 1327.991 808.537">
  <defs>
    <linearGradient id="linear-gradient" x1="0.5" x2="0.5" y2="1" gradientUnits="objectBoundingBox">
      <stop offset="0" stop-color="#ffb1d5"/>
      <stop offset="1" stop-color="#fff2f6"/>
    </linearGradient>
    <clipPath id="clip-path">
      <rect id="Rectángulo_48613" data-name="Rectángulo 48613" width="1320" height="387.585" fill="none"/>
    </clipPath>
  </defs>
  <g id="Grupo_172412" data-name="Grupo 172412" transform="translate(9495.995 10399)">
    <g id="Grupo_172411" data-name="Grupo 172411" transform="translate(-9632 -12243)">
      <g id="Grupo_151139" data-name="Grupo 151139" transform="translate(0.014 767.083)">
        <g id="Grupo_149857" data-name="Grupo 149857" transform="translate(0 90)">
          <rect id="Rectángulo_44012" data-name="Rectángulo 44012" width="1327.991" height="589" transform="translate(135.991 1206.454)" opacity="0.3" fill="url(#linear-gradient)"/>
          <rect id="Rectángulo_44432" data-name="Rectángulo 44432" width="1327.991" height="219.398" transform="translate(1463.982 1206.315) rotate(180)" opacity="0.3" fill="url(#linear-gradient)"/>
        </g>
        <g id="Grupo_163011" data-name="Grupo 163011" transform="translate(139.986 1457.819)" opacity="0.12" clip-path="url(#clip-path)">
          <path id="Trazado_202936" data-name="Trazado 202936" d="M320.432,83.488c0-26.046-19.391-44.3-50.25-44.3-36.376,0-62.425,24.345-62.425,59.307,0,22.891,14.989,39.759,39.571,43.509l-2.419,12.317-14.5,0L226.9,172.083l14.514.012-2.043,10.383h18.11l2.046-10.367,16.4.012,3.512-17.8-16.406,0,2.345-11.9c32.47-3.069,55.053-26.394,55.053-58.941M241.447,96.511c0-16.28,9.483-30.291,25.9-30.291,12.173,0,19.391,7.785,19.391,19.253,0,16.276-9.483,30.291-25.9,30.291-12.173,0-19.391-7.789-19.391-19.253" transform="translate(482.366 35.505)" fill="#ffabbf"/>
          <path id="Trazado_202937" data-name="Trazado 202937" d="M239.642,38.792a49.739,49.739,0,0,1,16.292,16.483" transform="translate(498.673 80.723)" fill="none" stroke="#fff" stroke-linecap="round" stroke-linejoin="round" stroke-width="0.5"/>
          <path id="Trazado_202938" data-name="Trazado 202938" d="M65.168,86.891C58.282,71.819,42.237,66.382,24.38,74.537c-21.052,9.615-29.688,30.59-20.448,50.82,6.054,13.248,19.185,19.046,34.4,14.718l1.855,7.77-8.392,3.83,2.665,11.208,8.4-3.83,1.562,6.55,10.481-4.788-1.559-6.541,9.5-4.329-2.671-11.224-9.5,4.332-1.787-7.5C66.869,125.193,73.77,105.728,65.168,86.891ZM22.9,115.307c-4.3-9.418-2.52-20.035,6.984-24.376,7.043-3.216,13.279-.619,16.31,6.014,4.3,9.418,2.517,20.035-6.984,24.376C32.169,124.54,25.936,121.94,22.9,115.307Z" transform="translate(0.52 147.23)" fill="none" stroke="#fff" stroke-linecap="round" stroke-linejoin="round" stroke-width="0.5"/>
          <path id="Trazado_202939" data-name="Trazado 202939" d="M232.976,112.132c-2.234-13.294-13.695-20.953-29.444-18.31-18.569,3.118-29.774,17.777-26.779,35.621,1.963,11.686,11.057,19.009,23.926,18.815l-.182,6.495L193.1,156l-.268,9.369,7.41-1.238-.154,5.478,9.246-1.553.154-5.469,8.371-1.4.268-9.381-8.374,1.4.179-6.273c16.307-4.347,25.836-18.187,23.048-34.8m-39.2,13.414c-1.4-8.309,2.246-16.273,10.626-17.681,6.214-1.041,10.564,2.314,11.547,8.164,1.4,8.309-2.246,16.273-10.626,17.681-6.214,1.041-10.564-2.314-11.547-8.164" transform="translate(414.953 190.114)" fill="#ffabbf"/>
          <path id="Trazado_202940" data-name="Trazado 202940" d="M402.411,100.133c.977-10.611-6.239-18.778-18.809-19.937-14.822-1.365-26.345,7.579-27.657,21.822-.856,9.326,4.615,16.76,14.49,19.209l-1.448,4.926-5.906-.545-2.1,7.108,5.915.548-1.223,4.156,7.379.678,1.223-4.147,6.679.619,2.1-7.117-6.682-.616,1.4-4.76c13.34-.031,23.418-8.685,24.638-21.945m-32.667,2.341c.61-6.63,5-11.985,11.689-11.369,4.96.456,7.61,3.9,7.179,8.571-.61,6.63-5,11.985-11.689,11.369-4.96-.459-7.61-3.9-7.179-8.571" transform="translate(740.507 166.597)" fill="#ffabbf"/>
          <path id="Trazado_202941" data-name="Trazado 202941" d="M469.727,67.115c-8.645-14.594-25.568-18.387-42.859-8.143-20.38,12.074-26.893,34.361-15.287,53.95,7.6,12.826,21.594,17.3,36.613,11.242l2.733,7.705-8.127,4.809,3.934,11.119,8.137-4.812,2.3,6.5,10.148-6.011-2.3-6.488,9.193-5.438-3.937-11.134-9.193,5.444-2.637-7.443c17.173-12.5,22.084-33.061,11.279-51.3M429.8,100.629c-5.4-9.119-4.742-20.118,4.458-25.572,6.821-4.039,13.448-2.073,17.256,4.35,5.4,9.12,4.742,20.118-4.458,25.572-6.821,4.039-13.451,2.073-17.256-4.35" transform="translate(844.552 110.697)" fill="#ffabbf"/>
          <path id="Trazado_202942" data-name="Trazado 202942" d="M193.445,117.975c5.777-14.523-.986-29.01-18.193-35.856-20.285-8.069-40.209-.271-47.967,19.225-5.077,12.764-.462,25.495,12.413,33.04l-4.082,6.331-8.084-3.22-5.9,9.129,8.094,3.229-3.444,5.336,10.1,4.021,3.441-5.33,9.141,3.648,5.909-9.144-9.15-3.645,3.947-6.113c18.787,5.493,36.555-2.5,43.777-20.651M146.51,107.713c3.611-9.076,12.009-14.788,21.166-11.144,6.787,2.7,9.086,8.642,6.541,15.038-3.611,9.076-12.006,14.785-21.166,11.144-6.787-2.7-9.086-8.645-6.541-15.038" transform="translate(253.105 164.329)" fill="#ffabbf"/>
          <path id="Trazado_202943" data-name="Trazado 202943" d="M431.976,23.9c-10.145-11.892-26.111-12.678-40.2-.656-16.609,14.169-19.018,35.427-5.4,51.393,8.916,10.45,22.33,12.314,35.015,4.452l3.691,6.565L418.46,91.3l5.318,9.477,6.633-5.647,3.112,5.536,8.269-7.055-3.106-5.53,7.493-6.381-5.327-9.492-7.493,6.387L429.8,72.249C443.425,58.2,444.651,38.756,431.976,23.9ZM400.985,60.606c-6.34-7.431-7.468-17.524.028-23.92,5.558-4.742,11.886-4,16.354,1.235,6.34,7.434,7.468,17.524-.031,23.92C411.781,66.583,405.449,65.841,400.985,60.606Z" transform="translate(785.651 30.367)" fill="none" stroke="#fff" stroke-linecap="round" stroke-linejoin="round" stroke-width="0.5"/>
          <path id="Trazado_202944" data-name="Trazado 202944" d="M54.664,107.262A10.843,10.843,0,1,1,43.822,96.417,10.844,10.844,0,0,1,54.664,107.262Z" transform="translate(68.622 200.635)" fill="none" stroke="#ffabbf" stroke-miterlimit="10" stroke-width="1"/>
          <path id="Trazado_202945" data-name="Trazado 202945" d="M36.629,93.175a5.205,5.205,0,1,1-5.2-5.2,5.2,5.2,0,0,1,5.2,5.2" transform="translate(54.559 183.06)" fill="#ffabbf"/>
          <path id="Trazado_202946" data-name="Trazado 202946" d="M118.476,102.049a10.7,10.7,0,1,1-10.7-10.7,10.7,10.7,0,0,1,10.7,10.7" transform="translate(202.013 190.089)" fill="#ffabbf"/>
          <path id="Trazado_202947" data-name="Trazado 202947" d="M45.841,51.861A22.81,22.81,0,1,1,23.033,29.053,22.808,22.808,0,0,1,45.841,51.861" transform="translate(0.462 60.457)" fill="#ffabbf"/>
          <path id="Trazado_202948" data-name="Trazado 202948" d="M36.9,52.64a6.528,6.528,0,1,1-6.528-6.528A6.53,6.53,0,0,1,36.9,52.64" transform="translate(49.621 95.955)" fill="#ffabbf"/>
          <path id="Trazado_202949" data-name="Trazado 202949" d="M412.2,7.561A7.063,7.063,0,1,1,405.135.5,7.061,7.061,0,0,1,412.2,7.561Z" transform="translate(828.347 1.04)" fill="none" stroke="#ffabbf" stroke-miterlimit="10" stroke-width="1"/>
          <path id="Trazado_202950" data-name="Trazado 202950" d="M381.466,7.163A4.37,4.37,0,1,1,377.1,2.791a4.372,4.372,0,0,1,4.369,4.372" transform="translate(775.607 5.808)" fill="#ffabbf"/>
          <path id="Trazado_202951" data-name="Trazado 202951" d="M399.187,70.953a8.511,8.511,0,1,1-8.513-8.513,8.51,8.51,0,0,1,8.513,8.513" transform="translate(795.25 129.932)" fill="#fff"/>
          <path id="Trazado_202952" data-name="Trazado 202952" d="M428.543,119.648a21.808,21.808,0,1,0-21.807,21.807,21.807,21.807,0,0,0,21.807-21.807" transform="translate(800.998 203.598)" fill="#ffabbf"/>
          <path id="Trazado_202953" data-name="Trazado 202953" d="M409.051,90.68a4.983,4.983,0,1,1-4.985-4.985,4.983,4.983,0,0,1,4.985,4.985" transform="translate(830.457 178.323)" fill="#ffabbf"/>
          <path id="Trazado_202954" data-name="Trazado 202954" d="M354.582,119.52A19.085,19.085,0,1,1,335.5,100.437,19.083,19.083,0,0,1,354.582,119.52Z" transform="translate(658.427 209)" fill="none" stroke="#ffabbf" stroke-miterlimit="10" stroke-width="1"/>
          <path id="Trazado_202955" data-name="Trazado 202955" d="M351.916,99.821a4.048,4.048,0,1,1-4.048-4.048,4.047,4.047,0,0,1,4.048,4.048" transform="translate(715.456 199.295)" fill="#fff"/>
          <path id="Trazado_202956" data-name="Trazado 202956" d="M299.3,126.726a21.1,21.1,0,1,1-21.1-21.1,21.1,21.1,0,0,1,21.1,21.1" transform="translate(535 219.796)" fill="#ffabbf"/>
          <path id="Trazado_202957" data-name="Trazado 202957" d="M294.8,101.66a6.838,6.838,0,1,1-6.837-6.837,6.837,6.837,0,0,1,6.837,6.837" transform="translate(584.995 197.318)" fill="#ffabbf"/>
          <path id="Trazado_202958" data-name="Trazado 202958" d="M303.018,96.979a3.438,3.438,0,1,1-3.438-3.438,3.44,3.44,0,0,1,3.438,3.438" transform="translate(616.242 194.65)" fill="#ffabbf"/>
          <path id="Trazado_202959" data-name="Trazado 202959" d="M228.577,108.319a9.058,9.058,0,1,1-9.058-9.058,9.057,9.057,0,0,1,9.058,9.058" transform="translate(492.199 173.119)" fill="#fff"/>
          <path id="Trazado_202960" data-name="Trazado 202960" d="M169.361,103.79a4.529,4.529,0,1,1-4.529-4.529,4.528,4.528,0,0,1,4.529,4.529" transform="translate(333.576 206.553)" fill="#ffabbf"/>
          <path id="Trazado_202961" data-name="Trazado 202961" d="M147.6,61.5a5.5,5.5,0,1,1-5.5-5.5,5.5,5.5,0,0,1,5.5,5.5" transform="translate(284.233 116.533)" fill="#ffabbf"/>
          <path id="Trazado_202962" data-name="Trazado 202962" d="M431.762,122.556c5.61-18.566,6.923-30.193,4.4-38.875-3.312-11.369-14.825-16.412-29.466-13.011l-.006-.015-.471.129c-.16.04-.317.074-.477.114l0,.015c-14.477,4.027-22.164,13.966-19.625,25.531,1.938,8.833,8.66,18.408,22.478,32.02,1.565,1.544,3.213,3.106,4.892,4.652-3.411,9.11-6.652,16.649-6.7,16.763l12.733,5.5c.169-.394,2.385-5.543,5.09-12.493,5.7,4.806,10.111,8.266,10.447,8.531l8.55-10.925c-.1-.077-6.556-5.142-13.91-11.507.73-2.16,1.429-4.323,2.067-6.427m-13.436-3.971c-7.2-7.1-16.976-17.423-18.664-25.112-.511-2.338.132-6.609,9.979-9.249,9.917-2.4,12.53,1.041,13.2,3.337,2.2,7.561-1.43,21.3-4.356,30.985l-.046.148c-.037-.034-.074-.071-.111-.108" transform="translate(802.472 144.883)" fill="#ffcad9"/>
          <path id="Trazado_202963" data-name="Trazado 202963" d="M96.924,157.729c15.389-11.8,23.242-20.479,26.256-29,3.944-11.165-2.462-21.976-16.338-27.759l.006-.015c-.154-.062-.308-.114-.462-.173s-.3-.126-.453-.185l-.006.012c-14.1-5.176-26.148-1.59-30.834,9.283-3.583,8.3-3.709,20-.431,39.121.373,2.166.8,4.4,1.26,6.63-8.084,5.41-15.118,9.643-15.226,9.7l7.135,11.9c.367-.219,5.173-3.109,11.421-7.175,1.827,7.228,3.392,12.613,3.509,13.023l13.316-3.882c-.034-.12-2.323-8-4.581-17.463,1.855-1.328,3.685-2.674,5.429-4.014m-8.593-11.064c-1.71-9.967-3.62-24.053-.5-31.287.946-2.194,3.962-5.29,13.5-1.685,9.455,3.836,9.566,8.155,8.771,10.41-2.625,7.425-13.593,16.467-21.619,22.62l-.123.1-.028-.154" transform="translate(126.303 204.497)" fill="#f4829d"/>
        </g>
      </g>
    </g>
  </g>
</svg>
