<svg xmlns="http://www.w3.org/2000/svg" xmlns:xlink="http://www.w3.org/1999/xlink" width="344" height="344" viewBox="0 0 344 344">
  <defs>
    <clipPath id="clip-path">
      <rect id="Rectángulo_48881" data-name="Rectángulo 48881" width="301.754" height="317.086" fill="none"/>
    </clipPath>
  </defs>
  <g id="Grupo_172508" data-name="Grupo 172508" transform="translate(5576 -92)">
    <g id="Grupo_172507" data-name="Grupo 172507" transform="translate(-5555 106)">
      <g id="Grupo_165024" data-name="Grupo 165024" clip-path="url(#clip-path)">
        <path id="Trazado_207983" data-name="Trazado 207983" d="M263.137,132.134c1.972-3.609,2.477-8.064,3.452-12.145,1.458-6.1,4.455-12.066,7.545-17.507,3.622-6.38,9.3-15.767,16.8-17.868,3.466,8.39,6.869,15.909,6.722,25.334-.157,9.955-4.682,19.677-12.951,25.42-3.435,2.385-8.144,4.293-12.273,2.907-4.088-1.372-7.7-5.943-5.7-10.27" transform="translate(-78.049 -25.097)" fill="#daeae7"/>
        <path id="Trazado_207984" data-name="Trazado 207984" d="M281.4,154.888c-1.86-4.111,3.362-15.347,4.919-19.3a64.034,64.034,0,0,1,13.567-20.711c8.13-8.559,18.641-19.143,30.977-20.8-2.155,4.643-1.7,11.115-2.736,16.212-1.85,9.074-5.773,17.213-10.941,24.889-6.451,9.582-16.831,21.9-29.177,22.476-2.777.13-6.176-.494-6.609-2.766" transform="translate(-83.349 -27.904)" fill="#b9d8d2"/>
        <path id="Trazado_207985" data-name="Trazado 207985" d="M275.239,193.056c-.063-8.08,6.414-15.563,12.519-20.125,10.188-7.611,21.4-8.687,33.6-9.461-3.321,14.715-11.65,31.71-25.625,39.173-5.429,2.9-9.572,1.908-14.32-1.544-2.816-2.046-6.565-6.1-6.175-8.043" transform="translate(-81.63 -48.487)" fill="#daeae7"/>
        <path id="Trazado_207986" data-name="Trazado 207986" d="M350.031,295.1c-6.371-3.5,17.291-19.019,19.913-20.253,11.054-5.2,23.427-7.193,35.312-4.731-11.158,9.534-20.194,21.432-34.552,26.844-4.472,1.686-8.963,1.723-13.627,1.2-2.162-.244-7.411-.987-7.047-3.058" transform="translate(-103.501 -79.809)" fill="#daeae7"/>
        <path id="Trazado_207987" data-name="Trazado 207987" d="M321.432,319.885c1.568-3.431,6.246-7.089,8.383-8.953a46.5,46.5,0,0,1,15.153-8.9c13.685-4.842,27.291-2.8,40.777,1.9-5.329,3.321-9.556,8.639-14.972,12.153-8.562,5.555-18.946,8.641-28.936,10.493-6.063,1.124-11.528,1.761-17.379-.586-3.711-1.49-4.106-3.745-3.027-6.106" transform="translate(-95.185 -88.762)" fill="#b9d8d2"/>
        <path id="Trazado_207988" data-name="Trazado 207988" d="M342.606,272.976c-2.962-2.178,8.767-14.621,10.76-16.384,8.613-7.621,18.969-13.239,30.657-13.21-1.535,3.048-1.111,7.372-1.74,10.708-.864,4.58-2.557,9.466-5.581,13.1-4.585,5.515-11.564,9.1-18.364,10.831-6.71,1.713-12.5-1.977-15.731-5.048" transform="translate(-101.479 -72.189)" fill="#b9d8d2"/>
        <path id="Trazado_207989" data-name="Trazado 207989" d="M298.138,110.351a6.386,6.386,0,0,0-2.592.835,24.89,24.89,0,0,0-2.323,1.45q-1.119.787-2.2,1.627c-.176.136-.37.283-.563.443.528-2.461,1.045-4.925,1.529-7.393.327-1.667.642-3.333.883-5.014.125-.868.248-1.737.374-2.605a9.246,9.246,0,0,0-.079-2.631.221.221,0,0,0-.407-.11,9.019,9.019,0,0,0-1.009,1.85c-.238.729-.425,1.479-.637,2.214-.408,1.412-.781,2.827-1.132,4.253-.183-.438-.369-.876-.535-1.319-.274-.729-.524-1.463-.811-2.186a7.1,7.1,0,0,0-.5-1.154,1.569,1.569,0,0,0-.376-.419c-.088-.064-.228-.111-.283-.153a.157.157,0,0,0-.216.057c-.03.07-.124.172-.169.273a1.5,1.5,0,0,0-.11.555,5.654,5.654,0,0,0,.2,1.242,20.9,20.9,0,0,0,.7,2.376,15.987,15.987,0,0,0,.914,2.377,8.051,8.051,0,0,0,.584.907c-.537,2.309-1.052,4.625-1.58,6.935q-.711,3.11-1.427,6.219c-.381-.881-.773-1.754-1.2-2.619-.548-1.106-1.061-2.228-1.575-3.35-.414-.905-.848-2.246-1.787-2.732a.136.136,0,0,0-.2.08c-.329,1,.305,2.282.644,3.217.42,1.162.84,2.323,1.225,3.5s.81,2.332,1.275,3.483a8.932,8.932,0,0,0,.86,1.718q-.989,4.313-1.979,8.626c-.775,3.353-1.811,6.715-1.239,10.17.044.262.386.238.511.067,1.817-2.514,2.4-5.5,3.079-8.473q1.052-4.573,2.083-9.15.925-4.106,1.833-8.222a3.714,3.714,0,0,0,2.451-1.175q1.013-.82,2.067-1.585c.722-.525,1.436-1.06,2.153-1.59a7.831,7.831,0,0,0,1.941-1.935.439.439,0,0,0-.377-.658" transform="translate(-83.501 -28.726)" fill="#b9d8d2"/>
        <path id="Trazado_207990" data-name="Trazado 207990" d="M321.931,175.613c-.1-.037-.178-.2-.272-.269a7.64,7.64,0,0,0-.9-.437,7.612,7.612,0,0,0-1.371-.211c-.425-.026-.887-.088-1.344-.1.438-.383.881-.762,1.317-1.147.985-.874,2.39-1.916,2.532-3.307a.32.32,0,0,0-.316-.316c-1.221-.034-2.221.974-3.128,1.688-1.1.867-2.164,1.789-3.254,2.673q-1.237,1-2.477,2c.1-.519.195-1.034.3-1.52.186-.832.327-1.666.447-2.51a4.954,4.954,0,0,0-.13-2.551.16.16,0,0,0-.264-.07,4.975,4.975,0,0,0-1.237,2.171c-.288.832-.521,1.679-.729,2.534s-.441,1.7-.624,2.563c-.095.445-.162.9-.227,1.349-.505.4-1.008.806-1.515,1.2q-4.977,3.91-10.129,7.59c.353-.991.662-2,.962-3.006.393-1.322.743-2.648,1.014-4,.134-.672.279-1.347.366-2.026a4.075,4.075,0,0,0,0-1.922.59.59,0,0,0-.973-.257,4.181,4.181,0,0,0-.769,1.688c-.213.653-.381,1.322-.579,1.979-.4,1.317-.791,2.638-1.223,3.944s-.928,2.592-1.4,3.886a8.573,8.573,0,0,0-.57,1.955c-1.225.851-2.463,1.683-3.677,2.549a21.9,21.9,0,0,0-1.852,1.391,3.732,3.732,0,0,0-1.167,1.708.38.38,0,0,0,.363.477,3.257,3.257,0,0,0,1.723-.3,13.727,13.727,0,0,0,1.89-1.068c1.14-.73,2.251-1.5,3.359-2.275q3.386-2.372,6.7-4.839c.223-.166.444-.335.667-.5a7.235,7.235,0,0,0,1.17.156c1.128.082,2.255.126,3.381.241s2.237.306,3.359.447c1,.126,2.356.544,3.238-.08a.274.274,0,0,0,.1-.365c-.519-.949-1.894-1.121-2.866-1.338-1.109-.248-2.25-.386-3.377-.526-.9-.112-1.8-.195-2.7-.263,3.443-2.614,6.839-5.3,10.118-8.111.225-.193.446-.391.671-.585a4.06,4.06,0,0,0,.693.234,10.274,10.274,0,0,0,1.655.2,11.688,11.688,0,0,0,1.562.037,2.627,2.627,0,0,0,.815-.185c.1-.036.2-.064.3-.108.134-.063.227-.215.37-.243.127-.025.1-.2,0-.234" transform="translate(-85.64 -50.273)" fill="#b9d8d2"/>
        <path id="Trazado_207991" data-name="Trazado 207991" d="M394.333,275.233c-1.387.13-2.611,1.34-3.731,2.1-.278.188-.562.367-.843.551l.006-.045c.012-.082.024-.165.037-.246q.049-.309.108-.616c.084-.433.117-.856.191-1.282a.561.561,0,0,0-1.021-.43c-.118.169-.226.331-.35.487a3.218,3.218,0,0,0-.356.624c-.207.428-.4.867-.575,1.31a7.445,7.445,0,0,0-.309,1.252,4.274,4.274,0,0,0-.073.422c-.151.091-.3.186-.449.276a88.187,88.187,0,0,1-7.934,4.02l-.241.11c.359-.495.713-.995,1.043-1.508A20.192,20.192,0,0,0,381.2,279.8a6.286,6.286,0,0,0,.515-1.491,6.63,6.63,0,0,0,.116-.778,2.97,2.97,0,0,0-.127-.706.478.478,0,0,0-.7-.283l-.177.1a2.168,2.168,0,0,0-.835.663,7.55,7.55,0,0,0-.893,1.173c-.495.8-.973,1.6-1.465,2.4-.478.774-.955,1.547-1.469,2.3a4.791,4.791,0,0,0-.955,2.176c-4.239,1.807-8.555,3.405-12.888,4.995q-2.363.867-4.739,1.7a11.834,11.834,0,0,0-4.412,2.171.467.467,0,0,0,.326.787,10.7,10.7,0,0,0,4.407-.777q2.138-.672,4.27-1.362c.412-.134.822-.274,1.233-.413a8.211,8.211,0,0,0,1.524.45c.954.219,1.906.452,2.87.621,1.793.314,3.882,1,5.612.165a.317.317,0,0,0,.063-.5,4.717,4.717,0,0,0-2.453-1.124c-.969-.163-1.941-.306-2.911-.459-.547-.086-1.094-.155-1.644-.222q2.147-.774,4.274-1.6c2.832-1.1,5.636-2.268,8.375-3.585,1.761-.847,3.461-1.789,5.144-2.766a1.645,1.645,0,0,0,.154.125,3.638,3.638,0,0,0,.77.425,12.469,12.469,0,0,0,1.374.409,5.156,5.156,0,0,0,1.586.187,1.693,1.693,0,0,0,.865-.238c.237-.153.495-.319.5-.635.013-.563-.784-.884-1.206-1a9.058,9.058,0,0,0-1.531-.237l-.267-.038q-.19-.031-.379-.064l-.036-.007c.3-.179.6-.357.9-.537.508-.3,1.008-.621,1.509-.935a.726.726,0,0,0,.276-.157c.011-.01.02-.023.031-.034.838-.532,1.668-1.076,2.484-1.64,1.194-.826,2.994-1.768,3.511-3.195a.5.5,0,0,0-.48-.63" transform="translate(-104.714 -81.567)" fill="#b9d8d2"/>
        <path id="Trazado_207992" data-name="Trazado 207992" d="M375.663,260.039q2.758-3.025,5.318-6.224c.485-.607-.324-1.472-.876-.875q-2.357,2.547-4.842,4.983c.02-.081.043-.16.061-.241a13.921,13.921,0,0,0,.358-1.614c.058-.533.026-1.091.044-1.628,0-.117-.144-.136-.2-.056-.314.431-.678.847-.964,1.295a12.3,12.3,0,0,0-.688,1.457c-.243.522-.458,1.052-.668,1.588a4.308,4.308,0,0,0-.437,1.6q-3.948,3.707-8.158,7.122c.067-.207.136-.415.2-.623.258-.879.494-1.764.741-2.645s.468-1.775.639-2.674c.084-.446.163-.9.215-1.349a3.933,3.933,0,0,0-.125-1.179.207.207,0,0,0-.345-.091,4.188,4.188,0,0,0-.876,1.1c-.206.41-.4.83-.572,1.253-.392.943-.753,1.89-1.086,2.855-.321.929-.653,1.855-.947,2.792a2.391,2.391,0,0,0,.053,2.227c-1.222.954-2.451,1.9-3.7,2.81-2.095,1.533-4.608,2.923-6.15,5.056-.29.4.187.848.589.767,2.3-.462,4.327-2.064,6.186-3.41,1.955-1.414,3.879-2.875,5.733-4.419,1.443-1.2,2.859-2.442,4.255-3.707a6.176,6.176,0,0,0,1.305.167c.4,0,.816.052,1.216.044.376-.008.758-.075,1.13-.112.819-.081,1.637-.156,2.451-.289.673-.11,1.716-.272,2.072-.938a.534.534,0,0,0-.08-.618c-.473-.579-1.6-.53-2.272-.512-.755.02-1.506.1-2.259.167-.4.036-.794.061-1.189.114-.109.015-.217.044-.324.067,1.443-1.379,2.854-2.79,4.2-4.261" transform="translate(-104.574 -74.965)" fill="#daeae7"/>
        <path id="Trazado_207993" data-name="Trazado 207993" d="M375.982,307.889c-1.511-.019-2.985-.032-4.5.074-.862.06-1.724.148-2.585.243.073-.07.151-.134.222-.206q.729-.736,1.479-1.452c.487-.465.981-.922,1.478-1.376a3.473,3.473,0,0,0,.336-.34c.075-.091.148-.183.219-.276a2.5,2.5,0,0,0,.253-.445c-.067.132.019-.008.056-.061.047-.07.1-.139.143-.208a1.085,1.085,0,0,0,.219-.717.657.657,0,0,0-.474-.622,1.176,1.176,0,0,0-.836.108c-.078.039-.154.081-.231.121-.02.011-.216.113-.089.058a3.4,3.4,0,0,0-.569.262,4.425,4.425,0,0,0-.562.435c-.51.466-1.009.944-1.5,1.426s-.957.946-1.427,1.429c-.249.257-.478.521-.7.8-.1.125-.2.251-.3.377a1.76,1.76,0,0,0-.361.767.913.913,0,0,0-.022.23c-1.939.228-3.878.475-5.809.767-.061-.022-.119-.049-.18-.068a.66.66,0,0,0-.741.213c-.5.079-1.006.157-1.507.243a62.043,62.043,0,0,0-7.82,1.846c.129-.132.257-.267.389-.4q1.424-1.4,2.942-2.705c.983-.844,2-1.65,3-2.474a11.628,11.628,0,0,0,2.641-2.9c.171-.278-.11-.54-.384-.5a8.436,8.436,0,0,0-3.6,1.493,37.316,37.316,0,0,0-3.3,2.6q-1.508,1.312-2.923,2.723c-.471.47-.944.943-1.391,1.436a4.967,4.967,0,0,0-1.267,1.813.932.932,0,0,0-.024.283c-1.365.536-2.712,1.127-4.032,1.785a32.067,32.067,0,0,0-3.827,2.168,10.1,10.1,0,0,0-1.725,1.431,19.478,19.478,0,0,0-1.313,1.758c-.114.155.078.414.26.339a28.817,28.817,0,0,0,3.513-1.477c1.118-.642,2.217-1.313,3.359-1.913a53.076,53.076,0,0,1,7.239-3.086,85.951,85.951,0,0,1,10.322-2.881,13.69,13.69,0,0,0,1.519,1.044q1.015.628,2.052,1.22t2.129,1.084a4.424,4.424,0,0,0,1.375.393,3.814,3.814,0,0,0,1.08-.129.269.269,0,0,0,.16-.392,3.647,3.647,0,0,0-.633-.944,5.875,5.875,0,0,0-.95-.693c-.706-.416-1.455-.775-2.183-1.149-.609-.313-1.211-.64-1.81-.972,1.109-.2,2.221-.39,3.336-.552,1.682-.245,3.369-.444,5.052-.665,1.648-.217,3.239-.555,4.858-.907a.232.232,0,0,0-.061-.453" transform="translate(-99.462 -89.716)" fill="#daeae7"/>
        <path id="Trazado_207994" data-name="Trazado 207994" d="M326.467,118.8a3.368,3.368,0,0,0-2.188.561l-1.934,1a20.478,20.478,0,0,0-1.915,1.036c-.132.087-.273.177-.414.271.734-1.108,1.469-2.216,2.184-3.338,1.064-1.668,2.093-3.351,3.064-5.076.51-.906.982-1.824,1.43-2.762a8.172,8.172,0,0,0,.937-2.524.219.219,0,0,0-.328-.189,6.889,6.889,0,0,0-1.422,1.583c-.569.753-1.137,1.515-1.661,2.3q-1.055,1.579-2.1,3.165c.011-.153.018-.308.017-.466-.006-.592-.11-1.187-.148-1.78s-.119-1.192-.191-1.79c-.043-.353-.171-.665-.245-1.011a2.609,2.609,0,0,0-.339-.812.345.345,0,0,0-.587,0,2.294,2.294,0,0,0-.416.812,6.463,6.463,0,0,0-.267,1.011,9.3,9.3,0,0,0-.04,1.928,9.89,9.89,0,0,0,.312,2.039,3.614,3.614,0,0,0,.882,1.609q-2.785,4.263-5.728,8.42c-.634.9-1.285,1.782-1.932,2.67-.029-.318-.065-.625-.086-.9a22.589,22.589,0,0,1,.016-3.683,26.052,26.052,0,0,1,.592-3.636,32.386,32.386,0,0,0,.547-3.488.293.293,0,0,0-.5-.206,9.049,9.049,0,0,0-1.773,3.219,20.089,20.089,0,0,0-.693,3.867,22.679,22.679,0,0,0,0,3.928,6.375,6.375,0,0,0,.639,2.62q-4.733,6.39-9.857,12.477c-.845,1.006-1.71,1.994-2.57,2.987q.253-1.719.454-3.442c.148-1.256.317-2.51.4-3.771a31.823,31.823,0,0,0-.125-4.061.28.28,0,0,0-.548-.074,31.59,31.59,0,0,0-1.14,3.89c-.232,1.242-.384,2.5-.556,3.75s-.333,2.494-.464,3.746a16.174,16.174,0,0,0-.231,2.444,9.084,9.084,0,0,0-2.568,3.763.625.625,0,0,0,.762.762c1.679-.583,2.714-2.067,3.855-3.359q1.776-2.012,3.508-4.062,1.564-1.851,3.082-3.739a4,4,0,0,0,.549-.091c.715-.176,1.422-.429,2.122-.66a38.662,38.662,0,0,0,4-1.581,34.071,34.071,0,0,0,3.71-1.953,18.153,18.153,0,0,0,3.326-2.735c.147-.148,0-.439-.213-.365a35.042,35.042,0,0,0-3.771,1.455c-1.3.627-2.6,1.268-3.9,1.885q-1.892.894-3.794,1.761c-.107.049-.215.094-.321.141.651-.824,1.309-1.645,1.951-2.477q4.808-6.232,9.212-12.761a4.268,4.268,0,0,0,1.915-.416,21.542,21.542,0,0,0,2.077-.976l2.019-1a3.236,3.236,0,0,0,1.674-1.428.4.4,0,0,0-.28-.492" transform="translate(-87.491 -31.959)" fill="#daeae7"/>
        <path id="Trazado_207995" data-name="Trazado 207995" d="M296.665,332.657a73.253,73.253,0,0,1,8.959-20.029c4.448-7.049,9.782-12.682,17.547-16.063,4.449-1.937,11.365-4.614,11.8,2.576.35,5.771-6.017,14.6-9.9,18.614,8.416-5.51,15.931-9.917,26.323-9.424,7.366.35,21.071,2.273,21.363,11.759.551,17.89-30.061,15.869-41.086,17.983,9.362-.416,28.154,12.15,20.679,23.051-8.769,12.79-27.746,7.131-37.818-.273,3.074,6.032,4.939,14.771-4.252,15.759-10.484,1.128-12.835-12.973-14.462-20.47a49.755,49.755,0,0,1,.842-23.482" transform="translate(-87.439 -87.331)" fill="#e9c3c8"/>
        <path id="Trazado_207996" data-name="Trazado 207996" d="M299.032,341.808a48.45,48.45,0,0,1,5.925-13.247c2.942-4.662,6.47-8.388,11.605-10.625,2.943-1.281,7.518-3.052,7.806,1.7.231,3.817-3.98,9.657-6.545,12.311,5.567-3.644,10.537-6.559,17.41-6.233,4.872.231,13.936,1.5,14.13,7.777.364,11.832-19.882,10.5-27.174,11.894,6.192-.275,18.621,8.036,13.677,15.247-5.8,8.459-18.351,4.716-25.014-.181,2.034,3.989,3.267,9.769-2.812,10.423-6.934.746-8.489-8.581-9.565-13.539a32.9,32.9,0,0,1,.556-15.531" transform="translate(-88.329 -93.884)" fill="#e0a8b8"/>
        <path id="Trazado_207997" data-name="Trazado 207997" d="M275.246,219.652c-1.351-.944,3.375-14.215,4.206-16.656,2.109-6.195,6.231-13.35,12.712-15.787,9.724-3.654,5.237,8.142,4.272,13.28,4.733-6.086,8.4-12.6,14.334-17.812,4.78-4.2,12.674-11.375,19.689-8.376,6.77,2.894,2.8,11.189-.2,15.861-2.152,3.35-5.638,9.118-9.159,11.135,3.859-3.414,10.462-6.617,15.83-7.968,5.814-1.463,21.727-3.635,21.979,6.325.237,9.362-14.2,13.7-21.16,14.77,12.324-.125,11.951,12.54,2.849,17.6-6.055,3.366-12.671,4.684-19.46,5.551-6.541.834-13.161-.987-19.721-1.311-8.678-.43-15.316-4.637-21.74-9.695-3.732-2.939-4.367-4.9-4.428-6.917" transform="translate(-81.569 -51.488)" fill="#e9c3c8"/>
        <path id="Trazado_207998" data-name="Trazado 207998" d="M286.145,229.634c-.892-.623,2.226-9.378,2.774-10.988,1.391-4.086,4.11-8.806,8.386-10.414,6.415-2.411,3.454,5.371,2.818,8.761,3.122-4.015,5.542-8.313,9.456-11.75,3.153-2.769,8.361-7.5,12.987-5.526,4.467,1.91,1.847,7.381-.134,10.464-1.42,2.209-3.719,6.015-6.041,7.346a27.688,27.688,0,0,1,10.442-5.257c3.836-.964,14.333-2.4,14.5,4.173.157,6.176-9.364,9.038-13.958,9.744,8.129-.082,7.884,8.273,1.879,11.609-3.995,2.22-8.359,3.089-12.838,3.661-4.315.551-8.682-.65-13.009-.864-5.724-.284-10.1-3.059-14.341-6.4-2.462-1.939-2.881-3.235-2.921-4.563" transform="translate(-84.826 -59.099)" fill="#e0a8b8"/>
        <path id="Trazado_207999" data-name="Trazado 207999" d="M300.267,110.311a.979.979,0,0,0-.4-.522l-.209-.088a.659.659,0,0,0-.348-.015.647.647,0,0,0-.325.1l-.177.136a.873.873,0,0,0-.224.385l-.032.232v.01a.764.764,0,0,0,.86.862h.012a.973.973,0,0,0,.618-.256l.136-.177a.645.645,0,0,0,.1-.325.66.66,0,0,0-.016-.348" transform="translate(-88.552 -32.529)" fill="#fff"/>
        <path id="Trazado_208000" data-name="Trazado 208000" d="M309.443,144.138l-.03-.049a1.635,1.635,0,0,0-.59-.6c-.032-.018-.065-.034-.1-.051l-.371-.156a1.176,1.176,0,0,0-.62-.028.775.775,0,0,0-.392.106,1.16,1.16,0,0,0-.5.321L306.6,144q-.079.185-.157.371a1.176,1.176,0,0,0-.027.62,1.15,1.15,0,0,0,.184.577c.016.032.032.065.051.1a1.645,1.645,0,0,0,.6.59l.049.03a1.569,1.569,0,0,0,1.581,0,1.7,1.7,0,0,0,.16-.123,1.178,1.178,0,0,0,.4-.438h0a1.568,1.568,0,0,0,0-1.581" transform="translate(-90.878 -42.482)" fill="#fff"/>
        <path id="Trazado_208001" data-name="Trazado 208001" d="M329.86,173.456a.5.5,0,0,0-.068-.25.74.74,0,0,0-.205-.319l-.2-.155-.236-.1a.756.756,0,0,0-.4-.018.738.738,0,0,0-.369.117,1.747,1.747,0,0,0-.294.216.881.881,0,0,0-.181.248l-.025.051-.046.1-.025.051c-.035.074-.068.15-.1.227a.7.7,0,0,0-.016.367.306.306,0,0,0,.018.127.916.916,0,0,0,.642.639.932.932,0,0,0,.49,0c.077-.029.153-.061.228-.1l.047-.023.1-.048.051-.024a.877.877,0,0,0,.248-.182,1.77,1.77,0,0,0,.216-.293c.033-.079.066-.158.1-.237a.749.749,0,0,0,.018-.4" transform="translate(-97.195 -51.194)" fill="#fff"/>
        <path id="Trazado_208002" data-name="Trazado 208002" d="M369.661,209.628a1.754,1.754,0,0,0-.67-1.161,1.335,1.335,0,0,0-.6-.319l-.034-.007c-.082-.014-.184-.025-.25-.034s-.167-.025-.251-.034a.436.436,0,0,0-.068,0l-.03,0a2.436,2.436,0,0,0-.5.067l-.44.186a1.342,1.342,0,0,0-.374.29,3.432,3.432,0,0,0-.32.416q-.092.216-.183.434l-.065.483.065.483a1.37,1.37,0,0,0,.325.618,1.8,1.8,0,0,0,1.185.684,1.38,1.38,0,0,0,.725-.032c.194-.06.12.046.5-.2l.086-.066a.445.445,0,0,1,.056-.034l.361-.279.278-.361c.061-.141.12-.283.18-.425a1.356,1.356,0,0,0,.032-.71" transform="translate(-108.521 -61.716)" fill="#fff"/>
        <path id="Trazado_208003" data-name="Trazado 208003" d="M357.2,235.61a1.206,1.206,0,0,0-.312-.534l-.245-.19a1.208,1.208,0,0,0-.611-.165,1.244,1.244,0,0,0-1.211,1.211l.043.321a1.207,1.207,0,0,0,.312.535l.245.189a1.2,1.2,0,0,0,.611.165,1.243,1.243,0,0,0,1.21-1.21c-.014-.108-.029-.215-.043-.322" transform="translate(-105.245 -69.62)" fill="#fff"/>
        <path id="Trazado_208004" data-name="Trazado 208004" d="M332.632,197.207a1.113,1.113,0,0,0-.285-.49,1.142,1.142,0,0,0-1.568,0,1.107,1.107,0,0,0-.286.49,1.256,1.256,0,0,0-.111.52,1.069,1.069,0,0,0,.146.539,1.069,1.069,0,0,0,1.461.383l.012-.007.218-.169q.084-.109.168-.218l.01-.013.043-.063.08-.118a1.1,1.1,0,0,0,.151-.559c-.013-.1-.026-.2-.039-.295" transform="translate(-97.994 -58.252)" fill="#fff"/>
        <path id="Trazado_208005" data-name="Trazado 208005" d="M388.583,271.015a1.23,1.23,0,0,0-.314-.539.912.912,0,0,0-.393-.252.926.926,0,0,0-.471-.106,1.233,1.233,0,0,0-.617.167.83.83,0,0,1-.151.083c-.015.008-.032.013-.047.02l-.277.215c-.071.092-.143.184-.214.277a.385.385,0,0,0-.079.177.746.746,0,0,0-.075.193,1.181,1.181,0,0,1-.037.139,1.277,1.277,0,0,0,1.571,1.571.793.793,0,0,0,.114-.037c.121-.047.25-.1.369-.156l.277-.215.215-.276a1.056,1.056,0,0,0,.172-.523,1.189,1.189,0,0,0,.02-.293,3.782,3.782,0,0,0-.063-.445" transform="translate(-114.45 -80.119)" fill="#fff"/>
        <path id="Trazado_208006" data-name="Trazado 208006" d="M382.059,324.7q-.086-.206-.174-.411a1.93,1.93,0,0,0-1.029-.791l-.067-.023a1.159,1.159,0,0,0-.255-.039,1.305,1.305,0,0,0-.716.034l-.137.04-.408.172a1.294,1.294,0,0,0-.48.441.855.855,0,0,0-.219.377,1.3,1.3,0,0,0-.148.659l.061.454q.086.2.172.409a1.3,1.3,0,0,0,.441.48,1.283,1.283,0,0,0,.581.306l.137.041.466.063.016,0,.466-.063.015,0,.075-.026.412-.174a1.308,1.308,0,0,0,.483-.443.859.859,0,0,0,.222-.38,1.3,1.3,0,0,0,.148-.663q-.032-.229-.062-.458" transform="translate(-112.244 -95.924)" fill="#fff"/>
        <path id="Trazado_208007" data-name="Trazado 208007" d="M350.966,345.215l-.1-.231-.151-.195a.718.718,0,0,0-.31-.2.485.485,0,0,0-.243-.066.738.738,0,0,0-.385.018h0a1.074,1.074,0,0,0-.575.442l-.1.23a.958.958,0,0,0,0,.512h0l.1.231.151.195a.719.719,0,0,0,.31.2.484.484,0,0,0,.243.066.5.5,0,0,0,.257,0,.958.958,0,0,0,.456-.19.731.731,0,0,0,.248-.271l.1-.231c.011-.085.023-.171.034-.256-.011-.086-.023-.172-.034-.257" transform="translate(-103.538 -102.184)" fill="#fff"/>
        <path id="Trazado_208008" data-name="Trazado 208008" d="M351.132,382.118a1.661,1.661,0,0,0-.428-.734l-.336-.26a1.65,1.65,0,0,0-.839-.227,1.852,1.852,0,0,0-1.175.487,1.853,1.853,0,0,0-.487,1.175c.02.147.04.295.06.442a1.657,1.657,0,0,0,.428.734l.336.26a1.656,1.656,0,0,0,.838.226,1.842,1.842,0,0,0,1.175-.487,1.237,1.237,0,0,0,.344-.535,1.25,1.25,0,0,0,.143-.64q-.031-.22-.06-.442" transform="translate(-103.18 -112.978)" fill="#fff"/>
        <path id="Trazado_208009" data-name="Trazado 208009" d="M318.174,400.305a.872.872,0,0,0-.119-.44.975.975,0,0,0-.521-.4.874.874,0,0,0-.435,0,1.285,1.285,0,0,0-1.564.906c-.006.022-.006.044-.009.066a.152.152,0,0,0-.011.018.652.652,0,0,0-.032.409.6.6,0,0,0,.036.088,1.113,1.113,0,0,0,.349.675l.262.2.309.13.344.046a.977.977,0,0,0,.5-.112.642.642,0,0,0,.286-.166.651.651,0,0,0,.231-.231.642.642,0,0,0,.166-.286.957.957,0,0,0,.089-.246,1.7,1.7,0,0,0,.071-.17.49.49,0,0,0,.012-.056c.016-.1.032-.205.041-.308a.784.784,0,0,0,0-.122" transform="translate(-93.57 -118.472)" fill="#fff"/>
        <path id="Trazado_208010" data-name="Trazado 208010" d="M144.129,138.2c-2.033-3.722-2.554-8.317-3.56-12.525-1.5-6.293-4.595-12.444-7.78-18.057-3.736-6.58-9.594-16.26-17.329-18.427-3.575,8.652-7.085,16.406-6.932,26.127.161,10.267,4.829,20.294,13.355,26.216,3.543,2.46,8.4,4.427,12.658,3,4.216-1.415,7.938-6.129,5.883-10.592" transform="translate(-32.189 -26.455)" fill="#daeae7"/>
        <path id="Trazado_208011" data-name="Trazado 208011" d="M116.6,151.362c1.918-4.239-3.468-15.828-5.073-19.9A66.032,66.032,0,0,0,97.534,110.1c-8.385-8.828-19.225-19.742-31.947-21.456,2.223,4.789,1.75,11.463,2.821,16.72,1.908,9.359,5.953,17.751,11.284,25.669,6.653,9.882,17.358,22.584,30.09,23.181,2.864.134,6.37-.511,6.817-2.854" transform="translate(-19.454 -26.293)" fill="#b9d8d2"/>
        <path id="Trazado_208012" data-name="Trazado 208012" d="M124.565,190.725c.065-8.333-6.615-16.051-12.911-20.755-10.507-7.85-22.073-8.958-34.653-9.757,3.425,15.176,12.015,32.7,26.427,40.4,5.6,2.99,9.873,1.967,14.769-1.592,2.9-2.11,6.771-6.293,6.368-8.294" transform="translate(-22.839 -47.521)" fill="#daeae7"/>
        <path id="Trazado_208013" data-name="Trazado 208013" d="M79.825,291.558c6.57-3.614-17.832-19.615-20.537-20.886-11.4-5.361-24.161-7.419-36.417-4.879,11.507,9.833,20.826,22.1,35.633,27.685,4.612,1.739,9.244,1.777,14.054,1.235,2.228-.251,7.642-1.017,7.267-3.154" transform="translate(-6.784 -78.516)" fill="#daeae7"/>
        <path id="Trazado_208014" data-name="Trazado 208014" d="M81.332,312.753c-1.617-3.538-6.442-7.31-8.645-9.233a47.954,47.954,0,0,0-15.628-9.179C42.945,289.347,28.913,291.452,15,296.3c5.5,3.425,9.854,8.911,15.441,12.534,8.83,5.73,19.538,8.912,29.841,10.822,6.254,1.16,11.889,1.817,17.924-.6,3.827-1.536,4.234-3.862,3.121-6.3" transform="translate(-4.451 -86.455)" fill="#b9d8d2"/>
        <path id="Trazado_208015" data-name="Trazado 208015" d="M101.812,277.168c3.055-2.246-9.041-15.079-11.1-16.9-8.883-7.859-19.563-13.654-31.617-13.623,1.583,3.143,1.146,7.6,1.8,11.042.89,4.723,2.638,9.762,5.756,13.514,4.728,5.688,11.926,9.381,18.939,11.171,6.921,1.767,12.887-2.039,16.224-5.207" transform="translate(-17.529 -73.158)" fill="#b9d8d2"/>
        <path id="Trazado_208016" data-name="Trazado 208016" d="M115.629,115.735a6.578,6.578,0,0,1,2.673.861,25.673,25.673,0,0,1,2.4,1.5q1.154.812,2.268,1.678c.181.14.381.293.581.457-.545-2.539-1.078-5.079-1.577-7.625-.338-1.718-.662-3.437-.912-5.171-.129-.9-.255-1.792-.385-2.687a9.539,9.539,0,0,1,.082-2.713.227.227,0,0,1,.42-.114,9.3,9.3,0,0,1,1.042,1.908c.245.751.438,1.524.657,2.284.421,1.456.8,2.915,1.168,4.386.188-.452.38-.9.551-1.36.282-.751.54-1.509.837-2.254a7.253,7.253,0,0,1,.514-1.19,1.62,1.62,0,0,1,.388-.431c.091-.066.235-.115.292-.158a.163.163,0,0,1,.222.058c.031.073.128.177.174.282a1.558,1.558,0,0,1,.114.572,5.836,5.836,0,0,1-.2,1.282,21.744,21.744,0,0,1-.724,2.451,16.506,16.506,0,0,1-.943,2.451,8.32,8.32,0,0,1-.6.935c.554,2.382,1.085,4.77,1.63,7.153q.734,3.207,1.472,6.413c.393-.909.8-1.809,1.239-2.7.566-1.141,1.094-2.3,1.624-3.454.428-.933.876-2.317,1.844-2.818a.14.14,0,0,1,.2.082c.339,1.035-.315,2.354-.663,3.318-.434,1.2-.867,2.4-1.263,3.607s-.836,2.406-1.315,3.593a9.264,9.264,0,0,1-.887,1.771q1.019,4.448,2.041,8.9c.8,3.458,1.868,6.925,1.277,10.489-.044.27-.4.246-.526.069-1.873-2.593-2.471-5.673-3.175-8.739q-1.085-4.715-2.149-9.436-.955-4.235-1.89-8.479a3.83,3.83,0,0,1-2.528-1.211q-1.045-.846-2.132-1.635c-.744-.542-1.48-1.093-2.221-1.64a8.1,8.1,0,0,1-2-2,.453.453,0,0,1,.389-.678" transform="translate(-34.163 -30.197)" fill="#b9d8d2"/>
        <path id="Trazado_208017" data-name="Trazado 208017" d="M82,172.737c.106-.037.184-.208.281-.277a8.006,8.006,0,0,1,.927-.45,7.763,7.763,0,0,1,1.414-.217c.438-.027.915-.091,1.386-.105-.452-.4-.909-.786-1.358-1.184-1.016-.9-2.465-1.976-2.611-3.41a.328.328,0,0,1,.326-.325c1.259-.037,2.29,1,3.226,1.74,1.137.894,2.232,1.845,3.355,2.757q1.275,1.035,2.554,2.065c-.1-.536-.2-1.067-.312-1.568-.191-.858-.338-1.718-.462-2.589a5.121,5.121,0,0,1,.135-2.631.166.166,0,0,1,.272-.072,5.138,5.138,0,0,1,1.275,2.24c.3.859.537,1.732.752,2.614s.454,1.758.644,2.643c.1.459.167.928.234,1.391.521.414,1.039.832,1.562,1.243q5.133,4.033,10.446,7.828c-.364-1.022-.683-2.064-.992-3.1-.406-1.363-.767-2.731-1.046-4.127-.139-.692-.287-1.388-.377-2.089a4.2,4.2,0,0,1,0-1.983.608.608,0,0,1,1-.265,4.308,4.308,0,0,1,.793,1.742c.22.673.393,1.362.6,2.041.409,1.358.816,2.72,1.26,4.068s.957,2.673,1.448,4.007a8.853,8.853,0,0,1,.588,2.016c1.263.878,2.539,1.736,3.791,2.629a22.6,22.6,0,0,1,1.91,1.435,3.858,3.858,0,0,1,1.2,1.761.392.392,0,0,1-.374.492,3.366,3.366,0,0,1-1.777-.307,14.1,14.1,0,0,1-1.949-1.1c-1.176-.753-2.322-1.546-3.466-2.347q-3.491-2.446-6.912-4.99c-.23-.172-.458-.346-.688-.518a7.557,7.557,0,0,1-1.206.162c-1.163.084-2.325.129-3.487.248s-2.307.316-3.464.461c-1.03.129-2.43.561-3.339-.083a.282.282,0,0,1-.1-.376c.535-.979,1.954-1.156,2.956-1.38,1.143-.255,2.32-.4,3.482-.542.926-.115,1.856-.2,2.788-.272-3.551-2.7-7.054-5.465-10.435-8.366-.232-.2-.46-.4-.691-.6a4.159,4.159,0,0,1-.715.241,10.514,10.514,0,0,1-1.706.21,11.961,11.961,0,0,1-1.611.039,2.746,2.746,0,0,1-.84-.191c-.1-.037-.21-.065-.307-.111-.138-.065-.234-.222-.381-.251-.131-.026-.106-.2,0-.241" transform="translate(-24.297 -49.363)" fill="#b9d8d2"/>
        <path id="Trazado_208018" data-name="Trazado 208018" d="M40.446,271.066c1.431.134,2.693,1.382,3.848,2.161.287.193.58.378.869.568,0-.023-.006-.041-.006-.047q-.018-.127-.038-.253c-.033-.212-.07-.425-.111-.636-.086-.446-.12-.883-.2-1.321a.579.579,0,0,1,1.052-.444c.122.174.234.342.361.5a3.3,3.3,0,0,1,.366.644c.215.442.416.893.594,1.351a7.8,7.8,0,0,1,.319,1.291,4.346,4.346,0,0,1,.075.435c.155.094.308.192.464.285a90.937,90.937,0,0,0,8.182,4.146c.082.039.166.075.248.113-.371-.511-.735-1.026-1.076-1.556a20.769,20.769,0,0,1-1.407-2.534,6.44,6.44,0,0,1-.531-1.538,6.71,6.71,0,0,1-.12-.8,3.084,3.084,0,0,1,.131-.729.492.492,0,0,1,.717-.291c.061.034.122.07.183.107a2.227,2.227,0,0,1,.861.683,7.782,7.782,0,0,1,.921,1.211c.51.82,1,1.652,1.511,2.474.494.8.985,1.595,1.515,2.369a4.944,4.944,0,0,1,.985,2.244c4.372,1.864,8.823,3.512,13.291,5.152q2.437.894,4.886,1.755a12.22,12.22,0,0,1,4.551,2.24.481.481,0,0,1-.336.812,11.015,11.015,0,0,1-4.545-.8q-2.2-.692-4.4-1.4c-.425-.138-.848-.283-1.272-.426a8.462,8.462,0,0,1-1.572.464c-.983.225-1.965.466-2.96.64-1.849.325-4,1.027-5.787.17a.328.328,0,0,1-.066-.511,4.867,4.867,0,0,1,2.53-1.159c1-.167,2-.316,3-.473.563-.089,1.128-.16,1.694-.229q-2.214-.8-4.407-1.654c-2.921-1.134-5.814-2.339-8.638-3.7-1.815-.874-3.569-1.846-5.3-2.852a1.868,1.868,0,0,1-.158.129,3.759,3.759,0,0,1-.795.438,12.711,12.711,0,0,1-1.418.423,5.323,5.323,0,0,1-1.635.193,1.763,1.763,0,0,1-.893-.246c-.244-.158-.509-.329-.516-.656-.013-.581.808-.911,1.244-1.033a9.239,9.239,0,0,1,1.579-.244l.276-.04c.131-.02.261-.042.391-.066l.037-.007c-.311-.185-.622-.368-.933-.554-.523-.313-1.039-.64-1.556-.965a.733.733,0,0,1-.285-.162c-.011-.01-.02-.024-.032-.034-.864-.549-1.72-1.109-2.562-1.691-1.232-.853-3.088-1.823-3.622-3.295a.516.516,0,0,1,.5-.649" transform="translate(-11.843 -80.329)" fill="#b9d8d2"/>
        <path id="Trazado_208019" data-name="Trazado 208019" d="M73.516,263.824q-2.847-3.12-5.485-6.419c-.5-.626.333-1.519.9-.9q2.429,2.627,4.993,5.139c-.02-.083-.044-.165-.063-.249a14.655,14.655,0,0,1-.369-1.664c-.06-.55-.027-1.125-.046-1.678,0-.122.149-.141.21-.057.324.445.7.873.995,1.335a13.021,13.021,0,0,1,.709,1.5c.25.539.472,1.085.689,1.639a4.439,4.439,0,0,1,.45,1.652q4.072,3.823,8.414,7.345c-.07-.214-.141-.428-.2-.643-.267-.907-.511-1.819-.765-2.728s-.483-1.83-.658-2.757c-.087-.46-.168-.926-.222-1.391a4.061,4.061,0,0,1,.13-1.216.213.213,0,0,1,.355-.094,4.307,4.307,0,0,1,.9,1.135c.212.422.408.856.589,1.292.4.973.776,1.95,1.12,2.945.331.958.674,1.913.976,2.88a2.463,2.463,0,0,1-.055,2.3c1.26.984,2.529,1.955,3.818,2.9,2.159,1.58,4.751,3.015,6.342,5.214.3.414-.194.874-.608.79-2.372-.476-4.462-2.129-6.38-3.516-2.017-1.459-4-2.965-5.914-4.558q-2.233-1.859-4.387-3.823a6.435,6.435,0,0,1-1.347.173c-.417,0-.841.053-1.255.044-.386-.008-.78-.077-1.165-.115-.845-.083-1.688-.16-2.528-.3-.694-.114-1.769-.281-2.137-.969a.551.551,0,0,1,.082-.637c.488-.6,1.648-.547,2.343-.528.779.02,1.553.1,2.33.172.409.037.821.063,1.226.117.113.015.224.044.334.069-1.488-1.422-2.942-2.878-4.326-4.395" transform="translate(-20.133 -76.02)" fill="#daeae7"/>
        <path id="Trazado_208020" data-name="Trazado 208020" d="M35.493,300.382c1.558-.02,3.079-.032,4.638.076.889.062,1.777.153,2.666.251-.076-.072-.156-.138-.23-.212q-.752-.76-1.525-1.5c-.5-.48-1.011-.952-1.524-1.419a3.618,3.618,0,0,1-.346-.351c-.077-.093-.153-.188-.226-.283a2.572,2.572,0,0,1-.261-.459c.069.137-.02-.009-.057-.063l-.148-.215a1.122,1.122,0,0,1-.226-.74.679.679,0,0,1,.49-.642,1.208,1.208,0,0,1,.861.111c.081.04.16.083.239.125.021.011.223.115.091.06a3.472,3.472,0,0,1,.587.27,4.59,4.59,0,0,1,.58.449c.526.48,1.041.974,1.551,1.471s.987.976,1.471,1.474c.257.264.494.537.724.826.1.129.207.258.309.388a1.817,1.817,0,0,1,.372.791.944.944,0,0,1,.023.238c2,.235,4,.49,5.991.791.063-.022.122-.05.186-.07a.682.682,0,0,1,.764.22c.518.082,1.037.162,1.554.25a63.85,63.85,0,0,1,8.064,1.9c-.134-.136-.265-.275-.4-.409q-1.47-1.445-3.034-2.79c-1.014-.87-2.061-1.7-3.092-2.551a12,12,0,0,1-2.724-2.993c-.177-.286.114-.557.4-.515a8.684,8.684,0,0,1,3.711,1.54,38.449,38.449,0,0,1,3.4,2.676q1.555,1.353,3.015,2.809c.486.484.973.971,1.434,1.48a5.119,5.119,0,0,1,1.307,1.87.963.963,0,0,1,.025.291c1.407.553,2.8,1.163,4.158,1.84a33.024,33.024,0,0,1,3.947,2.237,10.4,10.4,0,0,1,1.779,1.475,20.345,20.345,0,0,1,1.355,1.813c.117.16-.082.427-.269.35a29.865,29.865,0,0,1-3.624-1.523c-1.152-.663-2.286-1.354-3.463-1.973a54.76,54.76,0,0,0-7.466-3.183A88.528,88.528,0,0,0,51.916,303.6a14.225,14.225,0,0,1-1.566,1.076q-1.048.648-2.117,1.258t-2.2,1.117a4.551,4.551,0,0,1-1.418.407,3.947,3.947,0,0,1-1.114-.134.278.278,0,0,1-.165-.4,3.748,3.748,0,0,1,.653-.973,6,6,0,0,1,.981-.715c.728-.429,1.5-.8,2.252-1.185.627-.323,1.248-.66,1.866-1-1.144-.208-2.29-.4-3.441-.57-1.734-.253-3.473-.457-5.211-.686-1.7-.224-3.34-.573-5.01-.936a.239.239,0,0,1,.063-.467" transform="translate(-10.458 -87.439)" fill="#daeae7"/>
        <path id="Trazado_208021" data-name="Trazado 208021" d="M77.6,114.143a3.47,3.47,0,0,1,2.256.579l1.995,1.034a20.945,20.945,0,0,1,1.975,1.068c.136.09.281.183.427.279-.758-1.143-1.515-2.285-2.252-3.442-1.1-1.722-2.158-3.456-3.16-5.235-.527-.935-1.013-1.882-1.475-2.849a8.437,8.437,0,0,1-.966-2.6.227.227,0,0,1,.339-.195,7.121,7.121,0,0,1,1.467,1.633c.587.777,1.172,1.562,1.713,2.373q1.088,1.629,2.165,3.264c-.012-.159-.019-.318-.018-.481.006-.611.113-1.225.152-1.836s.122-1.23.2-1.846c.044-.365.177-.687.252-1.044a2.712,2.712,0,0,1,.35-.838.356.356,0,0,1,.606,0,2.36,2.36,0,0,1,.429.838,6.653,6.653,0,0,1,.276,1.044,9.581,9.581,0,0,1,.041,1.988,10.169,10.169,0,0,1-.321,2.1,3.733,3.733,0,0,1-.909,1.66q2.872,4.4,5.907,8.683c.654.926,1.326,1.838,1.992,2.754.03-.327.068-.644.089-.923a23.374,23.374,0,0,0-.017-3.8,26.848,26.848,0,0,0-.611-3.75,33.266,33.266,0,0,1-.565-3.6.3.3,0,0,1,.513-.212,9.354,9.354,0,0,1,1.828,3.32,20.722,20.722,0,0,1,.714,3.988,23.256,23.256,0,0,1,0,4.051,6.567,6.567,0,0,1-.659,2.7q4.881,6.589,10.166,12.868c.87,1.037,1.762,2.057,2.65,3.08q-.262-1.773-.468-3.551c-.153-1.295-.326-2.588-.417-3.889a32.513,32.513,0,0,1,.129-4.188.289.289,0,0,1,.565-.077,32.643,32.643,0,0,1,1.175,4.012c.239,1.281.4,2.577.573,3.868s.344,2.572.478,3.864a16.516,16.516,0,0,1,.238,2.52,9.359,9.359,0,0,1,2.648,3.881.643.643,0,0,1-.785.785c-1.732-.6-2.8-2.131-3.976-3.464q-1.832-2.075-3.618-4.189-1.613-1.909-3.179-3.855a4.132,4.132,0,0,1-.566-.094c-.738-.181-1.467-.442-2.188-.68a39.785,39.785,0,0,1-4.123-1.63A35.02,35.02,0,0,1,87.8,132.1a18.682,18.682,0,0,1-3.43-2.821c-.152-.153,0-.452.219-.376a36.037,36.037,0,0,1,3.89,1.5c1.341.647,2.678,1.308,4.024,1.944q1.952.921,3.913,1.816c.11.051.221.1.331.146-.672-.85-1.35-1.7-2.012-2.555q-4.959-6.428-9.5-13.16a4.4,4.4,0,0,1-1.975-.429,22.32,22.32,0,0,1-2.143-1.007q-1.04-.516-2.081-1.033a3.331,3.331,0,0,1-1.726-1.472.416.416,0,0,1,.288-.508" transform="translate(-22.66 -30.476)" fill="#daeae7"/>
        <path id="Trazado_208022" data-name="Trazado 208022" d="M88.627,334.7a75.54,75.54,0,0,0-9.24-20.656c-4.587-7.269-10.089-13.079-18.1-16.566-4.588-2-11.721-4.759-12.171,2.656-.361,5.952,6.206,15.057,10.205,19.2-8.679-5.682-16.43-10.227-27.147-9.719-7.6.361-21.731,2.344-22.033,12.127-.568,18.45,31,16.366,42.372,18.546-9.655-.429-29.035,12.53-21.327,23.773,9.043,13.191,28.615,7.354,39-.281-3.171,6.22-5.093,15.233,4.385,16.253,10.813,1.163,13.236-13.38,14.915-21.112a51.319,51.319,0,0,0-.868-24.217" transform="translate(-3.007 -87.581)" fill="#e9c3c8"/>
        <path id="Trazado_208023" data-name="Trazado 208023" d="M97.668,344.136a49.977,49.977,0,0,0-6.111-13.662c-3.034-4.808-6.672-8.65-11.969-10.957-3.034-1.322-7.753-3.148-8.05,1.756-.238,3.937,4.1,9.959,6.75,12.7-5.74-3.758-10.867-6.764-17.955-6.428-5.024.238-14.373,1.55-14.573,8.021-.376,12.2,20.505,10.824,28.025,12.266-6.386-.283-19.2,8.287-14.106,15.724,5.982,8.724,18.926,4.864,25.8-.186-2.1,4.114-3.369,10.075,2.9,10.749,7.151.77,8.754-8.849,9.864-13.962a33.936,33.936,0,0,0-.574-16.018" transform="translate(-13.572 -94.34)" fill="#e0a8b8"/>
        <path id="Trazado_208024" data-name="Trazado 208024" d="M108.139,218.154c1.394-.974-3.481-14.661-4.338-17.177-2.174-6.388-6.425-13.768-13.109-16.281-10.029-3.769-5.4,8.4-4.406,13.7-4.882-6.277-8.664-13-14.783-18.37-4.93-4.33-13.072-11.732-20.305-8.639-6.983,2.985-2.887,11.539.21,16.358,2.22,3.455,5.814,9.4,9.446,11.484-3.98-3.522-10.791-6.826-16.326-8.218-6-1.508-22.407-3.748-22.667,6.523-.245,9.656,14.64,14.13,21.823,15.233-12.71-.129-12.326,12.933-2.939,18.15,6.245,3.471,13.068,4.83,20.07,5.724,6.746.861,13.573-1.017,20.339-1.353,8.949-.444,15.8-4.782,22.42-10,3.849-3.03,4.5-5.057,4.567-7.133" transform="translate(-6.483 -50.616)" fill="#e9c3c8"/>
        <path id="Trazado_208025" data-name="Trazado 208025" d="M119.6,238.317c.919-.643-2.3-9.671-2.861-11.332-1.434-4.214-4.239-9.082-8.648-10.74-6.615-2.486-3.562,5.539-2.906,9.035-3.219-4.141-5.715-8.573-9.752-12.118-3.252-2.857-8.623-7.739-13.395-5.7-4.606,1.969-1.9,7.612.138,10.791,1.464,2.28,3.836,6.2,6.231,7.576a28.565,28.565,0,0,0-10.77-5.421c-3.956-.995-14.782-2.472-14.953,4.3-.162,6.37,9.658,9.321,14.4,10.049-8.384-.084-8.13,8.531-1.939,11.973,4.119,2.29,8.621,3.186,13.239,3.776,4.45.568,8.954-.671,13.417-.893,5.9-.293,10.42-3.154,14.789-6.595,2.539-2,2.971-3.336,3.013-4.706" transform="translate(-18.591 -61.392)" fill="#e0a8b8"/>
        <path id="Trazado_208026" data-name="Trazado 208026" d="M124.912,119.254a1.312,1.312,0,0,0-.339-.581l-.266-.206a1.312,1.312,0,0,0-.665-.179,1.352,1.352,0,0,0-1.317,1.317c.015.116.032.233.047.35a1.314,1.314,0,0,0,.338.581l.267.206a1.32,1.32,0,0,0,.665.18.99.99,0,0,0,.507-.114,1.188,1.188,0,0,0,.7-.7,1,1,0,0,0,.113-.507c-.016-.117-.032-.234-.047-.35" transform="translate(-36.283 -35.085)" fill="#fff"/>
        <path id="Trazado_208027" data-name="Trazado 208027" d="M91.215,122.561a1.158,1.158,0,0,0,0,2.316,1.158,1.158,0,0,0,0-2.316" transform="translate(-26.724 -36.353)" fill="#fff"/>
        <path id="Trazado_208028" data-name="Trazado 208028" d="M85.507,186.777a1.717,1.717,0,0,0-.442-.76l-.349-.269a1.713,1.713,0,0,0-.869-.235,1.3,1.3,0,0,0-.663.148,1.547,1.547,0,0,0-.91.91,1.3,1.3,0,0,0-.148.663q.032.228.062.457a1.717,1.717,0,0,0,.442.76l.349.269a1.711,1.711,0,0,0,.869.235,1.768,1.768,0,0,0,1.721-1.721l-.061-.458" transform="translate(-24.359 -55.024)" fill="#fff"/>
        <path id="Trazado_208029" data-name="Trazado 208029" d="M102.41,219.164a.916.916,0,0,0-1.574,0,1.228,1.228,0,0,0-.045,1.215.972.972,0,0,0,1.664,0,1.219,1.219,0,0,0-.045-1.215" transform="translate(-29.853 -64.874)" fill="#fff"/>
        <path id="Trazado_208030" data-name="Trazado 208030" d="M57.136,206.418a.738.738,0,0,0,0,1.474.738.738,0,0,0,0-1.474" transform="translate(-16.736 -61.226)" fill="#fff"/>
        <path id="Trazado_208031" data-name="Trazado 208031" d="M45.051,305.213a1.219,1.219,0,0,0-.194-.609,1.649,1.649,0,0,0-.588-.587,1.628,1.628,0,0,0-.424-.171.565.565,0,0,1-.122-.034.8.8,0,0,0-.272-.053,1.124,1.124,0,0,0-.251-.023l.015,0-.019,0a1.2,1.2,0,0,0-.352.046l-.072.009a1.14,1.14,0,0,0-.516.273.752.752,0,0,0-.273.273,1.134,1.134,0,0,0-.272.516c-.02.14-.044.287-.058.428l0,.034a.681.681,0,0,0,.028.215.789.789,0,0,0,.108.4.842.842,0,0,0,.211.359c.046.06.1.134.153.195a.814.814,0,0,0,.063.058c.115.094.238.192.359.276l.042.027a1.649,1.649,0,0,0,1.654,0l.331-.257a1.63,1.63,0,0,0,.421-.723,1.245,1.245,0,0,0,.03-.653" transform="translate(-12.354 -90.09)" fill="#fff"/>
        <path id="Trazado_208032" data-name="Trazado 208032" d="M42.682,271.619a.694.694,0,0,0,0,1.388.694.694,0,0,0,0-1.388" transform="translate(-12.461 -80.565)" fill="#fff"/>
        <path id="Trazado_208033" data-name="Trazado 208033" d="M78.286,327.254a1.434,1.434,0,0,0-.371-.637l-.292-.226a1.434,1.434,0,0,0-.729-.2,1.485,1.485,0,0,0-1.444,1.444c.018.127.034.255.051.383a1.447,1.447,0,0,0,.371.637l.293.226a1.432,1.432,0,0,0,.729.2,1.481,1.481,0,0,0,1.443-1.443c-.017-.128-.034-.256-.051-.384" transform="translate(-22.379 -96.752)" fill="#fff"/>
        <path id="Trazado_208034" data-name="Trazado 208034" d="M54.333,331.828a.8.8,0,0,0-.283-.283.757.757,0,0,0-.722-.032l-.017,0-.008,0-.209.088a.86.86,0,0,0-.314.314l-.009.011c-.01.014-.022.028-.032.042a.657.657,0,0,0-.1.316.439.439,0,0,0,0,.226.657.657,0,0,0,.1.317l.133.172.173.133a.637.637,0,0,0,.315.1.648.648,0,0,0,.34-.016.518.518,0,0,0,.065-.018.683.683,0,0,0,.3-.158.647.647,0,0,0,.226-.248,1.692,1.692,0,0,0,.093-.22.214.214,0,0,0,.01-.027.528.528,0,0,0,.014-.058c.012-.075.023-.153.03-.229v-.013a.126.126,0,0,0,0-.028.792.792,0,0,0-.108-.4" transform="translate(-15.608 -98.307)" fill="#fff"/>
        <path id="Trazado_208035" data-name="Trazado 208035" d="M32.8,346.622a1.57,1.57,0,0,0-1-1.486,1.223,1.223,0,0,0-.627-.14l-.432.058a1.625,1.625,0,0,0-.717.418l-.255.329a1.626,1.626,0,0,0-.222.821c0,.037-.008.074-.012.11a1.582,1.582,0,0,0,1.007,1.5,1.239,1.239,0,0,0,.631.141l.435-.058a1.643,1.643,0,0,0,.723-.421l.256-.331a1.629,1.629,0,0,0,.224-.827c0-.037-.008-.074-.012-.11" transform="translate(-8.76 -102.329)" fill="#fff"/>
        <path id="Trazado_208036" data-name="Trazado 208036" d="M61.423,383.081a4.127,4.127,0,0,0-.311-.4c-.019-.019-.325-.257-.35-.272-.007,0-.4-.17-.408-.172l-.452-.061a.506.506,0,0,0-.181.024l.17-.022h-.035a1.375,1.375,0,0,0-.7.156,1.359,1.359,0,0,0-.584.376,1.814,1.814,0,0,0-.467.8,1.378,1.378,0,0,0-.032.724,1.355,1.355,0,0,0,.215.675,1.823,1.823,0,0,0,.651.651l.433.183a1.814,1.814,0,0,0,1.766-.467l.283-.367a1.818,1.818,0,0,0,0-1.832" transform="translate(-17.215 -113.358)" fill="#fff"/>
        <path id="Trazado_208037" data-name="Trazado 208037" d="M84.007,388.812a1,1,0,0,0-.257-.441l-.2-.156a1,1,0,0,0-.5-.136,1.026,1.026,0,0,0-1,1l.036.265a.993.993,0,0,0,.257.441l.2.156a1,1,0,0,0,.5.136,1.028,1.028,0,0,0,1-1Z" transform="translate(-24.335 -115.108)" fill="#fff"/>
        <path id="Trazado_208038" data-name="Trazado 208038" d="M111.788,385.074a1.807,1.807,0,0,0-.466-.8l-.366-.283a1.806,1.806,0,0,0-.914-.248,1.86,1.86,0,0,0-1.811,1.811q.032.242.065.482a1.811,1.811,0,0,0,.466.8l.366.283a1.8,1.8,0,0,0,.914.247,1.861,1.861,0,0,0,1.811-1.81c-.022-.16-.043-.321-.065-.481" transform="translate(-32.102 -113.822)" fill="#fff"/>
        <path id="Trazado_208039" data-name="Trazado 208039" d="M127.822,177.132a1.192,1.192,0,0,0-.19-.594,4.314,4.314,0,0,0-.279-.36.378.378,0,0,0-.042-.041,3.307,3.307,0,0,0-.347-.27.424.424,0,0,0-.048-.03,2.2,2.2,0,0,0-.219-.1c-.068-.028-.144-.067-.218-.089a.737.737,0,0,0-.123-.026,2.878,2.878,0,0,0-.459-.052,3.283,3.283,0,0,0-.437.053c-.042.008-.084.018-.125.03l-.061.023a1.323,1.323,0,0,0-.49.283l-.042.054-.018.008a2.193,2.193,0,0,0-.254.186.9.9,0,0,0-.082.073,1.214,1.214,0,0,0-.292.5,1.524,1.524,0,0,0-.043.279.572.572,0,0,0,0,.12.8.8,0,0,0,.091.335.608.608,0,0,0,.007.251,1.184,1.184,0,0,0,.634.77,2.083,2.083,0,0,0,.684.194l.357.151a1.216,1.216,0,0,0,.638.029.814.814,0,0,0,.4-.109,1.214,1.214,0,0,0,.515-.331l.25-.324q.081-.191.161-.382a1.211,1.211,0,0,0,.029-.639" transform="translate(-36.794 -52.077)" fill="#fff"/>
        <path id="Trazado_208040" data-name="Trazado 208040" d="M300.747,44.728a2.862,2.862,0,0,0-1.955-1.91c-.063-.025-.128-.053-.19-.073A3.082,3.082,0,0,0,297,42.76c-.17.04-.336.093-.5.141-.379.108-.747.243-1.118.376-.268.1-.531.2-.795.306-.025-.236-.053-.471-.1-.706a3.886,3.886,0,0,0-.185-.653,2.773,2.773,0,0,0-.642-1.135,6.936,6.936,0,0,0-.634-.494,2.1,2.1,0,0,0-2.153,0,2.185,2.185,0,0,0-1.041,1.756l.055-.409c-.021.151-.046.3-.068.452,0,.011,0,.02,0,.031v.011l-.008.084c0-.023.006-.046.01-.069a3.5,3.5,0,0,0,.056.943q-.04-.3-.082-.608c.087.767-.138,1.53-.088,2.3a4.658,4.658,0,0,0,1.943,3.779,5.31,5.31,0,0,0,4.395.255c1.374-.378,3.249-.7,4.137-1.9a2.541,2.541,0,0,0,.435-.691,2.655,2.655,0,0,0,.139-1.8" transform="translate(-85.925 -11.953)" fill="#e0a8b8"/>
        <path id="Trazado_208041" data-name="Trazado 208041" d="M378.029,153.324a2.756,2.756,0,0,0-3.024-1.23,4.533,4.533,0,0,0-.91.368c-.1-.241-.212-.479-.338-.709a4.262,4.262,0,0,0-.981-1.384l-.217-.222a1.828,1.828,0,0,0-3.1,1.285c0,.058,0,.115,0,.172a4.866,4.866,0,0,0,.23,1.866c.077.39.185.767.288,1.151.209.782.394,1.571.547,2.367a2.461,2.461,0,0,0,3.027,1.718,14.863,14.863,0,0,0,2.131-.854,7.517,7.517,0,0,0,1.934-1.283,2.673,2.673,0,0,0,.736-1.538,2.56,2.56,0,0,0-.318-1.707" transform="translate(-109.573 -44.381)" fill="#e0a8b8"/>
        <path id="Trazado_208042" data-name="Trazado 208042" d="M398.235,369.881a5.174,5.174,0,0,0-2.09-2.966c-.074-.059-.15-.116-.224-.175.077-.065.157-.125.229-.2.1-.1.207-.189.3-.293a3.886,3.886,0,0,0,.7-1.232l-.25.594.153-.359a2.265,2.265,0,0,0-1.955-3.408c-.153.011-.306.02-.459.033a4.127,4.127,0,0,0-1.607.509,8.408,8.408,0,0,0-1,.651,7.522,7.522,0,0,0-2.392,2.133,3.336,3.336,0,0,0,.911,4.451c.53.409,1.118.73,1.668,1.113a11.314,11.314,0,0,1,.844.767,6.051,6.051,0,0,0,.534.47,5.55,5.55,0,0,0,.721.556,8.213,8.213,0,0,0,.9.372,2.4,2.4,0,0,0,2.389-.632,2.565,2.565,0,0,0,.632-2.389" transform="translate(-115.427 -107.326)" fill="#e0a8b8"/>
        <path id="Trazado_208043" data-name="Trazado 208043" d="M8.929,359.341a6.087,6.087,0,0,0-2.287,2.517c-.14.242-.267.48-.4.718-.393-.227-.785-.457-1.166-.7-.459-.3-.931-.563-1.4-.841A7.73,7.73,0,0,0,2.9,360.6a4.219,4.219,0,0,0-1.361-.345,1.466,1.466,0,0,0-1.22.613,1.614,1.614,0,0,0-.278,1.355,4.35,4.35,0,0,0,1.155,2.031A10.415,10.415,0,0,0,2.381,365.5c.431.378.882.729,1.327,1.092.589.479,1.126,1.027,1.751,1.46a4.077,4.077,0,0,0,3.258.639,4.62,4.62,0,0,0,2.635-2.1c.945-1.4,1.992-2.98,1.986-4.719a2.962,2.962,0,0,0-4.41-2.531" transform="translate(0 -106.475)" fill="#e0a8b8"/>
        <path id="Trazado_208044" data-name="Trazado 208044" d="M54.69,142.356a2.8,2.8,0,0,0-1.832-1.713,2.958,2.958,0,0,0-2.228.345,3.628,3.628,0,0,0-1.441,1.755,16.915,16.915,0,0,0-.6,1.839c-.053.178-.1.357-.148.535-.088-.028-.176-.059-.263-.085a8.288,8.288,0,0,0-3.063-.7,1.626,1.626,0,0,0-1.242.623,1.491,1.491,0,0,0-.283,1.379,3.535,3.535,0,0,0,.773,1.313,9.61,9.61,0,0,0,1.054.871c.492.374.991.759,1.519,1.083s1.077.6,1.627.872a3.754,3.754,0,0,0,1.882.509,3.572,3.572,0,0,0,3.027-2.1c.151-.357.277-.718.405-1.083.18-.512.344-1.026.5-1.545s.345-1.03.466-1.555a3.69,3.69,0,0,0-.154-2.347" transform="translate(-12.907 -41.692)" fill="#e0a8b8"/>
        <path id="Trazado_208045" data-name="Trazado 208045" d="M130.5,42.337a1.849,1.849,0,0,0-2.207-1.253c-.127.025-.257.043-.384.072a2.578,2.578,0,0,0-1.245.8,13.9,13.9,0,0,0-1.019,1.273l.377-.487c-.248.317-.487.639-.729.96-.054-.044-.1-.094-.159-.136a4.621,4.621,0,0,0-2.041-1.13,1.9,1.9,0,0,0-1.763.466,1.883,1.883,0,0,0-.466,1.763,2.246,2.246,0,0,0,.395.991l.441.575a16.754,16.754,0,0,0,1.212,1.4,4.3,4.3,0,0,0,1.771,1.271,3.04,3.04,0,0,0,2.9-.74,12.957,12.957,0,0,0,1.706-1.811,7.32,7.32,0,0,0,1.188-1.974,3.174,3.174,0,0,0,.238-1.035,2.559,2.559,0,0,0-.218-1" transform="translate(-35.835 -12.173)" fill="#e0a8b8"/>
        <path id="Trazado_208046" data-name="Trazado 208046" d="M178.889,0c-50.839,0-49.376,49.01-47.547,72.052s-30.358,44.987-11.7,76.076,107.53,22.676,117.04-8.778S226.436,97.289,225.7,72.784,228.631,0,178.889,0" transform="translate(-33.755)" fill="#463047"/>
        <path id="Trazado_208047" data-name="Trazado 208047" d="M154.334,161.861c-26.334,7.559-32.186,33.161-36.941,44.5s-10.241,29.26-5.852,40.964,130.572-1.463,130.572-1.463-6.949-46.45-16.093-60.715-13.167-15.849-25.6-20.36-25.6-1.219-26.7-1.585-19.385-1.341-19.385-1.341" transform="translate(-32.608 -48.01)" fill="#cd5e79"/>
        <path id="Trazado_208048" data-name="Trazado 208048" d="M186.468,131.7s1.219,4.389-1.219,11.948-12.192,9.266-12.192,9.266,9.022,10.728,23.408,11.7a28.617,28.617,0,0,0,22.676-8.778s-10.241-5.121-12.435-10.729-.975-13.411-.975-13.411Z" transform="translate(-51.33 -39.064)" fill="#e5b49c"/>
        <path id="Trazado_208049" data-name="Trazado 208049" d="M209.786,140.631a33.731,33.731,0,0,1-.175-5.966l-6.59-2.963H190.628s1.219,4.389-1.219,11.948a11.049,11.049,0,0,1-2.326,4,28.3,28.3,0,0,0,9.78-.055,23.655,23.655,0,0,0,10.2-4.275,15.606,15.606,0,0,0,2.725-2.688" transform="translate(-55.491 -39.064)" fill="#dd997b"/>
        <path id="Trazado_208050" data-name="Trazado 208050" d="M222.047,72.256s4.464-.02,4.633,5.364c.244,7.8-6.34,8.047-6.34,8.047s-6.1,28.041-27.553,28.528S162.552,85.18,162.552,85.18s-6.828-.976-6.828-7.071,6.34-6.584,6.34-6.584,1.22-8.29,13.411-15.361S192.3,45.679,193.762,40.558c0,0,5.055,9.856,11.7,13.167,9.316,4.64,14.386,13.655,16.58,18.532" transform="translate(-46.189 -12.03)" fill="#e5b49c"/>
        <path id="Trazado_208051" data-name="Trazado 208051" d="M165.127,93.827a6.45,6.45,0,0,0-.592-1.552,8.685,8.685,0,0,0-.694-1.192,7.688,7.688,0,0,0-1.144-1.322,2.769,2.769,0,0,0-.728-.52.62.62,0,0,0-.877.315c-.136.479.269.92.5,1.3s.454.762.653,1.158c.061.122.108.221.151.314a3.424,3.424,0,0,0-.7.533,2.688,2.688,0,0,0-.784,1.707,2.094,2.094,0,0,0,2.292,2.288A2.308,2.308,0,0,0,164.84,95.8a2.642,2.642,0,0,0,.287-1.977" transform="translate(-47.726 -26.45)" fill="#dd997b"/>
        <path id="Trazado_208052" data-name="Trazado 208052" d="M253.035,93.875a1.394,1.394,0,0,0-1-.651c-.154-.021-.31-.042-.464-.053a1.329,1.329,0,0,0-.214.008c.01-.044.019-.088.03-.132a8.152,8.152,0,0,1,.235-.8.856.856,0,0,1,.069-.184l-.011.017a.509.509,0,0,0,.032-.055,3.74,3.74,0,0,1,.186-.341c.034-.054.072-.106.106-.16.016-.022.016-.023.016-.023l.1-.129a1.682,1.682,0,0,0,.238-.544.866.866,0,0,0-.822-1.078c-.928-.011-1.545,1.009-1.88,1.754a8.345,8.345,0,0,0-.751,2.509,2.657,2.657,0,0,0,1.211,2.559,2.146,2.146,0,0,0,2.875-.716,1.89,1.89,0,0,0,.041-1.98" transform="translate(-73.824 -26.621)" fill="#dd997b"/>
        <path id="Trazado_208053" data-name="Trazado 208053" d="M228.583,70.942c-.666.118-1.34-.352-2.021-.39a8.087,8.087,0,0,1-2.187-.392,10.409,10.409,0,0,1-3.894-2.566c-2.382-2.368-3.766-5.565-5.664-8.311a18.731,18.731,0,0,0-7.34-6.347c-2.8-1.372-5.861-2.313-8.386-4.211a14.355,14.355,0,0,1-3.574-4.275c-.545-.918-1.045-1.863-1.552-2.807a7.828,7.828,0,0,0-2.225-2.88,22.331,22.331,0,0,0-1.483,1.832c-.473.7-.84,1.492-1.256,2.23a18.913,18.913,0,0,1-2.934,3.928c-2.51,2.581-5.646,3.976-8.85,5.437a30.965,30.965,0,0,0-9.011,6.067c-2.64,2.6-4.573,5.811-7.052,8.557a12.437,12.437,0,0,1-4.4,3.286,11.876,11.876,0,0,1-5.349.822.3.3,0,0,0-.2.5c2.61,2.335,6.647,1.078,9.224-.639,3.258-2.171,5.286-5.543,7.774-8.495a27.857,27.857,0,0,1,9.074-7.078c3.473-1.7,6.989-3.042,9.9-5.714a21.58,21.58,0,0,0,3.8-4.666,13.8,13.8,0,0,0,1.229-2.56c.353.863.733,1.718,1.12,2.564a16.034,16.034,0,0,0,3.11,4.774c2.374,2.379,5.525,3.66,8.485,5.083a23.2,23.2,0,0,1,4.175,2.422A15.957,15.957,0,0,1,212.52,61c1.99,2.985,3.513,6.376,6.112,8.892a13.418,13.418,0,0,0,5.092,3.2,7.7,7.7,0,0,0,2.709.4c1.17-.055,1.7-.813,2.615-1.417a.618.618,0,0,0-.464-1.125" transform="translate(-44.823 -11.498)" fill="#573c5a"/>
        <path id="Trazado_208054" data-name="Trazado 208054" d="M141.652,102.381c-.058-.655.045-1.265.011-1.916-.027-.532-.12-1.066-.191-1.595a8.3,8.3,0,0,0-.853-3.414.482.482,0,0,0-.871.114,9.859,9.859,0,0,0-.1,2.982q.015.8,0,1.593c-.01.55.11,1.056.139,1.6a26.119,26.119,0,0,1-.3,3.193c-.076,1.066-.186,2.131-.343,3.188a46.748,46.748,0,0,1-3.557,12.4c-1.828,4.046-4.427,7.6-6.71,11.389a33.706,33.706,0,0,0-5.067,19.078,18.57,18.57,0,0,0,.412,3.459,16.683,16.683,0,0,0,1.3,3.393.524.524,0,0,0,.969-.262c-.056-1.045-.011-2.068-.068-3.113s-.143-2.107-.2-3.16a31.167,31.167,0,0,1,.309-6.333,32.749,32.749,0,0,1,4.5-12c2.29-3.779,4.874-7.339,6.685-11.392a45.324,45.324,0,0,0,3.577-12.215,30.983,30.983,0,0,0,.353-6.994" transform="translate(-36.716 -28.246)" fill="#573c5a"/>
        <path id="Trazado_208055" data-name="Trazado 208055" d="M156.09,105.386c-.089-.66-1.1-.575-1.253,0-.761,2.891-.772,6.02-1.184,8.975a45.5,45.5,0,0,1-2.037,8.832c-1.954,5.556-5.424,10.562-6.662,16.376a19.915,19.915,0,0,0-.459,4.712,6.779,6.779,0,0,0,1.545,4.329c.284.364.823.032.843-.349.033-.632.137-1.256.153-1.889.018-.753-.085-1.5-.095-2.252a18.89,18.89,0,0,1,.468-4.215,38.527,38.527,0,0,1,2.956-8.138c1.2-2.572,2.452-5.128,3.39-7.81a42.8,42.8,0,0,0,1.941-8.626,38.763,38.763,0,0,0,.394-9.945" transform="translate(-42.856 -31.121)" fill="#573c5a"/>
        <path id="Trazado_208056" data-name="Trazado 208056" d="M172.374,130.949a.589.589,0,0,0-1.087.294,4.6,4.6,0,0,1-.366.931c-.129.357-.231.72-.325,1.087-.159.629-.293,1.265-.439,1.9-.318,1.372-.582,2.754-.857,4.136s-.589,2.76-.806,4.151a15.78,15.78,0,0,0-.053,4.12c.032.322.483.518.662.179a15.765,15.765,0,0,0,1.572-4.034c.328-1.48.573-2.983.858-4.472s.552-2.988.79-4.491c.171-1.084.689-2.8.051-3.8" transform="translate(-49.929 -38.757)" fill="#573c5a"/>
        <path id="Trazado_208057" data-name="Trazado 208057" d="M275.381,148.615a34.437,34.437,0,0,0-2.874-11.6c-1.678-3.769-4.261-7.05-5.731-10.922a55.909,55.909,0,0,1-2.852-12.665c-.318-2.449-.51-4.908-.7-7.369a50.469,50.469,0,0,0-.63-7.412.1.1,0,0,0-.2,0,21.291,21.291,0,0,0-.824,6.511c-.057,2.162-.029,4.317.106,6.476a64.948,64.948,0,0,0,1.827,12.593,32.357,32.357,0,0,0,2.2,5.952c.9,1.831,1.987,3.557,2.957,5.348a31.977,31.977,0,0,1,3.831,17.676c-.072,1.052-.185,2.1-.3,3.147a9.8,9.8,0,0,0-.111,1.556,14.727,14.727,0,0,0,.314,1.68.531.531,0,0,0,.883.234,6.415,6.415,0,0,0,1.4-2.185,17.829,17.829,0,0,0,.613-3.169,31.259,31.259,0,0,0,.1-5.856" transform="translate(-77.574 -29.239)" fill="#573c5a"/>
        <path id="Trazado_208058" data-name="Trazado 208058" d="M259.478,145.6a48.882,48.882,0,0,0-3.4-8.849,38.708,38.708,0,0,1-2.8-9.219c-.281-1.61-.507-3.233-.741-4.851a12.09,12.09,0,0,1-.177-2.064c.018-.625.248-1.23.224-1.855a.158.158,0,0,0-.2-.151c-1.152.222-1.4,1.739-1.486,2.705a28.64,28.64,0,0,0,.171,4.566A37.624,37.624,0,0,0,253,135.69c1.089,3.038,2.6,5.918,3.5,9.026a17.06,17.06,0,0,1,.736,4.468c.022,1.448-.223,2.974.376,4.339a.439.439,0,0,0,.593.155c2.593-1.433,1.806-5.759,1.276-8.081" transform="translate(-74.408 -35.179)" fill="#573c5a"/>
        <path id="Trazado_208059" data-name="Trazado 208059" d="M243.681,143.736c-.336-1.4-.726-2.795-1.125-4.18-.364-1.259-.592-2.823-1.585-3.76a.185.185,0,0,0-.3.081c-.446,1.215,0,2.62.221,3.845.24,1.315.515,2.622.77,3.935a21.789,21.789,0,0,1,.442,3.5c.016.545.068,1.106.051,1.65a6.5,6.5,0,0,0-.011,1.624.264.264,0,0,0,.382.155c1.021-.464,1.443-1.895,1.564-2.921a11.5,11.5,0,0,0-.4-3.928" transform="translate(-71.327 -40.263)" fill="#573c5a"/>
        <path id="Trazado_208060" data-name="Trazado 208060" d="M187.852,23.064c-.018-.306-.5-.518-.646-.175a22,22,0,0,1-1.026,2.534c-.491.841-.986,1.677-1.462,2.531a27,27,0,0,1-3.1,4.647,20.774,20.774,0,0,1-9.569,6.222,22.934,22.934,0,0,0-6.125,2.493,14.733,14.733,0,0,0-3.78,3.888c-2.064,2.975-3.314,6.5-5.6,9.321a11.9,11.9,0,0,1-5.441,3.8,13.685,13.685,0,0,1-3.365.687c-.565.041-1.135.073-1.7.06a1.855,1.855,0,0,0-1.276.317.305.305,0,0,0-.108.415,1.358,1.358,0,0,0,.907.7,10.721,10.721,0,0,0,1.327.231,11.562,11.562,0,0,0,3.372-.127,13.911,13.911,0,0,0,5.708-2.4c3.294-2.384,5-5.984,6.953-9.42a17.81,17.81,0,0,1,3.366-4.522,14.873,14.873,0,0,1,5.837-2.785A24.109,24.109,0,0,0,182.788,35.1a20.99,20.99,0,0,0,3.8-5.438,9.935,9.935,0,0,0,1-3.216,22.739,22.739,0,0,0,.269-3.385" transform="translate(-42.89 -6.737)" fill="#573c5a"/>
        <path id="Trazado_208061" data-name="Trazado 208061" d="M182.347,10.3c-1.954,3.145-3.3,6.677-6.056,9.252-2.55,2.38-5.9,3.41-9.117,4.557-3.053,1.089-6.207,2.351-8.424,4.816-2.259,2.51-3.23,5.8-4.582,8.828a11.326,11.326,0,0,1-3.213,4.535,9.154,9.154,0,0,1-2.919,1.422c-1,.307-2.05.3-3.037.646a.289.289,0,0,0-.068.523c1.458.981,3.682.541,5.209-.084a10.051,10.051,0,0,0,4.2-3.307c2.168-2.854,2.9-6.44,4.753-9.47,1.89-3.1,5.1-4.566,8.4-5.743,3.384-1.208,6.87-2.283,9.7-4.59a16.486,16.486,0,0,0,6.138-11.118c.039-.547-.724-.686-.984-.267" transform="translate(-42.947 -2.983)" fill="#573c5a"/>
        <path id="Trazado_208062" data-name="Trazado 208062" d="M248.347,56.78a12.382,12.382,0,0,1-4.265-1.286,11.614,11.614,0,0,1-3.377-3.418c-1.785-2.641-2.856-5.7-4.716-8.3a13.012,13.012,0,0,0-3.383-3.377,15.975,15.975,0,0,0-4.762-1.9,21.939,21.939,0,0,1-5.007-1.669,9.42,9.42,0,0,1-3.207-2.938c-2.017-2.948-2.284-6.313-2.853-9.722a.532.532,0,0,0-1.019,0,16.849,16.849,0,0,0,1.443,9.508,11.712,11.712,0,0,0,7.18,6.461c1.77.585,3.641.9,5.363,1.634a9.3,9.3,0,0,1,3.912,3.213c2.005,2.8,2.955,6.188,4.941,9s6.26,6.888,10,4.671a1.034,1.034,0,0,0-.244-1.868" transform="translate(-63.937 -7.055)" fill="#573c5a"/>
        <path id="Trazado_208063" data-name="Trazado 208063" d="M252.48,43.4c-1.094-1.3-2.843-1.617-4.315-2.35a7.7,7.7,0,0,1-2.773-2.355c-1.516-2.04-2.392-4.472-3.767-6.6a9.577,9.577,0,0,0-6.665-4.586,15.886,15.886,0,0,1-4.775-1.2,12.866,12.866,0,0,1-3.653-2.876,19.475,19.475,0,0,1-3.081-4.908c-.435-.94-.818-1.905-1.186-2.875a7.223,7.223,0,0,0-1.3-2.651.463.463,0,0,0-.767.2,5.468,5.468,0,0,0,.328,2.407c.269.964.575,1.92.917,2.861a24.619,24.619,0,0,0,2.414,5.041,13.4,13.4,0,0,0,7.776,5.976c1.639.409,3.477.39,4.995,1.2a7.311,7.311,0,0,1,2.609,2.543c1.452,2.216,2.34,4.76,3.889,6.918a10.277,10.277,0,0,0,3.639,3.29c1.694.858,3.892,1.412,5.645.478a.333.333,0,0,0,.067-.517" transform="translate(-65.302 -3.819)" fill="#573c5a"/>
        <path id="Trazado_208064" data-name="Trazado 208064" d="M217.767,163.76a22.239,22.239,0,0,1-8.627,5.748,31.813,31.813,0,0,1-9.348,1.92,38.7,38.7,0,0,1-4.847-.112,8.555,8.555,0,0,0-2.14-.109c-.044.008-.063.017-.095.025a1.686,1.686,0,0,0-.494-.239c-.422-.141-.881-.2-1.316-.3a34.661,34.661,0,0,1-9.01-3.4,30.962,30.962,0,0,1-4.506-2.917q-1.052-.843-2.031-1.772a6.1,6.1,0,0,0-2.138-1.571c-.5-.184-.929.364-.82.821.374,1.571,1.991,2.762,3.165,3.777a33.289,33.289,0,0,0,13.6,7.295,12.168,12.168,0,0,0,2.578.584,4.7,4.7,0,0,0,.486-.037c.051.017.2.047.261.07a6.558,6.558,0,0,0,1.429.358,29.962,29.962,0,0,0,5.335.378,32.473,32.473,0,0,0,10.181-1.675c3.99-1.365,8.172-3.524,10.578-7.111.908-1.353-1.134-2.9-2.245-1.732" transform="translate(-51.129 -47.753)" fill="#c84151"/>
        <path id="Trazado_208065" data-name="Trazado 208065" d="M152.439,207.927c-1.388.962-2.1,2.767-2.748,4.27-.76,1.756-1.478,3.542-2.081,5.358s-1.177,3.636-1.761,5.455c-.523,1.631-1.5,3.735-.8,5.437a.317.317,0,0,0,.458.186c1.474-.93,1.89-2.963,2.369-4.514.566-1.83,1.123-3.662,1.7-5.487.553-1.742,1.07-3.494,1.681-5.217.588-1.656,1.6-3.463,1.594-5.249a.279.279,0,0,0-.417-.239" transform="translate(-42.951 -61.661)" fill="#c84151"/>
        <path id="Trazado_208066" data-name="Trazado 208066" d="M261.353,228.1q-.5-1.352-1.013-2.7c-.641-1.683-1.272-3.371-1.945-5.043-.653-1.624-1.3-3.25-2.038-4.839a8.021,8.021,0,0,0-2.66-3.667c-.127-.084-.272.055-.243.186a72.026,72.026,0,0,0,3.1,9.384c.608,1.63,1.232,3.255,1.844,4.885q.441,1.181.891,2.358a10.166,10.166,0,0,0,1.1,2.55c.5.662,1.811.558,1.747-.473a9.581,9.581,0,0,0-.791-2.645" transform="translate(-75.176 -62.83)" fill="#c84151"/>
        <path id="Trazado_208067" data-name="Trazado 208067" d="M193.043,80.179c-.53-1.806-2.963-2.576-4.67-2.477a7.036,7.036,0,0,0-2.807.827c-.876.454-1.9,1.067-2.064,2.114a.953.953,0,0,0,.9,1.187,2.294,2.294,0,0,0,1.317-.34,9.031,9.031,0,0,1,.9-.518c.077-.038.155-.075.234-.11l.032-.015.064-.022c.162-.056.322-.113.487-.16s.332-.082.5-.117l.065-.013c.086-.009.172-.017.258-.023.151-.011.3-.018.452-.015.075,0,.151,0,.227.009l.076.006.114.016q.112.021.222.049c.165.04.326.092.486.148.059.031.12.058.178.089.132.07.256.151.381.232l.015.009.008.011a1.942,1.942,0,0,0,.167.146,3.1,3.1,0,0,0,.613.387,1.271,1.271,0,0,0,1.845-1.418" transform="translate(-54.424 -23.045)" fill="#463047"/>
        <path id="Trazado_208068" data-name="Trazado 208068" d="M228.177,80.47a4.584,4.584,0,0,0-2.5-1.833,8.086,8.086,0,0,0-5.359-.1,3.73,3.73,0,0,0-2.4,1.8,1.025,1.025,0,0,0,1.141,1.484,5.038,5.038,0,0,0,1.213-.4c.087-.043.173-.087.26-.129l.035-.018c.151-.059.3-.114.459-.161q.279-.085.563-.143c.077-.016.153-.03.229-.044l.062-.009a7.8,7.8,0,0,1,1.088-.026c.078,0,.156.01.234.017l.092.01c.154.026.307.053.459.088.17.039.34.085.506.138.093.029.184.061.276.094l.125.044c.143.063.369.165.128.053.088.041.176.08.263.123q.234.116.457.252a5.93,5.93,0,0,0,1.2.669,1.293,1.293,0,0,0,1.369-.466,1.345,1.345,0,0,0,.1-1.446" transform="translate(-64.605 -23.174)" fill="#463047"/>
        <path id="Trazado_208069" data-name="Trazado 208069" d="M192.829,90.885a.542.542,0,0,0-.63-.082c-.823.422-1.152,1.295-1.8,1.9a3.366,3.366,0,0,1-2.178.888,4.3,4.3,0,0,1-2.5-.821,11.009,11.009,0,0,1-2.051-2.258,1.034,1.034,0,0,0-1.231-.159,3.459,3.459,0,0,0-1.711,1.323.489.489,0,0,0,.416.726,4.79,4.79,0,0,0,1.128-.1,7.152,7.152,0,0,0,2.315,2.574,5.81,5.81,0,0,0,7.552-.438c.881-.832,1.853-2.549.693-3.563" transform="translate(-53.587 -26.763)" fill="#463047"/>
        <path id="Trazado_208070" data-name="Trazado 208070" d="M230.112,91.749a2.291,2.291,0,0,0-.286-.367,2.425,2.425,0,0,0-.566-.553c-.178-.107-.359-.209-.546-.3a1.361,1.361,0,0,0-.268-.1,1.267,1.267,0,0,0-.166-.14,1.378,1.378,0,0,0-1.662.215,6.485,6.485,0,0,0-.5.725c0,.006-.118.172-.136.2-.055.067-.11.133-.168.2a3.878,3.878,0,0,1-.885.774,5.792,5.792,0,0,1-.578.321l-.063.029-.06.023c-.1.037-.208.073-.314.1a2.75,2.75,0,0,1-1.179.127,3.961,3.961,0,0,1-2.013-.811,14.647,14.647,0,0,1-1.754-2.053c-.487-.562-1.3-.067-1.352.561a3.99,3.99,0,0,0,1.612,3.173,6.212,6.212,0,0,0,3.44,1.522,6.515,6.515,0,0,0,3.591-.719,5.809,5.809,0,0,0,1.459-1.053,5.042,5.042,0,0,0,1.04-1.4c.035.031.071.06.106.091a3.254,3.254,0,0,0,.338.293,1.136,1.136,0,0,0,.146.081.726.726,0,0,0,.3.081.377.377,0,0,0,.049-.007l.11.031a.334.334,0,0,0,.42-.32c0-.048-.008-.095-.013-.143a.839.839,0,0,0-.106-.583" transform="translate(-64.546 -26.665)" fill="#463047"/>
        <path id="Trazado_208071" data-name="Trazado 208071" d="M210.347,107.848a.278.278,0,0,0-.338-.338l-.039.011a1.085,1.085,0,0,0-.343.006h-.008a1.064,1.064,0,0,0-.249.056c-.219.075-.438.141-.652.23.146-.061.01,0-.021.006-.048.017-.095.034-.143.05-.1.031-.194.058-.293.079-.039.009-.079.018-.119.025l-.087.014-.086.01c-.051,0-.1.007-.153.008-.091,0-.182,0-.273,0l-.152-.009-.071-.007c-.175-.025-.353-.054-.525-.095a2.189,2.189,0,0,1-.909-.418.506.506,0,0,0-.715.715,3.478,3.478,0,0,0,2.645,1.215,3.992,3.992,0,0,0,1.438-.241,1.5,1.5,0,0,0,1.071-1.243l.021-.077" transform="translate(-60.814 -31.841)" fill="#dd997b"/>
        <path id="Trazado_208072" data-name="Trazado 208072" d="M211.555,107.6h.008c.038-.006.041-.008-.008,0" transform="translate(-62.749 -31.914)" fill="#dd997b"/>
        <path id="Trazado_208073" data-name="Trazado 208073" d="M210.2,120.2a1.344,1.344,0,0,0-.694.032c-.079.028-.16.05-.24.077s-.15.06-.224.091l-.041.015a4.492,4.492,0,0,1-.518.158c-.083.019-.167.031-.25.05h-.006c-.05,0-.1.011-.151.015a3.99,3.99,0,0,1-.511.008c-.053,0-.106-.006-.158-.011l-.063-.006-.07-.011c-.042-.007-.084-.015-.126-.024a3.738,3.738,0,0,1-.521-.146,1.533,1.533,0,0,0-.322-.1,1.594,1.594,0,0,0-.312.008.512.512,0,0,0-.436.76,1.068,1.068,0,0,0,.534.523,4.918,4.918,0,0,0,.666.254,4.647,4.647,0,0,0,1.319.179c.864-.007,2.246-.219,2.5-1.206a.546.546,0,0,0-.378-.666" transform="translate(-60.951 -35.644)" fill="#dd997b"/>
        <path id="Trazado_208074" data-name="Trazado 208074" d="M238.821,100.073a2.663,2.663,0,0,0-1.418-1.232,7.9,7.9,0,0,0-2.729-.524,6.308,6.308,0,0,0-2.863.575,3.161,3.161,0,0,0-1.078.763,2.327,2.327,0,0,0-.346,2.7,4.021,4.021,0,0,0,2.619,1.63,7.077,7.077,0,0,0,2.935.146c.179-.028.369-.07.559-.12a3.053,3.053,0,0,0,1.1-.347,2.806,2.806,0,0,0,1.281-1.417,2.541,2.541,0,0,0-.063-2.178" transform="translate(-68.249 -29.161)" fill="#d98a79"/>
        <path id="Trazado_208075" data-name="Trazado 208075" d="M180.986,100.073a2.663,2.663,0,0,0-1.418-1.232,7.9,7.9,0,0,0-2.729-.524,6.308,6.308,0,0,0-2.863.575,3.16,3.16,0,0,0-1.078.763,2.327,2.327,0,0,0-.346,2.7,4.021,4.021,0,0,0,2.619,1.63,7.077,7.077,0,0,0,2.935.146c.179-.028.369-.07.559-.12a3.052,3.052,0,0,0,1.1-.347,2.806,2.806,0,0,0,1.281-1.417,2.54,2.54,0,0,0-.063-2.178" transform="translate(-51.095 -29.161)" fill="#d98a79"/>
        <path id="Trazado_208076" data-name="Trazado 208076" d="M249.846,303.818a79.733,79.733,0,1,1-79.733-79.733,79.733,79.733,0,0,1,79.733,79.733" transform="translate(-26.808 -66.466)" fill="#f4e1e5"/>
        <path id="Trazado_208077" data-name="Trazado 208077" d="M234.13,315.278a52.557,52.557,0,1,1-52.557-52.557,52.557,52.557,0,0,1,52.557,52.557" transform="translate(-38.268 -77.926)" fill="#fff"/>
        <path id="Trazado_208078" data-name="Trazado 208078" d="M174.443,290.76c16.879-.433,20.429,11.048,30.017,10.839s30.851-14.383,38.772-1.459-3.753,25.431-15.425,29.809-20.429,1.042-21.679-7.3,10.423-13.549,16.676-8.338,11.465,1.459,11.882-4.169-7.5-9.172-15.008-6.254-12.091,8.338-18.135,10.423-7.087,6.67-8.338,12.507-6.462,7.087-4.377,13.967,3.7,9.518-1.042,15.842-8.963,10.006-5.837,19.8,2.293,12.715-1.668,15.842-17.367.214-15.634-6.462,5.837-6.878,2.293-14.8-9.8-6.253-9.38-16.884,1.877-13.133-2.5-18.135,2.71-10.215-2.293-16.26-7.087-6.879-19.8-11.882-15.217-3.961-16.26,1.459,3.127,4.378,9.172,3.753,15.216,2.5,14.8,11.673-14.175,11.673-26.265,2.084-17.51-23.346-8.338-31.059,21.47,3.96,30.643,6.461,21.47-11.047,37.73-11.465" transform="translate(-30.095 -86.239)" fill="#cd5e79"/>
        <path id="Trazado_208079" data-name="Trazado 208079" d="M241.009,303.376c-5.01-3.66-11.7-2.42-17.248-.921-6.646,1.8-12.989,4.5-19.417,6.931-3.491,1.318-7.083,2.78-10.8,3.308a16.135,16.135,0,0,1-5.234-.078,10.64,10.64,0,0,1-1.5-.408c-3.206-3.322-7.82-4.941-13.507-3.229a22.59,22.59,0,0,0-7.68,3.839c-.13.019-.26.043-.39.059a38.17,38.17,0,0,1-7.854-.065,41.029,41.029,0,0,1-8.6-1.3c-2.853-.868-5.235-2.674-7.846-4.05a36.409,36.409,0,0,0-8.653-2.982,46.858,46.858,0,0,0-9.3-1.518c-4.882-.147-10.785,2.247-11.579,7.69-.461,3.163,1.111,6.769,3.033,9.225,1.5,1.922,5.387,4.777,7.624,2.4a.594.594,0,0,0-.12-.925,6.355,6.355,0,0,0-1.417-.514,8.416,8.416,0,0,1-1.8-.477,6.883,6.883,0,0,1-2.853-2.551c-1.376-2.071-2.74-5.018-1.994-7.529a7.378,7.378,0,0,1,4.438-4.393,14.75,14.75,0,0,1,8.337-.272,84.029,84.029,0,0,1,8.243,2.041,34.244,34.244,0,0,1,7.54,3.61,24.033,24.033,0,0,0,7.587,3.233,62.557,62.557,0,0,0,8.078,1,37.741,37.741,0,0,0,4.821.091c-5.954,7.953-1.476,19.417,4.379,24.562a29.373,29.373,0,0,1,3.66,7.064,19.981,19.981,0,0,1,1.115,6.532,21.515,21.515,0,0,1-.407,3.9,17.6,17.6,0,0,1-.536,1.9c-.193.56-.37,1.086-.5,1.613-.8,2.031-1.766,3.8-1.365,6.107.362,2.085,1.659,3.811,2.375,5.764,1.723,4.694-2.65,8.975-3.43,13.439a8.275,8.275,0,0,0,1.509,6.776,11.735,11.735,0,0,0,5.676,3.813c4.053,1.272,8.529-.1,10.557-3.974,1.965-3.755,1.511-8.142.485-12.093a40.255,40.255,0,0,1-1.652-7.515,15.994,15.994,0,0,1,1.307-6.653c.885-2.4,1.825-4.889,1.607-7.5-.229-2.733-1.619-5.026-2.567-7.539a17.1,17.1,0,0,1-1.043-7.3,14.751,14.751,0,0,1,.331-2.157c2.527-1.82,4.669-4.909,6.271-9.439a21.689,21.689,0,0,0-1.735-17.892c.379.062.751.11,1.107.145a22.937,22.937,0,0,0,9.069-1.36c6.215-1.979,12.2-4.614,18.356-6.771a89.109,89.109,0,0,1,9.281-2.773,20.806,20.806,0,0,1,8.181-.616,8.346,8.346,0,0,1,5.962,3.8,10.094,10.094,0,0,1,1.164,6.344,11.442,11.442,0,0,1-3.633,6.738c-2.129,2.007-4.82,3.021-7.456,4.172-1.461.638-.744,3.189.822,3.035a16.5,16.5,0,0,0,13.018-10.167c1.844-4.833.447-11.069-3.819-14.185" transform="translate(-33.02 -89.273)" fill="#c84151"/>
        <path id="Trazado_208080" data-name="Trazado 208080" d="M130.43,328.5c-6.742,5.731,2.71,11.882,6.67,11.882a6.715,6.715,0,0,0,6.671-8.546c-1.251-5.211-9.172-6.879-13.341-3.336" transform="translate(-37.987 -96.879)" fill="#d8878e"/>
        <path id="Trazado_208081" data-name="Trazado 208081" d="M269.376,328.5c6.742,5.731-2.71,11.882-6.67,11.882a6.715,6.715,0,0,1-6.671-8.546c1.251-5.211,9.172-6.879,13.341-3.336" transform="translate(-75.873 -96.879)" fill="#d8878e"/>
        <path id="Trazado_208082" data-name="Trazado 208082" d="M199.191,318.465c-9.355,3.43-5.629,15.008-1.668,17.718s7.5,1.668,9.38-4.794-1.459-15.217-7.713-12.924" transform="translate(-57.345 -94.349)" fill="#d8878e"/>
        <path id="Trazado_208083" data-name="Trazado 208083" d="M204.447,324.359l-.073.031-.285.12.358-.151" transform="translate(-60.535 -96.208)" fill="#e5b6bb"/>
        <path id="Trazado_208084" data-name="Trazado 208084" d="M203.957,321.255l.079.187a1.318,1.318,0,0,0-.623-.812,1.728,1.728,0,0,0-.487-.172,3.087,3.087,0,0,0-.813-.087,3.384,3.384,0,0,0-.869.141,7.024,7.024,0,0,0-.786.335,5.334,5.334,0,0,0-1.111.781,3.239,3.239,0,0,0-.563.638,2.383,2.383,0,0,0-.13.23,3.01,3.01,0,0,0-.174.408,1.243,1.243,0,0,0-.049.453,1.387,1.387,0,0,0,.089.739,1.29,1.29,0,0,0,.555.649,1.6,1.6,0,0,0,.684.185,1.226,1.226,0,0,0,.72-.222,4.1,4.1,0,0,0,1.16-.959,4.014,4.014,0,0,1,.684-.387c.123-.051.247-.1.369-.155l.16-.068a2.163,2.163,0,0,0,.829-.433,1.8,1.8,0,0,0,.246-.34,1.207,1.207,0,0,0,.03-1.11" transform="translate(-58.852 -95.024)" fill="#e5b6bb"/>
        <path id="Trazado_208085" data-name="Trazado 208085" d="M197.258,329.172l-.091-.216-.141-.182a.673.673,0,0,0-.291-.187.911.911,0,0,0-.7,0,.673.673,0,0,0-.291.187,1.539,1.539,0,0,0-.17.148l-.069.075a1.177,1.177,0,0,0-.3.511,1.609,1.609,0,0,0-.051.471,1.64,1.64,0,0,0,.036.321.943.943,0,0,0,.24.409.7.7,0,0,0,.286.186.443.443,0,0,0,.221.06.841.841,0,0,0,.125.016.726.726,0,0,0,.362-.079.451.451,0,0,0,.124-.056l.187-.144.049-.038.082-.063a1.275,1.275,0,0,0,.224-.277l.019-.026c.035-.083.07-.165.1-.248a.459.459,0,0,0,.013-.063c.006-.035.012-.071.017-.106a2.435,2.435,0,0,0,.039-.342c0-.039,0-.078,0-.117-.011-.08-.022-.16-.032-.24" transform="translate(-57.886 -97.439)" fill="#e5b6bb"/>
        <path id="Trazado_208086" data-name="Trazado 208086" d="M138.113,329.214a1.825,1.825,0,0,0-1.635-.508,3.3,3.3,0,0,0-.8.171,1.469,1.469,0,0,0-.931.815c0,.008,0,.015-.006.022a2.59,2.59,0,0,0-.632.333,2.488,2.488,0,0,0-.568.545c-.051.067-.1.134-.147.2a1.465,1.465,0,0,0-.306,1.005,1.131,1.131,0,0,0,.424.845,1.029,1.029,0,0,0,.938.192,1.691,1.691,0,0,0,.523-.25,1.832,1.832,0,0,0,.265-.262,7.07,7.07,0,0,0,.506-.606c.05-.07.1-.142.146-.214a1.514,1.514,0,0,0,.843-.2c.147-.08.3-.148.445-.233a4.43,4.43,0,0,1,.407-.218,1.325,1.325,0,0,0,.584-.531.751.751,0,0,0-.051-1.11" transform="translate(-39.471 -97.494)" fill="#e5b6bb"/>
        <path id="Trazado_208087" data-name="Trazado 208087" d="M271.022,334.319c-.019-.015-.037-.03-.056-.044-.079-.059-.157-.118-.239-.184l.295.228" transform="translate(-80.3 -99.095)" fill="#e5b6bb"/>
        <path id="Trazado_208088" data-name="Trazado 208088" d="M271.974,332.089c0-.01,0-.019.007-.028a1.737,1.737,0,0,0-.618-1.684,4.8,4.8,0,0,0-.827-.612,5.712,5.712,0,0,0-.912-.376,4.164,4.164,0,0,0-.819-.147,3.131,3.131,0,0,0-1.193-.03c-.056.015-.174.061-.26.1l.061-.026-.067.028c-.072.03-.112.047-.063.027l-.113.048c-.242.172-.277.205-.1.1-.071.052-.141.106-.21.161s-.035.038.059-.037a3.087,3.087,0,0,0-.243.191.591.591,0,0,0-.172.524.647.647,0,0,0,.3.456l0,0c.018.02.036.041.055.059l.008.006c.026.034.058.076.1.129a2.926,2.926,0,0,0,.269.2,2.126,2.126,0,0,0,.571.255,5.4,5.4,0,0,1,.938.582c.153.122.306.244.461.364l-.3-.229c.1.082.2.167.3.257a6.261,6.261,0,0,0,.5.4,1.459,1.459,0,0,0,.486.26,1.493,1.493,0,0,0,.462.049l.035,0a1.3,1.3,0,0,0,.931-.385,1.425,1.425,0,0,0,.34-.625v.012c0-.013,0-.025.009-.037" transform="translate(-79.045 -97.633)" fill="#e5b6bb"/>
        <path id="Trazado_208089" data-name="Trazado 208089" d="M340.416,251.1a32.178,32.178,0,1,1-18.479-41.585A32.178,32.178,0,0,1,340.416,251.1" transform="translate(-82.516 -61.505)" fill="#463047"/>
        <path id="Trazado_208090" data-name="Trazado 208090" d="M299.937,259.415l-.831-.319a6.148,6.148,0,0,1-3.52-7.921l9.016-23.436a6.147,6.147,0,0,1,7.92-3.52l.831.319a6.147,6.147,0,0,1,3.52,7.921L307.858,255.9a6.147,6.147,0,0,1-7.921,3.52" transform="translate(-87.553 -66.385)" fill="#fff"/>
        <path id="Trazado_208091" data-name="Trazado 208091" d="M325.646,269.305l-.831-.319a6.147,6.147,0,0,1-3.52-7.921l9.016-23.436a6.147,6.147,0,0,1,7.92-3.52l.831.32a6.147,6.147,0,0,1,3.52,7.921l-9.015,23.435a6.147,6.147,0,0,1-7.921,3.52" transform="translate(-95.179 -69.319)" fill="#fff"/>
        <path id="Trazado_208092" data-name="Trazado 208092" d="M344.656,216.777c-.658-1.752-2.205-2.7-3.72-3.656a26.221,26.221,0,0,0-3.686-1.946,21.158,21.158,0,0,0-4.283-1.415,7.294,7.294,0,0,0-4.845.511,1.911,1.911,0,0,0-.109,2.982,3.278,3.278,0,0,0,1.079.666c-.008,0,.715.317.368.143a16.476,16.476,0,0,0,2.03.938,37.451,37.451,0,0,1,3.522,1.329q.856.4,1.68.86c.236.132.467.269.7.407l.148.09c.121.08.241.159.361.24.523.351,1.037.712,1.538,1.091a5.78,5.78,0,0,0,2.458,1.135,2.534,2.534,0,0,0,2.76-3.375" transform="translate(-97.095 -62.164)" fill="#614265"/>
        <path id="Trazado_208093" data-name="Trazado 208093" d="M356.823,229.7a3.486,3.486,0,0,0-.121-1.433,2.715,2.715,0,0,0-.532-1.35c-.208-.252-.437-.488-.664-.723-.084-.087-.171-.17-.262-.249a2.625,2.625,0,0,0-1.438-.627h.052a1.841,1.841,0,0,0-.926-.082l-.566.135a1.706,1.706,0,0,0-.717.467,2.086,2.086,0,0,0-.7,1.265,4.383,4.383,0,0,0-.022.644,3,3,0,0,0,.131.542,2.933,2.933,0,0,0,.454,1.085c.013.02.023.039.036.059a3.39,3.39,0,0,0,.684,1.017l0,0a2.916,2.916,0,0,0,.234.29l-.084-.091a4.873,4.873,0,0,1,.488.632l.373.4.47.3a2.134,2.134,0,0,0,1.394.123,2.045,2.045,0,0,0,.954-.511,2.215,2.215,0,0,0,.667-1.206,4.044,4.044,0,0,0,.09-.693" transform="translate(-104.087 -66.8)" fill="#614265"/>
        <path id="Trazado_208094" data-name="Trazado 208094" d="M49.486,205.022l-8.377-13.384,8.873-5.553a6.469,6.469,0,0,0,2.045-8.889l-2.034-3.249A6.469,6.469,0,0,0,41.1,171.9l-8.873,5.553-5.108-8.16a7.311,7.311,0,0,0-10.046-2.312l-1.825,1.142a7.312,7.312,0,0,0-2.311,10.047l5.108,8.161-8.873,5.553a6.468,6.468,0,0,0-2.045,8.889l2.034,3.249a6.468,6.468,0,0,0,8.888,2.045l8.873-5.553,8.525,13.62a28.276,28.276,0,1,0,14.035-9.113m16.191,40.786a16.018,16.018,0,1,1,5.079-22.076,16.017,16.017,0,0,1-5.079,22.076" transform="translate(-1.826 -49.202)" fill="#463047"/>
        <path id="Trazado_208095" data-name="Trazado 208095" d="M97.492,233.857a5.791,5.791,0,0,0,.057-1,5.692,5.692,0,0,0-1.368-3.025,13.223,13.223,0,0,0-4.51-3.332,40.861,40.861,0,0,0-5.583-2.1,13.786,13.786,0,0,0-6.568-.742,1.542,1.542,0,0,0-.674,2.553,13.431,13.431,0,0,0,5.093,2.949c.8.312,1.626.55,2.432.838a20.7,20.7,0,0,1,2.09.837,16.182,16.182,0,0,1,2.166,1.215c.127.086.253.174.378.264l.1.079c.29.25.568.51.84.781.238.239.471.488.719.716.153.14.309.284.467.418.008.006.771.594.4.3a5.131,5.131,0,0,0,1.353.812c-.81-.323.055.148.222.218.023.01.049.018.072.027a5.686,5.686,0,0,0,.631.515.807.807,0,0,0,1.089-.286,2.824,2.824,0,0,0,.362-1,1.851,1.851,0,0,0,.245-.845.719.719,0,0,0-.008-.2" transform="translate(-23.263 -66.294)" fill="#614265"/>
        <path id="Trazado_208096" data-name="Trazado 208096" d="M112.806,248.609a6.725,6.725,0,0,0-.34-1.733c-.032-.084-.067-.167-.1-.25a3.61,3.61,0,0,0-.678-1.139,3.226,3.226,0,0,0-.749-.686,4.088,4.088,0,0,0-.448-.272,1.74,1.74,0,0,0-2.016.177,2.127,2.127,0,0,0-.577,1.426c-.011.16-.041.321-.047.48a5.872,5.872,0,0,0,.222,1.569c.256,1.035.549,2.413,1.519,2.976a1.384,1.384,0,0,0,1.081.525,1.6,1.6,0,0,0,1.057-.464,2.011,2.011,0,0,0,.206-.25,1.867,1.867,0,0,0,.53-.583,2.488,2.488,0,0,0,.31-1.157,2.605,2.605,0,0,0,.032-.618" transform="translate(-31.988 -72.46)" fill="#614265"/>
        <path id="Trazado_208097" data-name="Trazado 208097" d="M31.571,174.335a1.805,1.805,0,0,0,.115-1.291,4.54,4.54,0,0,0-.8-1.423,5,5,0,0,0-1.19-1.011,3.91,3.91,0,0,0-1.415-.577,3.774,3.774,0,0,0-1.167-.079,2.674,2.674,0,0,0-.458.088,1.794,1.794,0,0,0-.833.568,1.325,1.325,0,0,0-.486,1.013,1.366,1.366,0,0,0,.551,1.081c.014.015.023.032.037.046a1.484,1.484,0,0,0,.509.34l-.126-.053a5.5,5.5,0,0,0,.7.28c.051.015.1.035.15.053a5.073,5.073,0,0,1,.646.367,5.729,5.729,0,0,1,.63.65l.015.021a1.868,1.868,0,0,0,.661.676,2.123,2.123,0,0,0,.312.125.934.934,0,0,0,.307.235,1.265,1.265,0,0,0,.717.134,1.159,1.159,0,0,0,.646-.309,1.361,1.361,0,0,0,.383-.732,1.671,1.671,0,0,0,.094-.2" transform="translate(-7.516 -50.404)" fill="#614265"/>
        <path id="Trazado_208098" data-name="Trazado 208098" d="M54.846,179.354l-.278-.36a1.784,1.784,0,0,0-.785-.458,2.005,2.005,0,0,0-.695-.129,2.473,2.473,0,0,0-1.13.317,4.762,4.762,0,0,0-.577.3c-.168.117-.328.248-.492.371a4.358,4.358,0,0,0-.88.771l-.145.163-.115.129a1.675,1.675,0,0,0-.458.933,1.422,1.422,0,0,0,.307,1.226,1.808,1.808,0,0,0,1.035.537,2.943,2.943,0,0,0,.909-.068,2.64,2.64,0,0,0,.856-.2c.269-.1.537-.2.8-.307a5.973,5.973,0,0,0,.736-.4,2.369,2.369,0,0,0,.836-.786,2.048,2.048,0,0,0,.255-.667,1.869,1.869,0,0,0-.179-1.371" transform="translate(-14.614 -52.917)" fill="#614265"/>
        <path id="Trazado_208099" data-name="Trazado 208099" d="M62.452,176.14a1.8,1.8,0,0,0-.741-.963,1.6,1.6,0,0,0-.813-.22,1.435,1.435,0,0,0-.527.088,3.257,3.257,0,0,0-.5.2,1.748,1.748,0,0,0-.609.613l-.039.053-.067.094L59,176.39l-.057.425.057.425a1.2,1.2,0,0,0,.286.543.809.809,0,0,0,.286.286.8.8,0,0,0,.353.205.788.788,0,0,0,.4.109,1.21,1.21,0,0,0,.637-.028,1.831,1.831,0,0,0,.936-.483c.028-.031.056-.063.082-.094l.035-.04a1.782,1.782,0,0,0,.434-.742,1.624,1.624,0,0,0,0-.857" transform="translate(-17.483 -51.894)" fill="#614265"/>
      </g>
    </g>
    <rect id="Rectángulo_215699" data-name="Rectángulo 215699" width="344" height="344" transform="translate(-5576 92)" fill="none"/>
  </g>
</svg>
