<svg xmlns="http://www.w3.org/2000/svg" width="62" height="62" viewBox="0 0 62 62">
  <g id="Grupo_172419" data-name="Grupo 172419" transform="translate(9269 8957)">
    <g id="Grupo_172415" data-name="Grupo 172415" transform="translate(9.613 8.552)">
      <path id="Trazado_202442" data-name="Trazado 202442" d="M.208,20.477A39.166,39.166,0,0,0,.931,25.2a4.478,4.478,0,0,0,3.175,3.693,5.654,5.654,0,0,0,5.309-.979c.455-.364.533-.333.836.168A5.437,5.437,0,0,0,14.5,30.761a6.218,6.218,0,0,0,4.3-1,6.553,6.553,0,0,0,.729-.644c.2-.178.368-.168.493.081a7.12,7.12,0,0,0,1.228,1.724.383.383,0,0,1,.061.446,5.053,5.053,0,0,0,.351,4.51,5.361,5.361,0,0,0,4.83,2.758,13.308,13.308,0,0,0,3.893-.754c2.7-.751,5.4-1.527,8.1-2.254a7.6,7.6,0,0,0,5.345-4.978,22.479,22.479,0,0,0,1.329-6.161,23.646,23.646,0,0,0-.875-8.137,7.7,7.7,0,0,0-2.2-3.775,1.327,1.327,0,0,1-.429-.844,33.354,33.354,0,0,0-.841-4.7,6.7,6.7,0,0,0-2.42-3.711,4.331,4.331,0,0,0-2.6-.855,5.766,5.766,0,0,0-2.145.207,4.82,4.82,0,0,0-2.294,1.8c-.042.06-.08.124-.126.182-.107.134-.17.354-.37.341s-.249-.233-.31-.393a6.393,6.393,0,0,0-1.044-1.737,5.42,5.42,0,0,0-5.92-1.815,5.941,5.941,0,0,0-3.166,2.635,6.357,6.357,0,0,0-.5,1.034c-.175.469-.312.483-.606.088A5.945,5.945,0,0,0,17.339,3a4.711,4.711,0,0,0-4.189-.13A6.1,6.1,0,0,0,9.721,6.544c-.06.163-.092.39-.292.405-.166.013-.244-.191-.344-.316A3.875,3.875,0,0,0,3.422,5.88,7.158,7.158,0,0,0,1.394,8.841a20.694,20.694,0,0,0-1,4.795c-.089.627-.146,1.259-.2,1.891-.009.119.008.284-.194.284v.62c.1.046.1.137.1.225q0,1.146,0,2.292c0,.089,0,.178-.093.228v.886c.253.046.191.26.208.416m40.8,6.265a26.822,26.822,0,0,0,.7-4.357A44.655,44.655,0,0,0,42.1,15.1c.191-.021.169.15.21.234a15.568,15.568,0,0,1,1.328,5.237,20.052,20.052,0,0,1-.951,8.762,7.383,7.383,0,0,1-2.2,3.5,6.084,6.084,0,0,1-2.235,1.114q-5.2,1.468-10.414,2.908a4.05,4.05,0,0,1-4.185-.913A3.772,3.772,0,0,1,22.638,32.4c.062-.371.29-.253.492-.178A6.21,6.21,0,0,0,26,32.581a5.645,5.645,0,0,0,4.64-3.095c.041-.077.085-.152.145-.26a4.791,4.791,0,0,0,2.95,1.67c1.813.278,3.6.286,5.151-.922a6.282,6.282,0,0,0,2.125-3.233M1.8,15.529a19.7,19.7,0,0,1,1.309-6.6A5.078,5.078,0,0,1,4.3,7.191a2.27,2.27,0,0,1,3.159-.013,5.168,5.168,0,0,1,.96,1.261,1.808,1.808,0,0,0,2.3.413,1.149,1.149,0,0,0,.359-.825,4.433,4.433,0,0,1,2.3-3.514,3.347,3.347,0,0,1,4.6,1.033,6.288,6.288,0,0,1,.72,1.313.794.794,0,0,0,.749.522c.176.012.354.006.531.006.8,0,1.1-.256,1.19-1.043a4.552,4.552,0,0,1,1.648-3.07,3.893,3.893,0,0,1,5.475.443,4.895,4.895,0,0,1,1.189,2.748c.076.676.37.911,1.055.922,1.1.017,1.235-.079,1.686-1.108a3.345,3.345,0,0,1,2.29-2.208,3.741,3.741,0,0,1,4.352,2.138,11.192,11.192,0,0,1,.793,3.065,38.457,38.457,0,0,1,.621,8.19,65.117,65.117,0,0,1-.8,8.1,5.177,5.177,0,0,1-1.159,2.45,3.98,3.98,0,0,1-3.779,1.219,3.66,3.66,0,0,1-3.069-1.942,3.568,3.568,0,0,1-.388-1.749q0-3.941,0-7.881c0-.767-.45-1.155-1.1-.969-.469.133-.578.5-.578.926q0,2.347,0,4.693c0,1.506.007,3.011,0,4.516A3.832,3.832,0,0,1,26.313,30.8a4.131,4.131,0,0,1-5.247-4c.038-2.745.008-5.49.008-8.236a1.008,1.008,0,0,0-.329-.916.847.847,0,0,0-1.355.782q0,3.21,0,6.42a8.676,8.676,0,0,1-.061,1.059,3.883,3.883,0,0,1-3.3,3.276,4.759,4.759,0,0,1-3.277-.594,3.74,3.74,0,0,1-1.778-3.357q0-3.365,0-6.73c0-.6-.219-.922-.661-1-.6-.113-1.017.264-1.018.946,0,1.948.005,3.9,0,5.845A3.037,3.037,0,0,1,7.4,27.269a4.143,4.143,0,0,1-3.941-.42,3.758,3.758,0,0,1-.962-2A31.81,31.81,0,0,1,1.8,15.529" transform="translate(-9270.871 -8954.572)" fill="#f55d8b"/>
      <path id="Trazado_202443" data-name="Trazado 202443" d="M.086,19.506a33.338,33.338,0,0,0,.725,5.026,4.747,4.747,0,0,0,2.161,3.3,5.869,5.869,0,0,0,4.785.442,5.562,5.562,0,0,0,2.12-1.284,5.6,5.6,0,0,0,4.6,3.2,6.044,6.044,0,0,0,5.333-1.86,5.88,5.88,0,0,0,1.117,1.734c.207.22.339.336.185.748a4.922,4.922,0,0,0-.062,3.3c1.017,3.075,3.783,4.57,7.166,3.773,3.319-.782,6.578-1.817,9.869-2.72a8.993,8.993,0,0,0,3.34-1.541A8.848,8.848,0,0,0,44.189,29.3a22.746,22.746,0,0,0,.406-12.9,9.018,9.018,0,0,0-2.638-4.791.506.506,0,0,1-.162-.343q-.212-1.488-.442-2.973a9.979,9.979,0,0,0-1.979-4.931,5.525,5.525,0,0,0-6.7-1.035A6.3,6.3,0,0,0,30.853,4.3C29.785,1.758,28.083-.015,25.206,0s-4.563,1.828-5.579,4.368a.45.45,0,0,1-.053-.048c-.093-.133-.182-.268-.278-.4a4.869,4.869,0,0,0-5.18-2.164,5.9,5.9,0,0,0-4.041,3.027,13.656,13.656,0,0,0-.62,1.435.444.444,0,0,1-.066-.049c-.07-.095-.136-.193-.208-.286A3.885,3.885,0,0,0,4.9,4.316,4.85,4.85,0,0,0,1.878,6.858a16.236,16.236,0,0,0-1.617,6.1A18.677,18.677,0,0,1,0,15.123c.2,0,.185-.165.194-.284.05-.632.106-1.264.2-1.891a20.7,20.7,0,0,1,1-4.795A7.158,7.158,0,0,1,3.422,5.193a3.875,3.875,0,0,1,5.664.754c.1.125.178.328.344.316.2-.015.232-.242.292-.405A6.1,6.1,0,0,1,13.15,2.18a4.711,4.711,0,0,1,4.189.13A5.945,5.945,0,0,1,19.3,4.127c.294.4.43.382.606-.088a6.365,6.365,0,0,1,.5-1.034A5.941,5.941,0,0,1,23.573.37a5.42,5.42,0,0,1,5.92,1.815,6.394,6.394,0,0,1,1.044,1.737c.062.161.106.38.31.394s.264-.207.37-.341c.046-.058.084-.121.126-.182a4.82,4.82,0,0,1,2.294-1.8,5.766,5.766,0,0,1,2.145-.207,4.331,4.331,0,0,1,2.6.855,6.7,6.7,0,0,1,2.42,3.711,33.356,33.356,0,0,1,.841,4.7,1.326,1.326,0,0,0,.429.844,7.7,7.7,0,0,1,2.2,3.775,23.646,23.646,0,0,1,.875,8.137,22.479,22.479,0,0,1-1.329,6.161,7.6,7.6,0,0,1-5.345,4.978c-2.707.728-5.4,1.5-8.1,2.254a13.313,13.313,0,0,1-3.893.754,5.361,5.361,0,0,1-4.83-2.758,5.053,5.053,0,0,1-.351-4.51.383.383,0,0,0-.061-.446,7.115,7.115,0,0,1-1.228-1.724c-.125-.249-.293-.259-.493-.081a6.554,6.554,0,0,1-.729.644,6.218,6.218,0,0,1-4.3,1,5.438,5.438,0,0,1-4.247-2.681c-.3-.5-.381-.533-.836-.168a5.654,5.654,0,0,1-5.309.979A4.478,4.478,0,0,1,.931,24.511a39.189,39.189,0,0,1-.723-4.721c-.016-.156.045-.37-.208-.416.069.018.082.07.086.132" transform="translate(-9270.871 -8953.886)" fill="#f55d8b"/>
      <path id="Trazado_202444" data-name="Trazado 202444" d="M0,141.576v2.745a16.839,16.839,0,0,0,0-2.745" transform="translate(-9270.871 -9079.719)" fill="#f55d8b"/>
      <path id="Trazado_202445" data-name="Trazado 202445" d="M.093,144.092q0-1.146,0-2.292c0-.088,0-.179-.1-.225a16.839,16.839,0,0,1,0,2.745c.1-.05.093-.139.093-.228" transform="translate(-9270.871 -9079.718)" fill="#f55d8b"/>
    </g>
    <rect id="Rectángulo_215670" data-name="Rectángulo 215670" width="62" height="62" transform="translate(-9269 -8957)" fill="none"/>
  </g>
</svg>
