<svg xmlns="http://www.w3.org/2000/svg" width="62" height="62" viewBox="0 0 62 62">
  <g id="Grupo_172418" data-name="Grupo 172418" transform="translate(9141 8957)">
    <g id="Grupo_172412" data-name="Grupo 172412" transform="translate(-1.363 2.885)">
      <path id="Trazado_202435" data-name="Trazado 202435" d="M47.73,37.419c-.866-2.213-1.765-4.413-2.65-6.618q-2.118-5.275-4.237-10.549c-.129-.321-.266-.66-.616-.757a.77.77,0,0,1-.556-.587c-.081-.243-.193-.476-.286-.716a1.028,1.028,0,0,0-.878-.729c-.309-.028-.28-.144-.209-.366.326-1.025.648-2.053.957-3.083A7.489,7.489,0,0,0,38.781,8.2c-.851-1.621-1.813-3.183-2.737-4.765a1.567,1.567,0,0,0-1.434-.823,1.238,1.238,0,0,1-.548-.144,5.635,5.635,0,0,0-4.715-.119A.438.438,0,0,1,28.72,2.2,5.642,5.642,0,0,0,25.046.1,25.2,25.2,0,0,0,21.626.02,10.048,10.048,0,0,0,14.65,2.586a.5.5,0,0,1-.59.092,1.54,1.54,0,0,0-1.837.592A59.135,59.135,0,0,0,9.161,8.676a7.571,7.571,0,0,0-.146,5.745c.327.98.617,1.973.94,3.01a1.182,1.182,0,0,0-1.316.915c-.1.272-.22.534-.321.805a.4.4,0,0,1-.289.29,1.139,1.139,0,0,0-.766.8c-2.3,5.754-4.62,11.5-6.9,17.264a4.882,4.882,0,0,0,4.966,6.7q3.436-.276,6.868-.6c.392-.037.51.056.5.45-.02,1.241.017,2.482-.016,3.722a1.572,1.572,0,0,0,.942,1.666H34.955a1.57,1.57,0,0,0,.963-1.653c-.038-1.223.005-2.449-.019-3.673-.008-.405.1-.53.516-.491,1.792.17,3.587.318,5.381.461a7.568,7.568,0,0,0,2.491,0,4.874,4.874,0,0,0,3.443-6.654m-8.9-18.005c.063.185.033.255-.131.322q-2.862,1.176-5.722,2.358c-.03.012-.058.028-.087.042-.106.033-.135-.036-.167-.117-.12-.3-.257-.588-.368-.888-.1-.264.138-.274.288-.336q2.438-1.009,4.879-2.014c.967-.4.961-.39,1.308.633M16.215,22.741c-.079-.12.02-.245.065-.361.148-.389.3-.776.445-1.166.033-.088.078-.211.043-.28-.372-.738.041-1.436.1-2.148a5.882,5.882,0,0,0-.416-2.74,17.4,17.4,0,0,1-.927-2.592,14.2,14.2,0,0,0,3.42.115A9.881,9.881,0,0,0,25.6,10.206c.267-.3.4-.344.735-.058A9.675,9.675,0,0,0,31.7,12.29c1.121.118,1.12.082.848,1.19a13.244,13.244,0,0,1-.789,2.218,6.015,6.015,0,0,0-.29,4.229c.034.119.1.289.044.363-.41.584-.11,1.106.115,1.633A1.246,1.246,0,0,1,31.72,23.1c-.187.366.052.759.221,1.1a1.381,1.381,0,0,1-.155,1.511A8.641,8.641,0,0,1,23.513,29.9a8.662,8.662,0,0,1-7.3-4.742.986.986,0,0,1-.062-.953,1.42,1.42,0,0,0,.06-1.463m2.315,6.41a1.714,1.714,0,0,1,.965,1.881c-.075.814-.016.818-.855,1.015-2.027.475-4.042,1.007-6.177,1.323l3.017-7.514a8.746,8.746,0,0,0,3.05,3.295M16.49,33.563c.926-.192,1.843-.424,2.764-.638.2-.046.383-.119.507.169.463,1.072.952,2.133,1.431,3.2.026.058.047.118.058.145a.414.414,0,0,1-.152.324q-1.127,1.413-2.258,2.823c-.333.413-.568.383-.735-.11-.622-1.829-1.231-3.662-1.852-5.491-.084-.249-.06-.358.235-.419m4.04-1.224a4.681,4.681,0,0,1-.073-1.911c0-.272.206-.1.318-.059a10.342,10.342,0,0,0,3.388.592,9.824,9.824,0,0,0,3.518-.662c.147-.057.3-.1.455-.155a4.833,4.833,0,0,1-.614,3.324c-.473.815-.847,1.689-1.241,2.548a.688.688,0,0,1-.732.474c-.915-.027-1.832-.019-2.748,0a.558.558,0,0,1-.592-.375c-.556-1.26-1.136-2.509-1.679-3.774m6.808,3.741c.5-.969.972-1.949,1.442-2.931a.364.364,0,0,1,.482-.239c.935.228,1.873.441,2.81.659.134.031.3.025.3.214-.049.16-.089.3-.134.434q-.858,2.568-1.72,5.135c-.064.189-.069.439-.319.5-.278.062-.387-.181-.523-.35-.748-.926-1.485-1.859-2.239-2.779a.506.506,0,0,1-.094-.639m4.916-3.472c-.919-.223-1.838-.447-2.764-.636-.287-.059-.381-.176-.34-.443a.668.668,0,0,0,0-.1,5.841,5.841,0,0,1,.04-1.726c.167-.513.836-.679,1.256-1.037a10.743,10.743,0,0,0,2.242-2.645l2.9,7.255a29.126,29.126,0,0,1-3.34-.671m1.7-28.694a.7.7,0,0,1,1.2-.021c.978,1.7,2.046,3.35,2.879,5.125a6.357,6.357,0,0,1,.25,4.664c-.349,1.152-.763,2.292-1,3.467a1.168,1.168,0,0,1-.862,1c-1.211.458-2.4.967-3.594,1.472-.28.118-.4.117-.478-.23a4.9,4.9,0,0,1,.318-3.2,11.384,11.384,0,0,0,1.148-5.26,2.619,2.619,0,0,1,.187-.989A.607.607,0,0,1,34.5,9.5c.282-.028.44.163.557.384a5.427,5.427,0,0,1,.454,2.2c.017.224,0,.451.008.676a.45.45,0,0,0,.463.505.455.455,0,0,0,.5-.476c.018-.192,0-.386,0-.579a8.431,8.431,0,0,0-.88-3.619c-.558-1.258-1.077-2.534-1.615-3.8a.95.95,0,0,1-.041-.879M14.925,5.429a2.163,2.163,0,0,0,.227-1.758c-.1-.234.1-.322.217-.43a8.426,8.426,0,0,1,3.894-2.018,17.878,17.878,0,0,1,5.8-.134,4.493,4.493,0,0,1,3.214,2.1c.344.5.459.529.989.251a4.756,4.756,0,0,1,3.541-.415c.273.072.474.112.245.484a1.671,1.671,0,0,0,0,1.616c.479,1.1.934,2.219,1.4,3.33a2.066,2.066,0,0,0-1.624,2.212c-.034.731-.034.73-.742.674a9.839,9.839,0,0,1-3.722-1.043A6.77,6.77,0,0,1,26.785,9.2a1.063,1.063,0,0,0-1.737.136A8.645,8.645,0,0,1,19.5,12.5a13.263,13.263,0,0,1-3.681-.017.454.454,0,0,1-.466-.565,6.811,6.811,0,0,0-.186-1.959,1.727,1.727,0,0,0-1.517-1.467c.43-1.035.842-2.055,1.278-3.065M9.914,14.042a7.091,7.091,0,0,1,.668-6.029c.774-1.3,1.5-2.62,2.257-3.929.271-.472.645-.635,1.022-.455s.477.591.27,1.087c-.66,1.58-1.315,3.162-1.995,4.734a7.876,7.876,0,0,0-.527,3.26c0,.331.156.573.52.557.342-.015.448-.252.444-.568a7.718,7.718,0,0,1,.284-2.387c.111-.362.22-.816.7-.8.505.016.574.465.664.869a17.3,17.3,0,0,1,.137,2.212,12.033,12.033,0,0,0,.946,3.311,5.464,5.464,0,0,1,.544,2.22c.013.542.068,1.159-.236,1.445-.353.332-.822-.18-1.227-.331-1.077-.4-2.128-.873-3.192-1.311-.135-.056-.27-.078-.288-.269a18.067,18.067,0,0,0-1-3.615m-.286,4.474c.084-.189.226-.06.326-.018,1.814.745,3.623,1.5,5.44,2.239.337.136.369.282.227.6-.362.818-.344.823-1.162.483q-2.473-1.027-4.947-2.05c-.12-.05-.293-.041-.312-.22.146-.356.278-.7.428-1.036M4.422,43.238a3.9,3.9,0,0,1-3.4-3.1,7.217,7.217,0,0,1-.085-.766,4.374,4.374,0,0,1,.391-1.732Q4.692,29.271,8.043,20.9c.224-.558.224-.558.811-.316,2.028.837,4.052,1.683,6.087,2.5.38.153.478.307.32.7-1.315,3.263-2.609,6.535-3.919,9.8q-1.441,3.592-2.9,7.174a3.951,3.951,0,0,1-4.016,2.476m32.07-.631c-1.031-.1-1.561.338-1.564,1.371,0,1.289-.013,2.578.005,3.866.006.458-.157.619-.621.619q-10.034-.016-20.067,0c-.438,0-.6-.151-.6-.589.015-1.3.009-2.61,0-3.915,0-1-.5-1.421-1.486-1.327-1.311.124-2.624.218-3.913.324,1.723-2.454,2.407-5.377,3.617-8.06.155-.343.3-.537.7-.585.764-.091,1.522-.24,2.274-.4.3-.064.382.031.469.3q.924,2.825,1.882,5.639a1.291,1.291,0,0,0,1.411.987,1.338,1.338,0,0,0,.962-.574c.709-.875,1.418-1.749,2.119-2.63a.578.578,0,0,1,.588-.222,15.217,15.217,0,0,0,4.167-.09c.245-.056.282.081.369.188.7.863,1.4,1.725,2.079,2.6a1.453,1.453,0,0,0,1.469.715,1.5,1.5,0,0,0,1.127-1.188c.586-1.8,1.2-3.59,1.782-5.39.1-.305.209-.409.543-.328a16.8,16.8,0,0,0,1.8.323.6.6,0,0,1,.537.449c.784,1.983,1.594,3.955,2.374,5.94a6.024,6.024,0,0,0,1.421,2.273c-1.246-.1-2.349-.174-3.448-.286m10.647-3.394a3.9,3.9,0,0,1-3.1,3.924,3.827,3.827,0,0,1-4.364-2.363c-1.588-3.892-3.149-7.8-4.719-11.7-.72-1.789-1.426-3.584-2.165-5.365-.137-.329-.055-.44.235-.558q3.248-1.323,6.485-2.671c.289-.121.374-.048.479.213q3.431,8.571,6.876,17.137a3.456,3.456,0,0,1,.275,1.38" transform="translate(-9132.638 -8953.886)" fill="#f55d8b" stroke="#f55d8b" stroke-width="0.5"/>
      <path id="Trazado_202436" data-name="Trazado 202436" d="M185.26,348.756c-.318-.01-.468.179-.484.476s.184.42.451.475c.26-.032.467-.163.48-.44a.436.436,0,0,0-.448-.511" transform="translate(-9293.578 -9257.655)" fill="#f55d8b" stroke="#f55d8b" stroke-width="0.5"/>
      <path id="Trazado_202437" data-name="Trazado 202437" d="M185.208,330.112a.413.413,0,0,0,.434-.472.462.462,0,0,0-.923.006.424.424,0,0,0,.489.466" transform="translate(-9293.529 -9240.613)" fill="#f55d8b" stroke="#f55d8b" stroke-width="0.5"/>
      <path id="Trazado_202438" data-name="Trazado 202438" d="M185.229,310.568c.3.011.418-.177.43-.472a.435.435,0,0,0-.489-.445.412.412,0,0,0-.439.456c0,.316.212.451.5.461" transform="translate(-9293.54 -9223.594)" fill="#f55d8b" stroke="#f55d8b" stroke-width="0.5"/>
      <path id="Trazado_202439" data-name="Trazado 202439" d="M161.1,180.8c-.193.253-.309.531-.018.765s.558.114.786-.16a3.131,3.131,0,0,1,5.118-.007c.228.273.48.408.781.173s.2-.5,0-.76a4.138,4.138,0,0,0-6.668-.011" transform="translate(-9272.789 -9109.896)" fill="#f55d8b" stroke="#f55d8b" stroke-width="0.5"/>
      <path id="Trazado_202440" data-name="Trazado 202440" d="M150.56,136.487a1.452,1.452,0,0,0,1.465-1.467,1.436,1.436,0,0,0-1.435-1.443,1.466,1.466,0,0,0-1.471,1.468,1.448,1.448,0,0,0,1.44,1.442m.022-1.939a.44.44,0,0,1,.475.487.452.452,0,0,1-.453.491.474.474,0,0,1-.509-.493.454.454,0,0,1,.487-.484" transform="translate(-9262.522 -9070.231)" fill="#f55d8b" stroke="#f55d8b" stroke-width="0.5"/>
      <path id="Trazado_202441" data-name="Trazado 202441" d="M206.4,136.489a1.447,1.447,0,0,0,1.443-1.437,1.488,1.488,0,0,0-1.473-1.473,1.456,1.456,0,0,0-1.434,1.45,1.438,1.438,0,0,0,1.464,1.46m-.035-1.937a.484.484,0,0,1,.048.966.438.438,0,0,1-.5-.458.463.463,0,0,1,.453-.508" transform="translate(-9311.135 -9070.234)" fill="#f55d8b" stroke="#f55d8b" stroke-width="0.5"/>
    </g>
    <rect id="Rectángulo_215667" data-name="Rectángulo 215667" width="62" height="62" transform="translate(-9141 -8957)" fill="none"/>
  </g>
</svg>
