<svg xmlns="http://www.w3.org/2000/svg" width="62" height="62" viewBox="0 0 62 62">
  <g id="Grupo_172417" data-name="Grupo 172417" transform="translate(8979 8957)">
    <g id="Grupo_172413" data-name="Grupo 172413" transform="translate(0.223 2.887)">
      <path id="Trazado_202446" data-name="Trazado 202446" d="M51.189,86.79c-.978,0-1.956,0-2.935,0H47.242a2.584,2.584,0,0,0,.115-2.21c-1-3.16-1.98-6.327-2.967-9.491-.434-1.393-.885-2.78-1.426-4.2-.311.486-.579.937-.88,1.365a.6.6,0,0,0-.065.6c1.387,4.129,2.619,8.308,3.94,12.458a.779.779,0,0,1-.248.9,2.243,2.243,0,0,1-1.522.563c-1.236.008-2.471,0-3.707.008-.17,0-.23-.051-.285-.218-.755-2.294-1.522-4.585-2.285-6.876-.26-.78-.516-1.562-.78-2.34-.135-.4-.513-.675-.793-.59a.944.944,0,0,0-.624,1.248q1.408,4.223,2.821,8.443c.093.276.056.341-.241.339-1.75-.014-3.5-.01-5.251-.01q-11.043,0-22.086.014c-.407,0-.391-.111-.285-.426q1.4-4.145,2.771-8.3c.234-.7.107-1.13-.384-1.287s-.852.1-1.085.8c-.959,2.876-1.931,5.747-2.862,8.632-.146.453-.321.607-.8.585-1.1-.051-2.215.012-3.318-.055-1.164-.07-1.621-.786-1.318-1.9,1-3.7,2.028-7.384,3-11.088A30.683,30.683,0,0,1,10.1,65.162a13.783,13.783,0,0,1,7.794-6.254c.537-.164,1.086-.286,1.666-.436-.265-.161-.5-.294-.723-.44a5.274,5.274,0,0,1-.7-.483.663.663,0,0,0-.732-.12,14.971,14.971,0,0,0-7.53,5.326,24.613,24.613,0,0,0-4.085,8.413c-1.2,4.24-2.315,8.5-3.484,12.754a3.587,3.587,0,0,0,.022,2.867c-.542,0-1.015,0-1.489,0L0,88.33q10.773,0,21.545,0,11.2,0,22.4,0,3.629,0,7.259,0c.62,0,1-.3,1-.775s-.384-.763-1.009-.765" transform="translate(-8974.223 -8992.794)" fill="#f55d8b"/>
      <path id="Trazado_202447" data-name="Trazado 202447" d="M88.329,43.158a7.1,7.1,0,0,1-3.045,2.161,4.4,4.4,0,0,0-1.613.959,2.064,2.064,0,0,0-.323,2.733,2.125,2.125,0,0,0,2.662.841l1.841-.758c-.174.278-.3.482-.431.686-.953,1.511-1.913,3.019-2.858,4.535a2.009,2.009,0,0,0,.594,2.84c.462.284.462.284.171.762a2.029,2.029,0,0,0,.389,2.684,1.96,1.96,0,0,0,2.661-.149c.126-.116.182-.147.333-.018a1.979,1.979,0,0,0,3.08-.482c.215-.335.427-.672.642-1.009a2.1,2.1,0,0,0,3.3-.71c.519-.93,1.146-1.8,1.7-2.709.914-1.49,1.961-2.9,2.8-4.43a8.491,8.491,0,0,0,.92-5.672.837.837,0,0,1,.171-.71q1.92-2.515,3.817-5.047a.786.786,0,1,0-1.237-.939c-1.372,1.816-2.734,3.64-4.113,5.452a1.041,1.041,0,0,0-.215,1.234,1.582,1.582,0,0,1,.088.491,7.024,7.024,0,0,1-1.091,4.974c-1.43,2.259-2.881,4.5-4.323,6.756a.836.836,0,0,1-.065.1.417.417,0,0,1-.58.124.438.438,0,0,1-.177-.573,1.632,1.632,0,0,1,.177-.3q1.287-2.038,2.573-4.077a.794.794,0,0,0-.169-1.183.786.786,0,0,0-1.14.348c-.388.606-.776,1.213-1.153,1.826-.611,1-1.267,1.964-1.841,2.984-.434.772-.936,1.507-1.409,2.257a.459.459,0,0,1-.552.248.549.549,0,0,1-.376-.531.625.625,0,0,1,.165-.382q1.47-2.333,2.943-4.664c.494-.782.991-1.564,1.482-2.349a.774.774,0,0,0-.814-1.187.885.885,0,0,0-.574.476q-1.952,3.1-3.909,6.2-.69,1.093-1.379,2.185c-.222.35-.479.451-.72.29s-.253-.417-.027-.781c.041-.065.082-.13.124-.2l3.128-4.957q1.05-1.663,2.1-3.327a.761.761,0,0,0-.027-.934.746.746,0,0,0-.832-.257.965.965,0,0,0-.55.511q-1.911,3.034-3.825,6.068c-.095.151-.173.326-.377.359a.559.559,0,0,1-.591-.188c-.168-.227-.077-.431.055-.639q2-3.161,4-6.325a2.179,2.179,0,0,0,.352-.723.919.919,0,0,0-1.11-1.12,2.645,2.645,0,0,0-.474.157q-1.584.654-3.167,1.315a.631.631,0,0,1-.885-.264c-.176-.3-.106-.555.243-.827a4.053,4.053,0,0,1,1.122-.588,7.977,7.977,0,0,0,3.239-2.23c.248-.278.506-.548.766-.817a5.663,5.663,0,0,1,4.345-1.915,1.2,1.2,0,0,0,1.176-.716c.367-.764.792-1.5,1.2-2.243.513-.936,1.034-1.866,1.546-2.8a.768.768,0,0,0-.076-.934.748.748,0,0,0-.845-.213.915.915,0,0,0-.5.506c-.832,1.522-1.67,3.041-2.491,4.569a.493.493,0,0,1-.5.314,5.837,5.837,0,0,0-1.781.3,8.124,8.124,0,0,0-3.732,2.633" transform="translate(-9030.491 -8977.479)" fill="#f55d8b"/>
      <path id="Trazado_202448" data-name="Trazado 202448" d="M56.7,19.308a9.654,9.654,0,1,0-9.691-9.755A9.661,9.661,0,0,0,56.7,19.308M56.662,1.552a8.1,8.1,0,1,1-8.1,8.133,8.107,8.107,0,0,1,8.1-8.133" transform="translate(-9006.104 -8953.887)" fill="#f55d8b"/>
    </g>
    <rect id="Rectángulo_215668" data-name="Rectángulo 215668" width="62" height="62" transform="translate(-8979 -8957)" fill="none"/>
  </g>
</svg>
