<svg xmlns="http://www.w3.org/2000/svg" xmlns:xlink="http://www.w3.org/1999/xlink" width="505" height="340" viewBox="0 0 505 340">
  <defs>
    <clipPath id="clip-path">
      <rect id="Rect치ngulo_215650" data-name="Rect치ngulo 215650" width="505" height="340" transform="translate(915 5319)" fill="#fff" stroke="#707070" stroke-width="1"/>
    </clipPath>
    <clipPath id="clip-path-2">
      <rect id="Rect치ngulo_48289" data-name="Rect치ngulo 48289" width="533.74" height="686.686" fill="none"/>
    </clipPath>
  </defs>
  <g id="Enmascarar_grupo_80012" data-name="Enmascarar grupo 80012" transform="translate(-915 -5319)" clip-path="url(#clip-path)">
    <g id="Grupo_162524" data-name="Grupo 162524" transform="translate(915 5319.505)">
      <g id="Grupo_162523" data-name="Grupo 162523" clip-path="url(#clip-path-2)">
        <path id="Trazado_202464" data-name="Trazado 202464" d="M246.276,75.96s116.856-46.5,173.1,23.3S338.758,260.216,480.043,329.85c99.773,49.172,48.738,182.2-56.888,165.119-120.192-19.433-38.488-87.38-303.852-46.943C-12.136,468.055-109.262,188.736,246.276,75.96" transform="translate(-0.001 32.103)" fill="#dae7e8"/>
        <path id="Trazado_202465" data-name="Trazado 202465" d="M54.992,193.748s28.723,17.544,23.4,35.887-40.674-2.748-45.077-19.892,12.381-22.934,21.68-15.995" transform="translate(404.89 100.811)" fill="#dae7e8"/>
        <path id="Trazado_202466" data-name="Trazado 202466" d="M65.145,164.684c-8.473,1.6-13.1,10.757-9.814,18.727,2.59,6.274,7.3,12.483,15.691,11.316,16.241-2.26,8.943-19.15,3.849-26.623-2.158-3.169-7.1-3.917-9.727-3.42" transform="translate(369.814 86.9)" fill="#dae7e8"/>
        <path id="Trazado_202467" data-name="Trazado 202467" d="M342.533,341.9s-29.65-15.926-25.35-34.534,40.764.491,46.111,17.363S352.2,348.314,342.533,341.9" transform="translate(-314.645 158.289)" fill="#dae7e8"/>
        <path id="Trazado_202468" data-name="Trazado 202468" d="M149.194,343.078c-2.679,8.2-12.357,11.609-19.837,7.317-5.888-3.379-11.438-8.848-9.2-17.02,4.337-15.813,20.144-6.4,26.9-.384,2.864,2.552,2.968,7.546,2.136,10.087" transform="translate(201.251 171.47)" fill="#dae7e8"/>
        <path id="Trazado_202469" data-name="Trazado 202469" d="M74.2,34.79c0,4.963,2.781,7.535,6.106,7.535a4.183,4.183,0,0,0,4.106-2.26,4.049,4.049,0,0,0,3.95,2.26c2.806,0,5.509-2.468,5.509-6.47s-2.625-6.444-5.509-6.444a4.108,4.108,0,0,0-3.2,1.273V29.644H80.18v7.431c0,1.093-.442,1.429-1.013,1.429-.727,0-1.325-.726-1.325-3.637,0-4.7,3.507-8.029,8.86-8.029,5.327,0,8.914,3.741,8.914,8.678,0,5.093-3.509,8.73-8.81,8.73A12.539,12.539,0,0,1,81.556,43.1l-1.091,3.2a15.832,15.832,0,0,0,6.34,1.247c7.822,0,12.836-5.223,12.836-12.031,0-6.7-5.014-11.979-12.94-11.979-7.483,0-12.5,5.015-12.5,11.252m10.862,1.065c0-1.559.805-2.364,1.872-2.364s1.844.805,1.844,2.364c0,1.585-.779,2.392-1.844,2.392s-1.872-.807-1.872-2.392" transform="translate(320.706 12.431)" fill="#c0d5d8"/>
        <path id="Trazado_202470" data-name="Trazado 202470" d="M96.768,29.482c0-.807.779-1.223,1.741-1.223a3.06,3.06,0,0,1,2.7,1.768l4.626-2.314c-1.325-2.494-3.95-4.21-8.108-4.21-4.079,0-7.12,1.716-7.12,4.963,0,3.976,4.158,4.678,4.158,6.678h5.353c0-3.143-3.353-4.079-3.353-5.663m4.106,9.769a3.451,3.451,0,0,0-6.86,0,3.445,3.445,0,0,0,6.86,0" transform="translate(289.438 12.413)" fill="#c0d5d8"/>
        <path id="Trazado_202471" data-name="Trazado 202471" d="M108.525,23.777h-7.016L102.678,35h4.678Zm-.078,15.33a3.451,3.451,0,0,0-6.86,0,3.445,3.445,0,0,0,6.86,0" transform="translate(270.096 12.557)" fill="#c0d5d8"/>
        <path id="Trazado_202472" data-name="Trazado 202472" d="M129.743,28.673c0-3.223-2.078-5.067-4.834-5.067s-4.832,1.844-4.832,5.067c0,3.247,2.078,5.066,4.832,5.066s4.834-1.818,4.834-5.066m-15.512-4.808h-4.392L122.26,42.055h4.392Zm9.536,4.808c0-1.741.572-2.262,1.143-2.262s1.145.521,1.145,2.262-.573,2.26-1.145,2.26-1.143-.52-1.143-2.26m-7.353,8.574c0-3.221-2.078-5.067-4.833-5.067s-4.833,1.846-4.833,5.067c0,3.249,2.08,5.067,4.833,5.067s4.833-1.818,4.833-5.067m-5.977,0c0-1.741.572-2.26,1.143-2.26s1.143.52,1.143,2.26-.572,2.26-1.143,2.26-1.143-.52-1.143-2.26" transform="translate(240.875 12.467)" fill="#c0d5d8"/>
        <path id="Trazado_202473" data-name="Trazado 202473" d="M125.924,31.233l.391,3.273H123.17v3.9h3.637l.442,3.561h4.158l-.442-3.561h2.573l.44,3.561h4.158L137.7,38.4h3.145v-3.9H137.2l-.39-3.273h3.145v-3.9h-3.638l-.442-3.559h-4.158l.442,3.559h-2.572l-.442-3.559h-4.158l.442,3.559h-3.143v3.9Zm4.158,0h2.573l.388,3.273h-2.572Z" transform="translate(206.029 12.557)" fill="#c0d5d8"/>
        <path id="Trazado_202474" data-name="Trazado 202474" d="M328.853,62.162a26.273,26.273,0,1,0-29.644,22.4,26.3,26.3,0,0,0,29.644-22.4m-5.643-.785a20.576,20.576,0,1,1-17.543-23.215,20.6,20.6,0,0,1,17.543,23.215" transform="translate(-217.978 17.04)" fill="#c0d5d8"/>
        <path id="Trazado_202475" data-name="Trazado 202475" d="M282.263,72.028a2.849,2.849,0,0,1-1.323-5.095l36.9-27.887a2.849,2.849,0,1,1,3.435,4.546l-36.9,27.887a2.844,2.844,0,0,1-2.112.549" transform="translate(-216.256 20.317)" fill="#c0d5d8"/>
        <path id="Trazado_202476" data-name="Trazado 202476" d="M70.949,115.208a26.273,26.273,0,1,0-29.644,22.4,26.3,26.3,0,0,0,29.644-22.4m-5.643-.785A20.576,20.576,0,1,1,47.762,91.207a20.6,20.6,0,0,1,17.543,23.215" transform="translate(434.038 45.055)" fill="#c0d5d8"/>
        <path id="Trazado_202477" data-name="Trazado 202477" d="M24.362,125.073a2.849,2.849,0,0,1-1.325-5.095l36.9-27.887a2.849,2.849,0,1,1,3.435,4.546l-36.9,27.887a2.841,2.841,0,0,1-2.11.549" transform="translate(435.757 48.332)" fill="#c0d5d8"/>
        <path id="Trazado_202478" data-name="Trazado 202478" d="M46.205,66.757a2.285,2.285,0,0,0,1.621-.671L66.387,47.524a2.292,2.292,0,0,0-3.241-3.243L44.584,62.844a2.292,2.292,0,0,0,1.621,3.914" transform="translate(399.575 23.032)" fill="#c0d5d8"/>
        <path id="Trazado_202479" data-name="Trazado 202479" d="M64.767,66.757a2.292,2.292,0,0,0,1.621-3.914L47.826,44.282a2.293,2.293,0,0,0-3.243,3.243L63.146,66.087a2.291,2.291,0,0,0,1.621.671" transform="translate(399.575 23.032)" fill="#c0d5d8"/>
        <path id="Trazado_202480" data-name="Trazado 202480" d="M309.121,119.39a2.285,2.285,0,0,0,1.621-.671L329.3,100.157a2.292,2.292,0,0,0-3.241-3.241L307.5,115.477a2.292,2.292,0,0,0,1.621,3.914" transform="translate(-265.111 50.83)" fill="#c0d5d8"/>
        <path id="Trazado_202481" data-name="Trazado 202481" d="M327.683,119.39a2.292,2.292,0,0,0,1.621-3.914L310.742,96.916a2.292,2.292,0,0,0-3.241,3.241l18.561,18.562a2.285,2.285,0,0,0,1.621.671" transform="translate(-265.111 50.83)" fill="#c0d5d8"/>
        <path id="Trazado_202482" data-name="Trazado 202482" d="M74.051,445.57c0,6.785,89.59,12.285,200.1,12.285s200.1-5.5,200.1-12.285-89.59-12.285-200.1-12.285-200.1,5.5-200.1,12.285" transform="translate(-53.679 228.831)" fill="#c0d5d8"/>
        <path id="Trazado_202483" data-name="Trazado 202483" d="M147.324,21.131a10.565,10.565,0,1,0-10.565-10.565,10.577,10.577,0,0,0,10.565,10.565m0-18.075a7.509,7.509,0,1,1-7.509,7.509,7.517,7.517,0,0,1,7.509-7.509" transform="translate(166.865)" fill="#c0d5d8"/>
        <path id="Trazado_202484" data-name="Trazado 202484" d="M332.542,146.466A10.565,10.565,0,1,0,321.976,135.9a10.578,10.578,0,0,0,10.565,10.566m0-18.075a7.509,7.509,0,1,1-7.509,7.509,7.518,7.518,0,0,1,7.509-7.509" transform="translate(-301.389 66.193)" fill="#c0d5d8"/>
        <path id="Trazado_202485" data-name="Trazado 202485" d="M43.154,158.324a10.566,10.566,0,1,0-10.566-10.566,10.578,10.578,0,0,0,10.566,10.566m0-18.075a7.509,7.509,0,1,1-7.509,7.509,7.517,7.517,0,0,1,7.509-7.509" transform="translate(430.219 72.456)" fill="#c0d5d8"/>
        <path id="Trazado_202486" data-name="Trazado 202486" d="M191.991,403.237l-2.363,28.049,20.8.321,4.728-26.952Z" transform="translate(28.804 212.962)" fill="#ff5962"/>
        <path id="Trazado_202487" data-name="Trazado 202487" d="M188.536,456.174l76-.376a10.631,10.631,0,0,0,.979-4.225c.443-6.43-1.658-16.68-2.694-23.144-.125-.755-.232-1.461-.318-2.1a22.275,22.275,0,0,1-.238-2.641c-.026-5.278-4.694-4.351-4.694-4.351-7.653,7.578-16.417-3.687-21.484.047,0,0-2.182,1.58-8.189,7.039s-16.249,9.091-24.967,12.789c-11.255,4.769-14.429,9.5-15.037,12.742a5.931,5.931,0,0,0,.645,4.218" transform="translate(-18.773 221.078)" fill="#bb1b31"/>
        <path id="Trazado_202488" data-name="Trazado 202488" d="M188.576,444.78l76-.376a10.632,10.632,0,0,0,.98-4.225l-77.621.383a5.931,5.931,0,0,0,.645,4.218" transform="translate(-18.812 232.472)" fill="#e63b4a"/>
        <path id="Trazado_202489" data-name="Trazado 202489" d="M193.292,453.166l2.257-.012a16.675,16.675,0,0,1-4.144-12.147c.329-7.511,4.809-12.6,7.926-15.249-.125-.753-.234-1.459-.318-2.1-3.362,2.595-9.021,8.269-9.418,17.263a18.44,18.44,0,0,0,3.7,12.242" transform="translate(44.715 223.749)" fill="#e63b4a"/>
        <path id="Trazado_202490" data-name="Trazado 202490" d="M216.768,427.917a1.252,1.252,0,0,0,.289-2.469l-4.754-1.155a1.253,1.253,0,0,0-.591,2.434l4.754,1.154a1.21,1.21,0,0,0,.3.037" transform="translate(-6.336 224.063)" fill="#e63b4a"/>
        <path id="Trazado_202491" data-name="Trazado 202491" d="M213.346,425.219a1.252,1.252,0,0,0,.289-2.47l-4.753-1.155a1.253,1.253,0,1,0-.591,2.434l4.752,1.154a1.214,1.214,0,0,0,.3.037" transform="translate(2.315 222.638)" fill="#e63b4a"/>
        <path id="Trazado_202492" data-name="Trazado 202492" d="M219.866,429.738a1.252,1.252,0,0,0,.289-2.47l-4.754-1.155a1.253,1.253,0,1,0-.591,2.434l4.754,1.155a1.21,1.21,0,0,0,.3.035" transform="translate(-14.168 225.025)" fill="#e63b4a"/>
        <path id="Trazado_202493" data-name="Trazado 202493" d="M222.964,431.49a1.252,1.252,0,0,0,.289-2.47l-4.754-1.155a1.253,1.253,0,0,0-.591,2.434l4.754,1.154a1.213,1.213,0,0,0,.3.037" transform="translate(-21.999 225.95)" fill="#e63b4a"/>
        <path id="Trazado_202494" data-name="Trazado 202494" d="M226.344,433.112a1.252,1.252,0,0,0,.289-2.469l-4.754-1.155a1.253,1.253,0,1,0-.591,2.434l4.754,1.154a1.207,1.207,0,0,0,.3.037" transform="translate(-30.543 226.807)" fill="#e63b4a"/>
        <path id="Trazado_202495" data-name="Trazado 202495" d="M230.01,434.5a1.252,1.252,0,0,0,.289-2.469l-4.754-1.155a1.253,1.253,0,1,0-.591,2.434l4.754,1.154a1.207,1.207,0,0,0,.3.037" transform="translate(-39.813 227.539)" fill="#e63b4a"/>
        <path id="Trazado_202496" data-name="Trazado 202496" d="M151.567,342.608c-.341,2.711-.643,5.173-.863,7.328-.053.55-.108,1.119-.171,1.736-2.274,26.982-.24,120.107.458,149.217.034.972.044,1.874.069,2.691.1,3.883-.315,9.722-.315,9.722l27.8,2.369s.914-5.761,1.653-9.494c.193-.9.382-1.89.6-2.958,3.1-15.506,9.736-48.773,15.388-77.938,7.682-39.6,6.041-63.142,6.041-63.142s-1.569-9.439,4.361-32.386c4.907-19.022,25.96-77.4,31.88-97.478,1.2-4.053-2.862-8.472-2.862-8.472s-38.63-26.631-51.64-14.753c-1.01.928-4.459,9.766-5.089,11.076a116.471,116.471,0,0,0-5.507,15.4c-8.449,27.962-18.24,80-21.8,107.084" transform="translate(66.618 108.794)" fill="#e63b4a"/>
        <path id="Trazado_202497" data-name="Trazado 202497" d="M192.378,300.942a.9.9,0,0,1,1.235-1.238c.133.08,9.477,5.544,20.063,1.353a.9.9,0,1,1,.662,1.673,25.871,25.871,0,0,1-21.655-1.484.9.9,0,0,1-.3-.3" transform="translate(25.053 158.214)" fill="#bb1b31"/>
        <path id="Trazado_202498" data-name="Trazado 202498" d="M156.685,497.685l.011,0a.9.9,0,0,0,1.019-.761c.107-.732,10.732-73.5,14.539-95.334,3.211-18.419,4.326-54.562,4.39-56.727,8.7-34.693,31.645-123.143,31.875-124.034a.9.9,0,1,0-1.742-.451c-.232.891-23.217,89.507-31.9,124.142a.927.927,0,0,0-.027.194c-.011.376-1.1,37.8-4.366,56.565-3.811,21.863-14.439,94.652-14.546,95.384a.9.9,0,0,0,.75,1.019" transform="translate(86.917 116.033)" fill="#bb1b31"/>
        <path id="Trazado_202499" data-name="Trazado 202499" d="M115.662,406l1.019,23.825,24.238.457-1.745-22.395Z" transform="translate(216.074 214.422)" fill="#ff5962"/>
        <path id="Trazado_202500" data-name="Trazado 202500" d="M159.522,452.023c0,.188,0,.371-.008.55-.02.836-.053,1.588-.089,2.231-.086,1.418-.188,2.289-.188,2.289h-47.05a25.714,25.714,0,0,1-.053-4.52c.307-4.807,1.9-12.4,8.4-17.419,8.894-6.877,5.46-5.442,7.285-8.577.2-.348,1.806-5.674,1.976-6.041,1.53-3.257,2.937-4.794,11.368-4.794,11.178,0,12.164,5.425,13.357,8.282a53.645,53.645,0,0,1,1.861,6.64c.281,1.19.561,2.46.839,3.753.689,3.241,1.334,6.628,1.773,9.328a49.011,49.011,0,0,1,.526,8.278" transform="translate(202.958 219.566)" fill="#bb1b31"/>
        <path id="Trazado_202501" data-name="Trazado 202501" d="M118.038,446.881c0,.188,0,.371-.008.55-.02.836-.054,1.588-.089,2.231a13.124,13.124,0,0,1-4.888-6.337c-2.913-7.928,1.563-17.444,1.751-17.847l.1.044c.281,1.19.561,2.46.839,3.753-1.061,3.238-2.28,8.68-.584,13.286a10.919,10.919,0,0,0,2.882,4.32" transform="translate(244.443 224.708)" fill="#e63b4a"/>
        <path id="Trazado_202502" data-name="Trazado 202502" d="M159.523,439.844c-.063,2.679-.278,4.522-.278,4.522H112.2a25.918,25.918,0,0,1-.053-4.522Z" transform="translate(202.949 232.295)" fill="#e63b4a"/>
        <path id="Trazado_202503" data-name="Trazado 202503" d="M135.135,426.544a1.335,1.335,0,0,1-.336-.043,23.257,23.257,0,0,0-10.908-.225,1.342,1.342,0,1,1-.715-2.587,25.792,25.792,0,0,1,12.294.214,1.342,1.342,0,0,1-.335,2.641" transform="translate(210.54 223.431)" fill="#e63b4a"/>
        <path id="Trazado_202504" data-name="Trazado 202504" d="M134.629,423a1.362,1.362,0,0,1-.338-.043,23.261,23.261,0,0,0-10.908-.225,1.342,1.342,0,0,1-.715-2.587,25.8,25.8,0,0,1,12.3.214,1.342,1.342,0,0,1-.335,2.641" transform="translate(211.82 221.558)" fill="#e63b4a"/>
        <path id="Trazado_202505" data-name="Trazado 202505" d="M136.449,429.325a1.353,1.353,0,0,1-.338-.043,23.507,23.507,0,0,0-10.909-.225,1.342,1.342,0,0,1-.712-2.587,25.815,25.815,0,0,1,12.294.214,1.342,1.342,0,0,1-.335,2.641" transform="translate(207.215 224.9)" fill="#e63b4a"/>
        <path id="Trazado_202506" data-name="Trazado 202506" d="M138,432.488a1.335,1.335,0,0,1-.336-.043,23.489,23.489,0,0,0-10.911-.225,1.342,1.342,0,0,1-.714-2.587,25.774,25.774,0,0,1,12.3.214,1.342,1.342,0,0,1-.335,2.641" transform="translate(203.302 226.57)" fill="#e63b4a"/>
        <path id="Trazado_202507" data-name="Trazado 202507" d="M154.418,251.621q2.157.481,4.337.921c18.562,3.755,38.047,5.274,51.683,2.39,6.731-1.421,11.035-8.718,13.775-16.866.749-2.225,1.259-4.546,1.91-6.768a139.089,139.089,0,0,0,5.345-42.17H121.114s-3.337,5.442-7.04,12.537a138.818,138.818,0,0,0-7.5,16.565l-.008.014a39.057,39.057,0,0,0-2.233,8.811c-.8,8.07,23.07,18.551,50.083,24.566" transform="translate(142.787 99.884)" fill="#e63b4a"/>
        <path id="Trazado_202508" data-name="Trazado 202508" d="M107.809,348.881c.084,2.731.168,5.211.284,7.372.034.553.067,1.123.1,1.742,1.944,27.008,18.412,118.687,23.623,147.338.185.955.336,1.843.486,2.647.7,3.82,1.106,5.981,1.106,5.981l27.829-1.977s.1-2.161.251-5.964c.05-.922.084-1.927.134-3.015.654-15.8,2.045-49.693,3.1-79.382,1.441-40.311-3.836-63.315-3.836-63.315s-3.017-9.08-.721-32.67c1.893-19.552,8.613-81.761,11.343-102.519.552-4.189.871-6.652.871-6.652s-43.662-12.28-54.669,1.475a11.028,11.028,0,0,0-1.944,3.7,116.845,116.845,0,0,0-3.05,16.067c-4,28.935-5.594,81.862-4.908,109.171" transform="translate(196.85 112.714)" fill="#e63b4a"/>
        <path id="Trazado_202509" data-name="Trazado 202509" d="M134.787,308.021a.9.9,0,0,1,1.235-1.238c.133.079,9.479,5.544,20.061,1.352a.9.9,0,0,1,.665,1.673,25.867,25.867,0,0,1-21.657-1.485.9.9,0,0,1-.3-.3" transform="translate(170.65 161.953)" fill="#bb1b31"/>
        <path id="Trazado_202510" data-name="Trazado 202510" d="M114.7,405.254c.173.952.336,1.832.483,2.638l29.187-1.957c.038-.911.079-1.918.125-3.012Z" transform="translate(213.978 212.796)" fill="#bb1b31"/>
        <path id="Trazado_202511" data-name="Trazado 202511" d="M137,253.161a.881.881,0,0,0,.2-1.739,28.109,28.109,0,0,1-10.2-5.434c-6.857-5.636-10.654-13.7-11.285-23.958a.88.88,0,1,0-1.757.108c.828,13.458,6.977,21.166,11.991,25.265a29.3,29.3,0,0,0,10.854,5.735.881.881,0,0,0,.2.023" transform="translate(221.715 116.824)" fill="#bb1b31"/>
        <path id="Trazado_202512" data-name="Trazado 202512" d="M117.424,502.057h.011a.9.9,0,0,0,.889-.909c-.008-.741-.81-74.272-.442-96.436.312-18.694-4.2-54.573-4.471-56.721,3.209-35.624,12.138-126.563,12.228-127.478a.9.9,0,1,0-1.791-.176c-.09.915-9.037,92.027-12.239,127.591a.915.915,0,0,0,0,.194c.049.373,4.788,37.511,4.47,56.559-.368,22.188.434,95.745.442,96.486a.9.9,0,0,0,.9.889" transform="translate(237.547 115.938)" fill="#bb1b31"/>
        <path id="Trazado_202513" data-name="Trazado 202513" d="M187.371,398.976c.021.967.047,1.863.067,2.68l29.137,2.6c.179-.892.377-1.881.593-2.955Z" transform="translate(30.244 210.712)" fill="#bb1b31"/>
        <path id="Trazado_202514" data-name="Trazado 202514" d="M163.573,236.164a.9.9,0,0,0,.226-1.733c-.144-.057-10.177-4.12-13.322-15.061a.9.9,0,1,0-1.73.5,25.857,25.857,0,0,0,14.4,16.241.9.9,0,0,0,.426.057" transform="translate(142.114 115.511)" fill="#bb1b31"/>
        <path id="Trazado_202515" data-name="Trazado 202515" d="M169.4,55.719s34.851,2.469,48.688,10.194c18.713,10.448,20.067,75.626,26.559,103.752s20.318,78.263,11.241,101.022c-4.925,12.352-100.472,14.3-121.593,6.811-11.134-3.946-3.843-79.872-13.532-111.427s-20.284-52.626-18.824-66.723C103.13,87.9,135.636,70.5,135.636,70.5Z" transform="translate(119.277 29.427)" fill="#bb1b31"/>
        <path id="Trazado_202516" data-name="Trazado 202516" d="M231.077,68.665s-23.218,3.18-43,1.812l7.838,31.013,30.39,9.283Z" transform="translate(15.26 36.264)" fill="#bb1b31"/>
        <path id="Trazado_202517" data-name="Trazado 202517" d="M179.536,98.763l-36.286,3.562,21.45,20.2-20.663-1.2,45.265,43.53-15.625-30.54,23.81,1.609Z" transform="translate(117.348 52.16)" fill="#e63b4a"/>
        <path id="Trazado_202518" data-name="Trazado 202518" d="M134.047,245.778a1.1,1.1,0,0,0,1.1-1.082c.536-25.66-3.687-51.626-12.911-79.379-10.436-31.4-13.191-78.9-13.217-79.377a1.105,1.105,0,0,0-2.207.122c.028.48,2.8,48.271,13.327,79.952,9.143,27.509,13.33,53.231,12.8,78.636a1.106,1.106,0,0,0,1.082,1.128h.023" transform="translate(235.317 44.836)" fill="#e63b4a"/>
        <path id="Trazado_202519" data-name="Trazado 202519" d="M189.607,170.089c-11.307,0-23.935-3.2-37.344-9.528A149.834,149.834,0,0,1,125.084,143.9a1.136,1.136,0,1,1,1.43-1.765,147.612,147.612,0,0,0,26.762,16.392c14.14,6.67,34.826,13.2,53.072,6.458a1.136,1.136,0,0,1,.789,2.132,50.3,50.3,0,0,1-17.531,2.974" transform="translate(135.358 74.931)" fill="#e63b4a"/>
        <path id="Trazado_202520" data-name="Trazado 202520" d="M175.759,178.91a70.433,70.433,0,0,1-28.866-6.342,63.225,63.225,0,0,1-14.3-8.663,1.136,1.136,0,0,1,1.488-1.718c.2.176,20.621,17.506,49.443,13.976a1.136,1.136,0,0,1,.277,2.256,66.259,66.259,0,0,1-8.041.491" transform="translate(146.923 85.51)" fill="#e63b4a"/>
        <path id="Trazado_202521" data-name="Trazado 202521" d="M174.492,79.5c-10.1,0-18.2-6.548-18.565-6.852a1.136,1.136,0,1,1,1.443-1.756c.131.107,9.34,7.514,19.737,6.169,5.946-.769,11.2-4.244,15.607-10.326a1.136,1.136,0,0,1,1.84,1.334c-4.8,6.615-10.575,10.4-17.173,11.247a22.7,22.7,0,0,1-2.888.183" transform="translate(101.33 34.997)" fill="#e63b4a"/>
        <path id="Trazado_202522" data-name="Trazado 202522" d="M175.072,52.128s-6.64-4.638-7.477-11.433,3.739-9.1,3.739-9.1-16.082-4.812-14.409-11.924,12.552-1.465,12.552-1.465S159.645,7.746,167.8,5.445,184.8,9,184.8,9s3.712-6.511,15.431-4.092,13.811,5.766,13.811,5.766S223,4.817,227.514,9s-4.772,7.949-4.772,7.949,15.147,1.255,12.636,5.857-9.448,3.139-9.448,3.139a30.673,30.673,0,0,1,6.716,28.287c-4.38,17.221-9.062,17.117-9.062,17.117s-25.135-29.446-48.512-19.224" transform="translate(58.465 2.309)" fill="#bb1b31"/>
        <path id="Trazado_202523" data-name="Trazado 202523" d="M203.066,38.993s-4.919-7.981-11.481-4.236-.943,27.291,12.3,23.191Z" transform="translate(41.282 17.828)" fill="#e63b4a"/>
        <path id="Trazado_202524" data-name="Trazado 202524" d="M196.016,65.6s2.016,6.829-9.786,14.395c-8.392,5.382-13.078,4.051-17.919,2.867a26.747,26.747,0,0,1-3.151-.946c-.851-10.451-4.471-16.31-5.419-17.682-.147-.209-.228-.315-.228-.315L188.171,37Z" transform="translate(93.835 19.542)" fill="#ff5962"/>
        <path id="Trazado_202525" data-name="Trazado 202525" d="M192.888,46.6s-1.4,24.708-19.062,31.189a26.963,26.963,0,0,1-3.151-.944c-.85-10.451-4.471-16.31-5.419-17.684Z" transform="translate(88.319 24.611)" fill="#bb1b31"/>
        <path id="Trazado_202526" data-name="Trazado 202526" d="M203.415,80.471c-13.125,6.751-25.949,3.991-30.745-7.551-1.16-2.783-2.523-6.9-3.837-11.224-.014-.046-.028-.087-.041-.131-.277-.918-.555-1.851-.831-2.778-.2-.672-.4-1.346-.587-2.014-2.242-7.742-4.056-14.82-4.056-14.82-3.577-19.8,13.376-32.487,30.737-29.614s18.284,27.972,21.553,39.41-.937,22.934-12.193,28.721" transform="translate(68.218 6.303)" fill="#ff5962"/>
        <path id="Trazado_202527" data-name="Trazado 202527" d="M190.272,37.01c.307,1.276,1.216,2.152,2.032,1.956s1.229-1.389.922-2.667-1.216-2.152-2.032-1.956-1.229,1.391-.921,2.667" transform="translate(49.807 18.123)" fill="#bb1b31"/>
        <path id="Trazado_202528" data-name="Trazado 202528" d="M180.656,35.015c.307,1.276,1.216,2.152,2.032,1.956s1.229-1.391.921-2.667-1.216-2.152-2.032-1.956-1.229,1.391-.921,2.667" transform="translate(74.117 17.07)" fill="#bb1b31"/>
        <path id="Trazado_202529" data-name="Trazado 202529" d="M168.787,48.525a98.847,98.847,0,0,0-1.232-13.672c-.39-2.333,2.243-4.745,4.349-5.822a5.3,5.3,0,0,1,2.635-.689c2.824.156,4.149,2.981,7.291.784s5.841-8.629,12.023-8.081,5.437,4.393,8.674,7.532,2.686,11,6.844,15.148,6.276-11.987,6.276-11.987S208.5,8.885,191.99,9.355s-32.112,16.4-23.2,39.169" transform="translate(64.126 4.937)" fill="#bb1b31"/>
        <path id="Trazado_202530" data-name="Trazado 202530" d="M178.757,51.846a4.289,4.289,0,0,1-.491.083.65.65,0,0,1-.118-1.294,4.163,4.163,0,0,0,3.313-2.474.649.649,0,0,1,1.206.483,5.361,5.361,0,0,1-3.91,3.2" transform="translate(79.693 25.219)" fill="#e63b4a"/>
        <path id="Trazado_202531" data-name="Trazado 202531" d="M182.685,35.969c.316,1.438-2.32,3.24-5.888,4.027s-6.718.258-7.034-1.18,2.32-3.24,5.888-4.025,6.718-.26,7.034,1.178" transform="translate(91.648 18.181)" fill="#e63b4a"/>
        <path id="Trazado_202532" data-name="Trazado 202532" d="M192.305,46.244a15.532,15.532,0,0,1-1.632.272c-.014-.044-.028-.086-.041-.131-.277-.918-.555-1.851-.831-2.777q-.3-1.011-.587-2.014a16.259,16.259,0,0,1,1.945-.555c3.57-.787,6.715-.26,7.032,1.177s-2.318,3.241-5.886,4.028" transform="translate(46.378 21.481)" fill="#e63b4a"/>
        <path id="Trazado_202533" data-name="Trazado 202533" d="M189.842,49.34a.653.653,0,0,1-.338-.015c-3.782-1.215-4.723-2.171-4.873-2.35a.647.647,0,0,1-.122-.605l2.479-8.194a.573.573,0,0,1,.028-.072c.628-1.436.1-3.862-.608-6.65a.649.649,0,0,1,1.259-.318c.759,3,1.325,5.639.555,7.451l-2.344,7.748a15.589,15.589,0,0,0,4.025,1.753.649.649,0,0,1-.06,1.253" transform="translate(61.476 16.185)" fill="#bb1b31"/>
        <path id="Trazado_202534" data-name="Trazado 202534" d="M157.985,30.5s2.107-7.581,9.565-6.369,10.434,25.236-3.408,26.03Z" transform="translate(118.485 12.675)" fill="#ff5962"/>
        <path id="Trazado_202535" data-name="Trazado 202535" d="M161.077,39.1a.6.6,0,0,1-.139.015.65.65,0,0,1-.651-.649c0-.306.06-7.517,5.822-10.258a.65.65,0,1,1,.558,1.174c-5.029,2.392-5.081,9.018-5.081,9.083a.649.649,0,0,1-.509.636" transform="translate(121.762 14.862)" fill="#bb1b31"/>
        <path id="Trazado_202536" data-name="Trazado 202536" d="M164.8,33.981a.642.642,0,0,1-.48-.083c-.015-.009-1.58-.973-3.371-1.87a.649.649,0,1,1,.581-1.161c1.846.923,3.408,1.887,3.473,1.927a.65.65,0,0,1-.2,1.187" transform="translate(123.03 16.265)" fill="#bb1b31"/>
        <path id="Trazado_202537" data-name="Trazado 202537" d="M178.973,32.164s1.7-5.044,5.76-5.786c3.735-.683,3.157,2.7,1.686,3.383a9.995,9.995,0,0,0-4.487,4.141c-1.314,2.066-3.7.13-2.959-1.739" transform="translate(72.909 13.883)" fill="#bb1b31"/>
        <path id="Trazado_202538" data-name="Trazado 202538" d="M198.482,32.378s-3.139-4.3-7.233-3.785c-3.765.474-2.194,3.532-.588,3.735a10,10,0,0,1,5.524,2.6c1.877,1.574,3.568-.99,2.3-2.549" transform="translate(46.113 15.078)" fill="#bb1b31"/>
        <path id="Trazado_202539" data-name="Trazado 202539" d="M186.768,47.416a3.969,3.969,0,1,1-3.97-3.969,3.97,3.97,0,0,1,3.97,3.969" transform="translate(73.698 22.946)" fill="#fdd6ce"/>
        <path id="Trazado_202540" data-name="Trazado 202540" d="M70.628,88.506l.735,1.572.685,1.424,1.377,2.78c.918,1.838,1.877,3.638,2.836,5.437,1.916,3.6,3.936,7.126,6.024,10.628s4.257,6.967,6.531,10.39,4.615,6.832,7.106,10.171a176.236,176.236,0,0,0,16.591,19.484,122.516,122.516,0,0,0,10.081,9.092c.9.735,1.854,1.449,2.79,2.167.478.356.97.7,1.458,1.054l.734.523.756.512c2,1.375,4.141,2.685,6.378,3.93a60.387,60.387,0,0,0,15.312,6.033A47.833,47.833,0,0,0,159.086,175l.588.029.147.008.4.008q.511,0,1.025-.011c.685-.018,1.371-.064,2.048-.136.7-.079,1.453-.222,2.171-.379a20.032,20.032,0,0,0,2.145-.584c.7-.243,1.4-.518,2.086-.821q.511-.229,1.012-.477.461-.245.915-.51c.6-.353,1.2-.73,1.768-1.131.139-.1.295-.2.417-.3l.365-.286q.362-.289.715-.588c.471-.4.932-.821,1.368-1.245q.55-.566,1.071-1.163l.512-.6.251-.3.122-.153.1-.133c.263-.356.521-.717.77-1.082l.37-.552.182-.278c.063-.1.118-.185.16-.26.377-.643.74-1.3,1.08-1.959a32.347,32.347,0,0,0,2.262-6.152l.307-1.279c.095-.417.163-.793.243-1.192.165-.811.26-1.507.376-2.254a67.227,67.227,0,0,0,.6-7.746,122.764,122.764,0,0,0-.527-13.278,234.815,234.815,0,0,0-3.57-24.183c-.744-3.924-1.62-7.8-2.511-11.669-.454-1.932-.943-3.857-1.432-5.782-.241-.964-.506-1.925-.767-2.891l-.4-1.453-.429-1.51A14.719,14.719,0,0,0,146.206,88l.032.342.972,11.027c.345,3.706.617,7.413.92,11.09.532,7.352.992,14.669,1.073,21.6.026,3.441-.021,6.817-.284,9.727a30.425,30.425,0,0,1-.5,3.7c-.053.2-.1.452-.147.575-.023.07-.043.165-.064.214a1.086,1.086,0,0,0-.05.115c-.037.072-.061-.046.274-.764a5,5,0,0,1,.376-.7,1.224,1.224,0,0,0,.066-.109l.078-.131.163-.257c.113-.168.234-.333.361-.492l.047-.058.063-.086.131-.171c.089-.113.18-.223.274-.332.188-.219.387-.426.593-.625a11.051,11.051,0,0,1,.824-.776c.145-.122.292-.24.443-.355l.5-.368a11.627,11.627,0,0,1,1.157-.752q.3-.17.61-.321.332-.181.678-.341a11.853,11.853,0,0,1,1.42-.55c.481-.15.955-.306,1.449-.413a14.7,14.7,0,0,1,1.465-.241,11.359,11.359,0,0,1,1.329-.107c.222-.006.445,0,.666,0l.165.008c.081,0,.061,0,.055,0l-.034-.006-.13-.021a11.892,11.892,0,0,1-2.288-.463,26.036,26.036,0,0,1-5.917-2.671c-1.093-.656-2.214-1.368-3.353-2.2l-.426-.3-.428-.325-.862-.649c-.575-.462-1.155-.9-1.733-1.391a84.958,84.958,0,0,1-6.9-6.424q-1.7-1.756-3.376-3.634c-1.116-1.241-2.231-2.523-3.331-3.82-2.2-2.613-4.349-5.336-6.447-8.143s-4.179-5.671-6.186-8.617c-1.009-1.465-2-2.954-2.984-4.45s-1.97-3-2.937-4.513c-1.935-3.03-3.81-6.113-5.663-9.2-.925-1.543-1.817-3.1-2.715-4.642l-1.317-2.3-1.2-2.129-.319-.57A18.1,18.1,0,0,0,70.628,88.506" transform="translate(243.701 33.138)" fill="#bb1b31"/>
        <path id="Trazado_202541" data-name="Trazado 202541" d="M154.567,133.907a1.106,1.106,0,0,1-1.731.283c-.3-.281-29.918-28.2-37.742-36.8a1.105,1.105,0,0,1,1.635-1.487c7.766,8.535,37.323,36.4,37.621,36.678a1.106,1.106,0,0,1,.217,1.325" transform="translate(203.602 50.459)" fill="#e63b4a"/>
        <path id="Trazado_202542" data-name="Trazado 202542" d="M90.519,90.152a29.032,29.032,0,0,0,3.99-1.383,38.693,38.693,0,0,0,9.658-5.969,1.017,1.017,0,0,0-1.351-1.521c-.15.134-15.1,13.18-27.17,4.821a1.016,1.016,0,1,0-1.158,1.67c4.571,3.165,10.052,3.967,16.032,2.381" transform="translate(316.074 42.791)" fill="#e63b4a"/>
        <path id="Trazado_202543" data-name="Trazado 202543" d="M93.812,126.1a1.019,1.019,0,0,0,.73-1.216c-1.583-6.719,2.031-15.093,2.068-15.177a1.017,1.017,0,0,0-1.864-.815c-.159.367-3.92,9.085-2.182,16.458a1.015,1.015,0,0,0,1.222.756l.026-.006" transform="translate(296.294 57.189)" fill="#e63b4a"/>
        <path id="Trazado_202544" data-name="Trazado 202544" d="M93.85,118.618a1.013,1.013,0,0,0,.622-.478,17.053,17.053,0,0,1,9.181-6.64,1.017,1.017,0,0,0-.631-1.935c-7.3,2.379-10.2,7.356-10.316,7.567a1.017,1.017,0,0,0,1.145,1.485" transform="translate(287.923 57.838)" fill="#e63b4a"/>
        <path id="Trazado_202545" data-name="Trazado 202545" d="M85.929,81.827c.251,2.011,2.734,4.642,6.087,6.232,2.3,1.09,2.439,6.672,2.439,6.672,7.292,7.147,19.931,3.1,21.955-4.56,0,0-1.936-8.545-1.25-13.458,1.087-7.772-.759-24.692-3.056-27.227-3.356-3.715-16.229-3.38-20.929-1S79.815,65.972,79.245,67.907s-2.494,10.136,1.41,14.731c1.32,1.556,5.107.445,5.274-.811" transform="translate(297.732 24.66)" fill="#ff5962"/>
        <path id="Trazado_202546" data-name="Trazado 202546" d="M106.75,62.97a1.017,1.017,0,0,0,.755-.986c-.008-1.375-.565-3.793-2.618-4.129-4.38-.718-11.852,1.8-12.169,1.909a1.017,1.017,0,1,0,.656,1.925c.072-.024,7.308-2.463,11.184-1.828.666.11.906,1.513.912,2.135A1.018,1.018,0,0,0,106.5,63a1,1,0,0,0,.254-.034" transform="translate(285.602 30.487)" fill="#e63b4a"/>
        <path id="Trazado_202547" data-name="Trazado 202547" d="M105.633,58.424a1.016,1.016,0,0,0,.755-.987c-.008-1.374-.565-3.791-2.618-4.127-4.351-.714-14.207,2.04-14.623,2.158a1.017,1.017,0,0,0,.535,1.962l.015,0c.1-.028,9.837-2.749,13.744-2.109.666.11.906,1.513.912,2.135a1.018,1.018,0,0,0,1.025,1.007,1,1,0,0,0,.254-.034" transform="translate(292.256 28.092)" fill="#e63b4a"/>
        <path id="Trazado_202548" data-name="Trazado 202548" d="M103.368,54.7a1.016,1.016,0,0,0,.755-.987c-.008-1.374-.565-3.791-2.618-4.127C97.168,48.874,87,51.4,86.565,51.5a1.017,1.017,0,0,0,.492,1.973c.1-.024,10.2-2.526,14.12-1.884.666.11.9,1.513.912,2.135a1.018,1.018,0,0,0,1.025,1.007,1,1,0,0,0,.254-.034" transform="translate(298.514 26.121)" fill="#e63b4a"/>
        <path id="Trazado_202549" data-name="Trazado 202549" d="M97.476,72.178a1.018,1.018,0,0,0,.735-1.184,7.689,7.689,0,0,1-.083-3.385,11.731,11.731,0,0,1,1.881-.191,1.017,1.017,0,0,0-.067-2.032c-2.33.076-2.822.423-2.984.536-1.464,1.028-1.006,4.172-.74,5.475a1.017,1.017,0,0,0,1.2.795l.06-.014" transform="translate(286.146 34.532)" fill="#e63b4a"/>
        <path id="Trazado_202550" data-name="Trazado 202550" d="M222.735,124.388c.625,2.7,1.293,5.387,2,8.093a154.351,154.351,0,0,0,5.257,16.359,85.539,85.539,0,0,0,3.836,8.467,47.581,47.581,0,0,0,6.009,9,32.677,32.677,0,0,0,5.064,4.765,27.1,27.1,0,0,0,3.625,2.308,23.553,23.553,0,0,0,4.653,1.892,24.08,24.08,0,0,0,11.424.455,28.016,28.016,0,0,0,9.358-3.811c.625-.4,1.2-.787,1.763-1.186.263-.2.581-.41.792-.593l.567-.521c.764-.7,1.467-1.412,2.162-2.133a51.363,51.363,0,0,0,3.739-4.392,66,66,0,0,0,5.715-8.926,99.68,99.68,0,0,0,7.207-17.6,151.95,151.95,0,0,0,4.193-17.253q.791-4.289,1.378-8.594c.193-1.438.37-2.882.532-4.349l.225-2.219.1-1.142.105-1.32a17.071,17.071,0,0,0-34.03-2.751l-.047.567-.119,1.462-.173,1.7c-.128,1.149-.269,2.314-.429,3.478-.315,2.33-.683,4.655-1.112,6.959a117.271,117.271,0,0,1-3.237,13.365A66.614,66.614,0,0,1,258.628,138a32.616,32.616,0,0,1-2.68,4.241,53.01,53.01,0,0,1-3.7-4.823A112.5,112.5,0,0,1,244.94,124.9c-1.14-2.21-2.208-4.48-3.229-6.773-.513-1.149-1.022-2.3-1.511-3.447-.246-.578-.48-1.157-.712-1.731l-.657-1.652-.174-.425a9.256,9.256,0,0,0-17.664,5.286l.856,4.178q.426,2.031.886,4.054" transform="translate(-106.166 44.004)" fill="#00787c"/>
        <path id="Trazado_202551" data-name="Trazado 202551" d="M254.244,136.863a.5.5,0,0,0,.075-.038.836.836,0,0,0,.319-1.14c-2.592-4.607-8.539-13.732-8.6-13.823a.838.838,0,1,0-1.4.915c.058.092,5.977,9.172,8.542,13.729a.836.836,0,0,0,1.065.358" transform="translate(-94.635 64.158)" fill="#004b56"/>
        <path id="Trazado_202552" data-name="Trazado 202552" d="M252.556,127.454a.837.837,0,0,0,.017-1.527l-6.331-2.951a.838.838,0,0,0-.709,1.519l6.333,2.951a.838.838,0,0,0,.691.008" transform="translate(-93.785 64.906)" fill="#004b56"/>
        <path id="Trazado_202553" data-name="Trazado 202553" d="M309.846,114.934c.73-1.834-.941-4.823-1.323-7.4a30.612,30.612,0,0,0-4.059-10.853c-2.627-3.782-10.972-14.491-14.762-15s2.693,9.289,3.982,11.323a9.145,9.145,0,0,1,1.41,3.892S278.482,75.58,275.431,75.514s5.186,13.014,7.245,16.233c0,0-13.409-15.37-15.359-14.8C263.406,78.087,277.8,95.585,277.8,95.585S265.863,83.23,263.889,85.25c-2.09,2.139,10.734,15.341,10.734,15.341s-8.961-6.918-11.458-5.952,15.194,16.942,18.211,19.071,10.671,8.535,15.025,10.611c2.959,1.412,11.132-3.584,13.446-9.387" transform="translate(-178.07 39.881)" fill="#fd9680"/>
        <path id="Trazado_202554" data-name="Trazado 202554" d="M276.378,100.227a.757.757,0,0,1-.359-.935c3.146-8.48,11.514-11.661,11.869-11.793a.758.758,0,0,1,.526,1.421c-.079.031-8.073,3.087-10.974,10.9a.759.759,0,0,1-.975.448c-.029-.012-.059-.026-.087-.04" transform="translate(-176.889 46.186)" fill="#ce6857"/>
        <path id="Trazado_202555" data-name="Trazado 202555" d="M278.4,106.561a.757.757,0,0,1-.4-.746c.876-9.007-5.306-12.5-5.367-12.531a.758.758,0,0,1,.714-1.337l.012.008c.292.159,7.12,4.014,6.149,14.007a.757.757,0,0,1-.828.68.736.736,0,0,1-.277-.081" transform="translate(-161.882 48.515)" fill="#ce6857"/>
        <path id="Trazado_202556" data-name="Trazado 202556" d="M291.818,111.225c-14.285,18.137-74.055,37.609-91.318,34.7,1.19-18.646-16.238-63.9-19.647-76.848-1.591-2.127-9.2-18.147,1-32.451,11.093-15.556,26.281-19.6,41.37-15.249,12.211,4.175,17.764,11.131,27.005,32.057,5.781,13.095,31.5,54.232,41.594,57.791" transform="translate(-27.991 10.424)" fill="#2f241c"/>
        <path id="Trazado_202557" data-name="Trazado 202557" d="M211.582,29.8s-5.411-22.3,16.131-21.107,19.135,22.464,11.952,26.357S211.582,29.8,211.582,29.8" transform="translate(-33.431 4.565)" fill="#2f241c"/>
        <path id="Trazado_202558" data-name="Trazado 202558" d="M242.95,28.994a.9.9,0,0,0,.7-1.464c-.105-.131-10.874-13.127-29.708-7.937a.9.9,0,0,0,.478,1.733c17.706-4.878,27.734,7.211,27.833,7.335a.9.9,0,0,0,.7.333" transform="translate(-36.025 9.702)" fill="#2f241c"/>
        <path id="Trazado_202559" data-name="Trazado 202559" d="M274.7,401.4l-3.1,30.006-22.618.428,2.337-30.434Z" transform="translate(-121.423 211.99)" fill="#fd9680"/>
        <path id="Trazado_202560" data-name="Trazado 202560" d="M247.805,457.086l80.713-.863a11.291,11.291,0,0,0,1.013-4.494c.431-6.832-1.861-17.7-3-24.565-.139-.8-.257-1.55-.351-2.225a23.456,23.456,0,0,1-.269-2.8c-.061-5.605-5.014-4.592-5.014-4.592-8.081,8.1-17.457-3.816-22.817.182,0,0-2.307,1.692-8.654,7.526s-17.2,9.755-26.438,13.736c-11.924,5.134-15.268,10.173-15.893,13.623a6.3,6.3,0,0,0,.711,4.476" transform="translate(-173.255 220.166)" fill="#2f241c"/>
        <path id="Trazado_202561" data-name="Trazado 202561" d="M247.84,445.042l80.713-.863a11.291,11.291,0,0,0,1.013-4.494l-82.437.882a6.3,6.3,0,0,0,.711,4.476" transform="translate(-173.29 232.211)" fill="#64605a"/>
        <path id="Trazado_202562" data-name="Trazado 202562" d="M252.994,453.525l2.4-.026a17.719,17.719,0,0,1-4.477-12.878c.3-7.978,5.032-13.406,8.327-16.243-.139-.8-.257-1.549-.35-2.226-3.556,2.778-9.531,8.837-9.9,18.394a19.591,19.591,0,0,0,4,12.979" transform="translate(-105.968 222.952)" fill="#64605a"/>
        <path id="Trazado_202563" data-name="Trazado 202563" d="M277.867,426.8a1.331,1.331,0,0,0,.292-2.625l-5.057-1.2a1.329,1.329,0,1,0-.613,2.587l5.055,1.2a1.312,1.312,0,0,0,.322.037" transform="translate(-160.279 223.367)" fill="#fff"/>
        <path id="Trazado_202564" data-name="Trazado 202564" d="M274.25,423.91a1.331,1.331,0,0,0,.292-2.625l-5.057-1.2a1.329,1.329,0,1,0-.613,2.587l5.055,1.2a1.3,1.3,0,0,0,.322.037" transform="translate(-151.135 221.842)" fill="#fff"/>
        <path id="Trazado_202565" data-name="Trazado 202565" d="M281.145,428.749a1.33,1.33,0,0,0,.292-2.624l-5.057-1.2a1.33,1.33,0,0,0-.613,2.589l5.055,1.2a1.3,1.3,0,0,0,.322.037" transform="translate(-168.566 224.398)" fill="#fff"/>
        <path id="Trazado_202566" data-name="Trazado 202566" d="M284.425,430.629a1.33,1.33,0,0,0,.29-2.625l-5.055-1.2a1.329,1.329,0,0,0-.613,2.587l5.055,1.2a1.3,1.3,0,0,0,.322.037" transform="translate(-176.859 225.39)" fill="#fff"/>
        <path id="Trazado_202567" data-name="Trazado 202567" d="M288,432.372a1.33,1.33,0,0,0,.29-2.624l-5.055-1.2a1.33,1.33,0,0,0-.613,2.589l5.055,1.2a1.3,1.3,0,0,0,.322.037" transform="translate(-185.907 226.312)" fill="#fff"/>
        <path id="Trazado_202568" data-name="Trazado 202568" d="M291.89,433.868a1.33,1.33,0,0,0,.292-2.624l-5.057-1.2a1.33,1.33,0,0,0-.613,2.589l5.055,1.2a1.3,1.3,0,0,0,.322.037" transform="translate(-195.731 227.102)" fill="#fff"/>
        <path id="Trazado_202569" data-name="Trazado 202569" d="M173.132,403.73l1.093,25.521,25.963.491-1.869-23.99Z" transform="translate(68.984 213.223)" fill="#fd9680"/>
        <path id="Trazado_202570" data-name="Trazado 202570" d="M220.117,453.031c0,.2,0,.4-.009.588-.02.9-.058,1.7-.1,2.392-.092,1.519-.2,2.453-.2,2.453h-50.4a27.7,27.7,0,0,1-.057-4.844c.33-5.148,2.04-13.283,9-18.659,9.528-7.367,5.85-5.83,7.8-9.189.22-.373,1.935-6.079,2.117-6.472,1.638-3.487,3.148-5.134,12.178-5.134,11.976,0,13.03,5.81,14.309,8.871a57.168,57.168,0,0,1,1.993,7.115c.3,1.274.6,2.634.9,4.019.738,3.473,1.429,7.1,1.9,9.992a52.387,52.387,0,0,1,.565,8.868" transform="translate(54.934 218.734)" fill="#2f241c"/>
        <path id="Trazado_202571" data-name="Trazado 202571" d="M175.677,447.523c0,.2,0,.4-.009.588-.02.9-.058,1.7-.1,2.392a14.08,14.08,0,0,1-5.237-6.788c-3.117-8.495,1.678-18.687,1.878-19.118l.1.047c.3,1.274.6,2.634.9,4.019-1.134,3.469-2.442,9.3-.627,14.233a11.723,11.723,0,0,0,3.09,4.627" transform="translate(99.375 224.242)" fill="#64605a"/>
        <path id="Trazado_202572" data-name="Trazado 202572" d="M220.117,439.984c-.067,2.87-.3,4.843-.3,4.843h-50.4a27.756,27.756,0,0,1-.058-4.843Z" transform="translate(54.925 232.369)" fill="#64605a"/>
        <path id="Trazado_202573" data-name="Trazado 202573" d="M193.991,425.737a1.464,1.464,0,0,1-.361-.046,24.953,24.953,0,0,0-11.686-.241,1.437,1.437,0,1,1-.766-2.77,27.646,27.646,0,0,1,13.171.229,1.437,1.437,0,0,1-.359,2.829" transform="translate(63.057 222.874)" fill="#fff"/>
        <path id="Trazado_202574" data-name="Trazado 202574" d="M193.449,421.937a1.472,1.472,0,0,1-.361-.046,24.916,24.916,0,0,0-11.686-.24,1.437,1.437,0,1,1-.766-2.77,27.606,27.606,0,0,1,13.171.228,1.437,1.437,0,0,1-.359,2.829" transform="translate(64.427 220.867)" fill="#fff"/>
        <path id="Trazado_202575" data-name="Trazado 202575" d="M195.4,428.716a1.468,1.468,0,0,1-.361-.046,25.161,25.161,0,0,0-11.687-.24,1.438,1.438,0,0,1-.764-2.772,27.644,27.644,0,0,1,13.171.229,1.437,1.437,0,0,1-.359,2.829" transform="translate(59.494 224.447)" fill="#fff"/>
        <path id="Trazado_202576" data-name="Trazado 202576" d="M197.058,432.1a1.458,1.458,0,0,1-.359-.046,25.178,25.178,0,0,0-11.69-.24,1.437,1.437,0,0,1-.761-2.771,27.6,27.6,0,0,1,13.169.228,1.437,1.437,0,0,1-.359,2.829" transform="translate(55.302 226.237)" fill="#fff"/>
        <path id="Trazado_202577" data-name="Trazado 202577" d="M210.387,238.354q2.047.516,4.114.987c17.61,4.022,36.095,5.649,49.032,2.56,6.385-1.522,10.468-9.338,13.067-18.069.709-2.382,1.307-4.835,1.812-7.248a140,140,0,0,0,2.6-20.07l-102.22-25.106s-3.165,5.831-6.678,13.431A158.974,158.974,0,0,0,165,202.583l-.008.015a46.248,46.248,0,0,0-2.118,9.439c-.755,8.645,21.886,19.873,47.513,26.316" transform="translate(3.863 90.526)" fill="#2f241c"/>
        <path id="Trazado_202578" data-name="Trazado 202578" d="M165.023,350.445c1.388,26.281,19.7,128.306,25.422,159.694.185,1.021.359,1.964.516,2.827.75,4.1,1.177,6.42,1.177,6.42l29.821-2.121s.1-2.323.269-6.4c.041-.975.086-2.054.134-3.226.7-16.918,2.188-53.226,3.325-85.04,1.54-43.185-4.115-67.812-4.115-67.812s-3.23-9.731-.773-35.009c2.04-20.934,9.228-87.588,12.152-109.821.588-4.493.931-7.12.931-7.12s-46.756-13.163-58.558,1.585a11.764,11.764,0,0,0-2.075,3.962,124.522,124.522,0,0,0-3.275,17.211c-4.717,34.1-6.3,99.277-4.951,124.847" transform="translate(48.392 104.27)" fill="#2f241c"/>
        <path id="Trazado_202579" data-name="Trazado 202579" d="M194.851,295.551a.9.9,0,0,1,1.235-1.238c.133.08,9.478,5.544,20.063,1.352a.9.9,0,1,1,.662,1.673,25.863,25.863,0,0,1-21.655-1.485.9.9,0,0,1-.3-.3" transform="translate(18.801 155.367)" fill="#64605a"/>
        <path id="Trazado_202580" data-name="Trazado 202580" d="M172.1,402.93c.183,1.019.359,1.964.517,2.825l31.267-2.1c.041-.975.086-2.052.134-3.226Z" transform="translate(66.74 211.48)" fill="#64605a"/>
        <path id="Trazado_202581" data-name="Trazado 202581" d="M195.994,240a.944.944,0,0,0,.212-1.863,30.1,30.1,0,0,1-10.928-5.822c-7.344-6.036-11.412-14.672-12.089-25.663a.943.943,0,0,0-1.883.116c.888,14.416,7.476,22.674,12.845,27.065a31.4,31.4,0,0,0,11.629,6.143.918.918,0,0,0,.212.024" transform="translate(75.027 108.673)" fill="#64605a"/>
        <path id="Trazado_202582" data-name="Trazado 202582" d="M301.293,199.394s-21.194,91.595-31,114.9-10.084,35.329-10.084,35.329,4.072,25.063-5.973,67.091-18.567,106.63-18.567,106.63l-31.435.772s2.162-160.522,7.754-191.238c3.642-20,24.87-110.106,36.525-138.36,8.305-20.133,52.776,4.876,52.776,4.876" transform="translate(-79.656 98.591)" fill="#2f241c"/>
        <path id="Trazado_202583" data-name="Trazado 202583" d="M248.735,287.083a.9.9,0,0,1,1.235-1.238c.133.079,9.477,5.546,20.061,1.352a.9.9,0,1,1,.663,1.673,25.862,25.862,0,0,1-21.655-1.485.887.887,0,0,1-.3-.3" transform="translate(-117.425 150.895)" fill="#64605a"/>
        <path id="Trazado_202584" data-name="Trazado 202584" d="M246.2,401.808c.185,1.019-.157,1.945,0,2.807l32.529-1.734c.041-.975.411-2.052.46-3.224Z" transform="translate(-121.622 211.071)" fill="#64605a"/>
        <path id="Trazado_202585" data-name="Trazado 202585" d="M175.019,506.629h.011a.964.964,0,0,0,.954-.975c-.009-.793-.868-79.562-.474-103.3.333-20.025-4.5-58.459-4.791-60.76,3.438-38.164,13-135.58,13.1-136.56a.964.964,0,1,0-1.919-.188c-.1.981-9.679,98.583-13.11,136.679a.962.962,0,0,0,0,.209c.052.4,5.128,40.182,4.789,60.586-.4,23.77.465,102.567.472,103.36a.965.965,0,0,0,.964.954" transform="translate(91.988 107.723)" fill="#64605a"/>
        <path id="Trazado_202586" data-name="Trazado 202586" d="M222.291,222.845a.965.965,0,0,0,.449-1.818c-.147-.076-10.344-5.6-12.384-17.625a.963.963,0,1,0-1.9.323,27.709,27.709,0,0,0,13.388,19.011.954.954,0,0,0,.446.11" transform="translate(-8.044 106.999)" fill="#64605a"/>
        <path id="Trazado_202587" data-name="Trazado 202587" d="M212.257,500.242a.963.963,0,0,0,.952-.822c.147-.987,14.7-98.954,18.7-121.239,3.851-21.461,3.344-52.814,3.288-55.676,9.068-21.522,36.331-107.872,36.606-108.745a.964.964,0,0,0-1.838-.581c-.277.874-27.674,87.652-36.623,108.763a.971.971,0,0,0-.076.4c.008.332.729,33.3-3.255,55.5C226,400.153,211.449,498.148,211.3,499.137a.964.964,0,0,0,.813,1.094.891.891,0,0,0,.142.011" transform="translate(-60.987 112.231)" fill="#64605a"/>
        <path id="Trazado_202588" data-name="Trazado 202588" d="M209.5,73.636s33.454-7.508,40.393-4.069,16.5,8.072,23.425,31.9,8.657,50.459,10.75,74.322c1.713,19.526,2.7,67.927.22,85.936s-42.306,17.074-68.5,8-42.17-29.377-42.459-36.293,7.573-14.916,7.627-21.324-2.138-28.539-8.258-35.54-15.1-15.472-11.511-33.947c2.4-12.382-.2-21.319,1.789-33.058s2.651-18.255,12.031-21.495,34.5-14.426,34.5-14.426" transform="translate(2.894 36.264)" fill="#00787c"/>
        <path id="Trazado_202589" data-name="Trazado 202589" d="M229.615,98.05s-5.784,4.451-3.892,6.435,6.45-2.634,6.45-2.634,3.159,5.484,5.637,4.526c3.429-1.323-.788-6.1-.788-6.1s8.348-.446,8.26-3.5-8.018-2.214-8.018-2.214,1.009-7.37-3.5-8.056-1.814,7.8-1.814,7.8-5.679-5.952-8.035-2.826,5.7,6.565,5.7,6.565" transform="translate(-53.06 45.667)" fill="#004b56"/>
        <path id="Trazado_202590" data-name="Trazado 202590" d="M191.25,105.541s4.28-5.912,6.319-4.077-2.445,6.524-2.445,6.524,5.573,3,4.688,5.5c-1.224,3.464-6.116-.613-6.116-.613s-.2,8.359-3.263,8.359-2.447-7.951-2.447-7.951-7.338,1.223-8.153-3.261,7.746-2.039,7.746-2.039-6.116-5.5-3.058-7.951,6.727,5.5,6.727,5.5" transform="translate(59.106 52.585)" fill="#004b56"/>
        <path id="Trazado_202591" data-name="Trazado 202591" d="M229.615,130.728s-5.784,4.451-3.892,6.435,6.45-2.635,6.45-2.635,3.159,5.484,5.637,4.526c3.429-1.323-.788-6.094-.788-6.094s8.348-.448,8.26-3.5-8.018-2.214-8.018-2.214,1.009-7.37-3.5-8.055-1.814,7.8-1.814,7.8-5.679-5.952-8.035-2.826,5.7,6.565,5.7,6.565" transform="translate(-53.06 62.926)" fill="#004b56"/>
        <path id="Trazado_202592" data-name="Trazado 202592" d="M177.624,191.71s-5.786,4.451-3.892,6.435,6.45-2.635,6.45-2.635,3.159,5.484,5.637,4.526c3.429-1.323-.788-6.094-.788-6.094s8.348-.448,8.26-3.5-8.018-2.214-8.018-2.214,1.01-7.37-3.5-8.055-1.812,7.8-1.812,7.8-5.679-5.952-8.035-2.826,5.7,6.565,5.7,6.565" transform="translate(78.38 95.132)" fill="#004b56"/>
        <path id="Trazado_202593" data-name="Trazado 202593" d="M190.16,135.979s-5.394,4.153-3.629,6,6.015-2.457,6.015-2.457,2.948,5.115,5.26,4.222c3.2-1.235-.738-5.685-.738-5.685s7.789-.417,7.706-3.269-7.479-2.064-7.479-2.064.941-6.875-3.264-7.514-1.69,7.277-1.69,7.277-5.295-5.552-7.492-2.636,5.312,6.122,5.312,6.122" transform="translate(47.11 66.111)" fill="#004b56"/>
        <path id="Trazado_202594" data-name="Trazado 202594" d="M175.692,153.936s-5.394,4.152-3.629,6,6.015-2.457,6.015-2.457,2.948,5.115,5.26,4.222c3.2-1.235-.735-5.686-.735-5.686s7.786-.416,7.7-3.267-7.479-2.065-7.479-2.065.941-6.875-3.261-7.514-1.693,7.277-1.693,7.277-5.295-5.552-7.492-2.636,5.312,6.123,5.312,6.123" transform="translate(83.687 75.594)" fill="#004b56"/>
        <path id="Trazado_202595" data-name="Trazado 202595" d="M223.03,178.039s-5.394,4.152-3.629,6,6.016-2.457,6.016-2.457,2.946,5.115,5.258,4.222c3.2-1.235-.735-5.686-.735-5.686s7.786-.416,7.7-3.267-7.479-2.065-7.479-2.065.941-6.875-3.261-7.514-1.693,7.277-1.693,7.277-5.295-5.552-7.492-2.636,5.312,6.123,5.312,6.123" transform="translate(-35.989 88.324)" fill="#004b56"/>
        <path id="Trazado_202596" data-name="Trazado 202596" d="M190.16,173.048s-5.394,4.15-3.629,6,6.015-2.457,6.015-2.457,2.948,5.115,5.26,4.221c3.2-1.233-.738-5.685-.738-5.685s7.789-.416,7.706-3.267-7.479-2.065-7.479-2.065.941-6.875-3.264-7.514-1.69,7.277-1.69,7.277-5.295-5.552-7.492-2.636,5.312,6.123,5.312,6.123" transform="translate(47.11 85.688)" fill="#004b56"/>
        <path id="Trazado_202597" data-name="Trazado 202597" d="M206.33,190.931s-5.394,4.152-3.629,6,6.015-2.459,6.015-2.459,2.948,5.116,5.26,4.222c3.2-1.233-.738-5.685-.738-5.685s7.789-.416,7.706-3.267-7.479-2.065-7.479-2.065.941-6.875-3.264-7.514-1.69,7.277-1.69,7.277-5.295-5.552-7.492-2.636,5.312,6.123,5.312,6.123" transform="translate(6.23 95.132)" fill="#004b56"/>
        <path id="Trazado_202598" data-name="Trazado 202598" d="M212.343,121.731s-5.4,4.15-3.629,6,6.015-2.457,6.015-2.457,2.946,5.115,5.258,4.221c3.2-1.233-.735-5.685-.735-5.685s7.786-.416,7.7-3.267-7.479-2.065-7.479-2.065.941-6.875-3.261-7.514-1.692,7.277-1.692,7.277-5.3-5.553-7.494-2.636,5.313,6.123,5.313,6.123" transform="translate(-8.968 58.586)" fill="#004b56"/>
        <path id="Trazado_202599" data-name="Trazado 202599" d="M203.465,93.73s-5.4,4.152-3.629,6,6.015-2.457,6.015-2.457,2.946,5.115,5.258,4.222c3.2-1.235-.735-5.686-.735-5.686s7.786-.416,7.7-3.267-7.479-2.064-7.479-2.064.941-6.875-3.261-7.514-1.692,7.277-1.692,7.277-5.3-5.552-7.494-2.636,5.313,6.123,5.313,6.123" transform="translate(13.477 43.797)" fill="#004b56"/>
        <path id="Trazado_202600" data-name="Trazado 202600" d="M211.3,142.351s-5.4,4.152-3.629,6,6.015-2.459,6.015-2.459,2.946,5.116,5.258,4.222c3.2-1.233-.735-5.685-.735-5.685s7.786-.416,7.7-3.267-7.479-2.064-7.479-2.064.941-6.875-3.261-7.514-1.692,7.277-1.692,7.277-5.3-5.552-7.494-2.636,5.313,6.123,5.313,6.123" transform="translate(-6.324 69.476)" fill="#004b56"/>
        <path id="Trazado_202601" data-name="Trazado 202601" d="M216.417,110.19a10.4,10.4,0,0,1-1.233.293,10.938,10.938,0,0,1-9.71-2.492c-7.477-6.79-6.258-23.957-6.2-24.684a1.051,1.051,0,0,1,2.1.16c-.012.168-1.2,16.872,5.521,22.968,2.092,1.9,4.687,2.544,7.933,1.977,13.582-2.372,25.685-38.539,25.806-38.9a1.051,1.051,0,0,1,2,.66c-.5,1.5-11.979,35.738-26.206,40.022" transform="translate(-13.291 36.329)" fill="#fff"/>
        <path id="Trazado_202602" data-name="Trazado 202602" d="M215.375,112.756c1.812,0,3.764-.095,5.867-.306,11.083-1.108,30.946-14.74,31.787-15.319a.965.965,0,1,0-1.1-1.588c-.2.139-20.292,13.93-30.882,14.989-19.847,1.987-25.462-6.855-25.515-6.945a.964.964,0,0,0-1.656.987c.218.368,5.058,8.182,21.5,8.182" transform="translate(-15.772 50.369)" fill="#004b56"/>
        <path id="Trazado_202603" data-name="Trazado 202603" d="M249.783,172.006a.964.964,0,0,0,.584-1.731c-21.707-16.515-64.315-26.383-64.742-26.481a.964.964,0,1,0-.428,1.88c.422.1,42.627,9.875,64,26.136a.956.956,0,0,0,.582.2" transform="translate(1.134 75.929)" fill="#004b56"/>
        <path id="Trazado_202604" data-name="Trazado 202604" d="M227.971,180.473a.964.964,0,0,0,.844-1.429c-9.892-18-25.981-23.51-26.661-23.735a.964.964,0,0,0-.608,1.829,51.079,51.079,0,0,1,25.581,22.835.96.96,0,0,0,.845.5" transform="translate(-2.174 81.997)" fill="#004b56"/>
        <path id="Trazado_202605" data-name="Trazado 202605" d="M171.05,134.272c-1.1-8.843-2.327-16.764-3.493-23.478a.962.962,0,0,1-.319-.144c-.747-.523-1.3-1.284-1.993-1.866,1.281,7.164,2.668,15.882,3.9,25.76,3.227,25.911,6.013,65.312.967,105.87a.965.965,0,0,0,.837,1.076.828.828,0,0,0,.121.008.961.961,0,0,0,.955-.845c5.072-40.768,2.272-80.352-.972-106.381" transform="translate(106.419 57.452)" fill="#004b56"/>
        <path id="Trazado_202606" data-name="Trazado 202606" d="M211.127,94.656c17.422,16.415,30.023-9.982,28.894-14.986a34.807,34.807,0,0,1-10.782-24.442l-25.4,20.255q.539,1.185,1.08,2.381a115.726,115.726,0,0,1,4.725,11.565,43.8,43.8,0,0,1,1.485,5.228" transform="translate(-17.839 29.167)" fill="#fd9680"/>
        <path id="Trazado_202607" data-name="Trazado 202607" d="M216.957,86.925c13.481-8.477,17.619-26.959,17.619-26.959L212.232,75.359a115.893,115.893,0,0,1,4.725,11.566" transform="translate(-25.155 31.67)" fill="#2f241c"/>
        <path id="Trazado_202608" data-name="Trazado 202608" d="M245.729,57.222s-4.58-6.109-9.626-2.586,1.256,22.205,11.7,17.9Z" transform="translate(-72.148 28.277)" fill="#ce6857"/>
        <path id="Trazado_202609" data-name="Trazado 202609" d="M215.428,72.1c.226.613.492,1.255.793,1.921q.362.818.795,1.679c.107.209.215.425.33.642.067.131.138.261.208.4.422.795.876,1.609,1.362,2.431q.468.8.973,1.612c.032.046.061.1.093.145.159.252.315.5.475.741,5.581,8.582,11.21,11.495,16.65,12.088,9.216,1,25.662-14.256,26.035-22.7.275-6.1,1.03-3.892-3.548-18.42s-13.249-20.3-13.249-20.3c-11.172-6.215-24.823.241-31.852,9.539s-2.719,20.344.935,30.234" transform="translate(-51.647 15.775)" fill="#fd9680"/>
        <path id="Trazado_202610" data-name="Trazado 202610" d="M226.792,66.372a.546.546,0,0,1-.286-.038.562.562,0,0,1-.309-.734,4.547,4.547,0,0,1,4.19-2.537.563.563,0,1,1,.035,1.125,3.452,3.452,0,0,0-3.183,1.838.563.563,0,0,1-.448.345" transform="translate(-42.825 33.306)" fill="#ce6857"/>
        <path id="Trazado_202611" data-name="Trazado 202611" d="M225.619,67.033a.562.562,0,0,1-.558-.844c.139-.237,3.492-5.827,10.044-5.5a.563.563,0,1,1-.055,1.125c-5.877-.289-8.989,4.9-9.019,4.95a.561.561,0,0,1-.413.274" transform="translate(-45.706 32.042)" fill="#2f241c"/>
        <path id="Trazado_202612" data-name="Trazado 202612" d="M226.588,44.467a8.29,8.29,0,0,1,7.732-.507c2.252,1.093,1.423,3.4-1.354,2.795a9.055,9.055,0,0,0-5.05.018,1.339,1.339,0,0,1-1.328-2.306" transform="translate(-47.308 22.818)" fill="#2f241c"/>
        <path id="Trazado_202613" data-name="Trazado 202613" d="M244.013,47.453a8.287,8.287,0,0,0-5.361,5.6c-.611,2.428,1.687,3.273,3.012.759a9.054,9.054,0,0,1,3.261-3.857,1.338,1.338,0,0,0-.912-2.5" transform="translate(-76.48 25.027)" fill="#2f241c"/>
        <path id="Trazado_202614" data-name="Trazado 202614" d="M226.413,51.493a.809.809,0,0,1,.819-.066c.02.009,2.274,1.071,3.506-.034a4.338,4.338,0,0,0,1.314-3.059.809.809,0,0,1,1.617-.053,5.931,5.931,0,0,1-1.854,4.317c-2.042,1.829-5.159.347-5.29.284a.809.809,0,0,1-.373-1.082.8.8,0,0,1,.261-.307" transform="translate(-45.393 25.088)" fill="#2f241c"/>
        <path id="Trazado_202615" data-name="Trazado 202615" d="M242.325,52.992h.037a.81.81,0,0,1,.776.84c0,.128-.145,3.133-2.408,3.962a5.176,5.176,0,0,1-4.08-.35.808.808,0,0,1,.808-1.4,3.56,3.56,0,0,0,2.715.231c1.236-.452,1.348-2.486,1.349-2.506a.811.811,0,0,1,.8-.778" transform="translate(-70.415 27.987)" fill="#2f241c"/>
        <path id="Trazado_202616" data-name="Trazado 202616" d="M258.7,29.1s-1.549,11.386-16.695,20.315S226.7,50.7,226.7,50.7s11.027-28.15,32-21.6" transform="translate(-71.397 14.845)" fill="#2f241c"/>
        <path id="Trazado_202617" data-name="Trazado 202617" d="M212.652,32.228S221.746,49,230.725,49.948c5.776.611,6.843-7.612,6.843-7.612s-19.607-22.564-24.916-10.109" transform="translate(-28.789 15.04)" fill="#2f241c"/>
        <path id="Trazado_202618" data-name="Trazado 202618" d="M234.783,63.307a5.52,5.52,0,0,0,1.071-.39.708.708,0,1,0-.616-1.276,4.219,4.219,0,0,1-3.371.107c1.056-3.59-.374-11.074-.44-11.412a.708.708,0,0,0-1.391.27c.451,2.326,1.383,8.874.3,11.206a.708.708,0,0,0,.27.9,5.807,5.807,0,0,0,4.175.594" transform="translate(-54.02 26.282)" fill="#2f241c"/>
        <path id="Trazado_202619" data-name="Trazado 202619" d="M236.388,61.1c.422.793.876,1.609,1.36,2.431.312.535.639,1.07.975,1.612.032.046.061.1.093.145.159.251.315.5.474.74,2.781-2.164,4.312-4.719,3.469-5.92-.8-1.152-3.518-.682-6.371.992" transform="translate(-70.481 31.411)" fill="#ce6857"/>
        <path id="Trazado_202620" data-name="Trazado 202620" d="M231.424,49.917c.785,1.391-1.375,4.1-4.826,6.048s-6.886,2.407-7.673,1.016,1.375-4.1,4.827-6.05,6.886-2.405,7.671-1.015" transform="translate(-32.147 25.938)" fill="#ce6857"/>
        <path id="Trazado_202621" data-name="Trazado 202621" d="M206.29,46.656s1.265-6.95,8.032-6.476,11.391,21.713-.923,23.555Z" transform="translate(-2.581 21.208)" fill="#fd9680"/>
        <path id="Trazado_202622" data-name="Trazado 202622" d="M207.747,53.344a1.965,1.965,0,1,0,1.965-1.964,1.966,1.966,0,0,0-1.965,1.964" transform="translate(4.598 27.135)" fill="#fff"/>
        <path id="Trazado_202623" data-name="Trazado 202623" d="M213.4,39.054s5.657,3.264,7.15,12.092,1.377,15.6,7.454,16.571c0,0-3.177-.926-2.644-9.427s1.783-13.7-1.543-17.147S213.4,39.054,213.4,39.054" transform="translate(-20.376 20.487)" fill="#2f241c"/>
        <path id="Trazado_202624" data-name="Trazado 202624" d="M208.707,53.412a.584.584,0,0,0,.634.529.651.651,0,0,0,.125-.024.587.587,0,0,0,.4-.61,11.977,11.977,0,0,1,.579-4.378c1.49.605,2.723,1.219,2.74,1.226a.569.569,0,0,0,.437.035.606.606,0,0,0,.347-.295.59.59,0,0,0-.264-.784c-.057-.028-1.288-.64-2.816-1.264a7.117,7.117,0,0,1,2.781-3.078.583.583,0,0,0-.6-1c-4.931,2.922-4.395,9.374-4.37,9.646" transform="translate(0.818 23.071)" fill="#2f241c"/>
        <path id="Trazado_202625" data-name="Trazado 202625" d="M160.623,132.3l4.323,2.09q2.233,1.08,4.494,2.124c3,1.42,6.032,2.763,9.045,4.088s6.048,2.558,9.051,3.759,6.007,2.3,8.972,3.282c2.954,1,5.877,1.89,8.689,2.584a55.767,55.767,0,0,0,7.787,1.4,22.72,22.72,0,0,0,2.945.093,4.633,4.633,0,0,0,1.36-.212l.011,0-.067.017-.162.041-.324.09c-.214.063-.426.133-.637.209s-.486.176-.723.275-.484.211-.721.329c-.255.122-.533.264-.792.41s-.512.3-.775.474-.542.361-.8.556a14.915,14.915,0,0,0-1.51,1.3,14.521,14.521,0,0,0-1.313,1.488,13.093,13.093,0,0,0-1.035,1.545,12.572,12.572,0,0,0-.741,1.456,12.979,12.979,0,0,0-1.067,4.092,9.82,9.82,0,0,0-.018,1.707c0,.075.012.148.021.222q0,.069.014.138a.628.628,0,0,1,.012.1l.011.064c-.008,0,.006.04-.009.006l-.032-.095c-.061-.185-.193-.561-.373-1.005-.362-.9-.906-2.072-1.524-3.287s-1.328-2.515-2.083-3.831c-1.5-2.641-3.162-5.379-4.913-8.117s-3.593-5.5-5.465-8.256-3.784-5.532-5.734-8.292-3.924-5.518-5.914-8.278-4.019-5.5-6.029-8.26l-6.1-8.24-6.077-8.143-.133-.176a16.73,16.73,0,0,1,26.194-20.8l1.77,2.1,1.713,2.061c1.138,1.374,2.255,2.758,3.374,4.141,2.245,2.761,4.433,5.562,6.621,8.37s4.335,5.653,6.476,8.512,4.26,5.744,6.339,8.677,4.152,5.888,6.2,8.9,4.03,6.085,6,9.238,3.917,6.389,5.805,9.844c.94,1.733,1.867,3.522,2.781,5.429s1.817,3.924,2.694,6.281c.437,1.186.869,2.462,1.278,3.956l.151.565.147.605c.1.387.193.851.281,1.281l.131.706c.041.235.082.472.121.743l.109.785.09.871a24.677,24.677,0,0,1,.021,4.319c-.044.469-.1.938-.167,1.4-.075.5-.183,1.051-.3,1.568l-.044.2-.055.222-.118.443q-.121.445-.26.882l-.07.219-.086.245-.177.487q-.183.486-.388.963a22.211,22.211,0,0,1-1.031,2.04,21.273,21.273,0,0,1-1.4,2.087,19.541,19.541,0,0,1-1.745,1.976,18.75,18.75,0,0,1-2,1.728c-.348.26-.7.51-1.067.749s-.7.432-1.056.636-.726.4-1.079.568q-.5.241-1.022.457c-.338.141-.709.289-1.025.4s-.631.211-.949.306l-.48.139-.24.066-.147.037-.309.07a39.946,39.946,0,0,1-9.007,1,53.4,53.4,0,0,1-7.488-.544,80.955,80.955,0,0,1-12.664-2.9c-3.9-1.207-7.583-2.57-11.157-4.016-3.557-1.481-7-3.047-10.371-4.679s-6.646-3.371-9.881-5.139-6.392-3.64-9.528-5.539q-2.34-1.446-4.659-2.937c-.775-.5-1.542-1.012-2.317-1.527l-1.166-.782-1.241-.851a14.225,14.225,0,0,1,14.236-24.539Z" transform="translate(79.579 38.726)" fill="#00787c"/>
        <path id="Trazado_202626" data-name="Trazado 202626" d="M171.474,131.046a.871.871,0,0,1-.426-.2,38.51,38.51,0,0,0-15.193-6.936.887.887,0,1,1,.368-1.736,39.544,39.544,0,0,1,15.964,7.311.888.888,0,0,1-.714,1.557" transform="translate(124.145 64.515)" fill="#004b56"/>
        <path id="Trazado_202627" data-name="Trazado 202627" d="M158.144,124.842a.888.888,0,0,1-.1-1.73,46.958,46.958,0,0,1,10.9-2.043.888.888,0,1,1,.038,1.776,46.281,46.281,0,0,0-10.446,1.974.907.907,0,0,1-.388.023" transform="translate(123.367 63.94)" fill="#004b56"/>
        <path id="Trazado_202628" data-name="Trazado 202628" d="M193.052,135.465a.891.891,0,0,1-.591-.417c-5.874-9.9-24.962-33.5-25.155-33.743a.888.888,0,0,1,1.38-1.117c.193.238,19.363,23.947,25.3,33.952a.888.888,0,0,1-.935,1.325" transform="translate(84.266 52.738)" fill="#004b56"/>
        <path id="Trazado_202629" data-name="Trazado 202629" d="M251.335,124.136a14.76,14.76,0,0,0-6.649-15.384c-4.924-3.149-12.405-7.474-19.27-9.574-10.732-3.282-23.8-.674-24.022,2.659s12.025-.978,16.632,2.2c0,0-18.069-1.733-19.869,1.776-1.945,3.79,12.68.665,18.139,3.536,0,0-17.213-.816-17.266,1.649-.083,3.8,9.187,1.079,14.371,4.323,0,0-11.727-1.479-12.557,1.449s15.883,2.314,20.806,7.531,8.363,10.26,14.884,10.469c4.772.154,13.032-2.309,14.8-10.637" transform="translate(-20.442 51.581)" fill="#fd9680"/>
        <path id="Trazado_202630" data-name="Trazado 202630" d="M225,112.638s-10.862-14.623-16.837-14.452-8.347,1.087-8.347,1.087Z" transform="translate(3.397 51.855)" fill="#fd9680"/>
        <path id="Trazado_202631" data-name="Trazado 202631" d="M220.148,89.232a13.586,13.586,0,0,1,2.2-15.265c3.614-3.984,9.219-9.626,14.811-13.143,8.741-5.5,20.978-6.33,21.976-3.423s-10.914,2.028-14.244,5.963c0,0,15.633-5.889,18.078-3.206,2.641,2.9-11.1,3.643-15.26,7.508,0,0,15.092-4.869,15.732-2.693.989,3.351-7.9,3.171-11.722,7.3,0,0,10.06-4.138,11.5-1.736s-13.551,5.879-16.667,11.7-4.959,11.128-10.7,12.884c-4.2,1.287-12.133,1.087-15.711-5.885" transform="translate(-64.016 29.447)" fill="#ff5962"/>
        <path id="Trazado_202632" data-name="Trazado 202632" d="M235.992,112.667a4.525,4.525,0,0,0,.11.891c1.057,4.606,3.473,8,6.837,9.948,6.21,3.613,15.64,2.312,25.65-5.3q.47-2.7.836-5.423c.16-1.161.3-2.326.431-3.477l.173-1.7.119-1.464.046-.565c.446-5.232,5.215-8.86,7.208-12.52.327-1.725,1.193-4.968,3.275-6.336,0,0-17.624,4.288-17.47-15.975,0,0-27.633,31.324-27.214,41.92" transform="translate(-107.555 37.364)" fill="#bb1b31"/>
        <path id="Trazado_202633" data-name="Trazado 202633" d="M234.888,76.95s6.128-15.6,11.475-16.889,7.676-1.045,7.676-1.045Z" transform="translate(-79.239 31.159)" fill="#ff5962"/>
      </g>
    </g>
  </g>
</svg>
