<svg xmlns="http://www.w3.org/2000/svg" xmlns:xlink="http://www.w3.org/1999/xlink" width="295" height="221" viewBox="0 0 295 221">
  <defs>
    <clipPath id="clip-path">
      <rect id="Rectángulo_48647" data-name="Rectángulo 48647" width="262.242" height="206.811" fill="none"/>
    </clipPath>
    <clipPath id="clip-path-3">
      <rect id="Rectángulo_48641" data-name="Rectángulo 48641" width="27.793" height="78.309" fill="none"/>
    </clipPath>
    <clipPath id="clip-path-4">
      <rect id="Rectángulo_48642" data-name="Rectángulo 48642" width="4.447" height="8.376" fill="none"/>
    </clipPath>
    <clipPath id="clip-path-5">
      <rect id="Rectángulo_48643" data-name="Rectángulo 48643" width="4.447" height="8.764" fill="none"/>
    </clipPath>
    <clipPath id="clip-path-6">
      <rect id="Rectángulo_48644" data-name="Rectángulo 48644" width="4.449" height="8.548" fill="none"/>
    </clipPath>
    <clipPath id="clip-path-7">
      <rect id="Rectángulo_48645" data-name="Rectángulo 48645" width="23.259" height="24.623" fill="none"/>
    </clipPath>
  </defs>
  <g id="Grupo_172352" data-name="Grupo 172352" transform="translate(-1020 -7503)">
    <rect id="Rectángulo_215652" data-name="Rectángulo 215652" width="295" height="221" transform="translate(1020 7503)" fill="#ffdcd8"/>
    <g id="Grupo_163067" data-name="Grupo 163067" transform="translate(1036 7510)">
      <g id="Grupo_163085" data-name="Grupo 163085" clip-path="url(#clip-path)">
        <g id="Grupo_163084" data-name="Grupo 163084">
          <g id="Grupo_163083" data-name="Grupo 163083" clip-path="url(#clip-path)">
            <path id="Trazado_203035" data-name="Trazado 203035" d="M54.522,148.486C39.677,128,36.493,102.938,47.849,84.561c28.559-46.222,96.438-58.667,154.769-39.874,39.115,12.6,74.972,44.58,72.612,85.352-1.966,33.964-33.485,50.221-64.216,56.279-32.953,6.5-69.512,4.548-104.545-6.793q-3.946-1.277-7.863-2.715c-15.928-5.855-30.4-11.148-41.659-25.149q-1.26-1.567-2.424-3.175" transform="translate(-16.198 -14.327)" fill="#8299e8"/>
            <path id="Trazado_203036" data-name="Trazado 203036" d="M292.05,31.908a23.522,23.522,0,0,1-9.985-3.48,12.235,12.235,0,0,1-5.53-8.715c-.474-5.459,3.7-10.282,8.325-13.216C292.721,1.514,302.324.006,311.632,0c4.946,0,10.224.508,14.111,3.568A12.854,12.854,0,0,1,330.484,14.8C328.9,29.84,303.474,33.558,292.05,31.908" transform="translate(-109.2 0)" fill="#8299e8"/>
            <path id="Trazado_203037" data-name="Trazado 203037" d="M265.384,274.326c0,6.811-46.854,12.332-104.651,12.332S56.082,281.138,56.082,274.326s46.854-12.332,104.651-12.332,104.651,5.521,104.651,12.332" transform="translate(-22.149 -103.472)" fill="#c0cbe7"/>
            <path id="Trazado_203038" data-name="Trazado 203038" d="M327.072,85.117l-2.348,20.139-6.353,54.46-1.422,12.2L315.5,184.33a9.844,9.844,0,0,1-10.915,8.64l-.946-.107-14.584-1.7-13.209-1.543-.712-.08-29.773-3.475a9.843,9.843,0,0,1-8.64-10.915l1.167-10,4.415-37.87.013-.067.436-3.783,1.181-10.137h.007l1.891-16.282h.007l2.455-21.078a9.834,9.834,0,0,1,10.915-8.634l25.412,2.965,11.747,1.369,6.823.792,11.572,1.348,3.669.43a9.845,9.845,0,0,1,8.641,10.921" transform="translate(-93.464 -26.55)" fill="#fe898f"/>
            <path id="Trazado_203039" data-name="Trazado 203039" d="M307.944,74.4l-59.258,40.868,1.9-16.281,38.791-26.752Z" transform="translate(-98.216 -28.527)" fill="#f8cac9"/>
            <path id="Trazado_203040" data-name="Trazado 203040" d="M343.488,220.088l-1.422,12.2-16.577,11.438-11.318,7.8-13.209-1.543-.711-.081.718-.49,20.367-14.054.751-.517h.007l.269-.188,3.891-2.683,2.677-1.851.523-.356Z" transform="translate(-118.581 -86.922)" fill="#f8cac9"/>
            <path id="Trazado_203041" data-name="Trazado 203041" d="M327.876,89.385l-2.349,20.144-86.833,59.886,4.864-41.72,72.008-49.657,3.672.428a9.842,9.842,0,0,1,8.638,10.918" transform="translate(-94.27 -30.821)" fill="#f8cac9"/>
            <path id="Trazado_203042" data-name="Trazado 203042" d="M300.056,71.623c-13.507-.947-33.292-2.261-36.515-2.148-4.975.172-6.846,2.055-8.617,4.4-1.09,1.432-5.591,30.793-8.932,53.4l5.986-51.345A9.843,9.843,0,0,1,262.9,67.29Z" transform="translate(-97.152 -26.549)" fill="#fff"/>
            <path id="Trazado_203043" data-name="Trazado 203043" d="M275.805,71.555a1.69,1.69,0,1,1-1.482-1.873,1.689,1.689,0,0,1,1.482,1.873" transform="translate(-107.596 -27.515)" fill="#fff"/>
            <path id="Trazado_203044" data-name="Trazado 203044" d="M283.236,77.022a.522.522,0,1,1-.458-.579.522.522,0,0,1,.458.579" transform="translate(-111.451 -30.189)" fill="#fff"/>
            <path id="Trazado_203045" data-name="Trazado 203045" d="M267.461,85.317a.944.944,0,1,1-.828-1.047.944.944,0,0,1,.828,1.047" transform="translate(-104.888 -33.279)" fill="#fff"/>
            <path id="Trazado_203046" data-name="Trazado 203046" d="M313.281,89.519l-11.753,100.8s4.231-59.462,11.753-100.8" transform="translate(-119.086 -35.355)" fill="#ed476f"/>
            <path id="Trazado_203047" data-name="Trazado 203047" d="M302.388,189.394l11.361-97.437s-3.819,54.639-11.361,97.437" transform="translate(-119.425 -36.318)" fill="#fff"/>
            <path id="Trazado_203048" data-name="Trazado 203048" d="M353.824,110.39a3.042,3.042,0,0,0-2.691-3.157l-6.69-.78-6.684-.779a3.046,3.046,0,0,0-2.368,5.309,2.974,2.974,0,0,0,1.662.747l6.683.779,6.69.78a3.047,3.047,0,0,0,3.379-2.679c.008-.074.017-.147.019-.221" transform="translate(-132.052 -41.726)" fill="#ed476f"/>
            <path id="Trazado_203049" data-name="Trazado 203049" d="M353.442,109.565a3.047,3.047,0,0,1-3.379,2.679l-13.374-1.559a2.975,2.975,0,0,1-1.662-.748,3.046,3.046,0,0,1,2.368-5.309l13.374,1.559a3.042,3.042,0,0,1,2.691,3.157c0,.074-.01.148-.019.221" transform="translate(-131.909 -41.313)" fill="#fafbfe"/>
            <path id="Trazado_203050" data-name="Trazado 203050" d="M354.114,111.455a3.047,3.047,0,0,1-3.379,2.679l-13.374-1.559a2.975,2.975,0,0,1-1.662-.748,3.043,3.043,0,0,1,3.341-2.414l14.486,1.689a3.124,3.124,0,0,1,.606.131c0,.074-.01.148-.019.221" transform="translate(-132.581 -43.204)" fill="#f8cac9"/>
            <path id="Trazado_203051" data-name="Trazado 203051" d="M359.562,110.087a3.047,3.047,0,0,1-3.379,2.679l-6.69-.78.706-6.057,6.69.78a3.042,3.042,0,0,1,2.691,3.157c0,.074-.01.148-.019.221" transform="translate(-138.029 -41.836)" fill="#5e82e2"/>
            <path id="Trazado_203052" data-name="Trazado 203052" d="M359.581,111.658a3.084,3.084,0,0,0-.606-.131l-9.1-1.061-.386,3.311,6.69.781a3.048,3.048,0,0,0,3.379-2.679c.008-.073.017-.147.019-.221" transform="translate(-138.029 -43.627)" fill="#435da1"/>
            <path id="Trazado_203053" data-name="Trazado 203053" d="M358.591,108.627c-.014.125-.267.2-.564.163s-.525-.163-.511-.288.267-.2.563-.163.526.164.511.289" transform="translate(-141.198 -42.784)" fill="#fafbfe"/>
            <path id="Trazado_203054" data-name="Trazado 203054" d="M360.478,108.247c-.01.083-.123.138-.254.123s-.229-.095-.219-.178.123-.139.254-.123.229.1.219.178" transform="translate(-142.18 -42.68)" fill="#fafbfe"/>
            <path id="Trazado_203055" data-name="Trazado 203055" d="M350.084,142.472a3.042,3.042,0,0,0-2.691-3.157l-6.69-.78-6.684-.779a3.046,3.046,0,0,0-2.368,5.309,2.974,2.974,0,0,0,1.662.747l6.683.779,6.69.78a3.046,3.046,0,0,0,3.379-2.679c.009-.074.017-.147.019-.221" transform="translate(-130.575 -54.397)" fill="#ed476f"/>
            <path id="Trazado_203056" data-name="Trazado 203056" d="M349.7,141.646a3.047,3.047,0,0,1-3.379,2.679l-13.374-1.559a2.975,2.975,0,0,1-1.662-.748,3.046,3.046,0,0,1,2.368-5.309l13.374,1.559a3.042,3.042,0,0,1,2.691,3.157c0,.074-.01.148-.019.221" transform="translate(-130.432 -53.983)" fill="#fafbfe"/>
            <path id="Trazado_203057" data-name="Trazado 203057" d="M350.373,143.536a3.047,3.047,0,0,1-3.379,2.679l-13.374-1.559a2.975,2.975,0,0,1-1.662-.748,3.043,3.043,0,0,1,3.341-2.414l14.486,1.689a3.12,3.12,0,0,1,.606.131c0,.074-.01.148-.019.221" transform="translate(-131.104 -55.874)" fill="#f8cac9"/>
            <path id="Trazado_203058" data-name="Trazado 203058" d="M355.821,142.168a3.047,3.047,0,0,1-3.379,2.679l-6.69-.78.706-6.057,6.69.78a3.042,3.042,0,0,1,2.691,3.157c0,.074-.01.148-.019.221" transform="translate(-136.551 -54.506)" fill="#5e82e2"/>
            <path id="Trazado_203059" data-name="Trazado 203059" d="M355.841,143.74a3.083,3.083,0,0,0-.606-.131l-9.1-1.061-.386,3.311,6.69.781a3.048,3.048,0,0,0,3.379-2.679c.008-.074.017-.147.019-.221" transform="translate(-136.552 -56.298)" fill="#435da1"/>
            <path id="Trazado_203060" data-name="Trazado 203060" d="M354.851,140.709c-.014.125-.267.2-.564.163s-.525-.164-.511-.289.267-.2.563-.163.526.164.511.289" transform="translate(-139.72 -55.454)" fill="#fafbfe"/>
            <path id="Trazado_203061" data-name="Trazado 203061" d="M356.737,140.329c-.01.083-.123.138-.254.123s-.229-.1-.218-.178.123-.138.254-.123.229.1.219.178" transform="translate(-140.703 -55.35)" fill="#fafbfe"/>
            <path id="Trazado_203062" data-name="Trazado 203062" d="M346.343,174.553a3.042,3.042,0,0,0-2.691-3.157l-6.69-.78-6.683-.779a3.046,3.046,0,0,0-2.368,5.309,2.979,2.979,0,0,0,1.662.748l6.684.779,6.689.78a3.048,3.048,0,0,0,3.379-2.679c.008-.073.017-.147.019-.221" transform="translate(-129.098 -67.067)" fill="#ed476f"/>
            <path id="Trazado_203063" data-name="Trazado 203063" d="M345.961,173.728a3.047,3.047,0,0,1-3.379,2.679l-13.374-1.559a2.975,2.975,0,0,1-1.662-.748,3.046,3.046,0,0,1,2.368-5.309l13.374,1.559a3.042,3.042,0,0,1,2.691,3.157c0,.074-.01.148-.019.221" transform="translate(-128.954 -66.654)" fill="#fafbfe"/>
            <path id="Trazado_203064" data-name="Trazado 203064" d="M346.633,175.618a3.047,3.047,0,0,1-3.379,2.679l-13.374-1.559a2.975,2.975,0,0,1-1.662-.748,3.043,3.043,0,0,1,3.341-2.414l14.486,1.689a3.122,3.122,0,0,1,.606.131c0,.074-.01.148-.019.221" transform="translate(-129.627 -68.544)" fill="#f8cac9"/>
            <path id="Trazado_203065" data-name="Trazado 203065" d="M352.081,174.25a3.047,3.047,0,0,1-3.379,2.679l-6.69-.78.706-6.057,6.69.78a3.042,3.042,0,0,1,2.691,3.157c0,.074-.01.148-.019.221" transform="translate(-135.074 -67.176)" fill="#5e82e2"/>
            <path id="Trazado_203066" data-name="Trazado 203066" d="M352.1,175.821a3.083,3.083,0,0,0-.606-.131l-9.1-1.061-.386,3.311,6.69.781a3.047,3.047,0,0,0,3.379-2.679c.008-.074.017-.147.019-.221" transform="translate(-135.074 -68.968)" fill="#435da1"/>
            <path id="Trazado_203067" data-name="Trazado 203067" d="M351.11,172.79c-.015.125-.267.2-.564.163s-.525-.163-.511-.288.267-.2.563-.163.526.164.511.289" transform="translate(-138.243 -68.124)" fill="#fafbfe"/>
            <path id="Trazado_203068" data-name="Trazado 203068" d="M353,172.41c-.01.083-.123.138-.254.123s-.229-.095-.219-.178.123-.139.254-.123.229.1.219.178" transform="translate(-139.226 -68.02)" fill="#fafbfe"/>
            <path id="Trazado_203069" data-name="Trazado 203069" d="M342.6,206.635a3.042,3.042,0,0,0-2.691-3.157l-6.69-.78-6.684-.779a3.046,3.046,0,0,0-2.368,5.309,2.974,2.974,0,0,0,1.662.747l6.683.779,6.69.78a3.046,3.046,0,0,0,3.379-2.679c.008-.074.017-.147.019-.221" transform="translate(-127.621 -79.737)" fill="#ed476f"/>
            <path id="Trazado_203070" data-name="Trazado 203070" d="M342.22,205.809a3.047,3.047,0,0,1-3.379,2.679l-13.374-1.559a2.975,2.975,0,0,1-1.662-.748,3.046,3.046,0,0,1,2.368-5.309l13.374,1.559a3.043,3.043,0,0,1,2.691,3.157c0,.074-.01.148-.019.221" transform="translate(-127.477 -79.324)" fill="#fafbfe"/>
            <path id="Trazado_203071" data-name="Trazado 203071" d="M342.892,207.7a3.047,3.047,0,0,1-3.379,2.679l-13.374-1.559a2.975,2.975,0,0,1-1.662-.748,3.042,3.042,0,0,1,3.341-2.413l14.486,1.689a3.124,3.124,0,0,1,.606.131c0,.074-.01.148-.019.221" transform="translate(-128.15 -81.215)" fill="#f8cac9"/>
            <path id="Trazado_203072" data-name="Trazado 203072" d="M348.34,206.331a3.047,3.047,0,0,1-3.379,2.679l-6.69-.78.706-6.057,6.69.78a3.043,3.043,0,0,1,2.691,3.157c0,.074-.01.148-.019.221" transform="translate(-133.597 -79.846)" fill="#5e82e2"/>
            <path id="Trazado_203073" data-name="Trazado 203073" d="M348.36,207.9a3.173,3.173,0,0,0-.606-.131l-9.1-1.061-.386,3.312,6.69.78a3.048,3.048,0,0,0,3.379-2.679c.009-.074.017-.147.019-.221" transform="translate(-133.597 -81.639)" fill="#435da1"/>
            <path id="Trazado_203074" data-name="Trazado 203074" d="M347.37,204.872c-.015.125-.267.2-.564.163s-.525-.163-.511-.288.267-.2.563-.163.526.164.511.289" transform="translate(-136.766 -80.795)" fill="#fafbfe"/>
            <path id="Trazado_203075" data-name="Trazado 203075" d="M349.256,204.492c-.01.083-.123.138-.254.123s-.229-.095-.219-.178.123-.138.254-.123.229.1.219.178" transform="translate(-137.748 -80.691)" fill="#fafbfe"/>
            <path id="Trazado_203076" data-name="Trazado 203076" d="M338.862,238.716a3.042,3.042,0,0,0-2.691-3.157l-6.69-.78L322.8,234a3.046,3.046,0,0,0-2.368,5.309,2.979,2.979,0,0,0,1.662.748l6.684.779,6.69.781a3.048,3.048,0,0,0,3.379-2.679c.008-.073.017-.147.019-.221" transform="translate(-126.143 -92.408)" fill="#ed476f"/>
            <path id="Trazado_203077" data-name="Trazado 203077" d="M338.48,237.891a3.047,3.047,0,0,1-3.379,2.679l-13.374-1.559a2.975,2.975,0,0,1-1.662-.748,3.046,3.046,0,0,1,2.368-5.309l13.374,1.559a3.042,3.042,0,0,1,2.691,3.157c0,.074-.01.148-.019.221" transform="translate(-126 -91.994)" fill="#fafbfe"/>
            <path id="Trazado_203078" data-name="Trazado 203078" d="M339.152,239.781a3.047,3.047,0,0,1-3.379,2.679L322.4,240.9a2.975,2.975,0,0,1-1.662-.748,3.042,3.042,0,0,1,3.341-2.413l14.486,1.689a3.124,3.124,0,0,1,.606.131c0,.074-.01.148-.019.221" transform="translate(-126.672 -93.885)" fill="#f8cac9"/>
            <path id="Trazado_203079" data-name="Trazado 203079" d="M344.6,238.413a3.047,3.047,0,0,1-3.379,2.679l-6.69-.78.706-6.057,6.69.78a3.042,3.042,0,0,1,2.691,3.157c0,.074-.01.148-.019.221" transform="translate(-132.12 -92.517)" fill="#5e82e2"/>
            <path id="Trazado_203080" data-name="Trazado 203080" d="M344.619,239.984a3.082,3.082,0,0,0-.606-.131l-9.1-1.061-.386,3.311,6.69.781A3.047,3.047,0,0,0,344.6,240.2c.008-.074.017-.147.019-.221" transform="translate(-132.12 -94.309)" fill="#435da1"/>
            <path id="Trazado_203081" data-name="Trazado 203081" d="M343.629,236.953c-.015.125-.267.2-.564.163s-.525-.164-.511-.289.267-.2.563-.163.526.164.511.289" transform="translate(-135.288 -93.465)" fill="#fafbfe"/>
            <path id="Trazado_203082" data-name="Trazado 203082" d="M345.516,236.573c-.01.083-.123.138-.254.123s-.229-.095-.219-.178.123-.138.254-.123.229.095.219.178" transform="translate(-136.271 -93.361)" fill="#fafbfe"/>
            <path id="Trazado_203083" data-name="Trazado 203083" d="M288.828,102.812a3.042,3.042,0,0,0-2.691-3.157l-6.69-.78-6.684-.779A3.046,3.046,0,0,0,270.4,103.4a2.979,2.979,0,0,0,1.662.748l6.683.779,6.69.781a3.047,3.047,0,0,0,3.379-2.679c.009-.074.017-.147.019-.221" transform="translate(-106.383 -38.734)" fill="#ed476f"/>
            <path id="Trazado_203084" data-name="Trazado 203084" d="M288.446,101.987a3.047,3.047,0,0,1-3.379,2.679l-13.374-1.559a2.979,2.979,0,0,1-1.662-.748,3.046,3.046,0,0,1,2.368-5.309l13.374,1.559a3.042,3.042,0,0,1,2.691,3.157c0,.074-.01.148-.019.221" transform="translate(-106.24 -38.32)" fill="#fafbfe"/>
            <path id="Trazado_203085" data-name="Trazado 203085" d="M289.118,103.877a3.047,3.047,0,0,1-3.379,2.679L272.366,105a2.979,2.979,0,0,1-1.662-.748,3.043,3.043,0,0,1,3.341-2.414l14.486,1.689a3.124,3.124,0,0,1,.606.131c0,.074-.01.148-.019.221" transform="translate(-106.912 -40.211)" fill="#f8cac9"/>
            <path id="Trazado_203086" data-name="Trazado 203086" d="M294.566,102.509a3.047,3.047,0,0,1-3.379,2.679l-6.69-.78.706-6.057,6.69.78a3.042,3.042,0,0,1,2.691,3.157c0,.074-.01.148-.019.221" transform="translate(-112.359 -38.843)" fill="#5e82e2"/>
            <path id="Trazado_203087" data-name="Trazado 203087" d="M294.585,104.08a3.084,3.084,0,0,0-.606-.131l-9.1-1.061L284.5,106.2l6.69.78a3.047,3.047,0,0,0,3.379-2.679c.008-.074.017-.147.019-.221" transform="translate(-112.359 -40.635)" fill="#435da1"/>
            <path id="Trazado_203088" data-name="Trazado 203088" d="M293.6,101.049c-.014.125-.267.2-.564.163s-.525-.164-.511-.289.267-.2.563-.163.526.164.511.289" transform="translate(-115.528 -39.791)" fill="#fafbfe"/>
            <path id="Trazado_203089" data-name="Trazado 203089" d="M295.482,100.669c-.01.083-.123.138-.254.123s-.229-.1-.219-.178.123-.138.254-.123.229.095.219.178" transform="translate(-116.511 -39.687)" fill="#fafbfe"/>
            <path id="Trazado_203090" data-name="Trazado 203090" d="M285.088,134.894a3.042,3.042,0,0,0-2.691-3.157l-6.69-.78-6.684-.779a3.046,3.046,0,0,0-2.368,5.309,2.979,2.979,0,0,0,1.662.748l6.683.779,6.69.781a3.048,3.048,0,0,0,3.379-2.679c.008-.073.017-.147.019-.221" transform="translate(-104.906 -51.404)" fill="#ed476f"/>
            <path id="Trazado_203091" data-name="Trazado 203091" d="M284.7,134.068a3.047,3.047,0,0,1-3.379,2.679l-13.374-1.559a2.975,2.975,0,0,1-1.662-.748,3.046,3.046,0,0,1,2.368-5.309l13.374,1.559a3.042,3.042,0,0,1,2.691,3.157c0,.074-.01.148-.019.221" transform="translate(-104.762 -50.991)" fill="#fafbfe"/>
            <path id="Trazado_203092" data-name="Trazado 203092" d="M285.377,135.958A3.047,3.047,0,0,1,282,138.637l-13.374-1.559a2.975,2.975,0,0,1-1.662-.748,3.042,3.042,0,0,1,3.341-2.413l14.486,1.689a3.124,3.124,0,0,1,.606.131c0,.074-.01.148-.019.221" transform="translate(-105.434 -52.881)" fill="#f8cac9"/>
            <path id="Trazado_203093" data-name="Trazado 203093" d="M290.825,134.59a3.047,3.047,0,0,1-3.379,2.679l-6.69-.78.706-6.057,6.69.78a3.042,3.042,0,0,1,2.691,3.157c0,.074-.01.148-.019.221" transform="translate(-110.882 -51.513)" fill="#5e82e2"/>
            <path id="Trazado_203094" data-name="Trazado 203094" d="M290.844,136.161a3.127,3.127,0,0,0-.606-.131l-9.1-1.061-.386,3.312,6.69.781a3.047,3.047,0,0,0,3.379-2.679c.008-.073.017-.147.019-.221" transform="translate(-110.882 -53.305)" fill="#435da1"/>
            <path id="Trazado_203095" data-name="Trazado 203095" d="M289.855,133.131c-.015.125-.267.2-.563.163s-.526-.163-.511-.288.267-.2.563-.163.526.164.511.289" transform="translate(-114.051 -52.461)" fill="#fafbfe"/>
            <path id="Trazado_203096" data-name="Trazado 203096" d="M291.741,132.751c-.01.083-.123.138-.254.123s-.228-.1-.218-.178.123-.138.254-.123.229.095.219.178" transform="translate(-115.033 -52.358)" fill="#fafbfe"/>
            <path id="Trazado_203097" data-name="Trazado 203097" d="M281.347,166.975a3.042,3.042,0,0,0-2.691-3.157l-6.69-.78-6.683-.779a3.046,3.046,0,0,0-2.368,5.309,2.974,2.974,0,0,0,1.662.747l6.683.779,6.69.78a3.046,3.046,0,0,0,3.379-2.679c.008-.074.017-.147.019-.221" transform="translate(-103.428 -64.074)" fill="#ed476f"/>
            <path id="Trazado_203098" data-name="Trazado 203098" d="M280.964,166.149a3.045,3.045,0,0,1-3.379,2.68l-13.374-1.559a2.972,2.972,0,0,1-1.662-.748,3.046,3.046,0,0,1,2.368-5.309l13.374,1.559a3.044,3.044,0,0,1,2.692,3.157c0,.074-.011.148-.019.22" transform="translate(-103.285 -63.661)" fill="#fafbfe"/>
            <path id="Trazado_203099" data-name="Trazado 203099" d="M281.636,168.04a3.045,3.045,0,0,1-3.379,2.68l-13.374-1.559a2.972,2.972,0,0,1-1.662-.748A3.042,3.042,0,0,1,266.563,166l14.486,1.689a3.135,3.135,0,0,1,.606.131c0,.074-.011.148-.019.22" transform="translate(-103.957 -65.552)" fill="#f8cac9"/>
            <path id="Trazado_203100" data-name="Trazado 203100" d="M287.084,166.671a3.045,3.045,0,0,1-3.379,2.68l-6.69-.78.707-6.057,6.69.78a3.044,3.044,0,0,1,2.692,3.157c0,.074-.011.148-.019.22" transform="translate(-109.404 -64.183)" fill="#5e82e2"/>
            <path id="Trazado_203101" data-name="Trazado 203101" d="M287.1,168.243a3.082,3.082,0,0,0-.606-.131l-9.1-1.061-.386,3.312,6.69.781a3.047,3.047,0,0,0,3.378-2.679c.009-.074.018-.147.019-.221" transform="translate(-109.405 -65.975)" fill="#435da1"/>
            <path id="Trazado_203102" data-name="Trazado 203102" d="M286.114,165.212c-.015.125-.267.2-.564.163s-.525-.164-.511-.289.267-.2.563-.163.526.164.511.289" transform="translate(-112.573 -65.132)" fill="#fafbfe"/>
            <path id="Trazado_203103" data-name="Trazado 203103" d="M288,164.832c-.01.083-.123.138-.254.123s-.229-.095-.219-.178.123-.138.254-.123.229.095.219.178" transform="translate(-113.556 -65.028)" fill="#fafbfe"/>
            <path id="Trazado_203104" data-name="Trazado 203104" d="M277.606,199.056a3.042,3.042,0,0,0-2.691-3.157l-6.69-.78-6.683-.779a3.046,3.046,0,0,0-2.368,5.309,2.979,2.979,0,0,0,1.662.748l6.684.779,6.69.781a3.047,3.047,0,0,0,3.379-2.679c.009-.073.017-.147.019-.221" transform="translate(-101.951 -76.744)" fill="#ed476f"/>
            <path id="Trazado_203105" data-name="Trazado 203105" d="M277.224,198.231a3.047,3.047,0,0,1-3.379,2.679l-13.374-1.559a2.974,2.974,0,0,1-1.662-.748,3.046,3.046,0,0,1,2.368-5.309l13.374,1.559a3.042,3.042,0,0,1,2.691,3.157c0,.074-.01.148-.019.221" transform="translate(-101.808 -76.331)" fill="#fafbfe"/>
            <path id="Trazado_203106" data-name="Trazado 203106" d="M277.9,200.121a3.047,3.047,0,0,1-3.379,2.679l-13.374-1.559a2.975,2.975,0,0,1-1.662-.748,3.042,3.042,0,0,1,3.341-2.413l14.486,1.689a3.124,3.124,0,0,1,.606.131c0,.074-.01.148-.019.221" transform="translate(-102.48 -78.222)" fill="#f8cac9"/>
            <path id="Trazado_203107" data-name="Trazado 203107" d="M283.344,198.753a3.047,3.047,0,0,1-3.379,2.679l-6.69-.78.706-6.057,6.69.78a3.042,3.042,0,0,1,2.691,3.157c0,.074-.01.148-.019.221" transform="translate(-107.927 -76.853)" fill="#5e82e2"/>
            <path id="Trazado_203108" data-name="Trazado 203108" d="M283.363,200.324a3.083,3.083,0,0,0-.606-.131l-9.1-1.061-.386,3.311,6.69.78a3.047,3.047,0,0,0,3.379-2.679c.008-.074.017-.147.019-.221" transform="translate(-107.927 -78.645)" fill="#435da1"/>
            <path id="Trazado_203109" data-name="Trazado 203109" d="M282.374,197.294c-.014.125-.267.2-.563.163s-.526-.163-.511-.288.267-.2.563-.163.526.164.511.289" transform="translate(-111.096 -77.802)" fill="#fafbfe"/>
            <path id="Trazado_203110" data-name="Trazado 203110" d="M284.26,196.914c-.01.083-.123.138-.254.123s-.228-.1-.218-.178.123-.138.254-.123.229.1.219.178" transform="translate(-112.079 -77.698)" fill="#fafbfe"/>
            <path id="Trazado_203111" data-name="Trazado 203111" d="M273.866,231.138a3.042,3.042,0,0,0-2.691-3.157l-6.69-.78-6.684-.779a3.046,3.046,0,0,0-2.368,5.309,2.974,2.974,0,0,0,1.662.747l6.684.779,6.69.78a3.047,3.047,0,0,0,3.379-2.679c.008-.074.017-.147.019-.221" transform="translate(-100.474 -89.415)" fill="#ed476f"/>
            <path id="Trazado_203112" data-name="Trazado 203112" d="M273.483,230.312a3.046,3.046,0,0,1-3.379,2.679l-13.374-1.559a2.971,2.971,0,0,1-1.662-.748,3.046,3.046,0,0,1,2.368-5.309l13.374,1.559a3.042,3.042,0,0,1,2.691,3.157c0,.074-.01.148-.019.221" transform="translate(-100.33 -89.001)" fill="#fafbfe"/>
            <path id="Trazado_203113" data-name="Trazado 203113" d="M274.155,232.2a3.046,3.046,0,0,1-3.379,2.679L257.4,233.322a2.971,2.971,0,0,1-1.662-.748,3.042,3.042,0,0,1,3.341-2.413l14.486,1.689a3.124,3.124,0,0,1,.606.131c0,.074-.01.148-.019.221" transform="translate(-101.002 -90.892)" fill="#f8cac9"/>
            <path id="Trazado_203114" data-name="Trazado 203114" d="M279.6,230.834a3.045,3.045,0,0,1-3.379,2.679l-6.69-.78.706-6.057,6.69.78a3.042,3.042,0,0,1,2.691,3.157c0,.074-.01.148-.019.221" transform="translate(-106.45 -89.524)" fill="#5e82e2"/>
            <path id="Trazado_203115" data-name="Trazado 203115" d="M279.623,232.406a3.084,3.084,0,0,0-.606-.131l-9.1-1.061-.386,3.312,6.69.78a3.048,3.048,0,0,0,3.379-2.679c.008-.073.017-.147.019-.221" transform="translate(-106.45 -91.316)" fill="#435da1"/>
            <path id="Trazado_203116" data-name="Trazado 203116" d="M278.633,229.375c-.015.125-.267.2-.564.163s-.525-.163-.511-.288.267-.2.563-.163.526.164.511.289" transform="translate(-109.619 -90.472)" fill="#fafbfe"/>
            <path id="Trazado_203117" data-name="Trazado 203117" d="M280.52,229c-.01.083-.123.138-.254.123s-.229-.095-.219-.178.123-.138.254-.123.229.1.219.178" transform="translate(-110.601 -90.368)" fill="#fafbfe"/>
            <g id="Grupo_163070" data-name="Grupo 163070" transform="translate(182.381 88.004)" style="mix-blend-mode: multiply;isolation: isolate">
              <g id="Grupo_163069" data-name="Grupo 163069">
                <g id="Grupo_163068" data-name="Grupo 163068" clip-path="url(#clip-path-3)">
                  <path id="Trazado_203118" data-name="Trazado 203118" d="M329.22,223.756l-14.584-1.7-13.209-1.543.007-.571.087-7.795v-.188L302,169.464l.269-24.017,4.347,12.638.9,2.6.221.651.845,2.455.315.912,5.615,16.315.215.63.765,2.221.241.7h.007l.215.637,4.75,13.8.215.63.785,2.26.1.3v.007l1.02,2.965.08.228.221.63,2.824,8.211Z" transform="translate(-301.426 -145.447)" fill="#ffcfe6"/>
                </g>
              </g>
            </g>
            <path id="Trazado_203119" data-name="Trazado 203119" d="M85.325,222.492H54.466l10.063-94.105Z" transform="translate(-21.511 -50.705)" fill="#5e82e2"/>
            <path id="Trazado_203120" data-name="Trazado 203120" d="M89.909,222.492H66.074l3.039-94.105Z" transform="translate(-26.095 -50.705)" fill="#435da1"/>
            <path id="Trazado_203121" data-name="Trazado 203121" d="M223.984,228.239H78.476L71.1,128.386l49.5,4.059,2.69.223,27.908,2.284,2.7.223,27.424,2.248,2.71.223,27.277,2.234Z" transform="translate(-28.079 -50.705)" fill="#fafbfe"/>
            <g id="Grupo_163073" data-name="Grupo 163073" transform="translate(90.776 81.74)" style="mix-blend-mode: multiply;isolation: isolate">
              <g id="Grupo_163072" data-name="Grupo 163072">
                <g id="Grupo_163071" data-name="Grupo 163071" clip-path="url(#clip-path-4)">
                  <path id="Trazado_203122" data-name="Trazado 203122" d="M154.476,135.7a14.707,14.707,0,0,1-.309,3,12.469,12.469,0,0,1-1.7,4.152,1.325,1.325,0,0,1-1.1.611,1.3,1.3,0,0,1-.772-.258,1.514,1.514,0,0,1-.329-2,8.859,8.859,0,0,0,1.214-2.895,10.765,10.765,0,0,0,.309-2.608c0-.208-.007-.41-.02-.611l2.69.223a3.777,3.777,0,0,1,.013.388" transform="translate(-150.029 -135.094)" fill="#ffe0ef"/>
                </g>
              </g>
            </g>
            <g id="Grupo_163076" data-name="Grupo 163076" transform="translate(151.522 86.718)" style="mix-blend-mode: multiply;isolation: isolate">
              <g id="Grupo_163075" data-name="Grupo 163075">
                <g id="Grupo_163074" data-name="Grupo 163074" clip-path="url(#clip-path-5)">
                  <path id="Trazado_203123" data-name="Trazado 203123" d="M254.872,144.328a13.164,13.164,0,0,1-2.006,7.148,1.325,1.325,0,0,1-1.1.611,1.3,1.3,0,0,1-.771-.258,1.512,1.512,0,0,1-.329-2,10.066,10.066,0,0,0,1.523-5.5,9.783,9.783,0,0,0-.047-1.006l2.711.223c.013.258.02.517.02.783" transform="translate(-250.425 -143.322)" fill="#ffe0ef"/>
                </g>
              </g>
            </g>
            <g id="Grupo_163079" data-name="Grupo 163079" transform="translate(121.379 84.247)" style="mix-blend-mode: multiply;isolation: isolate">
              <g id="Grupo_163078" data-name="Grupo 163078">
                <g id="Grupo_163077" data-name="Grupo 163077" clip-path="url(#clip-path-6)">
                  <path id="Trazado_203124" data-name="Trazado 203124" d="M205.056,140.028a13.856,13.856,0,0,1-.813,4.712,11.074,11.074,0,0,1-1.2,2.435,1.287,1.287,0,0,1-1.093.611,1.251,1.251,0,0,1-.771-.258,1.5,1.5,0,0,1-.329-2,8.667,8.667,0,0,0,.644-1.192,10.656,10.656,0,0,0,.879-4.31c0-.266-.007-.531-.027-.79l2.7.223c.007.187.013.381.013.568" transform="translate(-200.606 -139.238)" fill="#ffe0ef"/>
                </g>
              </g>
            </g>
            <path id="Trazado_203125" data-name="Trazado 203125" d="M124.034,227.713a.346.346,0,0,1-.333-.324l-6.861-74.765a.355.355,0,0,1,.3-.393.346.346,0,0,1,.367.323l6.86,74.765a.355.355,0,0,1-.3.393h-.033" transform="translate(-46.144 -60.122)" fill="#aebce2"/>
            <path id="Trazado_203126" data-name="Trazado 203126" d="M175.236,230.8a.345.345,0,0,1-.333-.318l-7.71-71.5a.354.354,0,0,1,.295-.4.342.342,0,0,1,.372.315l7.71,71.5a.356.356,0,0,1-.295.4l-.039,0" transform="translate(-66.03 -62.631)" fill="#aebce2"/>
            <path id="Trazado_203127" data-name="Trazado 203127" d="M223.96,233.678a.344.344,0,0,1-.332-.312L215.059,164.8a.355.355,0,0,1,.287-.4.344.344,0,0,1,.377.309l8.569,68.571a.355.355,0,0,1-.287.4.23.23,0,0,1-.045,0" transform="translate(-84.934 -64.923)" fill="#aebce2"/>
            <path id="Trazado_203128" data-name="Trazado 203128" d="M271.486,235.365a.344.344,0,0,1-.331-.3L261.046,167.6a.358.358,0,0,1,.278-.411.341.341,0,0,1,.385.3l10.109,67.459a.358.358,0,0,1-.278.411.323.323,0,0,1-.054,0" transform="translate(-103.096 -66.029)" fill="#aebce2"/>
            <path id="Trazado_203129" data-name="Trazado 203129" d="M213.366,178.953h-.021L103.6,171.838a.351.351,0,0,1-.314-.38.341.341,0,0,1,.355-.337l109.742,7.114a.351.351,0,0,1,.314.38.346.346,0,0,1-.334.338" transform="translate(-40.793 -67.582)" fill="#aebce2"/>
            <path id="Trazado_203130" data-name="Trazado 203130" d="M224.222,260.049h0l-110.906-.484a.36.36,0,0,1,0-.718h0l110.907.484a.36.36,0,0,1,0,.718" transform="translate(-44.62 -102.229)" fill="#aebce2"/>
            <path id="Trazado_203131" data-name="Trazado 203131" d="M216.7,204.249h-.015l-109.823-5.363a.35.35,0,0,1-.32-.375.335.335,0,0,1,.35-.342l109.823,5.363a.36.36,0,0,1-.015.718" transform="translate(-42.078 -78.264)" fill="#aebce2"/>
            <path id="Trazado_203132" data-name="Trazado 203132" d="M220.612,233.093H220.6l-109.693-2.652a.35.35,0,0,1-.328-.367.358.358,0,0,1,.344-.351l109.693,2.652a.36.36,0,0,1-.008.718" transform="translate(-43.674 -90.727)" fill="#aebce2"/>
            <path id="Trazado_203133" data-name="Trazado 203133" d="M150.986,146.294a2.165,2.165,0,1,1-2.1-2.677,2.443,2.443,0,0,1,2.1,2.677" transform="translate(-57.969 -56.72)" fill="#435da1"/>
            <path id="Trazado_203134" data-name="Trazado 203134" d="M201.068,150.734a2.165,2.165,0,1,1-2.1-2.677,2.443,2.443,0,0,1,2.1,2.677" transform="translate(-77.749 -58.474)" fill="#435da1"/>
            <path id="Trazado_203135" data-name="Trazado 203135" d="M251.149,155.175a2.165,2.165,0,1,1-2.1-2.677,2.443,2.443,0,0,1,2.1,2.677" transform="translate(-97.528 -60.228)" fill="#435da1"/>
            <path id="Trazado_203136" data-name="Trazado 203136" d="M144.827,129a14.709,14.709,0,0,1-.309,3,12.47,12.47,0,0,1-1.7,4.152,1.325,1.325,0,0,1-1.1.61,1.3,1.3,0,0,1-.772-.258,1.514,1.514,0,0,1-.329-2,8.859,8.859,0,0,0,1.214-2.895,10.765,10.765,0,0,0,.309-2.608c0-.237-.007-.474-.02-.7a10.944,10.944,0,0,0-.5-2.68c-.872-2.723-2.784-4.619-4.991-4.619-2.039,0-3.831,1.616-4.776,4.03a10.4,10.4,0,0,0-.617,2.371l-2.683-.215a13.6,13.6,0,0,1,.5-2.32c1.221-3.972,4.166-6.738,7.581-6.738,3.683,0,6.8,3.233,7.829,7.665a14.273,14.273,0,0,1,.356,2.723c.013.165.013.323.013.488" transform="translate(-50.77 -46.654)" fill="#c4c3d3"/>
            <path id="Trazado_203137" data-name="Trazado 203137" d="M140.005,119.519c0,.243-.261.44-.585.44s-.584-.2-.584-.44.261-.44.584-.44.585.2.585.44" transform="translate(-54.832 -47.029)" fill="#fafbfe"/>
            <path id="Trazado_203138" data-name="Trazado 203138" d="M245.018,137.88a13.164,13.164,0,0,1-2.006,7.148,1.324,1.324,0,0,1-1.1.611,1.3,1.3,0,0,1-.772-.258,1.513,1.513,0,0,1-.329-2,10.066,10.066,0,0,0,1.523-5.5c0-.381-.02-.747-.054-1.113-.368-3.894-2.676-6.9-5.454-6.9a4.832,4.832,0,0,0-3.918,2.378,9.33,9.33,0,0,0-1.422,3.635l-2.683-.223a12.865,12.865,0,0,1,1.093-3.592c1.449-3.06,4.012-5.072,6.93-5.072,4.287,0,7.822,4.4,8.165,9.993.02.295.027.589.027.891" transform="translate(-90.364 -50.156)" fill="#c4c3d3"/>
            <path id="Trazado_203139" data-name="Trazado 203139" d="M241.292,128.159c0,.192-.213.347-.476.347s-.476-.156-.476-.347.214-.347.476-.347.476.156.476.347" transform="translate(-94.92 -50.478)" fill="#fafbfe"/>
            <path id="Trazado_203140" data-name="Trazado 203140" d="M194.926,133.44a13.871,13.871,0,0,1-.811,4.712,11.1,11.1,0,0,1-1.2,2.435,1.287,1.287,0,0,1-1.093.611,1.251,1.251,0,0,1-.771-.258,1.5,1.5,0,0,1-.329-2,8.6,8.6,0,0,0,.644-1.192,10.656,10.656,0,0,0,.879-4.31c0-.309-.013-.611-.033-.912a10.66,10.66,0,0,0-.812-3.341c-.98-2.256-2.71-3.757-4.669-3.757-1.8,0-3.4,1.257-4.407,3.2a10.042,10.042,0,0,0-.953,3l-2.689-.215a13.251,13.251,0,0,1,.758-2.96c1.362-3.527,4.119-5.9,7.292-5.9,3.435,0,6.386,2.823,7.594,6.8a13.453,13.453,0,0,1,.584,3.391q.02.345.02.69" transform="translate(-70.567 -48.403)" fill="#c4c3d3"/>
            <path id="Trazado_203141" data-name="Trazado 203141" d="M191.238,123.881c0,.263-.3.476-.664.476s-.664-.213-.664-.476.3-.476.664-.476.664.213.664.476" transform="translate(-75.004 -48.738)" fill="#fafbfe"/>
            <path id="Trazado_203142" data-name="Trazado 203142" d="M194.009,123.626c0,.122-.165.221-.368.221s-.368-.1-.368-.221.165-.221.368-.221.368.1.368.221" transform="translate(-76.331 -48.738)" fill="#fafbfe"/>
            <path id="Trazado_203143" data-name="Trazado 203143" d="M146.777,177.265c-.16-.183-.475.064-.331.273,1.516,2.213,2.357,4.8.736,7.235a7.492,7.492,0,0,1-6.672,3.082,22.219,22.219,0,0,1-3.99-.572,8.673,8.673,0,0,1-3.819-1.46c-2.474-2.016-.528-5.07,1.421-6.569a10.7,10.7,0,0,1,3.593-1.8,6.539,6.539,0,0,1,4.175.316c.512.186.832-.542.5-.923-2.13-2.461-6.277-1.022-8.526.452-2.495,1.635-5.345,4.95-3.675,8.267,1.568,3.112,5.787,3.753,8.75,3.967,3.158.227,6.5-.495,8.576-3.264a6.907,6.907,0,0,0,1.466-4.363,7.605,7.605,0,0,0-2.206-4.643" transform="translate(-51.22 -69.32)" fill="#ed476f"/>
            <path id="Trazado_203144" data-name="Trazado 203144" d="M197.294,181.563c-.142-.136-.405.047-.28.231a5.525,5.525,0,0,1-1.609,7.571c-2.334,1.711-5.685,1.931-8.4,1.3-2.34-.543-5.179-3.032-3.968-5.905a4.132,4.132,0,0,1,2.543-2.227,6.686,6.686,0,0,1,2.21-.292c.72.029,1.415.237,2.132.269a.439.439,0,0,0,.284-.735,5.861,5.861,0,0,0-7.569.248,5.6,5.6,0,0,0-.648,7.382c1.689,2.457,4.81,3.141,7.51,2.981,2.726-.162,5.724-.875,7.626-3.14,1.774-2.113,2.3-5.64.165-7.685" transform="translate(-71.448 -71.29)" fill="#ed476f"/>
            <path id="Trazado_203145" data-name="Trazado 203145" d="M244.195,188.69a7.45,7.45,0,0,0-1.626-3.843c-.183-.235-.467.064-.367.3a14.856,14.856,0,0,1,1.208,3.063,3.409,3.409,0,0,1-.911,2.95,7.866,7.866,0,0,1-5.012,2.654c-3.106.247-8.07-2.888-5.536-6.645a3.97,3.97,0,0,1,2.432-1.663,9.661,9.661,0,0,1,3.186.037c.326.027.351-.419.148-.586-1.8-1.485-4.759-.995-6.363.566a5.253,5.253,0,0,0-.855,6.3,7.522,7.522,0,0,0,5.979,3.362,8.339,8.339,0,0,0,6.348-3.06,4.454,4.454,0,0,0,1.368-3.432" transform="translate(-90.764 -72.695)" fill="#ed476f"/>
            <path id="Trazado_203146" data-name="Trazado 203146" d="M129.048,129.265l2.8.165a10.4,10.4,0,0,0-.617,2.371l-2.684-.215a13.643,13.643,0,0,1,.5-2.32" transform="translate(-50.77 -51.052)" fill="#8684a5"/>
            <path id="Trazado_203147" data-name="Trazado 203147" d="M179.435,132.316l2.885.172a10.03,10.03,0,0,0-.953,3l-2.69-.215a13.25,13.25,0,0,1,.758-2.96" transform="translate(-70.567 -52.257)" fill="#8684a5"/>
            <path id="Trazado_203148" data-name="Trazado 203148" d="M232.909,135.559a9.338,9.338,0,0,0-1.423,3.635l-2.683-.223a12.89,12.89,0,0,1,1.094-3.592Z" transform="translate(-90.364 -53.467)" fill="#8684a5"/>
            <g id="Grupo_163082" data-name="Grupo 163082" transform="translate(60.158 152.91)" style="mix-blend-mode: multiply;isolation: isolate">
              <g id="Grupo_163081" data-name="Grupo 163081">
                <g id="Grupo_163080" data-name="Grupo 163080" clip-path="url(#clip-path-7)">
                  <path id="Trazado_203149" data-name="Trazado 203149" d="M122.683,277.343H99.425L110,252.719Z" transform="translate(-99.425 -252.719)" fill="#ffe0ef"/>
                </g>
              </g>
            </g>
            <path id="Trazado_203150" data-name="Trazado 203150" d="M104.768,325.5c0,3.9-19.567,7.069-43.7,7.069s-43.7-3.165-43.7-7.069,19.566-7.07,43.7-7.07,43.7,3.165,43.7,7.07" transform="translate(-6.857 -125.762)" fill="#c0cbe7"/>
            <path id="Trazado_203151" data-name="Trazado 203151" d="M48.35,245.925l2.51-2.6.833,2.662,2.371-2.427,1.384,2.708,2.25-2.587,1.9,2.912,2.424-2.748,1.71,3.008,2.7-2.835,1.277,3.094,2.792-2.921,1.342,3.224,3.246-3.051,1.666,3.419,3.008-3.333,1.515,3.592,2.726-3.246,1.883,3.485,3.138-3.485,2.077,4.068-14.023,1.558Z" transform="translate(-19.095 -96.1)" fill="#ed476f"/>
            <path id="Trazado_203152" data-name="Trazado 203152" d="M25.173,320.036l.527,2.65,1.724-1.325,1.22,2.014,2.177-1.522,1.47,2.375,2.317-1.389,1.377,2.253L38.5,323.6l.975,2.306,3.007-1.682,1.389,2.711,2.68-2,2.167,3.134,2.507-2.325,2.337,3.459,3.116-2.42,1.645,3.534,2.77-2.5,2.06,3.626,3.394-3.626-37.308-10.82Z" transform="translate(-9.942 -125.199)" fill="#ed476f"/>
            <path id="Trazado_203153" data-name="Trazado 203153" d="M81.96,250.562l-1.282,4.146L66.551,300.42l-36.4-6.85-4.978-.939,14.021-45.014Z" transform="translate(-9.942 -97.794)" fill="#ed476f"/>
            <path id="Trazado_203154" data-name="Trazado 203154" d="M81.3,260.417,68.712,301.13a2.416,2.416,0,0,1-2.768,1.659l-27.917-5.4a3.581,3.581,0,0,1-2.757-4.584l10.752-34.533a4.09,4.09,0,0,1,4.18-2.858l28.941,1.874a2.417,2.417,0,0,1,2.153,3.126" transform="translate(-13.865 -100.871)" fill="#f17694"/>
            <path id="Trazado_203155" data-name="Trazado 203155" d="M76.411,284.1c-2.775,8.363-10.67,13.269-17.633,10.958S48.421,284.091,51.2,275.728s10.67-13.269,17.633-10.958,10.357,10.964,7.582,19.327" transform="translate(-19.837 -104.343)" fill="#ed476f"/>
            <path id="Trazado_203156" data-name="Trazado 203156" d="M86.189,252.849c-13.59-1.385-38.52-2.51-38.52-2.51L41.8,271.027c4.025-10.777,5.389-18.5,5.973-19.476a2.283,2.283,0,0,1,.757-.563,27.33,27.33,0,0,1,5.386,0h0c11.635.946,32.27,1.861,32.27,1.861" transform="translate(-16.51 -98.869)" fill="#fafbfe"/>
            <path id="Trazado_203157" data-name="Trazado 203157" d="M34.508,321.337c6.125.771,13.672,1.966,20.038,3.019l-.114.5c-10.419-1.63-19.925-3.515-19.925-3.515" transform="translate(-13.629 -126.909)" fill="#fafbfe"/>
            <path id="Trazado_203158" data-name="Trazado 203158" d="M69.458,326.648c.65.107,1.282.215,1.9.322l-.1.443h-.007c-.637-.094-1.274-.188-1.905-.289Z" transform="translate(-27.387 -129.007)" fill="#fafbfe"/>
            <path id="Trazado_203159" data-name="Trazado 203159" d="M84.209,329.19c-2.6-.268-5.4-.624-8.245-1.026l.094-.4c4.555.771,7.768,1.355,8.151,1.422" transform="translate(-30.001 -129.449)" fill="#fafbfe"/>
            <path id="Trazado_203160" data-name="Trazado 203160" d="M74.754,282.44c-2.775,8.362-10.67,13.269-17.633,10.958s-10.357-10.964-7.582-19.326,10.67-13.269,17.633-10.958,10.357,10.964,7.582,19.327" transform="translate(-19.183 -103.688)" fill="#f599af"/>
            <path id="Trazado_203161" data-name="Trazado 203161" d="M73.166,285.014c-1.6,4.819-6.148,7.646-10.16,6.314s-5.968-6.317-4.369-11.135,6.148-7.646,10.16-6.314,5.968,6.317,4.369,11.136" transform="translate(-22.938 -108.035)" fill="#f17694"/>
            <path id="Trazado_203162" data-name="Trazado 203162" d="M59.7,281.254c1.6-4.819,6.148-7.646,10.16-6.314a6.491,6.491,0,0,1,2.012,1.1,6.632,6.632,0,0,0-3.076-2.159c-4.012-1.332-8.561,1.5-10.16,6.314-1.3,3.924-.246,7.957,2.357,10.04a9.572,9.572,0,0,1-1.294-8.977" transform="translate(-22.938 -108.035)" fill="#ed476f"/>
            <path id="Trazado_203163" data-name="Trazado 203163" d="M74.275,272.285c2.766,3.323,3.7,8.476,2.032,13.515-2.388,7.194-9.179,11.414-15.169,9.426a9.749,9.749,0,0,1-3.775-2.329,9.862,9.862,0,0,0,4.49,3.111c5.989,1.988,12.781-2.232,15.168-9.426,1.81-5.452.566-11.041-2.746-14.3" transform="translate(-22.655 -107.536)" fill="#fafbfe"/>
            <path id="Trazado_203164" data-name="Trazado 203164" d="M64.314,279.1a1.071,1.071,0,1,1-1.071-1.071,1.071,1.071,0,0,1,1.071,1.071" transform="translate(-24.554 -109.806)" fill="#fafbfe"/>
            <path id="Trazado_203165" data-name="Trazado 203165" d="M66.87,283.867a.579.579,0,1,1-.579-.579.579.579,0,0,1,.579.579" transform="translate(-25.952 -111.882)" fill="#fafbfe"/>
            <path id="Trazado_203166" data-name="Trazado 203166" d="M349.045,303.781c0,2.225-7.021,4.03-15.68,4.03s-15.68-1.8-15.68-4.03,7.02-4.03,15.68-4.03,15.68,1.8,15.68,4.03" transform="translate(-125.467 -118.384)" fill="#c0cbe7"/>
            <path id="Trazado_203167" data-name="Trazado 203167" d="M337.3,297.334a3.046,3.046,0,0,1-2.423,3.567l-13.228,2.511a2.974,2.974,0,0,1-1.809-.216,3.046,3.046,0,0,1,.672-5.775l13.228-2.511a3.042,3.042,0,0,1,3.512,2.208c.02.071.034.143.048.216" transform="translate(-125.604 -116.451)" fill="#fac8d4"/>
            <path id="Trazado_203168" data-name="Trazado 203168" d="M338.465,298.811a3.046,3.046,0,0,1-2.423,3.567l-13.228,2.511a2.974,2.974,0,0,1-1.809-.216,3.041,3.041,0,0,1,2.466-3.3l14.328-2.72a3.087,3.087,0,0,1,.618-.056c.02.071.034.143.048.216" transform="translate(-126.771 -117.927)" fill="#f17694"/>
            <path id="Trazado_203169" data-name="Trazado 203169" d="M343.23,297.334a3.046,3.046,0,0,1-2.423,3.567l-6.617,1.256-1.138-5.991,6.618-1.256a3.042,3.042,0,0,1,3.512,2.208c.02.071.034.143.048.216" transform="translate(-131.536 -116.451)" fill="#5e82e2"/>
            <path id="Trazado_203170" data-name="Trazado 203170" d="M343.517,298.595a3.135,3.135,0,0,0-.618.056l-9,1.708.622,3.276,6.618-1.256a3.047,3.047,0,0,0,2.423-3.567c-.014-.072-.027-.145-.048-.216" transform="translate(-131.872 -117.927)" fill="#435da1"/>
            <path id="Trazado_203171" data-name="Trazado 203171" d="M341.46,297.106c.024.123-.2.269-.489.324s-.551,0-.574-.123.2-.268.49-.324.55,0,.574.122" transform="translate(-134.436 -117.282)" fill="#fafbfe"/>
            <path id="Trazado_203172" data-name="Trazado 203172" d="M343.138,296.246c.016.082-.076.169-.206.193s-.246-.022-.262-.1.076-.169.206-.194.246.022.262.1" transform="translate(-135.333 -116.955)" fill="#fafbfe"/>
            <path id="Trazado_203173" data-name="Trazado 203173" d="M296.271,297.4c0,1.876-6,3.4-13.412,3.4s-13.411-1.521-13.411-3.4,6-3.4,13.411-3.4,13.412,1.521,13.412,3.4" transform="translate(-106.416 -116.115)" fill="#c0cbe7"/>
            <path id="Trazado_203174" data-name="Trazado 203174" d="M270.6,291.939a3.048,3.048,0,0,0,2.884,3.206l13.446.694a2.971,2.971,0,0,0,1.763-.46,3.046,3.046,0,0,0-1.449-5.63l-13.446-.694a3.042,3.042,0,0,0-3.181,2.663c-.01.073-.014.147-.018.221" transform="translate(-106.869 -114.158)" fill="#fac8d4"/>
            <path id="Trazado_203175" data-name="Trazado 203175" d="M270.6,293.658a3.048,3.048,0,0,0,2.884,3.206l13.446.694a2.971,2.971,0,0,0,1.763-.46,3.042,3.042,0,0,0-2.891-2.937l-14.565-.752a3.131,3.131,0,0,0-.62.028c-.01.073-.014.147-.018.221" transform="translate(-106.869 -115.877)" fill="#f17694"/>
            <path id="Trazado_203176" data-name="Trazado 203176" d="M270.6,291.939a3.048,3.048,0,0,0,2.884,3.206l6.726.347.315-6.09-6.726-.347a3.042,3.042,0,0,0-3.181,2.663c-.01.073-.014.147-.018.221" transform="translate(-106.869 -114.158)" fill="#5e82e2"/>
            <path id="Trazado_203177" data-name="Trazado 203177" d="M270.618,293.438a3.131,3.131,0,0,1,.62-.028l9.145.472-.172,3.33-6.726-.347a3.048,3.048,0,0,1-2.884-3.206c0-.074.008-.148.018-.221" transform="translate(-106.869 -115.877)" fill="#435da1"/>
            <path id="Trazado_203178" data-name="Trazado 203178" d="M278.011,290.91c-.007.125.23.24.529.255s.545-.074.552-.2-.23-.239-.529-.255-.545.074-.552.2" transform="translate(-109.798 -114.813)" fill="#fafbfe"/>
            <path id="Trazado_203179" data-name="Trazado 203179" d="M276.615,290.252c0,.083.1.157.23.163s.241-.055.246-.139-.1-.157-.23-.164-.241.056-.246.139" transform="translate(-109.246 -114.577)" fill="#fafbfe"/>
            <path id="Trazado_203180" data-name="Trazado 203180" d="M242.272,322.008c0,2.331-9.843,4.22-21.985,4.22s-21.986-1.889-21.986-4.22,9.844-4.22,21.986-4.22,21.985,1.889,21.985,4.22" transform="translate(-78.317 -125.507)" fill="#c0cbe7"/>
            <path id="Trazado_203181" data-name="Trazado 203181" d="M183.967,260.653c-3.538-.1-9.843,4.08-12.63,6.064a4.848,4.848,0,0,0-1.38,1.01s-.888,2.933,1.162,2.4c.98-.254,1.35-1.925,1.49-3.07,2.948-2.041,8.369-5.481,11.33-5.4,3.941.108,5.226,8.142,5.238,8.223l.995-.153c-.056-.365-1.429-8.944-6.205-9.075" transform="translate(-67.047 -102.942)" fill="#c4c3d3"/>
            <path id="Trazado_203182" data-name="Trazado 203182" d="M205.09,257.33c3.2-1.516,10.652-.234,14,.458a4.858,4.858,0,0,1,1.669.369s1.995,2.326-.095,2.666c-1,.162-2.011-1.217-2.6-2.209-3.521-.68-9.868-1.642-12.546-.375-3.563,1.688-1.5,9.557-1.479,9.636l-.972.261c-.1-.357-2.3-8.761,2.02-10.806" transform="translate(-79.945 -101.35)" fill="#c4c3d3"/>
            <path id="Trazado_203183" data-name="Trazado 203183" d="M209.152,298.9a1.277,1.277,0,0,1-.912.745l-1.744.362a1.3,1.3,0,0,1-1.543-1l-.1-.483-5.259-24.982A1.3,1.3,0,0,1,200.6,272l1.744-.362a1.3,1.3,0,0,1,1.536,1l5.36,25.466a1.288,1.288,0,0,1-.087.8" transform="translate(-78.816 -107.27)" fill="#f17694"/>
            <path id="Trazado_203184" data-name="Trazado 203184" d="M214.265,321.908a1.74,1.74,0,1,1-2.061-1.344,1.741,1.741,0,0,1,2.061,1.344" transform="translate(-83.262 -126.589)" fill="#ed476f"/>
            <path id="Trazado_203185" data-name="Trazado 203185" d="M213.517,321.952a1.28,1.28,0,1,1-1.516-.989,1.28,1.28,0,0,1,1.516.989" transform="translate(-83.326 -126.75)" fill="#f17694"/>
            <path id="Trazado_203186" data-name="Trazado 203186" d="M213.422,319.713a3.3,3.3,0,0,1-.584.335,2.38,2.38,0,0,1-1.8.161l-.4-1.878-.047-.215,2.382-.5Z" transform="translate(-83.174 -125.438)" fill="#ececf4"/>
            <path id="Trazado_203187" data-name="Trazado 203187" d="M213.422,319.713a3.3,3.3,0,0,1-.584.335l-.362-1.845s-1.248.074-1.832.128l-.047-.215,2.382-.5Z" transform="translate(-83.174 -125.438)" fill="#c4c3d3"/>
            <path id="Trazado_203188" data-name="Trazado 203188" d="M212.021,301.577a1.277,1.277,0,0,1-.912.745l-1.744.362a1.3,1.3,0,0,1-1.543-1l-.1-.483s.342-13.276-.892-22.816c0,0,4.113,18.187,5.193,23.191" transform="translate(-81.685 -109.946)" fill="#ed476f"/>
            <path id="Trazado_203189" data-name="Trazado 203189" d="M207.285,291.479l1.893,8.31-2.349-7.228Z" transform="translate(-81.685 -115.117)" fill="#f17694"/>
            <path id="Trazado_203190" data-name="Trazado 203190" d="M202.125,275.614a.457.457,0,1,1-.456-.456.456.456,0,0,1,.456.456" transform="translate(-79.467 -108.671)" fill="#fafbfe"/>
            <path id="Trazado_203191" data-name="Trazado 203191" d="M203.586,277.757a.273.273,0,1,1-.273-.273.272.272,0,0,1,.273.273" transform="translate(-80.189 -109.59)" fill="#fafbfe"/>
            <path id="Trazado_203192" data-name="Trazado 203192" d="M407.3,175.963a9.971,9.971,0,1,1-9.971-9.971,9.971,9.971,0,0,1,9.971,9.971" transform="translate(-152.985 -65.557)" fill="#cfdaff"/>
            <path id="Trazado_203193" data-name="Trazado 203193" d="M427.929,218.9a4.2,4.2,0,1,1-4.2-4.2,4.2,4.2,0,0,1,4.2,4.2" transform="translate(-165.687 -84.795)" fill="#cfdaff"/>
            <path id="Trazado_203194" data-name="Trazado 203194" d="M4.693,280.04a2.347,2.347,0,1,1-2.347-2.347,2.346,2.346,0,0,1,2.347,2.347" transform="translate(0 -109.672)" fill="#cfdaff"/>
            <path id="Trazado_203195" data-name="Trazado 203195" d="M22,235.879a5.776,5.776,0,1,1-5.775-5.775A5.775,5.775,0,0,1,22,235.879" transform="translate(-4.128 -90.877)" fill="#cfdaff"/>
            <path id="Trazado_203196" data-name="Trazado 203196" d="M151.893,309.326a5.738,5.738,0,1,1-5.738-5.738,5.738,5.738,0,0,1,5.738,5.738" transform="translate(-55.456 -119.899)" fill="#cfdaff"/>
            <path id="Trazado_203197" data-name="Trazado 203197" d="M219.322,102.875a2.133,2.133,0,1,1-2.133-2.133,2.133,2.133,0,0,1,2.133,2.133" transform="translate(-84.934 -39.787)" fill="#cfdaff"/>
            <path id="Trazado_203198" data-name="Trazado 203198" d="M177.21,49.417a5.023,5.023,0,1,1-5.023-5.023,5.023,5.023,0,0,1,5.023,5.023" transform="translate(-66.02 -17.533)" fill="#cfdaff"/>
            <path id="Trazado_203199" data-name="Trazado 203199" d="M258.1,311.338a2.251,2.251,0,1,1-2.251-2.251,2.251,2.251,0,0,1,2.251,2.251" transform="translate(-100.158 -122.071)" fill="#cfdaff"/>
            <path id="Trazado_203200" data-name="Trazado 203200" d="M294.584,319.043A5.044,5.044,0,1,1,289.54,314a5.044,5.044,0,0,1,5.044,5.044" transform="translate(-112.359 -124.011)" fill="#cfdaff"/>
            <path id="Trazado_203201" data-name="Trazado 203201" d="M399.685,302.807a2.868,2.868,0,1,1-2.868-2.868,2.868,2.868,0,0,1,2.868,2.868" transform="translate(-155.586 -118.458)" fill="#cfdaff"/>
            <path id="Trazado_203202" data-name="Trazado 203202" d="M91.414,108.168a5.252,5.252,0,1,1-5.251-5.251,5.252,5.252,0,0,1,5.251,5.251" transform="translate(-31.955 -40.646)" fill="#cfdaff"/>
          </g>
        </g>
      </g>
    </g>
  </g>
</svg>
