<svg xmlns="http://www.w3.org/2000/svg" xmlns:xlink="http://www.w3.org/1999/xlink" width="135" height="339" viewBox="0 0 135 339">
  <defs>
    <clipPath id="clip-path">
      <rect id="Rect치ngulo_48639" data-name="Rect치ngulo 48639" width="135" height="339" rx="18" transform="translate(1287 7207.315)" fill="#9f0f62"/>
    </clipPath>
    <clipPath id="clip-path-2">
      <rect id="Rect치ngulo_48638" data-name="Rect치ngulo 48638" width="157.365" height="287.393" fill="none"/>
    </clipPath>
  </defs>
  <g id="Enmascarar_grupo_48" data-name="Enmascarar grupo 48" transform="translate(-1287 -7207.315)" clip-path="url(#clip-path)">
    <g id="Grupo_163064" data-name="Grupo 163064" transform="translate(1293 7258.922)">
      <g id="Grupo_163062" data-name="Grupo 163062" clip-path="url(#clip-path-2)">
        <path id="Trazado_203006" data-name="Trazado 203006" d="M53.127,131.456c8.234,13.381,18.527,17.5,14.925,64.329-2.616,34-6.587,72.862-8.567,91.608h65.4c-4.063-20.407-11.925-64.373-11.542-97.269.514-44.259,20.586-97.781,29.334-114.249S162.744,54,154.509,45.512c-8.17-8.425-24.873,23.326-31.048,27.572S102.017,85.91,97.386,71.63,85.034,18.751,76.8,5.885c-4.983-7.786-7.829-6.5-9.128-3.764a7.146,7.146,0,0,0-.517,4.416c.3,1.54.734,3.812.824,4.393,1.361,8.826,9.46,63.732-.958,55.682C55.7,57.864,39.48,22.771,33.571,14.892c-3.088-4.117-12.351-4.374-10.808,4.374s33.966,63.3,28.82,60.727S14.53,41.91,9.126,40.881c-3.075-.586-14.667-.515-5.918,11.836S46.92,94.995,43.863,95.431C38.46,96.2,6.093,71.349,3.208,76.9,0,83.081,2.178,83.6,11.441,91.314s33.451,26.761,41.685,40.142" transform="translate(0 0)" fill="#fff"/>
        <path id="Trazado_203007" data-name="Trazado 203007" d="M125.488,210.124q-3.357,12.168-6.715,24.335c-1.911,6.927-4.978,24.677-15.776,19-6.261-3.295-12.045-10.2-16.007-15.876a65.125,65.125,0,0,1-9.535-20.869c-.525-2-3.628-1.152-3.1.855a67.855,67.855,0,0,0,11.973,24.5,65.966,65.966,0,0,0,9.383,9.848c2.095,1.778,4.6,4.117,7.306,5.412L87.979,259.65,33.493,309.123l26.951,26.693L115.5,278.83,113.5,255.711l-.67.1c3.065-2.8,5.108-7.379,6.262-10.757,3.792-11.109,6.379-22.764,9.5-34.078a1.61,1.61,0,0,0-3.1-.856m-18.679,55.563c-2.486-1.514-.132-5.369,2.35-3.857s.132,5.369-2.35,3.857" transform="translate(-9.432 -58.852)" fill="#ed1c24"/>
        <path id="Trazado_203008" data-name="Trazado 203008" d="M64.019,349.265l-.2-.2-17.768-17.6,45.836-42.458L108.82,305.2l-.208.2ZM46.87,331.477l17.151,16.991,43.987-43.262L91.882,289.782Z" transform="translate(-12.969 -81.386)" fill="#fff"/>
      </g>
    </g>
  </g>
</svg>
