<svg xmlns="http://www.w3.org/2000/svg" xmlns:xlink="http://www.w3.org/1999/xlink" width="131" height="339" viewBox="0 0 131 339">
  <defs>
    <clipPath id="clip-path">
      <rect id="Rectángulo_48635" data-name="Rectángulo 48635" width="131" height="339" rx="18" transform="translate(180 6720)" fill="#bc1e1e"/>
    </clipPath>
    <clipPath id="clip-path-2">
      <rect id="Rectángulo_48634" data-name="Rectángulo 48634" width="208.261" height="515.968" fill="#dee4f0"/>
    </clipPath>
    <clipPath id="clip-path-3">
      <rect id="Rectángulo_48633" data-name="Rectángulo 48633" width="208.261" height="515.968" fill="none"/>
    </clipPath>
    <clipPath id="clip-path-4">
      <rect id="Rectángulo_48632" data-name="Rectángulo 48632" width="30.365" height="9.416" fill="#5d845a"/>
    </clipPath>
  </defs>
  <g id="Enmascarar_grupo_47" data-name="Enmascarar grupo 47" transform="translate(-180 -6720)" clip-path="url(#clip-path)">
    <g id="Grupo_163061" data-name="Grupo 163061" transform="translate(102.739 6618.546)">
      <g id="Grupo_163060" data-name="Grupo 163060" clip-path="url(#clip-path-2)">
        <g id="Grupo_163059" data-name="Grupo 163059">
          <g id="Grupo_163058" data-name="Grupo 163058" clip-path="url(#clip-path-3)" style="isolation: isolate">
            <path id="Trazado_202997" data-name="Trazado 202997" d="M2.616,277.835c4.558-9.892,13.548-15.925,17.369-26.129,6.721-17.924,11.432-36.535,15.268-55.267,2.605-12.727,5.668-25.412,6.969-38.362,1.288-12.814.9-25.489,4-38.169,1.966-8.058,6.036-16.107,13.188-20.307.451-.265.9-.5,1.361-.732a51.449,51.449,0,0,1,3.778-23.286c-.008.009-.016.017-.022.025a18.166,18.166,0,0,0-3.053,6.63A17.244,17.244,0,0,1,65.2,73.2c.362-.484.734-.955,1.107-1.426,3.425-6.667,8.1-12.8,9.9-20.071.07-.284.122-.57.183-.856-.351-.949-.685-1.905-.991-2.869a9.082,9.082,0,0,1-.589-4.164A3.822,3.822,0,0,1,76.2,41.43c-.125.058-.251.1-.374.168-1.946-9.256-3.031-19.151.815-27.873S90.713-1.892,100.487.469c1.113.268,2.235.637,3.361.854,1.124-.217,2.246-.586,3.36-.854,9.774-2.361,20,4.535,23.847,13.256,3.808,8.637,2.78,18.424.871,27.6a3.792,3.792,0,0,1,1.531,2.486,9.052,9.052,0,0,1-.589,4.164c-.274.86-.576,1.71-.884,2.559.079.39.154.78.249,1.166.069.277.169.541.247.814,1.256,1.222,2.6,2.376,3.853,3.593,2.587,2.513,4.955,5.7,4.9,9.3a14.786,14.786,0,0,0-4.112-6.847,42.225,42.225,0,0,0-3.529-2.8c2.39,5.975,6.328,11.344,9.155,17.186a51.382,51.382,0,0,1,4.92,26c.4.2.8.415,1.192.648,7.153,4.2,11.222,12.249,13.188,20.307,3.095,12.68,2.707,25.355,4,38.169,1.3,12.95,4.364,25.636,6.97,38.362,3.834,18.733,8.546,37.343,15.266,55.267,3.821,10.2,12.811,16.237,17.368,26.129.467,1.014,3.285,5.8,2.47,6.557-2.651,2.475-6.578-3.844-7.776-5.478s-1.624-2.608-2.754-.926c2.713,7.023,3.251,12.78,4.529,20.2l.009.049a1.721,1.721,0,0,1-3.231,1.064l-5.72-11.213a.19.19,0,0,0-.36.093l.611,17.619a1.552,1.552,0,0,1-3.067.384l-3.676-17.368c-1.532,6.208-.112,11.906-1.882,16.585a1.294,1.294,0,0,1-2.485-.326l-1.974-15.919c-.006-.039-.059-.051-.065-.011-.491,3.078-2.159,10.614-3.261,13.274a1.433,1.433,0,0,1-2.763-.475c-.505-12.565-.426-28.549-2.053-41.543-1.4-11.185-6.643-24.237-10.338-34.8-4.369-12.487-6.62-18.552-8.035-31.707,0-.013-.006-.03-.007-.043-4.277-10.571-7.423-21.593-10.455-32.6.072.86.119,1.731.119,2.619,0,7.64-2.717,14.377-6.849,18.358-.623,14.39.676,19.754.958,26.646.378,9.227,6.392,14.916,10.109,23.371,11.168,25.4,7.719,52.173,3.845,73.156-2.719,14.737-5.1,29.533-6.625,44.442-1.275,12.454-3.009,25.063-1.882,37.58,1.264,14.06,1.694,25.728-.5,39.873-2.048,13.215-4.62,27.8-8.524,40.333-1.857,5.96-3.487,12.111-3.236,18.348.292,7.233,3.085,14.091,5.516,20.911.636,1.782,1.258,3.811-.971,5.385a6.239,6.239,0,0,1-2.863,1.027l-20.923,2.548c-1.791.218-3.757.411-4.94-1.84a6.011,6.011,0,0,1-.421-4.179l4.91-20.653c2.479-10.43,6.526-19.933,6.842-30.65.264-8.917-1.468-17.778-1.683-26.7-.292-12.134,2.221-24.179,2.345-36.315.107-10.622-1.614-21.166-3.331-31.65L104.131,295.9,93,363.859c-1.717,10.483-3.438,21.028-3.33,31.65.123,12.136,2.637,24.181,2.344,36.315-.215,8.918-1.946,17.779-1.683,26.7.317,10.717,4.363,20.22,6.842,30.65l4.91,20.653a6.011,6.011,0,0,1-.42,4.179c-1.184,2.251-3.15,2.058-4.94,1.84L75.8,513.3a6.239,6.239,0,0,1-2.863-1.027c-2.23-1.574-1.607-3.6-.971-5.385,2.431-6.82,5.224-13.678,5.516-20.911.251-6.238-1.378-12.389-3.235-18.348-3.9-12.532-6.477-27.118-8.525-40.333-2.191-14.146-1.762-25.813-.5-39.873,1.127-12.517-.607-25.126-1.882-37.58-1.526-14.909-3.9-29.7-6.625-44.442-3.874-20.982-7.323-47.753,3.846-73.156,3.716-8.454,9.73-14.143,10.108-23.371.282-6.892,1.581-12.256.958-26.646-4.133-3.981-6.849-10.718-6.849-18.358,0-.887.048-1.759.119-2.619-3.031,11.008-6.178,22.03-10.455,32.6,0,.013,0,.03-.006.043-1.417,13.155-3.668,19.22-8.036,31.707-3.7,10.564-8.935,23.617-10.338,34.8-1.626,12.993-1.547,28.978-2.051,41.543a1.434,1.434,0,0,1-2.765.475c-1.1-2.66-2.768-10.2-3.26-13.274-.007-.04-.06-.028-.065.011l-1.974,15.919a1.294,1.294,0,0,1-2.485.326c-1.77-4.679-.35-10.377-1.881-16.585l-3.678,17.368a1.552,1.552,0,0,1-3.067-.384l.611-17.619a.19.19,0,0,0-.36-.093L9.37,299.3a1.721,1.721,0,0,1-3.23-1.064l.008-.049c1.278-7.418,1.817-13.175,4.529-20.2-1.13-1.681-1.556-.707-2.755.926S2.8,286.866.147,284.392c-.815-.761,2-5.543,2.469-6.557M139.273,96.1c.357.086.712.172,1.07.263a51.316,51.316,0,0,0-3.1-19.2.853.853,0,0,0-.279-.378c.886,3.813,2.809,13.037,2.313,19.314m-8.217-2.426c.161.071.317.151.481.217a79.6,79.6,0,0,0-4.182-26.96c1.47,6.477,3.79,18.123,3.7,26.742m-8.619-8.589A18.83,18.83,0,0,0,125.07,89.3c0-.027.012-.052.006-.08a61.932,61.932,0,0,0-2.224-7.349,30.848,30.848,0,0,0-2.488-8.687l-.056.054a23.928,23.928,0,0,0,2.13,11.845m-36.612,0a23.927,23.927,0,0,0,2.13-11.845c-.335-.313-.661-.634-.984-.958a36.8,36.8,0,0,0-.651,5.771c-.39,1.968-.805,3.931-1.211,5.9q-.676,2.278-1.3,4.572a19.614,19.614,0,0,0,2.019-3.436m-7.771,8.2c-.022-10.09,3.129-24.1,4.374-29.226a.678.678,0,0,0-.483.42A79.281,79.281,0,0,0,76.9,93.818c.392-.163.775-.343,1.158-.531m-9.963,3.032c.38-.1.758-.186,1.135-.278-.482-6.307,1.454-15.549,2.331-19.313a.841.841,0,0,0-.361.435,51.3,51.3,0,0,0-3.1,19.156" transform="translate(0 0)" fill="#5d845a"/>
            <g id="Grupo_163057" data-name="Grupo 163057" transform="translate(88.634 287.884)" opacity="0.83">
              <g id="Grupo_163056" data-name="Grupo 163056" transform="translate(0)">
                <g id="Grupo_163055" data-name="Grupo 163055" clip-path="url(#clip-path-4)">
                  <path id="Trazado_202998" data-name="Trazado 202998" d="M110.948,259.89c-2.283,5.492-8.209,9.416-15.182,9.416s-12.9-3.924-15.182-9.416Z" transform="translate(-80.583 -259.89)" fill="#5d845a"/>
                </g>
              </g>
            </g>
            <path id="Trazado_202999" data-name="Trazado 202999" d="M22.115,237.952l26.369,4.071,56.3,51.124-27.85,27.583-56.9-58.887Zm6.91,10.31c2.569-1.565.136-5.549-2.428-3.986s-.136,5.547,2.428,3.986" transform="translate(81.275 25.631)" fill="#ed1c24"/>
            <path id="Trazado_203004" data-name="Trazado 203004" d="M74.753,310.261l.2-.2,18.361-18.192L45.953,247.991l-17.5,16.735.215.21ZM92.475,291.88,74.752,309.438,29.3,264.732l16.664-15.939Z" transform="translate(83.42 26.713)" fill="#fff"/>
            <path id="Trazado_203005" data-name="Trazado 203005" d="M58.993,198.734c2.524,2.684,2.814,5.514,3.233,8.93a44.19,44.19,0,0,0,4.4,14.9,35.945,35.945,0,0,0,24.723,18.982,31.859,31.859,0,0,0,29.819-9.339c7.9-8.308,11.158-19.122,13.8-29.619.469-1.864,3.606-1.076,3.137.79-4.866,19.37-16.136,43.764-42.41,41.769A39.124,39.124,0,0,1,68.878,231.6a42.367,42.367,0,0,1-7.443-12.922,43.7,43.7,0,0,1-1.993-7.542c-.59-3.412-.141-7.525-2.75-10.3-1.358-1.443.933-3.557,2.3-2.1" transform="translate(7.776 21.354)" fill="#ed1c24"/>
          </g>
        </g>
      </g>
    </g>
  </g>
</svg>
