<svg id="Grupo_170144" data-name="Grupo 170144" xmlns="http://www.w3.org/2000/svg" xmlns:xlink="http://www.w3.org/1999/xlink" width="400" height="183.898" viewBox="0 0 400 183.898">
  <defs>
    <clipPath id="clip-path">
      <rect id="Rectángulo_49206" data-name="Rectángulo 49206" width="400" height="183.898" fill="none"/>
    </clipPath>
  </defs>
  <g id="Grupo_170143" data-name="Grupo 170143" clip-path="url(#clip-path)">
    <path id="Trazado_210116" data-name="Trazado 210116" d="M308.552,183.43s8.058-88.005,77.921-90.477,33.635,90.941,33.635,90.941Z" transform="translate(-126.893 -38.208)" fill="#b29efe"/>
    <line id="Línea_146" data-name="Línea 146" x1="40.017" y2="80.584" transform="translate(231.139 64.834)" fill="none" stroke="#d0beea" stroke-linecap="round" stroke-linejoin="round" stroke-width="2"/>
    <path id="Trazado_210117" data-name="Trazado 210117" d="M397.243,118.395l18.177,33.6,40.319-22.462" transform="translate(-163.367 -48.69)" fill="none" stroke="#d0beea" stroke-linecap="round" stroke-linejoin="round" stroke-width="2"/>
    <path id="Trazado_210118" data-name="Trazado 210118" d="M351,164.312l27.159,43.3,59.406-29.154" transform="translate(-144.35 -67.574)" fill="none" stroke="#d0beea" stroke-linecap="round" stroke-linejoin="round" stroke-width="2"/>
    <line id="Línea_147" data-name="Línea 147" x2="31.264" transform="translate(192.974 124.78)" fill="none" stroke="#d0beea" stroke-linecap="round" stroke-linejoin="round" stroke-width="2"/>
    <line id="Línea_148" data-name="Línea 148" x1="0.52" y2="29.158" transform="translate(246.107 63.155)" fill="none" stroke="#d0beea" stroke-linecap="round" stroke-linejoin="round" stroke-width="2"/>
    <line id="Línea_149" data-name="Línea 149" x2="19.118" y2="6.017" transform="translate(223.007 78.936)" fill="none" stroke="#d0beea" stroke-linecap="round" stroke-linejoin="round" stroke-width="2"/>
    <line id="Línea_150" data-name="Línea 150" x2="3.806" y2="27.527" transform="translate(216.279 90.633)" fill="none" stroke="#d0beea" stroke-linecap="round" stroke-linejoin="round" stroke-width="2"/>
    <line id="Línea_151" data-name="Línea 151" y1="15.261" x2="21.079" transform="translate(194.555 124.78)" fill="none" stroke="#d0beea" stroke-linecap="round" stroke-linejoin="round" stroke-width="2"/>
    <line id="Línea_152" data-name="Línea 152" x1="35.612" y1="4.608" transform="translate(257.968 128.185)" fill="none" stroke="#d0beea" stroke-linecap="round" stroke-linejoin="round" stroke-width="2"/>
    <line id="Línea_153" data-name="Línea 153" x1="13.266" y2="19.543" transform="translate(272.952 101.288)" fill="none" stroke="#d0beea" stroke-linecap="round" stroke-linejoin="round" stroke-width="2"/>
    <line id="Línea_154" data-name="Línea 154" x1="16.576" y1="13.599" transform="translate(269.643 129.695)" fill="none" stroke="#d0beea" stroke-linecap="round" stroke-linejoin="round" stroke-width="2"/>
    <line id="Línea_155" data-name="Línea 155" x1="11.554" y2="23.534" transform="translate(273.31 67.927)" fill="none" stroke="#d0beea" stroke-linecap="round" stroke-linejoin="round" stroke-width="2"/>
    <line id="Línea_156" data-name="Línea 156" x1="22.232" y1="1.474" transform="translate(267.931 94.457)" fill="none" stroke="#d0beea" stroke-linecap="round" stroke-linejoin="round" stroke-width="2"/>
    <path id="Trazado_210119" data-name="Trazado 210119" d="M410.286,165.424c.6-1.869,1.251-3.724,1.98-5.56a99.6,99.6,0,0,1,14.107-24.66c2.768-3.551,5.845-6.855,8.5-10.494,2.489-3.409,4.64-7.192,5.335-11.407.623-3.782-.076-8.9-4.661-9.645-4.41-.713-8.439,2.671-11.244,5.649a52.676,52.676,0,0,0-7.648,11.31,145.617,145.617,0,0,0-10.841,25.272c-.822-12.574.417-25.184,1.717-37.719,1.53-14.762,3.018-29.774.384-44.5a54.978,54.978,0,0,0-2.655-10.35c-1.1-2.8-3.416-5.574-6.73-5.3-3.176.258-5.186,3.225-6.711,5.692a43.569,43.569,0,0,0-4.281,9.261c-4.71,14.288-2.652,29.655-.4,44.2,1.153,7.452,2.525,14.871,4.181,22.228a210.953,210.953,0,0,0,5.8,21.21,100.055,100.055,0,0,1-6.884-17.193c-3.567-11.745-5.6-23.892-9.185-35.634q-.657-2.154-1.387-4.285a10.505,10.505,0,0,0-1.508-3.1,3.971,3.971,0,0,0-5.756-.643c-1.951,1.564-2.982,4.258-3.721,6.566a28.792,28.792,0,0,0-1.311,8.062c-.283,11.736,5.694,22.577,11.413,32.428a195.894,195.894,0,0,0,20.069,28.62Z" transform="translate(-151.076 -19.737)" fill="#9c77d2"/>
    <path id="Trazado_210120" data-name="Trazado 210120" d="M416.5,68.776c-2.723,32.884.923,68.258,8.294,105.087" transform="translate(-170.917 -28.284)" fill="none" stroke="#524776" stroke-linecap="round" stroke-linejoin="round" stroke-width="1.5"/>
    <path id="Trazado_210121" data-name="Trazado 210121" d="M378.783,134.423c5.258,26.261,14.01,49.18,28.567,66.545" transform="translate(-155.776 -55.282)" fill="none" stroke="#524776" stroke-linecap="round" stroke-linejoin="round" stroke-width="1.5"/>
    <path id="Trazado_210122" data-name="Trazado 210122" d="M461.233,153.942c-12.554,12.634-22.384,29.453-26.494,55.054" transform="translate(-178.788 -63.309)" fill="none" stroke="#524776" stroke-linecap="round" stroke-linejoin="round" stroke-width="1.5"/>
    <path id="Trazado_210123" data-name="Trazado 210123" d="M99.569,226.719s-8.755-30.744-37.782-29.652S48.77,226.719,48.77,226.719Z" transform="translate(-18.245 -81.033)" fill="#b29efe"/>
    <line id="Línea_157" data-name="Línea 157" x2="18.085" y2="26.372" transform="translate(38.358 119.315)" fill="none" stroke="#d0c3ff" stroke-linecap="round" stroke-linejoin="round" stroke-width="1.5"/>
    <path id="Trazado_210124" data-name="Trazado 210124" d="M74.01,202.659l-1.754,18.1-20.017-6.808" transform="translate(-21.484 -83.344)" fill="none" stroke="#d0c3ff" stroke-linecap="round" stroke-linejoin="round" stroke-width="1.5"/>
    <path id="Trazado_210125" data-name="Trazado 210125" d="M91.78,221.844,78.663,235.766l-22.707-3.331" transform="translate(-23.012 -91.234)" fill="none" stroke="#d0c3ff" stroke-linecap="round" stroke-linejoin="round" stroke-width="1.5"/>
    <line id="Línea_158" data-name="Línea 158" x2="6.17" y2="9.193" transform="translate(33.635 124.495)" fill="none" stroke="#d0c3ff" stroke-linecap="round" stroke-linejoin="round" stroke-width="1.5"/>
    <line id="Línea_159" data-name="Línea 159" x1="8.975" y2="7.688" transform="translate(51.5 122.226)" fill="none" stroke="#d0c3ff" stroke-linecap="round" stroke-linejoin="round" stroke-width="1.5"/>
    <line id="Línea_160" data-name="Línea 160" x1="1.491" y2="11.263" transform="translate(61.057 127.532)" fill="none" stroke="#d0c3ff" stroke-linecap="round" stroke-linejoin="round" stroke-width="1.5"/>
    <line id="Línea_161" data-name="Línea 161" x2="7.835" y2="5.727" transform="translate(38.358 137.418)" fill="none" stroke="#d0c3ff" stroke-linecap="round" stroke-linejoin="round" stroke-width="1.5"/>
    <line id="Línea_162" data-name="Línea 162" x1="14.603" y2="4.876" transform="translate(58.427 136.709)" fill="none" stroke="#d0c3ff" stroke-linecap="round" stroke-linejoin="round" stroke-width="1.5"/>
    <path id="Trazado_210126" data-name="Trazado 210126" d="M220.98,215.974s-2.765-44.221-40.854-43.934-23.038,44.4-23.038,44.4Z" transform="translate(-63.397 -70.751)" fill="#b29efe"/>
    <line id="Línea_163" data-name="Línea 163" x2="19.697" y2="38.159" transform="translate(111.043 107.259)" fill="none" stroke="#d0c3ff" stroke-linecap="round" stroke-linejoin="round" stroke-width="1.5"/>
    <path id="Trazado_210127" data-name="Trazado 210127" d="M163.565,188.729l23.642,8.489,5.232-20.385" transform="translate(-67.267 -72.723)" fill="none" stroke="#d0c3ff" stroke-linecap="round" stroke-linejoin="round" stroke-width="1.5"/>
    <path id="Trazado_210128" data-name="Trazado 210128" d="M210.146,195.746,197.876,223.8l-31.963-8.185" transform="translate(-68.232 -80.501)" fill="none" stroke="#d0c3ff" stroke-linecap="round" stroke-linejoin="round" stroke-width="1.5"/>
    <line id="Línea_164" data-name="Línea 164" x1="16.668" y2="6.156" transform="translate(133.846 127.532)" fill="none" stroke="#d0c3ff" stroke-linecap="round" stroke-linejoin="round" stroke-width="1.5"/>
    <line id="Línea_165" data-name="Línea 165" y1="2.522" x2="13.81" transform="translate(96.299 120.965)" fill="none" stroke="#d0c3ff" stroke-linecap="round" stroke-linejoin="round" stroke-width="1.5"/>
    <path id="Trazado_210129" data-name="Trazado 210129" d="M213.078,181.671l-7.62,7.986-3.285-8.716" transform="translate(-83.145 -74.413)" fill="none" stroke="#d0c3ff" stroke-linecap="round" stroke-linejoin="round" stroke-width="1.5"/>
    <line id="Línea_166" data-name="Línea 166" x2="7.74" y2="11.264" transform="translate(109.2 128.776)" fill="none" stroke="#d0c3ff" stroke-linecap="round" stroke-linejoin="round" stroke-width="1.5"/>
    <path id="Trazado_210130" data-name="Trazado 210130" d="M248.758,206.026H277.02c-.36-1.306-.667-2.63-.9-3.976a85.114,85.114,0,0,1-1.021-10.157c-.349-6.7-.323-13.456-1.545-20.077a37.826,37.826,0,0,0-2.967-9.484,10.49,10.49,0,0,0-2.522-3.8,3.19,3.19,0,0,0-3.819-.231,5.1,5.1,0,0,0-1.764,3.329,43.472,43.472,0,0,0-.506,5.284,97.256,97.256,0,0,0,1.644,24.837q.414,2.115.92,4.218c-.486-1.172-.974-2.343-1.452-3.515l-5.438-13.312q-5.438-13.316-10.909-26.617c-1.173-2.858-3.153-6.523-6.873-5.681a5.791,5.791,0,0,0-3.8,3.15,10.023,10.023,0,0,0-.521,5.875A80.621,80.621,0,0,0,242.8,178.7a86.077,86.077,0,0,0,9.149,15.055A117.867,117.867,0,0,1,237.7,181.57a123.612,123.612,0,0,1-9.173-10.452c-2.25-2.86-5.55-6.361-9.578-4.792a6.51,6.51,0,0,0-3.51,3.716,8.754,8.754,0,0,0,.014,5.977,24.3,24.3,0,0,0,3.205,5.957q1.737,2.563,3.724,4.943a67.311,67.311,0,0,0,26.374,19.108" transform="translate(-88.386 -60.34)" fill="#9c77d2"/>
    <path id="Trazado_210131" data-name="Trazado 210131" d="M258.261,155.116c5.657,21.3,13.158,39.9,23.5,54.363" transform="translate(-106.211 -63.792)" fill="none" stroke="#524776" stroke-linecap="round" stroke-linejoin="round" stroke-width="1.5"/>
    <path id="Trazado_210132" data-name="Trazado 210132" d="M222.065,190.007c12.07,15.556,25.712,27.184,41.353,33.821" transform="translate(-91.325 -78.141)" fill="none" stroke="#524776" stroke-linecap="round" stroke-linejoin="round" stroke-width="1.5"/>
    <path id="Trazado_210133" data-name="Trazado 210133" d="M303.136,175.464c-1.147,15.164-.2,29.385,3.456,42.383" transform="translate(-124.476 -72.16)" fill="none" stroke="#524776" stroke-linecap="round" stroke-linejoin="round" stroke-width="1.5"/>
    <path id="Trazado_210134" data-name="Trazado 210134" d="M586.479,182.69s43.619-86.049-3.686-92.418-84.76,92.418-84.76,92.418Z" transform="translate(-204.818 -37.003)" fill="#b29efe"/>
    <line id="Línea_167" data-name="Línea 167" x1="41.62" y2="85.01" transform="translate(336.356 60.568)" fill="none" stroke="#d0beea" stroke-linecap="round" stroke-linejoin="round" stroke-width="2"/>
    <path id="Trazado_210135" data-name="Trazado 210135" d="M602.348,110.121l9.544,23.924,31.463-11.962" transform="translate(-247.717 -45.288)" fill="none" stroke="#d0beea" stroke-linecap="round" stroke-linejoin="round" stroke-width="2"/>
    <path id="Trazado_210136" data-name="Trazado 210136" d="M570.867,144.295l10.511,39.686,43.154-19.843" transform="translate(-234.771 -59.342)" fill="none" stroke="#d0beea" stroke-linecap="round" stroke-linejoin="round" stroke-width="2"/>
    <path id="Trazado_210137" data-name="Trazado 210137" d="M534.261,198.877l22.5,27.083,44.771-11.379" transform="translate(-219.716 -81.789)" fill="none" stroke="#d0beea" stroke-linecap="round" stroke-linejoin="round" stroke-width="2"/>
    <line id="Línea_168" data-name="Línea 168" x1="3.064" y2="17.129" transform="translate(361.11 63.947)" fill="none" stroke="#d0beea" stroke-linecap="round" stroke-linejoin="round" stroke-width="2"/>
    <line id="Línea_169" data-name="Línea 169" x1="17.894" y1="3.723" transform="translate(378.666 83.248)" fill="none" stroke="#d0beea" stroke-linecap="round" stroke-linejoin="round" stroke-width="2"/>
    <path id="Trazado_210138" data-name="Trazado 210138" d="M638.45,162.942l-18.714,20.311,15.341,1.917" transform="translate(-254.868 -67.01)" fill="none" stroke="#d0beea" stroke-linecap="round" stroke-linejoin="round" stroke-width="2"/>
    <line id="Línea_170" data-name="Línea 170" x1="12.993" y2="12.641" transform="translate(357.611 126.303)" fill="none" stroke="#d0beea" stroke-linecap="round" stroke-linejoin="round" stroke-width="2"/>
    <line id="Línea_171" data-name="Línea 171" x2="4.836" y2="25.178" transform="translate(324.374 109.562)" fill="none" stroke="#d0beea" stroke-linecap="round" stroke-linejoin="round" stroke-width="2"/>
    <line id="Línea_172" data-name="Línea 172" x2="27.881" y2="3.546" transform="translate(305.733 136.495)" fill="none" stroke="#d0beea" stroke-linecap="round" stroke-linejoin="round" stroke-width="2"/>
    <line id="Línea_173" data-name="Línea 173" x2="13.032" y2="14.8" transform="translate(328.214 89.596)" fill="none" stroke="#d0beea" stroke-linecap="round" stroke-linejoin="round" stroke-width="2"/>
    <line id="Línea_174" data-name="Línea 174" x1="4.685" y2="37.421" transform="translate(343.495 75.464)" fill="none" stroke="#d0beea" stroke-linecap="round" stroke-linejoin="round" stroke-width="2"/>
    <line id="Línea_175" data-name="Línea 175" x1="14.437" y2="19.032" transform="translate(373.176 66.304)" fill="none" stroke="#d0beea" stroke-linecap="round" stroke-linejoin="round" stroke-width="2"/>
    <path id="Trazado_210139" data-name="Trazado 210139" d="M617.328,106.622a5.7,5.7,0,0,0-3.988-2.042c-3.51-.406-6.845,1.16-9.686,3.067-3.292,2.209-6.354,4.809-9.439,7.293-3.929,3.164-7.835,6.38-11.667,9.68a140.085,140.085,0,0,0,16.2-21.764,137.494,137.494,0,0,0,8.811-17.169A113.012,113.012,0,0,0,613.9,66.78,53.988,53.988,0,0,0,615.1,46.5a28.816,28.816,0,0,0-2.767-9.279,3.125,3.125,0,0,0-2.988-1.921c-1.5.162-2.411,1.514-3.2,2.652-7.95,11.511-11.859,25.158-17.054,38q-6.559,16.218-14.426,31.856,2.157-6.368,3.872-12.878a203.84,203.84,0,0,0,5.142-26.784,200.158,200.158,0,0,0-.728-54.716q-.5-3.3-1.113-6.576a12.492,12.492,0,0,0-1.668-5.123,4.083,4.083,0,0,0-4.511-1.57c-1.989.575-3.449,2.222-4.645,3.825-5.1,6.837-6.234,15.751-7.2,23.982-1.159,9.862-1.614,19.788-1.95,29.706-.334,9.879-.543,19.767-1.214,29.631a201.071,201.071,0,0,1-3.444,26.869,117.555,117.555,0,0,1-8.175,25.616c-.843,1.826-1.711,3.639-2.638,5.424h39.453q5.764-4.158,11.189-8.77,4.408-3.768,8.557-7.825a91.242,91.242,0,0,0,7.757-8.261c2.139-2.682,4.2-5.871,4.773-9.314a5.773,5.773,0,0,0-.794-4.431" transform="translate(-224.706 0)" fill="#9c77d2"/>
    <path id="Trazado_210140" data-name="Trazado 210140" d="M580.529,21.485s1.662,43.772-2.832,81.554-15.783,51.018-15.783,51.018" transform="translate(-231.088 -8.836)" fill="none" stroke="#524776" stroke-linecap="round" stroke-linejoin="round" stroke-width="1.5"/>
    <path id="Trazado_210141" data-name="Trazado 210141" d="M619.015,85.207c-6.981,31.424-23.982,63.294-46.536,95.413" transform="translate(-235.434 -35.042)" fill="none" stroke="#524776" stroke-linecap="round" stroke-linejoin="round" stroke-width="1.5"/>
    <path id="Trazado_210142" data-name="Trazado 210142" d="M628.639,188.572c-11.531,12.825-25.495,24.066-41.161,34.2" transform="translate(-241.602 -77.551)" fill="none" stroke="#524776" stroke-linecap="round" stroke-linejoin="round" stroke-width="1.5"/>
    <line id="Línea_176" data-name="Línea 176" x2="391.875" transform="translate(0 145.687)" fill="none" stroke="#31245c" stroke-miterlimit="10" stroke-width="1.5"/>
    <path id="Trazado_210143" data-name="Trazado 210143" d="M180.261,278.872c0-7.714,62.67-13.969,139.979-13.969s139.979,6.254,139.979,13.969S397.548,292.84,320.24,292.84s-139.979-6.254-139.979-13.969" transform="translate(-74.133 -108.942)" fill="#afb5ef"/>
    <path id="Trazado_210144" data-name="Trazado 210144" d="M365.657,115.376l-24.221,84.1a107.344,107.344,0,0,1-31.839,10.76,4.7,4.7,0,0,0-3.7,3.447h47.678a3.363,3.363,0,0,0,3.1-4.669,53.329,53.329,0,0,0-4.409-8.156c14.33-14.993,26.253-31.256,26.494-53.678,0,0,31.1,40.086,31.331,39.395s17.006-33.945,17.006-33.945Z" transform="translate(-125.801 -47.449)" fill="#6636e0"/>
    <path id="Trazado_210145" data-name="Trazado 210145" d="M407.163,152.181s-5.567,33.981-11.941,44.233-9.332,13.708-9.332,13.708" transform="translate(-158.698 -62.585)" fill="none" stroke="#31245c" stroke-linecap="round" stroke-linejoin="round" stroke-width="2" stroke-dasharray="12.009 12.009"/>
    <path id="Trazado_210146" data-name="Trazado 210146" d="M384.11,233.478a63.226,63.226,0,0,1-12.069-4.618l-3.832,13.306,11.16,3.8a147.912,147.912,0,0,0,9.658-11.27c-1.366-.32-2.995-.719-4.917-1.22" transform="translate(-151.427 -94.119)" fill="#31245c"/>
    <path id="Trazado_210147" data-name="Trazado 210147" d="M350.114,250.723a54.43,54.43,0,0,1-6.851-3.271l-1.826,6.342a107.343,107.343,0,0,1-31.839,10.76A4.7,4.7,0,0,0,305.9,268h47.678a3.362,3.362,0,0,0,3.1-4.669,53.33,53.33,0,0,0-4.409-8.156q1.354-1.417,2.677-2.85a42.3,42.3,0,0,1-4.827-1.6" transform="translate(-125.801 -101.765)" fill="#f2c4a5"/>
    <path id="Trazado_210148" data-name="Trazado 210148" d="M356.673,269.877c-.523-1.243-1.13-2.5-1.8-3.754a43.416,43.416,0,0,1-6.676,1.358c-4.484.558-9.807-2.137-13.015-4.115A109.079,109.079,0,0,1,309.6,271.1a4.7,4.7,0,0,0-3.7,3.447h47.677a3.363,3.363,0,0,0,3.1-4.669" transform="translate(-125.801 -108.31)" fill="#662dba"/>
    <path id="Trazado_210149" data-name="Trazado 210149" d="M408.522,159.21l-4.915,3.225-82.783-39.471S287.8,168.118,272.9,184.245,253.092,203.6,253.092,203.6c-9.658,4.648-21.974,7.282-35.07,9.325A3.931,3.931,0,0,0,214.7,216.8H268.39a2.475,2.475,0,0,0,2.374-3.222,20.6,20.6,0,0,0-4.463-6.914c29.32-12.851,54.678-25.79,67.578-39.011,0,0,39.011,45.461,79.558,48.226s41.622-21.656,41.622-21.656l-1.843-13.515Z" transform="translate(-88.294 -50.569)" fill="#663cfe"/>
    <path id="Trazado_210150" data-name="Trazado 210150" d="M537.734,184.529l-4.915,3.225-3.93-1.874c1.308,6.929,4.994,22.69,13.338,36.162A182.334,182.334,0,0,0,555.709,241.1c27.727-2.693,28.562-21.553,28.562-21.553l-1.843-13.515Z" transform="translate(-217.507 -75.888)" fill="#6636e0"/>
    <path id="Trazado_210151" data-name="Trazado 210151" d="M598.795,206.181s-.3,1.306-.978,3.392" transform="translate(-245.854 -84.793)" fill="none" stroke="#31245c" stroke-linecap="round" stroke-linejoin="round" stroke-width="2"/>
    <path id="Trazado_210152" data-name="Trazado 210152" d="M523.588,207.338c-4.265,9.612-12.819,22.614-27.752,22.03-19.073-.746-58.146-32.549-72.379-44.673" transform="translate(-174.148 -75.956)" fill="none" stroke="#31245c" stroke-linecap="round" stroke-linejoin="round" stroke-width="2" stroke-dasharray="12.009 12.009"/>
    <path id="Trazado_210153" data-name="Trazado 210153" d="M415.25,179.159c-1.7-1.477-2.655-2.326-2.655-2.326s-.94.9-2.572,2.419" transform="translate(-168.623 -72.723)" fill="none" stroke="#31245c" stroke-linecap="round" stroke-linejoin="round" stroke-width="2"/>
    <path id="Trazado_210154" data-name="Trazado 210154" d="M366.531,188.572c-8.723,7.94-23.309,20.732-33.789,27.416-7.484,4.772-12.939,8.013-16.616,10.106" transform="translate(-130.007 -77.551)" fill="none" stroke="#31245c" stroke-linecap="round" stroke-linejoin="round" stroke-width="2" stroke-dasharray="11.263 11.263"/>
    <path id="Trazado_210155" data-name="Trazado 210155" d="M309.023,255.049c-2.13,1.163-3.126,1.64-3.126,1.64" transform="translate(-125.801 -104.89)" fill="none" stroke="#31245c" stroke-linecap="round" stroke-linejoin="round" stroke-width="2"/>
    <path id="Trazado_210156" data-name="Trazado 210156" d="M311.419,237.344a36.33,36.33,0,0,1-7.089-7.859c-4.1,4.4-7.386,7.763-9.988,10.32l9.408,8.6c5.183-2.309,10.221-4.621,15.07-6.937a35.4,35.4,0,0,1-7.4-4.119" transform="translate(-121.049 -94.376)" fill="#31245c"/>
    <path id="Trazado_210157" data-name="Trazado 210157" d="M342.479,227.011c18.981-9.28,34.682-18.635,43.951-28.134" transform="translate(-140.846 -81.789)" fill="none" stroke="#31245c" stroke-linecap="round" stroke-linejoin="round" stroke-width="2"/>
    <path id="Trazado_210158" data-name="Trazado 210158" d="M466.013,159.21l-4.915,3.225-82.783-39.471s-11.4,15.586-23.824,31.716" transform="translate(-145.786 -50.569)" fill="none" stroke="#31245c" stroke-linecap="round" stroke-linejoin="round" stroke-width="2"/>
    <path id="Trazado_210159" data-name="Trazado 210159" d="M269.833,250.388a46.812,46.812,0,0,1-6.584-6.178c-7.455,7.473-10.157,9.249-10.157,9.249-9.658,4.648-21.974,7.282-35.07,9.325a3.931,3.931,0,0,0-3.326,3.883h53.695a2.476,2.476,0,0,0,2.374-3.222,20.609,20.609,0,0,0-4.464-6.914q4-1.752,7.891-3.507a23.242,23.242,0,0,1-4.358-2.636" transform="translate(-88.294 -100.432)" fill="#f2c4a5"/>
    <path id="Trazado_210160" data-name="Trazado 210160" d="M270.764,271.034a15.1,15.1,0,0,0-1.869-3.641,28.81,28.81,0,0,1-7.663.719c-5.041-.231-9.774-3.741-11.8-5.451-9.024,3.667-19.918,5.917-31.416,7.711a3.932,3.932,0,0,0-3.326,3.883H268.39a2.476,2.476,0,0,0,2.374-3.222" transform="translate(-88.294 -108.021)" fill="#662dba"/>
    <path id="Trazado_210161" data-name="Trazado 210161" d="M520.038,77.7c-1.631,16.946-3.037,33.088-2.778,43.292a10.052,10.052,0,0,0,2.489,6.393,21.728,21.728,0,0,0,9.2,6.374l-2.361,6.009c9.619,20.69,22.478,40.81,45.642,50.377a35.181,35.181,0,0,0,7.249-19.563c.665-11.516-4.607-42.966-9.983-61.857s-11.058-35.632-26.263-38.243S520.038,77.7,520.038,77.7" transform="translate(-212.712 -28.804)" fill="#fecc6b"/>
    <path id="Trazado_210162" data-name="Trazado 210162" d="M560.055,215.022c-12.225-9.908-22.4-27.751-25.379-33.279l-1.557,3.963c9.619,20.689,22.478,40.81,45.642,50.377a31.59,31.59,0,0,0,4.659-8.13,78.159,78.159,0,0,1-23.366-12.931" transform="translate(-219.247 -74.742)" fill="#5f9ed3"/>
    <path id="Trazado_210163" data-name="Trazado 210163" d="M551.024,107.271l-32.358.679c-.923,10.811-1.544,20.546-1.421,27.626a40.655,40.655,0,0,0,17.767-6.357c19.122-12.21,16.012-21.948,16.012-21.948" transform="translate(-212.712 -44.116)" fill="#febd55"/>
    <path id="Trazado_210164" data-name="Trazado 210164" d="M594.193,124.93l-12.945-19.118-4.97,24.766s4.676,10.712,12.682,16.242a24.773,24.773,0,0,0,10.957,3.85c-1.653-9.084-3.669-18.268-5.723-25.739" transform="translate(-236.996 -43.516)" fill="#febd55"/>
    <path id="Trazado_210165" data-name="Trazado 210165" d="M461.157,54.859c-8.659,4.251-13.9,17.585-8.6,27.953s26.8,17.279,26.8,17.279,2.995-7.728,3.532-12,.111-4.765.111-4.765l10.716,7.246,2.457-18.62L485.5,68.221s-7.449-21.656-24.344-13.362" transform="translate(-185.24 -21.783)" fill="#f2c4a5"/>
    <path id="Trazado_210166" data-name="Trazado 210166" d="M492.183,81.753l-.628-.219c-3.018,1.633-16.557,8.842-24.83,11.279a59.109,59.109,0,0,1-12.47,1.968c5.489,10.244,26.676,17.058,26.676,17.058s2.995-7.728,3.532-12,.111-4.765.111-4.765l7.971,5.391Z" transform="translate(-186.814 -33.531)" fill="#dbab8a"/>
    <path id="Trazado_210167" data-name="Trazado 210167" d="M558.816,78.293c-5.069-18.6-20.58-26.711-38.243-30.7S483.713,21.94,470.5,25.626,458.832,41.55,458.832,41.55s12.748,14.64,23.5,20.63,24.881-2.3,38.09,1.842,7.535,31.025,7.535,31.025a53.089,53.089,0,0,0,5.183,6.74c1.917-5.312,2.616-13.3,2.947-22.1a142.635,142.635,0,0,1,1.518,26.386,23.377,23.377,0,0,0,5.9,3.623,55.585,55.585,0,0,0,.881-16.541,41.885,41.885,0,0,1,1.744,17.324,11.645,11.645,0,0,0,2.4.232,28.567,28.567,0,0,0,5.484-.563,71.382,71.382,0,0,0-1.644-18.02,72.427,72.427,0,0,1,4.34,17.243c3.694-1.409,4.568-3.421,4.568-3.421s2.611-9.062-2.457-27.659" transform="translate(-188.673 -10.366)" fill="#31245c"/>
    <path id="Trazado_210168" data-name="Trazado 210168" d="M487.826,79.948s-4.388-8.888,4.059-10.962,9.675,11.883,8.524,14.264-4.8,3.165-4.8,3.165Z" transform="translate(-200.152 -28.285)" fill="#f2c4a5"/>
    <path id="Trazado_210169" data-name="Trazado 210169" d="M496.855,72.844s-2.246,3.345-1.555,6.424,1.555,3.958,1.555,3.958" transform="translate(-203.639 -29.957)" fill="none" stroke="#dbab8a" stroke-linecap="round" stroke-linejoin="round" stroke-width="2"/>
    <path id="Trazado_210170" data-name="Trazado 210170" d="M498.984,93.225s3.645-.784,4.8-3.165a10.724,10.724,0,0,0,.24-4.722c-2.518,1.3-5.767,2.927-9.136,4.483Z" transform="translate(-203.523 -35.096)" fill="#dbab8a"/>
    <path id="Trazado_210171" data-name="Trazado 210171" d="M500.347,96.762c-3.571-10.578-35.017-4.012-53.1,1.632S432.269,103,432.269,103l1.613-1.267-4.147-3.571s-25.227,2.342-23.614,11.711,18.661,13.516,49.762,7.756,48.817-7.972,44.463-20.869" transform="translate(-166.988 -37.48)" fill="#f2c4a5"/>
    <path id="Trazado_210172" data-name="Trazado 210172" d="M522.909,91.142c-6.832-.055-15.27,1.244-23.343,3.034-.638,4.849-2.346,16.744-4.34,21.728-.181.453-.352.88-.516,1.292,10.767-1.978,19.827-3.56,26.8-5.372Z" transform="translate(-203.451 -37.482)" fill="#dbab8a"/>
    <path id="Trazado_210173" data-name="Trazado 210173" d="M441.888,108.708a46,46,0,0,0-8.341,2.5c-2.88,1.4-5.068,2.72-5.068,2.72a21.552,21.552,0,0,1,5.3-5.587,32.676,32.676,0,0,1,6.665-3.1l2.665,2.295Z" transform="translate(-176.213 -43.28)" fill="#dbab8a"/>
    <path id="Trazado_210174" data-name="Trazado 210174" d="M504.691,89.725l-3.235,31.458s45.73-6.566,44-23.844c-2.175-21.754-40.767-7.614-40.767-7.614" transform="translate(-206.225 -35.042)" fill="#fecc6b"/>
    <path id="Trazado_210175" data-name="Trazado 210175" d="M509.1,112.061c.244-6.343.1-17.327.031-21.583-2.722.787-4.437,1.414-4.437,1.414l-3.235,31.458s2.792-.4,6.968-1.265c.283-3.256.552-6.888.672-10.023" transform="translate(-206.226 -37.209)" fill="#5f9ed3"/>
    <path id="Trazado_210176" data-name="Trazado 210176" d="M501.457,129.656s45.73-6.566,44-23.844" transform="translate(-206.226 -43.516)" fill="none" stroke="#ffa031" stroke-linecap="round" stroke-linejoin="round" stroke-width="2"/>
    <path id="Trazado_210177" data-name="Trazado 210177" d="M457.6,62.95c4.037,1.206,7.66,2.5,9.693,4.122l.243-.244L451.556,50.395s-7.027-1.267-12.5,7.141S437.641,78.61,442,82.187s4.377,3.341,4.377,3.341c1.673-1.228,3.342-2.525,5.008-3.873a20.2,20.2,0,0,1-5.353-6.771,27.011,27.011,0,0,0,6.993,5.417q2.183-1.819,4.359-3.758a36.45,36.45,0,0,1-6.283-8.869,33.28,33.28,0,0,0,7.7,7.588q3.8-3.462,7.575-7.26A47.863,47.863,0,0,0,457.6,62.95" transform="translate(-179.478 -20.697)" fill="#31245c"/>
  </g>
</svg>
