<svg xmlns="http://www.w3.org/2000/svg" xmlns:xlink="http://www.w3.org/1999/xlink" width="505" height="274.795" viewBox="0 0 505 274.795">
  <defs>
    <clipPath id="clip-path">
      <rect id="Rect치ngulo_48878" data-name="Rect치ngulo 48878" width="505" height="211.961" fill="none"/>
    </clipPath>
  </defs>
  <g id="Grupo_165023" data-name="Grupo 165023" transform="translate(-810 -10403.785)">
    <rect id="Rect치ngulo_48877" data-name="Rect치ngulo 48877" width="505" height="274.795" transform="translate(810 10403.785)" fill="#4b5cc9"/>
    <g id="Grupo_165022" data-name="Grupo 165022" transform="translate(810 10466.619)">
      <path id="Trazado_207950" data-name="Trazado 207950" d="M79.919,137.814h48.658l5.879-45.125H85.8Z" transform="translate(12.152 16.89)" fill="#0a0ea3"/>
      <g id="Grupo_165021" data-name="Grupo 165021">
        <g id="Grupo_165020" data-name="Grupo 165020" clip-path="url(#clip-path)">
          <path id="Trazado_207951" data-name="Trazado 207951" d="M128.595,143.2c-5.859-4.369-15.747-1.9-23.207-1.628-9.905.363-10.479-3.876-12.57-6.439-1.949-2.389,3.062-3.307,2.083-10.3-.866-6.189-2.706-17.354.6-27.294.8-2.415-.808-48.349-2.334-50.81C89.84,41.366,44.7,33.647,44.7,33.647c-1.93.524-2.77-1.853-5.3,4.221-2.756,6.613-3.316,15.194-3.023,19.576.275,4.134.7,5.616-.067,8.537-.76,2.891-2.806,3.532-6.754,11.582-1.3,2.659-2.362,2.836-1.8,4.8.712,2.495,5.278,1.935,6.214,4.269.327.815-.462,2.6-1.258,4.2a2.4,2.4,0,0,0-.1,2.672c1.238,2.258,3.693,1.078,4.033,2.775.253,1.263-2.765,1.028-1.972,4.325.335,1.4,2.073.335,3.14,1.933,1.485,2.221-.026,4.875.836,7.381.892,2.589,3.35,4.057,7.612,3.61a93.963,93.963,0,0,0,14.466-2.688c3.135-.846,4.566.466,4.585,2.927.107,13.5-2.876,19.929-8.471,23.506-8.055,5.148-30.379-4.61-37.972,9.843-4.208,8.01-7,18.346-8.938,26.9C7.7,183.864,2.773,202.416,0,206.057H131.968c.87-15.511,1.3-30.216,1.418-45.518.056-7.065,1.4-12.722-4.791-17.334" transform="translate(0 5.904)" fill="#f90"/>
          <path id="Trazado_207952" data-name="Trazado 207952" d="M9.936,158.526c1.942-8.555,4.728-18.892,8.936-26.9,7.089-13.491,27.01-5.888,36.183-9-4.078,6.711.033,23.517,3.017,29.344,8.82-13.5,21.012-23.422,35.768-30.124,1.56,1.64,3.388,4.537,11.547,4.237,7.458-.274,17.346-2.74,23.206,1.628,6.187,4.612,4.847,10.269,4.791,17.334-.12,15.3-.548,30.008-1.418,45.518H0c2.772-3.641,7.7-22.193,9.935-32.032" transform="translate(0 21.404)" fill="#0a0ea3"/>
          <path id="Trazado_207953" data-name="Trazado 207953" d="M56.058,78.872a7.557,7.557,0,0,1-9.01,5.867A7.715,7.715,0,0,1,41.3,75.544a7.557,7.557,0,0,1,9.01-5.867,7.715,7.715,0,0,1,5.749,9.195" transform="translate(6.252 12.208)" fill="#ff6e1a"/>
          <path id="Trazado_207954" data-name="Trazado 207954" d="M58.817,17.082c-13.432,3.759-22.966,13.885-26.185,29.8,9,.39,25.542-.189,34.675,18.241,6.928,13.986,5.081,21.529,8.314,31.113,4.264,12.641,5.851,16.028,12.985,19.135-1.114-31.2,29.056-25.585,24.974-65C110.361,19.3,79.713,11.239,58.817,17.082" transform="translate(4.962 2.691)" fill="#411259"/>
          <path id="Trazado_207955" data-name="Trazado 207955" d="M58.12,17.074a34.732,34.732,0,0,0-15.211,8.44c-.579.593-.857.97-1.084,1.226A175.779,175.779,0,0,1,52.752,75.171C55,100,51.467,108.591,50.775,115.151c-.015.152,0,.788.69.689,2.932-.408,6.054-.267,5.62,5.5C56.4,130.48,52.97,142.186,40.8,142.186c-8.506,0-1.359,39.233,16.088,37.687,10.309-.912,61.966-36.882,49.2-35.609-3.773.376-5.481-4.006-1.75-7.356,21.992-19.752,11.16-40.579,8.552-86.546-1.77-31.194-33.824-38.969-54.763-33.289" transform="translate(5.659 2.698)" fill="#0a0ea3"/>
          <path id="Trazado_207956" data-name="Trazado 207956" d="M137.492,137.381H181.53l5.879-43.275-43.518.583Z" transform="translate(20.906 16.531)" fill="#411259"/>
          <path id="Trazado_207957" data-name="Trazado 207957" d="M65.771,197.678a243.375,243.375,0,0,0,6.324-32.032c.977-8.555,2.674-18.559,5.979-26.569,3.84-9.307,13.3-8.573,21.553-8.247,4.559.181,11.094.381,14.13-.683,6.071-2.127,5.966-6.376,5.526-22.81-.079-2.945-1.62-2.844-5.432-1.9,1.415-1.5,1.623-9.522,1.324-11.325,2.931-3.11,2.818-2.894,6.842-3.536a33.8,33.8,0,0,0,12.711-4.351c1.969-1.19,7.293-6.513,10.279-4.437,2.325,1.615,1,5.783.947,8.318-.227,10.434-5.122,20.17-1.789,30.03,1.037,3.066,3.093,9.4,5.312,11.793,2.38,2.563,4.17,1.635,14.036,1.271,7.427-.274,17.038-2.739,23.39,1.629,6.706,4.612,6.014,11.439,5.814,18.5-.661,19.1-.134,32.233-.988,44.349Z" transform="translate(10.001 14.283)" fill="#ff5653"/>
          <path id="Trazado_207958" data-name="Trazado 207958" d="M186.9,127.45c-3.145-2.163-7.09-2.65-11.173-2.557-10.258.754-13.275,15.047-23.133,21.475-12.314,7.541-27.364,16.37-46.673,8.539-11.769-4.774-12.845-23.236-7.47-31.518-8.034-.314-16.791-.382-20.379,8.314-3.3,8.01-5,18.012-5.979,26.568A243.37,243.37,0,0,1,65.77,190.3H191.727c.856-12.114.327-25.246.99-44.347.2-7.065.892-13.893-5.816-18.505" transform="translate(10.001 21.659)" fill="#fa0"/>
          <path id="Trazado_207959" data-name="Trazado 207959" d="M108.753,34.249c-2.085.332-5.695,4.549-8.984,10.664C97.293,49.52,87.347,56.77,87.938,64.687c.318,4.27.518,5.65-2.508,15.362-1.069,3.433-1.758,3.983-1.107,5.825,1.234,3.494,6.021.964,6.713,3.186.528,1.7-.2,2.811-1.6,4.249a2.477,2.477,0,0,0-.55,2.649c.767,2.213,4.037.411,4.562,2.405.563,2.14-3.518,2.1-2.253,4.886.887,1.953,2.7.755,3.381,3.253.523,1.926-1.632,3.174-.59,6.161,1.249,3.575,4.02,3.365,8.172,2.8,8.187-1.122,14.443-3.054,17.8-5.483,4.52-3.27,8.306-8.821,11.424-17.034,2.075-5.468,6.687,6.054,9.1,1.286,1.574-3.1,3.021-4.208,5.6-4.783,4.665-1.039,7.819-7.072,8.7-11.522.965-4.866.766-9.19-3.381-10.335-5.335-1.472-10.665,5.646-15.055,1.526-2.23-2.092-2.523-5.9-3.362-8.647A24.505,24.505,0,0,0,129.5,53.25c-1.5-2.077-3.488-3.475-5.338-5.287a24.766,24.766,0,0,1-4.878-7.363c-2.916-6.024-10.536-6.351-10.536-6.351" transform="translate(12.783 6.016)" fill="#ff5653"/>
          <path id="Trazado_207960" data-name="Trazado 207960" d="M113.1,80.345a7.56,7.56,0,1,1-7.352-7.916,7.626,7.626,0,0,1,7.352,7.916" transform="translate(14.9 12.723)" fill="#ff947d"/>
          <path id="Trazado_207961" data-name="Trazado 207961" d="M122.8,188.2h3.4a.363.363,0,0,0,.357-.32l.832-6.193a.29.29,0,0,1,.57,0l.659,6.2a.362.362,0,0,0,.357.317h3.135a.36.36,0,0,0,.335-.234l.543-2.782a.3.3,0,0,1,.533-.011l.6,2.806a.359.359,0,0,0,.329.22h29.8a1.347,1.347,0,0,0,1.336-1.36c0-8.873,1.51-97.331,1.51-115.625,0-11.209-.887-20.226-4.473-28.33-3.131-7.076-10.29-13.468-17.9-17.349-7.31-3.73-20.181-4.383-30.3-2.583s-17.77,6.966-20.364,9.7c-4.925,5.2-8.865,10.828-10.268,18.552A144.074,144.074,0,0,0,82.46,70.072a1.108,1.108,0,0,0,1.085,1.143H97.6a.761.761,0,0,0,.743-.688l.982-8.43a.3.3,0,0,1,.6,0l.877,8.417a.762.762,0,0,0,.744.7h5.494a.755.755,0,0,0,.722-.578l.554-2.143a.3.3,0,0,1,.575-.013l.67,2.19a.752.752,0,0,0,.712.544h11.31a1.423,1.423,0,0,1,1.389,1.454l-1.51,114.161a1.357,1.357,0,0,0,1.342,1.37" transform="translate(12.538 3.863)" fill="#411259"/>
          <path id="Trazado_207962" data-name="Trazado 207962" d="M180.345,145.13h78.561l8.478-69.989-78.431-4.619Z" transform="translate(27.422 12.389)" fill="#ff5653"/>
          <path id="Trazado_207963" data-name="Trazado 207963" d="M124.782,198.781c.282-1.3.5-2.362.573-2.93,1.24-9.845,4.627-19.263,5.751-29.1.977-8.555,2.674-18.225,5.979-26.235,4.47-10.835,18.754-8.063,28.775-8.166,3.346-.034,6.912-.523,8.879-1.653,4.35-2.5,5.183-5.027,3.775-21.237-.256-2.934-2.66-2.853-7.348-2.284,1.46-1.455,3.887-9.255,3.643-11.067,3.023-3.017,2.9-2.805,6.945-3.32,4.649-.593,11.087-15.348,15.184-17.653,2-1.126,5.139,7.424,8.061,9.593,2.274,1.688.827,5.813.695,8.344-.544,10.422,2.743,35.563,4.962,37.952,2.379,2.563,3.578,4.2,11.421,3.853,12.147-.537,18-2.849,23.836.72,6.938,4.242,6.268,9.6,7.009,16.669,1.6,15.3,2.948,31.007,3.827,46.518Z" transform="translate(18.974 13.181)" fill="#ff947d"/>
          <path id="Trazado_207964" data-name="Trazado 207964" d="M151.016,58c-.568,3.128-.093,1.781.508,6.563.759,6.032-1.7,13.251-5.532,16.1-2.453,1.822-1.746,4.824.425,5.393,1.75.46,4.872.386,4.765,3.219-.1,2.589-2.657,2.126-2.235,4.532.472,2.688,3.549.638,4.055,3.158.425,2.12-2.894,1.039-2.52,3.995.308,2.421,2.972,1.72,3.42,3.482.778,3.065-1.766,4.652,1.041,7.7,2.627,2.853,11.948,1.377,15.264.886,11.913-1.759,17.206-7.765,20.486-14.785,4.252-9.1,3.544-22.261,4.742-26.293,2.409-8.1,5.564-15.556-.244-20.681-7.127-6.287-16.477-9.363-25.816-9.7-4.773-.169-6.863-2.435-11.311-.467-2.763,1.223-5.64,9.136-7.048,16.9" transform="translate(21.964 7.08)" fill="#ff947d"/>
          <path id="Trazado_207965" data-name="Trazado 207965" d="M249.672,65.63a4.185,4.185,0,0,1,.361-5.66c6.013-5.584,6.172-14.085,2.73-21.3-2.894-6.066-9.809-9.676-17.348-9.309a4.069,4.069,0,0,1-4.255-4.129c.063-7.654-2.737-19.643-15.342-23.542-12.719-3.934-23.437-.261-31.265,8.451a4.641,4.641,0,0,1-6.185.71,23.9,23.9,0,0,0-22.41-2.8c-16.678,6.679-14.849,24.795-11.218,31.57a1.468,1.468,0,0,1-.948,2.112c-14.78,3.509-13.534,19.621-6.115,26.128,8.239,7.226,16.447,2.942,20.137.991,1.464-.774,3.161-1.553,3.778,1.261a28.984,28.984,0,0,0,2.88,7.2c2.573,4.609,6.3,7.277,11.886,7.277a14.87,14.87,0,0,0,3.47-.348,2.052,2.052,0,0,1,2.511,1.967,9.77,9.77,0,0,0,3.639,7.622,10.7,10.7,0,0,0,8.885,1.858,1.688,1.688,0,0,1,1.987,2.375c-1.786,3.542-3.772,10.727-.513,17.59,2.891,6.09,5.158,5.4,5.227,7.528.056,1.721-1.356.808-2.431,5.378-2.381,10.12,6.761,19.784,16.6,19.982,4.082.082,33.593,4.866,38.391-8.457,6.006-16.675-4.755-47.662-2.607-50.676,5.448-7.648,2.926-17.883-1.849-23.79" transform="translate(20.118 0.021)" fill="#ff5653"/>
          <path id="Trazado_207966" data-name="Trazado 207966" d="M174.3,85.052a7.559,7.559,0,1,1-7.109-8.144,7.614,7.614,0,0,1,7.109,8.144" transform="translate(24.206 13.508)" fill="#ff5653"/>
          <path id="Trazado_207967" data-name="Trazado 207967" d="M138.432,190.244h83.6c-.611-11.007-5.646-14.009-6.377-42.339-.076-2.952,1.317-16.938,3.764-21.543-1.728.065-3.246.069-4.589.006-2.463,3.8-3.82,7.7-6.046,11.68-5.13,9.171-13.9,18.176-24.687,21.8-7.22,2.427-24.2,1.577-26.93-8.236-1.194-4.291-2.363-19.061,4.564-27.819-1.718-.033-3.523-.114-5.357-.17-3.616,2.905-5.445,28.387-9.6,40.452-3.317,9.625-6.9,13.7-8.34,26.165" transform="translate(21.049 21.717)" fill="#3f54fa"/>
          <path id="Trazado_207968" data-name="Trazado 207968" d="M242.966,143.26h65.513l5.878-71.571H248.844Z" transform="translate(36.944 12.594)" fill="#280b36"/>
          <path id="Trazado_207969" data-name="Trazado 207969" d="M187.6,197.718c.281-1.3,5.2-22.193,6.324-32.032.976-8.555,2.674-18.225,5.978-26.235,5.964-14.452,29.388-4.694,36.861-9.844,5.192-3.576,7.1-11.9,4.113-21.847-.844-2.817-1.809-3.011-6.7-1.764,1.373-1.539,2.59-9.552,2.244-11.348,2.848-3.188,2.741-2.971,6.746-3.722a33.824,33.824,0,0,0,12.593-4.7c1.937-1.243,7.119-6.71,10.158-4.716,2.366,1.552,1.154,5.754,1.165,8.288a204.363,204.363,0,0,0,.835,20.776c1.166,11.882,2.372,15.54,4.424,18.081,2.2,2.724,8.173,3.659,13.838,3.426,7.425-.3,18.779-.5,23.222,3.274,6.22,5.276,5.594,8.775,6.334,15.841,1.6,15.3,2.949,31.007,3.828,46.518Z" transform="translate(28.525 14.243)" fill="#411259"/>
          <path id="Trazado_207970" data-name="Trazado 207970" d="M220.548,44.017c-1.737.373-5.629,2.116-8.241,7.342a27.544,27.544,0,0,0-2.643,12.918c.146,3.38,1.535,5.821,1.179,9.028-.415,3.743-2.927,6.489-5.961,8.165-2.278,1.259-3.092,2.82-2.434,5.1.843,2.924,5.131,2.333,5.6,4.522.316,1.46-.051,1.557-1.162,2.826a2.216,2.216,0,0,0-.429,2.585c.994,2.064,3.712.554,4.106,2.039.388,1.461-3.01,1.494-2,4.429.559,1.628,2.837.9,3.712,2.369,1.215,2.042-1.217,3.171-.993,5.535.255,2.7,2.437,4.464,6.24,4.272,5.887-.3,12.93-1.4,18.2-3.768a20.715,20.715,0,0,0,9.783-9.036c2.4-4.277,2.478-5.289,4.3-9.4,1.187-2.676-1.69-23.39-2.514-25.66-.768-2.12-7.083-6.509-8.49-8.251-1.352-1.675-3.079-2.76-4.711-4.2a20.743,20.743,0,0,1-4.416-5.963c-2.71-4.926-9.122-4.856-9.122-4.856" transform="translate(30.75 7.732)" fill="#411259"/>
          <path id="Trazado_207971" data-name="Trazado 207971" d="M246.885,79.832c-6.985-6.337-17.344-5.553-26.411-9.164-8.5-3.384-17.327-8.685-20.655-22.609-2.412-10.091,1.205-28.056,17.6-35.932,30.372-14.585,68.889-1.5,81.526,25.01,10.306,21.621,5.966,45.85-8.425,60.179-6.938,6.908-23.079,13.581-33.126,8.344-12.065-6.29-4.214-20.112-10.514-25.827" transform="translate(30.281 1.066)" fill="#411259"/>
          <path id="Trazado_207972" data-name="Trazado 207972" d="M233.339,92.8a15.555,15.555,0,1,0,15.552-15.87A15.714,15.714,0,0,0,233.339,92.8" transform="translate(35.48 13.514)" fill="#fa0"/>
          <path id="Trazado_207973" data-name="Trazado 207973" d="M250,84.795c3.871-1.083,6.258-6.292,6.806-10.068.6-4.129.244-7.751-3.288-8.525-4.544-.995-7.336,5.923-12.852,1.909-6.358-4.627-14.455,13.373-7.506,23.064,1.745,2.374,3.78,4.747,6.4,5.639a13.091,13.091,0,0,1,2.145.747c1.922-3.539,2.114-4.691,3.8-8.5.986-2.222,1.767-3.8,3.409-3.995A6.621,6.621,0,0,0,250,84.795" transform="translate(35.047 11.612)" fill="#411259"/>
          <path id="Trazado_207974" data-name="Trazado 207974" d="M217.314,84.046a7.559,7.559,0,1,0,7.557-7.712,7.636,7.636,0,0,0-7.557,7.712" transform="translate(33.044 13.41)" fill="#8927d4"/>
          <path id="Trazado_207975" data-name="Trazado 207975" d="M233.339,92.8a15.714,15.714,0,0,0,15.552,15.872V76.928A15.713,15.713,0,0,0,233.339,92.8" transform="translate(35.48 13.514)" fill="#fa0"/>
          <path id="Trazado_207976" data-name="Trazado 207976" d="M247.236,76.928a4.562,4.562,0,0,1-2.01,1.962c-1.828,1.127-1.19,5.1,2.111,4.174,4.943-1.383-.1-6.136-.1-6.136" transform="translate(37.135 13.514)" fill="#411259"/>
          <path id="Trazado_207977" data-name="Trazado 207977" d="M286.367,184.978H201.841c.3-7.63,3.553-15.056,6.433-21.911,1.378-3.282,2.985-8.007,4.424-9.042s14.464,1.641,26.926.279c19.837-2.169,31.874,1.339,37.19,1.856,6.552.637,6.272.56,6.915,7.114.713,7.263,1.707,14.483,2.639,21.7" transform="translate(30.691 26.983)" fill="#8927d4"/>
          <path id="Trazado_207978" data-name="Trazado 207978" d="M241.749,198.386c2.773-3.641,7.7-22.193,9.935-32.032,1.942-8.555,4.73-18.559,8.939-26.569,7.592-14.451,29.917-4.694,37.971-9.843,5.6-3.576,8.872-6.578,7.511-23.935-.226-2.88-1.8-4-6.249-2.663,1.844-1.149,5.953-9.012,6.2-10.794,3.821-2.383,7.553-15.467,11.7-15.273,4.775.223,8.1,6.478,12.789,4.962,2.295-.741,1.889,2.042,4.56,4.232,2.078,1.7-.195,5.74-.34,8.285-.344,6.015-2.157,31.32-.206,33.709,2.09,2.563,2.664,3.471,12.57,3.106,7.458-.274,17.347-2.739,23.206,1.629,6.188,4.612,4.848,11.6,4.793,18.667-.121,15.3-.55,31.007-1.419,46.518Z" transform="translate(36.759 13.575)" fill="#ffc4a8"/>
          <path id="Trazado_207979" data-name="Trazado 207979" d="M282.136,34.3c-1.933.511-2.712-1.574-5.281,4.483-2.8,6.6-4.188,15.168-3.935,19.553a46.618,46.618,0,0,1,.025,7.64c-.232,3.2-2.673,8.545-5.824,12.758-1.767,2.364-2.329,3.4-1.305,5.168,1.3,2.236,4.332.975,5.252,3.314.323.818-.478,2.594-1.285,4.2a2.391,2.391,0,0,0-.114,2.671c1.223,2.267,3.687,1.1,4.016,2.8.244,1.265-2.772,1.01-2,4.312.327,1.4,2.071.348,3.129,1.954,1.471,2.231-.059,4.875.789,7.386.874,2.6,3.325,4.081,7.589,3.661,6.6-.648,15.984-3.715,21.781-6.658,5.486-2.785,6.3-4.811,7.664-8.892,1.765-5.282,16.394-2.8,18.231-7.514,1.2-3.072,1.12-31.91.078-34.418-.972-2.341-25.863-4.631-27.532-6.513-1.606-1.811-3.6-2.938-5.509-4.466a23.283,23.283,0,0,1-5.268-6.465c-3.3-5.392-10.5-4.971-10.5-4.971" transform="translate(40.341 6.025)" fill="#ffc4a8"/>
          <path id="Trazado_207980" data-name="Trazado 207980" d="M296.3,81.245a7.555,7.555,0,0,1-9.047,5.807,7.718,7.718,0,0,1-5.691-9.233,7.555,7.555,0,0,1,9.048-5.807,7.717,7.717,0,0,1,5.69,9.233" transform="translate(42.784 12.616)" fill="#ffd4d4"/>
          <path id="Trazado_207981" data-name="Trazado 207981" d="M251.685,158.526c1.942-8.555,4.729-18.558,8.938-26.568,7.087-13.491,27.01-5.888,36.181-9-3.575,5.883-1.832,24.524.661,32.963a1.515,1.515,0,0,0,2.719.44c8.8-13.017,21.534-28.215,35.406-34.516,1.855,1.271,4.813,2.067,11.547,1.9,7.461-.18,17.347-2.739,23.206,1.629,6.187,4.612,5.289,14,5.234,21.067-.12,15.3-.991,28.608-1.861,44.118H241.75c2.772-3.641,7.7-22.193,9.935-32.032" transform="translate(36.759 21.404)" fill="#ff5653"/>
          <path id="Trazado_207982" data-name="Trazado 207982" d="M463.549,196.063c8.01-23.265-6.47-44.331-27.419-50.932-12.021-3.789-18.794-10.375-24.647-22.638-5.624-11.78,5.7-31.055-6.635-44.839-14.2-15.876-23.843-9.7-33.225-20.925-7.8-9.336-11.024-29.242-31.531-45.588-23.465-18.7-66.159-14.514-78.7,17.537C254.758,45.627,256.809,62.5,273.7,74.055a41.281,41.281,0,0,0,1.187-8.471c.2-4.437.8-9.2,1.253-14.817a.44.44,0,0,1,.872.063c4.176,19.36,21.751,7.255,32.7,21.555.106.139.206.274.31.411,1.851,2.274,3.165,3.593,5.129,3.545,3.25-.08,2.768-8.324,9.516-7.949,4.5.25,6.282,4.6,4.68,10.387-2.252,8.134-11.112,10.307-9.138,19.723,2.1,10.046,10.575,8.306,11.5,15.623,1.22,9.682-7.231,21.134,1.435,29.117,2.265,7.624,18.731.34,28.374,9.188,9.317,8.548,5.045,53.716,5.946,59.34.012.067.032.123.044.19h97.8a18.562,18.562,0,0,1-1.756-15.9" transform="translate(39.212 0)" fill="#f90"/>
        </g>
      </g>
    </g>
  </g>
</svg>
