<svg id="Grupo_165311" data-name="Grupo 165311" xmlns="http://www.w3.org/2000/svg" xmlns:xlink="http://www.w3.org/1999/xlink" width="189.497" height="207.33" viewBox="0 0 189.497 207.33">
  <defs>
    <clipPath id="clip-path">
      <rect id="Rectángulo_48965" data-name="Rectángulo 48965" width="189.497" height="207.33" fill="#222f6d"/>
    </clipPath>
    <clipPath id="clip-path-2">
      <path id="Trazado_209252" data-name="Trazado 209252" d="M0,123.956A94.749,94.749,0,1,0,94.748,29.207,94.749,94.749,0,0,0,0,123.956" transform="translate(0 -29.207)" fill="none"/>
    </clipPath>
  </defs>
  <g id="Grupo_165308" data-name="Grupo 165308">
    <g id="Grupo_165307" data-name="Grupo 165307" clip-path="url(#clip-path)">
      <path id="Trazado_209227" data-name="Trazado 209227" d="M189.5,123.956A94.749,94.749,0,1,1,94.749,29.208,94.748,94.748,0,0,1,189.5,123.956" transform="translate(0 -13.527)" fill="#222f6d"/>
    </g>
  </g>
  <g id="Grupo_165310" data-name="Grupo 165310" transform="translate(0 15.681)">
    <g id="Grupo_165309" data-name="Grupo 165309" clip-path="url(#clip-path-2)">
      <path id="Trazado_209228" data-name="Trazado 209228" d="M205.22,274.417a14.406,14.406,0,0,0,3.088,4.019,36.887,36.887,0,0,0,7.239,4.911l6.143,3.49c4.817,2.737,9.708,5.5,15.078,6.869a14.566,14.566,0,0,0,8.148.117c.172-.057.343-.122.512-.192l.039.176a67.361,67.361,0,0,1,1.269,15.98,71.857,71.857,0,0,1-.865,9.09c-.15.941-.329,14.722-.816,15.541h-2.109c-.728-3.957-2.368-20.5-4.188-24.084-2.151-4.232-4.647-8.5-8.548-11.2-3.309-2.295-7.365-3.267-11.37-3.683a10.042,10.042,0,0,0-4.582.308,11.2,11.2,0,0,0-3.391,2.367,21.039,21.039,0,0,0-4.327,4.794,11.024,11.024,0,0,0-.541,1.058c-.247-.719-.545-1.425-.843-2.125-1.232-2.888-2.647-5.986-5.4-7.486a11.447,11.447,0,0,0-4.894-1.146,15.07,15.07,0,0,0-5.266.5,85,85,0,0,0,15.627-19.3" transform="translate(-87.805 -142.77)" fill="#f55d8b"/>
      <path id="Trazado_209229" data-name="Trazado 209229" d="M221.3,354.21c-.166-3.188-.233-19.2-.1-22.386.111-2.718.4-5.532,1.766-7.881a18.821,18.821,0,0,1,3.873-4.291,10.03,10.03,0,0,1,3.036-2.119,8.993,8.993,0,0,1,4.1-.276,21.644,21.644,0,0,1,10.178,3.3c3.492,2.421,5.726,6.239,7.652,10.027,1.74,3.424,3.3,19.815,3.87,23.629Z" transform="translate(-102.41 -162.561)" fill="#fff"/>
      <path id="Trazado_209230" data-name="Trazado 209230" d="M264.914,357.239h-6.163c-2.517-2.923-5.026-18.771-8.6-20.076a13.171,13.171,0,0,1,6.705.6,87.621,87.621,0,0,0-7.176-8.44c3.25.458,5.776,2.986,7.9,5.483a49.652,49.652,0,0,0-6.54-11.12c3.877,2.035,6.338,5.95,8.616,9.69a26.44,26.44,0,0,0-3.817-8.121,16.524,16.524,0,0,1,4.672,5.072c1.451,2.816,1.348,6.2,2.58,9.12a24.288,24.288,0,0,0-.124-8.44c1.475,3.715,2.148,20.563,1.981,24.556-.02.483-.01,1.074-.044,1.671" transform="translate(-115.635 -165.59)" fill="#f55d8b"/>
      <path id="Trazado_209231" data-name="Trazado 209231" d="M193.521,337.638c-.094.7-.2,14.217-.295,14.916H167.875c.73-5.156,1.651-23.106,3.31-28.034a23.379,23.379,0,0,1,2.979-6.234,11.1,11.1,0,0,1,5.381-4.19,13.174,13.174,0,0,1,4.837-.489,10.194,10.194,0,0,1,4.351,1.019c2.452,1.335,3.711,4.088,4.806,6.656a14.775,14.775,0,0,1,1.189,3.628,14.5,14.5,0,0,1-.091,3.667q-.506,4.536-1.116,9.06" transform="translate(-77.747 -160.904)" fill="#fff"/>
      <path id="Trazado_209232" data-name="Trazado 209232" d="M211.921,178.678c2.908-2.821,8.027-1.3,11.1.459a22.369,22.369,0,0,1,8.789,9.647c2.1,4.341,2.134,8.586,2.427,13.289.165,2.649.77,5.541,2.869,7.368,1.393,1.213,3.2,1.627,3.951,3.452.171.417-.53.711-.73.308-.86-1.736-2.916-2.207-4.225-3.531a9.231,9.231,0,0,1-2.2-4.046c-1.144-4.117-.282-8.487-1.4-12.638a22.486,22.486,0,0,0-6.4-10.6c-2.954-2.736-8.457-5.872-12.641-4.21,3.329-.7,7.291,1.462,9.934,3.134a17.07,17.07,0,0,1,6.938,9.458,32.007,32.007,0,0,1,1.289,6.839c.248,2.7.19,5.5,1.089,8.093.887,2.559,2.66,3.882,4.784,5.369A7.214,7.214,0,0,1,240.3,214.2c.155.376-.463.625-.653.275-1.569-2.886-5.117-3.777-6.778-6.645-1.978-3.416-1.587-7.537-2.032-11.314-.543-4.614-1.942-9.38-5.342-12.726-3.219-3.167-8.813-5.894-13.342-4.869a.128.128,0,0,1-.061,0c-.141.087-.3-.13-.177-.247" transform="translate(-98.126 -97.706)" fill="#f55d8b"/>
      <path id="Trazado_209233" data-name="Trazado 209233" d="M211.761,185.037l.042,0a.128.128,0,0,1,.036-.017c2.928-.707,6.187,1.161,8.433,2.893a19.989,19.989,0,0,1,6.21,8.332c1.535,3.775,1.716,7.513,1.846,11.521.147,4.525,2.806,8.622,5.461,12.118.239.315-.293.728-.551.425a27.182,27.182,0,0,1-4.918-8.494c-1.229-3.491-.541-7.264-1.2-10.871a21.081,21.081,0,0,0-4.952-10.411c-2.039-2.247-5.273-4.718-8.512-5.167,2.272.716,4.115,2.482,5.725,4.24,2.444,2.668,4.755,5.4,5.694,8.969.969,3.682.758,7.546,1.56,11.257.92,4.256,3.491,7.35,5.868,10.852.2.3-.264.66-.5.385a30.2,30.2,0,0,1-5.075-7.938c-1.307-3.189-1.436-6.626-1.772-10.01a18.923,18.923,0,0,0-4.472-11.112c-2.5-2.942-4.982-5.925-8.965-6.677-.168-.032-.129-.3.04-.3" transform="translate(-98.003 -101.298)" fill="#f55d8b"/>
      <path id="Trazado_209234" data-name="Trazado 209234" d="M214.07,182.306c.184.016.367.041.55.065,4.11-.475,8.685,1.373,10.745,5.092.139.251-.215.557-.414.319a13.066,13.066,0,0,0-7.936-4.871,14.578,14.578,0,0,1,7.49,5.612c.1.143-.13.323-.242.187A16.4,16.4,0,0,0,214,182.829a.267.267,0,0,1,.071-.523" transform="translate(-99.02 -100.107)" fill="#f55d8b"/>
      <path id="Trazado_209235" data-name="Trazado 209235" d="M209.263,204.982a9.925,9.925,0,0,1,6.362-7.689.206.206,0,0,1,.256.155.179.179,0,0,1,0,.283c-3.341,2.43-3.9,6.123-3.379,10.012.492,3.711,1.379,7.367,1.927,11.071.066.442-.586.649-.689.19-.551-2.474-.989-4.973-1.45-7.466a30.5,30.5,0,0,1-.782-6.632,10.214,10.214,0,0,1,1.481-5.118,7.467,7.467,0,0,0-1.382,1.56,11.45,11.45,0,0,0-1.568,4.981,22.513,22.513,0,0,0-.01,4.773c.189,1.811.787,3.522,1.018,5.313.04.314-.422.389-.564.152-1.912-3.186-1.911-8.046-1.226-11.586" transform="translate(-96.721 -107.047)" fill="#f55d8b"/>
      <path id="Trazado_209236" data-name="Trazado 209236" d="M180.031,196.767c.866-1.515,1.237-2.961,2.529-4.231a11.448,11.448,0,0,1,4.533-2.8,10.646,10.646,0,0,1,9.676,2.084,7.136,7.136,0,0,1,.637.5c.142.125-.052.384-.206.266-2.212-1.693-5.2-1.72-7.81-1.117-3.074.709-4.563,3.053-6.323,5.427-.283.381-.906.049-.653-.382,1.637-2.786,3.8-5.226,7.1-5.847a12.086,12.086,0,0,1,3.738-.158,10.715,10.715,0,0,0-7.435.82,9.314,9.314,0,0,0-3.938,3.722c-.42.831-.539,1.686-1.4,2.163a.329.329,0,0,1-.447-.447" transform="translate(-83.356 -103.366)" fill="#f55d8b"/>
      <path id="Trazado_209237" data-name="Trazado 209237" d="M183.194,186.732c2.891-4.237,9.534-3.8,12.9-.529.127.123-.043.36-.194.252-.053-.038-.107-.073-.16-.11.114.133-.028.369-.19.254a11.049,11.049,0,0,0-4.247-2.072q-.351-.048-.709-.067a3.945,3.945,0,0,0-.985.1c-2.013.477-3.43,2.071-4.888,3.4a.228.228,0,0,1-.356-.275,8.3,8.3,0,0,1,2.552-2.568,19.933,19.933,0,0,0-3.316,2.028.3.3,0,0,1-.406-.406" transform="translate(-84.821 -100.735)" fill="#f55d8b"/>
      <path id="Trazado_209238" data-name="Trazado 209238" d="M195.013,178.873a5.034,5.034,0,0,1,7.021,2.467,4.066,4.066,0,0,0-1.525-2.66c-1.191-.825-2.4-.7-3.693-1.108a.318.318,0,0,1,0-.607c1.355-.52,3.277.353,4.325,1.216,1.269,1.045,1.337,2.518,1.359,4.046a.156.156,0,0,1-.153.15c0,.025.013.047.018.072a.14.14,0,0,1-.269.074,4.725,4.725,0,0,0-3.071-3.3c-1.35-.438-2.537.012-3.868.178-.283.035-.383-.408-.144-.53" transform="translate(-90.253 -97.565)" fill="#f55d8b"/>
      <path id="Trazado_209239" data-name="Trazado 209239" d="M175.3,234.722c.222-9.476,1.762-19.148,3.335-28.485.029-.173.322-.135.309.042-.709,9.483-2.452,18.923-2.617,28.443a11.75,11.75,0,0,0,1.246,6.237,25.2,25.2,0,0,0,3.2,4.146c1.852,2.1,4.043,4.47,4.3,7.394.044.492-.676.534-.82.111-1.209-3.546-3.616-5.866-5.918-8.72a13,13,0,0,1-3.032-9.168" transform="translate(-81.182 -111.142)" fill="#f55d8b"/>
      <path id="Trazado_209240" data-name="Trazado 209240" d="M179.223,232.465c.453-6.913,1.044-14,2.97-20.675a.082.082,0,0,1,.157.043,139.108,139.108,0,0,0-2.317,18.77c-.177,2.913-.633,5.979-.273,8.887.367,2.966,1.883,5.181,3.886,7.3.179.19-.057.536-.29.376-4.953-3.418-4.48-9.425-4.133-14.706" transform="translate(-82.91 -113.738)" fill="#d15e9e"/>
      <path id="Trazado_209241" data-name="Trazado 209241" d="M276.9,270.107a15.246,15.246,0,0,0,2.709-6.511,8.435,8.435,0,0,0-1.828-6.655,12.141,12.141,0,0,0-4.531-2.843q-1.587-.662-3.213-1.224a6.672,6.672,0,0,1,4.383-1,6.133,6.133,0,0,0-5.924-1.461,9.215,9.215,0,0,1,3.943-3.128,4.337,4.337,0,0,0-6.459,1.58,53.538,53.538,0,0,1,2.785-7.991c1.86-1.015,4.2-.246,5.974.917a14.917,14.917,0,0,1,6.448,9.8,28.955,28.955,0,0,1,.316,3.722q.215,5.157.43,10.314a9.987,9.987,0,0,1-.156,2.858,7.839,7.839,0,0,1-1.135,2.365,8.075,8.075,0,0,1-3.211,3.085c-.524.23-3.816.125-3.02-.644a16.292,16.292,0,0,0,2.49-3.178" transform="translate(-123.181 -127.016)" fill="#f55d8b"/>
      <path id="Trazado_209242" data-name="Trazado 209242" d="M159.481,257.935c-1.6,4.072-3.195,8.262-3.265,12.637a10.7,10.7,0,0,1,5.749-5.463,20.1,20.1,0,0,1,2.675-.784,4.305,4.305,0,0,0-4.5-.129,10.6,10.6,0,0,1,4.175-4.074,4.818,4.818,0,0,0-3.635.467,9.9,9.9,0,0,1,4.607-3.778,10,10,0,0,1-2.252-.343c.465-.617,1.5-1.2,1.332-2.093-.158-.836-.934-.99-1.611-.8-1.786.509-2.672,2.828-3.273,4.358" transform="translate(-72.347 -133.084)" fill="#d15e9e"/>
      <path id="Trazado_209243" data-name="Trazado 209243" d="M226.432,212.358c-.392-1.606-.693-3.231-.992-4.857-.273-1.487-.542-2.975-.878-4.449a15.753,15.753,0,0,0-.515-2.311,92.573,92.573,0,0,1,5.281-9.167,3.829,3.829,0,0,1,.916-1.073,1.319,1.319,0,0,1,.71-.264,1.267,1.267,0,0,1,1.1.717,2.571,2.571,0,0,1,.225,1.348c-.122,2.145-1.472,4.007-2.085,6.066-.307,1.031-.293,2.224-.651,3.212a21.464,21.464,0,0,1,1.366-3.373l3.875-8.183c.251-.531.609-1.139,1.2-1.175a1.128,1.128,0,0,1,1.05.839,3.1,3.1,0,0,1,0,1.434q-.187,1.152-.451,2.289c-.848,3.649-3.1,6.827-3.914,10.507A7.56,7.56,0,0,1,234,201.651c.65-.662,1.366-1.257,1.994-1.948.979-1.079,2.181-1.908,3.1-3.061a10.177,10.177,0,0,1,2.143-2.394.55.55,0,0,1,.392-.122.542.542,0,0,1,.326.3,2.878,2.878,0,0,1,.267,2.2,5.725,5.725,0,0,1-.593,1.249q-2.239,3.874-4.433,7.773c-.653,1.161-1.462,2.326-2.035,3.515a12.359,12.359,0,0,0-.743,4.294,1.306,1.306,0,0,0,.676-.481l2.763-3.055a13.718,13.718,0,0,1,2.2-2.1,4.6,4.6,0,0,1,2.843-.929,1.6,1.6,0,0,1,1.26.575,1.388,1.388,0,0,1,.071,1.284,4.094,4.094,0,0,1-.753,1.1,19.6,19.6,0,0,1-2.359,2.448,22.559,22.559,0,0,0-1.752,1.426,14.774,14.774,0,0,0-1.56,2.1,18.312,18.312,0,0,1-6.875,5.957,21.971,21.971,0,0,1-4.5-9.433" transform="translate(-103.762 -103.14)" fill="#fff"/>
      <path id="Trazado_209244" data-name="Trazado 209244" d="M155.629,280.424a9.157,9.157,0,0,1,2.757-5.93c1.817-1.543,4.047-2.376,6.016-3.693,1.217-.814,2.363-1.728,3.506-2.643,2.243-1.795,4.481-3.6,6.662-5.469l5.129,3.648a2.6,2.6,0,0,0,1.134.554,4.422,4.422,0,0,0,1.485-.283,4.243,4.243,0,0,1,2.852.488c-.894,1.317-1.766,2.648-2.576,4.019-.872,1.477-1.672,3-2.559,4.463a43.88,43.88,0,0,1-9.92,11.376,12.261,12.261,0,0,1-5.3,2.835,7.75,7.75,0,0,1-6.895-2.358,9.06,9.06,0,0,1-2.3-7.006" transform="translate(-72.056 -137.338)" fill="#fff"/>
      <path id="Trazado_209245" data-name="Trazado 209245" d="M225.963,235.968a28.329,28.329,0,0,0-5.436-2.405c-1.239-.443-2.48-.879-3.74-1.257a65.525,65.525,0,0,1-6.856-2.125,10.941,10.941,0,0,1-5.454-4.469c-1.256-2.264-1.284-4.976-1.795-7.515-.263-1.3-.658-2.576-.99-3.864-.532-2.061-.53-4.065-.971-6.121q-.85-3.961-1.334-7.989a1.125,1.125,0,0,0-.506-.836c-.744-.453-1.375.317-1.657,1-1.571,3.81-.162,8.115-.257,12.247a.154.154,0,0,1-.289.071,49.059,49.059,0,0,1-4.413-11.752,4.841,4.841,0,0,0-.6-1.652,1.366,1.366,0,0,0-2.59.576,4.51,4.51,0,0,0,.2,1.792q1.189,4.693,2.4,9.381a.036.036,0,0,1-.066.025,55.05,55.05,0,0,1-3.6-8.9,10.153,10.153,0,0,0-1.768-3.883,1.15,1.15,0,0,0-1.357-.329c-.634.312-.57,1.082-.454,1.7a29.628,29.628,0,0,0,2.006,6.922,45.749,45.749,0,0,1,2.209,6.066.154.154,0,0,1-.274.129,113.062,113.062,0,0,0-7.157-9.948,2.351,2.351,0,0,0-.85-.7.828.828,0,0,0-1,.245,1.148,1.148,0,0,0-.078.77c.385,2.642,1.892,4.959,3.143,7.318,1.627,3.07,3.9,6.779,4.307,10.29a.987.987,0,0,1-.277.966c-1.379.9-4.365-3.78-5.257-4.485a4.073,4.073,0,0,0-2.449-1.087,1.258,1.258,0,0,0-1.09,2.14c1.359,1.746,2.258,3.788,3.68,5.514a25.589,25.589,0,0,0,4.962,4.619,16.817,16.817,0,0,1,1.981,1.5c1.292,1.239,2.179,3.1,3.91,3.558a20.767,20.767,0,0,0,2.881.129,7.817,7.817,0,0,1,2.906,1.178,137.284,137.284,0,0,1,15.588,10.5c2.554,1.988,5.134,4.116,8.247,5s6.957.147,8.656-2.609c2.742-4.448-.748-9.387-4.521-11.72" transform="translate(-82.117 -107.316)" fill="#fff"/>
      <path id="Trazado_209246" data-name="Trazado 209246" d="M217.853,147.383a1.322,1.322,0,0,0,.772-1.354c-.21-.8-1.744-1.414-2.406-1.8.77.068,1.506.348,2.269.47a2.6,2.6,0,0,0,2.188-.475,3.251,3.251,0,0,0,.657-2.618c.555.766,1.183,1.419,1.69,2.207a1.871,1.871,0,0,0,2.015.816,4.46,4.46,0,0,0,2.806-1.561c-.207,1.761.281,3.781,2.394,4.015.617.068,1.323-.05,1.789.36a14.355,14.355,0,0,0-2.677.5c-.623.179-1.33.509-1.437,1.148a1.616,1.616,0,0,0,.166.875,6.193,6.193,0,0,0,1.946,2.508c-.648.066-1.22-.485-1.871-.5a1.6,1.6,0,0,0-1.438,1.474,4.661,4.661,0,0,0,.439,2.188,7.686,7.686,0,0,0-1.763-2.74c-1.629-1.49-3.554-1.126-5.175.13a2.333,2.333,0,0,0,.1-1.793,4.528,4.528,0,0,0-.987-1.516c-.147-.161-.3-.317-.458-.465a4.633,4.633,0,0,0-1.242-.857,7.115,7.115,0,0,0-2.17-.471,5.623,5.623,0,0,0,2.394-.546" transform="translate(-99.784 -81.262)" fill="#fff"/>
      <path id="Trazado_209247" data-name="Trazado 209247" d="M151.478,190.346a1,1,0,0,0-.462-1.08c-.573-.236-1.642.4-2.175.625.391-.432.894-.746,1.315-1.149a1.956,1.956,0,0,0,.71-1.53,2.446,2.446,0,0,0-1.273-1.585c.712.016,1.391-.064,2.094-.011a1.408,1.408,0,0,0,1.407-.839,3.358,3.358,0,0,0,.34-2.394c.963.925,2.4,1.552,3.5.389.322-.34.572-.818,1.031-.911a10.753,10.753,0,0,0-.918,1.836,1.338,1.338,0,0,0,.036,1.385,1.212,1.212,0,0,0,.6.3,4.662,4.662,0,0,0,2.392-.027c-.256.419-.846.512-1.149.9a1.206,1.206,0,0,0,.231,1.534,3.509,3.509,0,0,0,1.513.732,5.786,5.786,0,0,0-2.447-.188c-1.636.3-2.293,1.622-2.277,3.167a1.761,1.761,0,0,0-1.032-.875,3.416,3.416,0,0,0-1.359-.1c-.163.015-.326.035-.488.063a3.493,3.493,0,0,0-1.08.356,5.376,5.376,0,0,0-1.27,1.088,4.236,4.236,0,0,0,.762-1.686" transform="translate(-68.932 -99.905)" fill="#fff"/>
      <path id="Trazado_209248" data-name="Trazado 209248" d="M269.917,210.234a.829.829,0,0,0,.484-.848c-.132-.5-1.093-.885-1.507-1.127.483.042.943.218,1.422.294a1.626,1.626,0,0,0,1.37-.3,2.034,2.034,0,0,0,.411-1.64c.347.48.741.889,1.059,1.382a1.171,1.171,0,0,0,1.262.511,2.792,2.792,0,0,0,1.757-.977c-.129,1.1.176,2.368,1.5,2.514.387.042.829-.031,1.121.225a8.954,8.954,0,0,0-1.677.314c-.39.112-.833.318-.9.719a1.014,1.014,0,0,0,.1.548,3.879,3.879,0,0,0,1.219,1.571c-.406.041-.763-.3-1.171-.31a1,1,0,0,0-.9.923,2.921,2.921,0,0,0,.275,1.371,4.821,4.821,0,0,0-1.1-1.716,2.36,2.36,0,0,0-3.241.082,1.462,1.462,0,0,0,.061-1.123,2.845,2.845,0,0,0-.618-.949c-.092-.1-.187-.2-.287-.292a2.906,2.906,0,0,0-.778-.537,4.448,4.448,0,0,0-1.358-.295,3.525,3.525,0,0,0,1.5-.342" transform="translate(-124.311 -111.369)" fill="#fff"/>
      <path id="Trazado_209249" data-name="Trazado 209249" d="M20.072,15.681q2.567,9.9,5.133,19.8c3.911,15.091,8.874,30.189,10.51,45.689a27.527,27.527,0,0,1,.013,7.765c-.641,3.548-2.514,6.733-4.355,9.833l-4.466,7.522a11.953,11.953,0,0,0-1.947,4.713c-.27,2.608,1.173,5.044,2.465,7.326a90.007,90.007,0,0,1,6.163,13.314c1.1,3,2.237,5.461,4.578,7.666a7.236,7.236,0,0,0,10.323-.838c.277-.334.586-.725,1.02-.74a1.275,1.275,0,0,1,.724.274,11.439,11.439,0,0,0,2.922,1.913,4.451,4.451,0,0,0,4.041-1.269c1.1-.988,1.9-2.256,2.9-3.342a1.2,1.2,0,0,1,.638-.431,1.338,1.338,0,0,1,.631.112A9.3,9.3,0,0,0,72.1,130.868a5.571,5.571,0,0,1,1.657-2.269c.871-.526,1.978-.362,2.97-.586,2.17-.491,3.437-2.689,4.441-4.675,1.783-3.525,3.616-7.468,2.569-11.277a34.1,34.1,0,0,0-1.45-3.572,15.469,15.469,0,0,1-1.076-6.285c.07-2.034-.533-3.34-1.244-5.279-1.527-4.164-3.048-8.331-4.5-12.52A233.675,233.675,0,0,1,67.95,58.931C65.638,48.643,60.074,10.436,57.931,0Z" transform="translate(-9.296 -15.681)" fill="#f55d8b"/>
      <path id="Trazado_209250" data-name="Trazado 209250" d="M41.756,216.482a3.819,3.819,0,0,1,2.065,3.425c-.16,1.821-2.008,3.092-2.37,4.884l4.437-1.131a20.281,20.281,0,0,1,5.093-.846,6.837,6.837,0,0,1,4.751,1.713,10.205,10.205,0,0,1,2.25,4.509,1.913,1.913,0,0,1,.1,1.208c-.2.54-.821.775-1.371.946l-7.28,2.266a15.138,15.138,0,0,1,2.045-.2,2.677,2.677,0,0,1,2.227.274,2.6,2.6,0,0,1,.573.725,6.84,6.84,0,0,0,1.785,2.564,7.3,7.3,0,0,1-.022-2.046c.493-2.75,3.067-1.635,4.971-1.7a1.152,1.152,0,0,0,.589-.126,1.049,1.049,0,0,0,.374-.573,7.145,7.145,0,0,0-.818-5.872,14.519,14.519,0,0,0-4.29-4.3c-2.6-1.829-5.759-3.291-8.889-2.713.6-.734-.078-1.811-.8-2.426-2.288-1.95-7.948-4.657-10.427-1.834,1.68.531,3.393.314,5.009,1.253" transform="translate(-17.018 -114.794)" fill="#2b336b"/>
      <path id="Trazado_209251" data-name="Trazado 209251" d="M71.124,211.868a3.694,3.694,0,0,1,4.184,1.059,6.292,6.292,0,0,1,.921,3.3q.149,1.706.3,3.413a3.318,3.318,0,0,0,.826,2.212l4.193,5.727a28.279,28.279,0,0,1-2.67-5.547,34.443,34.443,0,0,1-.952-4.717q-.489-2.985-1.2-5.927a8.035,8.035,0,0,1-.333-2.2,2.543,2.543,0,0,1,.9-1.958,3.435,3.435,0,0,1,1.952-.512,4.467,4.467,0,0,1,2.686.529,3.91,3.91,0,0,1,1.451,2.535c.2.979.233,1.992.509,2.952.588,2.045,2.341,3.338,3.851,4.735q2.638,2.443,5.48,4.652c-.674-2.133-2.345-3.768-3.765-5.5A28.022,28.022,0,0,1,87.29,213.6a9.8,9.8,0,0,1-1.557-3.814,4.316,4.316,0,0,1,1.233-3.792,5.4,5.4,0,0,1,2.747-1.1,2.119,2.119,0,0,1,2.135.523,2,2,0,0,1,.272,1.019,9.507,9.507,0,0,1-.325,3.138A1.978,1.978,0,0,1,94,208.718a4.258,4.258,0,0,1,2.077,1.408,10.6,10.6,0,0,1,2.3,4.129,3.9,3.9,0,0,1,2.707-.847c-.372-.87-.712-1.974-.083-2.681.817-.916,2.327-.241,3.536-.455a14.676,14.676,0,0,0-3.966-1.431,5.478,5.478,0,0,1-3.421-2.3,1.028,1.028,0,0,1-.157-.672c.074-.372.459-.581.8-.738q2.378-1.079,4.835-1.971l-5.7.268a8.637,8.637,0,0,1-2.652-.149,14.229,14.229,0,0,1-2.3-1.025,10.918,10.918,0,0,0-2.844-.887,3.659,3.659,0,0,0-2.107.135,1.607,1.607,0,0,0-.99,1.712c-1.309-.443-2.5-1.178-3.8-1.649a4.976,4.976,0,0,0-4.022.008c-1.846,1-2.262,3.424-2.471,5.514a8.041,8.041,0,0,0-5.728,1.862c-1.123.952-3.489,3.994-2.778,5.659.406.951.957.048,1.424-.542a5.777,5.777,0,0,1,2.465-2.2" transform="translate(-31.077 -108.834)" fill="#2b336b"/>
    </g>
  </g>
</svg>
