<svg xmlns="http://www.w3.org/2000/svg" xmlns:xlink="http://www.w3.org/1999/xlink" width="400.878" height="376.466" viewBox="0 0 400.878 376.466">
  <defs>
    <clipPath id="clip-path">
      <rect id="Rectángulo_49225" data-name="Rectángulo 49225" width="34.149" height="107.455" fill="none"/>
    </clipPath>
    <clipPath id="clip-path-2">
      <rect id="Rectángulo_49226" data-name="Rectángulo 49226" width="67.826" height="102.017" fill="none"/>
    </clipPath>
    <clipPath id="clip-path-3">
      <rect id="Rectángulo_49227" data-name="Rectángulo 49227" width="47.686" height="175.494" fill="none"/>
    </clipPath>
    <clipPath id="clip-path-4">
      <rect id="Rectángulo_49228" data-name="Rectángulo 49228" width="56.561" height="105.233" fill="none"/>
    </clipPath>
    <clipPath id="clip-path-5">
      <rect id="Rectángulo_49229" data-name="Rectángulo 49229" width="77.657" height="89.464" fill="none"/>
    </clipPath>
    <clipPath id="clip-path-6">
      <rect id="Rectángulo_49230" data-name="Rectángulo 49230" width="23.007" height="18.756" fill="none"/>
    </clipPath>
    <clipPath id="clip-path-7">
      <rect id="Rectángulo_49231" data-name="Rectángulo 49231" width="233.695" height="341.552" fill="none"/>
    </clipPath>
    <clipPath id="clip-path-8">
      <rect id="Rectángulo_49232" data-name="Rectángulo 49232" width="164.939" height="112.321" fill="none"/>
    </clipPath>
    <clipPath id="clip-path-9">
      <rect id="Rectángulo_49233" data-name="Rectángulo 49233" width="47.628" height="209.374" fill="none"/>
    </clipPath>
    <clipPath id="clip-path-10">
      <rect id="Rectángulo_49234" data-name="Rectángulo 49234" width="44.597" height="165.779" fill="none"/>
    </clipPath>
  </defs>
  <g id="Grupo_170219" data-name="Grupo 170219" transform="translate(-812.733 -15006.692)">
    <path id="Trazado_210200" data-name="Trazado 210200" d="M10.923,96.03s-2.172,20.58-1.4,29.455" transform="translate(808.009 15086.355)" fill="none" stroke="#4c1d1d" stroke-miterlimit="10" stroke-width="0.818"/>
    <g id="Grupo_170217" data-name="Grupo 170217" transform="translate(812.733 15006.692)">
      <path id="Trazado_210196" data-name="Trazado 210196" d="M96.95,18.15S41.882,39.922,57.7,103.65s61.726,183.761,59.429,243.626c81.19,0,85.238.086,85.238.086l13.056-135.315L193.052,99.971Z" transform="translate(45.141 -5.719)" fill="#4c1d1d"/>
      <path id="Trazado_210197" data-name="Trazado 210197" d="M55.883,161.6c-2.207-23.236-3.421-39.522-3.949-47.2a5.623,5.623,0,0,0-5.36-5.23l-.107-.008a5.647,5.647,0,0,0-5.905,5.371l-.4,8.561s-3.021-21.747-2.541-31.851c-1.061-6.128-11.356-2.564-13.022,4.109-5.2-4.3-10.981,3.792-11.247,9.389-7,5.274-7.5,72.759-4.323,91.14S92.749,301.588,116.2,305.4a12.662,12.662,0,0,0,2.918.061c6.557-20.615,5.633-57.59,5.633-57.59S54.757,185.313,55.883,161.6" transform="translate(-7.149 70.953)" fill="#ff7e6e"/>
      <path id="Trazado_210198" data-name="Trazado 210198" d="M29.906,104.786l-.576,12.157A43.713,43.713,0,0,0,16.5,148.4" transform="translate(3.102 89.261)" fill="none" stroke="#4c1d1d" stroke-miterlimit="10" stroke-width="0.818"/>
      <path id="Trazado_210199" data-name="Trazado 210199" d="M16.339,91.552a347.806,347.806,0,0,0-1.652,34.818" transform="translate(1.105 74.752)" fill="none" stroke="#4c1d1d" stroke-miterlimit="10" stroke-width="0.818"/>
      <g id="Grupo_170189" data-name="Grupo 170189" transform="translate(0.001 160.014)" opacity="0.32" style="mix-blend-mode: overlay;isolation: isolate">
        <g id="Grupo_170188" data-name="Grupo 170188">
          <g id="Grupo_170187" data-name="Grupo 170187" clip-path="url(#clip-path)">
            <path id="Trazado_210201" data-name="Trazado 210201" d="M13.346,104.229c.266-5.6,6.05-13.685,11.247-9.387A10.119,10.119,0,0,1,30,88.551c.384,11.739,1.581,24.074,4.459,33.763,3.633,12.224,4.851,18.169,4.851,18.169s5.6,23.252-1.973,41.593S9.024,195.371,9.024,195.371c-3.178-18.378-2.679-85.867,4.323-91.142" transform="translate(-7.149 -88.551)" fill="#fefefe"/>
          </g>
        </g>
      </g>
      <g id="Grupo_170192" data-name="Grupo 170192" transform="translate(49.816 239.098)" opacity="0.49">
        <g id="Grupo_170191" data-name="Grupo 170191">
          <g id="Grupo_170190" data-name="Grupo 170190" clip-path="url(#clip-path-2)">
            <path id="Trazado_210202" data-name="Trazado 210202" d="M98.271,228.293c.667-12.4.423-22.292.423-22.292s-59-52.737-67.782-79.725c0,0,12.829,72.231,67.359,102.017" transform="translate(-30.912 -126.276)" fill="#842115"/>
          </g>
        </g>
      </g>
      <path id="Trazado_210203" data-name="Trazado 210203" d="M52.53,137.1s-2.937,39.629-29.091,50.351c17.93,19.29,48.316,60.81,77.815,64.271,12.687-34.631,8.914-62.791,8.914-62.791S60.5,148.58,52.53,137.1" transform="translate(10.711 124.689)" fill="#fefefe"/>
      <path id="Trazado_210204" data-name="Trazado 210204" d="M149.5,97.344a126.837,126.837,0,0,0-30.286,41.528c-11.8,26.108-49.741,93.647-49.741,93.647L60.56,295.31l74.25-35.3Z" transform="translate(51.408 81.102)" fill="#fefefe"/>
      <g id="Grupo_170195" data-name="Grupo 170195" transform="translate(153.22 178.447)" opacity="0.45">
        <g id="Grupo_170194" data-name="Grupo 170194">
          <g id="Grupo_170193" data-name="Grupo 170193" clip-path="url(#clip-path-3)">
            <path id="Trazado_210205" data-name="Trazado 210205" d="M127.924,97.344a121.641,121.641,0,0,0-21.213,25,236.945,236.945,0,0,1-9.073,48.509c-9.1,30.258-26.661,69.267-11.383,101.98l26.98-12.825Z" transform="translate(-80.238 -97.344)" fill="#a7646e"/>
          </g>
        </g>
      </g>
      <path id="Trazado_210206" data-name="Trazado 210206" d="M119.345,89.671a241.731,241.731,0,0,1-21.152,78.4c-18.687,39.656-4.494,100.8-4.494,100.8h82.308l-14.251-179.2-41.2.87" transform="translate(82.081 72.69)" fill="#fefefe"/>
      <path id="Trazado_210207" data-name="Trazado 210207" d="M65.3,65.453s1.279,25.017,2.321,28.376,8.61-.87,8.61-.87-9.2-25.319-10.93-27.506" transform="translate(56.607 46.14)" fill="#ff7e6e"/>
      <path id="Trazado_210208" data-name="Trazado 210208" d="M103.317,159.156s6.987,44.574,32.132,34.4-8.865-103.881-8.865-103.881Z" transform="translate(98.283 72.69)" fill="#f1d4cb"/>
      <path id="Trazado_210209" data-name="Trazado 210209" d="M113.4,102.346a240.349,240.349,0,0,1-17.9,55.7A71.586,71.586,0,0,0,91,170.9c16.7.629,26.212-22.94,26.212-22.94l7.192-49.14Z" transform="translate(84.78 82.716)" fill="#f1d4cb"/>
      <path id="Trazado_210210" data-name="Trazado 210210" d="M73.723,79.3s-4.052,1.62-5.325,1.39S72,76.172,72,76.172Z" transform="translate(59.768 57.891)" fill="#732a4f"/>
      <path id="Trazado_210211" data-name="Trazado 210211" d="M89.321,100.066s17.494,23.6,23.6,55.555,3.631,48.635,13.523,28.87,20.171-66.378,20.171-66.378l-31.7-59.324Z" transform="translate(82.939 38.834)" fill="#ff7e6e"/>
      <path id="Trazado_210212" data-name="Trazado 210212" d="M115.765,77.072s-2.9,29.7-12.291,48.523A142.931,142.931,0,0,0,89.32,100.067L114.914,58.79l2.323,4.348Z" transform="translate(82.938 38.835)" fill="#4c1d1d"/>
      <path id="Trazado_210213" data-name="Trazado 210213" d="M58.975,44.687s12.331,61.944,35.64,96.418a10.35,10.35,0,0,0,13.611,3.163c30.78-17.234,44.094-49.456,43.694-59.743-.434-11.161-64.78-58.586-92.944-39.838" transform="translate(49.67 18.619)" fill="#ff7e6e"/>
      <g id="Grupo_170198" data-name="Grupo 170198" transform="translate(108.646 58.984)" opacity="0.44" style="mix-blend-mode: overlay;isolation: isolate">
        <g id="Grupo_170197" data-name="Grupo 170197">
          <g id="Grupo_170196" data-name="Grupo 170196" clip-path="url(#clip-path-4)">
            <path id="Trazado_210214" data-name="Trazado 210214" d="M91.4,42.934c8.266,12.687,15.752,29.309,16.632,48.679,1.073,23.628,4.488,38.872,7.5,48.052-2.321,1.618-4.748,3.163-7.31,4.6A10.348,10.348,0,0,1,94.615,141.1C71.306,106.624,58.975,44.68,58.975,44.68c8.45-5.624,20.162-5.268,32.424-1.746" transform="translate(-58.976 -40.357)" fill="#fefefe"/>
          </g>
        </g>
      </g>
      <g id="Grupo_170201" data-name="Grupo 170201" transform="translate(149.772 80.959)" opacity="0.62" style="mix-blend-mode: multiply;isolation: isolate">
        <g id="Grupo_170200" data-name="Grupo 170200">
          <g id="Grupo_170199" data-name="Grupo 170199" clip-path="url(#clip-path-5)">
            <path id="Trazado_210215" data-name="Trazado 210215" d="M78.594,53.078s48.018,29.239,76.585,87.226c4.36-28.514-4.476-52.5-28.46-72.3S86.084,49.236,78.594,53.078" transform="translate(-78.593 -50.839)" fill="#2d0101"/>
          </g>
        </g>
      </g>
      <path id="Trazado_210216" data-name="Trazado 210216" d="M70,64.069l2.769,5.87s5.419-1.975,13.37-10.909c-7.8,14.756-15.622,17.779-15.622,17.779Z" transform="translate(61.761 39.097)" fill="#4c1d1d"/>
      <g id="Grupo_170204" data-name="Grupo 170204" transform="translate(150.765 104.692)" style="mix-blend-mode: multiply;isolation: isolate">
        <g id="Grupo_170203" data-name="Grupo 170203">
          <g id="Grupo_170202" data-name="Grupo 170202" clip-path="url(#clip-path-6)">
            <path id="Trazado_210217" data-name="Trazado 210217" d="M79.8,77.59c2.222,3.956,8.846,4.453,14.8,1.111s8.972-9.259,6.75-13.215-8.849-4.453-14.8-1.111S77.576,73.634,79.8,77.59" transform="translate(-79.067 -62.161)" fill="#e9a3a2"/>
          </g>
        </g>
      </g>
      <path id="Trazado_210218" data-name="Trazado 210218" d="M66.209,60.894s10.773-5.826,28.095-.887c-13.272-8.224-28.313-7.22-28.313-7.22Z" transform="translate(57.362 32.211)" fill="#a01431"/>
      <path id="Trazado_210219" data-name="Trazado 210219" d="M58.975,75.527s23.317,18.215,48.769,21.25,71.6,50.263,72.56,111.279S168.646,317.008,192.49,353.863c160.366,0,158.717-.813,158.717-.813s-51-31.782-70.772-132.28S223.016,22.678,152.9,13.279,58.977,59.756,58.975,75.527" transform="translate(49.67 -12.22)" fill="#a01431"/>
      <g id="Grupo_170207" data-name="Grupo 170207" transform="translate(167.183 0.006)" opacity="0.21" style="mix-blend-mode: multiply;isolation: isolate">
        <g id="Grupo_170206" data-name="Grupo 170206">
          <g id="Grupo_170205" data-name="Grupo 170205" clip-path="url(#clip-path-7)">
            <path id="Trazado_210220" data-name="Trazado 210220" d="M122.285,13.275c70.118,9.4,107.761,106.994,127.536,207.492s70.774,132.28,70.774,132.28,1.04.518-80.383.727c-8.714-22.519-9.884-60.556-5.507-116.337C240.658,161.573,204.519,82.1,164.66,59.425,136.854,43.6,104.148,24.471,86.9,14.346a100.893,100.893,0,0,1,35.386-1.071" transform="translate(-86.899 -12.222)" fill="#2d0101"/>
          </g>
        </g>
      </g>
      <path id="Trazado_210221" data-name="Trazado 210221" d="M75.926,67.778c6.019,11.576,0,12.039,0,12.039s-6.021-.463,0-12.039" transform="translate(65.32 48.689)" fill="#fefefe"/>
      <g id="Grupo_170210" data-name="Grupo 170210" transform="translate(138.942 0.002)" opacity="0.21" style="mix-blend-mode: multiply;isolation: isolate">
        <g id="Grupo_170209" data-name="Grupo 170209">
          <g id="Grupo_170208" data-name="Grupo 170208" clip-path="url(#clip-path-8)">
            <path id="Trazado_210222" data-name="Trazado 210222" d="M238.366,124.541C216.158,65.083,183.835,19.551,137.053,13.279,108.822,9.5,88.111,16.3,73.428,26.8,93.276,43.347,135.785,76.347,177.8,93.18c22.449,9,43.056,19.506,60.569,31.361" transform="translate(-73.427 -12.22)" fill="#2d0101"/>
          </g>
        </g>
      </g>
      <path id="Trazado_210223" data-name="Trazado 210223" d="M108.5,122.817s-13.234,30.1-9.117,71.476" transform="translate(93.1 109.029)" fill="none" stroke="#4c1d1d" stroke-linecap="round" stroke-miterlimit="10" stroke-width="0.897"/>
      <g id="Grupo_170213" data-name="Grupo 170213" transform="translate(246.734 132.264)" opacity="0.21">
        <g id="Grupo_170212" data-name="Grupo 170212">
          <g id="Grupo_170211" data-name="Grupo 170211" clip-path="url(#clip-path-9)">
            <path id="Trazado_210224" data-name="Trazado 210224" d="M146.147,211.231c-3.895-43.738.486-83.828-7.469-113.042s-17.362-27.751-12.494-10.71,6.817,42.358,4.383,80.335c-10.446,52.947,3.082,97.338,10.834,116.872,11.255,0,21.586-.015,31.074-.027-9.75-16.815-23.825-45.329-26.328-73.428" transform="translate(-124.847 -75.314)" fill="#f1d4cb"/>
          </g>
        </g>
      </g>
      <g id="Grupo_170216" data-name="Grupo 170216" transform="translate(242.996 97.623)" opacity="0.21" style="mix-blend-mode: multiply;isolation: isolate">
        <g id="Grupo_170215" data-name="Grupo 170215">
          <g id="Grupo_170214" data-name="Grupo 170214" clip-path="url(#clip-path-10)">
            <path id="Trazado_210225" data-name="Trazado 210225" d="M123.064,58.789S171.891,94.171,164.1,224.568c11.014-82.134-3.742-145.038-41.033-165.779" transform="translate(-123.064 -58.789)" fill="#2d0101"/>
          </g>
        </g>
      </g>
      <path id="Trazado_210226" data-name="Trazado 210226" d="M71.716,81.953a30.324,30.324,0,0,1,8.568-1.727c-5.532,1.52-7.92,3.256-7.92,3.256Z" transform="translate(63.638 62.336)" fill="#4c1d1d"/>
      <line id="Línea_177" data-name="Línea 177" x2="27.026" y2="18.886" transform="translate(120.879 313.621)" fill="none" stroke="#4c1d1d" stroke-linecap="round" stroke-miterlimit="10" stroke-width="0.897"/>
    </g>
  </g>
</svg>
