<svg id="Grupo_165306" data-name="Grupo 165306" xmlns="http://www.w3.org/2000/svg" xmlns:xlink="http://www.w3.org/1999/xlink" width="189.547" height="227.335" viewBox="0 0 189.547 227.335">
  <defs>
    <clipPath id="clip-path">
      <rect id="Rectángulo_48964" data-name="Rectángulo 48964" width="189.547" height="227.335" fill="none"/>
    </clipPath>
    <clipPath id="clip-path-2">
      <path id="Trazado_209226" data-name="Trazado 209226" d="M110.709.009C93.556.4,37.694,19.4,32.174,31.029s5.98,35.62-13.735,51.59C6.783,92.059,1.539,102.67.3,113.76l-.12,1.27Q0,117.069,0,119.126v.235a68.084,68.084,0,0,0,2.665,17.872c5.323,19.322,27.8,33.714,27.8,33.714,2.366,1.577,4.337,7.3,3.548,13.407s1.972,8.872,3.747,7.689-.2-14.2,1.183-15.181,16.759,7.492,21.885,8.872,7.887,5.323,7.295,8.872.394,7.295,3.549,6.309,1.577-8.873,2.366-10.647,8.675-.592,10.844.788c2.015.82,2.285,6.3,1.892,12.314s2.168,5.915,4.14,5.619S91.8,199.526,92.1,194.7c.2-3.238.963-4.386,1.446-4.793a.605.605,0,0,1,.384-.22l.024-.005c3.155-.2,21.885-5.915,25.631-8.083s8.084-3.747,8.872-1.183-.591,14.984-.394,19.519,4.14,3.352,5.126,1.183-.986-18.533-.986-21.885,2.957-5.718,4.929-6.7,2.957.789,3.746,4.535.2,21.294-.591,27.6,3.154,4.929,4.338,3.154-.2-19.717-.394-27.011a25.636,25.636,0,0,1,2.563-12.224c4.448-1.27,18.152-8.195,28.757-18.341l.737-.715c5.521-5.436,10.1-11.755,11.909-18.6a39.73,39.73,0,0,0,.992-5.135l.112-.959c1.1-10.44-1.494-21.934-6.287-32.3l-.319-.67a77.854,77.854,0,0,0-8.376-13.816l-2.342-2.9a61.536,61.536,0,0,0-4.482-4.75C152.507,56.2,149.155,48.9,145.8,30.569,142.5,12.512,128.3,0,111.49,0c-.26,0-.52,0-.782.009" fill="none"/>
    </clipPath>
  </defs>
  <g id="Grupo_165303" data-name="Grupo 165303">
    <g id="Grupo_165302" data-name="Grupo 165302" clip-path="url(#clip-path)">
      <path id="Trazado_209190" data-name="Trazado 209190" d="M182.691,91.86a77.835,77.835,0,0,0-8.377-13.816l-19.048,9.11s18.5,2.82,27.425,4.706M23.761,106.476l13.013-4.732L153.887,86.76l18.087-11.616a61.422,61.422,0,0,0-4.482-4.749C152.507,56.2,149.155,48.9,145.8,30.569S127.862-.385,110.708.009,54.715,28.6,49.194,40.23s-11.041,26.42-30.757,42.39C6.783,92.059,1.538,102.671.295,113.761l12.03-3.342ZM183.01,92.529l-28.532-4.784S37.956,103.518,36.971,103.912c-.817.327-27.637,8.373-36.8,11.118a63.623,63.623,0,0,0,2.49,22.2c5.323,19.322,27.8,33.714,27.8,33.714,2.366,1.577,4.338,7.295,3.549,13.407s1.972,8.872,3.746,7.689-.2-14.2,1.183-15.181,16.758,7.492,21.885,8.872,7.886,5.323,7.295,8.872.394,7.295,3.549,6.309,1.577-8.872,2.366-10.647,8.675-.591,10.844.789c2.016.82,2.286,6.3,1.892,12.314s2.169,5.915,4.141,5.619S91.8,199.527,92.1,194.7c.2-3.238.962-4.386,1.446-4.794a.6.6,0,0,1,.384-.219l.025-.005c3.155-.2,21.885-5.915,25.631-8.084s8.084-3.746,8.872-1.183-.591,14.984-.394,19.519,4.141,3.352,5.127,1.183-.986-18.533-.986-21.885,2.958-5.717,4.929-6.7,2.958.789,3.746,4.535.2,21.293-.591,27.6,3.154,4.929,4.337,3.155-.2-19.716-.394-27.011a25.636,25.636,0,0,1,2.563-12.224c4.448-1.271,18.152-8.2,28.757-18.342l-7.267-8.767s.1-10.154-1.38-15.477l11.534-2.662,10.864,1.5c1.1-10.44-1.494-21.934-6.287-32.3m-14.336,34.155s1.084,11.139.788,14.294l6.82,8.546c5.521-5.437,10.1-11.756,11.91-18.6a39.8,39.8,0,0,0,.992-5.135l-10.751-1.765Z" transform="translate(0 0)" fill="#ff5267"/>
    </g>
  </g>
  <g id="Grupo_165305" data-name="Grupo 165305">
    <g id="Grupo_165304" data-name="Grupo 165304" clip-path="url(#clip-path-2)">
      <path id="Trazado_209191" data-name="Trazado 209191" d="M178.271,87.836c-4.338-8.281-5.718-26.616-12.421-38.84A49.8,49.8,0,0,0,147.513,30.66l-2.563,1.38-16.167-3.154C97.04,16.465,82.451,50.573,82.845,59.248s-2.366,27.011-4.338,46.53a41.968,41.968,0,0,0,9.464,31.546c-2.366-4.732-.986-14-.986-14,2.563,13.8,14.984,19.124,14.984,19.124-3.746-4.141-4.929-11.041-4.929-11.041,10.252,18.336,34.784,21.825,51.262,17.547,6.106-1.585,11.268-7.241,11.041-6.966a60.534,60.534,0,0,1-.789,9.464,24.269,24.269,0,0,0,7.1-10.647,84.037,84.037,0,0,0,3.154-15.9c6.507,5.718,2.761,14.984,2.761,14.984,15.97-10.844,11.041-43.769,6.7-52.05" transform="translate(-36.213 -12.118)" fill="#0c1153"/>
      <path id="Trazado_209192" data-name="Trazado 209192" d="M82.391,59.82s-9.858,17.744-18.73,22.87c0,0,10.253-5.126,14.787-10.252S82.391,59.82,82.391,59.82" transform="translate(-29.451 -27.674)" fill="#0c1153"/>
      <path id="Trazado_209193" data-name="Trazado 209193" d="M182.9,23.761s12.224-1.183,17.547-9.069c0,0-7.689,9.858-13.8,11.633Z" transform="translate(-84.613 -6.797)" fill="#0c1153"/>
      <path id="Trazado_209194" data-name="Trazado 209194" d="M243.071,77.431s6.506,11.041,14.984,15.378c0,0-7.689-1.577-12.815-5.52Z" transform="translate(-112.449 -35.821)" fill="#0c1153"/>
      <path id="Trazado_209195" data-name="Trazado 209195" d="M175.468,262.432c-.9-2.348-3.692-5.837-7.457-9.112a45.857,45.857,0,0,0-4.212-3.27,33.607,33.607,0,0,0-10.375-4.956,19.438,19.438,0,0,0-3.83-.606c-.5-.026-1.019-.071-1.539-.132a38.279,38.279,0,0,1-6.372-1.35,90.838,90.838,0,0,1-18.351-8.175l-12.361.193-12.357-.193a.21.21,0,0,0-.025.015l-.056.035c-.2.112-.718.423-1.508.861-.112.061-.229.127-.351.193-.1.051-.193.107-.3.163-.356.193-.749.407-1.176.631l-.423.219c-.856.448-1.828.943-2.888,1.452-.219.107-.448.219-.677.326-.341.163-.7.326-1.054.489-1.258.581-2.613,1.171-4.024,1.737-.738.3-1.492.586-2.256.861-.255.1-.514.183-.769.275q-1.108.389-2.231.734c-.234.071-.469.142-.7.208-.265.076-.53.153-.795.224q-.374.107-.749.2c-.5.127-1,.249-1.492.356-.52.112-1.039.214-1.554.3-.183.035-.367.061-.55.091-.55.087-1.09.153-1.625.2-.356.036-.708.061-1.059.082-.275.015-.55.035-.83.066-10.981,1.105-22.976,12.494-25.049,17.878-2.124,5.521-1.156,17.348,1.548,28.788.077.328,7.744,44.753,7.744,44.753l113.17-.591,6.112-48.7s2.263-19.458.419-24.25" transform="translate(-20.965 -108.638)" fill="#0c1153"/>
      <path id="Trazado_209196" data-name="Trazado 209196" d="M190.571,253.32c-2.613,1.2-8.429,3.84-11.037,4.64a98.3,98.3,0,0,1-10.446,1.492c-2.155.245-4.411.489-6.55.718-5.48.591-10.166,1.105-10.339,1.34-.4.525-4.732,6.575-4.732,6.575a24.24,24.24,0,0,1-.53-3.29c0-.917-1.182-1.706-2.628-2.888a12.436,12.436,0,0,1-1.838-1.712s-.321,0-.912-.02l-1.248-.04c-2.8-.112-8.068-.413-14.256-1.192-.454-.051-.912-.112-1.375-.173-1.94-.265-3.952-.571-6-.937a28.832,28.832,0,0,1-3.443-.856,44.672,44.672,0,0,1-7.553-3.214,72.471,72.471,0,0,1-6.484-3.9c-.214-.142-.428-.29-.636-.433-2.771-1.895-5.043-3.688-6.479-4.875.281-.031.556-.05.83-.066.351-.02.7-.046,1.06-.082.535-.051,1.075-.117,1.625-.2.183-.025.367-.056.55-.091.514-.086,1.034-.189,1.554-.3.494-.107.993-.229,1.492-.357q.374-.092.749-.2c.265-.071.53-.147.795-.224.234-.066.469-.138.7-.209q1.123-.344,2.231-.734c.255-.092.514-.178.769-.275.764-.275,1.518-.565,2.256-.861,1.406-.56,2.761-1.151,4.024-1.737.183-.081.361-.168.545-.249s.341-.158.509-.24c.214-.1.423-.2.627-.3.016-.01.036-.015.051-.025,1.059-.509,2.032-1,2.888-1.451.142-.071.285-.148.423-.219.428-.224.82-.438,1.176-.631.1-.056.2-.112.3-.163.066-.036.132-.071.193-.107s.107-.056.158-.087c.789-.438,1.309-.749,1.507-.861.02-.015.041-.025.056-.035a.215.215,0,0,1,.025-.015l12.357.193,7.8-.123,4.559-.071s.6.356,1.635.937c.189.107.4.219.622.341a87.023,87.023,0,0,0,16.095,6.9,38.223,38.223,0,0,0,6.372,1.35c.52.061,1.034.107,1.538.132a19.433,19.433,0,0,1,3.83.606,33.606,33.606,0,0,1,10.375,4.956,46.029,46.029,0,0,1,4.212,3.27" transform="translate(-43.525 -108.637)" fill="#fff"/>
      <path id="Trazado_209197" data-name="Trazado 209197" d="M121.362,269.725a44.674,44.674,0,0,1-7.553-3.214,72.471,72.471,0,0,1-6.484-3.9,18.688,18.688,0,0,1,6.458.189,13.8,13.8,0,0,1,4.808,1.447,4.142,4.142,0,0,1,1.7,1.518,8.926,8.926,0,0,1,.693,2.343c.127.54.26,1.08.382,1.62" transform="translate(-49.651 -121.385)" fill="#ff5267"/>
      <path id="Trazado_209198" data-name="Trazado 209198" d="M185.653,269.862l-4.3,6.52-1.248-.041Z" transform="translate(-83.32 -124.843)" fill="#ff5267"/>
      <path id="Trazado_209199" data-name="Trazado 209199" d="M229.546,251.393a90.953,90.953,0,0,0-1.528,15.1c-2.155.245-4.411.489-6.55.718a138.673,138.673,0,0,1,1.706-17.165,38.157,38.157,0,0,0,6.372,1.35" transform="translate(-102.455 -115.675)" fill="#0c1153"/>
      <path id="Trazado_209200" data-name="Trazado 209200" d="M112.519,260.011a72.584,72.584,0,0,1-7.12-4.335c-.275-1.869-.581-3.85-.861-5.618.494-.107.993-.229,1.492-.357.249-.061.5-.127.749-.2.265-.071.53-.148.795-.224.234-.066.469-.138.7-.209q1.123-.343,2.231-.734c.494,2.557,1.36,7.2,2.012,11.674" transform="translate(-48.361 -114.885)" fill="#0c1153"/>
      <path id="Trazado_209201" data-name="Trazado 209201" d="M130.913,241.523l4.854,7.314c-1.1-1.522-4.324-5-5.99-6.774.174-.082.341-.158.509-.24.214-.1.423-.2.627-.3" transform="translate(-60.037 -111.733)" fill="#ff5267"/>
      <path id="Trazado_209202" data-name="Trazado 209202" d="M101.414,108.767s-2.188-15.351,4.755-24.829l-3.382,24.829Z" transform="translate(-46.765 -38.831)" fill="#fff"/>
      <path id="Trazado_209203" data-name="Trazado 209203" d="M169.216,193.242a17.629,17.629,0,0,0-.474,2.541c-.061.443-.117.922-.168,1.432-.183,1.752-.341,3.846-.469,6.041-.291,4.859-.458,10.187-.535,13.273-.005.184-.01.357-.016.52-.031,1.3-.046,2.088-.046,2.088a44.448,44.448,0,0,1-6.708,1.579c-3.545.525-21.422.79-21.29-2.5.016-.362,0-.922-.041-1.63-.224-4.36-1.3-14.373-1.8-18.922-.158-1.431-.26-2.323-.26-2.323l21.962-1.451Z" transform="translate(-63.568 -89.397)" fill="#fff"/>
      <path id="Trazado_209204" data-name="Trazado 209204" d="M168.741,196.344c-.061.443-.117.922-.168,1.431-2.822,2.165-10.8,7.966-16.181,8.715-.78.107-10.93-5.1-14.725-8.261-.158-1.431-.26-2.323-.26-2.323l21.963-1.451c4.156.524,7.742,1.161,9.371,1.889" transform="translate(-63.567 -89.959)" fill="#0c1153"/>
      <path id="Trazado_209205" data-name="Trazado 209205" d="M171.321,90.139c-.3,4.07-.142,13.9-3.4,23.51a38.8,38.8,0,0,1-4.09,8.628,30.907,30.907,0,0,1-6.759,7.273,60.207,60.207,0,0,1-18.28,9.484,25.665,25.665,0,0,1-7.538-2.913,77.463,77.463,0,0,1-6.728-3.983c-.53-.351-1.049-.708-1.564-1.065a58.547,58.547,0,0,1-5.379-4.2c-.733-.657-1.4-1.3-1.981-1.93a14.663,14.663,0,0,1-1.65-2.078,16.556,16.556,0,0,1-1.457-3.219c-.234-.672-.469-1.406-.688-2.175-.524-1.793-1.008-3.809-1.446-5.888-1.737-8.18-2.8-17.307-2.8-17.307a57.644,57.644,0,0,1,1.069-19.717c1.971-9.662,16.166-28.39,39.035-20.7s24.055,30.952,23.658,36.275" transform="translate(-49.573 -24.082)" fill="#fff"/>
      <path id="Trazado_209206" data-name="Trazado 209206" d="M200.787,145.61a24.727,24.727,0,0,1,2.662,5.225c.789,2.464,1.577,5.224,1.577,5.224s-.493-4.929-1.282-6.506a23.94,23.94,0,0,0-2.957-3.943" transform="translate(-92.888 -67.362)" fill="#ff5267"/>
      <path id="Trazado_209207" data-name="Trazado 209207" d="M198.219,159.369s3.549,3.648,3.943,4.141a15.78,15.78,0,0,1,1.084,1.873s-2.662-2.957-2.958-3.154a33.415,33.415,0,0,1-2.07-2.859" transform="translate(-91.7 -73.727)" fill="#ff5267"/>
      <path id="Trazado_209208" data-name="Trazado 209208" d="M202.671,87.076a9.17,9.17,0,0,0-1.5-2.989,23.377,23.377,0,0,0-4.827-4.623,8.163,8.163,0,0,0-6.1-1.914,7.98,7.98,0,0,0-5.264,3.535,5.139,5.139,0,0,0,.389,5.9,15.776,15.776,0,0,0,2.86,2.82q1.743,1.441,3.5,2.87l.1.081a9.366,9.366,0,0,0,2.913,2.124c1.756.837,4.153,1.382,6.032.63,1.91-.765,2.174-2.867,2.215-4.677a12.773,12.773,0,0,0-.31-3.755" transform="translate(-85.224 -35.841)" fill="#ff5267"/>
      <path id="Trazado_209209" data-name="Trazado 209209" d="M221,130.088s4.338-5.652,7.755-1.183-2.629,13.012-8.675,15.247Z" transform="translate(-101.813 -58.838)" fill="#fff"/>
      <path id="Trazado_209210" data-name="Trazado 209210" d="M105.794,130.088s-4.338-5.652-7.755-1.183,2.629,13.012,8.675,15.247Z" transform="translate(-44.897 -58.838)" fill="#fff"/>
      <path id="Trazado_209211" data-name="Trazado 209211" d="M205.293,68.188c-.789,10.054-7.1,21.881-7.1,21.881a35.275,35.275,0,0,1-2.567-6.112c-1.772-4.925-9.856-18.137-20.7-27.6a17.505,17.505,0,0,1-2.215-2.318,17.182,17.182,0,0,1-1.426-2.088c-5.486-9.478-.7-21.814-.7-21.814s6.7-3.749,18.733,1.772,16.757,26.22,15.968,36.28" transform="translate(-78.024 -13.366)" fill="#0c1153"/>
      <path id="Trazado_209212" data-name="Trazado 209212" d="M174.983,60.34a17.182,17.182,0,0,1-1.426-2.088l2.1-15.738c3.724,9.3.311,16.156-.672,17.827" transform="translate(-80.291 -19.667)" fill="#fff"/>
      <path id="Trazado_209213" data-name="Trazado 209213" d="M186.753,82.017s12.125,22.772,13.407,25.434a73.2,73.2,0,0,1,2.957,9.069s-.493-5.915-4.436-14.2-10.844-20.11-10.844-20.11Z" transform="translate(-86.395 -37.943)" fill="#0c1153"/>
      <path id="Trazado_209214" data-name="Trazado 209214" d="M116.221,76.488s-1.615,4.232-3.311,10.391a117.544,117.544,0,0,0-3.27,15.712,53.138,53.138,0,0,0,.076,16.681s-8.083-15.382-6.9-29.576a30.048,30.048,0,0,1,5.669-15.816,21.731,21.731,0,0,1,5.353-5.128,11.961,11.961,0,0,1,2.583-1.334c3.942-1.381-.2,9.07-.2,9.07" transform="translate(-47.51 -31.131)" fill="#0c1153"/>
      <path id="Trazado_209215" data-name="Trazado 209215" d="M118.474,55.981l-.382,7.538-.927,18.127a117.461,117.461,0,0,0-3.27,15.712s-3.585-15.616-1.156-28.711c.907-4.89,2.654-9.422,5.735-12.667" transform="translate(-51.765 -25.898)" fill="#fff"/>
      <path id="Trazado_209216" data-name="Trazado 209216" d="M145,31.125s7.689,11.633,1.972,22.477-15.182,15.97-22.082,20.307-9.069,12.421-9.069,12.421-6.309-25.63,1.183-38.643,21.688-17.35,28-16.562" transform="translate(-52.433 -14.358)" fill="#0c1153"/>
      <path id="Trazado_209217" data-name="Trazado 209217" d="M156.5,71.744s-1.084,9.365-5.422,13.9-10.449,7.492-12.815,9.267a39.7,39.7,0,0,0-4.338,3.844,34.141,34.141,0,0,1,4.732-4.633c2.169-1.577,10.844-7.393,12.323-10.055s2.76-9.365,2.76-9.365Z" transform="translate(-61.954 -33.19)" fill="#0c1153"/>
      <path id="Trazado_209218" data-name="Trazado 209218" d="M155.6,77.247s.789,5.816-1.38,8.577-16.266,7.886-16.266,7.886l1.084-1.478s13.407-5.422,14.59-6.9.789-7.591.789-7.591Z" transform="translate(-63.821 -35.736)" fill="#0c1153"/>
      <path id="Trazado_209219" data-name="Trazado 209219" d="M168.757,153.9a38.811,38.811,0,0,1-4.091,8.628,30.913,30.913,0,0,1-6.759,7.273,14.741,14.741,0,0,0-4.971.612c-2.363,1.085-14.1,3.158-15.774,3.845-.7.285-2.76,1.187-5.073,2.114-3.245,1.3-6.983,2.654-8.134,2.419-1.971-.392-3.646-2.761-3.55-3.153a46.483,46.483,0,0,1,4.956-3.25c2.5-1.543,5.038-3.061,5.2-3.153-.178.056-3.55,1.177-6.759,2.088-2.556.734-5.012,1.335-5.659,1.161-1.477-.4-3.152-3.453-2.858-3.845a25.55,25.55,0,0,1,3.138-1.513c3.391-1.518,8.353-3.611,8.581-3.708-.311.061-6.509,1.309-10.563,1.778-1.787.2-3.158.26-3.427-.01-.887-.886-2.267-3.743-1.38-4.63a5.423,5.423,0,0,1,1.7-.657c3.657-1.044,11.832-2.572,12.463-2.689-.642.031-9.789.479-13.15.514a7.671,7.671,0,0,1-1.207-.031c-.591-.193-2.465-.784-2.465-2.165s-.1-3.55.886-3.652c.127-.015.606-.025,1.34-.041,4.884-.107,21.158-.254,21.927-.254.886,0,2.067-.489,1.772-.983s-2.658-1.477-5.419-2.465-6.606-5.817-6.31-7a14.268,14.268,0,0,1,.688-2.073c1.778,2.169,8.281,3.647,10.355,4.339s17.052,8.18,19.812,8.969c2.358.672,11.974,1.349,14.736,1.528" transform="translate(-50.411 -64.335)" fill="#ff5267"/>
      <path id="Trazado_209220" data-name="Trazado 209220" d="M187.688,225.49c-.056.02-.112.041-.168.056-.158.046-.311.087-.469.123a10.073,10.073,0,0,1-2.923.249c-.173-.051-.347-.107-.514-.168a9.305,9.305,0,0,1-2.741-1.467,3.822,3.822,0,0,1-1.08-1.355,4.059,4.059,0,0,1,.7-3.861,19.734,19.734,0,0,1,3.463-3.107,9.334,9.334,0,0,0,1.7-2.012,6.632,6.632,0,0,1,1.446-1.747,4.182,4.182,0,0,1,.494-.326c-.29,4.859-.458,10.187-.535,13.273.188.107.4.219.621.341" transform="translate(-83.063 -98.017)" fill="#ff5267"/>
      <path id="Trazado_209221" data-name="Trazado 209221" d="M146.22,222.529A1.756,1.756,0,0,0,144.9,224.2a5.925,5.925,0,0,0-.1,1.39,1.988,1.988,0,0,0,.309,1.318c.645.732,1.7.239,2.226-.357a2.833,2.833,0,0,0,.741-2.511,1.849,1.849,0,0,0-1.857-1.506" transform="translate(-66.987 -102.94)" fill="#ff5267"/>
      <path id="Trazado_209222" data-name="Trazado 209222" d="M156.905,219.572a1.327,1.327,0,0,0-.332-.516,2.345,2.345,0,0,0-.247-.209.841.841,0,0,0-.077-.048.153.153,0,0,0-.26-.115.172.172,0,0,0-.185.057.185.185,0,0,0,0,.212c-.188.283-.378.564-.563.848a.51.51,0,0,0-.034.573.746.746,0,0,0,.437.265,1.085,1.085,0,0,0,1.069-.136.933.933,0,0,0,.192-.93" transform="translate(-71.767 -101.147)" fill="#ff5267"/>
      <path id="Trazado_209223" data-name="Trazado 209223" d="M101.635,43.76s8.774-13.308,23.462-14.393c0,0-14.393-.3-23.462,14.393" transform="translate(-47.018 -13.586)" fill="#fff"/>
      <path id="Trazado_209224" data-name="Trazado 209224" d="M124.749,36.082a35.707,35.707,0,0,1,19.1-3.746s-10.816-2.169-19.1,3.746" transform="translate(-57.711 -14.78)" fill="#fff"/>
      <path id="Trazado_209225" data-name="Trazado 209225" d="M201.429,37.256s12.323,4.338,16.857,14.2a37.676,37.676,0,0,0-16.857-14.2" transform="translate(-93.185 -17.235)" fill="#fff"/>
    </g>
  </g>
</svg>
