<svg id="Grupo_170292" data-name="Grupo 170292" xmlns="http://www.w3.org/2000/svg" xmlns:xlink="http://www.w3.org/1999/xlink" width="610" height="331.289" viewBox="0 0 610 331.289">
  <defs>
    <clipPath id="clip-path">
      <rect id="Rectángulo_49282" data-name="Rectángulo 49282" width="610" height="331.289" fill="none"/>
    </clipPath>
    <clipPath id="clip-path-3">
      <rect id="Rectángulo_49270" data-name="Rectángulo 49270" width="399.759" height="138.706" fill="none"/>
    </clipPath>
    <clipPath id="clip-path-4">
      <rect id="Rectángulo_49271" data-name="Rectángulo 49271" width="160.917" height="138.706" fill="none"/>
    </clipPath>
    <clipPath id="clip-path-5">
      <rect id="Rectángulo_49272" data-name="Rectángulo 49272" width="169.28" height="145.923" fill="none"/>
    </clipPath>
    <clipPath id="clip-path-6">
      <rect id="Rectángulo_49273" data-name="Rectángulo 49273" width="30.699" height="126.803" fill="none"/>
    </clipPath>
    <clipPath id="clip-path-7">
      <rect id="Rectángulo_49274" data-name="Rectángulo 49274" width="20.713" height="6.081" fill="none"/>
    </clipPath>
    <clipPath id="clip-path-8">
      <rect id="Rectángulo_49275" data-name="Rectángulo 49275" width="16.001" height="13.1" fill="none"/>
    </clipPath>
    <clipPath id="clip-path-9">
      <rect id="Rectángulo_49276" data-name="Rectángulo 49276" width="17.003" height="14.397" fill="none"/>
    </clipPath>
    <clipPath id="clip-path-10">
      <rect id="Rectángulo_49277" data-name="Rectángulo 49277" width="24.349" height="7.149" fill="none"/>
    </clipPath>
    <clipPath id="clip-path-11">
      <rect id="Rectángulo_49278" data-name="Rectángulo 49278" width="18.811" height="15.4" fill="none"/>
    </clipPath>
    <clipPath id="clip-path-12">
      <rect id="Rectángulo_49279" data-name="Rectángulo 49279" width="19.989" height="16.923" fill="none"/>
    </clipPath>
    <clipPath id="clip-path-13">
      <rect id="Rectángulo_49280" data-name="Rectángulo 49280" width="26.84" height="123.349" fill="none"/>
    </clipPath>
  </defs>
  <g id="Grupo_170291" data-name="Grupo 170291" clip-path="url(#clip-path)">
    <g id="Grupo_170290" data-name="Grupo 170290">
      <g id="Grupo_170289" data-name="Grupo 170289" clip-path="url(#clip-path)">
        <g id="Grupo_170258" data-name="Grupo 170258" transform="translate(51.381 130.553)" opacity="0.6">
          <g id="Grupo_170257" data-name="Grupo 170257">
            <g id="Grupo_170256" data-name="Grupo 170256" clip-path="url(#clip-path-3)">
              <path id="Trazado_210418" data-name="Trazado 210418" d="M223.274,198.336c3.076,6.1,12.392,21.76,15.753,28.6s8.847,14.012,12.726,20.571c8.478,14.338,25.305,22.259,41.916,23.509,9.666.727,19.621-.482,28.9,2.332a34.861,34.861,0,0,1,20.7,17.353" transform="translate(-75.745 -152.196)" fill="none" stroke="#eae3ff" stroke-miterlimit="10" stroke-width="1"/>
              <path id="Trazado_210419" data-name="Trazado 210419" d="M177.908,176.429c.673-1.782,1.5-2.606,3.392-2.442,6.373.551,15.237,4.952,21.166,8.475a54.4,54.4,0,0,1-10.215-8.737c-4.343-5.138-7.383-8.124-6.243-10.548a2.655,2.655,0,0,1,3.527-1.107c7.317,3.344,12.855,9.279,17.878,14.515-4.959-7.932-10.469-20.3-9.807-22.078,2.166-5.369,6.755-3.128,10.838,6.545,1.637,3.881,3.694,7.556,5.054,11.542q-.414-10.135-.829-20.269c-.094-2.314.211-5.271,2.693-5.727a3.738,3.738,0,0,1,4.064,2.521,51.411,51.411,0,0,1,2.805,23.142q2.082-11.053,4.165-22.1c.3-1.572.8-3.422,2.768-3.488A3.067,3.067,0,0,1,232.153,149a58.184,58.184,0,0,1-10.38,49.782l-.617.692c-13.421.431-23.883-7.153-34.455-14.445-2.48-1.71-9.99-5.433-8.794-8.605" transform="translate(-70.781 -146.544)" fill="#eae3ff"/>
              <path id="Trazado_210420" data-name="Trazado 210420" d="M499.391,184.385c-.672-1.782-1.5-2.606-3.392-2.442-6.373.551-15.236,4.952-21.166,8.475a54.4,54.4,0,0,0,10.215-8.737c4.343-5.138,7.383-8.123,6.243-10.548a2.655,2.655,0,0,0-3.527-1.107c-7.317,3.344-12.855,9.279-17.877,14.515,4.959-7.932,10.468-20.3,9.806-22.078-2.166-5.369-6.755-3.128-10.838,6.545-1.637,3.881-3.694,7.556-5.054,11.542q.414-10.135.829-20.269c.094-2.314-.211-5.271-2.693-5.727a3.738,3.738,0,0,0-4.064,2.521,51.412,51.412,0,0,0-2.805,23.142q-2.082-11.053-4.165-22.1c-.3-1.572-.8-3.422-2.768-3.488a3.067,3.067,0,0,0-2.988,2.333,58.184,58.184,0,0,0,10.38,49.782l.617.693c13.42.43,23.882-7.154,34.454-14.446,2.48-1.71,9.99-5.433,8.794-8.605" transform="translate(-99.761 -147.412)" fill="#eae3ff"/>
              <path id="Trazado_210421" data-name="Trazado 210421" d="M57.755,180.818c-.211-1.114-.047-1.789.968-2.294,3.412-1.7,9.285-2.207,13.393-2.255a32.412,32.412,0,0,1-7.9-1.275c-3.8-1.266-6.274-1.841-6.446-3.428a1.581,1.581,0,0,1,1.45-1.657c4.758-.569,9.416.731,13.594,1.837-4.982-2.5-11.62-7.076-11.834-8.186-.565-3.4,2.465-3.686,7.541-.033,2.037,1.465,4.223,2.7,6.15,4.3l-6.707-10.052c-.766-1.147-1.528-2.746-.407-3.747a2.225,2.225,0,0,1,2.849.021,30.619,30.619,0,0,1,8.6,10.9q-2.368-6.266-4.737-12.533c-.337-.891-.656-1.988.325-2.632a1.829,1.829,0,0,1,2.244.259A34.658,34.658,0,0,1,87,178.583l-.1.543c-6.692,4.381-14.365,3.769-22,3.34-1.792-.1-6.766.336-7.141-1.649" transform="translate(-57.675 -146.868)" fill="#eae3ff"/>
              <path id="Trazado_210422" data-name="Trazado 210422" d="M113.386,209.548a49.057,49.057,0,0,0-34.144-34.192" transform="translate(-60.028 -149.688)" fill="none" stroke="#eae3ff" stroke-miterlimit="10" stroke-width="1"/>
            </g>
          </g>
        </g>
        <g id="Grupo_170261" data-name="Grupo 170261" transform="translate(198.265)" opacity="0.6">
          <g id="Grupo_170260" data-name="Grupo 170260">
            <g id="Grupo_170259" data-name="Grupo 170259" clip-path="url(#clip-path-4)">
              <path id="Trazado_210423" data-name="Trazado 210423" d="M268.044,51.792c3.076,6.1,12.392,21.76,15.753,28.6s8.847,14.012,12.726,20.571c8.478,14.338,25.305,22.26,41.916,23.509,9.666.727,19.621-.482,28.9,2.332a34.861,34.861,0,0,1,20.7,17.353" transform="translate(-227.514 -5.652)" fill="none" stroke="#eae3ff" stroke-miterlimit="10" stroke-width="1"/>
              <path id="Trazado_210424" data-name="Trazado 210424" d="M222.678,29.884c.672-1.782,1.5-2.606,3.392-2.442,6.373.551,15.236,4.952,21.166,8.475a54.4,54.4,0,0,1-10.215-8.737c-4.343-5.138-7.383-8.124-6.243-10.548a2.655,2.655,0,0,1,3.527-1.107c7.317,3.344,12.855,9.279,17.877,14.515-4.959-7.932-10.468-20.3-9.806-22.078,2.166-5.369,6.755-3.128,10.838,6.545,1.637,3.881,3.694,7.556,5.054,11.542q-.414-10.135-.829-20.269c-.094-2.315.211-5.271,2.693-5.727A3.738,3.738,0,0,1,264.2,2.575,51.412,51.412,0,0,1,267,25.717q2.082-11.053,4.165-22.1c.3-1.572.8-3.422,2.768-3.488a3.067,3.067,0,0,1,2.988,2.333,58.184,58.184,0,0,1-10.38,49.782l-.617.693c-13.42.43-23.882-7.154-34.454-14.446-2.48-1.71-9.99-5.433-8.794-8.605" transform="translate(-222.55 0)" fill="#eae3ff"/>
              <path id="Trazado_210425" data-name="Trazado 210425" d="M234.809,119.292c-.827-.777-1.092-1.417-.568-2.424,1.759-3.381,6.2-7.252,9.5-9.71a32.464,32.464,0,0,1-7.139,3.625c-3.818,1.216-6.155,2.206-7.229,1.026a1.581,1.581,0,0,1,.2-2.194c3.51-3.262,8.04-4.954,12.068-6.521-5.5.918-13.558,1.125-14.386.355-2.46-2.418-.178-4.431,6.076-4.469,2.509-.014,5-.307,7.5-.144l-11.341-4.173c-1.294-.476-2.852-1.319-2.535-2.789a2.228,2.228,0,0,1,2.315-1.661,30.627,30.627,0,0,1,13.373,3.742l-11.21-7.339c-.8-.521-1.7-1.22-1.287-2.319a1.83,1.83,0,0,1,1.966-1.112,34.661,34.661,0,0,1,25.019,17.079l.241.5c-2.828,7.483-9.389,11.507-15.815,15.658-1.507.974-5.27,4.256-6.742,2.873" transform="translate(-222.957 -9.075)" fill="#eae3ff"/>
              <path id="Trazado_210426" data-name="Trazado 210426" d="M295.468,110.7a49.056,49.056,0,0,0-47.731-7.523" transform="translate(-225.298 -10.916)" fill="none" stroke="#eae3ff" stroke-miterlimit="10" stroke-width="1"/>
              <path id="Trazado_210427" data-name="Trazado 210427" d="M299.817,102.682a33.824,33.824,0,0,1-4.925-20.174,32.985,32.985,0,0,1,7.943-18.994c6.017,3.98,8.362,11.909,7.493,18.954s-4.291,15.351-10.511,20.214" transform="translate(-230.434 -6.931)" fill="#eae3ff"/>
              <path id="Trazado_210428" data-name="Trazado 210428" d="M317.549,126.322a33.821,33.821,0,0,1-19.624,6.794,32.991,32.991,0,0,1-19.655-6.128c3.4-6.364,11.073-9.442,18.169-9.236s15.686,2.834,21.11,8.57" transform="translate(-228.63 -12.848)" fill="#eae3ff"/>
            </g>
          </g>
        </g>
        <g id="Grupo_170264" data-name="Grupo 170264" transform="translate(276.454 3.214)" opacity="0.6">
          <g id="Grupo_170263" data-name="Grupo 170263">
            <g id="Grupo_170262" data-name="Grupo 170262" clip-path="url(#clip-path-5)">
              <path id="Trazado_210429" data-name="Trazado 210429" d="M437,58.1c-3.237,6.414-13.038,22.894-16.574,30.089s-9.309,14.742-13.39,21.643c-8.919,15.085-26.624,23.419-44.1,24.734-10.17.765-20.643-.507-30.4,2.454a36.677,36.677,0,0,0-21.776,18.256" transform="translate(-310.364 -9.554)" fill="none" stroke="#eae3ff" stroke-miterlimit="10" stroke-width="1"/>
              <path id="Trazado_210430" data-name="Trazado 210430" d="M492.957,35.05c-.707-1.874-1.573-2.741-3.57-2.568-6.7.579-16.03,5.21-22.268,8.916,3.846-2.751,7.695-5.581,10.747-9.193,4.569-5.4,7.768-8.546,6.568-11.1a2.791,2.791,0,0,0-3.711-1.164c-7.7,3.518-13.525,9.761-18.809,15.271,5.217-8.345,11.014-21.356,10.317-23.228-2.278-5.649-7.107-3.291-11.4,6.887-1.723,4.082-3.887,7.949-5.317,12.144q.436-10.663.872-21.325c.1-2.435-.223-5.547-2.833-6.025a3.932,3.932,0,0,0-4.276,2.652,54.092,54.092,0,0,0-2.951,24.348q-2.192-11.627-4.382-23.255c-.312-1.653-.839-3.6-2.911-3.67A3.228,3.228,0,0,0,435.885,6.2a61.218,61.218,0,0,0,10.921,52.376l.649.73c14.12.453,25.127-7.526,36.25-15.2,2.609-1.8,10.511-5.716,9.252-9.054" transform="translate(-323.812 -3.608)" fill="#eae3ff"/>
              <path id="Trazado_210431" data-name="Trazado 210431" d="M483.424,129.116c.87-.817,1.149-1.491.6-2.551-1.849-3.556-6.527-7.63-9.99-10.216a34.128,34.128,0,0,0,7.512,3.814c4.017,1.279,6.476,2.322,7.605,1.08a1.663,1.663,0,0,0-.207-2.307c-3.694-3.433-8.459-5.213-12.7-6.862,5.783.965,14.265,1.183,15.135.372,2.588-2.543.188-4.661-6.392-4.7-2.64-.015-5.261-.323-7.895-.152l11.932-4.389c1.362-.5,3-1.389,2.668-2.935a2.342,2.342,0,0,0-2.436-1.747,32.225,32.225,0,0,0-14.07,3.936l11.793-7.721c.838-.549,1.789-1.284,1.354-2.439a1.923,1.923,0,0,0-2.069-1.17A36.465,36.465,0,0,0,459.944,109.1l-.252.524c2.975,7.872,9.878,12.105,16.638,16.473,1.587,1.025,5.546,4.478,7.094,3.023" transform="translate(-326.615 -13.156)" fill="#eae3ff"/>
              <path id="Trazado_210432" data-name="Trazado 210432" d="M417.461,120.072a51.613,51.613,0,0,1,50.218-7.915" transform="translate(-322.007 -15.093)" fill="none" stroke="#eae3ff" stroke-miterlimit="10" stroke-width="1"/>
              <path id="Trazado_210433" data-name="Trazado 210433" d="M417.012,111.641a35.59,35.59,0,0,0,5.182-21.225,34.711,34.711,0,0,0-8.358-19.983c-6.331,4.187-8.8,12.528-7.883,19.941s4.515,16.151,11.059,21.267" transform="translate(-320.731 -10.9)" fill="#eae3ff"/>
              <path id="Trazado_210434" data-name="Trazado 210434" d="M395.318,136.512a35.588,35.588,0,0,0,20.646,7.148,34.711,34.711,0,0,0,20.679-6.448c-3.576-6.7-11.65-9.933-19.116-9.717s-16.5,2.981-22.21,9.017" transform="translate(-319.59 -17.125)" fill="#eae3ff"/>
            </g>
          </g>
        </g>
        <path id="Trazado_210435" data-name="Trazado 210435" d="M656.462,276.638c-1.1.368,19.244,84.8,19.244,84.8H643.87l-15.548-59.277,3.466-25.526Z" transform="translate(-68.562 -30.187)" fill="#ffa669"/>
        <path id="Trazado_210436" data-name="Trazado 210436" d="M536.254,89.967,522.23,96.184c-1.8.8-3.8,1.833-4.28,3.74a4.44,4.44,0,0,0,1.964,4.425,13.024,13.024,0,0,0,4.774,1.807L540.68,109.9Z" transform="translate(-56.508 -9.817)" fill="#768c5a"/>
        <path id="Trazado_210437" data-name="Trazado 210437" d="M555.848,156.908v91.379l17.616,28.3,20.608-28.3V147.157Z" transform="translate(-60.654 -16.058)" fill="#ffa669"/>
        <path id="Trazado_210438" data-name="Trazado 210438" d="M610.938,92.251c-.528,13.622.078,21.923-1.931,35.389-1.485,9.953-4.111,20.4-11.132,27.182-7.592,7.335-18.7,8.8-28.954,8.356-5.156-.221-10.461-.886-14.959-3.567-4.519-2.7-7.849-7.229-10.25-12.106-3.957-8.038-5.658-17.164-5.971-26.226s-.091-24.065,1.143-33.039c0,0,6.4-28.159,34.828-27.074,35.57,1.358,37.226,31.085,37.226,31.085" transform="translate(-58.664 -6.671)" fill="#ffa669"/>
        <path id="Trazado_210439" data-name="Trazado 210439" d="M581.255,139.836a21.054,21.054,0,0,0-6.124-.857,19.73,19.73,0,0,0-5.92.961c-1.591.535-3.692,2.7-4.84,3.351l21.667-1.188a31.146,31.146,0,0,0-4.783-2.267" transform="translate(-61.584 -15.165)" fill="#e2774d"/>
        <path id="Trazado_210440" data-name="Trazado 210440" d="M534.269,123.123a6.21,6.21,0,0,0-5.035,3.126,9.613,9.613,0,0,0-1.1,5.98,10.719,10.719,0,0,0,3.85,7.307,7.7,7.7,0,0,0,7.983.976l-1.129-13.963a4.62,4.62,0,0,0-4.565-3.425" transform="translate(-57.621 -13.435)" fill="#ffa669"/>
        <path id="Trazado_210441" data-name="Trazado 210441" d="M626.839,124.757a6.21,6.21,0,0,0-5.035-3.126,4.622,4.622,0,0,0-4.565,3.426l-1.129,13.962a7.7,7.7,0,0,0,7.983-.976,10.714,10.714,0,0,0,3.85-7.307,9.609,9.609,0,0,0-1.1-5.98" transform="translate(-67.23 -13.272)" fill="#ffa669"/>
        <path id="Trazado_210442" data-name="Trazado 210442" d="M555.906,171.753s20.149,9.979,38.121-.556c0,0-11.293,8.635-20.073,8.1s-18.047-7.545-18.047-7.545" transform="translate(-60.66 -18.681)" fill="#1e4d5d"/>
        <path id="Trazado_210443" data-name="Trazado 210443" d="M606.289,95.527c-.424,1.231-1.876,2-3.668,2.535a31.161,31.161,0,0,1-6.369,1.041,31.722,31.722,0,0,1-6.493-.061c-1.881-.259-3.478-.791-4.168-1.938-.676-1.116-.2-2.715,1.5-4.212a14.258,14.258,0,0,1,8.122-3.045,15.091,15.091,0,0,1,8.658,1.765c2.012,1.213,2.83,2.715,2.414,3.915" transform="translate(-63.867 -9.799)" fill="#1e4d5d"/>
        <path id="Trazado_210444" data-name="Trazado 210444" d="M568.663,95.889c-.775,1.046-2.47,1.472-4.447,1.629a36.912,36.912,0,0,1-6.788-.243A35.893,35.893,0,0,1,550.82,96c-1.846-.59-3.328-1.376-3.714-2.553-.379-1.147.546-2.521,2.706-3.569a17.305,17.305,0,0,1,9.133-1.26,15.823,15.823,0,0,1,8.344,3.238c1.715,1.486,2.133,3.012,1.375,4.03" transform="translate(-59.691 -9.656)" fill="#1e4d5d"/>
        <path id="Trazado_210445" data-name="Trazado 210445" d="M608.355,107.588a14.374,14.374,0,0,0-12.3-2.747c-6.926,1.553-9.313,9.672-9.313,9.672a12.976,12.976,0,0,0,11.7,3.224c6.926-1.671,9.911-10.15,9.911-10.15" transform="translate(-64.025 -11.4)" fill="#fff"/>
        <path id="Trazado_210446" data-name="Trazado 210446" d="M592.051,113.566c.959,3.479,1.957,4.913,5.566,4.913s7.12-2.159,7.5-4.913c.5-3.575-1.886-8.525-7.127-7.966-3.589.382-7.228,3.309-5.943,7.966" transform="translate(-64.575 -11.518)" fill="#1e4d5d"/>
        <path id="Trazado_210447" data-name="Trazado 210447" d="M587.176,115.289c.026-.082,3.281-7.585,9.559-8.992,6.375-1.429,11.141,2.414,11.344,2.131l1.2-1.571c-.254-.194-6.3-4.731-13.595-3.095-7.4,1.658-10.269,10.555-10.388,10.933Z" transform="translate(-63.867 -11.284)" fill="#1e4d5d"/>
        <path id="Trazado_210448" data-name="Trazado 210448" d="M545.364,107.279a14.37,14.37,0,0,1,12.3-2.747c6.926,1.553,9.313,9.672,9.313,9.672a12.974,12.974,0,0,1-11.7,3.224c-6.927-1.671-9.911-10.15-9.911-10.15" transform="translate(-59.51 -11.366)" fill="#fff"/>
        <path id="Trazado_210449" data-name="Trazado 210449" d="M562.673,113.257c-.959,3.479-1.957,4.913-5.566,4.913s-7.12-2.159-7.5-4.913c-.5-3.575,1.886-8.525,7.127-7.966,3.588.382,7.228,3.309,5.943,7.966" transform="translate(-59.965 -11.485)" fill="#1e4d5d"/>
        <path id="Trazado_210450" data-name="Trazado 210450" d="M566.251,114.98c-.027-.082-3.282-7.585-9.56-8.992-6.375-1.429-11.14,2.414-11.343,2.131l-1.2-1.571c.254-.194,6.3-4.731,13.595-3.095,7.4,1.658,10.269,10.555,10.388,10.934Z" transform="translate(-59.377 -11.25)" fill="#1e4d5d"/>
        <path id="Trazado_210451" data-name="Trazado 210451" d="M573.108,127.463s-6.522-4.814-5.356-6.853,5.9-3.913,7.016-8.45.068-12.054.068-12.054" transform="translate(-61.938 -10.924)" fill="none" stroke="#1e4d5d" stroke-miterlimit="10" stroke-width="1"/>
        <path id="Trazado_210452" data-name="Trazado 210452" d="M564.372,143.694a90.661,90.661,0,0,1,21.876-.624" transform="translate(-61.584 -15.569)" fill="none" stroke="#e2774d" stroke-linecap="round" stroke-linejoin="round" stroke-width="1"/>
        <path id="Trazado_210453" data-name="Trazado 210453" d="M610.9,89.329s-12.841-16.3-38.523-15.987c-18.168.219-23.739,7.04-34.714,13.975,0,0,4.587-32.722,34.352-32.826,30.073-.106,38.18,21.8,38.885,34.838" transform="translate(-58.669 -5.946)" fill="#a2c17e"/>
        <path id="Trazado_210454" data-name="Trazado 210454" d="M569.517,69.553c-5.589.288-7.693-2.334-7.59-5.588a5.455,5.455,0,0,1,6.927-4.741c-.153-3.594,3.063-6.429,6.307-7.983a12.929,12.929,0,0,1,6.62-1.513,6.544,6.544,0,0,1,5.482,3.579c.913,2.1.035,4.955-2.1,5.782,2.812-.814,5.753-1.636,8.628-1.083s5.623,2.951,5.52,5.876c-.1,2.86-2.853,5.027-5.658,5.588a55.591,55.591,0,0,1-12.365.442c-2.838-.36-11.768-.358-11.768-.358" transform="translate(-61.317 -5.422)" fill="#1e4d5d"/>
        <path id="Trazado_210455" data-name="Trazado 210455" d="M537.446,119.674c-1.817-11.243-2.829-21.79,0-29.021l8.34-5.591c-4.452,9.058-6.394,21.15-8.34,34.612" transform="translate(-58.454 -9.282)" fill="#1e4d5d"/>
        <path id="Trazado_210456" data-name="Trazado 210456" d="M617.575,120.827a79.285,79.285,0,0,0,1.3-28.992l-8.491-6.482c4.041,9.248,5.85,21.939,7.19,35.474" transform="translate(-66.605 -9.314)" fill="#1e4d5d"/>
        <path id="Trazado_210457" data-name="Trazado 210457" d="M615.554,353.287H508.295l1.172-49.468L508.1,207.671l29.85-5.767h51.809l20.727,1.531,18.826,37.582s3.462,114.564,3.343,112.27" transform="translate(-55.443 -22.032)" fill="#ab80ff"/>
        <path id="Trazado_210458" data-name="Trazado 210458" d="M477.348,266.582s49.64,16.075,50.009,15.531,7.236-80.209,7.236-80.209-31.714.461-37.473,8.228-19.771,56.45-19.771,56.45" transform="translate(-52.088 -22.032)" fill="#ab80ff"/>
        <path id="Trazado_210459" data-name="Trazado 210459" d="M677.848,277.779s-54.861,7.142-55.231,6.6-.736-80.952-.736-80.952,20.941,2.988,27.983,14.588c7.981,13.148,28.559,60.918,27.983,59.766" transform="translate(-67.859 -22.198)" fill="#ab80ff"/>
        <g id="Grupo_170267" data-name="Grupo 170267" transform="translate(461.975 186.644)" opacity="0.3">
          <g id="Grupo_170266" data-name="Grupo 170266">
            <g id="Grupo_170265" data-name="Grupo 170265" clip-path="url(#clip-path-6)">
              <path id="Trazado_210460" data-name="Trazado 210460" d="M547.9,231.6a7.248,7.248,0,0,0-5.962,2.97l-4.677-19.337c-.527-2.183-1.316-4.678-3.41-5.491-1.807-.7-3.916.246-5.156,1.735a14.017,14.017,0,0,0-2.334,5.274l-7.8,119.558c10.315-5.968,14.1-19.011,14.871-30.9s-.485-24.205,3.562-35.413c2.333-6.461,6.317-12.188,9.14-18.451s4.429-13.612,1.765-19.942" transform="translate(-518.56 -209.505)" fill="#1e4d5d"/>
            </g>
          </g>
        </g>
        <path id="Trazado_210461" data-name="Trazado 210461" d="M646.138,324.887c.431-2.441-5.676-81.441-5.676-81.441" transform="translate(-69.887 -26.565)" fill="none" stroke="#1e4d5d" stroke-linecap="round" stroke-linejoin="round" stroke-width="1"/>
        <path id="Trazado_210462" data-name="Trazado 210462" d="M602.515,233.636s2.119-4.005,9.271-3.407a14.16,14.16,0,0,1,10.475,6.022l-3-10.575c-.042.323-5.883-4.174-12.863-1.7-7.185,2.543-3.885,9.662-3.885,9.662" transform="translate(-65.664 -24.359)" fill="#ccbef4"/>
        <path id="Trazado_210463" data-name="Trazado 210463" d="M588.477,264.7l6.229,5.851s10.171-8.14,14.12-11.967,12.331-13.312,13.346-18.2-.714-11.67-4.358-14.407a18.238,18.238,0,0,1-3.617,12.459c-8.523,11.586-25.72,26.261-25.72,26.261" transform="translate(-64.214 -24.659)" fill="#ece6ff"/>
        <path id="Trazado_210464" data-name="Trazado 210464" d="M610.73,246.82l4.385,8.974-9.467,9.085-5.354-7.54Z" transform="translate(-65.504 -26.933)" fill="#ccbef4"/>
        <path id="Trazado_210465" data-name="Trazado 210465" d="M624.216,269.245l-7.538,4.028s-7.2-10.647-10.015-15.37-8.942-15.924-8.65-20.905,3.31-10.821,7.959-12.776a18.239,18.239,0,0,0,.249,12.971c5.213,13.406,18,32.052,18,32.052" transform="translate(-65.254 -24.467)" fill="#ece6ff"/>
        <path id="Trazado_210466" data-name="Trazado 210466" d="M527.768,267.782s-1.936,17.824-3.552,31.717-3.847,41.814-11.611,45.8c-16.32,8.373-28.5-.674-31.168-18.322-3.236-21.4-.164-30.955,3.225-51.7l11.646,3.514,4.16-16.2,28.328,6.191" transform="translate(-52.385 -28.653)" fill="#ffa669"/>
        <path id="Trazado_210467" data-name="Trazado 210467" d="M486.6,325.085c-2.619-2.71,9.013-37.309,13.131-57.45" transform="translate(-53.056 -29.204)" fill="none" stroke="#e2774d" stroke-linecap="round" stroke-linejoin="round" stroke-width="1"/>
        <path id="Trazado_210468" data-name="Trazado 210468" d="M516.116,261.853s11.986-1.1,15.079-6.4,10.27-25.928,11.43-29.46c0,0,3.328-7.621,4.406-10.854s2.292-8.389-2.225-7.773-8.114,5.3-10.246,12.391c-1.816,6.039-2.183,4.7-2.183,4.7l-5.5-17.857s-2.966-32.555-4.179-36.556-3.3-5.772-5.662-4.926-2.562,4.617-2.629,6,1.28-12.621-5.8-11.313c0,0-3.91-.307-3.37,9.467,0,0-1.753-3-4.18-2.617s-3.572,3.617-3.572,7.234,1.416,36.326,1.416,36.326.166,1.584-.641,1.635c-1.1.069-1.033-2.132-1.033-2.132s.287-19.338-.455-21.878a3.262,3.262,0,0,0-4.92-2c-1.686,1-1.316,3.288-1.82,8-.853,7.969-.33,21-.33,21s-.183,11.192,1.545,17.058c2.446,8.307,6.066,21.518,10.044,25.366s13.191,4.8,14.826,4.593" transform="translate(-53.419 -17.428)" fill="#ffa669"/>
        <path id="Trazado_210469" data-name="Trazado 210469" d="M501.6,218.428a24.115,24.115,0,0,1,21.32-5.226" transform="translate(-54.735 -23.191)" fill="none" stroke="#e2774d" stroke-linecap="round" stroke-linejoin="round" stroke-width="1"/>
        <path id="Trazado_210470" data-name="Trazado 210470" d="M507.128,170.995c.134,12.848.841,25.689,2.121,38.456" transform="translate(-55.338 -18.659)" fill="none" stroke="#e2774d" stroke-linecap="round" stroke-linejoin="round" stroke-width="1"/>
        <path id="Trazado_210471" data-name="Trazado 210471" d="M517.315,169.295c.134,12.848.841,25.689,2.121,38.456" transform="translate(-56.449 -18.473)" fill="none" stroke="#e2774d" stroke-linecap="round" stroke-linejoin="round" stroke-width="1"/>
        <path id="Trazado_210472" data-name="Trazado 210472" d="M500.986,195.494a6.141,6.141,0,0,0,4.049.082" transform="translate(-54.667 -21.332)" fill="none" stroke="#e2774d" stroke-linecap="round" stroke-linejoin="round" stroke-width="1"/>
        <path id="Trazado_210473" data-name="Trazado 210473" d="M510.409,188.269a6.141,6.141,0,0,0,4.049.082" transform="translate(-55.696 -20.544)" fill="none" stroke="#e2774d" stroke-linecap="round" stroke-linejoin="round" stroke-width="1"/>
        <path id="Trazado_210474" data-name="Trazado 210474" d="M521.929,190.878a6.141,6.141,0,0,0,4.049.082" transform="translate(-56.953 -20.829)" fill="none" stroke="#e2774d" stroke-linecap="round" stroke-linejoin="round" stroke-width="1"/>
        <path id="Trazado_210475" data-name="Trazado 210475" d="M517.315,251.889a19.206,19.206,0,0,1,3.348-10.6c2.093-2.986,7.58-6.94,13.489-6.066l3.44-8.116" transform="translate(-56.449 -24.782)" fill="none" stroke="#e2774d" stroke-linecap="round" stroke-linejoin="round" stroke-width="1"/>
        <path id="Trazado_210476" data-name="Trazado 210476" d="M504.977,235.456a41.014,41.014,0,0,0,14.09-9.894" transform="translate(-55.103 -24.613)" fill="none" stroke="#e2774d" stroke-linecap="round" stroke-linejoin="round" stroke-width="1"/>
        <path id="Trazado_210477" data-name="Trazado 210477" d="M489.542,217.111s.85,16.781,3.641,28.2a67.324,67.324,0,0,0,5.529,14.626,14.848,14.848,0,0,0,11.438,7.97c.977.116,2.077.229,3.311.333" transform="translate(-53.419 -23.691)" fill="none" stroke="#e2774d" stroke-linecap="round" stroke-linejoin="round" stroke-width="1"/>
        <path id="Trazado_210478" data-name="Trazado 210478" d="M110.365,139.791c-7.042,1.85-14.952-4.5-14.667-11.774a7.635,7.635,0,0,1-10.6-10.972,11.5,11.5,0,0,1-6.246-19.751,10.466,10.466,0,0,1,3.09-19.754,12.993,12.993,0,0,1,8.948-21.948,19,19,0,0,1,26.856-19.444,23.257,23.257,0,0,1,37.334-.564,13.357,13.357,0,0,1,21.86,9.636A14.988,14.988,0,0,1,193.982,66.1a12.7,12.7,0,0,1-2.415,21.731c4.824,5.615,2.505,15.677-4.289,18.616a11.842,11.842,0,0,1-5,19.8,9.415,9.415,0,0,1-12.234,11.762,11.424,11.424,0,0,1-13.957,7.811" transform="translate(-7.966 -2.889)" fill="#1e4d5d"/>
        <path id="Trazado_210479" data-name="Trazado 210479" d="M125.808,154.476v89.686L143.1,271.941l20.227-27.779V144.9Z" transform="translate(-13.728 -15.812)" fill="#cf7c54"/>
        <path id="Trazado_210480" data-name="Trazado 210480" d="M179.877,92.474c-.518,12.6.077,20.275-1.895,32.727-1.457,9.2-4.036,18.864-10.927,25.138-7.451,6.782-18.349,8.135-28.417,7.728-5.06-.2-10.266-.818-14.681-3.3-4.437-2.493-7.7-6.685-10.062-11.195-3.884-7.434-5.552-15.873-5.859-24.254s-.089-22.255,1.122-30.555c0,0,6.277-26.041,34.182-25.037,34.912,1.256,36.537,28.747,36.537,28.747" transform="translate(-11.775 -6.951)" fill="#cf7c54"/>
        <g id="Grupo_170270" data-name="Grupo 170270" transform="translate(119.994 126.186)" opacity="0.3">
          <g id="Grupo_170269" data-name="Grupo 170269">
            <g id="Grupo_170268" data-name="Grupo 170268" clip-path="url(#clip-path-7)">
              <path id="Trazado_210481" data-name="Trazado 210481" d="M155.4,141.642l-20.713.412c.988,3.211,2.685,4.279,5.765,5.183a31.47,31.47,0,0,0,5.131.486,9.69,9.69,0,0,0,5.882-1.782,11.287,11.287,0,0,0,2.633-1.895,16.65,16.65,0,0,0,1.3-2.4" transform="translate(-134.691 -141.642)" fill="#753f32"/>
            </g>
          </g>
        </g>
        <path id="Trazado_210482" data-name="Trazado 210482" d="M151,134.279a7.933,7.933,0,0,0-11.821.3,37.142,37.142,0,0,0-4.486,6.4l21-.11c-1.232-1.849-3.039-5.108-4.695-6.591" transform="translate(-14.697 -14.38)" fill="#895247"/>
        <path id="Trazado_210483" data-name="Trazado 210483" d="M104.629,121.317a6.1,6.1,0,0,0-4.942,3.067,9.435,9.435,0,0,0-1.083,5.87,10.52,10.52,0,0,0,3.778,7.172,7.56,7.56,0,0,0,7.835.957l-1.108-13.7a4.534,4.534,0,0,0-4.48-3.362" transform="translate(-10.752 -13.238)" fill="#cf7c54"/>
        <path id="Trazado_210484" data-name="Trazado 210484" d="M195.484,122.921a6.091,6.091,0,0,0-4.942-3.067,4.535,4.535,0,0,0-4.48,3.362l-1.108,13.7a7.558,7.558,0,0,0,7.835-.958,10.516,10.516,0,0,0,3.778-7.172,9.433,9.433,0,0,0-1.083-5.869" transform="translate(-20.182 -13.078)" fill="#cf7c54"/>
        <g id="Grupo_170273" data-name="Grupo 170273" transform="translate(145.814 106.909)" opacity="0.3">
          <g id="Grupo_170272" data-name="Grupo 170272">
            <g id="Grupo_170271" data-name="Grupo 170271" clip-path="url(#clip-path-8)">
              <path id="Trazado_210485" data-name="Trazado 210485" d="M179.234,121.644c1.437,2.395-.765,6.353-4.778,9.058s-8.514,3.246-10.191,1.013.3-6.524,4.558-9.385,8.981-3.069,10.411-.685" transform="translate(-163.674 -120.004)" fill="#895247"/>
            </g>
          </g>
        </g>
        <g id="Grupo_170276" data-name="Grupo 170276" transform="translate(99.829 107.605)" opacity="0.3">
          <g id="Grupo_170275" data-name="Grupo 170275">
            <g id="Grupo_170274" data-name="Grupo 170274" clip-path="url(#clip-path-9)">
              <path id="Trazado_210486" data-name="Trazado 210486" d="M128.647,133.7c-.731,1.182-2.355,1.671-4.409,1.417a16.223,16.223,0,0,1-11.585-8.683c-.82-1.9-.807-3.6.123-4.63,1.9-2.053,6.535-.849,10.7,2.262s6.609,7.237,5.172,9.635" transform="translate(-112.057 -120.785)" fill="#895247"/>
            </g>
          </g>
        </g>
        <path id="Trazado_210487" data-name="Trazado 210487" d="M107.7,113.347c.008-.212,3.244-21.424,4.412-26.136s34.181-28.658,34.181-28.658-13.868-3.4-30.595,11.5c-15.377,13.706-8,43.289-8,43.289" transform="translate(-11.559 -6.353)" fill="#ffb769"/>
        <path id="Trazado_210488" data-name="Trazado 210488" d="M182.709,114.164c-.008-.212-2.669-22.215-3.837-26.928s-38.648-24.768-38.648-24.768,9.667-12.872,33.162,7.449c18.375,15.892,9.323,44.247,9.323,44.247" transform="translate(-15.301 -6.378)" fill="#ffb769"/>
        <path id="Trazado_210489" data-name="Trazado 210489" d="M125.923,165.856s19.776,9.793,37.414-.546c0,0-11.083,8.476-19.7,7.951s-17.713-7.4-17.713-7.4" transform="translate(-13.741 -18.039)" fill="#1e4d5d"/>
        <path id="Trazado_210490" data-name="Trazado 210490" d="M176.3,91.983c-.416,1.209-1.841,1.958-3.6,2.488a30.635,30.635,0,0,1-6.251,1.022,31.189,31.189,0,0,1-6.372-.06c-1.846-.255-3.414-.776-4.092-1.9-.663-1.1-.2-2.666,1.475-4.135a13.99,13.99,0,0,1,7.972-2.989,14.812,14.812,0,0,1,8.5,1.733c1.974,1.19,2.778,2.664,2.369,3.841" transform="translate(-16.989 -9.424)" fill="#1e4d5d"/>
        <path id="Trazado_210491" data-name="Trazado 210491" d="M138.13,92.976c-.761,1.026-2.424,1.445-4.364,1.6a36.227,36.227,0,0,1-6.662-.239,35.2,35.2,0,0,1-6.487-1.25c-1.812-.579-3.267-1.35-3.645-2.505-.372-1.126.535-2.475,2.655-3.5a16.981,16.981,0,0,1,8.964-1.237,15.547,15.547,0,0,1,8.19,3.178c1.683,1.459,2.094,2.957,1.349,3.956" transform="translate(-12.755 -9.353)" fill="#1e4d5d"/>
        <path id="Trazado_210492" data-name="Trazado 210492" d="M177.343,106.07a14.108,14.108,0,0,0-12.071-2.7c-6.8,1.523-9.141,9.493-9.141,9.493a12.735,12.735,0,0,0,11.484,3.164c6.8-1.641,9.728-9.962,9.728-9.962" transform="translate(-17.037 -11.241)" fill="#fff"/>
        <path id="Trazado_210493" data-name="Trazado 210493" d="M161.34,111.937c.942,3.415,1.922,4.822,5.464,4.822s6.987-2.119,7.364-4.822c.488-3.508-1.851-8.367-6.994-7.818-3.523.375-7.094,3.246-5.833,7.818" transform="translate(-17.577 -11.357)" fill="#1e4d5d"/>
        <path id="Trazado_210494" data-name="Trazado 210494" d="M156.557,113.628c.026-.08,3.221-7.444,9.382-8.825,6.257-1.4,10.935,2.37,11.133,2.091l1.175-1.541c-.249-.19-6.187-4.642-13.343-3.037-7.26,1.627-10.079,10.36-10.2,10.731Z" transform="translate(-16.882 -11.127)" fill="#1e4d5d"/>
        <path id="Trazado_210495" data-name="Trazado 210495" d="M115.518,105.767a14.107,14.107,0,0,1,12.071-2.7c6.8,1.524,9.141,9.493,9.141,9.493a12.737,12.737,0,0,1-11.485,3.164c-6.8-1.641-9.728-9.962-9.728-9.962" transform="translate(-12.605 -11.208)" fill="#fff"/>
        <path id="Trazado_210496" data-name="Trazado 210496" d="M132.508,111.634c-.942,3.415-1.922,4.822-5.464,4.822s-6.987-2.119-7.364-4.822c-.488-3.508,1.851-8.367,6.994-7.818,3.523.375,7.094,3.246,5.833,7.818" transform="translate(-13.053 -11.324)" fill="#1e4d5d"/>
        <path id="Trazado_210497" data-name="Trazado 210497" d="M136.018,113.325c-.026-.08-3.221-7.444-9.382-8.825-6.257-1.4-10.935,2.37-11.133,2.091l-1.175-1.541c.249-.19,6.187-4.642,13.344-3.037,7.259,1.627,10.079,10.36,10.2,10.731Z" transform="translate(-12.475 -11.094)" fill="#1e4d5d"/>
        <path id="Trazado_210498" data-name="Trazado 210498" d="M145.245,124.557s-2.571-2.789-1.426-4.789,3.075-2.537,4.173-6.99.067-11.83.067-11.83" transform="translate(-15.661 -11.015)" fill="none" stroke="#1e4d5d" stroke-miterlimit="10" stroke-width="1"/>
        <path id="Trazado_210499" data-name="Trazado 210499" d="M7.245,234.408S23.539,311.687,27.1,328.394c6.961,32.657,32.263,32.714,41.225,15.685,6.865-13.043,14.582-77.326,14.582-77.326L61.177,247.7,49.733,274.683,31.807,229.02Z" transform="translate(-0.791 -24.991)" fill="#cf7c54"/>
        <path id="Trazado_210500" data-name="Trazado 210500" d="M43.515,249.983c5.651,14.928,19.589,56.369,24.494,71.558,2.135,6.609,4.026,14.43-.1,20.014" transform="translate(-4.748 -27.278)" fill="none" stroke="#55312f" stroke-miterlimit="10" stroke-width="1"/>
        <path id="Trazado_210501" data-name="Trazado 210501" d="M24.6,246.309s11.1-1.022,13.96-5.926,9.507-24,10.582-27.273c0,0,3.082-7.056,4.079-10.048s2.122-7.767-2.059-7.2-7.513,4.907-9.486,11.471c-1.682,5.592-2.021,4.349-2.021,4.349l-5.094-16.533s-2.747-30.138-3.869-33.844-3.058-5.344-5.243-4.56-2.372,4.274-2.434,5.557,1.186-11.685-5.367-10.474c0,0-3.62-.284-3.121,8.764,0,0-1.622-2.78-3.869-2.423s-3.308,3.349-3.308,6.7,1.31,33.63,1.31,33.63.154,1.466-.593,1.514c-1.02.063-.956-1.973-.956-1.973s.265-17.9-.421-20.255a3.021,3.021,0,0,0-4.556-1.852c-1.56.927-1.218,3.044-1.685,7.4-.79,7.377-.306,19.443-.306,19.443s-.168,10.362,1.431,15.792c2.265,7.69,4.964,21.182,8.646,24.744S23.088,246.5,24.6,246.309" transform="translate(0 -16.559)" fill="#cf7c54"/>
        <path id="Trazado_210502" data-name="Trazado 210502" d="M11.166,206.107A22.324,22.324,0,0,1,30.9,201.27" transform="translate(-1.218 -21.894)" fill="none" stroke="#55312f" stroke-miterlimit="10" stroke-width="1"/>
        <path id="Trazado_210503" data-name="Trazado 210503" d="M16.281,162.194q.184,17.843,1.964,35.6" transform="translate(-1.777 -17.699)" fill="none" stroke="#55312f" stroke-miterlimit="10" stroke-width="1"/>
        <path id="Trazado_210504" data-name="Trazado 210504" d="M25.712,160.62q.186,17.843,1.963,35.6" transform="translate(-2.806 -17.527)" fill="none" stroke="#55312f" stroke-miterlimit="10" stroke-width="1"/>
        <path id="Trazado_210505" data-name="Trazado 210505" d="M10.594,184.874a5.69,5.69,0,0,0,3.749.076" transform="translate(-1.156 -20.173)" fill="none" stroke="#55312f" stroke-miterlimit="10" stroke-width="1"/>
        <path id="Trazado_210506" data-name="Trazado 210506" d="M19.319,178.185a5.69,5.69,0,0,0,3.749.076" transform="translate(-2.108 -19.443)" fill="none" stroke="#55312f" stroke-miterlimit="10" stroke-width="1"/>
        <path id="Trazado_210507" data-name="Trazado 210507" d="M29.983,180.6a5.69,5.69,0,0,0,3.749.076" transform="translate(-3.272 -19.707)" fill="none" stroke="#55312f" stroke-miterlimit="10" stroke-width="1"/>
        <path id="Trazado_210508" data-name="Trazado 210508" d="M25.712,237.575a17.769,17.769,0,0,1,3.1-9.81c1.937-2.764,7.016-6.425,12.487-5.616l1.319-3.506" transform="translate(-2.806 -23.858)" fill="none" stroke="#55312f" stroke-miterlimit="10" stroke-width="1"/>
        <path id="Trazado_210509" data-name="Trazado 210509" d="M14.289,221.871a37.971,37.971,0,0,0,13.044-9.16" transform="translate(-1.559 -23.211)" fill="none" stroke="#55312f" stroke-linecap="round" stroke-miterlimit="10" stroke-width="1"/>
        <path id="Trazado_210510" data-name="Trazado 210510" d="M227.862,278.439c-1.083.362,18.887,83.233,18.887,83.233H215.5l-15.261-58.179,3.4-25.054Z" transform="translate(-21.85 -30.383)" fill="#cf7c54"/>
        <path id="Trazado_210511" data-name="Trazado 210511" d="M79.31,368.9l19.64-24.226,80.324,2.735,13.35,21.491Z" transform="translate(-8.654 -37.611)" fill="#1e4d5d"/>
        <path id="Trazado_210512" data-name="Trazado 210512" d="M162.436,202.288l24.832,4.027L199.8,240.676s-1.95,32.087-2.776,40.348c-.425,4.252-4.607,24.465-4.607,24.465l-13.077,26.383-80.324-2.735-7.3-17.405-5.5-35.752-.933-68.032,28.2-5.66Z" transform="translate(-9.307 -22.074)" fill="#a2c17e"/>
        <path id="Trazado_210513" data-name="Trazado 210513" d="M56.243,265.769s46.9,15.777,47.243,15.243,6.836-78.724,6.836-78.724-29.961.453-35.4,8.077-18.678,55.4-18.678,55.4" transform="translate(-6.137 -22.074)" fill="#a2c17e"/>
        <path id="Trazado_210514" data-name="Trazado 210514" d="M232.576,267.827s-46.9,15.777-47.243,15.243-9.752-80.782-9.752-80.782,28.633,3.094,34.073,10.717,22.922,54.822,22.922,54.822" transform="translate(-19.159 -22.074)" fill="#a2c17e"/>
        <path id="Trazado_210515" data-name="Trazado 210515" d="M209.652,289.3c3.885-18.3,1.562-43.6-5.591-60.876" transform="translate(-22.267 -24.926)" fill="none" stroke="#1e4d5d" stroke-linecap="round" stroke-linejoin="round" stroke-width="1"/>
        <path id="Trazado_210516" data-name="Trazado 210516" d="M91.112,316.036,79.707,241.729" transform="translate(-8.698 -26.377)" fill="none" stroke="#1e4d5d" stroke-linecap="round" stroke-linejoin="round" stroke-width="1"/>
        <path id="Trazado_210517" data-name="Trazado 210517" d="M170.033,236.707s2.119-4.005,9.271-3.407a14.163,14.163,0,0,1,10.475,6.022l-3-10.575c-.042.323-5.883-4.174-12.863-1.7-7.185,2.543-3.885,9.662-3.885,9.662" transform="translate(-18.471 -24.694)" fill="#ccbef4"/>
        <path id="Trazado_210518" data-name="Trazado 210518" d="M155.995,267.768l6.229,5.851s10.172-8.14,14.12-11.967,12.331-13.312,13.346-18.2-.714-11.67-4.358-14.407a18.238,18.238,0,0,1-3.617,12.459c-8.523,11.586-25.72,26.261-25.72,26.261" transform="translate(-17.022 -24.994)" fill="#ece6ff"/>
        <path id="Trazado_210519" data-name="Trazado 210519" d="M178.248,249.89l4.385,8.974-9.467,9.085-5.354-7.54Z" transform="translate(-18.312 -27.268)" fill="#ccbef4"/>
        <path id="Trazado_210520" data-name="Trazado 210520" d="M191.734,272.316l-7.538,4.028S177,265.7,174.181,260.975s-8.942-15.925-8.65-20.905,3.31-10.821,7.959-12.776a18.239,18.239,0,0,0,.249,12.971c5.213,13.406,18,32.052,18,32.052" transform="translate(-18.062 -24.802)" fill="#ece6ff"/>
        <path id="Trazado_210521" data-name="Trazado 210521" d="M452.1,262.036c-1.272.425,22.2,97.846,22.2,97.846H437.574l-17.939-68.394,4-29.453Z" transform="translate(-45.79 -28.593)" fill="#ffbf9d"/>
        <path id="Trazado_210522" data-name="Trazado 210522" d="M314.026,102.186l.846,58.7,76.681-5.276-2.3-17.326,10.217,16.607,20.872-5.387s-10.057-9.221-14.008-20.594-6.863-63.006-6.863-63.006L317.229,81.562Z" transform="translate(-34.266 -7.192)" fill="#e5886e"/>
        <path id="Trazado_210523" data-name="Trazado 210523" d="M336.014,123.893V229.325l20.325,32.656,23.778-32.656V112.641Z" transform="translate(-36.666 -12.291)" fill="#ffbf9d"/>
        <path id="Trazado_210524" data-name="Trazado 210524" d="M399.577,51c-.609,14.809.09,23.834-2.228,38.474C395.635,100.3,392.6,111.655,384.5,119.03c-8.759,7.973-21.572,9.563-33.406,9.084-5.948-.241-12.069-.962-17.259-3.878-5.215-2.93-9.057-7.859-11.827-13.161-4.566-8.738-6.527-18.659-6.888-28.513s-.105-26.162,1.319-35.919c0,0,7.379-30.613,40.184-29.434C397.667,18.687,399.577,51,399.577,51" transform="translate(-34.37 -1.874)" fill="#ffbf9d"/>
        <g id="Grupo_170279" data-name="Grupo 170279" transform="translate(308.652 96.932)" opacity="0.5">
          <g id="Grupo_170278" data-name="Grupo 170278">
            <g id="Grupo_170277" data-name="Grupo 170277" clip-path="url(#clip-path-10)">
              <path id="Trazado_210525" data-name="Trazado 210525" d="M370.806,108.805l-24.349.485c1.16,3.774,3.155,5.03,6.776,6.093a37.119,37.119,0,0,0,6.032.571,11.39,11.39,0,0,0,6.913-2.1,13.279,13.279,0,0,0,3.1-2.227,19.49,19.49,0,0,0,1.531-2.826" transform="translate(-346.457 -108.805)" fill="#e5886e"/>
            </g>
          </g>
        </g>
        <path id="Trazado_210526" data-name="Trazado 210526" d="M365.627,100.149a9.325,9.325,0,0,0-13.9.357,43.6,43.6,0,0,0-5.274,7.519l24.689-.128c-1.448-2.174-3.572-6.005-5.519-7.748" transform="translate(-37.805 -10.608)" fill="#e5886e"/>
        <path id="Trazado_210527" data-name="Trazado 210527" d="M311.117,84.911a7.166,7.166,0,0,0-5.809,3.606,11.1,11.1,0,0,0-1.274,6.9,12.369,12.369,0,0,0,4.442,8.431,8.887,8.887,0,0,0,9.211,1.124l-1.3-16.109a5.332,5.332,0,0,0-5.267-3.953" transform="translate(-33.167 -9.265)" fill="#ffbf9d"/>
        <path id="Trazado_210528" data-name="Trazado 210528" d="M417.924,86.8a7.162,7.162,0,0,0-5.809-3.606,5.331,5.331,0,0,0-5.267,3.953l-1.3,16.109a8.885,8.885,0,0,0,9.211-1.125A12.367,12.367,0,0,0,419.2,93.7a11.088,11.088,0,0,0-1.274-6.9" transform="translate(-44.253 -9.078)" fill="#ffbf9d"/>
        <g id="Grupo_170282" data-name="Grupo 170282" transform="translate(339.005 74.271)" opacity="0.3">
          <g id="Grupo_170281" data-name="Grupo 170281">
            <g id="Grupo_170280" data-name="Grupo 170280" clip-path="url(#clip-path-11)">
              <path id="Trazado_210529" data-name="Trazado 210529" d="M398.821,85.3c1.689,2.814-.9,7.468-5.616,10.648s-10.009,3.817-11.98,1.191.353-7.67,5.358-11.034,10.557-3.608,12.238-.805" transform="translate(-380.528 -83.368)" fill="#e5886e"/>
            </g>
          </g>
        </g>
        <g id="Grupo_170285" data-name="Grupo 170285" transform="translate(284.947 75.09)" opacity="0.3">
          <g id="Grupo_170284" data-name="Grupo 170284">
            <g id="Grupo_170283" data-name="Grupo 170283" clip-path="url(#clip-path-12)">
              <path id="Trazado_210530" data-name="Trazado 210530" d="M339.351,99.469c-.859,1.39-2.769,1.964-5.183,1.665a19.073,19.073,0,0,1-13.619-10.208c-.964-2.233-.949-4.228.144-5.442,2.233-2.413,7.681-1,12.578,2.658,4.883,3.673,7.769,8.507,6.079,11.327" transform="translate(-319.849 -84.287)" fill="#e5886e"/>
            </g>
          </g>
        </g>
        <path id="Trazado_210531" data-name="Trazado 210531" d="M314.72,75.542c.009-.249,3.813-25.185,5.186-30.725s40.183-33.689,40.183-33.689-16.3-4-35.966,13.524c-18.078,16.112-9.4,50.889-9.4,50.889" transform="translate(-34.115 -1.171)" fill="#e5886e"/>
        <path id="Trazado_210532" data-name="Trazado 210532" d="M402.9,76.5c-.009-.249-3.138-26.115-4.511-31.655S352.96,15.729,352.96,15.729,364.325.6,391.945,24.485C413.546,43.167,402.9,76.5,402.9,76.5" transform="translate(-38.515 -1.201)" fill="#e5886e"/>
        <path id="Trazado_210533" data-name="Trazado 210533" d="M336.149,137.27s23.248,11.513,43.983-.641c0,0-13.028,9.963-23.159,9.347s-20.823-8.706-20.823-8.706" transform="translate(-36.68 -14.909)" fill="#1e4d5d"/>
        <path id="Trazado_210534" data-name="Trazado 210534" d="M395.367,50.427c-.489,1.421-2.165,2.3-4.232,2.925a36,36,0,0,1-7.348,1.2,36.651,36.651,0,0,1-7.492-.07c-2.169-.3-4.013-.912-4.809-2.235-.78-1.288-.237-3.134,1.734-4.861a16.462,16.462,0,0,1,9.371-3.514,17.416,17.416,0,0,1,9.991,2.037c2.321,1.4,3.265,3.131,2.785,4.516" transform="translate(-40.499 -4.781)" fill="#e5886e"/>
        <path id="Trazado_210535" data-name="Trazado 210535" d="M350.5,51.595c-.894,1.207-2.849,1.7-5.131,1.88a42.582,42.582,0,0,1-7.832-.281,41.431,41.431,0,0,1-7.625-1.469c-2.13-.681-3.841-1.587-4.285-2.945-.437-1.324.63-2.91,3.121-4.119a19.975,19.975,0,0,1,10.538-1.453,18.26,18.26,0,0,1,9.628,3.736c1.979,1.714,2.461,3.475,1.586,4.65" transform="translate(-35.522 -4.699)" fill="#e5886e"/>
        <path id="Trazado_210536" data-name="Trazado 210536" d="M396.6,66.988c-.414-.551-6.2-4.96-14.192-3.169s-10.746,11.16-10.746,11.16,5.511,5.648,13.5,3.719S396.6,66.988,396.6,66.988" transform="translate(-40.555 -6.917)" fill="#fff"/>
        <path id="Trazado_210537" data-name="Trazado 210537" d="M377.785,73.884c1.107,4.014,2.258,5.669,6.422,5.669s8.215-2.49,8.658-5.669c.575-4.124-2.176-9.835-8.223-9.191-4.141.441-8.34,3.817-6.857,9.191" transform="translate(-41.19 -7.054)" fill="#1e4d5d"/>
        <path id="Trazado_210538" data-name="Trazado 210538" d="M372.162,75.872c.03-.094,3.786-8.751,11.029-10.375,7.355-1.648,12.854,2.786,13.088,2.459l1.381-1.812c-.293-.224-7.273-5.458-15.686-3.571-8.533,1.913-11.848,12.179-11.985,12.615Z" transform="translate(-40.373 -6.783)" fill="#1e4d5d"/>
        <path id="Trazado_210539" data-name="Trazado 210539" d="M323.917,66.632c.413-.551,6.2-4.96,14.191-3.169s10.746,11.16,10.746,11.16-5.511,5.648-13.5,3.719-11.435-11.711-11.435-11.711" transform="translate(-35.346 -6.879)" fill="#fff"/>
        <path id="Trazado_210540" data-name="Trazado 210540" d="M343.89,73.528c-1.107,4.014-2.258,5.669-6.423,5.669s-8.214-2.49-8.657-5.669c-.575-4.124,2.176-9.835,8.223-9.191,4.141.441,8.34,3.817,6.857,9.191" transform="translate(-35.871 -7.015)" fill="#1e4d5d"/>
        <path id="Trazado_210541" data-name="Trazado 210541" d="M348.017,75.516c-.03-.094-3.786-8.751-11.029-10.375-7.355-1.648-12.855,2.786-13.088,2.459l-1.381-1.811c.293-.225,7.273-5.458,15.686-3.572,8.533,1.913,11.848,12.179,11.985,12.615Z" transform="translate(-35.193 -6.744)" fill="#1e4d5d"/>
        <path id="Trazado_210542" data-name="Trazado 210542" d="M259.511,193.354s.98,19.362,4.2,32.538a77.762,77.762,0,0,0,6.38,16.877,17.134,17.134,0,0,0,13.2,9.195c1.127.134,2.4.265,3.819.385" transform="translate(-28.318 -21.099)" fill="none" stroke="#ff9a6c" stroke-linecap="round" stroke-linejoin="round" stroke-width="1"/>
        <path id="Trazado_210543" data-name="Trazado 210543" d="M354.983,86.11s-3.023-3.279-1.677-5.629,3.615-2.984,4.905-8.218.078-13.907.078-13.907" transform="translate(-38.515 -6.368)" fill="none" stroke="#1e4d5d" stroke-miterlimit="10" stroke-width="1"/>
        <path id="Trazado_210544" data-name="Trazado 210544" d="M375.19,175.809l29.191,4.733,14.735,40.4s-2.292,37.72-3.263,47.431c-.5,5-5.416,28.761-5.416,28.761l-6.6,53.344H296.04L286.024,293.4,284.5,182.462l33.151-6.653Z" transform="translate(-31.045 -19.184)" fill="#d3729e"/>
        <path id="Trazado_210545" data-name="Trazado 210545" d="M250.353,250.435s55.129,18.547,55.538,17.919,8.037-92.545,8.037-92.545-35.222.532-41.617,9.494-21.957,65.131-21.957,65.131" transform="translate(-27.318 -19.184)" fill="#d3729e"/>
        <path id="Trazado_210546" data-name="Trazado 210546" d="M457.644,252.854s-55.128,18.547-55.537,17.919-11.465-94.965-11.465-94.965,33.661,3.637,40.056,12.6,26.946,64.447,26.946,64.447" transform="translate(-42.627 -19.184)" fill="#d3729e"/>
        <path id="Trazado_210547" data-name="Trazado 210547" d="M430.7,278.1c4.568-21.507,1.835-51.249-6.573-71.564" transform="translate(-46.28 -22.537)" fill="none" stroke="#1e4d5d" stroke-linecap="round" stroke-linejoin="round" stroke-width="1"/>
        <path id="Trazado_210548" data-name="Trazado 210548" d="M360.922,276.247a23.2,23.2,0,1,1,23.2-23.2,23.225,23.225,0,0,1-23.2,23.2m0-40.761a17.563,17.563,0,1,0,17.563,17.563,17.583,17.583,0,0,0-17.563-17.563" transform="translate(-36.852 -25.081)" fill="#fff"/>
        <path id="Trazado_210549" data-name="Trazado 210549" d="M363.962,305.786a2.818,2.818,0,0,1-2.818-2.818V279.146a2.818,2.818,0,0,1,5.636,0v23.822a2.818,2.818,0,0,1-2.818,2.818" transform="translate(-39.408 -30.153)" fill="#fff"/>
        <path id="Trazado_210550" data-name="Trazado 210550" d="M373.264,296.735h-21.2a2.817,2.817,0,1,1,0-5.635h21.2a2.817,2.817,0,1,1,0,5.635" transform="translate(-38.11 -31.765)" fill="#fff"/>
        <g id="Grupo_170288" data-name="Grupo 170288" transform="translate(263.319 190.912)" opacity="0.3">
          <g id="Grupo_170287" data-name="Grupo 170287">
            <g id="Grupo_170286" data-name="Grupo 170286" clip-path="url(#clip-path-13)">
              <path id="Trazado_210551" data-name="Trazado 210551" d="M320.39,214.3a174.323,174.323,0,0,0-18.69,28.763l-6.128,94.587c11.638-6.459,15.722-21.3,15.81-34.614s-2.655-26.795.093-39.818c1.752-8.3,5.66-15.976,8.314-24.037s3.991-17.1.6-24.88" transform="translate(-295.572 -214.296)" fill="#1e4d5d"/>
            </g>
          </g>
        </g>
        <path id="Trazado_210552" data-name="Trazado 210552" d="M303.6,251.756s-2.233,20.565-4.1,36.595-3.821,49.726-13.4,52.843c-23.994,7.809-30.47-3.595-33.549-23.957-3.733-24.693-2.411-34.041,1.5-57.98l11.87,3.671,3.878-17.668L304.79,252.9" transform="translate(-27.318 -26.763)" fill="#ffbf9d"/>
        <path id="Trazado_210553" data-name="Trazado 210553" d="M290.172,244.978s13.83-1.273,17.4-7.385,11.849-29.916,13.187-33.991c0,0,3.841-8.794,5.084-12.523s2.645-9.679-2.567-8.969-9.362,6.116-11.822,14.3c-2.1,6.969-2.518,5.42-2.518,5.42l-6.349-20.6s-3.422-37.56-4.821-42.178-3.811-6.66-6.534-5.683-2.956,5.327-3.033,6.926,1.478-14.562-6.689-13.053c0,0-4.511-.355-3.889,10.922,0,0-2.022-3.463-4.822-3.019s-4.122,4.174-4.122,8.347,1.633,41.912,1.633,41.912.192,1.828-.739,1.886c-1.272.079-1.192-2.46-1.192-2.46s.331-22.312-.526-25.242a3.765,3.765,0,0,0-5.678-2.309c-1.945,1.155-1.518,3.794-2.1,9.228-.985,9.195-.38,24.231-.38,24.231s-.21,12.914,1.783,19.681c2.823,9.583,7,24.828,11.588,29.267s15.221,5.543,17.107,5.3" transform="translate(-28.318 -13.873)" fill="#ffbf9d"/>
        <path id="Trazado_210554" data-name="Trazado 210554" d="M273.427,194.874a27.823,27.823,0,0,1,24.6-6.029" transform="translate(-29.836 -20.522)" fill="none" stroke="#ff9a6c" stroke-linecap="round" stroke-linejoin="round" stroke-width="1"/>
        <path id="Trazado_210555" data-name="Trazado 210555" d="M279.8,140.146c.154,14.824.971,29.641,2.447,44.37" transform="translate(-30.532 -15.293)" fill="none" stroke="#ff9a6c" stroke-linecap="round" stroke-linejoin="round" stroke-width="1"/>
        <path id="Trazado_210556" data-name="Trazado 210556" d="M291.555,138.185c.154,14.824.971,29.64,2.447,44.369" transform="translate(-31.814 -15.079)" fill="none" stroke="#ff9a6c" stroke-linecap="round" stroke-linejoin="round" stroke-width="1"/>
        <path id="Trazado_210557" data-name="Trazado 210557" d="M272.715,168.413a7.086,7.086,0,0,0,4.672.094" transform="translate(-29.759 -18.377)" fill="none" stroke="#ff9a6c" stroke-linecap="round" stroke-linejoin="round" stroke-width="1"/>
        <path id="Trazado_210558" data-name="Trazado 210558" d="M283.587,160.076a7.088,7.088,0,0,0,4.673.094" transform="translate(-30.945 -17.467)" fill="none" stroke="#ff9a6c" stroke-linecap="round" stroke-linejoin="round" stroke-width="1"/>
        <path id="Trazado_210559" data-name="Trazado 210559" d="M296.879,163.087a7.086,7.086,0,0,0,4.672.094" transform="translate(-32.395 -17.796)" fill="none" stroke="#ff9a6c" stroke-linecap="round" stroke-linejoin="round" stroke-width="1"/>
        <path id="Trazado_210560" data-name="Trazado 210560" d="M291.555,234.092a22.158,22.158,0,0,1,3.864-12.227c2.413-3.445,8.744-8.006,15.563-7l1.643-4.369" transform="translate(-31.814 -22.969)" fill="none" stroke="#ff9a6c" stroke-linecap="round" stroke-linejoin="round" stroke-width="1"/>
        <path id="Trazado_210561" data-name="Trazado 210561" d="M277.319,214.521A47.316,47.316,0,0,0,293.576,203.1" transform="translate(-30.261 -22.163)" fill="none" stroke="#ff9a6c" stroke-linecap="round" stroke-linejoin="round" stroke-width="1"/>
        <path id="Trazado_210562" data-name="Trazado 210562" d="M254.508,316.045c-3.022-3.127,10.4-43.047,15.149-66.286" transform="translate(-27.724 -27.254)" fill="none" stroke="#ff9a6c" stroke-linecap="round" stroke-linejoin="round" stroke-width="1"/>
      </g>
    </g>
  </g>
</svg>
