<svg xmlns="http://www.w3.org/2000/svg" xmlns:xlink="http://www.w3.org/1999/xlink" width="503.114" height="355.674" viewBox="0 0 503.114 355.674">
  <defs>
    <clipPath id="clip-path">
      <rect id="Rectángulo_48993" data-name="Rectángulo 48993" width="256.527" height="345.315" fill="none"/>
    </clipPath>
    <clipPath id="clip-path-2">
      <rect id="Rectángulo_48990" data-name="Rectángulo 48990" width="235.41" height="345.315" fill="none"/>
    </clipPath>
    <clipPath id="clip-path-3">
      <path id="Trazado_209314" data-name="Trazado 209314" d="M101.5,260.941c-12.468-3.9-3.2-28.064-3.2-28.064s-32.337,1.558-46.753,31.559-8.182,39.74-8.182,39.74l12.077,2.338s-3.117,16.753-2.727,23.766c.322,5.8-.155,53.684-.33,70.093h96.2l.366-83.34,36.09.13s6.767-25.064-2.973-49.61S137.269,232.1,137.269,232.1s-23.3,32.739-35.764,28.842" transform="translate(-42.032 -232.099)" fill="none"/>
    </clipPath>
    <clipPath id="clip-path-4">
      <rect id="Rectángulo_48991" data-name="Rectángulo 48991" width="157.949" height="128.33" fill="none"/>
    </clipPath>
  </defs>
  <g id="Grupo_172413" data-name="Grupo 172413" transform="translate(2163.114 10821.408)">
    <rect id="BG" width="503.114" height="355.674" transform="translate(-2163.114 -10821.408)" fill="#576bff" opacity="0.949"/>
    <g id="Grupo_172412" data-name="Grupo 172412" transform="translate(-1996.85 -10811.546)">
      <g id="Grupo_169714" data-name="Grupo 169714" clip-path="url(#clip-path)">
        <g id="Grupo_169706" data-name="Grupo 169706" transform="translate(21.118 0.001)">
          <g id="Grupo_169705" data-name="Grupo 169705" clip-path="url(#clip-path-2)">
            <path id="Trazado_209304" data-name="Trazado 209304" d="M205.294,144.069c-21.633-3.762-63.733,5.535-70.381,19.584s-2.953,235.434-2.953,235.434l131.127-10.644s18.4-96.16,23.319-161.282c2.166-28.694-.329-69.043-81.113-83.092" transform="translate(-52.179 -33.977)" fill="#2e4dbc"/>
            <path id="Trazado_209305" data-name="Trazado 209305" d="M220,55.212c0,26.919-16.784,46.756-37.3,48.742-9.724.941-25.828-1.143-28.193-10.161-2.818-10.747-2.694-19.9-1.975-37.529,1.1-26.893,9.565-49.794,30.167-49.794S220,28.292,220,55.212" transform="translate(-57.197 -1.536)" fill="#2e4dbc"/>
            <path id="Trazado_209306" data-name="Trazado 209306" d="M166.325,107.252a19.186,19.186,0,0,1,5.52-.773,24.087,24.087,0,0,1,5.576.625c.918.2,1.81.506,2.7.793l1.3.544c.215.095.435.176.645.281l.62.336a17.935,17.935,0,0,1,4.5,3.3A45.677,45.677,0,0,0,182.255,110a32.359,32.359,0,0,0-5.135-1.6,46.366,46.366,0,0,0-10.795-1.146" transform="translate(-60.573 -25.259)" fill="#576bff"/>
            <path id="Trazado_209307" data-name="Trazado 209307" d="M156.381,29.018s-11.921-18.307.851-23.842S204.7,4.22,216.2,14.864s16.817,26.608,12.134,38.955-8.941,37.039-8.941,37.039-14.9-13.731-14.9-20.117S213,37.958,202.361,32.424s-38.317-14.049-45.98-3.406" transform="translate(-57.015 -0.668)" fill="#2e4dbc"/>
            <path id="Trazado_209308" data-name="Trazado 209308" d="M67.133,208.6s-36.624,53.766-36.624,72.078S45.7,313.019,60.12,298.993s25.714-84.545,25.714-84.545Z" transform="translate(-28.356 -49.485)" fill="#2e4dbc"/>
            <path id="Trazado_209309" data-name="Trazado 209309" d="M116.434,200.872l-.616,24.605h29.527V181.8Z" transform="translate(-48.592 -43.127)" fill="#e9684d"/>
            <path id="Trazado_209310" data-name="Trazado 209310" d="M184.478,316.9c0-47.444-31.258-85.906-69.817-85.906S44.845,269.457,44.845,316.9l-5.217,88.313L181.5,406.773Z" transform="translate(-30.519 -54.796)" fill="#e9684d"/>
            <path id="Trazado_209311" data-name="Trazado 209311" d="M148.958,317.034l36.09.129s6.767-25.064-2.973-49.609S137.269,232.1,137.269,232.1s-23.3,32.739-35.764,28.842-3.2-28.064-3.2-28.064-32.337,1.559-46.753,31.559-8.182,39.74-8.182,39.74l12.078,2.338s-3.117,16.753-2.728,23.766-.389,75.585-.389,75.585h96.234Z" transform="translate(-31.089 -55.058)" fill="#f4ac00"/>
          </g>
        </g>
        <g id="Grupo_169711" data-name="Grupo 169711" transform="translate(32.061 177.041)">
          <g id="Grupo_169710" data-name="Grupo 169710" clip-path="url(#clip-path-3)">
            <g id="Grupo_169709" data-name="Grupo 169709" transform="translate(-32.061 81.662)" opacity="0.35">
              <g id="Grupo_169708" data-name="Grupo 169708">
                <g id="Grupo_169707" data-name="Grupo 169707" clip-path="url(#clip-path-4)">
                  <path id="Trazado_209312" data-name="Trazado 209312" d="M165.363,394.475l-8.793,7.657-8.828,7.613c-5.88,5.082-11.81,10.1-17.723,15.146l-3.52,3,1.41-4.477q2.318-7.354,4.693-14.687l4.732-14.674c3.134-9.79,6.39-19.538,9.579-29.309l3.677,2.728q-9.06,6.729-18.16,13.4l-18.2,13.346-7.224,5.3,2.886-8.526c1.735-5.123,3.455-10.25,5.227-15.359L120.4,360.29l4.677,3.3-11.789,9.5-11.8,9.491-23.68,18.881-5.54,4.418.744-7.031,1.42-13.407,1.486-13.4,2.986-26.8,4.3,2.23L66.628,361.532l-16.6,14.026-4.519,3.818,1.217-5.7L49.9,358.844c1.045-4.944,2.169-9.873,3.249-14.811l1.571,1.22c-3.888,1.652-7.8,3.251-11.706,4.865s-7.837,3.173-11.755,4.762C35,352.922,38.726,350.919,42.491,349c3.757-1.934,7.509-3.883,11.284-5.778l1.9-.957-.333,2.177c-.764,5-1.485,10-2.285,14.99L50.69,374.407l-3.3-1.886,16.186-14.5,16.21-14.47,4.925-4.4-.629,6.625-2.548,26.844-1.282,13.422L78.9,399.462l-4.8-2.613,23.577-19.009,11.828-9.455,11.839-9.441,8.095-6.455-3.416,9.756-5.363,15.313c-1.776,5.108-3.6,10.2-5.417,15.293l-4.336-3.23,18.414-13.05q9.193-6.544,18.453-12.995l6.227-4.356-2.55,7.085c-3.481,9.671-6.895,19.365-10.43,29.016l-5.273,14.489q-2.625,7.248-5.312,14.475l-2.11-1.474c6.151-4.749,12.283-9.521,18.465-14.23l9.266-7.075Z" transform="translate(-7.414 -339.157)" fill="#fffdfd"/>
                  <path id="Trazado_209313" data-name="Trazado 209313" d="M134.108,446.382l-8.793,7.657-8.828,7.613c-5.88,5.082-11.81,10.1-17.723,15.146l-3.52,3,1.41-4.477q2.318-7.354,4.693-14.687l4.732-14.674c3.134-9.79,6.39-19.538,9.579-29.309l3.677,2.728q-9.06,6.729-18.16,13.4l-18.2,13.346-7.224,5.3,2.886-8.526c1.735-5.123,3.455-10.25,5.227-15.359L89.146,412.2l4.677,3.3L82.034,425l-11.8,9.491L46.555,453.374l-5.541,4.418.744-7.031,1.42-13.407,1.486-13.4,2.986-26.8,4.3,2.23L35.373,413.439l-16.6,14.026-4.519,3.818,1.217-5.7,3.164-14.827c1.045-4.944,2.169-9.873,3.249-14.811l1.571,1.22c-3.888,1.652-7.8,3.251-11.706,4.865S3.918,405.2,0,406.788c3.746-1.959,7.471-3.962,11.236-5.881,3.757-1.934,7.509-3.883,11.284-5.778l1.9-.957-.333,2.177c-.764,5-1.485,10-2.285,14.99l-2.371,14.974-3.3-1.886,16.186-14.5,16.21-14.47,4.925-4.4-.629,6.625-2.548,26.844-1.282,13.421-1.347,13.415-4.8-2.613,23.577-19.009,11.828-9.455L90.1,410.85l8.095-6.455-3.417,9.756-5.363,15.312c-1.776,5.108-3.6,10.2-5.416,15.294l-4.337-3.23,18.414-13.05q9.193-6.544,18.453-12.995l6.227-4.356-2.549,7.085c-3.481,9.671-6.9,19.365-10.431,29.016L104.5,461.717q-2.625,7.248-5.312,14.475l-2.11-1.474c6.151-4.749,12.283-9.521,18.465-14.231l9.266-7.075Z" transform="translate(0 -351.47)" fill="#fffdfd"/>
                </g>
              </g>
            </g>
          </g>
        </g>
        <g id="Grupo_169713" data-name="Grupo 169713" transform="translate(21.118 0.001)">
          <g id="Grupo_169712" data-name="Grupo 169712" clip-path="url(#clip-path-2)">
            <path id="Trazado_209315" data-name="Trazado 209315" d="M176.93,303.4a304.336,304.336,0,0,1,4.027,30.549A304.319,304.319,0,0,1,176.93,303.4" transform="translate(-63.089 -71.972)"/>
            <path id="Trazado_209316" data-name="Trazado 209316" d="M67.361,300.05a182.79,182.79,0,0,1-7.738,22.584,182.739,182.739,0,0,1,7.738-22.584" transform="translate(-35.262 -71.177)"/>
            <path id="Trazado_209317" data-name="Trazado 209317" d="M77.475,139.961S61.112,109.571,74.359,97.1s48.312-5.844,47.143.39-44.026,42.467-44.026,42.467" transform="translate(-37.53 -21.363)"/>
            <path id="Trazado_209318" data-name="Trazado 209318" d="M141.89,144.719c0,23.611-15.835,42.751-35.37,42.751s-28.6-18.218-28.6-41.828,9.07-43.674,28.6-43.674,35.37,19.14,35.37,42.751" transform="translate(-39.602 -24.189)" fill="#e9684d"/>
            <path id="Trazado_209319" data-name="Trazado 209319" d="M91.944,154.972a47.872,47.872,0,0,1-5.749,13.546c-.341.465-.931,1.144-.661,1.724,1.086,2.142,6.484,3.6,8.747,3.043-2.539,1.29-8.578.191-9.915-2.574a2.884,2.884,0,0,1,.755-2.951c2.632-4.051,4.5-8.539,6.823-12.787" transform="translate(-41.089 -36.763)"/>
            <path id="Trazado_209320" data-name="Trazado 209320" d="M107.636,156.5c2.559,2.386,6.031,4.429,9.382,2.406a21.763,21.763,0,0,0,3.085-2.016c-3.138,5.689-9.7,5.468-12.468-.39" transform="translate(-46.651 -37.126)"/>
            <path id="Trazado_209321" data-name="Trazado 209321" d="M80.054,154.125c3.126,4.716,3.907,5.335,7.4.439a7.919,7.919,0,0,1-1.133,2.786c-2.654,4.095-5.932.012-6.27-3.225" transform="translate(-40.109 -36.562)"/>
            <path id="Trazado_209322" data-name="Trazado 209322" d="M106.615,140.67c5,2.281,10.123,4.91,15.584,5.844-5.687.577-11.333-2.259-15.584-5.844" transform="translate(-46.409 -33.37)"/>
            <path id="Trazado_209323" data-name="Trazado 209323" d="M90.452,139.137c-2.233,2.548-7.433,6.235-10.909,4.676,2.044.07,3.775-1,5.548-1.851,1.767-.916,3.493-1.931,5.361-2.825" transform="translate(-39.987 -33.006)"/>
            <path id="Trazado_209324" data-name="Trazado 209324" d="M98.2,96.059c-5.455,6.234-15.974,24.156,20.649,35.065,15.531,4.626-1.709,67.033,13.358,84.361,17.03,19.584,57.211,17.133,51.089-3.406-14.893-49.961-11.07-88.553-30.55-110.955C135.606,85.539,106.931,86.086,98.2,96.059" transform="translate(-43.063 -21.097)"/>
            <path id="Trazado_209325" data-name="Trazado 209325" d="M74.179,113.756c-1.444-10.944,5.9-18.717,16.5-20.055a39.833,39.833,0,0,1,9.609-.1,54.623,54.623,0,0,0-9.515.675c-10.353,1.659-17.078,8.773-16.6,19.476" transform="translate(-38.672 -22.148)" fill="#576bff"/>
            <path id="Trazado_209326" data-name="Trazado 209326" d="M115.039,129.868c-9.921-2-15.517-13.643-18.355-22.428l1.326,1.786c1.932,2.457,8.954,12,12.058,11.249l-.162.464c-1.375-2.761-4.1-8.337-5.442-11.115l-.6-1.24c1.88,1.865,3.839,3.7,5.875,5.394,1.712,1.317,3.422,2.92,5.584,3.4-2.2-.362-3.992-1.921-5.761-3.179-1.761-1.346-3.428-2.8-5.049-4.314l.381-.278c1.5,2.9,4.322,8.422,5.788,11.34-3.522,2.061-11.216-8.7-13.24-11.31l.62-.311c2.921,8.131,7.915,18.224,16.978,20.54" transform="translate(-44.053 -25.487)" fill="#576bff"/>
            <path id="Trazado_209327" data-name="Trazado 209327" d="M159.816,102.238a52.824,52.824,0,0,1,16.8,25.99c2.76,10.085,4.275,20.446,5.777,30.772.941,6.891,1.774,13.8,2.4,20.723-.944-6.888-1.912-13.771-2.981-20.639-1.645-10.27-3.214-20.609-5.863-30.666a55.77,55.77,0,0,0-16.133-26.18" transform="translate(-59.029 -24.253)" fill="#576bff"/>
            <path id="Trazado_209328" data-name="Trazado 209328" d="M80.6,187.329s17.922-11.3,20.26-8.961-7.013,9.741-7.013,9.741,12.468-8.182,14.806-5.455-7.793,17.143-7.793,17.143,8.182-4.675,8.182-1.948S98.134,214.6,87.224,214.991s-16.363-17.143-16.363-21.429c0-7.792,8.96-12.078,8.96-12.078Z" transform="translate(-37.928 -42.237)" fill="#2e4dbc"/>
            <path id="Trazado_209329" data-name="Trazado 209329" d="M226.381,91.865l11.07,46.406s-18.307,19.158-33.633,20.01-8.515-12.346-8.515-16.6-5.535-21.287-5.535-21.287Z" transform="translate(-66.134 -21.793)" fill="#2e4dbc"/>
            <path id="Trazado_209330" data-name="Trazado 209330" d="M101.808,200.374s-9.652-13.732-5.4-15.009,18.733,24.693,18.733,24.693-1.278-11.921,2.98-10.644,5.96,17.03,2.554,27.673L196.888,272s26.822-84.935,55.559-83.658c15.031.668,21.114,22.879,5.748,60.029-14.012,33.875-37.978,72.8-53,72.8-31.5,0-100.262-84.722-100.262-84.722s-12.346-9.792-16.6-16.6S76.136,206.785,78.4,202.887s8.648,3.765,8.648,3.765-8.228-9.117-7.377-15.077,13.623,13.056,13.623,13.056S81.941,186.75,85.63,184.763c4.852-2.613,16.178,15.61,16.178,15.61" transform="translate(-39.621 -43.769)" fill="#2e4dbc"/>
            <path id="Trazado_209331" data-name="Trazado 209331" d="M104.862,236.337a105.046,105.046,0,0,1-14.932-14.06c-1.448-1.769-2.566-3.768-4-5.549-2.09-2.7-4.442-5.217-6.4-8.033-.931-1.425-1.97-3.063-1.78-4.864.31-2.238,2.286-2.956,4.163-1.921a18.681,18.681,0,0,1,5.262,4.466c.217.235-.169.571-.373.323a43.157,43.157,0,0,1-5.507-7.8,14.26,14.26,0,0,1-2.024-6.9c.519-7.806,13.687,9.2,15.217,11.033l-.53.4c-3.275-4.58-6.575-9.208-8.764-14.435-.713-1.736-1.523-4.933,1.381-4.987,2.082.092,3.606,1.5,5.067,2.757a41.189,41.189,0,0,1,3.841,4.151,94.769,94.769,0,0,1,6.542,9.161.328.328,0,0,1-.547.362c-1.158-1.685-2.243-3.4-3.259-5.173-1.412-2.7-3.226-5.447-3.227-8.626a1.878,1.878,0,0,1,.86-1.5c2.175-1.133,4.95,2.793,6.232,4.2a165.112,165.112,0,0,1,13.192,20.489l-.408.13a37.249,37.249,0,0,1-.134-5.218c.143-1.742.214-3.606,1.33-5.071,1.5-1.706,3.652.18,4.3,1.734,3.194,7.278,2.561,18.075.258,25.562,2.195-7.469,2.69-18.224-.558-25.405-1.609-3.086-4.06-2.883-4.628.654a28.93,28.93,0,0,0-.131,7.7.219.219,0,0,1-.2.24.221.221,0,0,1-.212-.11,164.632,164.632,0,0,0-13.233-20.356c-1.416-1.551-2.836-3.695-4.946-4.2-1.9.206-1,2.823-.594,4.051a52.387,52.387,0,0,0,5.894,10.522l-.546.362a93.86,93.86,0,0,0-6.53-9.058,40.581,40.581,0,0,0-3.789-4.06c-1.285-1.117-2.831-2.477-4.561-2.541a1.2,1.2,0,0,0-1.327,1.379c.255,2.7,1.811,5.182,3.09,7.554a109.29,109.29,0,0,0,6.141,9.335.333.333,0,0,1-.529.4c-1.946-2.482-3.979-4.912-6.118-7.23-2.149-2.214-9.512-10.355-7.778-1.9,1.183,4.557,4.111,8.5,7.1,12.061l-.374.324c-1.822-1.939-3.861-4.4-6.622-4.8a2.1,2.1,0,0,0-1.986,2c-.171,1.673.808,3.2,1.69,4.571,1.936,2.816,4.285,5.313,6.339,8.052,1.409,1.8,2.5,3.815,3.926,5.6a104.967,104.967,0,0,0,14.724,14.226" transform="translate(-39.556 -43.652)" fill="#576bff"/>
            <path id="Trazado_209332" data-name="Trazado 209332" d="M240.682,279.957c-.585,1.322-1.22,2.613-1.889,3.883s-1.352,2.532-2.066,3.775c-.7,1.252-1.449,2.473-2.185,3.7-.755,1.217-1.51,2.436-2.3,3.632l-.33.5-.468-.3c-1.114-.711-2.217-1.438-3.3-2.195s-2.166-1.526-3.21-2.353c1.226.522,2.421,1.1,3.6,1.693s2.352,1.212,3.508,1.85l-.8.2c.7-1.252,1.434-2.481,2.169-3.712.755-1.218,1.494-2.445,2.285-3.642s1.578-2.394,2.4-3.569,1.676-2.335,2.581-3.462" transform="translate(-74.475 -66.411)" fill="#576bff"/>
            <path id="Trazado_209333" data-name="Trazado 209333" d="M229.674,347.817a32.91,32.91,0,0,0,8.4,2.08,18.167,18.167,0,0,0,8.4-.811,12.612,12.612,0,0,0,3.591-2.079c.264-.224.51-.468.767-.7l.7-.765,1.339-1.683q2.611-3.445,5.031-7.068c3.269-4.789,6.4-9.684,9.562-14.555l4.712-7.335,4.754-7.316c-1.346,2.581-2.786,5.108-4.2,7.654l-4.4,7.536q-4.45,7.509-9.332,14.763c-1.638,2.41-3.336,4.786-5.142,7.1l-1.412,1.7-.789.823c-.287.25-.564.512-.86.751a12.581,12.581,0,0,1-3.989,2.14,18.857,18.857,0,0,1-8.826.493,30.138,30.138,0,0,1-8.311-2.722" transform="translate(-75.601 -72.965)" fill="#576bff"/>
          </g>
        </g>
      </g>
    </g>
  </g>
</svg>
