<svg xmlns="http://www.w3.org/2000/svg" xmlns:xlink="http://www.w3.org/1999/xlink" width="505" height="275" viewBox="0 0 505 275">
  <defs>
    <clipPath id="clip-path">
      <rect id="Rect치ngulo_48996" data-name="Rect치ngulo 48996" width="219.937" height="269.077" fill="none"/>
    </clipPath>
  </defs>
  <g id="Grupo_169864" data-name="Grupo 169864" transform="translate(-810 -13461)">
    <g id="Grupo_169722" data-name="Grupo 169722" transform="translate(0 3861)">
      <rect id="Rect치ngulo_48864" data-name="Rect치ngulo 48864" width="505" height="275" transform="translate(810 9600)" fill="#bc0b03"/>
    </g>
    <g id="Grupo_169721" data-name="Grupo 169721" transform="translate(997 13466.923)">
      <g id="Grupo_169720" data-name="Grupo 169720" clip-path="url(#clip-path)">
        <path id="Trazado_209419" data-name="Trazado 209419" d="M36.412,71.449c-14,2.258-8.152-46.121,26.052-58.538S50.409,69.191,36.412,71.449" transform="translate(-12.485 -4.856)" fill="#ffae03"/>
        <path id="Trazado_209420" data-name="Trazado 209420" d="M131.2,70.528c-18.585-59.087-96.833-48.021-100.335,14.5q-.053.934-.079,1.871-.06,2.172-.091,4.435l-.086-.218s-9.221,24.081-9.763,27.552c-.279,1.788,5.378,2.141,10.932,2.064,2.015,21.584,7.07,41.2,17.513,44.275,15.981,4.705,59.159-2.98,80.748-42.034,7.468-13.509,7.1-33.549,1.16-52.441" transform="translate(-8.864 -13.477)" fill="#ff4401"/>
        <path id="Trazado_209421" data-name="Trazado 209421" d="M144.572,353.136c6.278-8.2,35.83-50.31,3.955-78.286-35.445-31.108-27.526-77.3-27.526-77.3s-18.854,33.936-61.463,37.707c0,0,18.636,44.323-9.079,61.48,0,0-47.412,40.169-44.7,56.4Z" transform="translate(-2.405 -84.058)" fill="#e23500"/>
        <path id="Trazado_209422" data-name="Trazado 209422" d="M187.312,427.151c.154-.825.431-2.308.649-4.279-.788-10.339-4.208-20.477-10.885-28.655a63.558,63.558,0,0,0-27.973-19.91,51.562,51.562,0,0,0-8.539-2.173q-2.55-.364-4.885-.543a43.911,43.911,0,0,0-20.869,3.695,50.616,50.616,0,0,0-6.121,3.284C95.945,389.149,93.767,408.18,76.773,412.7c-8.64,2.3-54.439,3.066-64.693-3.219-5.045,6.7-8.455,13.008-8.287,17.671Z" transform="translate(-1.611 -158.074)" fill="#fc5800"/>
        <path id="Trazado_209423" data-name="Trazado 209423" d="M245.415,155.035a58.859,58.859,0,0,0-8.905-29.022c-11-18-28.8-31.11-37.859-50.408s-8.825-43.318-24.625-59.124c-7.591-7.594-17.709-12.294-28.107-14.594-12.758-2.821-26-2.07-38.858-.412C95.178,3.008,82.2,4.466,72.106,11.487,64.037,17.1,58.295,26.344,60.37,36.421a17.555,17.555,0,0,0,7.011,10.994.471.471,0,0,0,.475.058c3.836,3.458,8.686,5.592,13.526,7.267,5.676,1.964,11.455,3.6,17.1,5.667a105.7,105.7,0,0,1,16.893,7.708c9.59,5.579,18.068,13.543,22.531,23.861a35.154,35.154,0,0,1,2.881,16.158,55.391,55.391,0,0,1-3.669,15.54c-3.717,10.123-9.066,19.853-10.575,30.657-1.546,11.06,2.062,21.8,8.247,30.9a72.826,72.826,0,0,0,25.019,22.777,57.313,57.313,0,0,0,30.147,6.968,60.36,60.36,0,0,0,28.5-8.671,55.266,55.266,0,0,0,20.415-22.06,60.605,60.605,0,0,0,6.545-29.211" transform="translate(-25.506 0)" fill="#ffae03"/>
        <path id="Trazado_209424" data-name="Trazado 209424" d="M224.94,195.006a92.579,92.579,0,0,1-12.1-17.147,124.026,124.026,0,0,1-8.254-19.523c-4.6-13.762-7.4-28.017-11.147-42.015-3.79-14.154-8.628-28.289-17.029-40.433-7.81-11.291-18.36-20.375-29.889-27.708A173.149,173.149,0,0,0,128.2,38.125q-4.7-2.245-9.5-4.273a48.809,48.809,0,0,1-9.1-4.631,19.167,19.167,0,0,1-3.843-3.471c-.267-.325-.707.135-.457.457,4.22,5.414,11.172,7.568,17.206,10.275a194.4,194.4,0,0,1,18.622,9.494c11.931,6.977,23.066,15.605,31.617,26.55,9.135,11.693,14.536,25.661,18.566,39.811,3.99,14.008,6.721,28.35,11.048,42.265,4.107,13.206,9.636,26.3,18.617,36.972a47.142,47.142,0,0,0,3.577,3.821.275.275,0,0,0,.389-.389" transform="translate(-44.773 -10.91)" fill="#ffbe4a"/>
        <path id="Trazado_209425" data-name="Trazado 209425" d="M319.066,210.7a84.8,84.8,0,0,0-8.834-19.774,184.945,184.945,0,0,0-12.707-18.283q-7.263-9.432-14.764-18.684c-.658-.813-1.325-1.617-1.991-2.423-.254-.308-.8.107-.559.431,4.789,6.4,9.79,12.63,14.7,18.934a217.521,217.521,0,0,1,12.81,17.866,91.455,91.455,0,0,1,9.5,19.4,61.214,61.214,0,0,1,3.3,20.2,48.884,48.884,0,0,1-1.136,9.985,46.4,46.4,0,0,1-3.273,9.551c-.352.755-.735,1.5-1.125,2.234a.267.267,0,0,0,.46.269,40.251,40.251,0,0,0,5.962-19.216,59.922,59.922,0,0,0-2.337-20.491" transform="translate(-119.205 -64.431)" fill="#ffbe4a"/>
        <path id="Trazado_209426" data-name="Trazado 209426" d="M203.5,73.444a94.281,94.281,0,0,0-8.722-16.474,95.55,95.55,0,0,0-11.7-14.37,86.967,86.967,0,0,0-14.349-11.714,76.484,76.484,0,0,0-16.471-8.1c-6.826-2.374-14.26-4.009-21.5-3.037-.946.127-1.885.3-2.816.515-.418.1-.24.724.177.64,7.343-1.475,14.966-.145,22.012,2.093a74.56,74.56,0,0,1,16.469,7.6,84.571,84.571,0,0,1,14.361,11.188,95.6,95.6,0,0,1,11.9,13.98,107.412,107.412,0,0,1,9.152,15.827q.489,1.038.954,2.086c.133.3.662.082.535-.226" transform="translate(-54.336 -8.28)" fill="#ffbe4a"/>
        <path id="Trazado_209427" data-name="Trazado 209427" d="M236.544,46.57a45.639,45.639,0,0,0-7.584-13.639,49.129,49.129,0,0,0-11.516-10.67c-2.626-1.731-5.716-3.122-8.924-2.507-.539.1-.307.911.226.819,2.79-.479,5.481.8,7.775,2.265a44.452,44.452,0,0,1,6.032,4.691,50.59,50.59,0,0,1,9.453,11.661,63.716,63.716,0,0,1,3.726,7.605c.2.483.988.306.813-.224" transform="translate(-88.595 -8.342)" fill="#ffbe4a"/>
        <path id="Trazado_209428" data-name="Trazado 209428" d="M218.257,121.344a21.068,21.068,0,0,0-11.815,3.6v35.135a21.17,21.17,0,1,0,11.815-38.737" transform="translate(-87.842 -51.632)" fill="#ff4401"/>
        <path id="Trazado_209429" data-name="Trazado 209429" d="M231.966,141.237,215.4,161.111l10.61-1.973" transform="translate(-91.655 -60.097)" fill="none" stroke="#2b292e" stroke-linecap="round" stroke-linejoin="round" stroke-width="1"/>
        <path id="Trazado_209430" data-name="Trazado 209430" d="M200.876,217.31c-8.206-.715-16.485-2.825-23.2-7.782a42.053,42.053,0,0,1-13-16.924c-7-15.7-5.89-33.192-5.69-49.952.188-15.75-.615-32.664-9.318-46.363-8.43-13.267-23.155-20.034-37.255-25.605-7.714-3.048-15.533-5.92-22.851-9.859a62.316,62.316,0,0,1-10.228-6.653c-2.9-2.4-5.609-5.5-6.63-9.191a9.031,9.031,0,0,1,.177-5.506c.094-.262-.337-.448-.454-.191-3.313,7.247,3.833,14.059,9.163,17.86,6.785,4.838,14.47,8.218,22.168,11.315,14.627,5.886,30.685,11.148,41.3,23.5,10.783,12.544,12.742,29.9,12.811,45.812.075,17.366-1.771,35.379,4.459,52a46.925,46.925,0,0,0,11.428,17.9,38.924,38.924,0,0,0,21.11,9.792,47.967,47.967,0,0,0,6.006.461c.4.009.385-.576,0-.61" transform="translate(-30.46 -16.664)" fill="#ffbe4a"/>
        <path id="Trazado_209431" data-name="Trazado 209431" d="M40.918,31.067C31.439,34.92,23.556,41.89,17.549,50.084,10.87,59.193,6.621,69.887,4.082,80.84,1.323,92.744.14,105.114,2.4,117.2A111.353,111.353,0,0,0,7.47,134.872c2.119,5.807,4.425,11.592,5.647,17.672,1.167,5.8,1.348,12.026-.673,17.67a20.888,20.888,0,0,1-8.962,11.058,15.724,15.724,0,0,1-3.356,1.463.179.179,0,0,0,.1.346,18.494,18.494,0,0,0,10.8-8.048,26.712,26.712,0,0,0,3.912-15.3c-.307-12.365-6.548-23.56-9.8-35.263A76.415,76.415,0,0,1,2.207,106.19,94.77,94.77,0,0,1,3.788,87.385c1.986-11.438,5.6-22.732,11.757-32.635A62.879,62.879,0,0,1,37.689,33.228c1.108-.632,2.245-1.214,3.394-1.767.217-.1.061-.486-.166-.394" transform="translate(0 -13.213)" fill="#ffbe4a"/>
        <path id="Trazado_209432" data-name="Trazado 209432" d="M45.845,48.37a48.507,48.507,0,0,0-5.238,4.318,50.877,50.877,0,0,0-4.592,5.122A53.145,53.145,0,0,0,29.1,69.465,52.465,52.465,0,0,0,25.339,82.5c-.672,4.468-.58,8.979-.878,13.476-.321,4.849-1.2,9.986-4.536,13.739-.344.386.214.953.57.571,3-3.207,4.2-7.4,4.7-11.666.523-4.5.333-9.039.784-13.54a54.186,54.186,0,0,1,14.433-31.21,54.6,54.6,0,0,1,5.611-5.27c.126-.1-.043-.322-.174-.225" transform="translate(-8.432 -20.572)" fill="#ffbe4a"/>
        <path id="Trazado_209433" data-name="Trazado 209433" d="M86.992,105.452S80.072,92.6,58.2,92.852c0,0-5.043.268-2.223,4.682s13.374-3.149,31.016,7.918" transform="translate(-23.453 -39.507)" fill="#ffae03"/>
        <path id="Trazado_209434" data-name="Trazado 209434" d="M120.4,144.2c1.131,4.495-4.236,9.719-11.987,11.669s-14.951-.113-16.082-4.608,4.236-9.72,11.987-11.67,14.951.114,16.082,4.609" transform="translate(-39.225 -59.082)" fill="#ff6839"/>
        <path id="Trazado_209435" data-name="Trazado 209435" d="M54.4,133.261c.252.077.528.148.807.218,11.463,6.065,19-4.393,19-4.393l13.3-4.942-13.982-1.135a1.352,1.352,0,0,0-.164-.105,1.534,1.534,0,0,0-1.979.852c-4.067,10.115-15.576,6.77-16.062,6.623a1.532,1.532,0,0,0-1.907,1,1.5,1.5,0,0,0,1,1.883" transform="translate(-22.693 -52.251)" fill="#2b292e"/>
        <path id="Trazado_209436" data-name="Trazado 209436" d="M76.891,153.7s-4.5,12.144.7,11.655-.7-11.655-.7-11.655" transform="translate(-31.948 -65.398)" fill="#ffbe4a"/>
        <path id="Trazado_209437" data-name="Trazado 209437" d="M55.83,244.262c.372-.529,11.207-3.895,12.719-13.9s-1.305-18.758,1.968-22.9,25.581-15.486,33.9-17.579c0,0,2.94-3.388-1.977-3.371s-26.508,5.064-27.7,6.2-14.3,10.652-14.3,10.652,12.984-13.718,17.225-14.686,29.407-4.407,30.016-6.787-3.075-3.272-3.075-3.272l-32.974,7.393L54.046,197.6l17.422-14.628,35.794-6.118s.953-7.081-2.074-6.6-35.815,7.607-35.815,7.607l-19.6,13.334L69.961,175.9l33.7-6.962s-3.016-3.468-6.836-3.548-6.26,1.643-19.435,3.558S35.4,188.578,33.732,193.416s-7.561,48.984-8.6,54.224,39.1,17.725,39.1,17.725l5.942-15.514Z" transform="translate(-10.685 -70.371)" fill="#bc0b03"/>
        <path id="Trazado_209438" data-name="Trazado 209438" d="M63.889,185.093s-3.329-7.621-2.144-9.338,11.349,4.078,11.349,4.078Z" transform="translate(-26.164 -74.648)" fill="#bc0b03"/>
        <path id="Trazado_209439" data-name="Trazado 209439" d="M264.019,386.528c-.646.02-9.421,7.213-18.61,2.965s-14.942-11.416-20.2-10.964-27.011,12.832-33.337,18.623c0,0-4.447.589-1.725-3.506s18.819-19.343,20.426-19.716,16.768-6.079,16.768-6.079-18.6,3.288-21.744,6.3-19.867,22.125-22.189,21.322-1.04-4.368-1.04-4.368l24.324-23.458,19.353-8.294-21.8,6.492-24.812,26.515s-6.437-3.1-4.371-5.366,26.066-25.713,26.066-25.713l21.919-9.02-23.878,8.433-24.362,24.3s-1.236-4.426.8-7.66,4.818-4.322,13.669-14.267,39.506-24.248,44.463-22.976,45.057,20.652,50,22.669-6.724,42.4-6.724,42.4l-16.222-3.58Z" transform="translate(-74.221 -144.675)" fill="#bc0b03"/>
      </g>
    </g>
  </g>
</svg>
