<svg xmlns="http://www.w3.org/2000/svg" xmlns:xlink="http://www.w3.org/1999/xlink" width="601" height="431" viewBox="0 0 601 431">
  <defs>
    <clipPath id="clip-path">
      <rect id="Rect치ngulo_49383" data-name="Rect치ngulo 49383" width="388.032" height="372.416" fill="none"/>
    </clipPath>
  </defs>
  <g id="Grupo_172414" data-name="Grupo 172414" transform="translate(-180 -2438.1)">
    <rect id="Rect치ngulo_48815" data-name="Rect치ngulo 48815" width="601" height="431" transform="translate(180 2438.1)" fill="#fcf8ff"/>
    <g id="Grupo_170524" data-name="Grupo 170524" transform="translate(263.278 2468.899)">
      <g id="Grupo_170523" data-name="Grupo 170523" clip-path="url(#clip-path)">
        <path id="Trazado_211439" data-name="Trazado 211439" d="M706.113,553.429s49.649-64.175,43.478-77.388-21.346-1.675-21.3-8.709,32.387-43.85,27.512-55.185S744.586,401.961,745.737,394s27.241-41.91,2.425-45.183S720.6,386.97,710.956,391.6s-15.781-.458-25.384,14.265,1.217,48.787-8.641,52.586-18.09-.674-21.938,8.015-4.3,70.194,6.281,75.072,44.84,11.892,44.84,11.892" transform="translate(-406.794 -217.357)" fill="#43b572"/>
        <path id="Trazado_211440" data-name="Trazado 211440" d="M742.378,493.657c6.871-23,26.09-85.476,32.415-98.14,5.269-10.548,18.187-36.157,22.592-44.886q.532.147,1.021.319c-4.327,8.574-17.369,34.428-22.669,45.039-6.292,12.6-25.484,74.992-32.348,97.971-4.955,16.589-12.854,45.448-15.48,55.089l-1.023-.261c2.622-9.627,10.531-38.52,15.492-55.13" transform="translate(-453.174 -218.599)" fill="#79d894"/>
        <path id="Trazado_211441" data-name="Trazado 211441" d="M789.179,734.16s42.776-26.113,42.641-36.225-2.511-15.283-2.05-20.26,37.115-33.623,17.655-45.34-37.93,27.116-45.472,28.711-11.559.09-22.851,5.023-42.287,63.352-30.472,77.954,40.549-9.863,40.549-9.863" transform="translate(-465.084 -392.856)" fill="#36995e"/>
        <path id="Trazado_211442" data-name="Trazado 211442" d="M803.867,700.763c5.253-5.57,10.593-12.108,16.248-19.031,5.248-6.426,10.676-13.07,16.067-18.922,7.948-8.628,19.412-19.618,25.125-25.017a13.683,13.683,0,0,1,1.371,1.107c-5.689,5.377-17.135,16.349-25.06,24.95-5.357,5.815-10.769,12.441-16,18.848-5.674,6.946-11.032,13.506-16.326,19.12-2.281,2.419-4.222,4.359-5.935,6.072-6.121,6.118-9.816,9.812-18.7,24.743-5.284,8.882-9.319,15.6-12.291,20.458a12.746,12.746,0,0,1-1.782-.533c2.977-4.864,7.056-11.654,12.436-20.7,8.987-15.1,12.736-18.853,18.949-25.062,1.7-1.7,3.637-3.635,5.9-6.035" transform="translate(-477.923 -397.63)" fill="#79d894"/>
        <path id="Trazado_211443" data-name="Trazado 211443" d="M114.181,522.085c-1.755.013-63.834,2.39-76.6,0s-26.555,44.081-30.13,71.657-14.809,76.08,0,82.979,103.155,2.449,116.943,3.907,36.768,2.3,41.364.091-12.767-75.743-13.278-81.871-4.6-47.492-10.213-57.2-11.207-19.7-28.087-19.569" transform="translate(0 -325.437)" fill="#b1d5de"/>
        <path id="Trazado_211444" data-name="Trazado 211444" d="M227.379,628.013c.081-8.681-9.616-67.767-14.726-76.78-4.226-7.455-59.169-21.818-78.037-26.561-1.877-.031-3.665-.073-5.341-.129,4.753,7,25.766,37.647,34.587,45.769,8.243,7.59,13.794,84.547,19.245,111.647,10.393-.1,18.45-.106,21.883.257,11.3,1.2,28.772,1.974,37.24,1-3.583-12.716-14.919-48.007-14.852-55.206" transform="translate(-80.597 -327.024)" fill="#84c0ce"/>
        <path id="Trazado_211445" data-name="Trazado 211445" d="M454.469,4.781s4.142.738,4.71,3.972-1.759,6.8-1.078,8.565,1.532,1.941.738,3.043-2.383-.046-2.383-.046,1.816,7.163,2.383,10.113-.567,6.7-1.475,6.242l-.908-.454s3.064,8.512,5.9,9.873,5.107,1.873,4.54,3.8a3.7,3.7,0,0,1-1.759,2.44s5.334,5.221,6.072,10.384-11.235,13.165-20.882,8.568-25.421-22.868-28.882-31.72-1.418-17.761,0-21.676,6.128-7.093,6.128-7.093-4.37,2.1-3.462-.056,7.547-3.178,7.547-3.178S424,4.384,427.573,3.306s8.361,3.008,8.361,3.008-.644-5.958,2.08-6.3.964,5.391.964,5.391,9.93-4.256,15.491-.624" transform="translate(-261.561 0)" fill="#434a59"/>
        <path id="Trazado_211446" data-name="Trazado 211446" d="M456.97,120.556l40.343,40.222s46.475-55.543,53.114-47.712-27.949,77.083-49.594,76.519-38.586-20.854-46.417-32.6,2.553-36.43,2.553-36.43" transform="translate(-281.483 -70.019)" fill="#f27c79"/>
        <path id="Trazado_211447" data-name="Trazado 211447" d="M491.5,887l2.558,18.773a11.771,11.771,0,0,0,5.386,10.053c5.9,4.086,33.592,5.713,35.408,3.878s-15.434-12.415-18.839-15.977S506.484,890.407,502.853,887s-9.781-4.208-11.349,0" transform="translate(-306.426 -551.213)" fill="#ff867a"/>
        <path id="Trazado_211448" data-name="Trazado 211448" d="M192.051,112.292s-44.813,53.206-74.787,78.435c-28.09,23.644-41.042,59.282-15.049,73.875s124.037,14.593,124.037,14.593L294.2,411.439l17.785-10.032s-26.449-129.053-35.113-142.278-76.155-30.836-76.155-30.836a83.938,83.938,0,0,1,9.583-26.659c9.205-15.638,24.666-31.508,31.458-42.829,12.313-20.521-16.141-82.72-49.706-46.514" transform="translate(-54.955 -63.087)" fill="#ff867a"/>
        <path id="Trazado_211449" data-name="Trazado 211449" d="M185.507,431.161s57.458,24.169,65.21,37.394,13.225,144.1,13.225,144.1l-16.495,1.65L213.78,495.46S112.7,476.621,100.538,456.4s1.973-33.9,17.022-38.918,67.947,13.681,67.947,13.681" transform="translate(-59.812 -259.744)" fill="#ff867a"/>
        <path id="Trazado_211450" data-name="Trazado 211450" d="M177.06,156.362s11.576,13.165,26.329,13.846,36.543,3.859,36.543,3.859,1.362,17.25,0,20.882-14.3,15.434-17.7,19.52-24.059,42.444-24.059,42.444,6.355,0,4.766,1.589l-1.589,1.589s29.507,8.4,32.684,11.122,34.134,15.938,34.046,17.7-37.9,20.428-43.352,25.875-6.583,8.4-10.895,6.355-20.655-8.4-18.612-4.539,11.8,9.079,12.484,10.214-8.852,12.938-10.214,12.029-62.418-17.7-69.228-20.428S96.03,305.939,83.092,293s1.363-54.464,22.017-67.866,34.046-28.826,34.727-30.188-.454-7.036,3.177-8.171,4.086-.908,6.355-2.951,4.766-7.49,8.625-11.122,4.993-4.54,6.583-6.128,12.483-10.214,12.483-10.214" transform="translate(-48.726 -97.483)" fill="#7f635d"/>
        <path id="Trazado_211451" data-name="Trazado 211451" d="M379.208,168.187s3.4.227,4.766,1.362,2.951,7.717,3.064,8.512-4.54,2.27-6.583.794-4.88-5.614-4.88-5.614-.227,5.288-2.157,5.054-11.576-1.823-15.548-2.618a64.007,64.007,0,0,0-9.76-1.135c-4.426-.34-20.655-3.632-24.4-5.221s-11.73-4.745-12.484-5.9-3.4-1.589-1.589-2.837,9.419-7.15,11.916-7.6,1.589-1.475,4.426,0,27.464,11.617,34.046,12.277,2.724-1.155,7.717.888,7.263.908,8.965,1.248a9.079,9.079,0,0,1,2.5.795" transform="translate(-192.655 -94.895)" fill="#e7f2f2"/>
        <path id="Trazado_211452" data-name="Trazado 211452" d="M385.786,306.842s-13.591,7.751-19.293,14.813-10.441,29.733-15.434,41.536-41.087,77.383-40.4,85.116c1.327,14.98,10.777,3.887,10.777,3.887s-3.825,10.916,1.934,13.412c3,1.3,12.7-7.539,12.7-7.539s-3.155,10.879,6.892,8.1a16.931,16.931,0,0,0,10.335-8.347c6.561-12.195,23.45-43.15,25.456-42.42,2.5.908-2.27,38.359,1.589,53.112s35.622,80.006,46.53,86.024,54.02,7.263,61.964,6.809,48.346-14.3,53.793-19.747-38.586-22.017-51.75-27.237-2.043-27.918-8.852-45.622S462.05,418.12,461.142,409.5s.681-41.536-5.674-56.971S432.77,320.4,424.6,314.333s-14.073-16.856-38.813-7.49" transform="translate(-193.672 -189.01)" fill="#ffae43"/>
        <path id="Trazado_211453" data-name="Trazado 211453" d="M307.633,133.833c5.642,19.125-33.918,68.1-33.918,68.1s64.461-15.434,69.454-7.49-60.518,52.885-95.557,35.862,32.077-100.065,40.629-102.139,18.041,1.092,19.391,5.671" transform="translate(-148.105 -79.498)" fill="#ff867a"/>
        <path id="Trazado_211454" data-name="Trazado 211454" d="M355.184,571.887c-1.513,2.967-3.019,5.939-4.486,8.863,3.774,2.31,8.932,5.155,13.054,5.583,6.563.681,21.421,2.383,21.421,2.383A221.658,221.658,0,0,0,362.3,575.778a57.773,57.773,0,0,1-7.112-3.891" transform="translate(-218.641 -356.541)" fill="#434a59"/>
        <path id="Trazado_211455" data-name="Trazado 211455" d="M599.366,416.7c8.171-1.135,18.385-5.447,24.967-5.674a4.681,4.681,0,0,0,3.626-2.1,77.62,77.62,0,0,0-6.675-11.19c-4.513.95-9.736,2.47-13.748,4.854-8.852,5.26-18.385,11.161-18.385,11.161s2.043,4.086,10.214,2.951" transform="translate(-367.305 -247.967)" fill="#434a59"/>
        <path id="Trazado_211456" data-name="Trazado 211456" d="M470.7,512.421c8.852-1.718,10.441-1.945,14.073-3.761s9.533-6.355,15.321-7.49,13.051-2.724,13.051-2.724-14.948-.394-18.612,0c0,0-13.392,1.362-20.882,2.724s-10.693,4.086-12.27,4.313l-7.934,1.722-2.221,5.832c-1.175-.163-4.862-.647-10.94-1.2-7.49-.681-9.533,0-14.073-2.269s-13.589-5.695-13.589-5.695A22.62,22.62,0,0,0,421.9,513.1c6.583,3.509,6.809,1.92,12.711,3.735s14.241,4.137,14.241,4.137l2.043-5.777c2.314-.234,12.059-1.267,19.805-2.771" transform="translate(-257.246 -310.645)" fill="#434a59"/>
        <path id="Trazado_211457" data-name="Trazado 211457" d="M598.2,583.262a132,132,0,0,0-14.753,4.994c-4.086,1.589-4.993,1.589-10.441,2.5s-8.171,2.951-2.951,3.4,10.895-2.5,22.244-3.4,13.391-2.724,20.428-1.362a84.551,84.551,0,0,0,10.134,1.435,46.213,46.213,0,0,1-1.736-7.336c-.023-.224-.045-.469-.065-.726-6.634-.506-17.542-1.02-22.859.5" transform="translate(-353.656 -363.004)" fill="#434a59"/>
        <path id="Trazado_211458" data-name="Trazado 211458" d="M668.683,551.437c3.574.115,8.551-.062,12.586-.369-.035-1.961-.069-4.111-.115-6.391-3.457.362-9.3.791-12.471,2.221-4.539,2.043-7.036,4.312,0,4.539" transform="translate(-414.151 -339.577)" fill="#434a59"/>
        <path id="Trazado_211459" data-name="Trazado 211459" d="M548.123,683.148c9.627-2.615,14.166-3.977,18.932-5.566s1.8-5.293-7.036-4.312c0,0-9.306.227-17.023,3.178a166.951,166.951,0,0,0-16.616,7.263c-4.039,2.043-8.578,4.086-9.94,4.993s-4.54,4.086-3.745,4.313,16.909-3.632,22.13-4.993,3.672-2.26,13.3-4.875" transform="translate(-319.559 -419.646)" fill="#434a59"/>
        <path id="Trazado_211460" data-name="Trazado 211460" d="M630.274,714.865c-5.448,3.129-12.029,2.9-11.122,6.534s8.852-1.135,20.2-3.858,14.753-2.951,20.655-4.313c3.995-.921,8.3-1.843,11.439-2.624-.941-2.425-1.937-4.988-2.956-7.626-5.925,1.23-14.392,3.137-18.7,4.8-7.036,2.724-14.073,3.956-19.52,7.085" transform="translate(-385.956 -438.269)" fill="#434a59"/>
        <path id="Trazado_211461" data-name="Trazado 211461" d="M613.85,774.344c5.9-1.092,13.444-10-1.741-7.9,0,0-28.9,3.631-35.029,5.9s-15.888,4.993-15.661,8.625,16.342-1.589,26.783-2.043,19.747-3.49,25.648-4.582" transform="translate(-350.012 -477.638)" fill="#434a59"/>
        <path id="Trazado_211462" data-name="Trazado 211462" d="M666.921,924.035s-27.709,8.98-33.3,12.357c-2.63,1.588-6.03,3.424-8.8,5.291a57.822,57.822,0,0,0,10.359,2.594,89.04,89.04,0,0,1,10.6-3.5c10.171-2.4,14.859-9.4,20.451-11.582s19.236-9.622.7-5.158" transform="translate(-389.54 -575.213)" fill="#434a59"/>
        <path id="Trazado_211463" data-name="Trazado 211463" d="M485.15,295.605s7.718-2.589,9.8-2.573,13.385,5.08,13.125,5.8c-.685,1.909-9.046-1.275-9.046-1.275s7.6,4.063,7.387,5.232-.886,1.3-.886,1.3a1.7,1.7,0,0,1-.744,1.837c-.679.492-7.664-1.219-7.664-1.219a19.114,19.114,0,0,1,4.383,2.352c1.489,1.25-4.061-.225-6.587-.512s-7.4,1.81-12.2,1.407-7.241-2.274-7.175-3.721,6.124-7.531,9.61-8.635" transform="translate(-296.473 -182.69)" fill="#ff867a"/>
        <path id="Trazado_211464" data-name="Trazado 211464" d="M608.636,869.9a1.7,1.7,0,0,1-.1-3.4c1.388-.166,20.161-3.873,34-7,13.91-3.141,28.868-6.542,29.017-6.576a1.7,1.7,0,1,1,.755,3.32c-.15.034-15.11,3.436-29.022,6.578-12.3,2.777-33.54,7.078-34.648,7.078m-.014-3.4c-.017,0-.039,0-.066,0l.08,0Z" transform="translate(-378.391 -531.723)" fill="#d47328"/>
        <path id="Trazado_211465" data-name="Trazado 211465" d="M488.685,499.753a1.7,1.7,0,0,1-1.555-2.394c.113-.253,11.263-25.446,12.747-37.478,1.519-12.32,3.228-22.61,3.245-22.712a1.7,1.7,0,1,1,3.358.56c-.017.1-1.714,10.324-3.224,22.569-1.545,12.534-12.547,37.393-13.015,38.445a1.7,1.7,0,0,1-1.557,1.011" transform="translate(-303.608 -271.664)" fill="#d47328"/>
        <path id="Trazado_211466" data-name="Trazado 211466" d="M557.062,336.434a1.362,1.362,0,0,1-.911-2.374l15.889-14.3a1.362,1.362,0,0,1,1.822,2.024l-15.889,14.3a1.356,1.356,0,0,1-.91.349" transform="translate(-346.449 -199.135)" fill="#ffe3c7"/>
        <path id="Trazado_211467" data-name="Trazado 211467" d="M571.627,335.767a1.364,1.364,0,0,1-.206-.015l-25.415-3.844a1.362,1.362,0,0,1,.408-2.693l25.415,3.844a1.362,1.362,0,0,1-.2,2.709" transform="translate(-339.684 -205.239)" fill="#ffe3c7"/>
        <path id="Trazado_211468" data-name="Trazado 211468" d="M597.926,379.186a1.339,1.339,0,0,1-.149-.008l-32.571-3.561a1.362,1.362,0,1,1,.3-2.707l32.57,3.561a1.362,1.362,0,0,1-.146,2.716" transform="translate(-351.618 -232.484)" fill="#ffe3c7"/>
        <path id="Trazado_211469" data-name="Trazado 211469" d="M595.845,377.711a1.362,1.362,0,0,1-1.171-2.054l12.056-20.422a1.362,1.362,0,1,1,2.345,1.384l-12.056,20.422a1.361,1.361,0,0,1-1.174.67" transform="translate(-370.629 -221.052)" fill="#ffe3c7"/>
        <path id="Trazado_211470" data-name="Trazado 211470" d="M692.977,92.411a18.255,18.255,0,0,1-3.33-4.31c-1.217-2.352.406-4.542.892-6.083s1.136-1.135,1.7,0-.244,2.677.649,3.812c.292.372,3.082,1.135,3.082-.73s-2.876-2.677-3.385-4.623.708-1.947,1.357-.973,4.217.811,4.623,1.135,1.784-.487,2.92,0,3.325,4.136,4.055,5.84-6.164,8.84-7.462,9.165-4.938-1.679-5.105-3.232" transform="translate(-429.682 -49.168)" fill="#f27c79"/>
        <path id="Trazado_211471" data-name="Trazado 211471" d="M580.27,181.76a1.362,1.362,0,0,1-.879-2.4,132.675,132.675,0,0,0,27.987-35.936c8.989-17.146,17.439-44.608,17.523-44.884a1.362,1.362,0,0,1,2.6.8c-.085.278-8.61,27.983-17.715,45.351a135.572,135.572,0,0,1-28.644,36.753,1.356,1.356,0,0,1-.877.32" transform="translate(-360.918 -60.832)" fill="#ffe3c7"/>
        <path id="Trazado_211472" data-name="Trazado 211472" d="M682.49,53.034q1.288,2.073,2.549,4.159l2.531,4.168,2.494,4.187q1.253,2.09,2.476,4.2a1.577,1.577,0,1,1-2.727,1.585,1.755,1.755,0,0,1-.092-.186q-.937-2.247-1.844-4.509l-1.826-4.518-1.789-4.537q-.9-2.266-1.771-4.546" transform="translate(-425.496 -33.064)" fill="#b1d5de"/>
        <path id="Trazado_211473" data-name="Trazado 211473" d="M437.762,62.718,424.588,77.031c-2.151,2.4-.743,12.6,5.793,12.924,1.913.095,3.365-4.525,4.516-7.966l6.264-12.682Z" transform="translate(-264.125 -39.101)" fill="#ff867a"/>
        <path id="Trazado_211474" data-name="Trazado 211474" d="M460.766,37.427s-1.757,2.529-3.516,5.7c-2.594,4.675-.763,8.615,3.539,11.83,4.193,3.133,6.3,3.05,9.058.5a12.067,12.067,0,0,0,2.183-2.727,16.415,16.415,0,0,0,1.856-7.812,26.811,26.811,0,0,1,.42-3.743c.42-5.289-2.117-7.108-6.854-5.263-1.037.4-1.433,1.073-6.686,1.522" transform="translate(-284.325 -21.949)" fill="#ff867a"/>
        <path id="Trazado_211475" data-name="Trazado 211475" d="M455.591,44.263a9.009,9.009,0,0,1,0-1.919c.111-1.216-.007-3.049-1.9-2.329-2.76,1.047-3,7.559-.016,8.331,2.213.573,2.117-2.475,1.92-4.083" transform="translate(-281.502 -24.846)" fill="#ff867a"/>
        <path id="Trazado_211476" data-name="Trazado 211476" d="M491.616,66.117a.32.32,0,0,1,.265-.579c1.037.357,1.338-.371,1.35-.4a.32.32,0,0,1,.595.235,1.6,1.6,0,0,1-2.154.772.312.312,0,0,1-.057-.026" transform="translate(-306.397 -40.483)" fill="#c66c67"/>
        <path id="Trazado_211477" data-name="Trazado 211477" d="M486.219,53.667c-.182.377-.53.586-.776.467s-.3-.522-.116-.9.53-.586.776-.467.3.522.116.9" transform="translate(-302.507 -32.877)" fill="#434a59"/>
        <path id="Trazado_211478" data-name="Trazado 211478" d="M501.459,58.825c-.182.377-.53.586-.776.467s-.3-.522-.116-.9.53-.586.776-.467.3.522.116.9" transform="translate(-312.008 -36.093)" fill="#434a59"/>
        <path id="Trazado_211479" data-name="Trazado 211479" d="M482.23,67.952a5.467,5.467,0,0,0,3.038,3.528c2.414.956,3.8-1.418,3.8-1.418Z" transform="translate(-300.645 -42.364)" fill="#fff"/>
        <path id="Trazado_211480" data-name="Trazado 211480" d="M463.19,76.893a31.484,31.484,0,0,0,6.821,1.934c-2.639,2.33-4.744,2.322-8.809-.715-.2-.15-.394-.3-.584-.455l-1.866,3.777c-2.244-3.076-2.027-9.085-2.027-9.085a24.7,24.7,0,0,0,6.465,4.545" transform="translate(-284.74 -45.105)" fill="#c66c67"/>
        <path id="Trazado_211481" data-name="Trazado 211481" d="M481.074,46.54c1.114-.4,2.061-.673,3.113.227a.388.388,0,0,1-.312.692,5.834,5.834,0,0,0-2.789-.164c-.513.091-.66-.522-.012-.756" transform="translate(-299.655 -28.781)" fill="#434a59"/>
        <path id="Trazado_211482" data-name="Trazado 211482" d="M501.51,50.943A2.521,2.521,0,0,0,499.864,50c-.4-.1-.818.225-.4.547,1.155.887,1.219.713,1.706,1.231.345.367.747-.17.339-.834" transform="translate(-311.281 -31.16)" fill="#434a59"/>
        <path id="Trazado_211483" data-name="Trazado 211483" d="M184.919,438.148a3.872,3.872,0,0,0-2.533-3.589c-1.287-.5-3.091-.946-4.449-.235-2.359,1.235,1.46,9.548,3.595,8.312,1.534-.888,3.358-2.357,3.387-4.489" transform="translate(-110.471 -270.547)" fill="#f2c3a7"/>
        <path id="Trazado_211484" data-name="Trazado 211484" d="M167.885,464.024a2.818,2.818,0,0,0-1.843-2.612,4.125,4.125,0,0,0-3.238-.171c-1.717.9,1.063,6.949,2.616,6.05,1.116-.647,2.444-1.715,2.465-3.267" transform="translate(-101.162 -287.391)" fill="#f2c3a7"/>
        <path id="Trazado_211485" data-name="Trazado 211485" d="M132.321,384.3a2.818,2.818,0,0,0-1.843-2.612,4.125,4.125,0,0,0-3.238-.171c-1.717.9,1.063,6.949,2.616,6.05,1.116-.647,2.444-1.715,2.465-3.267" transform="translate(-78.99 -237.687)" fill="#f2c3a7"/>
        <path id="Trazado_211486" data-name="Trazado 211486" d="M263.986,417.881s-3.972-.454-4.766,1.362,2.156,8.965,4.766,7.377,3.972-8.4,0-8.739" transform="translate(-161.528 -260.495)" fill="#f2c3a7"/>
        <path id="Trazado_211487" data-name="Trazado 211487" d="M365.854,469.533s-3.972-.454-4.766,1.362,2.156,8.965,4.766,7.377,3.972-8.4,0-8.739" transform="translate(-225.037 -292.697)" fill="#f2c3a7"/>
        <path id="Trazado_211488" data-name="Trazado 211488" d="M279.507,505.388s-.119-2.837-3.521,0-.908,6.818,1.76,5.793,1.76-5.793,1.76-5.793" transform="translate(-171.033 -314.296)" fill="#f2c3a7"/>
        <path id="Trazado_211489" data-name="Trazado 211489" d="M202.881,333.691s-.119-2.837-3.521,0-.908,6.818,1.76,5.792,1.76-5.792,1.76-5.792" transform="translate(-123.261 -207.252)" fill="#f2c3a7"/>
        <path id="Trazado_211490" data-name="Trazado 211490" d="M394.976,281.636s-.119-2.837-3.521,0-.908,6.818,1.76,5.793,1.76-5.793,1.76-5.793" transform="translate(-243.022 -174.799)" fill="#f2c3a7"/>
        <path id="Trazado_211491" data-name="Trazado 211491" d="M472.476,246.98s-.119-2.837-3.521,0-.908,6.818,1.76,5.793,1.76-5.793,1.76-5.793" transform="translate(-291.339 -153.193)" fill="#f2c3a7"/>
        <path id="Trazado_211492" data-name="Trazado 211492" d="M410.727,231.763s-.119-2.837-3.521,0-.908,6.819,1.76,5.793,1.761-5.793,1.761-5.793" transform="translate(-252.842 -143.706)" fill="#f2c3a7"/>
        <path id="Trazado_211493" data-name="Trazado 211493" d="M302.2,431.36a2.383,2.383,0,0,1-.267-4.751c12.488-1.424,33.374-9.314,33.584-9.393a2.383,2.383,0,0,1,1.692,4.456c-.878.333-21.652,8.181-34.736,9.673a2.391,2.391,0,0,1-.273.015" transform="translate(-186.923 -260.014)" fill="#664e4a"/>
        <path id="Trazado_211494" data-name="Trazado 211494" d="M272.081,333.551a1.362,1.362,0,0,1-.525-2.619l22.308-9.306a1.362,1.362,0,0,1,1.049,2.514L272.6,333.446a1.363,1.363,0,0,1-.524.105" transform="translate(-168.778 -200.451)" fill="#c66c67"/>
        <path id="Trazado_211495" data-name="Trazado 211495" d="M565.572,252.883a1.362,1.362,0,0,1-1.348-1.184,26.6,26.6,0,0,1,2.046-14.485,1.362,1.362,0,0,1,2.429,1.233,24.306,24.306,0,0,0-1.775,12.9,1.362,1.362,0,0,1-1.172,1.528,1.4,1.4,0,0,1-.18.012" transform="translate(-351.616 -147.427)" fill="#c66c67"/>
      </g>
    </g>
  </g>
</svg>
