<svg xmlns="http://www.w3.org/2000/svg" xmlns:xlink="http://www.w3.org/1999/xlink" width="349" height="349" viewBox="0 0 349 349">
  <defs>
    <clipPath id="clip-path">
      <rect id="Rectángulo_49626" data-name="Rectángulo 49626" width="312.632" height="317.086" fill="none"/>
    </clipPath>
    <clipPath id="clip-path-3">
      <rect id="Rectángulo_49618" data-name="Rectángulo 49618" width="154.567" height="71.504" fill="none"/>
    </clipPath>
    <clipPath id="clip-path-4">
      <rect id="Rectángulo_49619" data-name="Rectángulo 49619" width="72.202" height="84.625" fill="none"/>
    </clipPath>
    <clipPath id="clip-path-5">
      <rect id="Rectángulo_49620" data-name="Rectángulo 49620" width="7.741" height="6.939" fill="none"/>
    </clipPath>
    <clipPath id="clip-path-6">
      <rect id="Rectángulo_49621" data-name="Rectángulo 49621" width="5.236" height="21.487" fill="none"/>
    </clipPath>
    <clipPath id="clip-path-7">
      <rect id="Rectángulo_49622" data-name="Rectángulo 49622" width="17.987" height="20.64" fill="none"/>
    </clipPath>
    <clipPath id="clip-path-8">
      <rect id="Rectángulo_49623" data-name="Rectángulo 49623" width="6.092" height="20.109" fill="none"/>
    </clipPath>
    <clipPath id="clip-path-9">
      <rect id="Rectángulo_49624" data-name="Rectángulo 49624" width="24.303" height="11.841" fill="none"/>
    </clipPath>
  </defs>
  <g id="Grupo_172416" data-name="Grupo 172416" transform="translate(1840 5153)">
    <g id="Grupo_171276" data-name="Grupo 171276" transform="translate(-1822 -5137)">
      <g id="Grupo_171299" data-name="Grupo 171299" clip-path="url(#clip-path)">
        <g id="Grupo_171298" data-name="Grupo 171298">
          <g id="Grupo_171297" data-name="Grupo 171297" clip-path="url(#clip-path)">
            <path id="Trazado_212361" data-name="Trazado 212361" d="M204.437,433.142c-15.4.96-17.148-12.195-37.191-14.845-5.3-.7-9.855.683-14.145,3-11.931,6.445-21.847,20.1-40.284,16.2-15.962-3.376-17.09-22.332-30-32.464-7.367-5.78-18.572-8.688-38.553-4.19a29.294,29.294,0,0,1-3.792.8c-39.585,3.388-51.33-27.564-29.9-25.154,28.573,3.214,61.618-17.924,114.34-42.963,47.5-22.561,69.985-57.918,108.021-67l25.025,15.956s-4.436,51.149-6.779,78.129-21.345,70.951-46.738,72.531" transform="translate(0 -173.858)" fill="#cd2b31"/>
            <g id="Grupo_171278" data-name="Grupo 171278" transform="translate(40.47 159.673)" opacity="0.19">
              <g id="Grupo_171277" data-name="Grupo 171277">
                <g id="Grupo_171276-2" data-name="Grupo 171276" clip-path="url(#clip-path-3)">
                  <path id="Trazado_212362" data-name="Trazado 212362" d="M268.455,461.148c-14.1,5.931-99.288,38.006-109.713,69.6-7.368-5.78-18.572-8.688-38.554-4.19q-1.941.436-3.792.8c25.406-12.991,41.939-30.36,74.146-45.426,36.111-16.89,93.064-27.155,77.912-20.783" transform="translate(-116.397 -459.241)" fill="#070716"/>
                </g>
              </g>
            </g>
            <g id="Grupo_171281" data-name="Grupo 171281" transform="translate(153.1 174.71)" opacity="0.19">
              <g id="Grupo_171280" data-name="Grupo 171280">
                <g id="Grupo_171279" data-name="Grupo 171279" clip-path="url(#clip-path-4)">
                  <path id="Trazado_212363" data-name="Trazado 212363" d="M491.673,587.063c-15.4.96-17.148-12.195-37.191-14.845-5.3-.7-9.855.683-14.145,3,12.313-27.151,76.966-83.926,71.922-70.786-5.854,15.252-28.905,17.292-29.269,46.614s-.126,32.639,8.683,36.016" transform="translate(-440.337 -502.488)" fill="#070716"/>
                </g>
              </g>
            </g>
            <path id="Trazado_212364" data-name="Trazado 212364" d="M824.231,853.747c.194-3.824-.523-13.459-.523-13.459l-10.12.1,1.208,14.461,6.889,4.3Z" transform="translate(-530.712 -548.129)" fill="#fff"/>
            <path id="Trazado_212365" data-name="Trazado 212365" d="M824.665,874.215c1.059-.258.621.755,1.02,2.354.913,3.66,14.244,3.7,16.255,4.027,1.038.166,2.734,5.545-2.43,5.545-4.465,0-18.767.053-23.653.022a2.247,2.247,0,0,1-2.168-1.687c-.895-3.535-.676-9.028.686-9.151,2.058-.668,5.875-.036,10.289-1.11" transform="translate(-530.428 -570.234)" fill="#1f1f39"/>
            <path id="Trazado_212366" data-name="Trazado 212366" d="M546.607,822.854c3.038-2.331,9.911-9.121,9.911-9.121l-6.633-7.645-10.23,10.293,1.191,8.033Z" transform="translate(-352.023 -525.82)" fill="#fff"/>
            <path id="Trazado_212367" data-name="Trazado 212367" d="M535.8,839.17c.883.64-.172.963-1.132,2.3-2.2,3.068,6.41,13.248,7.469,14.989.547.9-2.451,5.676-5.8,1.744-2.894-3.4-12.2-14.257-15.347-18a2.247,2.247,0,0,1-.121-2.744c2.113-2.972,6.437-6.366,7.413-5.408,1.843,1.134,3.836,4.45,7.514,7.115" transform="translate(-339.502 -542.65)" fill="#1f1f39"/>
            <path id="Trazado_212368" data-name="Trazado 212368" d="M554.563,587.9s32.3-26.62,41.724-47.628c6.061-16.169,7.67-34.375,10.862-49.747,0,0,14.392,34.855,19.246,46.737s8.64,55.106,8.909,57.662,15.3-.288,14.974-2.037-6.951-53.586-8.094-61.973S628.02,465.8,622.308,449.723l-6.324,1.622s-31.825,4.548-32.168,6.834c-.169,1.127-.321,2.314-.46,3.553,0,.04-.01.08-.015.12-.664,5.951-1.01,13.076-1.177,20.52-.485,21.4.513,45.441-.291,51.827-1.142,9.083-31.066,36.208-36.778,43.9-1.142.348,2.234,5.259,9.469,9.8" transform="translate(-355.429 -293.359)" fill="#3b3b4c"/>
            <path id="Trazado_212369" data-name="Trazado 212369" d="M680.354,255.057l-8.83-.332c-1.005-3.78-5.423-12.115-5.657-15.661-.258-3.89.124-3.771.124-3.771l6.566,2.042,3.089.962a10.229,10.229,0,0,0,1.3,3.975,21.236,21.236,0,0,0,4.781,5.9c1.83,1.63-1.374,6.881-1.374,6.881" transform="translate(-434.294 -153.483)" fill="#efaea6"/>
            <g id="Grupo_171284" data-name="Grupo 171284" transform="translate(235.107 83.852)" opacity="0.14">
              <g id="Grupo_171283" data-name="Grupo 171283">
                <g id="Grupo_171282" data-name="Grupo 171282" clip-path="url(#clip-path-5)">
                  <path id="Trazado_212370" data-name="Trazado 212370" d="M682.443,242.129a14.168,14.168,0,0,0,1.5,4.335c-4.553,3.6-8.541.422-7.6-1.349a38.563,38.563,0,0,1,3.018-3.947Z" transform="translate(-676.197 -241.167)" fill="#1f1f39"/>
                </g>
              </g>
            </g>
            <path id="Trazado_212371" data-name="Trazado 212371" d="M658.8,201.6c2.333,2.3,9.08,4.734,7.4,6.165s4.933,4.85,3.2,6.436c-4.192,3.844-11.5,5.375-13.844,3.774s-7.04-7.672-7.04-7.672Z" transform="translate(-423.037 -131.506)" fill="#efaea6"/>
            <path id="Trazado_212372" data-name="Trazado 212372" d="M645.772,196.4c1.5-1.008,1.815-.723,2.373-2s-2.219-1.177-.694-3,3.383-3.6,1.822-5.794c-2.259-3.172-4.473-.475-5.793,1.249-.849,1.109-3.041-.922-5.031.953-1.561,1.471-.555,2.257-1.89,3.631-.806.83-3.752.856-4.212,3.079-.854,4.124,3.32,4.709,3,8.6-.368,4.537,9.778,4.838,9.9,3.646.141-1.391-3.158-2.936-2.887-4.194.409-1.9,1.415-1.024,3.2-.942,1.9.087,3.9-1.519,1.006-2.36s-2.148-1.956-.793-2.868" transform="translate(-412.411 -120.117)" fill="#1f1f39"/>
            <g id="Grupo_171287" data-name="Grupo 171287" transform="translate(251.72 187.123)" opacity="0.57">
              <g id="Grupo_171286" data-name="Grupo 171286">
                <g id="Grupo_171285" data-name="Grupo 171285" clip-path="url(#clip-path-6)">
                  <path id="Trazado_212373" data-name="Trazado 212373" d="M729.215,559.678c-3.013-6.619-5.236-11.447-5.236-11.447.868-4.622,1.5-10.04,1.5-10.04s3.144,13.588,3.736,21.487" transform="translate(-723.979 -538.191)" fill="#1f1f39"/>
                </g>
              </g>
            </g>
            <path id="Trazado_212374" data-name="Trazado 212374" d="M535.362,556.625l8.806.456c1.358.071,2.378,1.69,2.278,3.615l-.277,5.343a.047.047,0,0,1-.049.044L544.482,566a.047.047,0,0,1-.044-.049l.2-3.765c.075-1.44-.687-2.651-1.7-2.7l-6.583-.341c-1.015-.053-1.9,1.073-1.973,2.513l-.2,3.765a.047.047,0,0,1-.049.044l-1.639-.085a.047.047,0,0,1-.044-.049l.277-5.343c.1-1.925,1.281-3.43,2.639-3.36" transform="translate(-347.32 -363.091)" fill="#201b2c"/>
            <path id="Trazado_212375" data-name="Trazado 212375" d="M545.611,529.864a.048.048,0,0,1,.037.041c.243,1.975.784,1.46,1.461,4.048s2.836,6.241,1.49,6.627-2.361-1.191-3.012-1.515.823,1.22.011,2.464-4.19,1.918-5.708.911a6.662,6.662,0,0,1-2.592-5.608c-.039-2.59,1.269-6.087,1.541-7.218.261-1.084,6.277.146,6.772.25" transform="translate(-350.485 -345.183)" fill="#eeada5"/>
            <path id="Trazado_212376" data-name="Trazado 212376" d="M562.737,557.747c1.359.071,2.378,1.691,2.278,3.615l-.278,5.342a.046.046,0,0,1-.049.044l-1.638-.084a.047.047,0,0,1-.044-.049l.2-3.765c.074-1.44-.688-2.651-1.7-2.7l-.586-2.414a.047.047,0,0,1,.047-.058Z" transform="translate(-365.888 -363.777)" fill="#201b2c"/>
            <path id="Trazado_212377" data-name="Trazado 212377" d="M531.046,578.366l-1.147,24.8a2.716,2.716,0,0,1-2.838,2.588l-.034,0L482.72,604.27c-5-.231-4.8-3.757-4.733-5.229l.383-23.469c.068-1.474,2.025-5.266,6.02-5.026l39.4,1.8,1.479.066a5.8,5.8,0,0,1,5.774,5.956" transform="translate(-311.782 -372.167)" fill="#54353a"/>
            <path id="Trazado_212378" data-name="Trazado 212378" d="M617.052,581.765l-1.147,24.8a2.716,2.716,0,0,1-2.839,2.588.046.046,0,0,1-.043-.033,19.505,19.505,0,0,1-.241-7.456c.995-8.815-1.074-18.95-2.967-25.859a.046.046,0,0,1,.047-.058l1.415.063a5.8,5.8,0,0,1,5.774,5.956" transform="translate(-397.788 -375.565)" fill="#775155"/>
            <path id="Trazado_212379" data-name="Trazado 212379" d="M757.8,28.721c-.02-.006-.258-4.406-.147-7.972.222-7.167-3.511-6.959-3.57-8.135C754,11,756.246,10.939,756.9,11.323S755.369.279,756.9.029c3.469-.565.937,7.228,3.065,6.938,10.649-1.452,5.567,7.5,5.808,10.406a50.511,50.511,0,0,1,.332,8.4c-.09,1.164-7.8,3.086-8.312,2.944" transform="translate(-491.892 0)" fill="#eeada5"/>
            <g id="Grupo_171290" data-name="Grupo 171290" transform="translate(226.735 168.373)" opacity="0.28">
              <g id="Grupo_171289" data-name="Grupo 171289">
                <g id="Grupo_171288" data-name="Grupo 171288" clip-path="url(#clip-path-7)">
                  <path id="Trazado_212380" data-name="Trazado 212380" d="M652.12,504.9c4.7-3.413,14.748-9.272,17.987-20.5l-16.8-.142c0,.04-.01.08-.015.12-.664,5.951-1.01,13.076-1.177,20.52" transform="translate(-652.12 -484.262)" fill="#1f1f39"/>
                </g>
              </g>
            </g>
            <path id="Trazado_212381" data-name="Trazado 212381" d="M658.969,263.943c3.193-1.711,5.685,2.136,8.481,1.617,1.7-.315,1.269-1.812,1.836-2.821.349-.622,1.347-.473,2.7-.7,3.556-.588,21.03,68.06,21.03,68.06s-8.973,5.118-16.062,6.694-19,1.787-19.339-.744-4.341-66.909-4.341-66.909a19.892,19.892,0,0,1,5.694-5.2" transform="translate(-426.138 -170.93)" fill="#fff"/>
            <path id="Trazado_212382" data-name="Trazado 212382" d="M533.793,358.565a.094.094,0,0,0,.017.025c1.3.94,7.295,1,11.128.935a.043.043,0,0,0,.045-.04c.326-2.968.279-13.156,3.033-27.864,2.692-10.325,17.107-25.887,18.438-27.133,0,.015,0,.032,0,.053a2.7,2.7,0,0,0,.112.542l0,.015c.013.047.027.1.045.147l0,.012,0,.005c.023.07.047.144.075.221.035.1.072.206.114.318.2.54.48,1.194.808,1.931.065.144.132.293.2.445.789,1.746,1.8,3.886,2.717,6.065.087.211.174.42.261.632.129.316.256.632.378.945s.244.63.358.94l.015.045a17.5,17.5,0,0,1,.694,2.908c.075.438.144.9.212,1.391,1.09,7.914-4.663,24.657-5.15,29.083-.6,5.463,5.055,5.739,7.287,3.978,1.836-1.45,12.215-3.756,16.3-7.879s1.207-11.753.047-17.084c-1.179-5.4,2.62-17-2.809-26.864-6.8-12.35-6.67-30.417-8.016-34.163,0,0-13.609,9.13-19,16.435-8.123,11-23.578,35.408-24.653,44.391-1.149,9.583-4.5,24.195-2.662,29.563" transform="translate(-347.846 -174.934)" fill="#0771a5"/>
            <g id="Grupo_171293" data-name="Grupo 171293" transform="translate(218.61 124.671)" opacity="0.28">
              <g id="Grupo_171292" data-name="Grupo 171292">
                <g id="Grupo_171291" data-name="Grupo 171291" clip-path="url(#clip-path-8)">
                  <path id="Trazado_212383" data-name="Trazado 212383" d="M628.752,363.507l.159.7,0,.013,0,0c.023.07.047.144.075.221.035.1.072.207.114.318.2.54.48,1.194.809,1.93.065.145.132.294.2.445.789,1.746,1.8,3.886,2.717,6.065.087.211.174.421.261.632.129.316.256.632.378.945s.246.629.361.941a.265.265,0,0,1,.013.044,17.53,17.53,0,0,1,.694,2.908c.393-6.777.542-17.425-.4-20.109,0,0-3.841,2.684-5.384,4.936" transform="translate(-628.752 -358.571)" fill="#1f1f39"/>
                </g>
              </g>
            </g>
            <path id="Trazado_212384" data-name="Trazado 212384" d="M706.8,127.541c10.8-13.482,15.584-26.02,17.088-33.669s.91-34.686.91-37.23c0-1.489,12.079-1.324,11.913,1.076-.11,1.6,1.241,28.212-.579,38.47-1.51,8.509-9.525,35.851-11.914,40.87-2.672,5.614.8,32.209,2.536,36.646s7.65,26.309,3.634,29.66c-3.726,3.108-13.6,5.037-15.535,2.806-1.8-2.069,5.732-26.9,3.154-38.656s-2.51-14.489-6.648-27.273" transform="translate(-461.056 -36.324)" fill="#0771a5"/>
            <path id="Trazado_212385" data-name="Trazado 212385" d="M650.749,262.351a10.337,10.337,0,0,1,6.075-1.164c2.909.3,4.017,1.916,4.868,1.831s2.087-1.788,2.683-3.194c.429-1.011.806-1.16,1.788-1.4,1.022-.256,2.2.622,2.087,1.065-.682,2.6-5.891,4.485-5.436,4.826s3.173.028,3.577,1.76c.795,3.407-3.861-2.186-4.315-.681-.228.757-1.9,2.788-1.249,4.258.624,1.42-3.123-1.079-2.157-2.5s2.679-1.715.935-2.727-12.575,1.875-14.009,2.923c-1.1.806,4.561-4.736,5.154-4.993" transform="translate(-421.036 -168.54)" fill="#cd2b31"/>
            <g id="Grupo_171296" data-name="Grupo 171296" transform="translate(217.251 93.751)" opacity="0.18">
              <g id="Grupo_171295" data-name="Grupo 171295">
                <g id="Grupo_171294" data-name="Grupo 171294" clip-path="url(#clip-path-9)">
                  <path id="Trazado_212386" data-name="Trazado 212386" d="M648.153,271.629c-.339-.227-3.76,6.476-8.379,8.684a10.857,10.857,0,0,1-4.075,1.113,99.254,99.254,0,0,1-10.856-.342,47.574,47.574,0,0,1,5.337-4.6c3.808,1.208,2.877.961,5.062.723a15.808,15.808,0,0,0,4.567-1.244,26.319,26.319,0,0,0,6.658-4.361c.876-.761,1.007-1.922,2.059-1.963,1.395-.056.064,2.279-.373,1.988" transform="translate(-624.843 -269.639)" fill="#1f1f39"/>
                </g>
              </g>
            </g>
            <path id="Trazado_212387" data-name="Trazado 212387" d="M539.39,268.276a1.737,1.737,0,0,0-1.9-1.675c-1.051.041-1.137.468-2.014,1.23-2.633,2.287-6.564,5.1-11.225,5.605s-15.3-5.615-22.192-4.117-9,7.681-18.951,9.267-20.661-2.622-23.6-2.117-4.716,1.148-4.642,2.311,1.536,3.088,3.6,3.913,20.239,2.061,25.038,1.416c7.834-1.052,14.57-8.122,19.618-8.57s15.669,2.445,21.586,2.116c6.6-.367,11.97-8.052,12.4-7.761a1.793,1.793,0,0,0,1.685.361c.581-.146.635-1.316.593-1.977" transform="translate(-296.713 -173.906)" fill="#f4ad00"/>
          </g>
        </g>
      </g>
    </g>
    <rect id="Rectángulo_215668" data-name="Rectángulo 215668" width="349" height="349" transform="translate(-1840 -5153)" fill="none"/>
  </g>
</svg>
