<svg id="Grupo_170676" data-name="Grupo 170676" xmlns="http://www.w3.org/2000/svg" xmlns:xlink="http://www.w3.org/1999/xlink" width="400" height="147.809" viewBox="0 0 400 147.809">
  <defs>
    <clipPath id="clip-path">
      <rect id="Rectángulo_49432" data-name="Rectángulo 49432" width="400" height="147.809" fill="none"/>
    </clipPath>
    <clipPath id="clip-path-2">
      <rect id="Rectángulo_49431" data-name="Rectángulo 49431" width="399.999" height="147.809" fill="none"/>
    </clipPath>
    <clipPath id="clip-path-3">
      <rect id="Rectángulo_49419" data-name="Rectángulo 49419" width="175.059" height="54.736" fill="none"/>
    </clipPath>
    <clipPath id="clip-path-4">
      <rect id="Rectángulo_49420" data-name="Rectángulo 49420" width="216.898" height="61.424" fill="none"/>
    </clipPath>
    <clipPath id="clip-path-5">
      <rect id="Rectángulo_49421" data-name="Rectángulo 49421" width="1.769" height="3.936" fill="none"/>
    </clipPath>
    <clipPath id="clip-path-6">
      <rect id="Rectángulo_49422" data-name="Rectángulo 49422" width="36.542" height="19.214" fill="none"/>
    </clipPath>
    <clipPath id="clip-path-7">
      <rect id="Rectángulo_49423" data-name="Rectángulo 49423" width="28.155" height="64.144" fill="none"/>
    </clipPath>
    <clipPath id="clip-path-8">
      <rect id="Rectángulo_49424" data-name="Rectángulo 49424" width="13.323" height="48.634" fill="none"/>
    </clipPath>
    <clipPath id="clip-path-9">
      <rect id="Rectángulo_49425" data-name="Rectángulo 49425" width="8.918" height="6.028" fill="none"/>
    </clipPath>
    <clipPath id="clip-path-10">
      <rect id="Rectángulo_49426" data-name="Rectángulo 49426" width="18.629" height="9.305" fill="none"/>
    </clipPath>
    <clipPath id="clip-path-11">
      <rect id="Rectángulo_49427" data-name="Rectángulo 49427" width="15.604" height="9.076" fill="none"/>
    </clipPath>
    <clipPath id="clip-path-12">
      <rect id="Rectángulo_49428" data-name="Rectángulo 49428" width="9.257" height="19.267" fill="none"/>
    </clipPath>
    <clipPath id="clip-path-13">
      <rect id="Rectángulo_49429" data-name="Rectángulo 49429" width="2.77" height="9.874" fill="none"/>
    </clipPath>
    <clipPath id="clip-path-14">
      <rect id="Rectángulo_49430" data-name="Rectángulo 49430" width="5.126" height="7.817" fill="none"/>
    </clipPath>
  </defs>
  <g id="Grupo_170675" data-name="Grupo 170675" clip-path="url(#clip-path)">
    <g id="Grupo_170674" data-name="Grupo 170674">
      <g id="Grupo_170673" data-name="Grupo 170673" clip-path="url(#clip-path-2)">
        <g id="Grupo_170639" data-name="Grupo 170639" transform="translate(224.533 80.688)" style="mix-blend-mode: multiply;isolation: isolate">
          <g id="Grupo_170638" data-name="Grupo 170638">
            <g id="Grupo_170637" data-name="Grupo 170637" clip-path="url(#clip-path-3)">
              <path id="Trazado_211939" data-name="Trazado 211939" d="M913.167,314.744l-111.174-49.5-63.884,1.33,112.767,51.73,21.9,1.676,7.152-.279h24.861l-6.465-4.834Z" transform="translate(-738.108 -265.246)" fill="#ccc"/>
            </g>
          </g>
        </g>
        <path id="Trazado_211940" data-name="Trazado 211940" d="M1240.552,391.326V396.5s3.352-1.839,8.485,1.647h.895s-.476-1.961.572-1.647,1.781.419,3.876,2.619,3.247,2.3,3.561,2.409.734.943,0,.943-4.609.628-6.7-.943c0,0-6.828,1.249-8.141,1.067s-2.754,2.36-8.62.018a9.458,9.458,0,0,1-.733-5.145c.524-2.435,6.809-6.142,6.809-6.142" transform="translate(-858.348 -272.284)" fill="#e4a07c"/>
        <path id="Trazado_211941" data-name="Trazado 211941" d="M1121.526,334.07s3.91,1.4,5.866,3.352,10.335,2.235,13.967,1.676,16.481-1.676,10.894,14.525l-10.056,8.659s6.146-3.072,9.218,1.4c0,0,2.514-3.073,4.749,0s3.631,3.631,4.469,3.91.838,2.793-6.425,0c0,0-16.2.838-18.436,0s-1.117-9.5-1.117-9.5a6.121,6.121,0,0,1-3.911-.28s-.448,10.056-2.124,10.056-5.418-.559-7.094-.279c0,0-4.749.559,0-2.514l4.469.838-1.676-9.218-3.072-5.213-5.866,12.476s-.838,4.19-5.866,2.793c0,0,.838-2.235,0-2.235s-2.793,1.676-2.793,1.676-2.793-.559,1.4-3.911l3.91.838s-.558-4.469.28-6.425a26.667,26.667,0,0,0,1.955-6.983c0-1.4,1.676-3.631.838-6.425s6.425-9.218,6.425-9.218" transform="translate(-769.421 -232.446)" fill="#f2b694"/>
        <path id="Trazado_211942" data-name="Trazado 211942" d="M1203.684,348.612s-4.571,9.253-3.453,18.75c0,0,8.275-14.63,12.884-11.592s2.605,8.939,2.605,8.939l2.109-1.816s5.866-11.1-2.933-14.874c0,0-8.177-1.746-11.212.593" transform="translate(-834.997 -241.715)" fill="#f14950"/>
        <path id="Trazado_211943" data-name="Trazado 211943" d="M1170.846,382.052l-1.641-7.228s-2.828-5.447-5.762-5.866c0,0,6.972-1.646,10.557,13.528,0,0-2.141.3-3.154-.434" transform="translate(-809.522 -256.684)" fill="#e4a07c"/>
        <path id="Trazado_211944" data-name="Trazado 211944" d="M1145.72,384.387s-1.9-6.977-1.9-8.758,1.571,5.042,3.875,4.564Z" transform="translate(-795.867 -261.155)" fill="#e4a07c"/>
        <path id="Trazado_211945" data-name="Trazado 211945" d="M1201.073,384.6s5.945-10.848,10.867-11.068c0,0,3.548-.765,4.5,6.054,0,0-2.194-5.751-4.5-4.7s-4.5,2.251-11.466,10.186" transform="translate(-835.288 -259.884)" fill="#e4a07c"/>
        <path id="Trazado_211946" data-name="Trazado 211946" d="M1104.974,293.462s7.867-13.842-3.763-19.872-18.107,2.11-19.641,7.854c0,0-3.465,1.9-4.258,4.819s-.231,11.995,10.338,12.628,12.386-1.11,12.386-1.11,2.632.873,3.714-.2,3.783-2.684,1.224-4.117" transform="translate(-749.421 -188.886)" fill="#f2b694"/>
        <path id="Trazado_211947" data-name="Trazado 211947" d="M1126.2,278.888s6.8,1.167,6.5,4.6-.28,4.885,2.323,5.381c0,0-5.851,1.014-5.126-3.709a5.727,5.727,0,0,0-3.694-6.269" transform="translate(-783.609 -194.05)" fill="#e4a07c"/>
        <path id="Trazado_211948" data-name="Trazado 211948" d="M1124.777,322.232c-.511.912-1.243,1.474-1.636,1.254s-.3-1.138.214-2.05,1.243-1.474,1.636-1.254.3,1.137-.214,2.05" transform="translate(-781.312 -222.749)" fill="#e4a07c"/>
        <path id="Trazado_211949" data-name="Trazado 211949" d="M1095.63,305.919c-.511.913-1.243,1.474-1.636,1.254s-.3-1.138.214-2.05,1.243-1.474,1.636-1.254.3,1.138-.214,2.05" transform="translate(-761.032 -211.398)" fill="#e4a07c"/>
        <path id="Trazado_211950" data-name="Trazado 211950" d="M1093.981,333.857s-.67-3.736-1.536-3.261-.076,4.639,1.536,3.261" transform="translate(-759.874 -229.999)" fill="#e4a07c"/>
        <path id="Trazado_211951" data-name="Trazado 211951" d="M1135.381,355.379s4.319-.28,5.665-1.956c0,0,.795,3.082,4.527-.973,0,0-1.054,3.418-4.527,2.929l-4.41,2.077-1.776,3.44Z" transform="translate(-789.634 -245.234)" fill="#e6a785"/>
        <path id="Trazado_211952" data-name="Trazado 211952" d="M1168.807,341.386s1.286.08,1.041,1.1l2.606,1.045h4.242s-4.673-1.053-5.47-1.746-1.9-1.444-1.9-1.444Z" transform="translate(-813.255 -236.81)" fill="#e6a785"/>
        <path id="Trazado_211953" data-name="Trazado 211953" d="M1090.146,354.644s8.04,2.75,12.125,2.261c0,0-8.485.873-12.125-2.261" transform="translate(-758.522 -246.761)" fill="#e6a785"/>
        <path id="Trazado_211954" data-name="Trazado 211954" d="M1101.971,322.931s-2.591-.086-1.335.848l1.781-.85Z" transform="translate(-765.582 -224.694)" fill="#e6a785"/>
        <g id="Grupo_170642" data-name="Grupo 170642" transform="translate(0 81.597)" style="mix-blend-mode: multiply;isolation: isolate">
          <g id="Grupo_170641" data-name="Grupo 170641">
            <g id="Grupo_170640" data-name="Grupo 170640" clip-path="url(#clip-path-4)">
              <path id="Trazado_211955" data-name="Trazado 211955" d="M216.9,329.656l-86.4-60.738L0,268.232l139.662,54.6,45.069,6.51Z" transform="translate(0 -268.233)" fill="#ccc"/>
            </g>
          </g>
        </g>
        <path id="Trazado_211956" data-name="Trazado 211956" d="M606.062,67.184l-.282-.256c6.894-7.575,10.808-17.215,10.739-26.45-.076-10.174-5.03-19.695-12.928-24.846l.208-.319a28.256,28.256,0,0,1,9.62,10.91A32.1,32.1,0,0,1,616.9,40.475a36.385,36.385,0,0,1-2.911,14.32,43.526,43.526,0,0,1-7.927,12.389" transform="translate(-419.978 -10.655)" fill="#0c387a"/>
        <path id="Trazado_211957" data-name="Trazado 211957" d="M433.629,2.656S421.213,5.3,419.818,18.135C418.7,28.38,394.865,20.481,383.271,46.92s4.856,51.915,20.354,40.051,30-84.315,30-84.315" transform="translate(-263.963 -1.848)" fill="#0c387a"/>
        <path id="Trazado_211958" data-name="Trazado 211958" d="M558.663,16.8s16.512,12.459-1.844,44.29l-19.91-.486s2.286-37.478,21.754-43.8" transform="translate(-373.581 -11.692)" fill="#0c387a"/>
        <path id="Trazado_211959" data-name="Trazado 211959" d="M525.647,26.926s24.416-7.864,16.875,20.18-30.181,1.334-30.181,1.334Z" transform="translate(-356.486 -18.029)" fill="#f7b79c"/>
        <g id="Grupo_170645" data-name="Grupo 170645" transform="translate(167.896 20.953)" style="mix-blend-mode: multiply;isolation: isolate">
          <g id="Grupo_170644" data-name="Grupo 170644">
            <g id="Grupo_170643" data-name="Grupo 170643" clip-path="url(#clip-path-5)">
              <path id="Trazado_211960" data-name="Trazado 211960" d="M553.093,72.816l-1.167-3.936,1.769,1.968Z" transform="translate(-551.926 -68.88)" fill="#e6e6e6"/>
            </g>
          </g>
        </g>
        <path id="Trazado_211961" data-name="Trazado 211961" d="M517.166,148.051s20.413,2.717,38.2-4.086c0,0,.587-14.071-15.751-15.411l-22.51-3.948-10.417,10.078Z" transform="translate(-352.556 -86.701)" fill="#ed1c24"/>
        <path id="Trazado_211962" data-name="Trazado 211962" d="M428.746,96.92S415.624,90.8,408.622,104.8s-5.227,44-5.227,44-13.507,29.8-10.849,35.341,57.493,2.042,57.493,2.042V108.588s-20.418-7.875-21.293-11.667" transform="translate(-272.892 -66.509)" fill="#ed1c24"/>
        <path id="Trazado_211963" data-name="Trazado 211963" d="M441.751,197.842S400.4,244.022,399.2,253.563s24.179,24.311,37.6,13.572c0,0,4.824,2.094,21.449-5.2L478.8,197.948l-6.937-3.9c-2.552-1.436-9.377.827-12.23,1.486Z" transform="translate(-277.737 -134.689)" fill="#0c387a"/>
        <g id="Grupo_170648" data-name="Grupo 170648" transform="translate(135.73 48.299)" style="mix-blend-mode: multiply;isolation: isolate">
          <g id="Grupo_170647" data-name="Grupo 170647">
            <g id="Grupo_170646" data-name="Grupo 170646" clip-path="url(#clip-path-6)">
              <path id="Trazado_211964" data-name="Trazado 211964" d="M446.185,158.772s.65,12.4,24.429,19.214l12.112-4.32L471.7,163.511Z" transform="translate(-446.185 -158.772)" fill="#ccc"/>
            </g>
          </g>
        </g>
        <g id="Grupo_170651" data-name="Grupo 170651" transform="translate(160.159 67.513)" style="mix-blend-mode: multiply;isolation: isolate">
          <g id="Grupo_170650" data-name="Grupo 170650">
            <g id="Grupo_170649" data-name="Grupo 170649" clip-path="url(#clip-path-7)">
              <path id="Trazado_211965" data-name="Trazado 211965" d="M526.491,285.63l28.155-63.695-6.317,57.4s-13.309,8.8-21.838,6.294" transform="translate(-526.491 -221.935)" fill="#ccc"/>
            </g>
          </g>
        </g>
        <path id="Trazado_211966" data-name="Trazado 211966" d="M629.056,206.018a11.513,11.513,0,0,0-7.939-8.224c-4.172-1.2-8.96-.876-8.794,7.09.291,14.035,12.445,63,12.445,63a8.572,8.572,0,0,0-1.07,5.833c.911,5.223,5.463,2.042,8.671,4.375a25.952,25.952,0,0,0,7.676,3.462l2.9-1.275c1.372-.9,2.812-2.042,1.464-2.979l-12.45-8.658s2.043-43.3-2.908-62.628" transform="translate(-426.051 -137.262)" fill="#f7b79c"/>
        <g id="Grupo_170654" data-name="Grupo 170654" transform="translate(158.948 67.513)" style="mix-blend-mode: multiply;isolation: isolate">
          <g id="Grupo_170653" data-name="Grupo 170653">
            <g id="Grupo_170652" data-name="Grupo 170652" clip-path="url(#clip-path-8)">
              <path id="Trazado_211967" data-name="Trazado 211967" d="M523.721,221.935s-5.415,37.82,6.657,48.634l5.455-11.6Z" transform="translate(-522.51 -221.935)" fill="#e6e6e6"/>
            </g>
          </g>
        </g>
        <path id="Trazado_211968" data-name="Trazado 211968" d="M539.1,200.732s-13.709-5.446-12.542,13.343,6.208,33.832,24.676,61.32c0,0-4.475,4.374-.175,6.472,4.83,2.356,18.087,5.1,18.087,5.1l1.1-.559c1.418-.591,2.83-1.615,1.582-2.513l-13.77-9.9S546.1,203.309,539.1,200.732" transform="translate(-366.332 -139.159)" fill="#f7b79c"/>
        <path id="Trazado_211969" data-name="Trazado 211969" d="M547.818,227.887l-19.426,6.762s-9.334-33.981-.875-37.7,15.226-1.493,20.3,30.937" transform="translate(-364.579 -136.11)" fill="#1f509a"/>
        <path id="Trazado_211970" data-name="Trazado 211970" d="M459.04,93.7a8.225,8.225,0,0,0-10.614.087c-2.664,2.3-4.7,6.333-3.292,13.4,1.854,9.3,27,14.318,37.143,16.022a5.7,5.7,0,0,0,6.36-3.871c1.668-5.153,3.554-15.473,2.418-34.705h-5.962l-6.125,22.554S466.283,99.7,459.04,93.7" transform="translate(-309.404 -58.885)" fill="#f14950"/>
        <path id="Trazado_211971" data-name="Trazado 211971" d="M617.175,191.21s-6.967.069-5.388,12.224c1.582,12.183,4.446,25.01,4.446,25.01l15.6-6.926s-.092-33.488-14.662-30.308" transform="translate(-425.519 -132.896)" fill="#1f509a"/>
        <g id="Grupo_170657" data-name="Grupo 170657" transform="translate(192.147 59.454)" style="mix-blend-mode: multiply;isolation: isolate">
          <g id="Grupo_170656" data-name="Grupo 170656">
            <g id="Grupo_170655" data-name="Grupo 170655" clip-path="url(#clip-path-9)">
              <path id="Trazado_211972" data-name="Trazado 211972" d="M631.8,195.642s-.657-.915.719,1.187,4.376,7.743,8.042,2.419Z" transform="translate(-631.643 -195.444)" fill="#e6e6e6"/>
            </g>
          </g>
        </g>
        <g id="Grupo_170660" data-name="Grupo 170660" transform="translate(164.61 91.777)" style="mix-blend-mode: multiply;isolation: isolate">
          <g id="Grupo_170659" data-name="Grupo 170659">
            <g id="Grupo_170658" data-name="Grupo 170658" clip-path="url(#clip-path-10)">
              <path id="Trazado_211973" data-name="Trazado 211973" d="M559.75,301.7l-18.629,6.485,1,2.819Z" transform="translate(-541.121 -301.699)" fill="#e6e6e6"/>
            </g>
          </g>
        </g>
        <g id="Grupo_170663" data-name="Grupo 170663" transform="translate(190.714 88.623)" style="mix-blend-mode: multiply;isolation: isolate">
          <g id="Grupo_170662" data-name="Grupo 170662">
            <g id="Grupo_170661" data-name="Grupo 170661" clip-path="url(#clip-path-11)">
              <path id="Trazado_211974" data-name="Trazado 211974" d="M642.539,291.329,627.384,300.4l-.449-2.15Z" transform="translate(-626.934 -291.329)" fill="#e6e6e6"/>
            </g>
          </g>
        </g>
        <g id="Grupo_170666" data-name="Grupo 170666" transform="translate(185.105 40.659)" style="mix-blend-mode: multiply;isolation: isolate">
          <g id="Grupo_170665" data-name="Grupo 170665">
            <g id="Grupo_170664" data-name="Grupo 170664" clip-path="url(#clip-path-12)">
              <path id="Trazado_211975" data-name="Trazado 211975" d="M608.541,133.659s-.3,17.956.633,19.267c0,0,3.949-.886,8.578-1.781Z" transform="translate(-608.495 -133.659)" fill="#ccc"/>
            </g>
          </g>
        </g>
        <path id="Trazado_211976" data-name="Trazado 211976" d="M601.89,89.424s35.57,37.2,9.737,35.925c0,0-4.6.367-13.348-34.05Z" transform="translate(-416.281 -62.221)" fill="#f14950"/>
        <path id="Trazado_211977" data-name="Trazado 211977" d="M505.484,12.9s-5.175,14.275-14.72,8.831c0,0-3.353-8.01-6.106.893a3.551,3.551,0,0,0,2.034,4.348,2.964,2.964,0,0,0,1.139.23s1.281,11.915-7.137,8.472S473.169,24.1,459.11,32.834c0,0,1.872-5.658,18.8-16.547,0,0,5.258-22.167,21.981-14.778,0,0,9.553,4.735,5.6,11.393" transform="translate(-319.448 0)" fill="#0c387a"/>
        <path id="Trazado_211978" data-name="Trazado 211978" d="M568.649,52.3l1.779,1.71,1.042,1.122-.166,1.318h3.245V45.05s-1.548-1.914-.918,2.941c0,0-.963,2.322-1.22-2.586,0,0-.06-1.45-.833-.923a1.047,1.047,0,0,0-.425,1.074c.2.988.542,2.972-.11,2.124a5.694,5.694,0,0,1-.83-2.776.945.945,0,0,0-.82-.873c-.416-.048-.8.2-.573,1.425.428,2.36,2.223,4.109-.256,1.841s-2.394-.388-.513,1.579.513,2.37.171,2.04a7.926,7.926,0,0,0-1.554-.843s-1.61,1.026,1.981,2.223" transform="translate(-394.037 -30.633)" fill="#f7b79c"/>
        <path id="Trazado_211979" data-name="Trazado 211979" d="M597.968,70.732l-1.29-4.554-3.281-4.01v6.9l1.139-.07.112,2.066,1.035,1.267Z" transform="translate(-412.885 -43.256)" fill="#f7b79c"/>
        <g id="Grupo_170669" data-name="Grupo 170669" transform="translate(180.512 18.912)" style="mix-blend-mode: multiply;isolation: isolate">
          <g id="Grupo_170668" data-name="Grupo 170668">
            <g id="Grupo_170667" data-name="Grupo 170667" clip-path="url(#clip-path-13)">
              <path id="Trazado_211980" data-name="Trazado 211980" d="M593.4,69.071v-6.9l.728,3.451,2.042,6.028-.723.395L594.536,69Z" transform="translate(-593.398 -62.168)" fill="#e6e6e6"/>
            </g>
          </g>
        </g>
        <g id="Grupo_170672" data-name="Grupo 170672" transform="translate(181.524 20.148)" style="mix-blend-mode: multiply;isolation: isolate">
          <g id="Grupo_170671" data-name="Grupo 170671">
            <g id="Grupo_170670" data-name="Grupo 170670" clip-path="url(#clip-path-14)">
              <path id="Trazado_211981" data-name="Trazado 211981" d="M600.808,73.288l-1.013-4.282-3.071-2.773,3.559,2.409,1.567,4-.328,1.41Z" transform="translate(-596.724 -66.234)" fill="#e6e6e6"/>
            </g>
          </g>
        </g>
        <path id="Trazado_211982" data-name="Trazado 211982" d="M371.091,82.524c-.343-3.355-.97-6.767-1.577-10.066-1.273-6.919-2.59-14.074-1.333-21.076A30.314,30.314,0,0,1,388.5,28.346c1.516-.474,3.141-.861,4.712-1.234,4.923-1.171,10.013-2.382,12.714-6.462a19.287,19.287,0,0,0,1.712-3.583c.238-.6.485-1.225.757-1.825A20.571,20.571,0,0,1,428.884,3.627L428.841,4A20.1,20.1,0,0,0,408.74,15.4c-.268.591-.513,1.21-.75,1.807a19.568,19.568,0,0,1-1.749,3.653c-2.785,4.2-7.949,5.434-12.943,6.622-1.565.372-3.183.757-4.687,1.227a29.926,29.926,0,0,0-20.055,22.74c-1.245,6.934.066,14.054,1.333,20.94.609,3.306,1.238,6.725,1.582,10.1Z" transform="translate(-255.826 -2.443)" fill="#0c387a"/>
        <path id="Trazado_211983" data-name="Trazado 211983" d="M611.315,54.084l-.3-.237a4.648,4.648,0,0,0,.67-2.976,49.133,49.133,0,0,0-.792-8.164l.375-.068a49.569,49.569,0,0,1,.8,8.227,4.956,4.956,0,0,1-.753,3.218" transform="translate(-425.061 -29.668)" fill="#0c387a"/>
        <path id="Trazado_211984" data-name="Trazado 211984" d="M535.531,79.822a9.212,9.212,0,0,1-2.691-.7A6.528,6.528,0,0,0,530,78.49l-.089-.37a6.5,6.5,0,0,1,3.055.649c1.42.508,2.889,1.034,3.3.357.7-1.158.552-2.626.328-4.154a9.014,9.014,0,0,0-.531-2.258,9.073,9.073,0,0,0-1.469-2.147c-.2-.238-.4-.484-.6-.733a4.576,4.576,0,0,1-1.226-3.443,5.612,5.612,0,0,1,.672-1.733l1.324-2.522a1.818,1.818,0,0,1,.225-.356,1.394,1.394,0,0,1,.648-.4,3.288,3.288,0,0,1,3.33,1.22,9.994,9.994,0,0,1,1.405,2.5c.094.213.191.434.29.647a2.623,2.623,0,0,0,.607.92,1.786,1.786,0,0,0,1.757.2,4.7,4.7,0,0,0,1.591-1.147l.268.27a5.028,5.028,0,0,1-1.727,1.234,2.17,2.17,0,0,1-2.138-.27,2.941,2.941,0,0,1-.705-1.05c-.1-.216-.2-.439-.293-.653a9.71,9.71,0,0,0-1.347-2.41,2.91,2.91,0,0,0-2.924-1.1,1.031,1.031,0,0,0-.476.284,1.508,1.508,0,0,0-.176.285l-1.324,2.522a5.24,5.24,0,0,0-.633,1.612A4.228,4.228,0,0,0,534.3,69.6c.189.244.392.487.588.722a9.342,9.342,0,0,1,1.527,2.242,9.3,9.3,0,0,1,.557,2.353c.234,1.6.381,3.139-.379,4.4a1.133,1.133,0,0,1-1.06.5" transform="translate(-368.714 -42.63)" fill="#0c387a"/>
      </g>
    </g>
  </g>
</svg>
