<svg xmlns="http://www.w3.org/2000/svg" width="505" height="274.795" viewBox="0 0 505 274.795">
  <g id="Grupo_169862" data-name="Grupo 169862" transform="translate(-810 -14667)">
    <path id="Trazado_209635" data-name="Trazado 209635" d="M0,0H505V274.795H0Z" transform="translate(810 14667)" fill="#64b5f6"/>
    <path id="Trazado_209636" data-name="Trazado 209636" d="M0,0H252.5V274.795H0Z" transform="translate(1062.5 14667)" fill="#f06292"/>
    <path id="Trazado_209633" data-name="Trazado 209633" d="M121.205,60.3A60.322,60.322,0,0,0,52.57.576a60.212,60.212,0,0,0-4.4,118.722v38.756H21.041v24.058H48.174v24.094H72.233V182.112H99.365V158.054H72.233V119.538A60.319,60.319,0,0,0,121.205,60.3M60.826,96.444A36.145,36.145,0,1,1,96.97,60.3,36.185,36.185,0,0,1,60.826,96.444" transform="translate(881.633 14701)" fill="#f06292"/>
    <path id="Trazado_209634" data-name="Trazado 209634" d="M401.742,426.224A65.327,65.327,0,0,0,502.424,344L533.7,312.721l-.008,28.488,19.926-19.927V274.344H506.684l-19.927,19.927,28.488-.008-31.279,31.279a65.327,65.327,0,0,0-82.225,100.682m73.92-73.919a39.217,39.217,0,1,1-55.461,0,39.261,39.261,0,0,1,55.461,0" transform="translate(720.077 14444.656)" fill="#64b5f6"/>
  </g>
</svg>
