<svg id="Grupo_169725" data-name="Grupo 169725" xmlns="http://www.w3.org/2000/svg" xmlns:xlink="http://www.w3.org/1999/xlink" width="505" height="275" viewBox="0 0 505 275">
  <defs>
    <clipPath id="clip-path">
      <rect id="Rectángulo_49042" data-name="Rectángulo 49042" width="505" height="275" fill="none"/>
    </clipPath>
    <clipPath id="clip-path-3">
      <rect id="Rectángulo_48999" data-name="Rectángulo 48999" width="10.25" height="40.82" fill="none"/>
    </clipPath>
    <clipPath id="clip-path-4">
      <rect id="Rectángulo_49000" data-name="Rectángulo 49000" width="24.547" height="81.6" fill="none"/>
    </clipPath>
    <clipPath id="clip-path-5">
      <rect id="Rectángulo_49001" data-name="Rectángulo 49001" width="15.216" height="65.681" fill="none"/>
    </clipPath>
    <clipPath id="clip-path-6">
      <rect id="Rectángulo_49002" data-name="Rectángulo 49002" width="109.701" height="183.161" fill="none"/>
    </clipPath>
    <clipPath id="clip-path-7">
      <rect id="Rectángulo_49003" data-name="Rectángulo 49003" width="82.26" height="106.351" fill="none"/>
    </clipPath>
    <clipPath id="clip-path-8">
      <rect id="Rectángulo_49004" data-name="Rectángulo 49004" width="5.335" height="45.03" fill="none"/>
    </clipPath>
    <clipPath id="clip-path-9">
      <rect id="Rectángulo_49005" data-name="Rectángulo 49005" width="26.53" height="26.326" fill="none"/>
    </clipPath>
    <clipPath id="clip-path-10">
      <rect id="Rectángulo_49006" data-name="Rectángulo 49006" width="15.21" height="10.296" fill="none"/>
    </clipPath>
    <clipPath id="clip-path-11">
      <rect id="Rectángulo_49007" data-name="Rectángulo 49007" width="15.41" height="19.421" fill="none"/>
    </clipPath>
    <clipPath id="clip-path-12">
      <rect id="Rectángulo_49008" data-name="Rectángulo 49008" width="40.101" height="20.07" fill="none"/>
    </clipPath>
    <clipPath id="clip-path-13">
      <rect id="Rectángulo_49009" data-name="Rectángulo 49009" width="38.531" height="23.106" fill="none"/>
    </clipPath>
    <clipPath id="clip-path-14">
      <rect id="Rectángulo_49010" data-name="Rectángulo 49010" width="35.051" height="10.266" fill="none"/>
    </clipPath>
    <clipPath id="clip-path-15">
      <rect id="Rectángulo_49011" data-name="Rectángulo 49011" width="2.213" height="45.987" fill="none"/>
    </clipPath>
    <clipPath id="clip-path-16">
      <rect id="Rectángulo_49012" data-name="Rectángulo 49012" width="64.43" height="29.465" fill="none"/>
    </clipPath>
    <clipPath id="clip-path-17">
      <rect id="Rectángulo_49013" data-name="Rectángulo 49013" width="86.94" height="17.495" fill="none"/>
    </clipPath>
    <clipPath id="clip-path-18">
      <rect id="Rectángulo_49014" data-name="Rectángulo 49014" width="39.943" height="19.534" fill="none"/>
    </clipPath>
    <clipPath id="clip-path-19">
      <rect id="Rectángulo_49015" data-name="Rectángulo 49015" width="35.154" height="8.038" fill="none"/>
    </clipPath>
    <clipPath id="clip-path-20">
      <rect id="Rectángulo_49016" data-name="Rectángulo 49016" width="3.865" height="10.391" fill="none"/>
    </clipPath>
    <clipPath id="clip-path-21">
      <rect id="Rectángulo_49017" data-name="Rectángulo 49017" width="9.149" height="1.142" fill="none"/>
    </clipPath>
    <clipPath id="clip-path-22">
      <rect id="Rectángulo_49018" data-name="Rectángulo 49018" width="54.44" height="63.709" fill="none"/>
    </clipPath>
    <clipPath id="clip-path-23">
      <rect id="Rectángulo_49019" data-name="Rectángulo 49019" width="5.624" height="10.757" fill="none"/>
    </clipPath>
    <clipPath id="clip-path-24">
      <rect id="Rectángulo_49020" data-name="Rectángulo 49020" width="3.286" height="6.68" fill="none"/>
    </clipPath>
    <clipPath id="clip-path-25">
      <rect id="Rectángulo_49021" data-name="Rectángulo 49021" width="10.332" height="7.462" fill="none"/>
    </clipPath>
    <clipPath id="clip-path-26">
      <rect id="Rectángulo_49022" data-name="Rectángulo 49022" width="10.097" height="7.611" fill="none"/>
    </clipPath>
    <clipPath id="clip-path-27">
      <rect id="Rectángulo_49023" data-name="Rectángulo 49023" width="5.242" height="9.076" fill="none"/>
    </clipPath>
    <clipPath id="clip-path-28">
      <rect id="Rectángulo_49024" data-name="Rectángulo 49024" width="38.752" height="124.8" fill="none"/>
    </clipPath>
    <clipPath id="clip-path-29">
      <rect id="Rectángulo_49025" data-name="Rectángulo 49025" width="46.927" height="48.883" fill="none"/>
    </clipPath>
    <clipPath id="clip-path-30">
      <rect id="Rectángulo_49026" data-name="Rectángulo 49026" width="25.292" height="24.348" fill="none"/>
    </clipPath>
    <clipPath id="clip-path-31">
      <rect id="Rectángulo_49027" data-name="Rectángulo 49027" width="19.205" height="29.864" fill="none"/>
    </clipPath>
    <clipPath id="clip-path-32">
      <rect id="Rectángulo_49028" data-name="Rectángulo 49028" width="30.529" height="39.375" fill="none"/>
    </clipPath>
    <clipPath id="clip-path-33">
      <rect id="Rectángulo_49029" data-name="Rectángulo 49029" width="24.623" height="91.259" fill="none"/>
    </clipPath>
    <clipPath id="clip-path-34">
      <rect id="Rectángulo_49030" data-name="Rectángulo 49030" width="13.883" height="71.823" fill="none"/>
    </clipPath>
    <clipPath id="clip-path-35">
      <rect id="Rectángulo_49031" data-name="Rectángulo 49031" width="176.988" height="190.996" fill="none"/>
    </clipPath>
    <clipPath id="clip-path-36">
      <rect id="Rectángulo_49032" data-name="Rectángulo 49032" width="3.064" height="5.674" fill="none"/>
    </clipPath>
    <clipPath id="clip-path-37">
      <rect id="Rectángulo_49033" data-name="Rectángulo 49033" width="3.641" height="5.004" fill="none"/>
    </clipPath>
    <clipPath id="clip-path-38">
      <rect id="Rectángulo_49034" data-name="Rectángulo 49034" width="10.79" height="3.747" fill="none"/>
    </clipPath>
    <clipPath id="clip-path-39">
      <rect id="Rectángulo_49035" data-name="Rectángulo 49035" width="8.037" height="1.747" fill="none"/>
    </clipPath>
    <clipPath id="clip-path-40">
      <rect id="Rectángulo_49036" data-name="Rectángulo 49036" width="222.761" height="92.178" fill="none"/>
    </clipPath>
    <clipPath id="clip-path-41">
      <rect id="Rectángulo_49037" data-name="Rectángulo 49037" width="73.646" height="50.503" fill="none"/>
    </clipPath>
    <clipPath id="clip-path-42">
      <rect id="Rectángulo_49038" data-name="Rectángulo 49038" width="199.543" height="91.826" fill="none"/>
    </clipPath>
    <clipPath id="clip-path-43">
      <rect id="Rectángulo_49039" data-name="Rectángulo 49039" width="188.568" height="122.139" fill="none"/>
    </clipPath>
    <clipPath id="clip-path-44">
      <rect id="Rectángulo_49040" data-name="Rectángulo 49040" width="22.975" height="43.066" fill="none"/>
    </clipPath>
  </defs>
  <g id="Grupo_169853" data-name="Grupo 169853" clip-path="url(#clip-path)">
    <path id="Trazado_209534" data-name="Trazado 209534" d="M238.665.062l-1.573,274.877,265.537.06L502.524.062Z" transform="translate(2.371 0.001)" fill="#c65180"/>
    <path id="Trazado_209599" data-name="Trazado 209599" d="M0,0H245.972V274.874H0Z" transform="translate(0 0.063)" fill="#c65180"/>
    <g id="Grupo_169852" data-name="Grupo 169852">
      <g id="Grupo_169851" data-name="Grupo 169851" clip-path="url(#clip-path)">
        <path id="Trazado_209535" data-name="Trazado 209535" d="M504.937,187.274c-16.451,6.516-34.606,9.385-54.174,12.41-55.422,8.566-111.79,14.444-167.6,6.664-41.831-5.831-80.487-18.263-110.067-35.4-9.793-5.673-18.642-11.863-29.424-16.976-19.651-9.319-45.49-14.677-71.541-14.835S20.025,144.024,0,153.1L.227,273.439l504.745,0Z" transform="translate(0 1.496)" fill="#9f0f62"/>
        <path id="Trazado_209536" data-name="Trazado 209536" d="M303.019,110.176c3.038-7.5,3.11-14.841,3.068-22.886a52.734,52.734,0,0,0-11.445-31.87,54.088,54.088,0,0,0-12.714-11.784,49.915,49.915,0,0,0-7.622-4.146,25.349,25.349,0,0,0-8.862-2.043,41.577,41.577,0,0,1-9.68-1.94c-9.285-3.14-17.114-10.406-18.873-20.215-.778-4.34.784-15.031,1.129-15.229.248-.142,15.25,0,22.368,0H385.908c1.329,23.364-4.934,46.979-14.006,68.546-8.923,21.217-20.948,41.4-39,55.663" transform="translate(2.367 0)" fill="#5c1171"/>
        <path id="Trazado_209537" data-name="Trazado 209537" d="M196.194,272.585a135.846,135.846,0,0,1,10.7-53.418c4.2-.843,6.429,1.569,10.319,3.362,23.918,11.02,46.641,6.843,70.475-1.142a8.835,8.835,0,0,1,2.223,4.445,152.64,152.64,0,0,1,5.233,46.753" transform="translate(1.962 2.355)" fill="#8d68af"/>
        <path id="Trazado_209538" data-name="Trazado 209538" d="M198.689,246.03c23.26,6.38,36.963,17.308,53.331,12.429,3.71-1.106,7.283-2.614,10.895-4,10.128-3.9,21.686-6.019,31.18-6.967" transform="translate(1.987 2.646)" fill="none" stroke="#b295d1" stroke-miterlimit="10" stroke-width="3.263"/>
        <path id="Trazado_209539" data-name="Trazado 209539" d="M196.686,259.932a39.92,39.92,0,0,1,9.374,1.873c3.79,1.245,7.369,3.05,11.092,4.481a59.932,59.932,0,0,0,40.183.863c2.795-.938,5.516-2.083,8.308-3.028,9.453-3.2,21.283-1.582,29.539-2.458" transform="translate(1.967 2.795)" fill="none" stroke="#b295d1" stroke-miterlimit="10" stroke-width="3.263"/>
        <path id="Trazado_209540" data-name="Trazado 209540" d="M216.38,50.539c1.412,16.015.236,32.133-.94,48.166a108.47,108.47,0,0,1,51.75,1.207,7.231,7.231,0,0,0,.483-3.5q-.761-26.481-1.52-52.962a14.167,14.167,0,0,0-.6-4.43c-1.323-3.652-5.34-5.548-9.115-6.45a55.564,55.564,0,0,0-16.954-.908,118.637,118.637,0,0,0-19.645,3.108c-1.052.259-3.053.4-3.7,1.25-.683.9-.4,3.73-.407,4.83-.031,3.24.365,6.468.648,9.69" transform="translate(2.154 0.338)" fill="#483b5e"/>
        <path id="Trazado_209541" data-name="Trazado 209541" d="M267.955,20.835a37.98,37.98,0,0,1,7.231,18.132c.911,6.437.691,13.235,3.558,19.068a34.243,34.243,0,0,0,6.535,8.519c1.279,1.312,2.67,2.792,2.712,4.623a4.431,4.431,0,0,1-2.089,3.651,7.74,7.74,0,0,1-4.181,1.119,4.153,4.153,0,0,0-2.73.57,3.289,3.289,0,0,0-.661,3.032c.98,6.543,5.355,12.038,9.982,16.765a4.871,4.871,0,0,1,1.438,2.1c.864,3.5-8.392,2.671-10.426,2.58a31.4,31.4,0,0,1-5.924-.6,12.766,12.766,0,0,1-9.07-7.749c-2.33-5.44-1.991-11.6-1.764-17.511.39-10.219.315-20.5-1.291-30.6-.576-3.624-1.186-7.235-1.608-10.882-.544-4.7-1.3-9.992-.217-14.67.236-1.024.609-2.431,1.65-2.937,2.144-1.043,4.424,2,5.643,3.352q.63.7,1.212,1.443" transform="translate(2.589 0.17)" fill="#604089"/>
        <g id="Grupo_169727" data-name="Grupo 169727" transform="translate(265.035 54.352)" opacity="0.19" style="mix-blend-mode: multiply;isolation: isolate">
          <g id="Grupo_169726" data-name="Grupo 169726">
            <g id="Grupo_169725-2" data-name="Grupo 169725" clip-path="url(#clip-path-3)">
              <path id="Trazado_209542" data-name="Trazado 209542" d="M267.858,73.842a7.006,7.006,0,0,0-.118.846A28.232,28.232,0,0,0,272.3,92.646c.265.4.536.953.219,1.312a1.048,1.048,0,0,1-.594.27c-2.111.435-5.129.829-6.714-.973-1.474-1.674-1.89-4.11-2.166-6.245a75.93,75.93,0,0,1-.405-15.644,2.8,2.8,0,0,1,.134-.771,3.406,3.406,0,0,1,.555-.85,17.031,17.031,0,0,0,2.757-7.292c.124-.665.782-8.187.536-8.151l.892-.131a4.644,4.644,0,0,0,.564-.116l1.038-.279s.636,3.093.81,3.861q1.01,4.486,1.607,9.053c.24,1.845.21,4.146-1.423,5.036a10.294,10.294,0,0,0-1.468.685,2.351,2.351,0,0,0-.784,1.432" transform="translate(-262.411 -53.774)" fill="#604089"/>
            </g>
          </g>
        </g>
        <path id="Trazado_209543" data-name="Trazado 209543" d="M315.563,235.395a80.542,80.542,0,0,0,.43-12.579c-.61-12.074.487-24.943-1.963-36.852-1.828-10.979-6.3-21.413-8.651-32.281-2.267-10.486-2.269-22.158-3.509-32.935-.893-7.769-2.319-16.48-8.7-21-11.368-8.056-34.947,1.035-41.084-14.883a19.031,19.031,0,0,1-.62-10.33c-3.151.379-10.966-1.426-13.1.908-2.085,2.279-1.034,8.063-2.386,11.007-2.458,5.357-10.708,7.843-16.042,9.2-7.235,1.844-14.912,1.375-21.964,4.04-9.966,3.766-16.454,14.392-16.146,24.909.415,14.189-1.608,29.157-3.952,43.23-1.459,9.819-3.376,19.365-2.5,29.235,2.261,25.416,3.486,51.88,7.7,77.077H193.5c-2.241-6.95-.564-16.713-.183-23.928.474-8.953,1.313-17.881,2.238-26.8,1.788-17.237,3.924-34.461,4.484-51.8.133-4.129,4.112-19.624,2.392-22.59,4.379,7.55,3.706,21.448,5.452,30.274,1.308,6.607,5.388,15.661,3.8,22.317-1.673,7-6.3,13.042-7.27,20.368-.653,4.923,3.062,5.64,6.8,7.064L224.5,234.11c7.6,2.891,15.354,5.817,23.473,6.187a52.778,52.778,0,0,0,18.794-3.012,84.055,84.055,0,0,0,17.01-7.8c3.645-2.192,5.79-4.034,5.071-8.379a46.4,46.4,0,0,0-3.346-10.528c-2.6-6.107-6.3-11.632-7.284-18.313-1.116-7.543,1.185-14.736,2.646-22.062,1.713-8.585,1.935-17.331,2.8-26.014.089,11.349,5.013,21.652,6.476,32.771.773,5.872.462,11.863,1.5,17.7.983,5.535,2.9,10.084,3.341,15.747,1.647,21.328,2.082,42.319,3.526,63.713l9.115.02a8.652,8.652,0,0,0,.258-.848c2.573-12.119,6.327-25.148,7.686-37.9" transform="translate(1.752 0.798)" fill="#e59ec5"/>
        <path id="Trazado_209544" data-name="Trazado 209544" d="M258.684,89.662a3.857,3.857,0,0,0-1.164,1.716c-4.451,9.056-20.221,8.32-25.384.638-.853-1.268-1.817-2.812-3.344-2.857-1.212-.036-2.192.918-3.068,1.757-2.222,2.127-6.522,2.9-9.428,3.633-3.609.9-7.287,1.5-10.95,2.136-8.38,1.461-17.6,4.455-21.384,12.082-1.69,3.408-2.031,7.3-2.345,11.1-.948,11.458-2.7,23.155-2.866,34.648-.146,10.147-2.133,27.128-7.509,35.875-1.925,3.133-4.248,6.158-5.019,9.754s.653,8.03,4.15,9.163c1.8.584,3.756.191,5.633-.078a41.54,41.54,0,0,1,16.333.919c2.177.567,4.366,1.319,6.608,1.159,3.94-.279,7.317-3.555,8.257-7.394,1.555-6.364-3.768-11.656-4.448-17.851a140.469,140.469,0,0,1,.086-28.408c-1.158,12.2,6.626,24.519,7.977,36.365.925,8.114-1.82,16.284-5.953,23.327-4.608,7.858-6.591,14.68-.465,22.321,5.046,6.294,12.795,10.217,20.648,11.608,10.514,1.862,21.328-.23,31.594-3.169s20.339-6.737,30.889-8.394a7.457,7.457,0,0,0,3.325-1.052c1.894-1.385,1.95-4.153,1.715-6.488a76.993,76.993,0,0,0-6.617-24.3c-3.161-6.889-8.193-13.027-7.049-21.107,1.739-12.29,5.394-22.933,4.3-35.648.659,7.647,4.006,15.2,3.775,22.977-.2,6.727,1.654,13.613.187,20.343-.4,1.838-1,3.847-.131,5.514a4.676,4.676,0,0,0,3.52,2.234,13.823,13.823,0,0,0,4.3-.266c5.7-.955,9.4.848,14.762,2.589,3.623,1.178,8.2,1.286,10.614-1.665,2.822-3.451.95-8.557-.857-12.633-6.973-15.717-13.351-30.133-15.219-47.475-1.429-13.28,1.371-39.946-13.667-46.265a43.94,43.94,0,0,0-15.262-2.9c-3.582-.152-10.033.588-12.847-1.99-.533-.489-.952-1.1-1.515-1.552a2.028,2.028,0,0,0-2.011-.451,1.356,1.356,0,0,0-.17.09" transform="translate(1.66 0.959)" fill="#ced372"/>
        <g id="Grupo_169730" data-name="Grupo 169730" transform="translate(288.322 193.34)" opacity="0.06" style="mix-blend-mode: multiply;isolation: isolate">
          <g id="Grupo_169729" data-name="Grupo 169729">
            <g id="Grupo_169728" data-name="Grupo 169728" clip-path="url(#clip-path-4)">
              <path id="Trazado_209545" data-name="Trazado 209545" d="M297.4,272.86c-.489,0-.719-5.853-.748-6.259-.8-10.965-1.228-21.96-1.776-32.938-.29-5.816-.58-11.631-.915-17.444-.191-2.858-.137-5.727-.367-8.583a31.817,31.817,0,0,0-.6-4.29,5.365,5.365,0,0,0-.578-2.024c-.372-.406-1.035-.292-1.576-.325-1.67-.1-3.543-.307-4.591-1.611a5.052,5.052,0,0,1-.618-4.135c.164-.841.407-1.666.553-2.51.13-.747-.149-1.5.676-1.419a16.16,16.16,0,0,1,2.218.7q1.124.3,2.272.483a24.668,24.668,0,0,0,9.092-.2,38.8,38.8,0,0,1,4.88-.992,6.385,6.385,0,0,1,4.692,1.243,5.683,5.683,0,0,0-5.656,1.648c-1.958,2.192-1.25,4.452-.654,6.959.752,3.165.133,6.52-.305,9.683-1.7,12.222-1.7,24.609-1.7,36.948a172.43,172.43,0,0,1-1.578,25.089l-2.717-.023" transform="translate(-285.467 -191.283)" fill="#604089"/>
            </g>
          </g>
        </g>
        <g id="Grupo_169733" data-name="Grupo 169733" transform="translate(177.649 209.293)" opacity="0.06" style="mix-blend-mode: multiply;isolation: isolate">
          <g id="Grupo_169732" data-name="Grupo 169732">
            <g id="Grupo_169731" data-name="Grupo 169731" clip-path="url(#clip-path-5)">
              <path id="Trazado_209546" data-name="Trazado 209546" d="M190.475,209.617c1,1.667.6,3.786.195,5.691a188.65,188.65,0,0,0-3.219,57.406c-1.619.118-2.753-.118-4.372,0-.663-5.363-1.659-10.786-2.313-16.14-1.991-16.315-3.537-32.54-4.875-48.956,3.821-.059,12.12-2.079,14.584,2" transform="translate(-175.89 -207.066)" fill="#604089"/>
            </g>
          </g>
        </g>
        <g id="Grupo_169736" data-name="Grupo 169736" transform="translate(167.687 91.778)" opacity="0.06" style="mix-blend-mode: multiply;isolation: isolate">
          <g id="Grupo_169735" data-name="Grupo 169735">
            <g id="Grupo_169734" data-name="Grupo 169734" clip-path="url(#clip-path-6)">
              <path id="Trazado_209547" data-name="Trazado 209547" d="M226.611,97.028a15.875,15.875,0,0,0-10.43-6.226q-12.556,6.1-24.8,12.829c-3.219,1.77-6.535,2.93-8.269,6.125-1.639,3.019-1.74,7.134-2.016,10.472-.948,11.458-2.7,23.155-2.866,34.648-.147,10.147-1.615,26.743-6.991,35.491-1.925,3.132-4.248,6.158-5.019,9.754s.771,7.717,4.15,9.163c1.85.791,5.515.111,8.414-.457,3.556-.7,6.235-.3,10.266.743a68.875,68.875,0,0,0,10.874,1.658c1.906-.273.227-3.376.446-5.29.491-4.27-.7-8.531-1.766-12.7-1.821-7.139-3.271-14.5-3.167-21.9.065-4.548.071-17.491,6.455-17.88a154.379,154.379,0,0,0,5.862,31.364c1.277,4.3,2.752,8.611,3.023,13.092.591,9.771-5.836,16.515-9.014,25.176-1.3,3.557-1.988,7.494-.944,11.137,1.608,5.617-1.239,12.154-2.211,17.824a107.523,107.523,0,0,0-1.709,10.769c-.029.308-.225,2.652-.317,5.314-.095,2.755-.086,5.824-.086,5.824,10.982-.06,21.555-.005,32.538-.065,4.673-.025,9.455-.07,13.846-1.668,5.757-2.1,10.281-6.669,13.9-11.62,2.415-3.308,4.529-6.832,7.052-10.061.968-1.238,8.117-7.436,7.79-8.064a2.084,2.084,0,0,0-1.034-.829c-3.6-1.68-7.98-1.238-11.4-3.257a4.156,4.156,0,0,1-1.615-1.523c-.725-1.345-.188-3.038.656-4.314a27.069,27.069,0,0,0,2.595-3.768,1.888,1.888,0,0,0-.091-2.059c-.548-.553-1.467-.374-2.2-.124-2.894.981-5.6,2.453-8.476,3.485s-6.051,1.614-8.98.743c-.854-.254-1.821-.865-1.719-1.752.1-.832,1.05-1.226,1.852-1.466a63.108,63.108,0,0,0,19.2-9.17,41.58,41.58,0,0,0,13.572-16.221c-7.781,8.232-16.985,15.837-28.053,18.224a18.45,18.45,0,0,1-7.231.33,9.592,9.592,0,0,1-6.108-3.636c-2.681-3.767-1.468-8.938-.148-13.37,3.195-10.733,11.673-17.242,20.76-23.148a153.245,153.245,0,0,0,12.869-8.835,44.788,44.788,0,0,0,5.617-5.3c1.258-1.436,2.592-4.816,4.048-5.8-10.66,7.17-41.872,16.333-44.669-4.625-.4-3.029.326-6.082,1.051-9.05,1.981-8.106,4.409-16.9,11.175-21.781,5.625-4.054,12.972-4.451,19.763-5.845,1.212-.249,2.742-1.016,2.45-2.219a2.143,2.143,0,0,0-.882-1.109c-4.523-3.419-10.831-2.486-16.452-1.751s-12.278.7-15.783-3.754c-2.284-2.9-2.513-6.882-3.922-10.3a14.978,14.978,0,0,0-1.848-3.244" transform="translate(-166.027 -90.802)" fill="#604089"/>
            </g>
          </g>
        </g>
        <g id="Grupo_169739" data-name="Grupo 169739" transform="translate(201.277 127.647)" opacity="0.17" style="mix-blend-mode: multiply;isolation: isolate">
          <g id="Grupo_169738" data-name="Grupo 169738">
            <g id="Grupo_169737" data-name="Grupo 169737" clip-path="url(#clip-path-7)">
              <path id="Trazado_209548" data-name="Trazado 209548" d="M232.472,149.293a54.784,54.784,0,0,0-4.478,3.647,27.3,27.3,0,0,1-6.406,4.246c-2.02.962-4.847.848-5.859,3.07-1.239,2.723-.865,7.14-.729,10.05.334,7.179,2.243,14.188,4.353,21.021,1.173,3.8,2.4,7.943.956,11.643-1.26,3.225-4.269,5.354-6.889,7.618-6.1,5.274-12.832,13.573-12.918,22.053-1.077-2.418-.7-5.257.229-7.736,2.364-6.332,6.811-11.684,8.67-18.249a37.074,37.074,0,0,0,.991-15.207c-.8-5.465-3.322-10.67-4.987-15.908a76.664,76.664,0,0,1-3.306-16.493c-.423-4.812-1.637-9.57-2.343-14.406-.693-4.75-.806-10.118.957-14.657-1.282,3.3,5.927,9.688,7.905,11.447,3.9,3.461,8.742,5.331,14.069,4.218,4.116-.859,7.871-2.9,11.763-4.491s8.2-2.75,12.278-1.738c8.621,2.138,14.9,8.067,23.923,2.474,5.369-3.326,8.728-9.359,9.7-15.6,1.055,5.3,1.816,10.823.5,16.063s-5.135,10.167-10.409,11.321c-10.2,2.232-19.238-9.837-29.557-8.232a20.248,20.248,0,0,0-8.411,3.851" transform="translate(-199.284 -126.289)" fill="#604089"/>
            </g>
          </g>
        </g>
        <g id="Grupo_169742" data-name="Grupo 169742" transform="translate(284.168 112.281)" opacity="0.17" style="mix-blend-mode: multiply;isolation: isolate">
          <g id="Grupo_169741" data-name="Grupo 169741">
            <g id="Grupo_169740" data-name="Grupo 169740" clip-path="url(#clip-path-8)">
              <path id="Trazado_209549" data-name="Trazado 209549" d="M283.193,111.7c-.013-.2-.025-.407-.038-.612.092,1.471-.969,3.618-1.2,5.142a43.577,43.577,0,0,0-.43,5.56c-.071,3.519.11,6.992-.074,10.478-.416,7.864.528,16.072,1.612,23.85a85.906,85.906,0,0,1,2.44-17.213c1.075-4.65,1.7-9.53.622-14.179a1.248,1.248,0,0,0-.392-.766c-.7-.506-1.411.644-1.527,1.5-.761-4.6-.725-9.093-1.017-13.763" transform="translate(-281.354 -111.086)" fill="#604089"/>
            </g>
          </g>
        </g>
        <g id="Grupo_169745" data-name="Grupo 169745" transform="translate(260.126 184.26)" opacity="0.06" style="mix-blend-mode: multiply;isolation: isolate">
          <g id="Grupo_169744" data-name="Grupo 169744">
            <g id="Grupo_169743" data-name="Grupo 169743" clip-path="url(#clip-path-9)">
              <path id="Trazado_209550" data-name="Trazado 209550" d="M274.971,199.207c1.652,3.628,3.354,7.384,6.837,9.117.713.355,1.761.51,2.149-.186a1.717,1.717,0,0,0-.006-1.279c-.916-3.347-2.624-5.959-4.138-9.028-2.338-4.738-2.433-9.561-2.662-14.706-.016-.351-.13-.808-.481-.825a.721.721,0,0,0-.4.148l-7.75,4.829c-4.216,2.628-8.617,5.447-10.972,9.824,3.4.229,5.486-4.2,8.866-4.619a19.538,19.538,0,0,0-1.7,6.205,5.059,5.059,0,0,0,.422,3.092,2.093,2.093,0,0,0,2.7.931,3.3,3.3,0,0,0,1.091-1.446,31.058,31.058,0,0,1,2.538-4.165c.387-.536.951-1.122,1.594-.965.48.117.761.605.976,1.051.32.66.629,1.339.941,2.024" transform="translate(-257.551 -182.3)" fill="#604089"/>
            </g>
          </g>
        </g>
        <g id="Grupo_169748" data-name="Grupo 169748" transform="translate(286.859 159.668)" opacity="0.17" style="mix-blend-mode: multiply;isolation: isolate">
          <g id="Grupo_169747" data-name="Grupo 169747">
            <g id="Grupo_169746" data-name="Grupo 169746" clip-path="url(#clip-path-10)">
              <path id="Trazado_209551" data-name="Trazado 209551" d="M291.09,164.25c2.044,2.157,5.169,2.943,8.139,3.032a43.677,43.677,0,0,1-10.912.949,2.843,2.843,0,0,1-2.028-.641,2.912,2.912,0,0,1-.587-1.347l-1.683-6.87c5.116-4.114,4.183,1.83,7.071,4.877" transform="translate(-284.019 -157.969)" fill="#604089"/>
            </g>
          </g>
        </g>
        <g id="Grupo_169751" data-name="Grupo 169751" transform="translate(232.845 79.436)" opacity="0.18" style="mix-blend-mode: multiply;isolation: isolate">
          <g id="Grupo_169750" data-name="Grupo 169750">
            <g id="Grupo_169749" data-name="Grupo 169749" clip-path="url(#clip-path-11)">
              <path id="Trazado_209552" data-name="Trazado 209552" d="M245.95,79.511c-.494,3.226-1.985,6.218-2.682,9.406s-.4,6.948,2.06,9.095a31.265,31.265,0,0,1-8.47-1.4,10.557,10.557,0,0,1-6.318-5.491,7.813,7.813,0,0,0,4.937-5.2c.82-2.413.325-4.97.93-7.322.8.036,9.375,2.007,9.541.92" transform="translate(-230.54 -78.591)" fill="#bd80e8"/>
            </g>
          </g>
        </g>
        <g id="Grupo_169754" data-name="Grupo 169754" transform="translate(167.864 192.158)" opacity="0.27" style="mix-blend-mode: multiply;isolation: isolate">
          <g id="Grupo_169753" data-name="Grupo 169753">
            <g id="Grupo_169752" data-name="Grupo 169752" clip-path="url(#clip-path-12)">
              <path id="Trazado_209553" data-name="Trazado 209553" d="M171.437,199.1c2.07,2.46,5.843,2.294,9.027,1.861,3.363-.459,6.913-.959,10.055.33,3.538,1.451,6.04,5.129,10.154,4.973a7.441,7.441,0,0,0,4.542-1.79c.265-.229.644-.489.925-.279.247.186.17.572.053.859a8.578,8.578,0,0,1-5.992,4.956c-3.109.7-6.421-.915-9.4-1.67a30.406,30.406,0,0,0-12.018-.581c-2.823.432-6.691,1.252-9.3.08-3.2-1.44-3.659-5.512-3.062-8.973a20.91,20.91,0,0,1,4.476-8.753c-.334,3-1.718,6.312.534,8.989" transform="translate(-166.202 -190.113)" fill="#604089"/>
            </g>
          </g>
        </g>
        <g id="Grupo_169757" data-name="Grupo 169757" transform="translate(225.696 251.188)" opacity="0.13" style="mix-blend-mode: multiply;isolation: isolate">
          <g id="Grupo_169756" data-name="Grupo 169756">
            <g id="Grupo_169755" data-name="Grupo 169755" clip-path="url(#clip-path-13)">
              <path id="Trazado_209554" data-name="Trazado 209554" d="M250.163,252.072l11.829-3.556-7.163,10.4a45.434,45.434,0,0,1-6.911,8.485,15.281,15.281,0,0,1-9.865,4.218c-6.481,0-21.429-9.947-11-15.628,2.519-1.372,5.564-.558,8.284-.594,5.063-.069,10.02-1.884,14.823-3.327" transform="translate(-223.461 -248.515)" fill="#604089"/>
            </g>
          </g>
        </g>
        <g id="Grupo_169760" data-name="Grupo 169760" transform="translate(288.216 195.947)" opacity="0.27" style="mix-blend-mode: multiply;isolation: isolate">
          <g id="Grupo_169759" data-name="Grupo 169759">
            <g id="Grupo_169758" data-name="Grupo 169758" clip-path="url(#clip-path-14)">
              <path id="Trazado_209555" data-name="Trazado 209555" d="M287.305,196.462a6.121,6.121,0,0,0,3.187.681c2.423.008,4.827-.417,7.249-.5a18.768,18.768,0,0,1,8.06,1.37,45.681,45.681,0,0,0,4.651,2.125,9.209,9.209,0,0,0,9.64-2.988,1.416,1.416,0,0,1,.319,1.087c-.083,2.6-2.3,4.785-4.8,5.518a13.466,13.466,0,0,1-7.684-.486c-2.489-.768-4.884-1.849-7.429-2.4a18.651,18.651,0,0,0-5.992-.315,29.415,29.415,0,0,1-4.558.45A4.865,4.865,0,0,1,286,199.046a5.953,5.953,0,0,1-.083-5.184,2.94,2.94,0,0,0,1.391,2.6" transform="translate(-285.362 -193.862)" fill="#604089"/>
            </g>
          </g>
        </g>
        <g id="Grupo_169763" data-name="Grupo 169763" transform="translate(283.874 119.573)" opacity="0.67" style="mix-blend-mode: multiply;isolation: isolate">
          <g id="Grupo_169762" data-name="Grupo 169762">
            <g id="Grupo_169761" data-name="Grupo 169761" clip-path="url(#clip-path-15)">
              <path id="Trazado_209556" data-name="Trazado 209556" d="M282.157,118.3c1.188,15.249,2.159,30.926-1.094,45.987.158-1.634.4-4.066.522-5.735,1.111-13.346.276-26.878.572-40.252" transform="translate(-281.063 -118.301)" fill="#ced372"/>
            </g>
          </g>
        </g>
        <g id="Grupo_169766" data-name="Grupo 169766" transform="translate(212.529 202.363)" opacity="0.67" style="mix-blend-mode: multiply;isolation: isolate">
          <g id="Grupo_169765" data-name="Grupo 169765">
            <g id="Grupo_169764" data-name="Grupo 169764" clip-path="url(#clip-path-16)">
              <path id="Trazado_209557" data-name="Trazado 209557" d="M210.425,223.434c14.4,11.464,40.244,2.782,52.794-8.185a46.627,46.627,0,0,0,11.636-15.039,42.821,42.821,0,0,1-11.077,15.674c-12.229,11.468-39.549,20.239-53.353,7.55" transform="translate(-210.425 -200.21)" fill="#ced372"/>
            </g>
          </g>
        </g>
        <g id="Grupo_169769" data-name="Grupo 169769" transform="translate(204.029 236.244)" opacity="0.67" style="mix-blend-mode: multiply;isolation: isolate">
          <g id="Grupo_169768" data-name="Grupo 169768">
            <g id="Grupo_169767" data-name="Grupo 169767" clip-path="url(#clip-path-17)">
              <path id="Trazado_209558" data-name="Trazado 209558" d="M202.009,233.731c3.539,7.172,11.206,11.054,18.36,13.768,16.17,5.866,30.292,1.14,45.532-4.853,7.382-2.69,15.1-5.209,23.048-5.034-7.923.293-15.439,2.959-22.749,5.825-15.268,6.35-29.8,11.112-46.118,4.853-7.166-2.9-14.921-7.116-18.073-14.56" transform="translate(-202.009 -233.731)" fill="#ced372"/>
            </g>
          </g>
        </g>
        <g id="Grupo_169772" data-name="Grupo 169772" transform="translate(167.175 193.133)" opacity="0.67" style="mix-blend-mode: multiply;isolation: isolate">
          <g id="Grupo_169771" data-name="Grupo 169771">
            <g id="Grupo_169770" data-name="Grupo 169770" clip-path="url(#clip-path-18)">
              <path id="Trazado_209559" data-name="Trazado 209559" d="M170.124,191.079c-1.8,2.978-3.762,6.085-3.883,9.63-.11,3.236,1.955,7.008,5.506,7.068,2.252-.006,4.721-.682,7.03-.593,4.722-.006,9.571.149,14.186,1.49,4.753,1.778,9.258,2.265,12.5-2.356a8.325,8.325,0,0,1-9.271,4.048,53.916,53.916,0,0,0-10.368-1.946,85.308,85.308,0,0,0-14.132.356c-4.054-.094-6.47-4.393-6.145-8.1.257-3.664,2.472-6.777,4.574-9.6" transform="translate(-165.52 -191.079)" fill="#ced372"/>
            </g>
          </g>
        </g>
        <g id="Grupo_169775" data-name="Grupo 169775" transform="translate(288.033 198.462)" opacity="0.67" style="mix-blend-mode: multiply;isolation: isolate">
          <g id="Grupo_169774" data-name="Grupo 169774">
            <g id="Grupo_169773" data-name="Grupo 169773" clip-path="url(#clip-path-19)">
              <path id="Trazado_209560" data-name="Trazado 209560" d="M285.373,196.351c-.426,1.689.875,3.241,2.329,3.872a8.935,8.935,0,0,0,4.824.227,24.373,24.373,0,0,1,10.26.372c4.8,1.228,9.636,4.231,14.423,1.9a5.886,5.886,0,0,0,3.127-3.673,5.906,5.906,0,0,1-2.86,4.141c-4.738,2.822-10.343-.082-14.963-1.308a26.61,26.61,0,0,0-9.891-.6,9.456,9.456,0,0,1-5.157-.584c-1.489-.817-2.784-2.647-2.091-4.352" transform="translate(-285.181 -196.351)" fill="#ced372"/>
            </g>
          </g>
        </g>
        <path id="Trazado_209561" data-name="Trazado 209561" d="M267.235,37.5c.03.278.061.555.094.83a4.368,4.368,0,0,1,5.145-.753,6.39,6.39,0,0,1,2.619,3.468,12.251,12.251,0,0,1-.139,7.96,10.363,10.363,0,0,1-.73,1.774c-1.391,2.564-4.351,3.561-7.1,3.921a28.951,28.951,0,0,1-1.069,10.147c-2.153,7.306-7.617,11.464-14.575,14.034-10.044,3.71-22.038-.742-27.642-9.814-2.466-3.994-2.333-7.675-3.229-12.023-.8-3.882-4.161-1.808-6.736-4.46a7.68,7.68,0,0,1-1.8-4.712,10.319,10.319,0,0,1,.855-5.683,5.594,5.594,0,0,1,4.562-3.165,4.172,4.172,0,0,1,4.021,2.951c-1.444-4.481,1.035-11.793,3.521-15.482,3.59-5.327,8.026-7.718,14.259-8.786,7.729-1.324,18.166-2.141,23.72,4.657,3.451,4.224,3.662,9.926,4.226,15.138" transform="translate(2.12 0.181)" fill="#e59ec5"/>
        <g id="Grupo_169778" data-name="Grupo 169778" transform="translate(245.172 49.136)" style="mix-blend-mode: multiply;isolation: isolate">
          <g id="Grupo_169777" data-name="Grupo 169777">
            <g id="Grupo_169776" data-name="Grupo 169776" clip-path="url(#clip-path-20)">
              <path id="Trazado_209562" data-name="Trazado 209562" d="M244.325,48.613c.825,2.024.184,4.432-.369,6.366a3.708,3.708,0,0,0,.217,2.694,1.765,1.765,0,0,0,2.437.621c-.653,1.073-2.4.846-3.129-.113-1.585-2-.2-4.48.355-6.47a16.888,16.888,0,0,0,.489-3.1" transform="translate(-242.745 -48.613)" fill="#e59ec5"/>
            </g>
          </g>
        </g>
        <g id="Grupo_169781" data-name="Grupo 169781" transform="translate(242.798 64.205)" style="mix-blend-mode: multiply;isolation: isolate">
          <g id="Grupo_169780" data-name="Grupo 169780">
            <g id="Grupo_169779" data-name="Grupo 169779" clip-path="url(#clip-path-21)">
              <path id="Trazado_209563" data-name="Trazado 209563" d="M240.394,64.664a9.753,9.753,0,0,1,9.148-.006c-3.183-.015-5.965-.012-9.148.006" transform="translate(-240.394 -63.522)" fill="#e59ec5"/>
            </g>
          </g>
        </g>
        <path id="Trazado_209564" data-name="Trazado 209564" d="M257.288,44.774c0,1.238-.632,2.242-1.412,2.242s-1.412-1-1.412-2.242.632-2.242,1.412-2.242,1.412,1,1.412,2.242" transform="translate(2.545 0.457)" fill="#483b5e"/>
        <path id="Trazado_209565" data-name="Trazado 209565" d="M235.116,44.773c0,1.2-.632,2.177-1.412,2.177s-1.412-.974-1.412-2.177.632-2.178,1.412-2.178,1.412.975,1.412,2.178" transform="translate(2.323 0.458)" fill="#483b5e"/>
        <path id="Trazado_209566" data-name="Trazado 209566" d="M251.427,34.2a6.925,6.925,0,0,1,7.127,4.733,25.233,25.233,0,0,0-7.127-4.733" transform="translate(2.514 0.367)" fill="#483b5e"/>
        <g id="Grupo_169784" data-name="Grupo 169784" transform="translate(214.1 16.66)" opacity="0.18" style="mix-blend-mode: multiply;isolation: isolate">
          <g id="Grupo_169783" data-name="Grupo 169783">
            <g id="Grupo_169782" data-name="Grupo 169782" clip-path="url(#clip-path-22)">
              <path id="Trazado_209567" data-name="Trazado 209567" d="M251.507,26.555a19.948,19.948,0,0,1-9.23,11.471c-3.049,1.759-6.45,2.852-9.456,4.683-9,5.479-8.375,19.04-2.286,26.557a20.231,20.231,0,0,0,27.2,3.7,29.418,29.418,0,0,0,8.681-10.546,16.3,16.3,0,0,0-.485,2.623,15.185,15.185,0,0,1-1.185,2.972,21.252,21.252,0,0,1-3.439,4.9,26.655,26.655,0,0,1-9.852,5.972c-10.044,3.71-22.038-.743-27.642-9.814-2.466-3.994-2.333-7.675-3.229-12.024-.8-3.881-4.161-1.808-6.736-4.459a7.682,7.682,0,0,1-1.8-4.712,10.309,10.309,0,0,1,.855-5.683,5.594,5.594,0,0,1,4.562-3.165,4.172,4.172,0,0,1,4.021,2.951c-1.444-4.481,1.035-11.793,3.521-15.482a19.529,19.529,0,0,1,10.738-7.977c5.307-1.6,10.276-3.283,15.675-.693a2.679,2.679,0,0,1,1.341,1.106,2.608,2.608,0,0,1,.123,1.49,33.526,33.526,0,0,1-1.379,6.135" transform="translate(-211.98 -16.483)" fill="#bd80e8"/>
            </g>
          </g>
        </g>
        <g id="Grupo_169787" data-name="Grupo 169787" transform="translate(243.085 49.659)" opacity="0.29" style="mix-blend-mode: multiply;isolation: isolate">
          <g id="Grupo_169786" data-name="Grupo 169786">
            <g id="Grupo_169785" data-name="Grupo 169785" clip-path="url(#clip-path-23)">
              <path id="Trazado_209568" data-name="Trazado 209568" d="M243.081,51.4a22.685,22.685,0,0,0-1.759,2.452,5.583,5.583,0,0,0-.616,3.143,3.26,3.26,0,0,0,1.316,2.479,3.419,3.419,0,0,0,2.148.394,2.407,2.407,0,0,0,2.132-1.217,2.375,2.375,0,0,1-2.76-.7,3.7,3.7,0,0,1-.362-3.178,23.935,23.935,0,0,0,.889-3.186A9.933,9.933,0,0,0,244.1,50.2c-.008-.357-.013-.715-.032-1.069a5.05,5.05,0,0,1-.988,2.265" transform="translate(-240.678 -49.131)" fill="#e59ec5"/>
            </g>
          </g>
        </g>
        <g id="Grupo_169790" data-name="Grupo 169790" transform="translate(245.875 52.274)" opacity="0.18" style="mix-blend-mode: multiply;isolation: isolate">
          <g id="Grupo_169789" data-name="Grupo 169789">
            <g id="Grupo_169788" data-name="Grupo 169788" clip-path="url(#clip-path-24)">
              <path id="Trazado_209569" data-name="Trazado 209569" d="M243.83,54.155a4.506,4.506,0,0,0-.386,1.764,3.228,3.228,0,0,0,.763,1.771,1.738,1.738,0,0,0,.916.684,1.384,1.384,0,0,0,1.482-.984,3.652,3.652,0,0,0-.022-1.924,25.331,25.331,0,0,0-.74-2.774c-.832-2.525-1.681.557-2.012,1.464" transform="translate(-243.441 -51.718)" fill="#bd80e8"/>
            </g>
          </g>
        </g>
        <g id="Grupo_169793" data-name="Grupo 169793" transform="translate(229.889 48.843)" opacity="0.18" style="mix-blend-mode: multiply;isolation: isolate">
          <g id="Grupo_169792" data-name="Grupo 169792">
            <g id="Grupo_169791" data-name="Grupo 169791" clip-path="url(#clip-path-25)">
              <path id="Trazado_209570" data-name="Trazado 209570" d="M231.81,50.211a7.165,7.165,0,0,0,3.353-1.236c.663-.428,1.525-.93,2.163-.468a1.58,1.58,0,0,1,.524,1.007,5.545,5.545,0,0,1-2.665,5.766,3.891,3.891,0,0,1-1.259.462,4.571,4.571,0,0,1-1.9-.157,6.615,6.615,0,0,1-2.934-1.58c-.778-.756-2.125-2.978-1.12-4.035.869-.914,2.742.313,3.838.241" transform="translate(-227.613 -48.323)" fill="#bd80e8"/>
            </g>
          </g>
        </g>
        <g id="Grupo_169796" data-name="Grupo 169796" transform="translate(253.048 48.716)" opacity="0.18" style="mix-blend-mode: multiply;isolation: isolate">
          <g id="Grupo_169795" data-name="Grupo 169795">
            <g id="Grupo_169794" data-name="Grupo 169794" clip-path="url(#clip-path-26)">
              <path id="Trazado_209571" data-name="Trazado 209571" d="M254.19,49.408a6.358,6.358,0,0,0,3.093-.506,3.176,3.176,0,0,1,2.441-.383,1.793,1.793,0,0,1,.916,1.633,4.6,4.6,0,0,1-.518,1.892,8.429,8.429,0,0,1-1.673,2.6,3.753,3.753,0,0,1-2.786,1.159,4.849,4.849,0,0,1-1.635-.475,6.221,6.221,0,0,1-2.115-1.4,5.851,5.851,0,0,1-1.3-3.066c-.11-.68-.194-2.41.73-2.651.627-.165,2.025,1.1,2.851,1.195" transform="translate(-250.543 -48.198)" fill="#bd80e8"/>
            </g>
          </g>
        </g>
        <g id="Grupo_169799" data-name="Grupo 169799" transform="translate(269.119 42.245)" opacity="0.18" style="mix-blend-mode: multiply;isolation: isolate">
          <g id="Grupo_169798" data-name="Grupo 169798">
            <g id="Grupo_169797" data-name="Grupo 169797" clip-path="url(#clip-path-27)">
              <path id="Trazado_209572" data-name="Trazado 209572" d="M268.463,48.977a3.119,3.119,0,0,1,2.814.074A5.614,5.614,0,0,0,268.4,41.8c.33,1.63-.472,3.248-1.132,4.776-.52,1.2-1.228,3.064-.518,4.3a4.327,4.327,0,0,1,1.709-1.9" transform="translate(-266.454 -41.796)" fill="#bd80e8"/>
            </g>
          </g>
        </g>
        <path id="Trazado_209573" data-name="Trazado 209573" d="M211.266,34.532c-2.231,4.886-2.549,12.987-2.8,15.033a108.439,108.439,0,0,1-8.353,30.56c-3.5,7.957-7.954,15.489-10.99,23.632s-4.591,17.214-2.047,25.525a40.023,40.023,0,0,0,5.019,10.112c4.83,7.354,11.908,14.281,20.689,14.76,3.272.178,7.077-.991,8.231-4.06,1.519-4.037-2.438-8.557-1.108-12.66,1.3-4.015,6.6-4.962,9.4-8.115,2.774-3.124,2.615-7.964,1.1-11.859s-4.144-7.245-6.021-10.979c-4.3-8.549-2.424-21.808-2.366-31.125.069-11.237.173-22.507-1.129-33.688-.338-2.908.324-8.671-2.756-10.263-3.34-1.725-5.482.073-6.877,3.128" transform="translate(1.858 0.33)" fill="#604089"/>
        <g id="Grupo_169802" data-name="Grupo 169802" transform="translate(187.55 29.571)" opacity="0.17" style="mix-blend-mode: multiply;isolation: isolate">
          <g id="Grupo_169801" data-name="Grupo 169801">
            <g id="Grupo_169800" data-name="Grupo 169800" clip-path="url(#clip-path-28)">
              <path id="Trazado_209574" data-name="Trazado 209574" d="M211.212,34.664c-2.039,4.689-2.233,9.886-2.852,15.009a108.439,108.439,0,0,1-8.353,30.56c-3.5,7.957-7.953,15.489-10.99,23.632s-4.591,17.214-2.047,25.526a39.986,39.986,0,0,0,5.02,10.111,41.352,41.352,0,0,0,10.781,11.123,18.017,18.017,0,0,0,9.9,3.432A2.865,2.865,0,0,0,215.3,153a.566.566,0,0,0,.078-.476c-.457-1.118-4.713-1.307-5.787-1.752a23.185,23.185,0,0,1-5.966-3.72,19.845,19.845,0,0,1-6.82-11.005,5.738,5.738,0,0,1,0-2.924c1.012-3.068,3.8-.929,5.916-1.24,1.591-.235,2.517-2.065,2.4-3.67a12.625,12.625,0,0,0-1.677-4.49,34.867,34.867,0,0,1-3.252-15.223,76.07,76.07,0,0,1,3.544-21.671c1.034-3.536,2.2-7.031,3.373-10.524.588-1.75,1.177-3.5,1.752-5.252.525-1.6.752-3.232,1.4-4.79.086-.208.176-.415.27-.62.305-.665.924-1.424,1.606-1.159a1.561,1.561,0,0,1,.741,1.037,6.326,6.326,0,0,0,1.368,2.516,4.165,4.165,0,0,0,5.41-.134c2.1-1.783,1.809-4.043,2.36-6.4.689-2.943,1.579-5.774,2-8.785A37.45,37.45,0,0,0,222.632,35.3a10.682,10.682,0,0,0-2.829-4.73c-3.969-3.425-7.05.556-8.591,4.1" transform="translate(-185.693 -29.256)" fill="#604089"/>
            </g>
          </g>
        </g>
        <path id="Trazado_209575" data-name="Trazado 209575" d="M271.675,39.232a13.1,13.1,0,0,1-.63-2.639,2.672,2.672,0,0,1,1.053-2.472A10.126,10.126,0,0,0,275.678,37c1.083.521,2.634.719,3.268-.3a2.147,2.147,0,0,0,.205-1.46c-.418-2.695-3.025-5.119-4.039-7.624a38.42,38.42,0,0,0-5.989-10.275,22.049,22.049,0,0,0-4.846-4.494A15.772,15.772,0,0,0,253.4,10.505c-3.359.515-7.62-2.111-11.321-2-4.348.129-8.558,1.805-12.481,3.552-10.223,4.554-20.519,16.917-21.881,28.278-.214,1.783-.168,3.6-.536,5.356-.632,3.018-2.446,5.672-3.2,8.663a4.193,4.193,0,0,0,.028,2.7c.873,1.975,3.846,1.924,5.616.687s2.895-3.215,4.591-4.55a1.358,1.358,0,0,1,.8-.363c.586,0,.923.652,1.113,1.206a30.316,30.316,0,0,1,1.371,5.853c.255,1.941.961,4.521,2.915,4.437a3.1,3.1,0,0,0,2.286-1.692c2.355-3.843,1.251-8.867,2.636-13.157,1.486-4.6,5.645-7.811,9.891-10.123,7.044-3.836,15.529-6.05,17.181-14.858.6-3.2-.894-6.182-.6-9.1a28.535,28.535,0,0,0,1.566,12.286c1.2,3.365,3.782,5,6.458,7.1,3.393,2.658,3.788,7.046,2.845,11.225a4.151,4.151,0,0,0-.157,2.041c.191.663.957,1.213,1.571.9a1.753,1.753,0,0,0,.687-.917l1.033-2.324a1.045,1.045,0,0,1,.269-.411c.463-.369,1.115.281,1.125.872a10.663,10.663,0,0,0-.174,1.756,1.745,1.745,0,0,0,2.421.995,3.943,3.943,0,0,0,1.83-2.3,11.774,11.774,0,0,0,.4-7.272c-.009-.034-.019-.068-.028-.1" transform="translate(2.038 0.091)" fill="#604089"/>
        <g id="Grupo_169805" data-name="Grupo 169805" transform="translate(205.942 9.067)" opacity="0.19" style="mix-blend-mode: multiply;isolation: isolate">
          <g id="Grupo_169804" data-name="Grupo 169804">
            <g id="Grupo_169803" data-name="Grupo 169803" clip-path="url(#clip-path-29)">
              <path id="Trazado_209576" data-name="Trazado 209576" d="M241.449,13.156c.886-.734,1.961-1.317,2.8-2.079a1.01,1.01,0,0,0,.29-1.275,1.217,1.217,0,0,0-.632-.372c-3.215-1.038-6.716-.144-9.9,1a18.859,18.859,0,0,1-2.078.789c-8.35,1.925-22.335,15.147-23.9,28.215a37.97,37.97,0,0,1-.877,5.883,29.235,29.235,0,0,1-1.435,4.732,19.553,19.553,0,0,0-1.689,4.519,3.011,3.011,0,0,0,.443,2.794,2.082,2.082,0,0,0,1.982.407,4.531,4.531,0,0,0,1.789-1.1c2.254-2.052,3.574-4.9,5.134-7.522s3.6-5.214,6.51-6.122a3.149,3.149,0,0,1-.546,1.843,8.643,8.643,0,0,0-1.108,6.177.943.943,0,0,0,.335.567c.355.23.813-.04,1.134-.315,2.768-2.375,4.5-5.71,6.8-8.544a26.489,26.489,0,0,1,8.906-7.084,6.412,6.412,0,0,1,2.906-.824c-.381.434-.78,1.057-.457,1.536s1.035.345,1.574.158c2.964-1.033,5.905-2.018,8.109-4.339a11.755,11.755,0,0,0,3.254-7.167,3.345,3.345,0,0,0-.712-2.746,10.891,10.891,0,0,1-7.549,6.011,1.713,1.713,0,0,1-.878.016.659.659,0,0,1-.485-.658.984.984,0,0,1,.248-.457c3.207-3.975,6.771-8.585,7.485-13.806a8.492,8.492,0,0,0-3.163,2.761,27,27,0,0,1-11.442,7.8,3.3,3.3,0,0,1-1.488.26,1.224,1.224,0,0,1-1.09-.914,1.758,1.758,0,0,1,.368-1.161c2.243-3.615,6.093-6.286,9.351-8.982" transform="translate(-203.903 -8.971)" fill="#604089"/>
            </g>
          </g>
        </g>
        <g id="Grupo_169808" data-name="Grupo 169808" transform="translate(255.24 15.391)" opacity="0.19" style="mix-blend-mode: multiply;isolation: isolate">
          <g id="Grupo_169807" data-name="Grupo 169807">
            <g id="Grupo_169806" data-name="Grupo 169806" clip-path="url(#clip-path-30)">
              <path id="Trazado_209577" data-name="Trazado 209577" d="M257.742,32.378c2.611,1.991,5.458,4.079,6.491,7.2,1.026-.937.872-2.616.312-3.887s-1.444-2.429-1.675-3.8c-.085-.506.053-1.188.562-1.254a1.056,1.056,0,0,1,.78.356c1.39,1.227,2.514,2.768,4.068,3.779a1.163,1.163,0,0,0,.953.25c1.011-.335-.052-2.223.792-2.874.91.355,1.117.246,1.86,1.068s1.281,1.8,2.1,2.565c1.077,1.007,2.773,1.621,4.02.835-1.571-1.733-2.526-3.733-3.891-5.582-1.448-1.963-3.284-3.625-4.644-5.65a15.012,15.012,0,0,1-2.5-7.227c1.292,1.679,2.755,3.47,4.825,3.917a21.951,21.951,0,0,0-6.917-6.842c-.947.753-.636,2.239-.236,3.382l3.815,10.908a7.214,7.214,0,0,1-5.326-2.053,9.19,9.19,0,0,0-1.776-1.649,1.7,1.7,0,0,0-2.2.268c-.765,1.11.5,3.151-.7,3.77-.611.317-1.333-.128-1.84-.594-1.607-1.476-2.35-3.505-3.562-5.108-1.52,3.492,2.259,6.381,4.679,8.227" transform="translate(-252.713 -15.227)" fill="#604089"/>
            </g>
          </g>
        </g>
        <path id="Trazado_209578" data-name="Trazado 209578" d="M254.875,53.52a4.06,4.06,0,0,0-.428,2.735,1.548,1.548,0,0,0,2.333,1.008c1.664-1.284-.293-4.686-.861-6.085a10.533,10.533,0,0,1-1.044,2.342" transform="translate(2.544 0.55)" fill="#c5dbff"/>
        <g id="Grupo_169811" data-name="Grupo 169811" transform="translate(212.259 14.155)" opacity="0.19" style="mix-blend-mode: multiply;isolation: isolate">
          <g id="Grupo_169810" data-name="Grupo 169810">
            <g id="Grupo_169809" data-name="Grupo 169809" clip-path="url(#clip-path-31)">
              <path id="Trazado_209579" data-name="Trazado 209579" d="M229.362,14a42.979,42.979,0,0,0-19.205,29.864A38.139,38.139,0,0,1,229.362,14" transform="translate(-210.157 -14.004)" fill="#8d68af"/>
            </g>
          </g>
        </g>
        <g id="Grupo_169814" data-name="Grupo 169814" transform="translate(210.762 14.442)" opacity="0.19" style="mix-blend-mode: multiply;isolation: isolate">
          <g id="Grupo_169813" data-name="Grupo 169813">
            <g id="Grupo_169812" data-name="Grupo 169812" clip-path="url(#clip-path-32)">
              <path id="Trazado_209580" data-name="Trazado 209580" d="M239.2,14.288c-3.232,2.888-7.234,4.755-10.678,7.164-9.042,6.313-10.944,17.827-15.99,27a27.774,27.774,0,0,1-3.861,5.208c6.494-9.34,6.872-21.991,15.271-30.166,4.177-4.44,10.3-5.922,15.258-9.21" transform="translate(-208.675 -14.288)" fill="#8d68af"/>
            </g>
          </g>
        </g>
        <g id="Grupo_169817" data-name="Grupo 169817" transform="translate(193.825 60.349)" opacity="0.19" style="mix-blend-mode: multiply;isolation: isolate">
          <g id="Grupo_169816" data-name="Grupo 169816">
            <g id="Grupo_169815" data-name="Grupo 169815" clip-path="url(#clip-path-33)">
              <path id="Trazado_209581" data-name="Trazado 209581" d="M210.565,59.707c-4.192,17.358-13.835,33.249-16.419,50.995-2.03,12.885.7,27.594,10.945,36.427,2.918,2.872,8.56,5.5,11.436,1.263-2.674,4.642-8.8,2.118-11.947-.638-10.966-8.711-14.177-23.98-12.063-37.292,2.7-18.056,12.585-33.6,18.048-50.755" transform="translate(-191.906 -59.707)" fill="#8d68af"/>
            </g>
          </g>
        </g>
        <g id="Grupo_169820" data-name="Grupo 169820" transform="translate(205.509 61.06)" opacity="0.19" style="mix-blend-mode: multiply;isolation: isolate">
          <g id="Grupo_169819" data-name="Grupo 169819">
            <g id="Grupo_169818" data-name="Grupo 169818" clip-path="url(#clip-path-34)">
              <path id="Trazado_209582" data-name="Trazado 209582" d="M215.468,60.41c-3.958,12.789-7.931,25.631-10.174,38.846-1.7,9.628-2.788,20.669,3.521,28.886a11.282,11.282,0,0,0,3.727,3.247,5.671,5.671,0,0,0,4.816.433,5.739,5.739,0,0,1-4.876-.312c-4.563-2.373-6.954-7.5-8.17-12.283-1.573-6.605-.641-13.466.441-20.062,2.3-13.239,6.342-26.081,10.715-38.754" transform="translate(-203.474 -60.41)" fill="#8d68af"/>
            </g>
          </g>
        </g>
        <path id="Trazado_209583" data-name="Trazado 209583" d="M353.675,101.51c-12.488,19.6-48.02,46.279-66.654,54.724q-7.527,3.411-15.339,6.139c-2.693.939-5.412,1.781-8.134,2.627-2.027.631-4.068,2.068-6.139,2.357a5.355,5.355,0,0,0-1.2.208,3.551,3.551,0,0,0-1.315,1.124c-3.008,3.536-5,7.081-9.1,9.656a59.513,59.513,0,0,1-12.029,5.318c-5.9,2.078-11.624,4.434-17.674,6.117a3.581,3.581,0,0,1-1.934.164,1.258,1.258,0,0,1-.943-1.482,1.848,1.848,0,0,1,1.066-.9c3.214-1.507,6.445-2.983,9.643-4.522,1.3-.627,2.673-1.076,3.96-1.735.861-.441,2.573-2.2,3.415-2.3-7.748.857-14.118,6.26-21.957,6.732-1.116.067-3-.521-1.8-1.989a3.624,3.624,0,0,1,1.817-.973,84.105,84.105,0,0,0,19.066-8.669c-5.847,1.532-11.35,3.947-17.205,5.476-1.158.3-8.887,1.284-6.564-1.787a3.991,3.991,0,0,1,2.292-1.166,108.342,108.342,0,0,0,11.8-3.714,57.355,57.355,0,0,0,5.673-2.544,22.092,22.092,0,0,0,2.245-1.368c.383-.26,1.471-1.53,1.736-1.61-3.237.966-6.58,2.128-9.88,2.827l-6.172,1.309c-2.278.483-4.677.961-6.9.265-.613-.192-1.279-.572-1.367-1.21-.135-.982,1.1-1.506,2.075-1.7a98.475,98.475,0,0,0,14.094-3.775,65.585,65.585,0,0,0,6.832-2.877,30.886,30.886,0,0,0,5-2.528c-1.147-1.144-3.106-.691-4.5-.342-2.495.627-4.824,1.812-7.455,1.168a7.605,7.605,0,0,1-2.769-1.2,3.913,3.913,0,0,1-1.595-2.5,2.659,2.659,0,0,1,1.144-2.631c3.526,2.388,7.933,1.951,11.553.1,3.568-1.828,7.409-4.25,11.583-3.055,3.5,1,5.905,4.232,9.759,4.065,18.2-.786,33.2-13.309,43.25-27.637q.221-.315.438-.632A98.266,98.266,0,0,0,303.6,108.224" transform="translate(2.041 1.092)" fill="#5c1171"/>
        <g id="Grupo_169823" data-name="Grupo 169823" transform="translate(206.46 0.029)" opacity="0.31" style="mix-blend-mode: multiply;isolation: isolate">
          <g id="Grupo_169822" data-name="Grupo 169822">
            <g id="Grupo_169821" data-name="Grupo 169821" clip-path="url(#clip-path-35)">
              <path id="Trazado_209584" data-name="Trazado 209584" d="M378.144.106c4.032,8.991,4.333,27.18.849,40.659-5.656,21.888-13.767,42.936-25.912,62-12.488,19.6-48.02,46.279-66.654,54.724q-7.528,3.411-15.34,6.139c-2.692.939-5.411,1.78-8.133,2.627-2.027.631-4.068,2.068-6.14,2.357a5.291,5.291,0,0,0-1.2.208,3.545,3.545,0,0,0-1.316,1.124c-3.007,3.536-5,7.081-9.1,9.655a59.485,59.485,0,0,1-12.029,5.319c-3.363,1.186-6.69,2.47-10.051,3.663-2.564.911-9.584,3.543-9.816,1.937a2.715,2.715,0,0,1,1.614-1.166c2.777-1.072,5.675-1.8,8.469-2.821a20.312,20.312,0,0,0,7.625-4.5c.457-.463.907-1.135.613-1.716-.632-1.249-4.877.758-5.839,1.072-2.5.82-4.9,1.929-7.324,2.941-3.129,1.306-7.536,3.443-10.962,2.2a.845.845,0,0,1-.388-.232c-.243-.3-.008-.78.342-.937a2.318,2.318,0,0,1,1.137-.065,9.467,9.467,0,0,0,4.626-.927c2.051-.923,3.9-2.036,5.965-2.916,2.319-.991,4.664-1.939,6.942-3.023,1.03-.491,2.232-1.288,2.08-2.42-.188-1.392-4.954.894-5.93,1.222q-3.38,1.136-6.792,2.177a28.364,28.364,0,0,1-8.648,1.628,3.547,3.547,0,0,1-2.369-.692c.12-.672.949-.9,1.625-1,7.449-1.1,14.853-3.271,21.162-7.385a4.838,4.838,0,0,0,1.549-1.392,1.8,1.8,0,0,0,.046-1.976c-.8-1.071-2.845.4-3.8.688-1.746.528-3.495,1.049-5.257,1.521a62.084,62.084,0,0,1-10.711,2.021,7.7,7.7,0,0,1-4.665-.664c1.071-1.22,2.795-1.571,4.385-1.888a108.765,108.765,0,0,0,16.337-4.607,19.22,19.22,0,0,0,5.315-2.672,2.763,2.763,0,0,0,1.229-1.823c.183-2.533-4.465-.632-5.54-.282-2.92.95-7.009,1.9-9.642-.4-.755-.659-.914-2.069-.049-2.576a2.646,2.646,0,0,1,2.109.118,14.573,14.573,0,0,0,8.406.122c3.03-.872,5.841-2.743,8.994-2.761,2.813-.017,8.35,4.107,10.984,5.1,6.221,2.34,10.259-.6,16.619-2.526a57.458,57.458,0,0,0,17.466-9.409c13.508-10.109,24.685-24.072,28.784-40.446,7.471-29.855,1.366-62.379-15.87-87.867-4.5-6.662-8.7-12.25-9.879-20.206Z" transform="translate(-204.416 -0.029)" fill="#452847"/>
            </g>
          </g>
        </g>
        <path id="Trazado_209585" data-name="Trazado 209585" d="M502.2.062C462.681,109.488,359.349,158.4,338.679,166.154c-5.692,2.135-18.125,6.5-21.878-.958a21.838,21.838,0,0,0-1.6-3.476c-1.071-1.432-2.916-2.028-4.667-2.385a14.366,14.366,0,0,1-5.1-1.557c.543,3.117,2.122,5.494-1.921,5.735-4.351.258-8.664.956-13.017,1.189-2.908.155-7.93-1.146-10.07,1.447a4.065,4.065,0,0,0-.732,3.729c.6,1.931,3.623,2.951,1.921,4.633-1.2,1.187-1.586,3.355-.373,4.528.577.557,1.436.838,1.819,1.542.781,1.437-1.029,3.161-.585,4.734.425,1.509,2.687,2.033,2.857,3.591.2,1.857-.533,2.613,1.13,3.971a9.629,9.629,0,0,0,4.193,1.622c3.583.661,7.387.082,10.947-.468a75.493,75.493,0,0,0,9.392-2.07,12.034,12.034,0,0,0,5.1-2.478,17.261,17.261,0,0,1,2.479-2.458,7.447,7.447,0,0,1,3.138-.838c7.134-.812,14.225-1.309,21.374-1.919,14.815-1.263,47.774-3.777,159.051-71.989" transform="translate(2.795 0.001)" fill="#5c1171"/>
        <g id="Grupo_169826" data-name="Grupo 169826" transform="translate(307.74 157.82)" opacity="0.31" style="mix-blend-mode: multiply;isolation: isolate">
          <g id="Grupo_169825" data-name="Grupo 169825">
            <g id="Grupo_169824" data-name="Grupo 169824" clip-path="url(#clip-path-36)">
              <path id="Trazado_209586" data-name="Trazado 209586" d="M307.007,157.446c.814,1.19,1.181,2.821-.021,3.661-.249.174-2.172.989-2.286.608a.256.256,0,0,1,.149-.274,2.5,2.5,0,0,1,.321-.107,1.172,1.172,0,0,0,.62-.921c.263-1.315-.3-2.638-.491-3.965a.317.317,0,0,1,.03-.241c.085-.11.261-.065.384,0a3.908,3.908,0,0,1,1.293,1.237" transform="translate(-304.693 -156.141)" fill="#452847"/>
            </g>
          </g>
        </g>
        <g id="Grupo_169829" data-name="Grupo 169829" transform="translate(285.228 165.947)" opacity="0.31" style="mix-blend-mode: multiply;isolation: isolate">
          <g id="Grupo_169828" data-name="Grupo 169828">
            <g id="Grupo_169827" data-name="Grupo 169827" clip-path="url(#clip-path-37)">
              <path id="Trazado_209587" data-name="Trazado 209587" d="M282.981,165.083a2.512,2.512,0,0,0,1.62,4.1,1.794,1.794,0,0,1,.464-1.714,3.84,3.84,0,0,0,.962-1.574,1.468,1.468,0,0,0-2.809-.8" transform="translate(-282.404 -164.181)" fill="#452847"/>
            </g>
          </g>
        </g>
        <g id="Grupo_169832" data-name="Grupo 169832" transform="translate(295.725 176.746)" opacity="0.31" style="mix-blend-mode: multiply;isolation: isolate">
          <g id="Grupo_169831" data-name="Grupo 169831">
            <g id="Grupo_169830" data-name="Grupo 169830" clip-path="url(#clip-path-38)">
              <path id="Trazado_209588" data-name="Trazado 209588" d="M303.579,174.865a3.1,3.1,0,0,1-1.167,2.537,5.429,5.429,0,0,1-2.642,1.1c-2.122.347-5.769-.109-6.973-2.1,3.234-1.125,7.358-1.1,10.782-1.537" transform="translate(-292.797 -174.865)" fill="#452847"/>
            </g>
          </g>
        </g>
        <g id="Grupo_169835" data-name="Grupo 169835" transform="translate(300.093 186.513)" opacity="0.31" style="mix-blend-mode: multiply;isolation: isolate">
          <g id="Grupo_169834" data-name="Grupo 169834">
            <g id="Grupo_169833" data-name="Grupo 169833" clip-path="url(#clip-path-39)">
              <path id="Trazado_209589" data-name="Trazado 209589" d="M305.159,184.634c-1.124.068-2.617,1.387-3.94,1.554-1.275.161-3.144.185-4.1-.67.748-1.558,6.365-.782,8.037-.883" transform="translate(-297.122 -184.529)" fill="#452847"/>
            </g>
          </g>
        </g>
        <g id="Grupo_169838" data-name="Grupo 169838" transform="translate(282.195 102.602)" opacity="0.31" style="mix-blend-mode: multiply;isolation: isolate">
          <g id="Grupo_169837" data-name="Grupo 169837">
            <g id="Grupo_169836" data-name="Grupo 169836" clip-path="url(#clip-path-40)">
              <path id="Trazado_209590" data-name="Trazado 209590" d="M342.9,183.178a126.969,126.969,0,0,0,27.442-4.975c4.438-1.4,88.646-36.728,131.8-67.015,0,0,.042-9.709,0-9.679-50.2,33.282-135.217,70.735-144.491,73.375a212.688,212.688,0,0,1-21.586,5.335,85.16,85.16,0,0,1-10.976,1.241c-3,.127-5.8-.632-7.819,1.982a19.844,19.844,0,0,1-10.828,6.863,56.54,56.54,0,0,1-12.151,1.789,13.431,13.431,0,0,1-6.849-1.315,2.553,2.553,0,0,1-1.4-2.241,9.821,9.821,0,0,0,.132-1.078c-.063-1.242-1.657-1.8-2.186-2.921a4.145,4.145,0,0,1,.2-2.891,3.087,3.087,0,0,0-.167-2.838c-.549-.66-1.574-.831-2.009-1.572a2.483,2.483,0,0,1,.309-2.376,3.975,3.975,0,0,0,.791-2.335c-.145-1.081-1.227-1.73-1.977-2.523a4.876,4.876,0,0,1-1.317-3.415,1.871,1.871,0,0,0-.071,2.26,17.181,17.181,0,0,0,1.593,1.847,2.348,2.348,0,0,1,.579,2.255,6.477,6.477,0,0,1-.945,1.254,2.778,2.778,0,0,0,.256,3.47c.619.63,1.565.98,1.912,1.794.628,1.474-1.2,3.1-.725,4.624.43,1.377,2.455,1.754,2.845,3.141a14.809,14.809,0,0,1,0,2.158c.4,3.185,4.51,3.946,7.025,4.171a27.841,27.841,0,0,0,9.143-.622c3.111-.783,6.309-1.182,9.392-2.07a12.036,12.036,0,0,0,5.1-2.478,17.33,17.33,0,0,1,2.48-2.459,7.439,7.439,0,0,1,3.138-.837c7.133-.812,14.225-1.309,21.374-1.919" transform="translate(-279.401 -101.51)" fill="#452847"/>
            </g>
          </g>
        </g>
        <path id="Trazado_209591" data-name="Trazado 209591" d="M358.289,272.733c-3.919-16.65-18.506-31.8-34.919-36.607a16.525,16.525,0,0,0-5.258-.829,27.579,27.579,0,0,0-4.841.876c-4.728,1.046-10.09,1.085-14.577-.943-1.552-.7-4.519-2.19-5.367-3.741-1.17-2.136.431-2.33.186-4.451-.124-1.073-1.676-1.558-1.751-2.636-.086-1.225,1.756-1.8,1.921-3.013.194-1.43-1.978-2.155-2.169-3.586-.237-1.778,2.686-2.9,2.261-4.642-.2-.826-1.078-1.266-1.622-1.919-1.448-1.74-.033-4.612,2.077-5.431,6.059-2.349,12.714,3.544,19.285,1.991,1.314-.31,2.788-.77,3.932-.056a4.447,4.447,0,0,1,1.544,2.43l1.861,5.182c.466,1.3.913,2.808.193,3.98-.474.772.38.56,1.264.75,10.639,2.288,21.57,2.864,32.3,4.66s51.579,14.274,64.64,48.045l-33.89-.06Z" transform="translate(2.915 2.207)" fill="#5c1171"/>
        <g id="Grupo_169841" data-name="Grupo 169841" transform="translate(294.734 224.437)" opacity="0.31" style="mix-blend-mode: multiply;isolation: isolate">
          <g id="Grupo_169840" data-name="Grupo 169840">
            <g id="Grupo_169839" data-name="Grupo 169839" clip-path="url(#clip-path-41)">
              <path id="Trazado_209592" data-name="Trazado 209592" d="M358.286,272.552s-1.5-5.6-2.26-7.383a50.056,50.056,0,0,0-8.148-12.722c-6.415-7.551-14.9-13.769-24.447-16.569a16.525,16.525,0,0,0-5.257-.83,27.674,27.674,0,0,0-4.841.877c-4.728,1.045-10.091,1.084-14.578-.943-.883-.4-1.776-.772-2.636-1.217a6.539,6.539,0,0,1-1.273-.955,10.523,10.523,0,0,1-1.3-1.134,2.629,2.629,0,0,1-.678-1.808c.078-1.2,1.126-2.414.451-3.618-.367-.655-1.211-.983-1.444-1.7a1.171,1.171,0,0,1,.047-.844,2.314,2.314,0,0,1,.518-.652,8.184,8.184,0,0,1,1.044-1.008c.181.162.108.856.146,1.117a6.914,6.914,0,0,0,.255,1.088,7.964,7.964,0,0,0,.991,2.016,9.7,9.7,0,0,0,3.371,3.047,18.535,18.535,0,0,0,8.855,1.822c5.36.032,10.711-.839,16.062-.538,14.216.8,26.976,9.981,35.143,21.653a45.612,45.612,0,0,1,5.667,12.243,32.653,32.653,0,0,1,1.49,8.054Z" transform="translate(-291.816 -222.049)" fill="#452847"/>
            </g>
          </g>
        </g>
        <path id="Trazado_209593" data-name="Trazado 209593" d="M0,73.967c28.044,88.161,123.741,139.865,134.237,145.259,5.08,2.61,10.3,5.143,15.864,6.538,6,1.5,10.52.573,16.228-1.354,1.607-.543,3.4-1.388,4.122-3.016a17.662,17.662,0,0,1,1.383-3.261,6.089,6.089,0,0,1,2.354-1.825,12.9,12.9,0,0,1,3.274-1.087.931.931,0,0,1,.749.079.816.816,0,0,1,.247.43c.28.949.047,2.129,1.121,2.5.856.3,2.36-.05,3.244-.1,4.825-.294,9.589,1,14.248,2.291a7.9,7.9,0,0,1,3.07,1.342,2.707,2.707,0,0,1,.942,3.006c-.334.766-1.124,1.261-1.454,2.03-.443,1.033.057,2.2.376,3.276.521,1.759-.421,4.743-.351,6.726.058,1.618-1.771,2.731-2.032,4.329-.134.815.162,1.653.036,2.468-.288,1.864-4.886,2.461-6.379,2.61-3.678.367-7.18-.366-10.806-.65-2-.157-4.158-.373-5.684-1.684a13.751,13.751,0,0,0-1.346-1.2,3.8,3.8,0,0,0-3.045-.333c-3,.813-5.892,2.53-8.925,3.458a83.713,83.713,0,0,1-10.686,2.628c-78.6,13.1-131.572-46.472-150.732-65.861" transform="translate(0 0.795)" fill="#5c1171"/>
        <g id="Grupo_169844" data-name="Grupo 169844" transform="translate(0 159.668)" opacity="0.31" style="mix-blend-mode: multiply;isolation: isolate">
          <g id="Grupo_169843" data-name="Grupo 169843">
            <g id="Grupo_169842" data-name="Grupo 169842" clip-path="url(#clip-path-42)">
              <path id="Trazado_209594" data-name="Trazado 209594" d="M147.626,248.023c-14.88,2.45-74.973,12.6-147.571-66.363L0,157.969c83.743,85.074,131.649,76.839,141.906,78.729,10,1.844,22.253,2.989,31.406-2.286a2.974,2.974,0,0,1,1-.432c1.022-.156,1.843.794,2.413,1.659,1.643,2.493,7.124,3.881,9.969,4.793,3.173,1.017,7.189.871,9.182-1.8a23.891,23.891,0,0,1,1.56-2.331c1.5-1.582,2.083-1.257,2.1.364.01.743-1.72,2.341-1.92,3.561-.132.814.163,1.654.037,2.468-.288,1.864-4.187,2.394-5.681,2.544a39.694,39.694,0,0,1-8.256-.193c-2.706-.31-6.281-.328-8.547-2.014-.849-.632-1.578-1.532-2.615-1.737a7.8,7.8,0,0,0-3.287.438c-7.968,3.651-13.816,5-21.648,6.293" transform="translate(0 -157.969)" fill="#452847"/>
            </g>
          </g>
        </g>
        <path id="Trazado_209595" data-name="Trazado 209595" d="M86.591.19c-10.275,67.663,48.528,106.476,66.375,114.4s38.2,9.283,57.412,5.83a66.962,66.962,0,0,0,9.93-2.945c3.409-1.177,7.663-4.086,10.658-.9a15.631,15.631,0,0,0,14.841,4.352c1.49-.4,2.913-1,4.381-1.471,6.523-2.067,13.593-.215,20.362-1.163a1.8,1.8,0,0,0,.975-.343c.99-.884-.68-2.255-2-2.421-2.887-.364-5.8-.2-8.7-.315-2.346-.091-5.9-.175-7.956-1.422a.315.315,0,0,1,.1-.438.909.909,0,0,1,.488-.11,130.321,130.321,0,0,0,17.461-1.536c1.484-.256,3.421-1.5,2.581-2.752-.45-.67-1.414-.68-2.219-.618l-18.219,1.419,18.927-2.2a2.415,2.415,0,0,0,1.519-.547,1.668,1.668,0,0,0-.632-2.429,4.8,4.8,0,0,0-2.831-.3l-15.6,1.483c-1.166.11-2.89-.441-2.473-1.536a62.834,62.834,0,0,1,18.309-2.688,5.573,5.573,0,0,0,2.927-.505,1.821,1.821,0,0,0,.7-2.554,2.61,2.61,0,0,0-1.97-.641A116.949,116.949,0,0,0,250.853,99c-1.748.257-3.845.43-4.968-.937,2.389-3.1,7.17-2.763,10.561-4.722,1.6-.927,2.825-3.405,1.3-4.464a30.321,30.321,0,0,1-12.833,3.833c-1.844.123-3.8.105-5.381,1.066-2.347,1.427-2.825,4.245-5.325,5.466-5.523,2.7-12.717,2.747-18.707,1.976a46.586,46.586,0,0,1-18.4-6.545,44.477,44.477,0,0,1-19.812-27.755c-2.093-9.291-1.109-19.051,1.257-28.275,4.189-16.328,15.134-33.208,31.1-38.577h-96.9Z" transform="translate(0.854 0.001)" fill="#5c1171"/>
        <g id="Grupo_169847" data-name="Grupo 169847" transform="translate(86.194 0.191)" opacity="0.31" style="mix-blend-mode: multiply;isolation: isolate">
          <g id="Grupo_169846" data-name="Grupo 169846">
            <g id="Grupo_169845" data-name="Grupo 169845" clip-path="url(#clip-path-43)">
              <path id="Trazado_209596" data-name="Trazado 209596" d="M86.591.189c-10.531,68.177,48.387,106.6,66.234,114.526s38.2,9.283,57.413,5.83a66.829,66.829,0,0,0,9.929-2.946c3.409-1.177,7.664-4.086,10.659-.9a15.629,15.629,0,0,0,14.841,4.351c1.489-.394,2.912-1,4.38-1.47,6.524-2.068,13.594-.215,20.363-1.163.988-.138,1.57-.876.529-1.648a3.156,3.156,0,0,0-1.611-.474c-5.369-.51-10.857.579-16.141-.5a1.712,1.712,0,0,1-1.3-.744c-1.172-2.475,7.052-1.941,8.133-2.011a102.232,102.232,0,0,0,10.76-1.21c1.485-.256,3.421-1.5,2.582-2.752-.45-.671-1.415-.68-2.219-.618-6.074.473-12.1,1.454-18.22,1.419l18.928-2.2c.676-.078,2.539-.873,1.655-1.862-.328-.367-1.248-.245-1.74-.226-6.274.227-13.94,2.084-18.89,1.061a1.884,1.884,0,0,1-1.386-1.219c-1.024-2.835,16.408-3.779,18.654-3.774,1.419,0,2.321.1,3.445-.874a.778.778,0,0,0,.3-.425c.065-.384,0-1.2-1.339-1.6-7.244-2.164-18.574,2.317-28.07.9a2.334,2.334,0,0,1-1.164-.406,1.624,1.624,0,0,1-.231-2.008,3.774,3.774,0,0,1,1.664-1.385c4.04-2.04,9.167-1.8,12.616-4.731a2.163,2.163,0,0,0,.842-1.234c.273-1.774-1.788-.253-2.361.026a29.268,29.268,0,0,1-3.74,1.5,30.218,30.218,0,0,1-7.332,1.418c-1.845.123-3.8.105-5.382,1.066-2.346,1.427-3.149,20.144-41.214,8.7-31.756-9.548-33.4-45.087-31.347-60.355C169.075,25.537,186.807.189,200.485.189H86.591Z" transform="translate(-85.34 -0.189)" fill="#452847"/>
            </g>
          </g>
        </g>
        <path id="Trazado_209597" data-name="Trazado 209597" d="M178.444,157.45a17.838,17.838,0,0,0,1.792,6.62c2.116,4.254,5.383,7.023,8.542,10.37a1.78,1.78,0,0,1,.434.646c.248.762-.53,1.543-1.328,1.616-2.911.264-6.423-2.835-8.244-4.777-1.943-2.073-3.873-4.733-4.387-7.594,1.2,6.672,7.046,12.765,12.394,16.539a4.216,4.216,0,0,1,1.267,1.165,1.342,1.342,0,0,1-.075,1.607,1.868,1.868,0,0,1-1.568.3,16.2,16.2,0,0,1-13.547-11.323c2.159,6.821,7.358,9.4,11.82,14.449.616.7,1.177,1.758.6,2.493-.656.846-2,.318-2.895-.267-4.979-3.253-10.423-6.589-12.206-12.724a25.251,25.251,0,0,0,8.675,13.288,8.391,8.391,0,0,1,2.915,3.6,1.619,1.619,0,0,1,.065,1c-.86,2.568-7.336-2.891-8.4-3.736a16.029,16.029,0,0,1-2.7-2.592,19.5,19.5,0,0,1-2.383-4.472c-1.541-3.62-4.426-8.11-2.465-12.06a50.729,50.729,0,0,0,3-6.01c.584-1.743.573-3.583,1.229-5.312a20.7,20.7,0,0,1,3.3-4.905c1.21-1.587,2.58-3.28,4.526-3.716a21.561,21.561,0,0,0-.369,5.8" transform="translate(1.661 1.631)" fill="#5c1171"/>
        <g id="Grupo_169850" data-name="Grupo 169850" transform="translate(167.608 153.367)" opacity="0.31" style="mix-blend-mode: multiply;isolation: isolate">
          <g id="Grupo_169849" data-name="Grupo 169849">
            <g id="Grupo_169848" data-name="Grupo 169848" clip-path="url(#clip-path-44)">
              <path id="Trazado_209598" data-name="Trazado 209598" d="M178.3,157.531a17.819,17.819,0,0,0,1.792,6.62,25.805,25.805,0,0,0,4.2,5.874c.8.877,1.644,1.723,2.479,2.572.613.623,1.926,1.479,2.158,2.328-1.611.932-3.654.033-5.161-1.06a21.242,21.242,0,0,1-8.17-12.406c-2.314,2.712,1.4,8.517,3.029,10.82,2.394,3.834,6.293,6.646,9.6,9.593a1.008,1.008,0,0,1,.4.591c.052.5-.586.747-1.084.763a7.657,7.657,0,0,1-3.645-.92c-3.8-1.913-6.29-5.647-8.71-9.153-1.639-2.374-1.679.709-1.419,2a11.881,11.881,0,0,0,.836,2.544,18.44,18.44,0,0,0,2.715,4.4c2.3,2.684,5.3,4.634,8.144,6.67.219.157.465.408.351.651a.556.556,0,0,1-.453.245c-1.912.274-3.478-1.07-4.963-2.068a36.516,36.516,0,0,1-5.134-4.013,17.627,17.627,0,0,1-3-3.759c-.4-.69-1.112-3.765-1.929-3.761-.66,0-.83.917-.751,1.573a18.919,18.919,0,0,0,8.363,13.407c1.239.8,2.571,1.459,3.773,2.315a1.094,1.094,0,0,1,.523.653.773.773,0,0,1-.72.784,2.159,2.159,0,0,1-1.136-.29c-3.177-1.5-6.731-3.482-8.932-6.3a19.459,19.459,0,0,1-2.383-4.472c-1.541-3.618-4.426-8.109-2.465-12.06a50.64,50.64,0,0,0,3-6.009c.584-1.743.573-3.583,1.229-5.312a20.7,20.7,0,0,1,3.3-4.905c1.21-1.587,2.58-3.28,4.526-3.716a21.562,21.562,0,0,0-.369,5.8" transform="translate(-165.949 -151.735)" fill="#5c1171"/>
            </g>
          </g>
        </g>
      </g>
    </g>
  </g>
</svg>
