<svg xmlns="http://www.w3.org/2000/svg" width="1240" height="297.01" viewBox="0 0 1240 297.01">
  <g id="Grupo_172505" data-name="Grupo 172505" transform="translate(4065 -6386.156)">
    <g id="Trazado_221383" data-name="Trazado 221383" transform="translate(-4065 6386.156)" fill="#f6f6f6">
      <path d="M 352 201.5 L 48 201.5 C 41.58729934692383 201.5 35.36674880981445 200.2442016601562 29.51099967956543 197.7673950195312 C 23.85479927062988 195.3750457763672 18.77490043640137 191.9500427246094 14.41244983673096 187.5876007080078 C 10.04994964599609 183.22509765625 6.624949932098389 178.1452026367188 4.232600212097168 172.4889984130859 C 1.755800008773804 166.63330078125 0.5 160.4127044677734 0.5 154 L 0.5 48 C 0.5 41.58729934692383 1.755800008773804 35.36674880981445 4.232600212097168 29.51099967956543 C 6.624949932098389 23.85479927062988 10.04994964599609 18.77490043640137 14.41244983673096 14.41244983673096 C 18.77490043640137 10.04994964599609 23.85479927062988 6.624949932098389 29.51099967956543 4.232600212097168 C 35.36674880981445 1.755800008773804 41.58729934692383 0.5 48 0.5 L 352 0.5 C 358.4126892089844 0.5 364.63330078125 1.755800008773804 370.489013671875 4.232600212097168 C 376.1452026367188 6.624949932098389 381.22509765625 10.04994964599609 385.5875854492188 14.41244983673096 C 389.9500427246094 18.77490043640137 393.3750610351562 23.85479927062988 395.7673950195312 29.51099967956543 C 398.2442016601562 35.36674880981445 399.5 41.58729934692383 399.5 48 L 399.5 154 C 399.5 160.4127044677734 398.2442016601562 166.63330078125 395.7673950195312 172.4889984130859 C 393.3750610351562 178.1452026367188 389.9500427246094 183.22509765625 385.5875854492188 187.5876007080078 C 381.22509765625 191.9500427246094 376.1452026367188 195.3750457763672 370.489013671875 197.7673950195312 C 364.63330078125 200.2442016601562 358.4126892089844 201.5 352 201.5 Z" stroke="none"/>
      <path d="M 48 1 C 41.65460205078125 1 35.49951171875 2.2425537109375 29.70574951171875 4.693099975585938 C 24.10916137695312 7.060256958007812 19.08270263671875 10.44924926757812 14.76596069335938 14.76594543457031 C 10.44924926757812 19.08270263671875 7.06024169921875 24.10914611816406 4.693115234375 29.70574951171875 C 2.2425537109375 35.49949645996094 1 41.65460205078125 1 48 L 1 154 C 1 160.3453979492188 2.2425537109375 166.5004577636719 4.693115234375 172.2942047119141 C 7.06024169921875 177.8908081054688 10.44924926757812 182.9172973632812 14.76596069335938 187.2339935302734 C 19.08270263671875 191.5507507324219 24.10916137695312 194.9397430419922 29.70574951171875 197.3069000244141 C 35.49954223632812 199.7574462890625 41.65460205078125 201 48 201 L 352 201 C 358.3453979492188 201 364.5004577636719 199.7574462890625 370.294189453125 197.3069000244141 C 375.8908081054688 194.9397430419922 380.9172973632812 191.5507507324219 385.2340087890625 187.2339935302734 C 389.5507507324219 182.9172973632812 392.9397583007812 177.8908081054688 395.306884765625 172.2942047119141 C 397.7574462890625 166.5004577636719 399 160.3453979492188 399 154 L 399 48 C 399 41.65460205078125 397.7574462890625 35.49955749511719 395.306884765625 29.70574951171875 C 392.9397583007812 24.10914611816406 389.5507507324219 19.08270263671875 385.2340087890625 14.76594543457031 C 380.9172973632812 10.44924926757812 375.8908081054688 7.060256958007812 370.294189453125 4.693099975585938 C 364.5004577636719 2.2425537109375 358.3453979492188 1 352 1 L 48 1 M 48 0 L 352 0 C 378.5096435546875 0 400 21.49029541015625 400 48 L 400 154 C 400 180.5096435546875 378.5096435546875 202 352 202 L 48 202 C 21.49029541015625 202 0 180.5096435546875 0 154 L 0 48 C 0 21.49029541015625 21.49029541015625 0 48 0 Z" stroke="none" fill="#8f99da"/>
    </g>
    <g id="Trazado_221385" data-name="Trazado 221385" transform="translate(-3645 6386.156)" fill="#f6f6f6">
      <path d="M 352 201.5 L 48 201.5 C 41.58729934692383 201.5 35.36674880981445 200.2442016601562 29.51099967956543 197.7673950195312 C 23.85479927062988 195.3750457763672 18.77490043640137 191.9500427246094 14.41244983673096 187.5876007080078 C 10.04994964599609 183.22509765625 6.624949932098389 178.1452026367188 4.232600212097168 172.4889984130859 C 1.755800008773804 166.63330078125 0.5 160.4127044677734 0.5 154 L 0.5 48 C 0.5 41.58729934692383 1.755800008773804 35.36674880981445 4.232600212097168 29.51099967956543 C 6.624949932098389 23.85479927062988 10.04994964599609 18.77490043640137 14.41244983673096 14.41244983673096 C 18.77490043640137 10.04994964599609 23.85479927062988 6.624949932098389 29.51099967956543 4.232600212097168 C 35.36674880981445 1.755800008773804 41.58729934692383 0.5 48 0.5 L 352 0.5 C 358.4126892089844 0.5 364.63330078125 1.755800008773804 370.489013671875 4.232600212097168 C 376.1452026367188 6.624949932098389 381.22509765625 10.04994964599609 385.5875854492188 14.41244983673096 C 389.9500427246094 18.77490043640137 393.3750610351562 23.85479927062988 395.7673950195312 29.51099967956543 C 398.2442016601562 35.36674880981445 399.5 41.58729934692383 399.5 48 L 399.5 154 C 399.5 160.4127044677734 398.2442016601562 166.63330078125 395.7673950195312 172.4889984130859 C 393.3750610351562 178.1452026367188 389.9500427246094 183.22509765625 385.5875854492188 187.5876007080078 C 381.22509765625 191.9500427246094 376.1452026367188 195.3750457763672 370.489013671875 197.7673950195312 C 364.63330078125 200.2442016601562 358.4126892089844 201.5 352 201.5 Z" stroke="none"/>
      <path d="M 48 1 C 41.65460205078125 1 35.49951171875 2.2425537109375 29.70574951171875 4.693099975585938 C 24.10916137695312 7.060256958007812 19.08270263671875 10.44924926757812 14.76596069335938 14.76594543457031 C 10.44924926757812 19.08270263671875 7.06024169921875 24.10914611816406 4.693115234375 29.70574951171875 C 2.2425537109375 35.49949645996094 1 41.65460205078125 1 48 L 1 154 C 1 160.3453979492188 2.2425537109375 166.5004577636719 4.693115234375 172.2942047119141 C 7.06024169921875 177.8908081054688 10.44924926757812 182.9172973632812 14.76596069335938 187.2339935302734 C 19.08270263671875 191.5507507324219 24.10916137695312 194.9397430419922 29.70574951171875 197.3069000244141 C 35.49954223632812 199.7574462890625 41.65460205078125 201 48 201 L 352 201 C 358.3453979492188 201 364.5004577636719 199.7574462890625 370.294189453125 197.3069000244141 C 375.8908081054688 194.9397430419922 380.9172973632812 191.5507507324219 385.2340087890625 187.2339935302734 C 389.5507507324219 182.9172973632812 392.9397583007812 177.8908081054688 395.306884765625 172.2942047119141 C 397.7574462890625 166.5004577636719 399 160.3453979492188 399 154 L 399 48 C 399 41.65460205078125 397.7574462890625 35.49955749511719 395.306884765625 29.70574951171875 C 392.9397583007812 24.10914611816406 389.5507507324219 19.08270263671875 385.2340087890625 14.76594543457031 C 380.9172973632812 10.44924926757812 375.8908081054688 7.060256958007812 370.294189453125 4.693099975585938 C 364.5004577636719 2.2425537109375 358.3453979492188 1 352 1 L 48 1 M 48 0 L 352 0 C 378.5096435546875 0 400 21.49029541015625 400 48 L 400 154 C 400 180.5096435546875 378.5096435546875 202 352 202 L 48 202 C 21.49029541015625 202 0 180.5096435546875 0 154 L 0 48 C 0 21.49029541015625 21.49029541015625 0 48 0 Z" stroke="none" fill="#f599b5"/>
    </g>
    <g id="Trazado_221387" data-name="Trazado 221387" transform="translate(-3225 6386.156)" fill="#f6f6f6">
      <path d="M 352 201.5 L 48 201.5 C 41.58729934692383 201.5 35.36674880981445 200.2442016601562 29.51099967956543 197.7673950195312 C 23.85479927062988 195.3750457763672 18.77490043640137 191.9500427246094 14.41244983673096 187.5876007080078 C 10.04994964599609 183.22509765625 6.624949932098389 178.1452026367188 4.232600212097168 172.4889984130859 C 1.755800008773804 166.63330078125 0.5 160.4127044677734 0.5 154 L 0.5 48 C 0.5 41.58729934692383 1.755800008773804 35.36674880981445 4.232600212097168 29.51099967956543 C 6.624949932098389 23.85479927062988 10.04994964599609 18.77490043640137 14.41244983673096 14.41244983673096 C 18.77490043640137 10.04994964599609 23.85479927062988 6.624949932098389 29.51099967956543 4.232600212097168 C 35.36674880981445 1.755800008773804 41.58729934692383 0.5 48 0.5 L 352 0.5 C 358.4126892089844 0.5 364.63330078125 1.755800008773804 370.489013671875 4.232600212097168 C 376.1452026367188 6.624949932098389 381.22509765625 10.04994964599609 385.5875854492188 14.41244983673096 C 389.9500427246094 18.77490043640137 393.3750610351562 23.85479927062988 395.7673950195312 29.51099967956543 C 398.2442016601562 35.36674880981445 399.5 41.58729934692383 399.5 48 L 399.5 154 C 399.5 160.4127044677734 398.2442016601562 166.63330078125 395.7673950195312 172.4889984130859 C 393.3750610351562 178.1452026367188 389.9500427246094 183.22509765625 385.5875854492188 187.5876007080078 C 381.22509765625 191.9500427246094 376.1452026367188 195.3750457763672 370.489013671875 197.7673950195312 C 364.63330078125 200.2442016601562 358.4126892089844 201.5 352 201.5 Z" stroke="none"/>
      <path d="M 48 1 C 41.65460205078125 1 35.49951171875 2.2425537109375 29.70574951171875 4.693099975585938 C 24.10916137695312 7.060256958007812 19.08270263671875 10.44924926757812 14.76596069335938 14.76594543457031 C 10.44924926757812 19.08270263671875 7.06024169921875 24.10914611816406 4.693115234375 29.70574951171875 C 2.2425537109375 35.49949645996094 1 41.65460205078125 1 48 L 1 154 C 1 160.3453979492188 2.2425537109375 166.5004577636719 4.693115234375 172.2942047119141 C 7.06024169921875 177.8908081054688 10.44924926757812 182.9172973632812 14.76596069335938 187.2339935302734 C 19.08270263671875 191.5507507324219 24.10916137695312 194.9397430419922 29.70574951171875 197.3069000244141 C 35.49954223632812 199.7574462890625 41.65460205078125 201 48 201 L 352 201 C 358.3453979492188 201 364.5004577636719 199.7574462890625 370.294189453125 197.3069000244141 C 375.8908081054688 194.9397430419922 380.9172973632812 191.5507507324219 385.2340087890625 187.2339935302734 C 389.5507507324219 182.9172973632812 392.9397583007812 177.8908081054688 395.306884765625 172.2942047119141 C 397.7574462890625 166.5004577636719 399 160.3453979492188 399 154 L 399 48 C 399 41.65460205078125 397.7574462890625 35.49955749511719 395.306884765625 29.70574951171875 C 392.9397583007812 24.10914611816406 389.5507507324219 19.08270263671875 385.2340087890625 14.76594543457031 C 380.9172973632812 10.44924926757812 375.8908081054688 7.060256958007812 370.294189453125 4.693099975585938 C 364.5004577636719 2.2425537109375 358.3453979492188 1 352 1 L 48 1 M 48 0 L 352 0 C 378.5096435546875 0 400 21.49029541015625 400 48 L 400 154 C 400 180.5096435546875 378.5096435546875 202 352 202 L 48 202 C 21.49029541015625 202 0 180.5096435546875 0 154 L 0 48 C 0 21.49029541015625 21.49029541015625 0 48 0 Z" stroke="none" fill="#996ca5"/>
    </g>
    <path id="Trazado_221380" data-name="Trazado 221380" d="M0,112.8v23.158C0,160.556,27.751,180.5,61.985,180.5h95.924L200,222.745,242.088,180.5h95.927c34.234,0,61.985-19.942,61.985-44.536V112.8Z" transform="translate(-4065 6412)" fill="#8f99da"/>
    <path id="Trazado_221381" data-name="Trazado 221381" d="M141.637,112.8v23.158c0,24.595,27.751,44.536,61.985,44.536h95.924l42.089,42.248L383.725,180.5h95.927c34.234,0,61.985-19.942,61.985-44.536V112.8Z" transform="translate(-3786.637 6412)" fill="#f599b5"/>
    <path id="Trazado_221382" data-name="Trazado 221382" d="M283.274,112.8v23.158c0,24.595,27.751,44.536,61.985,44.536h95.924l42.09,42.248L525.365,180.5h95.924c34.234,0,61.985-19.942,61.985-44.536V112.8Z" transform="translate(-3508.274 6412)" fill="#996ca5"/>
    <path id="Trazado_221388" data-name="Trazado 221388" d="M21.9,24.96q0,5.474-2.458,8.442a8.5,8.5,0,0,1-6.93,2.969,8.541,8.541,0,0,1-6.977-2.987Q3.071,30.4,3.071,24.96V20.024q0-5.474,2.458-8.442a8.517,8.517,0,0,1,6.949-2.969A8.52,8.52,0,0,1,19.437,11.6Q21.9,14.588,21.9,20.043Zm-6.253-5.733a9.635,9.635,0,0,0-.761-4.351,2.543,2.543,0,0,0-2.412-1.438,2.483,2.483,0,0,0-2.347,1.336,9.077,9.077,0,0,0-.789,4.045v6.9a9.708,9.708,0,0,0,.761,4.425,2.553,2.553,0,0,0,2.412,1.4,2.518,2.518,0,0,0,2.356-1.364,9.268,9.268,0,0,0,.779-4.277ZM39.012,36H32.74V16.035l-6.16,1.8v-4.75l11.856-4.1h.575Z" transform="translate(-3888.5 6646.795)" fill="#4b5cc9"/>
    <path id="Trazado_221389" data-name="Trazado 221389" d="M21.9,24.96q0,5.474-2.458,8.442a8.5,8.5,0,0,1-6.93,2.969,8.541,8.541,0,0,1-6.977-2.987Q3.071,30.4,3.071,24.96V20.024q0-5.474,2.458-8.442a8.517,8.517,0,0,1,6.949-2.969A8.52,8.52,0,0,1,19.437,11.6Q21.9,14.588,21.9,20.043Zm-6.253-5.733a9.635,9.635,0,0,0-.761-4.351,2.543,2.543,0,0,0-2.412-1.438,2.483,2.483,0,0,0-2.347,1.336,9.077,9.077,0,0,0-.789,4.045v6.9a9.708,9.708,0,0,0,.761,4.425,2.553,2.553,0,0,0,2.412,1.4,2.518,2.518,0,0,0,2.356-1.364,9.268,9.268,0,0,0,.779-4.277ZM44,36H25.151V31.918l8.684-9.129q3.21-3.655,3.21-5.808a4.04,4.04,0,0,0-.761-2.653,2.716,2.716,0,0,0-2.208-.909,2.75,2.75,0,0,0-2.319,1.215,5,5,0,0,0-.891,3.034H24.595a8.872,8.872,0,0,1,1.243-4.592,8.718,8.718,0,0,1,3.451-3.293,10.252,10.252,0,0,1,4.936-1.187q4.379,0,6.745,2.022a7.22,7.22,0,0,1,2.366,5.808,8.433,8.433,0,0,1-.594,3.108A13.629,13.629,0,0,1,40.9,22.706a46.505,46.505,0,0,1-4.036,4.444l-3.488,4.026H44Z" transform="translate(-3468.5 6646.795)" fill="#f55d8b"/>
    <path id="Trazado_221391" data-name="Trazado 221391" d="M21.9,24.96q0,5.474-2.458,8.442a8.5,8.5,0,0,1-6.93,2.969,8.541,8.541,0,0,1-6.977-2.987Q3.071,30.4,3.071,24.96V20.024q0-5.474,2.458-8.442a8.517,8.517,0,0,1,6.949-2.969A8.52,8.52,0,0,1,19.437,11.6Q21.9,14.588,21.9,20.043Zm-6.253-5.733a9.635,9.635,0,0,0-.761-4.351,2.543,2.543,0,0,0-2.412-1.438,2.483,2.483,0,0,0-2.347,1.336,9.077,9.077,0,0,0-.789,4.045v6.9a9.708,9.708,0,0,0,.761,4.425,2.553,2.553,0,0,0,2.412,1.4,2.518,2.518,0,0,0,2.356-1.364,9.268,9.268,0,0,0,.779-4.277Zm15.215.649h2.95q3.507,0,3.507-3.433a2.968,2.968,0,0,0-.835-2.18,3.166,3.166,0,0,0-2.356-.844,3.39,3.39,0,0,0-2.162.724,2.208,2.208,0,0,0-.918,1.8H24.8a6.4,6.4,0,0,1,1.188-3.8A7.842,7.842,0,0,1,29.28,9.532a11.26,11.26,0,0,1,4.629-.937A11.064,11.064,0,0,1,41,10.654a6.847,6.847,0,0,1,2.579,5.659,5.707,5.707,0,0,1-1.067,3.293A7.6,7.6,0,0,1,39.4,22.121a7.263,7.263,0,0,1,3.377,2.366A6.23,6.23,0,0,1,44,28.411,6.971,6.971,0,0,1,41.22,34.2a11.553,11.553,0,0,1-7.311,2.171,11.981,11.981,0,0,1-4.926-1.011,7.718,7.718,0,0,1-3.442-2.8,7.284,7.284,0,0,1-1.169-4.073h6.29a2.815,2.815,0,0,0,1,2.152,3.537,3.537,0,0,0,2.468.909,3.705,3.705,0,0,0,2.635-.918,3.07,3.07,0,0,0,.983-2.347,3.589,3.589,0,0,0-1.021-2.895,4.266,4.266,0,0,0-2.82-.854H30.866Z" transform="translate(-3048.5 6646.795)" fill="#5c1171"/>
    <path id="Trazado_221384" data-name="Trazado 221384" d="M-23.314-6.8h-6.633V0h-4.113V-17.062h11.414v3.176h-7.3v3.926h6.633ZM-14.373,0a4.459,4.459,0,0,1-.375-1.137A3.672,3.672,0,0,1-17.795.234,4.5,4.5,0,0,1-20.842-.85,3.45,3.45,0,0,1-22.1-3.574a3.546,3.546,0,0,1,1.523-3.117,7.761,7.761,0,0,1,4.43-1.055h1.219v-.671q0-1.755-1.512-1.755a1.236,1.236,0,0,0-1.406,1.39h-3.949a3.54,3.54,0,0,1,1.564-2.985,6.575,6.575,0,0,1,3.99-1.147A5.764,5.764,0,0,1-12.4-11.73a4.115,4.115,0,0,1,1.441,3.246v5.613A5.748,5.748,0,0,0-10.424-.2V0Zm-2.473-2.578a2.2,2.2,0,0,0,1.225-.316,1.983,1.983,0,0,0,.7-.715V-5.637h-1.148q-2.062,0-2.062,1.852a1.131,1.131,0,0,0,.363.873A1.315,1.315,0,0,0-16.846-2.578Zm14.707-.984a.912.912,0,0,0-.527-.809A8.021,8.021,0,0,0-4.67-5a9.138,9.138,0,0,1-2.437-.861A4.083,4.083,0,0,1-8.572-7.16a3.092,3.092,0,0,1-.5-1.746,3.5,3.5,0,0,1,1.441-2.877,5.938,5.938,0,0,1,3.773-1.131A6.579,6.579,0,0,1,.17-11.777,3.555,3.555,0,0,1,1.693-8.789H-2.268q0-1.523-1.605-1.523a1.591,1.591,0,0,0-1.043.346,1.07,1.07,0,0,0-.422.861.982.982,0,0,0,.516.855,4.872,4.872,0,0,0,1.646.539,14.228,14.228,0,0,1,1.986.5Q1.67-6.223,1.67-3.68A3.321,3.321,0,0,1,.129-.855,6.758,6.758,0,0,1-3.861.234,6.9,6.9,0,0,1-6.768-.352,4.86,4.86,0,0,1-8.76-1.945a3.609,3.609,0,0,1-.715-2.121h3.691A1.526,1.526,0,0,0-5.2-2.783a2.41,2.41,0,0,0,1.441.4,1.9,1.9,0,0,0,1.213-.328A1.05,1.05,0,0,0-2.139-3.562ZM9.65.234a6.518,6.518,0,0,1-4.723-1.74,6.009,6.009,0,0,1-1.8-4.529v-.328A7.787,7.787,0,0,1,3.844-9.8a5.274,5.274,0,0,1,2.1-2.3,6.35,6.35,0,0,1,3.281-.814,5.489,5.489,0,0,1,4.219,1.658,6.516,6.516,0,0,1,1.547,4.623V-5.1H7.143a2.846,2.846,0,0,0,.926,1.676,2.755,2.755,0,0,0,1.852.609,3.549,3.549,0,0,0,2.93-1.312l1.8,2.133A5.045,5.045,0,0,1,12.563-.369,7.069,7.069,0,0,1,9.65.234Zm-.445-10.1q-1.734,0-2.062,2.3h3.984v-.3a1.956,1.956,0,0,0-.48-1.471A1.912,1.912,0,0,0,9.205-9.867ZM31.248,0H27.287V-12.609L23.4-11.473v-3l7.488-2.59h.363ZM-119.637,26.813h-5.637L-126.258,30h-4.395l6.258-17.062h3.867l6.3,17.063h-4.418Zm-4.652-3.176h3.668l-1.84-5.918Zm16.488,3.551a1.756,1.756,0,0,0,1.289-.451,1.654,1.654,0,0,0,.445-1.26h3.7a4.384,4.384,0,0,1-1.494,3.422,5.558,5.558,0,0,1-3.85,1.336,5.627,5.627,0,0,1-4.359-1.734,6.834,6.834,0,0,1-1.594-4.8v-.164a7.723,7.723,0,0,1,.709-3.393,5.162,5.162,0,0,1,2.045-2.262,6.1,6.1,0,0,1,3.164-.791,5.488,5.488,0,0,1,3.926,1.371,4.863,4.863,0,0,1,1.453,3.715h-3.7a2.168,2.168,0,0,0-.48-1.512,1.658,1.658,0,0,0-1.289-.527q-1.535,0-1.793,1.957a13.809,13.809,0,0,0-.082,1.711,5.424,5.424,0,0,0,.457,2.648A1.582,1.582,0,0,0-107.8,27.188Zm14.66,1.441a4.072,4.072,0,0,1-3.387,1.605,3.993,3.993,0,0,1-3.158-1.213,5.1,5.1,0,0,1-1.072-3.486V17.32h3.949v8.238a1.419,1.419,0,0,0,1.582,1.629,2.064,2.064,0,0,0,1.934-.973V17.32h3.973V30h-3.7Zm9.715-11.309.129,1.488a4.36,4.36,0,0,1,3.621-1.723A3.21,3.21,0,0,1-76.43,19a4.22,4.22,0,0,1,3.727-1.91q3.855,0,3.961,4.664V30H-72.7V22a2.417,2.417,0,0,0-.328-1.418,1.4,1.4,0,0,0-1.2-.445,1.871,1.871,0,0,0-1.746,1.043l.012.164V30h-3.961V22.02a2.541,2.541,0,0,0-.316-1.441,1.393,1.393,0,0,0-1.207-.445,1.894,1.894,0,0,0-1.734,1.043V30h-3.949V17.32Zm24.492,11.309a4.072,4.072,0,0,1-3.387,1.605,3.993,3.993,0,0,1-3.158-1.213,5.1,5.1,0,0,1-1.072-3.486V17.32H-62.6v8.238a1.419,1.419,0,0,0,1.582,1.629,2.064,2.064,0,0,0,1.934-.973V17.32h3.973V30h-3.7ZM-48.785,30h-3.961V12h3.961Zm9.574,0a4.459,4.459,0,0,1-.375-1.137,3.672,3.672,0,0,1-3.047,1.371A4.5,4.5,0,0,1-45.68,29.15a3.45,3.45,0,0,1-1.254-2.725,3.546,3.546,0,0,1,1.523-3.117,7.761,7.761,0,0,1,4.43-1.055h1.219v-.671q0-1.755-1.512-1.755a1.236,1.236,0,0,0-1.406,1.39h-3.949a3.54,3.54,0,0,1,1.564-2.985,6.575,6.575,0,0,1,3.99-1.147,5.764,5.764,0,0,1,3.832,1.184A4.115,4.115,0,0,1-35.8,21.516v5.613a5.748,5.748,0,0,0,.539,2.672V30Zm-2.473-2.578a2.2,2.2,0,0,0,1.225-.316,1.983,1.983,0,0,0,.7-.715V24.363H-40.91q-2.062,0-2.062,1.852a1.131,1.131,0,0,0,.363.873A1.315,1.315,0,0,0-41.684,27.422Zm13.43-.234a1.756,1.756,0,0,0,1.289-.451,1.654,1.654,0,0,0,.445-1.26h3.7A4.384,4.384,0,0,1-24.311,28.9a5.558,5.558,0,0,1-3.85,1.336A5.627,5.627,0,0,1-32.52,28.5a6.834,6.834,0,0,1-1.594-4.8v-.164a7.723,7.723,0,0,1,.709-3.393,5.162,5.162,0,0,1,2.045-2.262,6.1,6.1,0,0,1,3.164-.791,5.488,5.488,0,0,1,3.926,1.371,4.863,4.863,0,0,1,1.453,3.715h-3.7A2.168,2.168,0,0,0-27,20.66a1.658,1.658,0,0,0-1.289-.527q-1.535,0-1.793,1.957a13.809,13.809,0,0,0-.082,1.711,5.424,5.424,0,0,0,.457,2.648A1.582,1.582,0,0,0-28.254,27.188ZM-16.98,30h-3.961V17.32h3.961Zm-4.2-15.961a1.778,1.778,0,0,1,.609-1.391,2.29,2.29,0,0,1,1.582-.542,2.29,2.29,0,0,1,1.582.542,1.778,1.778,0,0,1,.609,1.391A1.778,1.778,0,0,1-17.4,15.43a2.29,2.29,0,0,1-1.582.542,2.29,2.29,0,0,1-1.582-.542A1.778,1.778,0,0,1-21.176,14.039Zm6.129,9.5a7.484,7.484,0,0,1,.738-3.381,5.28,5.28,0,0,1,2.121-2.279,6.388,6.388,0,0,1,3.246-.8A5.83,5.83,0,0,1-4.453,18.85a6.768,6.768,0,0,1,1.641,4.8v.141a6.566,6.566,0,0,1-1.646,4.705,5.846,5.846,0,0,1-4.459,1.74,5.912,5.912,0,0,1-4.348-1.623,6.348,6.348,0,0,1-1.77-4.4Zm3.949.246a4.718,4.718,0,0,0,.551,2.578,1.835,1.835,0,0,0,1.629.82q2.109,0,2.156-3.246v-.4q0-3.41-2.18-3.41-1.98,0-2.145,2.941ZM-8.4,12H-4.23l-3.258,3.68-3.223-.006ZM2.555,17.32l.129,1.488A4.3,4.3,0,0,1,6.3,17.086,3.618,3.618,0,0,1,9.264,18.27a5.635,5.635,0,0,1,1.014,3.563V30H6.316V22a2.14,2.14,0,0,0-.387-1.412,1.789,1.789,0,0,0-1.406-.451,1.883,1.883,0,0,0-1.723.914V30H-1.148V17.32Zm15.387,6.246a7.746,7.746,0,0,1,1.3-4.746,4.282,4.282,0,0,1,3.633-1.734,3.641,3.641,0,0,1,2.859,1.336V12H29.7V30H26.145l-.2-1.359a3.739,3.739,0,0,1-3.094,1.594A4.274,4.274,0,0,1,19.266,28.5,7.991,7.991,0,0,1,17.941,23.566Zm3.949.246q0,3.375,1.969,3.375a1.944,1.944,0,0,0,1.875-1.1V21.258a1.892,1.892,0,0,0-1.852-1.125q-1.828,0-1.98,2.953Zm16.184,6.422a6.518,6.518,0,0,1-4.723-1.74,6.009,6.009,0,0,1-1.8-4.529v-.328a7.787,7.787,0,0,1,.721-3.434,5.274,5.274,0,0,1,2.1-2.3,6.35,6.35,0,0,1,3.281-.814,5.489,5.489,0,0,1,4.219,1.658,6.516,6.516,0,0,1,1.547,4.623V24.9H35.566a2.846,2.846,0,0,0,.926,1.676,2.755,2.755,0,0,0,1.852.609,3.549,3.549,0,0,0,2.93-1.312l1.8,2.133a5.045,5.045,0,0,1-2.092,1.623A7.069,7.069,0,0,1,38.074,30.234Zm-.445-10.1q-1.734,0-2.062,2.3h3.984v-.3a1.956,1.956,0,0,0-.48-1.471A1.912,1.912,0,0,0,37.629,20.133Zm17.953-5.965V17.32h2.086v2.742H55.582v5.8a1.481,1.481,0,0,0,.258,1,1.383,1.383,0,0,0,1.02.281,5.793,5.793,0,0,0,.984-.07v2.824a7.288,7.288,0,0,1-2.227.34,4.137,4.137,0,0,1-3.012-.961,3.939,3.939,0,0,1-.973-2.918V20.063H50.016V17.32h1.617V14.168Zm9.773,16.066a6.518,6.518,0,0,1-4.723-1.74,6.009,6.009,0,0,1-1.8-4.529v-.328a7.787,7.787,0,0,1,.721-3.434,5.274,5.274,0,0,1,2.1-2.3,6.35,6.35,0,0,1,3.281-.814,5.489,5.489,0,0,1,4.219,1.658A6.516,6.516,0,0,1,70.7,23.367V24.9H62.848a2.846,2.846,0,0,0,.926,1.676,2.755,2.755,0,0,0,1.852.609,3.549,3.549,0,0,0,2.93-1.312l1.8,2.133a5.045,5.045,0,0,1-2.092,1.623A7.069,7.069,0,0,1,65.355,30.234Zm-.445-10.1q-1.734,0-2.062,2.3h3.984v-.3a1.956,1.956,0,0,0-.48-1.471A1.912,1.912,0,0,0,64.91,20.133Zm11-2.812.129,1.488a4.3,4.3,0,0,1,3.621-1.723,3.618,3.618,0,0,1,2.959,1.184,5.635,5.635,0,0,1,1.014,3.563V30H79.676V22a2.14,2.14,0,0,0-.387-1.412,1.789,1.789,0,0,0-1.406-.451,1.883,1.883,0,0,0-1.723.914V30H72.211V17.32Zm16.547,9.117a.912.912,0,0,0-.527-.809,8.021,8.021,0,0,0-2-.633,9.138,9.138,0,0,1-2.437-.861,4.083,4.083,0,0,1-1.465-1.295,3.092,3.092,0,0,1-.5-1.746,3.5,3.5,0,0,1,1.441-2.877,5.938,5.938,0,0,1,3.773-1.131,6.579,6.579,0,0,1,4.031,1.137,3.555,3.555,0,0,1,1.523,2.988H92.332q0-1.523-1.605-1.523a1.591,1.591,0,0,0-1.043.346,1.07,1.07,0,0,0-.422.861.982.982,0,0,0,.516.855,4.872,4.872,0,0,0,1.646.539,14.228,14.228,0,0,1,1.986.5q2.859.984,2.859,3.527a3.321,3.321,0,0,1-1.541,2.824,6.758,6.758,0,0,1-3.99,1.09,6.9,6.9,0,0,1-2.906-.586,4.86,4.86,0,0,1-1.992-1.594,3.609,3.609,0,0,1-.715-2.121h3.691a1.526,1.526,0,0,0,.586,1.283,2.41,2.41,0,0,0,1.441.4,1.9,1.9,0,0,0,1.213-.328A1.05,1.05,0,0,0,92.461,26.438ZM102.281,30H98.32V17.32h3.961Zm-4.2-15.961a1.778,1.778,0,0,1,.609-1.391,2.579,2.579,0,0,1,3.164,0,1.893,1.893,0,0,1,0,2.782,2.579,2.579,0,0,1-3.164,0A1.778,1.778,0,0,1,98.086,14.039Zm6.129,9.5a7.484,7.484,0,0,1,.738-3.381,5.28,5.28,0,0,1,2.121-2.279,6.388,6.388,0,0,1,3.246-.8,5.83,5.83,0,0,1,4.488,1.764,6.768,6.768,0,0,1,1.641,4.8v.141a6.566,6.566,0,0,1-1.646,4.705,5.846,5.846,0,0,1-4.459,1.74A5.912,5.912,0,0,1,106,28.611a6.348,6.348,0,0,1-1.77-4.4Zm3.949.246a4.718,4.718,0,0,0,.551,2.578,1.835,1.835,0,0,0,1.629.82q2.109,0,2.156-3.246v-.4q0-3.41-2.18-3.41-1.98,0-2.145,2.941ZM110.859,12h4.172l-3.258,3.68-3.223-.006Zm10.957,5.32.129,1.488a4.3,4.3,0,0,1,3.621-1.723,3.618,3.618,0,0,1,2.959,1.184,5.635,5.635,0,0,1,1.014,3.563V30h-3.961V22a2.14,2.14,0,0,0-.387-1.412,1.789,1.789,0,0,0-1.406-.451,1.883,1.883,0,0,0-1.723.914V30h-3.949V17.32Z" transform="translate(-3862 6454.156)" fill="#4b5cc9"/>
    <path id="Trazado_221386" data-name="Trazado 221386" d="M-23.314-6.8h-6.633V0h-4.113V-17.062h11.414v3.176h-7.3v3.926h6.633ZM-14.373,0a4.459,4.459,0,0,1-.375-1.137A3.672,3.672,0,0,1-17.795.234,4.5,4.5,0,0,1-20.842-.85,3.45,3.45,0,0,1-22.1-3.574a3.546,3.546,0,0,1,1.523-3.117,7.761,7.761,0,0,1,4.43-1.055h1.219v-.671q0-1.755-1.512-1.755a1.236,1.236,0,0,0-1.406,1.39h-3.949a3.54,3.54,0,0,1,1.564-2.985,6.575,6.575,0,0,1,3.99-1.147A5.764,5.764,0,0,1-12.4-11.73a4.115,4.115,0,0,1,1.441,3.246v5.613A5.748,5.748,0,0,0-10.424-.2V0Zm-2.473-2.578a2.2,2.2,0,0,0,1.225-.316,1.983,1.983,0,0,0,.7-.715V-5.637h-1.148q-2.062,0-2.062,1.852a1.131,1.131,0,0,0,.363.873A1.315,1.315,0,0,0-16.846-2.578Zm14.707-.984a.912.912,0,0,0-.527-.809A8.021,8.021,0,0,0-4.67-5a9.138,9.138,0,0,1-2.437-.861A4.083,4.083,0,0,1-8.572-7.16a3.092,3.092,0,0,1-.5-1.746,3.5,3.5,0,0,1,1.441-2.877,5.938,5.938,0,0,1,3.773-1.131A6.579,6.579,0,0,1,.17-11.777,3.555,3.555,0,0,1,1.693-8.789H-2.268q0-1.523-1.605-1.523a1.591,1.591,0,0,0-1.043.346,1.07,1.07,0,0,0-.422.861.982.982,0,0,0,.516.855,4.872,4.872,0,0,0,1.646.539,14.228,14.228,0,0,1,1.986.5Q1.67-6.223,1.67-3.68A3.321,3.321,0,0,1,.129-.855,6.758,6.758,0,0,1-3.861.234,6.9,6.9,0,0,1-6.768-.352,4.86,4.86,0,0,1-8.76-1.945a3.609,3.609,0,0,1-.715-2.121h3.691A1.526,1.526,0,0,0-5.2-2.783a2.41,2.41,0,0,0,1.441.4,1.9,1.9,0,0,0,1.213-.328A1.05,1.05,0,0,0-2.139-3.562ZM9.65.234a6.518,6.518,0,0,1-4.723-1.74,6.009,6.009,0,0,1-1.8-4.529v-.328A7.787,7.787,0,0,1,3.844-9.8a5.274,5.274,0,0,1,2.1-2.3,6.35,6.35,0,0,1,3.281-.814,5.489,5.489,0,0,1,4.219,1.658,6.516,6.516,0,0,1,1.547,4.623V-5.1H7.143a2.846,2.846,0,0,0,.926,1.676,2.755,2.755,0,0,0,1.852.609,3.549,3.549,0,0,0,2.93-1.312l1.8,2.133A5.045,5.045,0,0,1,12.563-.369,7.069,7.069,0,0,1,9.65.234Zm-.445-10.1q-1.734,0-2.062,2.3h3.984v-.3a1.956,1.956,0,0,0-.48-1.471A1.912,1.912,0,0,0,9.205-9.867ZM34.4,0H22.494V-2.578l5.484-5.766q2.027-2.309,2.027-3.668a2.551,2.551,0,0,0-.48-1.676,1.715,1.715,0,0,0-1.395-.574,1.737,1.737,0,0,0-1.465.768,3.155,3.155,0,0,0-.562,1.916H22.143a5.6,5.6,0,0,1,.785-2.9,5.506,5.506,0,0,1,2.18-2.08,6.475,6.475,0,0,1,3.117-.75,6.369,6.369,0,0,1,4.26,1.277,4.56,4.56,0,0,1,1.494,3.668A5.326,5.326,0,0,1,33.6-10.4a8.608,8.608,0,0,1-1.166,2A29.372,29.372,0,0,1,29.889-5.59l-2.2,2.543H34.4ZM-121.418,22.758h-6.469v4.078h7.641V30H-132V12.938h11.777v3.176h-7.664v3.6h6.469Zm7.8-1.945,1.84-3.492h4.1l-3.34,6.176,3.5,6.5h-4.125l-1.992-3.75L-115.582,30h-4.148l3.516-6.5-3.328-6.176h4.148Zm18.984,2.941a7.646,7.646,0,0,1-1.33,4.717,4.264,4.264,0,0,1-3.592,1.764,3.655,3.655,0,0,1-2.871-1.277v5.918h-3.949V17.32h3.691l.117,1.172a3.656,3.656,0,0,1,2.988-1.406,4.3,4.3,0,0,1,3.645,1.729,7.741,7.741,0,0,1,1.3,4.752Zm-3.949-.246q0-3.375-1.969-3.375a1.859,1.859,0,0,0-1.875,1.008v4.992a1.919,1.919,0,0,0,1.9,1.055q1.887,0,1.945-3.258ZM-88.723,30h-3.961V12h3.961Zm1.934-6.457a7.484,7.484,0,0,1,.738-3.381,5.28,5.28,0,0,1,2.121-2.279,6.388,6.388,0,0,1,3.246-.8A5.83,5.83,0,0,1-76.2,18.85a6.768,6.768,0,0,1,1.641,4.8v.141A6.566,6.566,0,0,1-76.2,28.494a5.846,5.846,0,0,1-4.459,1.74,5.912,5.912,0,0,1-4.348-1.623,6.348,6.348,0,0,1-1.77-4.4Zm3.949.246a4.718,4.718,0,0,0,.551,2.578,1.835,1.835,0,0,0,1.629.82q2.109,0,2.156-3.246v-.4q0-3.41-2.18-3.41-1.98,0-2.145,2.941Zm16.664,2.648a.912.912,0,0,0-.527-.809,8.021,8.021,0,0,0-2-.633,9.138,9.138,0,0,1-2.437-.861,4.083,4.083,0,0,1-1.465-1.295,3.092,3.092,0,0,1-.5-1.746,3.5,3.5,0,0,1,1.441-2.877A5.938,5.938,0,0,1-67.9,17.086a6.579,6.579,0,0,1,4.031,1.137,3.555,3.555,0,0,1,1.523,2.988H-66.3q0-1.523-1.605-1.523a1.591,1.591,0,0,0-1.043.346,1.07,1.07,0,0,0-.422.861.982.982,0,0,0,.516.855,4.872,4.872,0,0,0,1.646.539,14.228,14.228,0,0,1,1.986.5q2.859.984,2.859,3.527a3.321,3.321,0,0,1-1.541,2.824,6.758,6.758,0,0,1-3.99,1.09,6.9,6.9,0,0,1-2.906-.586A4.86,4.86,0,0,1-72.8,28.055a3.609,3.609,0,0,1-.715-2.121h3.691a1.526,1.526,0,0,0,.586,1.283,2.41,2.41,0,0,0,1.441.4,1.9,1.9,0,0,0,1.213-.328A1.05,1.05,0,0,0-66.176,26.438ZM-56.355,30h-3.961V17.32h3.961Zm-4.2-15.961a1.778,1.778,0,0,1,.609-1.391,2.29,2.29,0,0,1,1.582-.542,2.29,2.29,0,0,1,1.582.542,1.778,1.778,0,0,1,.609,1.391,1.778,1.778,0,0,1-.609,1.391,2.29,2.29,0,0,1-1.582.542,2.29,2.29,0,0,1-1.582-.542A1.778,1.778,0,0,1-60.551,14.039Zm6.129,9.5a7.484,7.484,0,0,1,.738-3.381,5.28,5.28,0,0,1,2.121-2.279,6.388,6.388,0,0,1,3.246-.8,5.83,5.83,0,0,1,4.488,1.764,6.768,6.768,0,0,1,1.641,4.8v.141a6.566,6.566,0,0,1-1.646,4.705,5.846,5.846,0,0,1-4.459,1.74,5.912,5.912,0,0,1-4.348-1.623,6.348,6.348,0,0,1-1.77-4.4Zm3.949.246a4.718,4.718,0,0,0,.551,2.578,1.835,1.835,0,0,0,1.629.82q2.109,0,2.156-3.246v-.4q0-3.41-2.18-3.41-1.98,0-2.145,2.941ZM-47.777,12h4.172l-3.258,3.68-3.223-.006Zm10.957,5.32.129,1.488a4.3,4.3,0,0,1,3.621-1.723,3.618,3.618,0,0,1,2.959,1.184A5.635,5.635,0,0,1-29.1,21.832V30h-3.961V22a2.14,2.14,0,0,0-.387-1.412,1.789,1.789,0,0,0-1.406-.451,1.883,1.883,0,0,0-1.723.914V30h-3.949V17.32Zm15.387,6.246a7.746,7.746,0,0,1,1.3-4.746A4.282,4.282,0,0,1-16.5,17.086a3.641,3.641,0,0,1,2.859,1.336V12H-9.68V30H-13.23l-.2-1.359a3.739,3.739,0,0,1-3.094,1.594A4.274,4.274,0,0,1-20.109,28.5,7.991,7.991,0,0,1-21.434,23.566Zm3.949.246q0,3.375,1.969,3.375a1.944,1.944,0,0,0,1.875-1.1V21.258a1.892,1.892,0,0,0-1.852-1.125q-1.828,0-1.98,2.953ZM-1.3,30.234a6.518,6.518,0,0,1-4.723-1.74,6.009,6.009,0,0,1-1.8-4.529v-.328A7.787,7.787,0,0,1-7.107,20.2,5.274,5.274,0,0,1-5,17.9a6.35,6.35,0,0,1,3.281-.814A5.489,5.489,0,0,1,2.5,18.744a6.516,6.516,0,0,1,1.547,4.623V24.9H-3.809a2.846,2.846,0,0,0,.926,1.676,2.755,2.755,0,0,0,1.852.609A3.549,3.549,0,0,0,1.9,25.875l1.8,2.133a5.045,5.045,0,0,1-2.092,1.623A7.069,7.069,0,0,1-1.3,30.234Zm-.445-10.1q-1.734,0-2.062,2.3H.176v-.3A1.956,1.956,0,0,0-.3,20.654,1.912,1.912,0,0,0-1.746,20.133ZM15.773,30H11.813V12h3.961Zm9.574,0a4.459,4.459,0,0,1-.375-1.137,3.672,3.672,0,0,1-3.047,1.371,4.5,4.5,0,0,1-3.047-1.084,3.45,3.45,0,0,1-1.254-2.725,3.546,3.546,0,0,1,1.523-3.117,7.761,7.761,0,0,1,4.43-1.055H24.8v-.671q0-1.755-1.512-1.755a1.236,1.236,0,0,0-1.406,1.39H17.93a3.54,3.54,0,0,1,1.564-2.985,6.575,6.575,0,0,1,3.99-1.147,5.764,5.764,0,0,1,3.832,1.184,4.115,4.115,0,0,1,1.441,3.246v5.613A5.748,5.748,0,0,0,29.3,29.8V30Zm-2.473-2.578a2.2,2.2,0,0,0,1.225-.316,1.983,1.983,0,0,0,.7-.715V24.363H23.648q-2.062,0-2.062,1.852a1.131,1.131,0,0,0,.363.873A1.315,1.315,0,0,0,22.875,27.422Zm19.1-2.121,2-7.98h4.16L44,30H39.973L35.836,17.32h4.172ZM53.484,30H49.523V17.32h3.961Zm-4.2-15.961a1.778,1.778,0,0,1,.609-1.391,2.579,2.579,0,0,1,3.164,0,1.893,1.893,0,0,1,0,2.782,2.579,2.579,0,0,1-3.164,0A1.778,1.778,0,0,1,49.289,14.039Zm6.129,9.5a7.484,7.484,0,0,1,.738-3.381,5.28,5.28,0,0,1,2.121-2.279,6.388,6.388,0,0,1,3.246-.8,5.83,5.83,0,0,1,4.488,1.764,6.768,6.768,0,0,1,1.641,4.8v.141a6.566,6.566,0,0,1-1.646,4.705,5.846,5.846,0,0,1-4.459,1.74A5.912,5.912,0,0,1,57.2,28.611a6.348,6.348,0,0,1-1.77-4.4Zm3.949.246a4.718,4.718,0,0,0,.551,2.578,1.835,1.835,0,0,0,1.629.82q2.109,0,2.156-3.246v-.4q0-3.41-2.18-3.41-1.98,0-2.145,2.941ZM73.559,30H69.6V12h3.961Zm8.566.234a6.518,6.518,0,0,1-4.723-1.74,6.009,6.009,0,0,1-1.8-4.529v-.328a7.787,7.787,0,0,1,.721-3.434,5.274,5.274,0,0,1,2.1-2.3,6.35,6.35,0,0,1,3.281-.814,5.489,5.489,0,0,1,4.219,1.658,6.516,6.516,0,0,1,1.547,4.623V24.9H79.617a2.846,2.846,0,0,0,.926,1.676,2.755,2.755,0,0,0,1.852.609,3.549,3.549,0,0,0,2.93-1.312l1.8,2.133a5.045,5.045,0,0,1-2.092,1.623A7.069,7.069,0,0,1,82.125,30.234Zm-.445-10.1q-1.734,0-2.062,2.3H83.6v-.3a1.956,1.956,0,0,0-.48-1.471A1.912,1.912,0,0,0,81.68,20.133Zm11-2.812.129,1.488a4.3,4.3,0,0,1,3.621-1.723,3.618,3.618,0,0,1,2.959,1.184,5.635,5.635,0,0,1,1.014,3.563V30H96.445V22a2.14,2.14,0,0,0-.387-1.412,1.789,1.789,0,0,0-1.406-.451,1.883,1.883,0,0,0-1.723.914V30H88.98V17.32Zm15.27,9.867a1.756,1.756,0,0,0,1.289-.451,1.654,1.654,0,0,0,.445-1.26h3.7A4.384,4.384,0,0,1,111.9,28.9a5.558,5.558,0,0,1-3.85,1.336,5.627,5.627,0,0,1-4.359-1.734,6.834,6.834,0,0,1-1.594-4.8v-.164a7.723,7.723,0,0,1,.709-3.393,5.162,5.162,0,0,1,2.045-2.262,6.1,6.1,0,0,1,3.164-.791,5.488,5.488,0,0,1,3.926,1.371,4.863,4.863,0,0,1,1.453,3.715h-3.7a2.168,2.168,0,0,0-.48-1.512,1.658,1.658,0,0,0-1.289-.527q-1.535,0-1.793,1.957a13.809,13.809,0,0,0-.082,1.711,5.424,5.424,0,0,0,.457,2.648A1.582,1.582,0,0,0,107.953,27.188ZM119.227,30h-3.961V17.32h3.961Zm-4.2-15.961a1.778,1.778,0,0,1,.609-1.391,2.579,2.579,0,0,1,3.164,0,1.893,1.893,0,0,1,0,2.782,2.579,2.579,0,0,1-3.164,0A1.778,1.778,0,0,1,115.031,14.039ZM128.8,30a4.459,4.459,0,0,1-.375-1.137,3.672,3.672,0,0,1-3.047,1.371,4.5,4.5,0,0,1-3.047-1.084,3.45,3.45,0,0,1-1.254-2.725,3.546,3.546,0,0,1,1.523-3.117,7.761,7.761,0,0,1,4.43-1.055h1.219v-.671q0-1.755-1.512-1.755a1.236,1.236,0,0,0-1.406,1.39h-3.949a3.54,3.54,0,0,1,1.564-2.985,6.575,6.575,0,0,1,3.99-1.147,5.764,5.764,0,0,1,3.832,1.184,4.115,4.115,0,0,1,1.441,3.246v5.613a5.748,5.748,0,0,0,.539,2.672V30Zm-2.473-2.578a2.2,2.2,0,0,0,1.225-.316,1.983,1.983,0,0,0,.7-.715V24.363H127.1q-2.062,0-2.062,1.852a1.131,1.131,0,0,0,.363.873A1.315,1.315,0,0,0,126.328,27.422Z" transform="translate(-3445 6454.156)" fill="#f55d8b"/>
    <path id="Trazado_221390" data-name="Trazado 221390" d="M-23.314-6.8h-6.633V0h-4.113V-17.062h11.414v3.176h-7.3v3.926h6.633ZM-14.373,0a4.459,4.459,0,0,1-.375-1.137A3.672,3.672,0,0,1-17.795.234,4.5,4.5,0,0,1-20.842-.85,3.45,3.45,0,0,1-22.1-3.574a3.546,3.546,0,0,1,1.523-3.117,7.761,7.761,0,0,1,4.43-1.055h1.219v-.671q0-1.755-1.512-1.755a1.236,1.236,0,0,0-1.406,1.39h-3.949a3.54,3.54,0,0,1,1.564-2.985,6.575,6.575,0,0,1,3.99-1.147A5.764,5.764,0,0,1-12.4-11.73a4.115,4.115,0,0,1,1.441,3.246v5.613A5.748,5.748,0,0,0-10.424-.2V0Zm-2.473-2.578a2.2,2.2,0,0,0,1.225-.316,1.983,1.983,0,0,0,.7-.715V-5.637h-1.148q-2.062,0-2.062,1.852a1.131,1.131,0,0,0,.363.873A1.315,1.315,0,0,0-16.846-2.578Zm14.707-.984a.912.912,0,0,0-.527-.809A8.021,8.021,0,0,0-4.67-5a9.138,9.138,0,0,1-2.437-.861A4.083,4.083,0,0,1-8.572-7.16a3.092,3.092,0,0,1-.5-1.746,3.5,3.5,0,0,1,1.441-2.877,5.938,5.938,0,0,1,3.773-1.131A6.579,6.579,0,0,1,.17-11.777,3.555,3.555,0,0,1,1.693-8.789H-2.268q0-1.523-1.605-1.523a1.591,1.591,0,0,0-1.043.346,1.07,1.07,0,0,0-.422.861.982.982,0,0,0,.516.855,4.872,4.872,0,0,0,1.646.539,14.228,14.228,0,0,1,1.986.5Q1.67-6.223,1.67-3.68A3.321,3.321,0,0,1,.129-.855,6.758,6.758,0,0,1-3.861.234,6.9,6.9,0,0,1-6.768-.352,4.86,4.86,0,0,1-8.76-1.945a3.609,3.609,0,0,1-.715-2.121h3.691A1.526,1.526,0,0,0-5.2-2.783a2.41,2.41,0,0,0,1.441.4,1.9,1.9,0,0,0,1.213-.328A1.05,1.05,0,0,0-2.139-3.562ZM9.65.234a6.518,6.518,0,0,1-4.723-1.74,6.009,6.009,0,0,1-1.8-4.529v-.328A7.787,7.787,0,0,1,3.844-9.8a5.274,5.274,0,0,1,2.1-2.3,6.35,6.35,0,0,1,3.281-.814,5.489,5.489,0,0,1,4.219,1.658,6.516,6.516,0,0,1,1.547,4.623V-5.1H7.143a2.846,2.846,0,0,0,.926,1.676,2.755,2.755,0,0,0,1.852.609,3.549,3.549,0,0,0,2.93-1.312l1.8,2.133A5.045,5.045,0,0,1,12.563-.369,7.069,7.069,0,0,1,9.65.234Zm-.445-10.1q-1.734,0-2.062,2.3h3.984v-.3a1.956,1.956,0,0,0-.48-1.471A1.912,1.912,0,0,0,9.205-9.867Zm16.9-.316h1.863a1.937,1.937,0,0,0,2.215-2.168,1.875,1.875,0,0,0-.527-1.377,2,2,0,0,0-1.488-.533A2.141,2.141,0,0,0,26.8-13.8a1.394,1.394,0,0,0-.58,1.137H22.271a4.043,4.043,0,0,1,.75-2.4,4.953,4.953,0,0,1,2.08-1.646,7.112,7.112,0,0,1,2.924-.592,6.988,6.988,0,0,1,4.477,1.3,4.324,4.324,0,0,1,1.629,3.574,3.6,3.6,0,0,1-.674,2.08,4.8,4.8,0,0,1-1.963,1.588,4.587,4.587,0,0,1,2.133,1.494A3.935,3.935,0,0,1,34.4-4.793a4.4,4.4,0,0,1-1.758,3.656A7.3,7.3,0,0,1,28.025.234,7.567,7.567,0,0,1,24.914-.4a4.875,4.875,0,0,1-2.174-1.77A4.6,4.6,0,0,1,22-4.746h3.973a1.778,1.778,0,0,0,.633,1.359,2.234,2.234,0,0,0,1.559.574,2.34,2.34,0,0,0,1.664-.58,1.939,1.939,0,0,0,.621-1.482A2.267,2.267,0,0,0,29.807-6.7a2.694,2.694,0,0,0-1.781-.539H26.1ZM-63.65,26.836h7.16V30H-67.764V12.938h4.113Zm16.1,1.793a4.072,4.072,0,0,1-3.387,1.605,3.993,3.993,0,0,1-3.158-1.213,5.1,5.1,0,0,1-1.072-3.486V17.32h3.949v8.238a1.419,1.419,0,0,0,1.582,1.629,2.064,2.064,0,0,0,1.934-.973V17.32h3.973V30h-3.7Zm9.609-11.309.129,1.488a4.3,4.3,0,0,1,3.621-1.723A3.618,3.618,0,0,1-31.23,18.27a5.635,5.635,0,0,1,1.014,3.563V30h-3.961V22a2.14,2.14,0,0,0-.387-1.412,1.789,1.789,0,0,0-1.406-.451,1.883,1.883,0,0,0-1.723.914V30h-3.949V17.32ZM-20.889,30a4.459,4.459,0,0,1-.375-1.137,3.672,3.672,0,0,1-3.047,1.371,4.5,4.5,0,0,1-3.047-1.084,3.45,3.45,0,0,1-1.254-2.725,3.546,3.546,0,0,1,1.523-3.117,7.761,7.761,0,0,1,4.43-1.055h1.219v-.671q0-1.755-1.512-1.755a1.236,1.236,0,0,0-1.406,1.39h-3.949a3.54,3.54,0,0,1,1.564-2.985,6.575,6.575,0,0,1,3.99-1.147A5.764,5.764,0,0,1-18.92,18.27a4.115,4.115,0,0,1,1.441,3.246v5.613a5.748,5.748,0,0,0,.539,2.672V30Zm-2.473-2.578a2.2,2.2,0,0,0,1.225-.316,1.983,1.983,0,0,0,.7-.715V24.363h-1.148q-2.062,0-2.062,1.852a1.131,1.131,0,0,0,.363.873A1.315,1.315,0,0,0-23.361,27.422Zm13.547-3.855a7.746,7.746,0,0,1,1.3-4.746,4.282,4.282,0,0,1,3.633-1.734,3.641,3.641,0,0,1,2.859,1.336V12H1.939V30H-1.611l-.2-1.359A3.739,3.739,0,0,1-4.9,30.234,4.274,4.274,0,0,1-8.49,28.5,7.991,7.991,0,0,1-9.814,23.566Zm3.949.246q0,3.375,1.969,3.375a1.944,1.944,0,0,0,1.875-1.1V21.258a1.892,1.892,0,0,0-1.852-1.125q-1.828,0-1.98,2.953Zm16.184,6.422A6.518,6.518,0,0,1,5.6,28.494a6.009,6.009,0,0,1-1.8-4.529v-.328A7.787,7.787,0,0,1,4.512,20.2a5.274,5.274,0,0,1,2.1-2.3A6.35,6.35,0,0,1,9.9,17.086a5.489,5.489,0,0,1,4.219,1.658,6.516,6.516,0,0,1,1.547,4.623V24.9H7.811a2.846,2.846,0,0,0,.926,1.676,2.755,2.755,0,0,0,1.852.609,3.549,3.549,0,0,0,2.93-1.312l1.8,2.133a5.045,5.045,0,0,1-2.092,1.623A7.069,7.069,0,0,1,10.318,30.234Zm-.445-10.1q-1.734,0-2.062,2.3h3.984v-.3a1.956,1.956,0,0,0-.48-1.471A1.912,1.912,0,0,0,9.873,20.133ZM26.959,17.32l.129,1.488a4.36,4.36,0,0,1,3.621-1.723A3.21,3.21,0,0,1,33.955,19a4.22,4.22,0,0,1,3.727-1.91q3.855,0,3.961,4.664V30H37.682V22a2.417,2.417,0,0,0-.328-1.418,1.4,1.4,0,0,0-1.2-.445,1.871,1.871,0,0,0-1.746,1.043l.012.164V30H30.463V22.02a2.541,2.541,0,0,0-.316-1.441,1.393,1.393,0,0,0-1.207-.445,1.894,1.894,0,0,0-1.734,1.043V30H23.256V17.32ZM48.064,30H44.1V17.32h3.961Zm-4.2-15.961a1.778,1.778,0,0,1,.609-1.391,2.579,2.579,0,0,1,3.164,0,1.893,1.893,0,0,1,0,2.782,2.579,2.579,0,0,1-3.164,0A1.778,1.778,0,0,1,43.869,14.039Zm12.762,16.2a6.518,6.518,0,0,1-4.723-1.74,6.009,6.009,0,0,1-1.8-4.529v-.328a7.787,7.787,0,0,1,.721-3.434,5.274,5.274,0,0,1,2.1-2.3,6.35,6.35,0,0,1,3.281-.814,5.489,5.489,0,0,1,4.219,1.658,6.516,6.516,0,0,1,1.547,4.623V24.9H54.123a2.846,2.846,0,0,0,.926,1.676,2.755,2.755,0,0,0,1.852.609,3.549,3.549,0,0,0,2.93-1.312l1.8,2.133a5.045,5.045,0,0,1-2.092,1.623A7.069,7.069,0,0,1,56.631,30.234Zm-.445-10.1q-1.734,0-2.062,2.3h3.984v-.3a1.956,1.956,0,0,0-.48-1.471A1.912,1.912,0,0,0,56.186,20.133ZM67.729,30H63.768V12h3.961Z" transform="translate(-3025 6454.156)" fill="#5c1171"/>
  </g>
</svg>
