<svg xmlns="http://www.w3.org/2000/svg" xmlns:xlink="http://www.w3.org/1999/xlink" width="543" height="511" viewBox="0 0 543 511">
  <defs>
    <clipPath id="clip-path">
      <rect id="Rectángulo_215666" data-name="Rectángulo 215666" width="543" height="511" transform="translate(905.333 70)" fill="#fff" stroke="#707070" stroke-width="1"/>
    </clipPath>
    <clipPath id="clip-path-2">
      <rect id="Rectángulo_215665" data-name="Rectángulo 215665" width="489.523" height="713.409" fill="none"/>
    </clipPath>
    <clipPath id="clip-path-3">
      <rect id="Rectángulo_215664" data-name="Rectángulo 215664" width="866.213" height="713.409" fill="none"/>
    </clipPath>
    <clipPath id="clip-path-4">
      <rect id="Rectángulo_215663" data-name="Rectángulo 215663" width="740.206" height="712.616" fill="none"/>
    </clipPath>
  </defs>
  <g id="Enmascarar_grupo_80013" data-name="Enmascarar grupo 80013" transform="translate(-905.333 -70)" clip-path="url(#clip-path)">
    <g id="Grupo_172410" data-name="Grupo 172410" transform="translate(926.843 77.873)" clip-path="url(#clip-path-2)">
      <g id="Grupo_172409" data-name="Grupo 172409" transform="translate(-376.69)">
        <g id="Grupo_172408" data-name="Grupo 172408" clip-path="url(#clip-path-3)">
          <path id="Trazado_221245" data-name="Trazado 221245" d="M296.509,323.649c.61-4.336,1.8-19.192.776-21.809a14.43,14.43,0,0,0-7.389-7.878,46.835,46.835,0,0,0-24.963-3.3c-13.453,2.16-24.787,23.752-33.979,36.6s-24.488,33.1-25.648,52.287c-1.154,19.164,18.751,26.137,33.507,28.563,27.414,4.512,35.831-13,40.674-24.266,4.858-11.263,5.469-30.564,6.946-35.608.646-2.261,1.816-7.349,3.579-10.483,2.2-3.919,4.452.529,6.5-14.1" transform="translate(185.049 261.587)" fill="#342f68"/>
          <path id="Trazado_221246" data-name="Trazado 221246" d="M291.086,293.136c1.162-4.63,4.223-13.155,8.19-23.562l-51.188-8.951c.283,11.734.266,20.953-.4,25.732-1.926,13.841-8.306,33.505-12.678,45.205-4.381,11.658-9.2,16-16.608,31.693-6.846,14.511-4.366,19.147.791,26.266s19.363,10.015,27.753,9.16,21.4-7.732,24.047-16.114,8.285-25.6,12.661-37.274c4.377-11.689,3.409-36.154,7.435-52.156" transform="translate(193.122 234.964)" fill="#f8aa9f"/>
          <path id="Trazado_221247" data-name="Trazado 221247" d="M339.821,332.38c.038-4.379-.726-19.264-2.092-21.721a14.434,14.434,0,0,0-8.355-6.842,46.85,46.85,0,0,0-25.182,0c-13.054,3.906-21.457,26.8-28.886,40.735s-19.936,36.027-18.57,55.2c1.369,19.147,22.018,23.45,36.966,23.921,27.768.88,33.815-17.587,37.139-29.388,3.339-11.8,1.413-31.02,2.215-36.213.346-2.329.839-7.523,2.175-10.864,1.67-4.174,4.482-.059,4.59-14.834" transform="translate(231.364 272.337)" fill="#342f68"/>
          <path id="Trazado_221248" data-name="Trazado 221248" d="M328.775,300.652c.544-4.742,2.461-13.592,5.03-24.433l-51.92-2.16c1.82,11.6,3.012,20.736,2.974,25.562-.093,13.972-3.841,34.306-6.638,46.476-2.814,12.134-7.026,17.068-12.309,33.6-4.885,15.283-1.818,19.552,4.227,25.933s20.51,7.389,28.715,5.438,20.206-10.47,21.725-19.126,4.858-26.464,7.667-38.615-1.365-36.283.529-52.678" transform="translate(237.548 247.076)" fill="#f8aa9f"/>
          <path id="Trazado_221249" data-name="Trazado 221249" d="M487.735,123.114c-13.98-7-22.657-7-22.657-7s6.266-20.5-.481-36.993-18.319-22.5-18.319-22.5,2.409-15-6.267-24.994a25.191,25.191,0,0,0-20.729-8.5s-13.98-20.995-40.01-23-45.316,18.5-45.316,18.5a40.558,40.558,0,0,0-40.5,11.5c-18.318,18.994-13.5,45.491-13.5,45.491s-12.533,11-17.353,31.493c-3.474,14.771,2.409,30.5,2.409,30.5s-26.03,27.494-9.158,62.487,74.719,33.994,94,22.5,32.3-30.5,32.3-30.5,27.479,25.5,51.581,12.5S455.919,169.1,455.919,169.1s21.693,17,36.639,4.5,9.158-43.492-4.822-50.49" transform="translate(225.541 0)" fill="#333145"/>
          <path id="Trazado_221250" data-name="Trazado 221250" d="M524.628,254.04s26.03-17.355,31.815-37.6,1.265-47.153-.481-66.042c-1.6-17.264-11-34.034-20.407-44.49C504.97,71.92,431.867,78.136,398.242,78.136s-108.863,10.072-136.822,36.1c-20.885,19.443-32.461,52.707-29.89,73.276,1.867,14.95,33.619,11.978,41.459,31.334,9.743,24.062,1.333,51.131,1.635,58.461,1.135,26.962.726,115.84,14.539,123.416s71.367,17.842,105.355,21.24c28.706,2.871,117.572-11.826,133.391-33.134s-3.282-134.793-3.282-134.793" transform="translate(208.415 70.041)" fill="#757fc0"/>
          <path id="Trazado_221251" data-name="Trazado 221251" d="M269.038,223.145c7.713-3.856,14.579-10.622,24.65-7.948,2.483-7.178,8.386-23.876,11.693-30.088,4.259-8.006,10.529-34.526,10.529-34.526s-9.645-24.878-26.1-29.529-29.943-2.316-34.131.087c-7.54,4.324-16.076,34.855-23.952,53.475-10.886,25.745-17.717,48.484-9.93,65.883s39.293-13.379,47.244-17.354" transform="translate(196.939 106.723)" fill="#f8aa9f"/>
          <path id="Trazado_221252" data-name="Trazado 221252" d="M346.128,78.56c-35.932,6.771-54.39,12.235-64.377,27.523s40.946,53.935,73.154,47.926c38.158-7.121,62.4-43.245,60.857-58.09s-33.7-24.131-69.634-17.359" transform="translate(252.86 68.795)" fill="#f8aa9f"/>
          <path id="Trazado_221253" data-name="Trazado 221253" d="M376.678,61.059l-29.343,6.007-30,.091s-34.38,35.93-33.577,46.331,12.856,30.208,31.5,35.994,31.336,9.158,58.813-3.375,24.1-48.689,24.1-48.689Z" transform="translate(255.811 55.047)" fill="#dc8575"/>
          <path id="Trazado_221254" data-name="Trazado 221254" d="M427,71.315c-5.63-3.438-13.706,4.554-15.022,6.03-2.609-10.656-5.5-20.175-8.1-25.532-9.909-20.291-33.347-31.934-53.62-33.271C320.394,16.581,298.741,29.5,287.37,57.7a98.909,98.909,0,0,0-6.5,46.1c-3.006-1.034-6.273-1.472-9.232-.209-4.906,2.1-9.964,17.865-2.153,28.12,7.766,10.236,23.838,11.261,25.536,11.223,9.631,17.14,24.634,34.412,45.736,39.91,20.921,5.459,41.929-2.708,56.179-17.947,14.033-14.988,23.007-41.611,22.1-49.522,6.486-4,13.767-13.493,15.513-20.172,2.284-8.738.683-18.831-7.553-23.889" transform="translate(239.308 16.542)" fill="#f8aa9f"/>
          <path id="Trazado_221255" data-name="Trazado 221255" d="M334.312,79.934c4.178-2.251,7.07-12.212,12.212-10.285s8.355,4.822,7.393,12.214S345.238,92.79,340.737,94.4s-13.174-.321-17.03-5.463,6.427-6.749,10.6-9" transform="translate(291.069 62.57)" fill="#bf7595"/>
          <path id="Trazado_221256" data-name="Trazado 221256" d="M414.6,72c-2.409-7.232-7.713-43.387-37.118-53.028a85.993,85.993,0,0,0-54.956.964s-25.068-.964-36.637,14.944S269.5,81.643,270.46,92.248s3.858,24.587,6.267,30.371,7.713,11.088,11.569,12.533,6.673-4.978,6.751-8.2-.616-11.231-.616-11.231,9.213-2.407,15.077-5.642c13.98-7.713,17.837-26.994,17.837-26.994s9.158,11.088,20.246,12.05a24.416,24.416,0,0,0,17.836-5.3s4.822,8.679,18.8,11.09c4.723.814,15.908-.964,15.908-.964s4.82,9.641,8.194,10.6,8.2-5.785,8.677-11.088,0-20.246-2.409-27.477" transform="translate(243.723 13.456)" fill="#333145"/>
          <path id="Trazado_221257" data-name="Trazado 221257" d="M309.51,97.987s2.573-5.785,13.5-8.357,16.066,4.5,16.066,4.5" transform="translate(279.036 80.298)" fill="none" stroke="#cb6163" stroke-miterlimit="10" stroke-width="2"/>
          <path id="Trazado_221258" data-name="Trazado 221258" d="M310.271,69.824a10.331,10.331,0,0,1,1.555,1.344A20.35,20.35,0,0,1,315,75.221a21.456,21.456,0,0,1,1.548,3.016,23.453,23.453,0,0,1,1.225,3.64c.15.681.257,1.384.365,2.1l.082.534.019.135.006.032.015.232,0,.061.008.24a8.437,8.437,0,0,1-.074,1.12,8.621,8.621,0,0,1-.173.863,15.172,15.172,0,0,1-2.173,4.478,20.292,20.292,0,0,0-1.512,2.6,2.241,2.241,0,0,0-.27,1.445c0,.1.129.365.086.378l.217.4a1.064,1.064,0,0,1,.044.143,3.63,3.63,0,0,0,.6.846,6.7,6.7,0,0,0,1.966,1.419,19.374,19.374,0,0,0,4.277,1.438c1.143.268,1.848.38,1.848.38a9.87,9.87,0,0,1-1.717.92,12.851,12.851,0,0,1-5.2,1.067,9.666,9.666,0,0,1-3.929-.875,8.921,8.921,0,0,1-2.065-1.365l-.542-.534-.314-.331a9.7,9.7,0,0,1-.831-1.2,8.27,8.27,0,0,1-.841-5.95,18.028,18.028,0,0,1,1.812-4.478,14.242,14.242,0,0,0,1.192-2.573.359.359,0,0,0,.01-.084c0-.055-.017.207,0,.162l-.008-.24,0-.061v-.015c0-.048.023.369.009.186l0-.025-.011-.1-.048-.409c-.063-.544-.127-1.08-.145-1.62-.181-1.116-.219-2.2-.342-3.282-.1-1.072-.143-2.118-.2-3.1a37.973,37.973,0,0,1,.1-4.955,16.086,16.086,0,0,1,.249-2.021" transform="translate(277.175 62.949)" fill="#dc8575"/>
          <path id="Trazado_221259" data-name="Trazado 221259" d="M319.737,73.928s.279.5.827,1.3a17.512,17.512,0,0,0,2.474,2.9,9.512,9.512,0,0,0,4.189,2.289,11.721,11.721,0,0,0,5.391-.219c.576-.129.987-.266,1.42-.4.456-.16.907-.319,1.339-.512a13.157,13.157,0,0,0,2.421-1.337,15.142,15.142,0,0,0,2.008-1.7,18.391,18.391,0,0,0,1.557-1.884,20.952,20.952,0,0,0,1.9-3.351c.4-.877.582-1.422.582-1.422a8.012,8.012,0,0,1,.148,1.571,12.375,12.375,0,0,1-.7,4.166,12.583,12.583,0,0,1-3.381,5.191,14.1,14.1,0,0,1-2.928,2.073,17.306,17.306,0,0,1-1.679.751c-.6.211-1.24.413-1.736.534a14.19,14.19,0,0,1-3.7.451,10.666,10.666,0,0,1-3.66-.7,9.67,9.67,0,0,1-4.883-4.121,11.036,11.036,0,0,1-1.466-4,7.735,7.735,0,0,1-.114-1.576" transform="translate(288.252 62.737)" fill="#593143"/>
          <path id="Trazado_221260" data-name="Trazado 221260" d="M289.822,79.252s.28.5.827,1.3a17.515,17.515,0,0,0,2.474,2.9,9.514,9.514,0,0,0,4.189,2.291,11.756,11.756,0,0,0,5.393-.219c.574-.131.985-.266,1.42-.4.454-.16.905-.319,1.337-.512a13.24,13.24,0,0,0,2.423-1.337,15.277,15.277,0,0,0,2.006-1.7,18.139,18.139,0,0,0,1.557-1.884,20.964,20.964,0,0,0,1.9-3.351c.4-.877.582-1.422.582-1.422a7.834,7.834,0,0,1,.148,1.571,12.374,12.374,0,0,1-.7,4.166,12.579,12.579,0,0,1-3.381,5.189,14.143,14.143,0,0,1-2.93,2.075,17.64,17.64,0,0,1-1.675.751c-.607.209-1.242.413-1.738.534a14.354,14.354,0,0,1-3.7.451,10.646,10.646,0,0,1-3.659-.7,9.658,9.658,0,0,1-4.885-4.121,11.04,11.04,0,0,1-1.466-4,7.734,7.734,0,0,1-.114-1.576" transform="translate(261.283 67.537)" fill="#593143"/>
          <path id="Trazado_221261" data-name="Trazado 221261" d="M313.037,65.76c-.048.011-.1.023-.144.032q.972.257,1.943.515l-.074-.084a2.675,2.675,0,0,0-3.187-.411,50.285,50.285,0,0,0-5.691,3.476c-.6.437-1.179.907-1.784,1.339-.382.272-.774.529-1.179.764-.184.106-.373.207-.561.306-.082.042-.84.392-.479.24.394-.167-.356.127-.432.154q-.451.157-.913.283c-.525.146-1.329.321-1.692.377a12.23,12.23,0,0,1-1.883.093c-.654-.025.148.106-.523-.087-.283-.082-.574-.146-.858-.232s-.55-.181-.825-.27c-.958-.314.474.276-.376-.158-.46-.234-.92-.464-1.365-.728a13.313,13.313,0,0,1-1.308-.867c-1.5-1.15-3.917-.234-4.786,1.255-1.053,1.8-.251,3.634,1.255,4.786a16.519,16.519,0,0,0,5.558,2.685,15.4,15.4,0,0,0,9.744-.92,19.786,19.786,0,0,0,5.745-3.759c1.787-1.607,3.742-3.006,5.541-4.606a2.671,2.671,0,0,0,.411-3.187l-.023-.046v2.016c.025-.04.051-.078.076-.118.972-1.491-.626-3.206-2.189-2.849" transform="translate(258.238 59.025)" fill="#333145"/>
          <path id="Trazado_221262" data-name="Trazado 221262" d="M317.588,68.166l.108.086c-.194-.472-.39-.943-.584-1.413-.008.059-.015.118-.021.175-.144,1.242.94,2.122,1.93,2.537-.548-.23.318.135.426.181l.873.371c.844.359,1.7.656,2.567.955.639.219,1.282.428,1.915.664.182.068.361.145.544.213-.818-.308-.188-.078,0,0a18.617,18.617,0,0,0,7.69,1.738,14.96,14.96,0,0,0,9.549-3.2,17.862,17.862,0,0,0,3.638-3.993,3.5,3.5,0,0,0-6.041-3.531c-.065.1-.137.194-.2.293-.392.574.584-.7-.1.127a16.609,16.609,0,0,1-2.094,2.09c.382-.319.1-.068-.139.093-.257.175-.511.35-.78.51-.226.133-.456.255-.692.373.591-.295-.221.076-.369.12a11.014,11.014,0,0,1-3.771.536c-.259,0-.517-.009-.776-.027-.1-.008-1.05-.135-.274-.01-.466-.076-.928-.171-1.384-.291-.816-.215-1.607-.506-2.411-.761a49.237,49.237,0,0,0-6.768-1.521,2.7,2.7,0,0,0-2.968,1.207c-.023.049-.044.1-.066.145q.861-.5,1.724-.991l-.15.017c-1.437.148-2.85,2.16-1.371,3.309" transform="translate(285.753 55.193)" fill="#333145"/>
          <path id="Trazado_221263" data-name="Trazado 221263" d="M297.849,83.786S284.833,110.3,296.4,112.71s11.088-5.784,9.643-11.088-8.2-17.836-8.2-17.836" transform="translate(262.899 75.537)" fill="#fff"/>
          <path id="Trazado_221264" data-name="Trazado 221264" d="M323.213,90.043a.169.169,0,0,1,0,.338.169.169,0,0,1,0-.338" transform="translate(291.242 81.178)" fill="#dc8c7a"/>
          <path id="Trazado_221265" data-name="Trazado 221265" d="M340.195,450.535c8.471,1.443,24.863,1.443,30.647-2.413,3.09-2.059,13.157-18.964,20.248-32.781,6.184-12.05,18.318-33.745,18.318-33.745s50,45.5,94.178,13.218S541.705,293.5,538.6,283.253s-20.725-43-44.35-71.344c-28.924-34.711-57.727-48.59-71.346-50.136-37.384-4.248-55.921,32.781-55.921,32.781s-7.237-42.752-47.244-43.387C266.215,150.318,245.3,275.015,238.5,312.4s-16.992,107.053-13.592,110.453c1.588,1.592,8.064,9.842,24.454,12.737s30.21,1.818,32.471.009c4.246-3.4,21.522-29.417,21.522-29.417s1.447,29.888,6.749,35.192,21.621,7.72,30.094,9.162" transform="translate(202.153 136.279)" fill="#342f68"/>
          <path id="Trazado_221266" data-name="Trazado 221266" d="M266.347,382.284s.1-.846.28-2.432.43-3.919.848-6.866c.791-5.906,2-14.328,3.752-24.38.861-5.03,1.816-10.474,2.947-16.209s2.276-11.793,3.659-18.017,2.71-12.683,4.313-19.185c1.571-6.513,3.2-13.119,4.893-19.713,1.757-6.577,3.594-13.136,5.444-19.58,1.808-6.458,3.885-12.733,5.828-18.821,1.006-3.037,1.98-6.028,3.008-8.928q1.583-4.344,3.094-8.483c1.063-2.74,2.048-5.417,3.09-7.979q1.617-3.819,3.122-7.368c1.071-2.339,2.021-4.6,3.058-6.707,1.061-2.094,2.012-4.1,3-5.938,1.019-1.831,1.907-3.567,2.843-5.119l2.645-4.214a52.64,52.64,0,0,1,4.239-5.532l1.641-1.818s-.449.725-1.291,2.08a68.28,68.28,0,0,0-3.274,6.018c-.6,1.346-1.268,2.839-1.993,4.463-.669,1.647-1.39,3.429-2.162,5.33-1.47,3.839-3,8.217-4.63,13-1.586,4.807-3.195,10.052-4.91,15.595-1.613,5.579-3.314,11.461-5.075,17.546l-5.165,18.856c-1.757,6.422-3.484,12.967-5.161,19.525-1.77,6.536-3.478,13.088-5.125,19.55-1.681,6.456-3.333,12.809-4.935,18.957s-3.166,12.1-4.642,17.734c-1.5,5.636-2.911,10.966-4.218,15.885-2.617,9.84-4.9,18.025-6.524,23.752-1.654,5.724-2.6,8.994-2.6,8.994" transform="translate(240.123 157.765)" fill="#18204d"/>
          <path id="Trazado_221267" data-name="Trazado 221267" d="M353.3,238.16c-1.907-3.586-19.662-29.615-26.7-37.147-6.013-6.437-24.1-25.068-35.671-29.888s-23.619-4-32.366-2.153c-15.642,3.3-29.7,10.9-38.725,23.786,5.954,12.9,23.267,29.027,39.889,41.229,17.063,12.525,58.992,30.337,72.316,34.433C347.2,273.1,357.48,246.006,353.3,238.16" transform="translate(198.191 151.031)" fill="#f8aa9f"/>
          <path id="Trazado_221268" data-name="Trazado 221268" d="M365.866,219c-5.758-1.107-6.794,5.7-6.794,5.7l-5,.416s6.182-5.657,2.685-11.16c-6.374-10.033-18.694-13.463-27.474-14.2s-29.44,4.375-29.44,4.375-25.277,22.944-24.271,29.577,11.932,18.645,24.518,28.046,19.213,10.061,27.854,11.725a58.54,58.54,0,0,0,20.291.793,12.759,12.759,0,0,0,9.529-6.374s3.4-.69,8.021-5.111,2.738-9.306,2.738-9.306,6.467-1.375,6.88-10.632c.321-6.962-4.528-4.838-4.528-4.838s4.642-5.617,4.153-9.958c-.274-2.371-5.52-8.348-9.162-9.051" transform="translate(248.412 180.025)" fill="#f8aa9f"/>
          <path id="Trazado_221269" data-name="Trazado 221269" d="M299.125,230.473l5.832,2.318,2.788,1.038c.979.375,2.052.643,3.107,1.048,1.065.378,2.21.58,3.326.937,1.128.3,2.288.456,3.432.715,1.082.213,2.436.325,3.617.527,1.219.165,2.409.409,3.567.6,2.286.327,4.41.675,6.247,1.065,3.691.645,6.178,1.343,6.178,1.343s-.626.145-1.73.335c-1.1.162-2.679.373-4.577.5-.953.049-1.987.1-3.081.1s-2.259.049-3.442-.019c-1.171-.086-2.385-.131-3.607-.26-1.257-.126-2.4-.2-3.779-.435-1.287-.3-2.613-.511-3.835-.926-1.213-.434-2.415-.858-3.52-1.363a35.365,35.365,0,0,1-5.724-3.29,25.868,25.868,0,0,1-4.8-4.231" transform="translate(269.674 207.781)" fill="#dc8575"/>
          <path id="Trazado_221270" data-name="Trazado 221270" d="M302.5,224.237a56.73,56.73,0,0,1,6.385,1.276c1.888.456,4.058,1.067,6.355,1.8,1.143.378,2.339.734,3.527,1.162l.9.316.226.08.055.019.03.009c-.089-.029.217.07-.2-.063l.015,0,.116.025.466.11,1.873.441c1.215.255,2.316.287,3.463.492l3.59.329c1.177.061,2.322.154,3.411.249,1.088.076,2.124.137,3.082.23,3.83.283,6.446.667,6.446.667s-.622.222-1.727.525a43.6,43.6,0,0,1-4.625.991,53.632,53.632,0,0,1-6.654.686c-1.234,0-2.5.059-3.818,0-1.356-.129-2.831-.232-4.124-.491l-1.864-.473-.464-.118-.114-.032-.264-.087-.055-.023-.221-.091-.879-.361c-1.173-.472-2.3-1.006-3.4-1.483-2.2-.985-4.223-1.974-5.933-2.888a56.976,56.976,0,0,1-5.6-3.3" transform="translate(272.714 202.159)" fill="#dc8575"/>
          <path id="Trazado_221271" data-name="Trazado 221271" d="M306.517,216.951s.569.177,1.516.468,2.318.667,3.921,1.109c.793.24,1.694.382,2.594.645s1.9.365,2.881.618,2.037.344,3.081.519c.521.087,1.048.173,1.578.26l1.6.131,1.6.158c.243.025.584.055.742.084l.837.042c1.11.038,2.2.158,3.259.228,2.115.171,4.088.411,5.779.688a44.687,44.687,0,0,1,5.636,1.194,44.712,44.712,0,0,1-5.646.989c-1.692.215-3.668.384-5.783.477-1.059.034-2.153.114-3.263.112l-.835.009-.934-.059-1.768-.141-1.763-.183c-.576-.126-1.148-.247-1.717-.371a31.085,31.085,0,0,1-6.222-2.088,25.085,25.085,0,0,1-2.506-1.314,23.629,23.629,0,0,1-3.436-2.455,14.029,14.029,0,0,1-1.149-1.122" transform="translate(276.338 195.59)" fill="#dc8575"/>
          <path id="Trazado_221272" data-name="Trazado 221272" d="M326.792,216.486a17.945,17.945,0,0,1-3.611.321,22.546,22.546,0,0,1-3.622-.236,26.714,26.714,0,0,1-4.086-.907c-.679-.251-1.358-.5-2.014-.778a13.855,13.855,0,0,1-1.875-.951,15.578,15.578,0,0,1-3.02-2.2,12.968,12.968,0,0,1-1.774-1.985c-.384-.519-.574-.839-.574-.839s.384.063,1.006.217c.628.139,1.449.434,2.44.719,1.014.249,2.088.675,3.294,1,.6.175,1.179.413,1.812.584s1.247.4,1.871.608c1.28.377,2.525.842,3.736,1.265,1.19.453,2.327.9,3.278,1.375a19.124,19.124,0,0,1,3.139,1.8" transform="translate(276.066 188.345)" fill="#dc8575"/>
          <path id="Trazado_221273" data-name="Trazado 221273" d="M476.178,125.654s2.919,16.169-2.212,41.921-20.647,44.049-35.6,50.36-39.754,3.231-51.8-9.569S366.055,174.55,362.2,158.159s2.982-41.049,9.641-49.17S413.3,97.42,413.3,97.42Z" transform="translate(325.53 87.828)" fill="#dc8575"/>
          <path id="Trazado_221274" data-name="Trazado 221274" d="M385.069,114.672s-.15.738-.449,1.943c-.279,1.219-.728,2.892-1.27,4.845-.563,1.945-1.213,4.17-1.951,6.5-.711,2.341-1.544,4.779-2.293,7.239-.451,1.207-.768,2.451-1.19,3.647-.4,1.211-.783,2.4-1.16,3.552-.424,1.15-.724,2.284-1.11,3.354-.4,1.069-.726,2.1-1.048,3.05-.356.962-.683,1.845-.974,2.626-.264.793-.553,1.489-.78,2.071-.464,1.158-.818,1.841-.818,1.841a18.207,18.207,0,0,1-.7-1.883c-.186-.607-.43-1.348-.639-2.206a28.761,28.761,0,0,1-.479-2.9,23.662,23.662,0,0,1-.23-3.459,30.533,30.533,0,0,1,.167-3.858,32.738,32.738,0,0,1,.631-4.073,37.167,37.167,0,0,1,1.091-4.107,35.491,35.491,0,0,1,1.525-3.963,36.4,36.4,0,0,1,6.127-9.58,25.48,25.48,0,0,1,3.847-3.537,12.455,12.455,0,0,1,1.7-1.1" transform="translate(333.552 103.382)" fill="#d0675f"/>
          <path id="Trazado_221275" data-name="Trazado 221275" d="M345.355,115.971c5.543-10.736,22.412-8.686,32.431-.485s21.655,31.541,25.338,27.24c4.948-5.75-22.645-77.465-21.666-107.04.5-14.982,18.473-23.452,25.465-4.033,5.969,16.543,24.924,88.285,28.63,87.684s.641-90.34,2.974-105.749c2.523-16.638,21.508-14.965,25.024-2.907,3.522,12.075,4.014,108.162,9.432,107.743s13.971-81.968,20.873-95,21.632-12.044,23.461,4.855c1.86,16.893-20.331,95.378-15.732,96.595s24.182-47.512,36.059-62.795c4.8-6.186,20.86-2.415,17.317,11.9-2.023,8.18-19.622,46.209-29.923,76.7-8.31,24.619-12.2,38.571-18.7,53.8s-25.661,34.8-49.936,31.79-52.439-5.258-62.774-21.52-15.6-33.4-17.823-40.765c-5.731-18.975-35.992-47.28-30.453-58.018" transform="translate(310.745 1.234)" fill="#f8aa9f"/>
          <path id="Trazado_221276" data-name="Trazado 221276" d="M379.366,81.02a18.076,18.076,0,0,1,2.605,1.5,33.87,33.87,0,0,1,2.792,2.027c1.006.861,2.2,1.8,3.343,2.985a42.066,42.066,0,0,1,3.546,3.969A48.349,48.349,0,0,1,395.1,96.4c.58.867,1.023,1.837,1.535,2.782a25.493,25.493,0,0,1,1.424,2.944,43.151,43.151,0,0,1,2.191,6.334l.8,3.282c.169,1.114.285,2.234.418,3.337a33.064,33.064,0,0,1,.175,6.513,31.028,31.028,0,0,1-.8,6.011c-.213.937-.323,1.862-.61,2.717q-.456,1.272-.882,2.455a31.149,31.149,0,0,1-1.765,4.145c-.648,1.177-1.284,2.164-1.789,2.972-1.021,1.613-1.675,2.466-1.675,2.466s.047-1.126.253-2.984c.108-.928.217-2.048.422-3.286a11.6,11.6,0,0,0,.135-2.01q.049-1.052.1-2.208.077-1.13.163-2.352c.046-.808-.038-1.656-.051-2.512a43.046,43.046,0,0,0-.251-5.328c-.116-.915-.19-1.841-.274-2.776a27.555,27.555,0,0,0-.466-2.812c-.169-.945-.359-1.888-.5-2.847l-.759-2.822c-.378-1.915-1.141-3.733-1.7-5.585-.643-1.824-1.382-3.6-2.073-5.332-.8-1.683-1.458-3.392-2.282-4.923-.74-1.58-1.519-3.039-2.248-4.4-.709-1.375-1.43-2.6-2.033-3.735-.675-1.071-1.183-2.1-1.681-2.875l-1.521-2.546" transform="translate(342.014 73.043)" fill="#dc8575"/>
          <path id="Trazado_221277" data-name="Trazado 221277" d="M475.344,84.085s-1.54-.053-4.2-.236-6.435-.458-10.928-.9c-9.006-.776-20.868-2.192-32.676-3.3-2.951-.312-5.9-.531-8.8-.785l-4.309-.323c-1.42-.087-2.824-.171-4.2-.257-5.52-.3-10.662-.4-15.081-.295-2.206.082-4.225.211-6.03.354-1.78.224-3.368.365-4.649.62-1.3.19-2.307.437-3.006.591l-1.084.224.907-.626a21.562,21.562,0,0,1,2.691-1.622,35.621,35.621,0,0,1,4.478-2.021,50.081,50.081,0,0,1,6.094-1.846,79.981,79.981,0,0,1,15.707-2.124,131.265,131.265,0,0,1,18.009.54,164.674,164.674,0,0,1,32.805,6.606c4.37,1.327,7.941,2.683,10.419,3.695s3.854,1.7,3.854,1.7" transform="translate(342.928 64.401)" fill="#dc8575"/>
          <path id="Trazado_221278" data-name="Trazado 221278" d="M318.064,348.673,328.8,325.608l5.125-11.147,5.6-12.463c1.966-4.309,3.8-8.842,5.811-13.377,1.947-4.564,3.887-9.213,5.7-13.908,1.9-4.659,3.738-9.342,5.393-14s3.345-9.222,4.779-13.7,2.788-8.821,3.963-12.97c1.12-4.162,2.162-8.1,3-11.778.477-1.831.726-3.613,1.109-5.294s.658-3.288.9-4.8c.548-3.027.871-5.686,1.166-7.889s.386-3.944.517-5.136.188-1.833.188-1.833.086.635.249,1.822c.112,1.188.462,2.94.559,5.182.118,2.24.335,4.982.221,8.116a103.846,103.846,0,0,1-.6,10.536c-.23,1.917-.409,3.932-.709,5.994-.323,2.057-.66,4.191-1.069,6.368-.831,4.349-1.791,8.928-3.071,13.581s-2.584,9.472-4.273,14.241c-1.614,4.8-3.4,9.612-5.265,14.391-1.932,4.754-3.989,9.451-6.049,14.054s-4.326,9.021-6.5,13.3c-2.143,4.292-4.434,8.325-6.593,12.153-2.143,3.835-4.305,7.384-6.334,10.637-4.037,6.518-7.68,11.774-10.306,15.4s-4.254,5.6-4.254,5.6" transform="translate(286.748 177.877)" fill="#18204d"/>
          <path id="Trazado_221279" data-name="Trazado 221279" d="M343.922,228.556s1.576-1.51,3.955-3.533c1.171-1.044,2.561-2.2,4.012-3.453.747-.6,1.464-1.287,2.221-1.94s1.5-1.341,2.253-2.012,1.455-1.39,2.2-2.046l2.059-2.04c.6-.713,1.268-1.343,1.839-1.991.525-.675,1.082-1.285,1.58-1.867.428-.616.863-1.173,1.255-1.673.409-.492.643-.981.917-1.36.51-.772.842-1.225.842-1.225s-.021.532-.131,1.483a8.952,8.952,0,0,1-.3,1.706c-.184.639-.4,1.367-.681,2.153a24.637,24.637,0,0,1-2.74,4.915c-.629.806-1.266,1.658-1.983,2.463-.74.77-1.489,1.569-2.3,2.293a36.108,36.108,0,0,1-5.051,3.826,27.357,27.357,0,0,1-2.5,1.466c-.8.454-1.6.806-2.335,1.141a24.362,24.362,0,0,1-5.113,1.694" transform="translate(310.06 185.191)" fill="#18204d"/>
          <path id="Trazado_221280" data-name="Trazado 221280" d="M297.5,188.621c-6.393-4.585-15.262-3.425-22.461-2.059-8.388,1.586-16.285,2.445-21.816,10.419-2.012,2.9.532,7.775,3.777,5.475,11.725-8.312,27.243-4.965,40.077-10.192a2.112,2.112,0,0,0,.424-3.641" transform="translate(227.644 167.098)" fill="#bf7595"/>
          <path id="Trazado_221281" data-name="Trazado 221281" d="M292.123,196.557c-7.834-7.747-21.474-.23-30.267,1.082-3.767.563-4.06,6.9,0,6.828,5.109-.091,10.354-1.261,15.427-2.048,4.955-.768,10.892-.03,14.84-3.951a1.463,1.463,0,0,0,0-1.911" transform="translate(233.427 174.09)" fill="#bf7595"/>
          <path id="Trazado_221282" data-name="Trazado 221282" d="M278.982,157.1a32.791,32.791,0,0,0-7.028-1.74c1.875-.434,3.858-.839,6.152-1.548,10.588-3.263,7.45-16.827-2.449-18.093-16.576-2.118-37.238,3.2-47.93,16.559-2.369,2.963-1.348,9.228,3.581,8.641.55-.065,1.1-.156,1.643-.241a45.2,45.2,0,0,0-4.1,4.294c-6.612,8.044,1.449,18.179,10.82,14.022,12.942-5.739,25.962-4.408,39.312-7.5,7.785-1.8,6.406-11.968,0-14.389" transform="translate(204.139 121.949)" fill="#bf7595"/>
        </g>
      </g>
    </g>
  </g>
</svg>
