<svg xmlns="http://www.w3.org/2000/svg" xmlns:xlink="http://www.w3.org/1999/xlink" width="1242" height="392" viewBox="0 0 1242 392">
  <defs>
    <clipPath id="clip-path">
      <rect id="Rectángulo_215697" data-name="Rectángulo 215697" width="1242" height="392" rx="20" transform="translate(0.119 0.455)" fill="#1565c0"/>
    </clipPath>
    <linearGradient id="linear-gradient" x1="0.5" x2="0.5" y2="1" gradientUnits="objectBoundingBox">
      <stop offset="0" stop-color="#b1b1ff"/>
      <stop offset="1" stop-color="#fff2f6"/>
    </linearGradient>
    <clipPath id="clip-path-2">
      <rect id="Rectángulo_215696" data-name="Rectángulo 215696" width="1234.526" height="370.922" fill="none"/>
    </clipPath>
  </defs>
  <g id="Enmascarar_grupo_80015" data-name="Enmascarar grupo 80015" transform="translate(-0.119 -0.455)" opacity="0.35" clip-path="url(#clip-path)">
    <g id="Grupo_172500" data-name="Grupo 172500" transform="translate(631.137 54.843)">
      <path id="Trazado_221350" data-name="Trazado 221350" d="M0,0H566.018V221.842H0Z" transform="translate(0 0)" fill="none"/>
    </g>
    <g id="Grupo_172504" data-name="Grupo 172504" transform="translate(0.119 -345.321)">
      <g id="Grupo_172503" data-name="Grupo 172503" transform="translate(0 0)">
        <g id="Grupo_172501" data-name="Grupo 172501">
          <path id="Trazado_221351" data-name="Trazado 221351" d="M0,0H1242V563.678H0Z" transform="translate(0 210.099)" opacity="0.6" fill="url(#linear-gradient)"/>
          <rect id="Rectángulo_215695" data-name="Rectángulo 215695" width="1242" height="209.966" transform="translate(1242 209.966) rotate(180)" opacity="0.6" fill="url(#linear-gradient)"/>
        </g>
        <g id="Grupo_172502" data-name="Grupo 172502" transform="translate(3.736 364.527)" opacity="0.4" clip-path="url(#clip-path-2)">
          <path id="Trazado_221352" data-name="Trazado 221352" d="M313.136,81.584c0-24.926-18.136-42.4-47-42.4-34.021,0-58.383,23.3-58.383,56.758,0,21.907,14.018,38.05,37.009,41.638L242.5,149.369l-13.563,0-3.279,17,13.574.012-1.91,9.936h16.937l1.913-9.922,15.338.012,3.285-17.03-15.344,0,2.193-11.384c30.367-2.937,51.488-25.259,51.488-56.407M239.265,94.047c0-15.58,8.869-28.989,24.227-28.989,11.384,0,18.136,7.451,18.136,18.425,0,15.577-8.869,28.989-24.227,28.989-11.384,0-18.136-7.454-18.136-18.425" transform="translate(437.679 32.294)" fill="#ffabbf"/>
          <path id="Trazado_221353" data-name="Trazado 221353" d="M239.642,38.792a46.994,46.994,0,0,1,15.237,15.774" transform="translate(450.865 75.585)" fill="none" stroke="#fff" stroke-linecap="round" stroke-linejoin="round" stroke-width="0.5"/>
          <path id="Trazado_221354" data-name="Trazado 221354" d="M60.965,86.2C54.525,71.774,39.518,66.57,22.818,74.374c-19.689,9.2-27.765,29.275-19.124,48.635,5.662,12.678,17.943,18.227,32.174,14.085L37.6,144.53l-7.849,3.665,2.492,10.727,7.86-3.665,1.461,6.268,9.8-4.582-1.458-6.26,8.881-4.143-2.5-10.741-8.881,4.146-1.671-7.179C62.555,122.853,69.009,104.224,60.965,86.2ZM21.437,113.391c-4.025-9.013-2.357-19.174,6.532-23.328,6.587-3.078,12.419-.593,15.254,5.755,4.022,9.013,2.354,19.174-6.532,23.328C30.1,122.228,24.273,119.739,21.437,113.391Z" transform="translate(0.47 137.859)" fill="none" stroke="#fff" stroke-linecap="round" stroke-linejoin="round" stroke-width="0.5"/>
          <path id="Trazado_221355" data-name="Trazado 221355" d="M229.3,111.323C227.215,98.6,216.5,91.27,201.767,93.8c-17.366,2.984-27.846,17.013-25.045,34.09,1.835,11.184,10.341,18.192,22.377,18.006l-.17,6.215-6.921,1.188-.251,8.966,6.93-1.185-.144,5.242,8.647-1.486.144-5.234,7.829-1.339.251-8.978-7.832,1.342.167-6c15.251-4.16,24.163-17.4,21.556-33.3m-36.66,12.838c-1.305-7.952,2.1-15.574,9.938-16.921,5.812-1,9.88,2.214,10.8,7.813,1.305,7.952-2.1,15.574-9.938,16.921-5.812,1-9.88-2.214-10.8-7.813" transform="translate(376.67 177.93)" fill="#ffabbf"/>
          <path id="Trazado_221356" data-name="Trazado 221356" d="M399.4,99.27c.914-10.154-5.835-17.971-17.591-19.079-13.862-1.306-24.639,7.253-25.867,20.884-.8,8.925,4.316,16.04,13.551,18.384l-1.354,4.715-5.524-.522-1.962,6.8,5.532.525-1.144,3.977,6.9.649,1.144-3.969,6.247.593,1.962-6.811-6.25-.59,1.311-4.555c12.476-.029,21.9-8.312,23.042-21m-30.552,2.241c.57-6.345,4.677-11.47,10.932-10.88,4.639.436,7.117,3.73,6.714,8.2-.571,6.345-4.677,11.469-10.932,10.88-4.639-.439-7.117-3.733-6.714-8.2" transform="translate(669.514 155.993)" fill="#ffabbf"/>
          <path id="Trazado_221357" data-name="Trazado 221357" d="M465.591,66.516c-8.085-13.967-23.913-17.6-40.083-7.793-19.061,11.555-25.152,32.884-14.3,51.63,7.108,12.274,20.2,16.556,34.243,10.759l2.556,7.374-7.6,4.6,3.68,10.641,7.61-4.606,2.152,6.218,9.491-5.752-2.15-6.209,8.6-5.2-3.683-10.656-8.6,5.21-2.466-7.123c16.061-11.962,20.654-31.64,10.549-49.092M428.248,98.589c-5.054-8.727-4.434-19.253,4.169-24.472,6.379-3.865,12.577-1.984,16.139,4.163,5.051,8.727,4.435,19.253-4.169,24.472-6.379,3.865-12.58,1.984-16.139-4.163" transform="translate(763.584 103.651)" fill="#ffabbf"/>
          <path id="Trazado_221358" data-name="Trazado 221358" d="M188.795,116.3c5.4-13.9-.922-27.763-17.015-34.314-18.971-7.722-37.605-.259-44.861,18.4-4.749,12.215-.432,24.4,11.609,31.619l-3.818,6.059-7.561-3.081-5.518,8.736,7.569,3.09-3.221,5.107,9.445,3.848,3.219-5.1,8.549,3.491,5.527-8.751-8.558-3.488,3.691-5.85c17.571,5.257,34.188-2.394,40.942-19.764m-43.9-9.821c3.377-8.686,11.232-14.153,19.8-10.665,6.348,2.583,8.5,8.27,6.117,14.391-3.377,8.686-11.229,14.15-19.8,10.665-6.348-2.586-8.5-8.273-6.117-14.391" transform="translate(228.84 153.869)" fill="#ffabbf"/>
          <path id="Trazado_221359" data-name="Trazado 221359" d="M428.452,23.5c-9.488-11.381-24.42-12.133-37.6-.628-15.534,13.56-17.787,33.9-5.051,49.183,8.339,10,20.884,11.785,32.747,4.261L422,82.6,415.811,88l4.973,9.069,6.2-5.4,2.91,5.3,7.734-6.752-2.9-5.292,7.008-6.106-4.982-9.084-7.008,6.112-3.331-6.071C439.159,56.325,440.306,37.718,428.452,23.5ZM399.468,58.628c-5.93-7.112-6.984-16.771.026-22.892,5.2-4.538,11.116-3.827,15.295,1.182,5.93,7.115,6.985,16.771-.029,22.892C409.564,64.348,403.643,63.637,399.468,58.628Z" transform="translate(710.331 28.434)" fill="none" stroke="#fff" stroke-linecap="round" stroke-linejoin="round" stroke-width="0.5"/>
          <path id="Trazado_221360" data-name="Trazado 221360" d="M53.259,106.8A10.144,10.144,0,1,1,43.12,96.417,10.262,10.262,0,0,1,53.259,106.8Z" transform="translate(62.043 187.864)" fill="none" stroke="#ffabbf" stroke-miterlimit="10" stroke-width="1"/>
          <path id="Trazado_221361" data-name="Trazado 221361" d="M35.955,92.951a4.869,4.869,0,1,1-4.867-4.98,4.924,4.924,0,0,1,4.867,4.98" transform="translate(49.329 171.408)" fill="#ffabbf"/>
          <path id="Trazado_221362" data-name="Trazado 221362" d="M117.09,101.589a10.008,10.008,0,1,1-10.007-10.24,10.126,10.126,0,0,1,10.007,10.24" transform="translate(182.645 177.99)" fill="#ffabbf"/>
          <path id="Trazado_221363" data-name="Trazado 221363" d="M42.887,50.88A21.584,21.584,0,0,1,21.556,72.708a21.833,21.833,0,0,1,0-43.655A21.584,21.584,0,0,1,42.887,50.88" transform="translate(0.418 56.609)" fill="#ffabbf"/>
          <path id="Trazado_221364" data-name="Trazado 221364" d="M36.057,52.36a6.107,6.107,0,1,1-6.106-6.248,6.179,6.179,0,0,1,6.106,6.248" transform="translate(44.864 89.847)" fill="#ffabbf"/>
          <path id="Trazado_221365" data-name="Trazado 221365" d="M411.281,7.258a6.607,6.607,0,1,1-13.211,0,6.607,6.607,0,1,1,13.211,0Z" transform="translate(748.933 0.974)" fill="none" stroke="#ffabbf" stroke-miterlimit="10" stroke-width="1"/>
          <path id="Trazado_221366" data-name="Trazado 221366" d="M380.9,6.975a4.088,4.088,0,1,1-8.175,0,4.088,4.088,0,1,1,8.175,0" transform="translate(701.249 5.438)" fill="#ffabbf"/>
          <path id="Trazado_221367" data-name="Trazado 221367" d="M398.085,70.587a7.962,7.962,0,1,1-7.961-8.147,8.053,8.053,0,0,1,7.961,8.147" transform="translate(719.009 121.662)" fill="#fff"/>
          <path id="Trazado_221368" data-name="Trazado 221368" d="M425.719,118.71a20.4,20.4,0,1,0-20.395,20.869,20.636,20.636,0,0,0,20.395-20.869" transform="translate(724.206 190.639)" fill="#ffabbf"/>
          <path id="Trazado_221369" data-name="Trazado 221369" d="M408.405,90.466a4.662,4.662,0,1,1-4.662-4.771,4.715,4.715,0,0,1,4.662,4.771" transform="translate(750.841 166.973)" fill="#ffabbf"/>
          <path id="Trazado_221370" data-name="Trazado 221370" d="M352.111,118.7a17.854,17.854,0,1,1-17.848-18.263A18.058,18.058,0,0,1,352.111,118.7Z" transform="translate(595.303 195.697)" fill="none" stroke="#ffabbf" stroke-miterlimit="10" stroke-width="1"/>
          <path id="Trazado_221371" data-name="Trazado 221371" d="M351.391,99.647a3.787,3.787,0,1,1-3.786-3.874,3.83,3.83,0,0,1,3.786,3.874" transform="translate(646.865 186.61)" fill="#fff"/>
          <path id="Trazado_221372" data-name="Trazado 221372" d="M296.566,125.819a19.739,19.739,0,1,1-19.735-20.194,19.967,19.967,0,0,1,19.735,20.194" transform="translate(483.709 205.806)" fill="#ffabbf"/>
          <path id="Trazado_221373" data-name="Trazado 221373" d="M293.916,101.366a6.4,6.4,0,1,1-6.394-6.543,6.47,6.47,0,0,1,6.394,6.543" transform="translate(528.912 184.759)" fill="#ffabbf"/>
          <path id="Trazado_221374" data-name="Trazado 221374" d="M302.572,96.831a3.217,3.217,0,1,1-3.216-3.29,3.255,3.255,0,0,1,3.216,3.29" transform="translate(557.163 182.261)" fill="#ffabbf"/>
          <path id="Trazado_221375" data-name="Trazado 221375" d="M227.4,107.929a8.474,8.474,0,1,1-8.471-8.668,8.571,8.571,0,0,1,8.471,8.668" transform="translate(446.7 161.409)" fill="#fff"/>
          <path id="Trazado_221376" data-name="Trazado 221376" d="M168.774,103.6a4.237,4.237,0,1,1-4.236-4.334,4.285,4.285,0,0,1,4.236,4.334" transform="translate(301.596 193.406)" fill="#ffabbf"/>
          <path id="Trazado_221377" data-name="Trazado 221377" d="M146.883,61.267A5.148,5.148,0,1,1,141.737,56a5.208,5.208,0,0,1,5.146,5.266" transform="translate(256.984 109.116)" fill="#ffabbf"/>
          <path id="Trazado_221378" data-name="Trazado 221378" d="M428.775,120.28c5.247-17.767,6.475-28.895,4.112-37.2-3.1-10.88-13.865-15.706-27.558-12.451l-.006-.015-.441.124c-.15.038-.3.071-.447.109l0,.015c-13.54,3.854-20.729,13.365-18.355,24.434,1.812,8.453,8.1,17.617,21.023,30.643,1.464,1.477,3.005,2.972,4.576,4.452-3.19,8.719-6.221,15.933-6.267,16.043l11.909,5.26c.158-.377,2.23-5.3,4.76-11.956,5.331,4.6,9.457,7.911,9.771,8.164l8-10.455c-.092-.074-6.132-4.921-13.01-11.013.683-2.067,1.337-4.137,1.933-6.15m-12.566-3.8c-6.737-6.79-15.877-16.674-17.456-24.033-.478-2.238.124-6.324,9.333-8.851,9.275-2.3,11.719,1,12.344,3.193,2.06,7.236-1.337,20.389-4.074,29.653l-.043.142c-.035-.032-.069-.068-.1-.1" transform="translate(725.539 135.661)" fill="#ffcad9"/>
          <path id="Trazado_221379" data-name="Trazado 221379" d="M94.579,155.173c14.393-11.3,21.737-19.6,24.555-27.757,3.688-10.685-2.3-21.031-15.28-26.566l.006-.015c-.144-.059-.288-.109-.432-.165s-.279-.121-.424-.177l-.006.012c-13.191-4.953-24.455-1.521-28.837,8.884-3.351,7.946-3.469,19.144-.4,37.44.349,2.073.746,4.207,1.179,6.345-7.561,5.178-14.139,9.229-14.24,9.288l6.673,11.384c.343-.209,4.838-2.975,10.681-6.867,1.709,6.917,3.172,12.071,3.282,12.463l12.453-3.715c-.032-.115-2.173-7.66-4.285-16.712,1.735-1.271,3.446-2.559,5.077-3.842m-8.036-10.588c-1.6-9.538-3.386-23.019-.47-29.942.885-2.1,3.706-5.062,12.626-1.613,8.843,3.671,8.947,7.8,8.2,9.963-2.455,7.106-12.713,15.76-20.219,21.648l-.115.091-.026-.147" transform="translate(114.194 191.48)" fill="#f4829d"/>
        </g>
      </g>
    </g>
  </g>
</svg>
