<svg xmlns="http://www.w3.org/2000/svg" xmlns:xlink="http://www.w3.org/1999/xlink" width="1242" height="383" viewBox="0 0 1242 383">
  <defs>
    <clipPath id="clip-path">
      <rect id="Rectángulo_48854" data-name="Rectángulo 48854" width="1242" height="383" rx="20" transform="translate(0.119 0.455)" fill="#1565c0"/>
    </clipPath>
    <linearGradient id="linear-gradient" x1="0.5" x2="0.5" y2="1" gradientUnits="objectBoundingBox">
      <stop offset="0" stop-color="#ffb1d5"/>
      <stop offset="1" stop-color="#fff2f6"/>
    </linearGradient>
    <clipPath id="clip-path-2">
      <rect id="Rectángulo_48613" data-name="Rectángulo 48613" width="1234.526" height="362.487" fill="none"/>
    </clipPath>
  </defs>
  <g id="Enmascarar_grupo_79996" data-name="Enmascarar grupo 79996" transform="translate(-0.119 -0.455)" opacity="0.35" clip-path="url(#clip-path)">
    <g id="Grupo_164901" data-name="Grupo 164901" transform="translate(631.137 53.606)">
      <path id="Trazado_207762" data-name="Trazado 207762" d="M0,0H566.018V216.8H0Z" transform="translate(0 0)" fill="none"/>
    </g>
    <g id="Grupo_164955" data-name="Grupo 164955" transform="translate(-135.886 -2181.458)">
      <g id="Grupo_151139" data-name="Grupo 151139" transform="translate(136.005 1844)">
        <g id="Grupo_149857" data-name="Grupo 149857" transform="translate(0 0)">
          <path id="Trazado_207763" data-name="Trazado 207763" d="M0,0H1242V550.861H0Z" transform="translate(0 205.321)" opacity="0.6" fill="url(#linear-gradient)"/>
          <rect id="Rectángulo_44432" data-name="Rectángulo 44432" width="1242" height="205.192" transform="translate(1242 205.192) rotate(180)" opacity="0.6" fill="url(#linear-gradient)"/>
        </g>
        <g id="Grupo_163011" data-name="Grupo 163011" transform="translate(3.736 356.238)" opacity="0.4" clip-path="url(#clip-path-2)">
          <path id="Trazado_202936" data-name="Trazado 202936" d="M313.136,80.62c0-24.359-18.136-41.435-47-41.435-34.021,0-58.383,22.769-58.383,55.467,0,21.409,14.018,37.185,37.009,40.691l-2.262,11.52-13.563,0-3.279,16.617,13.574.012-1.91,9.71h16.937l1.913-9.7,15.338.012,3.285-16.643-15.344,0,2.193-11.125c30.367-2.87,51.488-24.685,51.488-55.124M239.265,92.8c0-15.225,8.869-28.33,24.227-28.33,11.384,0,18.136,7.281,18.136,18.006,0,15.223-8.869,28.33-24.227,28.33-11.384,0-18.136-7.284-18.136-18.006" transform="translate(437.679 30.669)" fill="#ffabbf"/>
          <path id="Trazado_202937" data-name="Trazado 202937" d="M239.642,38.792a46.518,46.518,0,0,1,15.237,15.416" transform="translate(450.865 72.984)" fill="none" stroke="#fff" stroke-linecap="round" stroke-linejoin="round" stroke-width="0.5"/>
          <path id="Trazado_202938" data-name="Trazado 202938" d="M60.965,85.846c-6.44-14.1-21.446-19.182-38.147-11.554C3.129,83.285-4.948,102.9,3.694,121.821c5.662,12.39,17.943,17.813,32.174,13.765l1.735,7.267-7.849,3.582,2.492,10.483,7.86-3.582,1.461,6.126,9.8-4.478-1.458-6.117,8.881-4.048-2.5-10.5-8.881,4.051-1.671-7.016C62.555,121.668,69.009,103.463,60.965,85.846ZM21.437,112.422c-4.025-8.808-2.357-18.738,6.532-22.8,6.587-3.008,12.419-.579,15.254,5.625,4.022,8.808,2.354,18.738-6.532,22.8C30.1,121.057,24.273,118.625,21.437,112.422Z" transform="translate(0.47 133.115)" fill="none" stroke="#fff" stroke-linecap="round" stroke-linejoin="round" stroke-width="0.5"/>
          <path id="Trazado_202939" data-name="Trazado 202939" d="M229.3,110.913c-2.089-12.433-12.808-19.6-27.538-17.124C184.4,96.7,173.921,110.415,176.721,127.1c1.835,10.929,10.341,17.778,22.377,17.6l-.17,6.074-6.921,1.161-.251,8.762,6.93-1.158-.144,5.123,8.647-1.452.144-5.115,7.829-1.308.251-8.774-7.832,1.311.167-5.867C223,139.393,231.912,126.45,229.3,110.913m-36.66,12.546c-1.305-7.771,2.1-15.22,9.938-16.536,5.812-.974,9.88,2.164,10.8,7.636,1.305,7.771-2.1,15.22-9.938,16.536-5.812.974-9.88-2.164-10.8-7.636" transform="translate(376.67 171.762)" fill="#ffabbf"/>
          <path id="Trazado_202940" data-name="Trazado 202940" d="M399.4,98.833c.914-9.924-5.835-17.562-17.591-18.646-13.862-1.276-24.639,7.088-25.867,20.409-.8,8.722,4.316,15.675,13.551,17.966l-1.354,4.607-5.524-.51-1.962,6.647,5.532.513-1.144,3.887,6.9.634,1.144-3.878,6.247.579,1.962-6.656-6.25-.576,1.311-4.452c12.476-.029,21.9-8.123,23.042-20.524m-30.552,2.19c.57-6.2,4.677-11.209,10.932-10.632,4.639.426,7.117,3.645,6.714,8.016-.571,6.2-4.677,11.209-10.932,10.632-4.639-.429-7.117-3.648-6.714-8.016" transform="translate(669.514 150.625)" fill="#ffabbf"/>
          <path id="Trazado_202941" data-name="Trazado 202941" d="M465.591,66.213c-8.085-13.649-23.913-17.2-40.083-7.616-19.061,11.292-25.152,32.136-14.3,50.456,7.108,12,20.2,16.179,34.243,10.514l2.556,7.206-7.6,4.5,3.68,10.4,7.61-4.5,2.152,6.077,9.491-5.622-2.15-6.068,8.6-5.086-3.683-10.413-8.6,5.091-2.466-6.961C471.1,102.5,475.7,83.268,465.591,66.213M428.248,97.557c-5.054-8.529-4.434-18.816,4.169-23.916,6.379-3.778,12.577-1.939,16.139,4.069,5.051,8.529,4.435,18.816-4.169,23.916-6.379,3.778-12.58,1.939-16.139-4.069" transform="translate(763.584 100.084)" fill="#ffabbf"/>
          <path id="Trazado_202942" data-name="Trazado 202942" d="M188.795,115.449c5.4-13.583-.922-27.131-17.015-33.534-18.971-7.546-37.605-.254-44.861,17.98-4.749,11.938-.432,23.844,11.609,30.9l-3.818,5.921-7.561-3.011-5.518,8.538,7.569,3.02-3.221,4.991,9.445,3.76,3.219-4.985,8.549,3.412,5.527-8.552-8.558-3.409,3.691-5.717c17.571,5.138,34.188-2.34,40.942-19.314m-43.9-9.6c3.377-8.489,11.232-13.831,19.8-10.422,6.348,2.524,8.5,8.082,6.117,14.064-3.377,8.489-11.229,13.828-19.8,10.422-6.348-2.527-8.5-8.085-6.117-14.064" transform="translate(228.84 148.574)" fill="#ffabbf"/>
          <path id="Trazado_202943" data-name="Trazado 202943" d="M428.452,23.295c-9.488-11.122-24.42-11.857-37.6-.614-15.534,13.252-17.787,33.133-5.051,48.065,8.339,9.774,20.884,11.517,32.747,4.164L422,81.05l-6.192,5.282,4.973,8.863,6.2-5.282,2.91,5.178,7.734-6.6-2.9-5.172,7.008-5.967-4.982-8.878-7.008,5.973-3.331-5.933C439.159,55.376,440.306,37.192,428.452,23.295ZM399.468,57.627c-5.93-6.95-6.984-16.389.026-22.371,5.2-4.434,11.116-3.74,15.295,1.155,5.93,6.953,6.985,16.389-.029,22.371C409.564,63.217,403.643,62.522,399.468,57.627Z" transform="translate(710.331 27.456)" fill="none" stroke="#fff" stroke-linecap="round" stroke-linejoin="round" stroke-width="0.5"/>
          <path id="Trazado_202944" data-name="Trazado 202944" d="M53.259,106.56A10.141,10.141,0,1,1,43.12,96.417,10.142,10.142,0,0,1,53.259,106.56Z" transform="translate(62.043 181.4)" fill="none" stroke="#ffabbf" stroke-miterlimit="10" stroke-width="1"/>
          <path id="Trazado_202945" data-name="Trazado 202945" d="M35.955,92.838a4.868,4.868,0,1,1-4.867-4.867,4.866,4.866,0,0,1,4.867,4.867" transform="translate(49.329 165.51)" fill="#ffabbf"/>
          <path id="Trazado_202946" data-name="Trazado 202946" d="M117.09,101.356a10.006,10.006,0,1,1-10.007-10.007,10.007,10.007,0,0,1,10.007,10.007" transform="translate(182.645 171.865)" fill="#ffabbf"/>
          <path id="Trazado_202947" data-name="Trazado 202947" d="M42.887,50.384A21.333,21.333,0,1,1,21.556,29.053,21.331,21.331,0,0,1,42.887,50.384" transform="translate(0.418 54.661)" fill="#ffabbf"/>
          <path id="Trazado_202948" data-name="Trazado 202948" d="M36.057,52.218a6.106,6.106,0,1,1-6.106-6.106,6.107,6.107,0,0,1,6.106,6.106" transform="translate(44.864 86.756)" fill="#ffabbf"/>
          <path id="Trazado_202949" data-name="Trazado 202949" d="M411.281,7.1a6.606,6.606,0,1,1-6.6-6.6A6.6,6.6,0,0,1,411.281,7.1Z" transform="translate(748.933 0.941)" fill="none" stroke="#ffabbf" stroke-miterlimit="10" stroke-width="1"/>
          <path id="Trazado_202950" data-name="Trazado 202950" d="M380.9,6.88a4.087,4.087,0,1,1-4.086-4.089A4.089,4.089,0,0,1,380.9,6.88" transform="translate(701.249 5.251)" fill="#ffabbf"/>
          <path id="Trazado_202951" data-name="Trazado 202951" d="M398.085,70.4a7.96,7.96,0,1,1-7.961-7.961,7.959,7.959,0,0,1,7.961,7.961" transform="translate(719.009 117.475)" fill="#fff"/>
          <path id="Trazado_202952" data-name="Trazado 202952" d="M425.719,118.236a20.4,20.4,0,1,0-20.395,20.395,20.395,20.395,0,0,0,20.395-20.395" transform="translate(724.206 184.079)" fill="#ffabbf"/>
          <path id="Trazado_202953" data-name="Trazado 202953" d="M408.405,90.357a4.661,4.661,0,1,1-4.662-4.662,4.66,4.66,0,0,1,4.662,4.662" transform="translate(750.841 161.228)" fill="#ffabbf"/>
          <path id="Trazado_202954" data-name="Trazado 202954" d="M352.111,118.284a17.849,17.849,0,1,1-17.848-17.847A17.847,17.847,0,0,1,352.111,118.284Z" transform="translate(595.303 188.963)" fill="none" stroke="#ffabbf" stroke-miterlimit="10" stroke-width="1"/>
          <path id="Trazado_202955" data-name="Trazado 202955" d="M351.391,99.559a3.786,3.786,0,1,1-3.786-3.786,3.785,3.785,0,0,1,3.786,3.786" transform="translate(646.865 180.188)" fill="#fff"/>
          <path id="Trazado_202956" data-name="Trazado 202956" d="M296.566,125.36a19.733,19.733,0,1,1-19.735-19.735,19.733,19.733,0,0,1,19.735,19.735" transform="translate(483.709 198.724)" fill="#ffabbf"/>
          <path id="Trazado_202957" data-name="Trazado 202957" d="M293.916,101.217a6.4,6.4,0,1,1-6.394-6.394,6.394,6.394,0,0,1,6.394,6.394" transform="translate(528.912 178.401)" fill="#ffabbf"/>
          <path id="Trazado_202958" data-name="Trazado 202958" d="M302.572,96.757a3.216,3.216,0,1,1-3.216-3.216,3.217,3.217,0,0,1,3.216,3.216" transform="translate(557.163 175.989)" fill="#ffabbf"/>
          <path id="Trazado_202959" data-name="Trazado 202959" d="M227.4,107.732a8.471,8.471,0,1,1-8.471-8.471,8.47,8.47,0,0,1,8.471,8.471" transform="translate(446.7 155.482)" fill="#fff"/>
          <path id="Trazado_202960" data-name="Trazado 202960" d="M168.774,103.5a4.236,4.236,0,1,1-4.236-4.236,4.235,4.235,0,0,1,4.236,4.236" transform="translate(301.596 186.751)" fill="#ffabbf"/>
          <path id="Trazado_202961" data-name="Trazado 202961" d="M146.883,61.147A5.146,5.146,0,1,1,141.737,56a5.148,5.148,0,0,1,5.146,5.146" transform="translate(256.984 105.361)" fill="#ffabbf"/>
          <path id="Trazado_202962" data-name="Trazado 202962" d="M428.775,119.128c5.247-17.363,6.475-28.238,4.112-36.358-3.1-10.632-13.865-15.349-27.558-12.168l-.006-.014-.441.121c-.15.037-.3.069-.447.107l0,.014C390.9,74.6,383.71,83.891,386.084,94.708c1.812,8.261,8.1,17.216,21.023,29.947,1.464,1.444,3.005,2.9,4.576,4.351-3.19,8.52-6.221,15.571-6.267,15.678l11.909,5.14c.158-.369,2.23-5.184,4.76-11.684,5.331,4.495,9.457,7.731,9.771,7.979l8-10.217c-.092-.072-6.132-4.809-13.01-10.762.683-2.02,1.337-4.043,1.933-6.011m-12.566-3.714c-6.737-6.636-15.877-16.294-17.456-23.486-.478-2.187.124-6.181,9.333-8.65,9.275-2.245,11.719.974,12.344,3.121,2.06,7.071-1.337,19.925-4.074,28.978l-.043.138c-.035-.032-.069-.066-.1-.1" transform="translate(725.539 130.993)" fill="#ffcad9"/>
          <path id="Trazado_202963" data-name="Trazado 202963" d="M94.579,153.879c14.393-11.039,21.737-19.153,24.555-27.126,3.688-10.442-2.3-20.553-15.28-25.962l.006-.014c-.144-.058-.288-.107-.432-.161s-.279-.118-.424-.173l-.006.012c-13.191-4.841-24.455-1.487-28.837,8.682-3.351,7.765-3.469,18.709-.4,36.588.349,2.026.746,4.112,1.179,6.2C67.375,156.985,60.8,160.944,60.7,161l6.673,11.125c.343-.2,4.838-2.907,10.681-6.711,1.709,6.76,3.172,11.8,3.282,12.18l12.453-3.631c-.032-.112-2.173-7.486-4.285-16.332,1.735-1.242,3.446-2.5,5.077-3.754m-8.036-10.347c-1.6-9.321-3.386-22.5-.47-29.261.885-2.052,3.706-4.947,12.626-1.576,8.843,3.587,8.947,7.627,8.2,9.736-2.455,6.944-12.713,15.4-20.219,21.155l-.115.089-.026-.144" transform="translate(114.194 184.892)" fill="#f4829d"/>
        </g>
      </g>
    </g>
  </g>
</svg>
