<svg xmlns="http://www.w3.org/2000/svg" xmlns:xlink="http://www.w3.org/1999/xlink" width="344" height="344" viewBox="0 0 344 344">
  <defs>
    <clipPath id="clip-path">
      <rect id="Rect치ngulo_48882" data-name="Rect치ngulo 48882" width="288.803" height="317.086" transform="translate(0 0)" fill="none"/>
    </clipPath>
  </defs>
  <g id="Grupo_172509" data-name="Grupo 172509" transform="translate(5994 -82)">
    <g id="Grupo_172506" data-name="Grupo 172506" transform="translate(-5966 95)">
      <g id="Grupo_165026" data-name="Grupo 165026" transform="translate(0)" clip-path="url(#clip-path)">
        <path id="Trazado_208100" data-name="Trazado 208100" d="M548.845,618.994A124.538,124.538,0,1,1,424.308,494.456,124.538,124.538,0,0,1,548.845,618.994" transform="translate(-286.786 -450.343)" fill="#fde9e8"/>
        <path id="Trazado_208101" data-name="Trazado 208101" d="M.322,2612.507a5.879,5.879,0,0,0,.534,1.142,5.323,5.323,0,0,0,3.9,2.582q4.044.508,7.941.772a121.8,121.8,0,0,0,26-.919q1.954-.284,3.86-.634,1.86-.338,3.676-.736A107.366,107.366,0,0,0,85.4,2597.439q2.284-1.6,4.448-3.288a1.356,1.356,0,0,0-.418-2.348c-2.9-.833-6.054-1.823-9.219-2.964-2.213-.8-4.431-1.669-6.574-2.614h0c-1.393-.614-2.753-1.258-4.059-1.933a.432.432,0,0,1-.055-.724.36.36,0,0,1,.374-.045,60.921,60.921,0,0,0,14.111,3.837,64.2,64.2,0,0,0,10.023.687,8.113,8.113,0,0,0,5.533-2.3,137.335,137.335,0,0,0,13.023-14.45,1.587,1.587,0,0,0-.6-2.43,88.366,88.366,0,0,1-12.637-6.271.617.617,0,0,1,.378-1.14,145.559,145.559,0,0,0,15.854,1.612,5.219,5.219,0,0,0,4.616-2.421,156.078,156.078,0,0,0,11.889-21.848,5.694,5.694,0,0,0-4.477-8.064,124.776,124.776,0,0,0-12.886-.357,5.734,5.734,0,0,0-5.33,4.4l-1.785,6.872a.494.494,0,0,1-.95.058,35.826,35.826,0,0,1-1.456-7.4,3.19,3.19,0,0,0-3.533-2.888,114.328,114.328,0,0,0-11.377,2.15q-1.343.326-2.665.68-4.409,1.18-8.592,2.668a11.629,11.629,0,0,0-6.39,5.629,12.564,12.564,0,0,0-1.372,4.711c-.452,5.119-.635,9.662-.707,12.842-.017.747-.028,1.419-.034,2a.671.671,0,0,1-1.285.3c-.1-.223-.2-.449-.3-.677a33.955,33.955,0,0,1-2.122-7.977,59.29,59.29,0,0,1-.612-7.5q-.023-.986-.02-1.984a1.258,1.258,0,0,0-.07-.425,1.123,1.123,0,0,0-1.569-.668q-1.424.73-2.818,1.492a132.343,132.343,0,0,0-18.907,12.6h0q-1.408,1.122-2.771,2.262-3.511,2.935-6.727,5.978-1.774,1.675-3.46,3.365c-2.17,2.176-4.228,4.365-6.176,6.545q-1.94,2.17-3.734,4.32a180.7,180.7,0,0,0-11.286,15.036c-3.4,5.05-6.036,9.52-7.94,12.969a5.888,5.888,0,0,0-.412,4.773" transform="translate(156.212 -2304.593)" fill="#a1cfc4"/>
        <path id="Trazado_208102" data-name="Trazado 208102" d="M146.062,2574.937c-5.695,3.017-11.356,6.1-17.012,9.185l-8.468,4.663q-4.231,2.336-8.446,4.7l-4.217,2.362-4.209,2.376L95.3,2603q-8.392,4.8-16.738,9.679-8.336,4.9-16.621,9.882-4.135,2.5-8.252,5.04-2.057,1.269-4.109,2.547t-4.091,2.577c-5.446,3.45-10.849,6.97-16.149,10.645-2.644,1.845-5.267,3.723-7.814,5.7-.636.5-1.268,1-1.891,1.508s-1.242,1.03-1.845,1.565-1.2,1.084-1.762,1.658a15.2,15.2,0,0,0-1.576,1.831,15.13,15.13,0,0,1,1.624-1.783c.581-.556,1.187-1.086,1.8-1.6s1.242-1.023,1.877-1.518,1.276-.981,1.922-1.461c2.586-1.916,5.235-3.748,7.912-5.537s5.374-3.548,8.091-5.278,5.442-3.445,8.181-5.139q2.054-1.271,4.115-2.53l4.124-2.517q4.129-2.508,8.279-4.982,8.292-4.962,16.636-9.836,8.332-4.9,16.707-9.719l8.372-4.829,8.382-4.812q16.774-9.606,33.585-19.154" transform="translate(141.452 -2345.213)" fill="#d3f2e9"/>
        <path id="Trazado_208103" data-name="Trazado 208103" d="M556.461,1551.024c46.158-24.91,69.664-59.05,81.074-91.791a1.71,1.71,0,0,0-2.228-2.162c-8.5,3.106-18.872,6.382-28.349,7.95a.547.547,0,0,1-.208-1.073,93.147,93.147,0,0,0,31.031-14.563,11.816,11.816,0,0,0,4.628-6.891,183.71,183.71,0,0,0,4.161-25.823,1.99,1.99,0,0,0-2.5-2.1,127.764,127.764,0,0,1-19.155,3.475.8.8,0,0,1-.416-1.517,218.888,218.888,0,0,0,19.372-11.014,7.473,7.473,0,0,0,3.487-6.28,198.335,198.335,0,0,0-2.647-32.781,7.376,7.376,0,0,0-11.14-4.983q-7.978,4.76-15.035,9.966a7.9,7.9,0,0,0-2.831,8.957l3.072,8.742a.708.708,0,0,1-1.046.825,43.606,43.606,0,0,1-7.178-6.7,4.393,4.393,0,0,0-6.2-.234,169.816,169.816,0,0,0-21.847,24.017,15.76,15.76,0,0,0-1.194,17.228c4.069,7.171,7.953,13.079,10.209,16.386a.948.948,0,0,1-1.248,1.35c-6.269-3.457-11.986-9.626-17.009-16.846a1.6,1.6,0,0,0-2.692.154c-26.825,47.332-26.67,98.213-25.051,119.9a7.361,7.361,0,0,0,10.944,5.805" transform="translate(-407.169 -1239.018)" fill="#a1cfc4"/>
        <path id="Trazado_208104" data-name="Trazado 208104" d="M720.175,1372.084q-6.189,11.734-12.23,23.545l-6.035,11.814q-3.011,5.91-5.989,11.838-5.977,11.844-11.843,23.743t-11.639,23.845q-5.752,11.956-11.38,23.97-2.8,6.013-5.561,12.047t-5.447,12.1c-3.584,8.087-7.077,16.217-10.345,24.439-1.624,4.115-3.2,8.25-4.62,12.441-.18.523-.349,1.05-.524,1.574s-.342,1.052-.5,1.581q-.5,1.583-.934,3.185c-.289,1.068-.556,2.142-.775,3.227a20.507,20.507,0,0,0-.43,3.287,20.483,20.483,0,0,1,.489-3.274c.238-1.078.525-2.146.833-3.207s.635-2.116.982-3.165c.169-.526.351-1.047.527-1.571s.36-1.045.547-1.564c1.481-4.164,3.1-8.277,4.776-12.367s3.4-8.158,5.172-12.21q1.327-3.038,2.669-6.069t2.71-6.052q1.364-3.022,2.746-6.035l2.768-6.026q2.781-6.02,5.61-12.018,5.644-12,11.415-23.944,5.749-11.953,11.6-23.859,5.823-11.917,11.721-23.8,11.779-23.771,23.695-47.475" transform="translate(-487.749 -1249.673)" fill="#fff"/>
        <path id="Trazado_208105" data-name="Trazado 208105" d="M251.676,2241.826c.369-1.182.755-2.384,1.179-3.673,1.024-3.108,2.1-6.189,3.2-9.156l.028-.076c.941-2.544,1.938-5.111,2.964-7.63l.067-.166c1.27-3.114,2.619-6.24,4.01-9.294l.04-.089c.59-1.295,1.2-2.6,1.818-3.892.807-1.694,1.664-3.436,2.546-5.177,1.537-3.031,3.153-6.055,4.8-8.988q.314-.558.63-1.112c2.284-4.012,4.706-7.981,7.2-11.8.495-.759,1.013-1.543,1.585-2.4.934-1.389,1.808-2.661,2.67-3.888l.02-.03a217.4,217.4,0,0,1,14.153-18.056q.365-.418.731-.831c3.267-3.7,6.681-7.3,10.15-10.7l.181-.177.09-.088.179-.175.192-.187c.593-.576,1.19-1.15,1.778-1.708h.268v-.255c3.241-3.063,6.595-6.023,9.97-8.8l.021-.018a162.858,162.858,0,0,1,21.283-14.964l.095-.054c4-2.322,6.392-3.4,6.416-3.408l-.364-.814c-.024.011-2.41,1.084-6.4,3.391h0l-.1.06a163.668,163.668,0,0,0-21.516,15.118l-.021.018c-3.432,2.825-6.842,5.838-10.135,8.956l-.139.132c-.588.558-1.185,1.131-1.777,1.706l-.191.186-.183.179-.088.086-.185.181c-3.482,3.415-6.912,7.03-10.192,10.744q-.367.415-.734.835a218.279,218.279,0,0,0-14.23,18.157l-.02.03c-.859,1.224-1.73,2.492-2.661,3.877-.575.858-1.1,1.646-1.592,2.407-2.5,3.831-4.932,7.816-7.226,11.844q-.317.555-.633,1.116c-1.656,2.945-3.279,5.98-4.822,9.022-.886,1.748-1.745,3.5-2.555,5.2-.633,1.322-1.261,2.667-1.865,4l-.04.089c-1.394,3.063-2.746,6.2-4.017,9.32l-.034.085c-1.04,2.553-2.05,5.154-3,7.732l-.028.076c-1.094,2.954-2.165,6.02-3.184,9.113-.425,1.294-.812,2.5-1.183,3.686Z" transform="translate(-83.518 -1925.602)" fill="#3aa490"/>
        <path id="Trazado_208106" data-name="Trazado 208106" d="M184.655,2020.007s45.785-15.879,34.973-28.615-34.973,28.615-34.973,28.615" transform="translate(51.048 -1811.511)" fill="#3aa490"/>
        <path id="Trazado_208107" data-name="Trazado 208107" d="M317.941,2346.453c1.413,2.114,36.173,4.806,34.513-6.211-1.771-11.757-34.513,6.211-34.513,6.211" transform="translate(-92.074 -2127.823)" fill="#3aa490"/>
        <path id="Trazado_208108" data-name="Trazado 208108" d="M539.4,2060.91c0-7.6-.912-14.183,4.062-19.552,3.315-3.579,10.126-5.791,10.329,1.143.432,14.792-14.394,32.618-14.394,32.618Z" transform="translate(-313.112 -1856.158)" fill="#3aa490"/>
        <path id="Trazado_208109" data-name="Trazado 208109" d="M704.548,2702.3c1.361,1.49,38.1-.517,26.446-9.765s-26.446,9.765-26.446,9.765" transform="translate(-507.329 -2450.013)" fill="#3aa490"/>
        <path id="Trazado_208110" data-name="Trazado 208110" d="M935.412,2496.071a24.771,24.771,0,0,1,3.678-17.221c2.189-3.318,4.509-4.978,5.485.526,2.083,11.743-7.492,28.033-7.492,28.033Z" transform="translate(-739.497 -2254.913)" fill="#3aa490"/>
        <path id="Trazado_208111" data-name="Trazado 208111" d="M805.83,2264.509c.815,1.288,8.655-25.209-2.357-30.223s-5.185,18.3,2.357,30.223" transform="translate(-591.63 -2034.32)" fill="#3aa490"/>
        <path id="Trazado_208112" data-name="Trazado 208112" d="M504.054,2528.365c-1.367.686,20.447,15.938,27.771,3.918s-15.126-10.261-27.771-3.918" transform="translate(-289.422 -2298.287)" fill="#3aa490"/>
        <path id="Trazado_208113" data-name="Trazado 208113" d="M1114.735,2809.681c.482.761,5.114-14.9-1.393-17.86s-3.064,10.816,1.393,17.86" transform="translate(-926.986 -2542.374)" fill="#3aa490"/>
        <path id="Trazado_208114" data-name="Trazado 208114" d="M936.408,2965.6c-.807.405,12.082,9.418,16.41,2.316s-8.938-6.064-16.41-2.316" transform="translate(-748.403 -2698.357)" fill="#3aa490"/>
        <path id="Trazado_208115" data-name="Trazado 208115" d="M441.4,3092.081c21.092-19.28,41.9-27.2,55.639-30.452,14.869-3.517,24.861-2.472,24.96-2.461l.1-.887c-.1-.011-10.246-1.073-25.263,2.48a116.245,116.245,0,0,0-26.006,9.634,136.953,136.953,0,0,0-30.03,21.027Z" transform="translate(-272.624 -2785.292)" fill="#3aa490"/>
        <path id="Trazado_208116" data-name="Trazado 208116" d="M389.565,3002.244s25.223,5.069,23.871-3.807-23.871,3.807-23.871,3.807" transform="translate(-159.441 -2728.059)" fill="#3aa490"/>
        <path id="Trazado_208117" data-name="Trazado 208117" d="M542.019,3096.186c.051,1.37,15.082,12.087,17.405,6.5,2.48-5.958-17.405-6.5-17.405-6.5" transform="translate(-319.192 -2819.959)" fill="#3aa490"/>
        <path id="Trazado_208118" data-name="Trazado 208118" d="M561.466,2940.62c2.124-3.541,3.547-6.854,7.305-8,2.5-.765,6.215.06,4.37,3.344-3.935,7.008-15.646,11.274-15.646,11.274Z" transform="translate(-334.572 -2670.743)" fill="#3aa490"/>
        <path id="Trazado_208119" data-name="Trazado 208119" d="M822.285,3168.845c.2,1.064,17.445,10.133,14.735,2.652s-14.735-2.652-14.735-2.652" transform="translate(-621.867 -2884.738)" fill="#3aa490"/>
        <path id="Trazado_208120" data-name="Trazado 208120" d="M861.863,3044.465a13.735,13.735,0,0,1,6.48-7.02c1.921-.949,3.438-1.091,2.344,1.738-2.334,6.037-11.231,11.018-11.231,11.018Z" transform="translate(-658.927 -2765.899)" fill="#3aa490"/>
        <path id="Trazado_208121" data-name="Trazado 208121" d="M744.322,2957.5c.01.822,10.97-9.386,7.371-14.719s-7.466,7.114-7.371,14.719" transform="translate(-530.02 -2679.063)" fill="#3aa490"/>
        <path id="Trazado_208122" data-name="Trazado 208122" d="M679.91,3121.667c-.812-.053,4.832,12.991,11.515,9.386s-4-8.9-11.515-9.386" transform="translate(-465.381 -2843.167)" fill="#3aa490"/>
        <path id="Trazado_208123" data-name="Trazado 208123" d="M1032.26,3137.426c.006.486,6.483-5.546,4.356-8.7s-4.412,4.2-4.356,8.7" transform="translate(-840.335 -2848.904)" fill="#3aa490"/>
        <path id="Trazado_208124" data-name="Trazado 208124" d="M994.2,3234.437c-.48-.031,2.855,7.677,6.8,5.546s-2.365-5.258-6.8-5.546" transform="translate(-802.138 -2945.876)" fill="#3aa490"/>
        <path id="Trazado_208125" data-name="Trazado 208125" d="M1677.254,1607.159c-47.6-22.028-73.159-54.661-86.558-86.639a1.71,1.71,0,0,1,2.091-2.294c8.672,2.578,19.228,5.211,28.784,6.194a.547.547,0,0,0,.141-1.084,93.143,93.143,0,0,1-31.866-12.63,11.817,11.817,0,0,1-5.043-6.594,183.756,183.756,0,0,1-5.739-25.519,1.99,1.99,0,0,1,2.369-2.249,127.784,127.784,0,0,0,19.332,2.292.8.8,0,0,0,.322-1.54,218.953,218.953,0,0,1-20.011-9.8,7.473,7.473,0,0,1-3.866-6.054,198.346,198.346,0,0,1,.629-32.882,7.376,7.376,0,0,1,10.813-5.658q8.255,4.261,15.618,9.024a7.9,7.9,0,0,1,3.376,8.766l-2.53,8.914a.708.708,0,0,0,1.095.759,43.6,43.6,0,0,0,6.753-7.127,4.393,4.393,0,0,1,6.175-.614,169.816,169.816,0,0,1,23.28,22.63,15.76,15.76,0,0,1,2.25,17.122c-3.621,7.407-7.135,13.542-9.184,16.982a.949.949,0,0,0,1.329,1.271c6.045-3.836,11.372-10.344,15.942-17.859a1.6,1.6,0,0,1,2.7-.011c29.681,45.595,32.651,96.39,32.367,118.136a7.361,7.361,0,0,1-10.567,6.466" transform="translate(-1539.71 -1294.99)" fill="#a1cfc4"/>
        <path id="Trazado_208126" data-name="Trazado 208126" d="M1626.67,1420.6q13.638,22.758,27.155,45.585,6.743,11.422,13.456,22.863t13.336,22.932q6.639,11.483,13.161,23.031,3.264,5.772,6.487,11.568l3.208,5.8q1.6,2.9,3.187,5.815t3.152,5.833q1.566,2.922,3.113,5.854,3.1,5.864,6.064,11.792c1.975,3.954,3.9,7.936,5.681,11.978.226.5.441,1.013.662,1.519s.434,1.016.642,1.528q.636,1.53,1.214,3.083c.386,1.035.751,2.078,1.069,3.136a20.473,20.473,0,0,1,.731,3.229,20.509,20.509,0,0,0-.673-3.245c-.3-1.065-.646-2.117-1.013-3.16s-.76-2.078-1.168-3.106c-.2-.516-.413-1.026-.619-1.539s-.422-1.023-.64-1.531c-1.728-4.074-3.606-8.081-5.531-12.064-3.869-7.957-7.956-15.805-12.131-23.6q-3.129-5.85-6.331-11.661t-6.44-11.6q-6.491-11.571-13.129-23.059t-13.377-22.915q-6.75-11.421-13.573-22.8-3.419-5.684-6.851-11.36l-6.9-11.333q-6.926-11.314-13.944-22.572" transform="translate(-1585.307 -1293.863)" fill="#fff"/>
        <path id="Trazado_208127" data-name="Trazado 208127" d="M1759.795,2358.272a154.342,154.342,0,0,0,9.533,23.758,5.818,5.818,0,0,0,4.609,3.165,170.583,170.583,0,0,0,17.319.95.621.621,0,0,1,.236,1.2,99.406,99.406,0,0,1-14.551,4.227,1.549,1.549,0,0,0-1.015,2.332,143.06,143.06,0,0,0,11.861,16.546,9.2,9.2,0,0,0,5.617,3.194,72.477,72.477,0,0,0,26.673-.623.426.426,0,0,1,.227.821,129.187,129.187,0,0,1-22.51,4.3,1.331,1.331,0,0,0-.8,2.28,123.013,123.013,0,0,0,21.781,16.978h0a127.223,127.223,0,0,0,45.822,16.8q3.359.563,6.855.984h0q6.683.8,13.877,1.045a5.894,5.894,0,0,0,2.973-.678,5.821,5.821,0,0,0,1.46-1.1h0a5.76,5.76,0,0,0,.72-.914,5.58,5.58,0,0,0,.456-5.15c-1.573-3.854-3.822-8.907-6.841-14.69-1.91-3.659-4.128-7.611-6.679-11.734h0a176.673,176.673,0,0,0-12.236-17.381q-2.232-2.792-4.665-5.58c-2.406-2.753-4.962-5.49-7.675-8.18q-2.108-2.092-4.341-4.141-.942-.865-1.907-1.717a141.941,141.941,0,0,0-11.9-9.463q-.27-.193-.541-.383-1.126-.792-2.277-1.569a1.271,1.271,0,0,0-.449-.19,1.243,1.243,0,0,0-1.435.823,1.126,1.126,0,0,0-.046.193,64.173,64.173,0,0,1-1.337,6.728,34.375,34.375,0,0,1-4.666,10.912l-.023.031a.739.739,0,0,1-1.316-.539c.053-.382.108-.8.166-1.253.212-1.625.455-3.687.683-6.058.221-2.3.427-4.885.576-7.648a12,12,0,0,0-.325-3.5,12.272,12.272,0,0,0-3.733-6.214q-.309-.277-.637-.535a12.629,12.629,0,0,0-2.117-1.344q-4.929-2.481-10.238-4.617a132.7,132.7,0,0,0-13.318-4.532,3.42,3.42,0,0,0-4.239,2.315,34,34,0,0,1-2.675,7.159.551.551,0,0,1-1.016-.212l-.893-7.156a6.141,6.141,0,0,0-4.725-5.186c-.117-.028-.237-.052-.356-.073q-6.725-1.167-13.933-1.725a5.837,5.837,0,0,0-5,2.123,5.6,5.6,0,0,0-1.03,5.215" transform="translate(-1759.545 -2141.179)" fill="#a1cfc4"/>
        <path id="Trazado_208128" data-name="Trazado 208128" d="M1777.5,2369.117q16.652,12.214,33.261,24.481,8.294,6.149,16.576,12.312t16.517,12.389q8.245,6.212,16.427,12.506,4.094,3.143,8.165,6.315l4.063,3.182q2.03,1.593,4.052,3.2,4.044,3.205,8.045,6.465t7.935,6.6c2.62,2.229,5.208,4.5,7.72,6.845q.942.88,1.863,1.783t1.81,1.837c.592.623,1.172,1.258,1.723,1.918a15.94,15.94,0,0,1,1.51,2.088,15.961,15.961,0,0,0-1.462-2.126c-.536-.674-1.1-1.324-1.681-1.962s-1.173-1.262-1.777-1.876-1.214-1.223-1.831-1.823c-2.47-2.4-5.031-4.707-7.615-6.982-5.183-4.536-10.49-8.928-15.846-13.254q-2.008-1.624-4.026-3.235t-4.047-3.208q-4.055-3.2-8.134-6.364-8.164-6.325-16.409-12.544t-16.548-12.358q-8.31-6.13-16.659-12.206-4.179-3.031-8.366-6.053l-8.392-6.017q-8.41-5.991-16.873-11.908" transform="translate(-1776.948 -2157.756)" fill="#fff"/>
        <path id="Trazado_208129" data-name="Trazado 208129" d="M1893.21,2352.807l.822-.347a249.577,249.577,0,0,0-33.34-57.181,207.863,207.863,0,0,0-35.1-35.257,170.572,170.572,0,0,0-27.751-17.845,91.246,91.246,0,0,0-11.308-4.956l-.278.848a90.573,90.573,0,0,1,11.217,4.921,169.767,169.767,0,0,1,27.605,17.763c19.937,15.622,47.941,44.273,68.131,92.054" transform="translate(-1764.591 -2037.627)" fill="#3aa490"/>
        <path id="Trazado_208130" data-name="Trazado 208130" d="M2685.066,2140.249s-44.592-10.261-35.939-24.033,35.939,24.033,35.939,24.033" transform="translate(-2632.507 -1924.666)" fill="#3aa490"/>
        <path id="Trazado_208131" data-name="Trazado 208131" d="M2565.007,2445.614c-1.079,2.241-33.255,8.939-32.959-2.077.316-11.757,32.959,2.077,32.959,2.077" transform="translate(-2502.101 -2221.222)" fill="#3aa490"/>
        <path id="Trazado_208132" data-name="Trazado 208132" d="M2551.567,2145.277c-.867-7.469-.762-14.04-6.021-18.735-3.506-3.13-10.122-4.508-9.522,2.327,1.28,14.582,17.164,30.366,17.164,30.366Z" transform="translate(-2490.635 -1934.471)" fill="#3aa490"/>
        <path id="Trazado_208133" data-name="Trazado 208133" d="M2216.615,2747.227c-1.1,1.622-35.664,3.935-25.824-6.51s25.824,6.51,25.824,6.51" transform="translate(-2123.107 -2493.107)" fill="#3aa490"/>
        <path id="Trazado_208134" data-name="Trazado 208134" d="M2199.976,2529.019a25.371,25.371,0,0,0-5.4-16.489c-2.423-3-4.78-4.365-5.065,1.157-.609,11.779,10.192,26.666,10.192,26.666Z" transform="translate(-2106.517 -2285.988)" fill="#3aa490"/>
        <path id="Trazado_208135" data-name="Trazado 208135" d="M2342.479,2310.85c-.615,1.361-10.958-23.757-1.238-29.966s6.929,17.376,1.238,29.966" transform="translate(-2267.355 -2076.463)" fill="#3aa490"/>
        <path id="Trazado_208136" data-name="Trazado 208136" d="M2426.328,2598.6c1.355.514-17.292,18.042-25.5,7.087s12.966-11.844,25.5-7.087" transform="translate(-2351.622 -2364.272)" fill="#3aa490"/>
        <path id="Trazado_208137" data-name="Trazado 208137" d="M2039.587,2814.423c-.364.8-6.475-14.038-.732-17.708s4.094,10.268.732,17.708" transform="translate(-1935.521 -2546.655)" fill="#3aa490"/>
        <path id="Trazado_208138" data-name="Trazado 208138" d="M2089.137,2984.461c.8.3-10.219,10.661-15.071,4.188s7.662-7,15.071-4.188" transform="translate(-1985.317 -2716.728)" fill="#3aa490"/>
        <path id="Trazado_208139" data-name="Trazado 208139" d="M1901.248,3041.7l.683-.574a130.2,130.2,0,0,0-25.4-23.388,108.472,108.472,0,0,0-22.919-12.192c-13.453-5.15-22.914-5.374-23.009-5.375l-.016.892c.093,0,9.431.228,22.748,5.333,12.289,4.711,30.577,14.66,47.914,35.3" transform="translate(-1776.445 -2732.505)" fill="#3aa490"/>
        <path id="Trazado_208140" data-name="Trazado 208140" d="M2453.584,2947.9s-23.768,1.729-21.572-6.453,21.572,6.453,21.572,6.453" transform="translate(-2381.742 -2676.76)" fill="#3aa490"/>
        <path id="Trazado_208141" data-name="Trazado 208141" d="M2375.84,3067.612c-.194,1.281-15.182,9.547-16.723,4.018-1.645-5.9,16.723-4.018,16.723-4.018" transform="translate(-2297.498 -2793.674)" fill="#3aa490"/>
        <path id="Trazado_208142" data-name="Trazado 208142" d="M2370.883,2907.126c-1.576-3.584-2.531-6.871-5.869-8.4-2.225-1.02-5.729-.692-4.383,2.618,2.872,7.062,13.2,12.483,13.2,12.483Z" transform="translate(-2295.604 -2639.647)" fill="#3aa490"/>
        <path id="Trazado_208143" data-name="Trazado 208143" d="M2151.486,3158.676c-.3.977-17.148,7.425-13.851.719s13.851-.719,13.851-.719" transform="translate(-2053.355 -2874.633)" fill="#3aa490"/>
        <path id="Trazado_208144" data-name="Trazado 208144" d="M2146.313,3038.319a13.213,13.213,0,0,0-5.214-7.38c-1.667-1.124-3.048-1.44-2.344,1.352,1.5,5.956,9.161,11.71,9.161,11.71Z" transform="translate(-2049.906 -2759.787)" fill="#3aa490"/>
        <path id="Trazado_208145" data-name="Trazado 208145" d="M2277.617,2944.716c-.1.771-9.1-10.145-5.21-14.725s6.113,7.586,5.21,14.725" transform="translate(-2191.661 -2667.676)" fill="#3aa490"/>
        <path id="Trazado_208146" data-name="Trazado 208146" d="M2288.725,3105.308c.753.048-5.841,11.631-11.608,7.438s4.638-7.883,11.608-7.437" transform="translate(-2202.985 -2828.234)" fill="#3aa490"/>
        <path id="Trazado_208147" data-name="Trazado 208147" d="M2057.181,3146.905c-.058.456-5.375-5.995-3.078-8.7s3.612,4.483,3.078,8.7" transform="translate(-1951.703 -2857.687)" fill="#3aa490"/>
        <path id="Trazado_208148" data-name="Trazado 208148" d="M2063.745,3241.8c.445.029-3.452,6.873-6.859,4.395s2.741-4.658,6.859-4.395" transform="translate(-1958.394 -2952.565)" fill="#3aa490"/>
        <path id="Trazado_208149" data-name="Trazado 208149" d="M1191.493,214.277c.184,0,.367,0,.55-.007a23.071,23.071,0,0,0,10.522-2.9,38.409,38.409,0,0,0,10.657-9.067l.02-.023.015-.026a38.67,38.67,0,0,0,3.363-9.025,28.372,28.372,0,0,0,.77-8.582,18.646,18.646,0,0,0-2.914-8.918c-.9-1.375-1.764-2.637-2.6-3.857-5.81-8.472-9.011-13.138.081-22.388,9.647-9.815,7.044-19.188,4.031-30.042-.334-1.2-.68-2.449-1.012-3.708-.831-3.146.4-7.434,1.832-12.4a78.359,78.359,0,0,0,2.722-11.808,29.6,29.6,0,0,0-1-13.07,30.3,30.3,0,0,0-9.094-13.292c-5.126-4.593-12.335-8.793-21.427-12.481-6.7-2.72-12.951-2.975-18.57-.758-5.115,2.018-9.75,6.1-13.777,12.122-4.926,7.371-8.9,17.5-11.8,30.1a202.278,202.278,0,0,0-4.685,36.515,183.124,183.124,0,0,0,1.388,32.852c1.43,9.673,3.684,16.306,6.517,19.182,1.694,1.719,3.492,3.639,5.4,5.672,5.392,5.758,11.5,12.285,18.163,17.365,7.529,5.744,14.359,8.542,20.855,8.542m21.232-12.359c-6.462,7.6-13.425,11.55-20.7,11.728-6.515.159-13.386-2.591-21.011-8.408-6.618-5.049-12.711-11.555-18.086-17.3-1.906-2.036-3.707-3.959-5.407-5.684-2.7-2.741-4.954-9.43-6.344-18.835a182.5,182.5,0,0,1-1.382-32.735c1.133-27.858,7.256-52.642,16.381-66.3,8.355-12.5,18.984-16.248,31.593-11.132,38.324,15.549,32.609,35.4,28.435,49.9-1.455,5.053-2.711,9.418-1.836,12.731.333,1.263.68,2.51,1.015,3.715,2.962,10.667,5.519,19.88-3.875,29.437-4.455,4.533-6.247,8.231-5.811,11.993.409,3.53,2.727,6.908,5.66,11.186.835,1.217,1.7,2.476,2.593,3.845,3.678,5.629,3.151,12.351,2.062,17a38.2,38.2,0,0,1-3.29,8.853" transform="translate(-1032.64 -45.932)" fill="#452321"/>
        <path id="Trazado_208150" data-name="Trazado 208150" d="M1791.469,1255.132c12.485,10.3,55.447,2.431,68.422,2.546s-28.03-75.812-28.03-75.812-52.877,62.965-40.392,73.266" transform="translate(-1733.281 -1076.426)" fill="#281313"/>
        <path id="Trazado_208151" data-name="Trazado 208151" d="M1213.444,206.691s9.586-14.438,3.2-26.035-11.834-16.8-.473-26.745,7.811-20.355,5.444-33.136,28.213-39.763-21.988-64.674-64.638,109.052-50.2,126.094,36.686,52.189,64.023,24.5" transform="translate(-1041.958 -48.292)" fill="#452321"/>
        <path id="Trazado_208152" data-name="Trazado 208152" d="M1614.912,2918.612c.187.447,1.033,2.533,2.214,5.741q.334.9.7,1.916v0c.562,1.566,1.176,3.326,1.815,5.235,1.254,3.745,2.606,8.071,3.858,12.663l.009.034h0q.232.853.459,1.719.252.957.5,1.924.139.549.273,1.1h0q.322,1.318.626,2.649a106.768,106.768,0,0,1,2.809,19.3c.005.119.008.239.011.357q3.359.563,6.854.984h0a201.835,201.835,0,0,0,23.79,2.748l9.026.31c-.463-.849-1.3-2.346-2.487-4.333q-.284-.474-.593-.982h0c-.915-1.507-2-3.244-3.258-5.157-2.612-3.983-5.942-8.727-9.922-13.732-3.136-3.943-6.676-8.05-10.588-12.075h0a126.288,126.288,0,0,0-14.182-12.644q-.389-.3-.782-.587h0c-.11-.084-.221-.166-.332-.247a94.035,94.035,0,0,0-10.8-6.922" transform="translate(-1523.13 -2658.227)" fill="#f9646e"/>
        <path id="Trazado_208153" data-name="Trazado 208153" d="M1304.39,228.513s19.29,7.574,13.136,29.586-10.887,17.87-8.047,38.7c1.43,10.489-13.728,14.2-13.728,27.219,0,7.783,18.461,12.663,14.083,33.017s-99.762-15.029-99.289-29.112,78.106-112.9,93.845-99.407" transform="translate(-1137.934 -206.977)" fill="#281313"/>
        <path id="Trazado_208154" data-name="Trazado 208154" d="M1606.159,546.8s-13.491,11.953-12.781,16.45,16.923,24.023,23.432,29.112-67.81,8.757-67.81,8.757-5.562-29.349,3.077-38.935,11.834-11.6,15.74-13.964,19.763-23.55,19.053-33.728,19.29,32.307,19.29,32.307" transform="translate(-1466.448 -467.157)" fill="#f79071"/>
        <path id="Trazado_208155" data-name="Trazado 208155" d="M1238.652,332.422c2.789,10.319,9.892,20.174,9.892,20.174s9.7,14.438,15.74,17.041a8.134,8.134,0,0,0,4.33.772,5.327,5.327,0,0,0,4.309-3.848c.355-1.42.355-2.485.592-2.13a4.2,4.2,0,0,0,3.077,1.065c1.42-.118,1.538-2.722,1.538-2.722a9.453,9.453,0,0,0,2.367-.947c1.065-.473.592-2.959.828-3.787s3.533.173,5.089-.237c2.248-.592,1.065-10.3,1.065-10.3-.459-2.522,1.718-4.53,2.814-5.3a10.49,10.49,0,0,0,2.705-2.793,27.66,27.66,0,0,0,4.4-15.046,34.391,34.391,0,0,0-.35-5.306,26.281,26.281,0,0,0-.816-3.86c-56.076-15.287-61.831,1.508-57.584,17.222" transform="translate(-1119.011 -281.593)" fill="#f9ae8f"/>
        <path id="Trazado_208156" data-name="Trazado 208156" d="M967.969,1002.981q.019,1.061.063,2.142h0q.047,1.125.123,2.272c.006.107.014.215.022.322q.047.674.1,1.355a29.3,29.3,0,0,0,.5,3.431,39.238,39.238,0,0,0,1.34,4.832,56.618,56.618,0,0,0,2.62,6.275q.461.95.961,1.906s0,0,0,0c.838,1.606,1.753,3.219,2.729,4.831,1.539,2.539,3.232,5.077,5.027,7.581q1.446,2.021,2.973,4.009c1.474,1.922,2.99,3.815,4.525,5.659,4.574,5.5,9.3,10.59,13.5,14.866q1.076,1.1,2.1,2.121c1.989,1.986,3.816,3.752,5.394,5.25,2.08,1.969,3.732,3.473,4.76,4.4l9.026.311q1.335.019,2.676.018,10.342,0,20.328-.995a196.957,196.957,0,0,0,27.178-4.6q1.954-.283,3.86-.633,1.86-.338,3.677-.735-.134-.273-.269-.552c-2.775-5.653-6.78-12.82-11.016-20.067q-.9-1.541-1.812-3.082-.572-.966-1.146-1.93-.484-.815-.969-1.623c-1.22-2.041-2.434-4.052-3.621-6-1.28-2.1-2.525-4.135-3.708-6.053-5.406-8.761-9.5-15.133-9.5-15.133,1.972-1.408,18.6-17.185,18.6-17.185q1.109-1.936,2.052-3.81.785-1.563,1.462-3.079c6.409-14.363,5.707-25.919,2.678-35.094h0c-2.463-7.461-6.465-13.345-9.433-17.885a38.81,38.81,0,0,0-6.833-7.622c-1.172-1.069-2.326-2.1-3.422-3.212a23.957,23.957,0,0,1-4.285-5.7c-1.872-3.528-3.133-8.26-3.309-15.461-.523-21.428-21.859-25.645-31.174-35.484-4.113-4.343-6.343-8.034-7.46-11.062-2.513-6.812.605-10.271.605-10.271a42.413,42.413,0,0,1-8.151-3.811,58.388,58.388,0,0,1-9.887-7.537,49.168,49.168,0,0,1-4.092-4.274l-2.47,2.147-12.5,10.86s.623,7.865,1.512,19.141c1.35,17.14,3.314,42.162,4.637,59.426.425,5.538.783,10.276,1.034,13.7.568,7.748-1.082,15.2-3.267,23.108v0q-.376,1.357-.769,2.731c-.811,2.85-1.666,5.768-2.489,8.79a137.957,137.957,0,0,0-3.382,15.364,93.717,93.717,0,0,0-1.11,16.035" transform="translate(-879.01 -757.476)" fill="#f7848f"/>
        <path id="Trazado_208157" data-name="Trazado 208157" d="M1321.5,950.4a24.59,24.59,0,0,0-16.5,7.806c-8.284,9.112-30.141,34.511-46.627,36.094-20.947,2.012-29.035,23.774-24.692,44.955a34.508,34.508,0,0,1-1.843-8.264c-2.7-32.075,12.255-50.994,10.705-72.124s-7.183-92.269-7.183-92.269l12.5-10.86a53.6,53.6,0,0,1,6.562,2.127,81.217,81.217,0,0,1,11.484,5.7,20.97,20.97,0,0,0-1.6,1.836c-13.387,9.373-6.855,29.364-5.1,47.952,2.722,28.876-8.74,40.9,12.731,39.442,19.49-1.321,34.619-12.807,41.86-11.305Z" transform="translate(-1142.568 -779.395)" fill="#f9646e"/>
        <path id="Trazado_208158" data-name="Trazado 208158" d="M1237.547,380.629c2.789,10.319,9.892,20.174,9.892,20.174s9.7,14.438,15.74,17.041a8.134,8.134,0,0,0,4.33.772h-.007c-4.789.18-9.293-5.742-11.424-10.239s8.639-21.775,13.136-21.657,14.556-2.722,23.016-9.788a19.285,19.285,0,0,0,4.067-4.359,34.392,34.392,0,0,0-.35-5.306c-1.788-3.478-38.686-5.162-38.686-5.162s-13.043,12.19-19.715,18.524" transform="translate(-1117.906 -329.8)" fill="#f79071"/>
        <path id="Trazado_208159" data-name="Trazado 208159" d="M969.538,2564a36.038,36.038,0,0,0,2.592,3.487c4.043,5,11.715,13.627,20.709,24.974,3.593,4.533,7.4,9.5,11.267,14.844q2.432,3.362,4.891,6.918.9,1.3,1.794,2.625.969,1.432,1.934,2.89.4.6.8,1.208.969,1.477,1.933,2.983c3.822,5.97,7.566,12.254,11.087,18.795l.164.3q1.86-.338,3.676-.736-.134-.272-.269-.551c-2.775-5.653-6.78-12.82-11.016-20.067q-.9-1.541-1.812-3.083-.572-.965-1.146-1.929-.484-.815-.969-1.623c-1.22-2.041-2.434-4.052-3.621-6-1.279-2.1-2.525-4.135-3.707-6.053-5.406-8.761-9.5-15.133-9.5-15.133,1.972-1.408,18.6-17.185,18.6-17.185q1.109-1.937,2.052-3.811c-2.71,2.676-9.4,4.815-16.659,5.052a33.874,33.874,0,0,1-13.149-1.993c-7.286-2.819-12.458-5.335-15.871-7.036-5.9-2.944-6.548-3.454-3.774,1.12" transform="translate(-827.934 -2332.171)" fill="#f9646e"/>
        <path id="Trazado_208160" data-name="Trazado 208160" d="M1225.491,1038.85c5.549,44.983,11.058,64.278,18.31,67.9,6.48,3.24,23.314-.211,44.021-18.665s24.652-22.4,24.652-22.4,9.791.89,11.614-2.041a1.913,1.913,0,0,0,.219-.495c.986-3.521-1.408-4.226-.986-5.634s-.775-3.874-1.339-4.86a3.608,3.608,0,0,0-1.972-3.8s-1.128-3.944-2.818-4.649-4.226-2.676-5.634-2.535a46.528,46.528,0,0,1-4.981-.251,6.783,6.783,0,0,0-1.359-.031s-.986.986-.986,3.521,1.549,5.354-5.353,9.157c-5.52,3.04-28.7,17.135-37.775,22.664a2.17,2.17,0,0,1-3.293-2.022c1.174-14.962,4.046-65.256-8.479-84.314-.109-.166-.219-.328-.331-.489-2.877-4.164-6.541-6.72-11.188-6.906,0,0-18.95,2.121-12.323,55.848" transform="translate(-1144.951 -895.303)" fill="#f9ae8f"/>
        <path id="Trazado_208161" data-name="Trazado 208161" d="M1230.638,1038.85c5.549,44.983,11.058,64.278,18.31,67.9,6.48,3.24,23.313-.211,44.021-18.665s24.652-22.4,24.652-22.4,9.791.89,11.614-2.041c-2.223.151-11.938-3.721-15.284,2.656-3.787,7.219-47.2,41.516-63.345,37.5-9.064-2.253-14.8-40.225-11.509-57.187,3.479-17.932-1.122-22.208-.057-40.906.747-13.106,9.982-15.224,15.44-15.317-2.926-4.453-6.693-7.2-11.519-7.4,0,0-18.95,2.121-12.323,55.848" transform="translate(-1150.099 -895.303)" fill="#f79071"/>
        <path id="Trazado_208162" data-name="Trazado 208162" d="M1075.691,2598.313a1.56,1.56,0,0,1,1.276.758c.627,1.04.1,2.723-.922,4.468-2.012,3.432-2.059,4.238-3.314,6.391a27.8,27.8,0,0,0-2.016,4.508c-.423,1.127-2.817,2.817-2.817,2.817a5.223,5.223,0,0,1-3.663,3.521s-1.972,2.677-4.226,2.4c0,0-3.663,5.353-6.48,2.817s-2.676-6.2-.423-5.776c0,0-4.226-2.395-2.395-4.79s3.522-.7,3.522-.7-3.381-2.113-2.254-4.085,2.958-1.549,4.085-.845a2.25,2.25,0,0,1,1.268-2.254c1.549-.986,3.24-.282,5.212.423s4.607.783,5.452.079c.785-.654,3.81-9.854,7.693-9.723" transform="translate(-882.134 -2366.502)" fill="#f9ae8f"/>
        <path id="Trazado_208163" data-name="Trazado 208163" d="M1241.505,2708.687s2.395,1.55,3.24,0-1.831-2.254-1.831-2.254a8.994,8.994,0,0,0-1.409,2.254" transform="translate(-1066.869 -2464.978)" fill="#f79071"/>
        <path id="Trazado_208164" data-name="Trazado 208164" d="M1295.948,2730.587s1.69,1.69,2.817.845-.563-2.817-1.127-2.958-1.69,2.113-1.69,2.113" transform="translate(-1125.96 -2485.047)" fill="#f79071"/>
        <path id="Trazado_208165" data-name="Trazado 208165" d="M1309.867,2793.528s1.549,1.69,2.817.845-.845-2.677-.845-2.677a6.9,6.9,0,0,0-1.972,1.831" transform="translate(-1141.147 -2542.635)" fill="#f79071"/>
        <path id="Trazado_208166" data-name="Trazado 208166" d="M1315.186,2851.885s1.409.563,1.268,1.268a1.089,1.089,0,0,1-1.828.683c-.99-.683.56-1.951.56-1.951" transform="translate(-1144.917 -2597.453)" fill="#f79071"/>
        <path id="Trazado_208167" data-name="Trazado 208167" d="M1331.03,37.669s-11.909,15.291-27.294,16.238-13.728,19.053-23.077,21.42-12.335,27.487-25.621,16.982c-10.177-8.047-30.355,6.331-22.722,31.006,2.755,8.906,8.7,48.461-6.509,57.869-13.964,8.639-47.219-14.911-24.911-54.97,8.057-14.469,17.041-13.728,10.3-27.455s-7.936-37.116,8.157-42.006c13.679-4.157,23.281-8.093,22.849-19.058-.651-16.509,25.976-44.556,57.337-36.154,27.531,7.376,32.516,22.14,31.495,36.129" transform="translate(-1148.819 -0.004)" fill="#452321"/>
        <path id="Trazado_208168" data-name="Trazado 208168" d="M1427.811,868.77s.237-1.893-2.367-1.42a11.876,11.876,0,0,1-6.39-1.183,39.309,39.309,0,0,0,1.065,5.562c.71,1.775,4.852,2.249,4.615-1.538,0,0,3.077-.237,3.077-1.42" transform="translate(-1265.615 -788.891)" fill="#f9646e"/>
        <path id="Trazado_208169" data-name="Trazado 208169" d="M1318.819,579.92c.215-.042.2-.042.559-.279.524-.349.308-1.722-1.3-3.077a13.042,13.042,0,0,0-7.929-3.55,24.584,24.584,0,0,1,5.089,2.84c2.367,1.775,2.367,3.314,2.722,3.669a.959.959,0,0,0,.861.4" transform="translate(-1147.715 -521.893)" fill="#452321"/>
        <path id="Trazado_208170" data-name="Trazado 208170" d="M1378.35,651.464c-.346-.2-1.05-.654-1.2-1.137a.511.511,0,0,0-.227-.294c-.865-.508-4.294-2.573-5.107-3.865a.058.058,0,0,0-.106.037c.11.916.565,3.564,2.217,4.535a6.243,6.243,0,0,0,4.4.883.086.086,0,0,0,.026-.159" transform="translate(-1211.969 -588.495)" fill="#452321"/>
        <path id="Trazado_208171" data-name="Trazado 208171" d="M1382.351,830.643a.217.217,0,0,0,.212-.356,4.025,4.025,0,0,0-3.31-1.45c-1.865.2,1.645,1.451,3.1,1.806" transform="translate(-1216.821 -754.875)" fill="#f79071"/>
        <path id="Trazado_208172" data-name="Trazado 208172" d="M1325.14,67.762l-.55.76q-.284.387-.574.769-.58.765-1.179,1.515-1.2,1.5-2.464,2.944a74.665,74.665,0,0,1-5.338,5.512,52.417,52.417,0,0,1-5.962,4.813,31.46,31.46,0,0,1-6.737,3.588,20.249,20.249,0,0,1-3.674,1,17.206,17.206,0,0,1-1.892.214,16.448,16.448,0,0,0-1.926.236,13.4,13.4,0,0,0-3.681,1.232,13.093,13.093,0,0,0-3.151,2.272,18.439,18.439,0,0,0-2.462,3,37.2,37.2,0,0,0-1.956,3.332c-.6,1.135-1.171,2.284-1.769,3.412a27.81,27.81,0,0,1-1.966,3.263,9.86,9.86,0,0,1-2.657,2.62,6.766,6.766,0,0,1-1.684.767c-.074.023-.149.042-.223.063l-.238.065c-.08.023-.159.05-.239.075s-.158.055-.235.085a6.744,6.744,0,0,0-.9.428,9.046,9.046,0,0,0-1.591,1.166,14.707,14.707,0,0,0-1.354,1.41,31.05,31.05,0,0,0-2.281,3.132c-1.4,2.158-2.66,4.394-4.092,6.5a23.794,23.794,0,0,1-2.342,2.983,11.433,11.433,0,0,1-1.388,1.255,7.246,7.246,0,0,1-1.59.926,5.36,5.36,0,0,1-1.764.407,5.754,5.754,0,0,1-1.806-.2,10.129,10.129,0,0,1-3.3-1.683c-.127-.092-.252-.188-.376-.284l-.378-.3q-.392-.3-.812-.571a10.016,10.016,0,0,0-1.778-.883,10.233,10.233,0,0,0-1.918-.51,11,11,0,0,0-1.976-.138,12.743,12.743,0,0,0-3.871.709,15.685,15.685,0,0,0-3.516,1.74,19.487,19.487,0,0,0-5.475,5.533,23.279,23.279,0,0,0-3.127,7.125,27.644,27.644,0,0,0-.81,7.734,34.493,34.493,0,0,0,1.154,7.68c.081.313.17.625.258.936l.138.466c.045.15.088.3.128.449.161.6.289,1.219.4,1.84.218,1.244.362,2.507.466,3.773a69.354,69.354,0,0,1,.166,7.631c-.079,2.546-.279,5.089-.606,7.614a66.769,66.769,0,0,1-1.395,7.5,47.871,47.871,0,0,1-2.377,7.216,34.114,34.114,0,0,1-1.667,3.4,26.509,26.509,0,0,1-2.066,3.147,20.588,20.588,0,0,1-2.527,2.756,17.993,17.993,0,0,1-1.446,1.174,15.13,15.13,0,0,1-1.559.994,12.123,12.123,0,0,1-3.442,1.242,12.744,12.744,0,0,1-3.662.172,14.628,14.628,0,0,1-6.851-2.567,17.979,17.979,0,0,1-5.053-5.391,22.985,22.985,0,0,1-2.784-6.916,30.679,30.679,0,0,1-.731-7.48,41.538,41.538,0,0,1,.869-7.51,62.955,62.955,0,0,1,4.987-14.333c1.095-2.294,2.3-4.533,3.581-6.738q.957-1.654,1.967-3.279c.67-1.087,1.359-2.164,2.031-3.274.334-.557.665-1.122.97-1.716a11.838,11.838,0,0,0,.794-1.885,7.83,7.83,0,0,0,.362-2.078,9.21,9.21,0,0,0-.022-1.047c-.027-.345-.072-.684-.127-1.018a18.715,18.715,0,0,0-.448-1.95c-.177-.635-.375-1.257-.582-1.873-.416-1.231-.867-2.438-1.323-3.64-.226-.6-.467-1.206-.68-1.786s-.413-1.182-.594-1.782a37.172,37.172,0,0,1-.9-3.653,42.64,42.64,0,0,1-.768-7.5,43.872,43.872,0,0,1,.534-7.52,38.9,38.9,0,0,1,1.87-7.278,29.268,29.268,0,0,1,3.4-6.635,20.558,20.558,0,0,1,5.157-5.232,16.856,16.856,0,0,1,3.217-1.737,16.345,16.345,0,0,1,1.73-.593l.467-.134q.237-.066.473-.141c.315-.094.627-.2.939-.3a30.022,30.022,0,0,0,7.074-3.479,27.682,27.682,0,0,0,5.873-5.278,24.956,24.956,0,0,0,4.054-6.8A21.843,21.843,0,0,0,1240.7,67.4a18.916,18.916,0,0,0,.354-3.989l-.011-.482c-.005-.152,0-.305,0-.458,0-.305.012-.611.031-.917a18.237,18.237,0,0,1,.2-1.831,21.7,21.7,0,0,1,.911-3.592,28.5,28.5,0,0,1,3.375-6.656,34.686,34.686,0,0,1,4.872-5.717A35.559,35.559,0,0,1,1263.2,35.95a32.027,32.027,0,0,1,7.345-1.614,31.186,31.186,0,0,1,7.522.174,32.3,32.3,0,0,1,3.7.762,34.144,34.144,0,0,1,3.592,1.184c.295.114.586.235.878.356s.578.249.872.381l1.755.781,3.509,1.566c4.672,2.1,9.331,4.225,13.87,6.576,2.269,1.176,4.507,2.411,6.667,3.767,1.079.679,2.139,1.389,3.167,2.141.511.38,1.02.762,1.512,1.165.25.2.49.405.735.608s.482.415.714.631a24.027,24.027,0,0,1,2.62,2.76,17.507,17.507,0,0,1,1.113,1.542,15.547,15.547,0,0,1,.935,1.654,14.305,14.305,0,0,1,1.435,5.49,18.692,18.692,0,0,1,0,1.889m.151.053a16.584,16.584,0,0,0,.052-1.952A14.556,14.556,0,0,0,1324,60.241a15.739,15.739,0,0,0-.923-1.708,17.932,17.932,0,0,0-1.106-1.6,24.469,24.469,0,0,0-2.613-2.861,43.523,43.523,0,0,0-6.124-4.709c-2.158-1.4-4.391-2.685-6.652-3.905-4.53-2.429-9.171-4.624-13.819-6.791l-3.491-1.613-1.747-.8c-.289-.133-.588-.267-.884-.4s-.6-.257-.9-.378a35.188,35.188,0,0,0-3.69-1.267,33.417,33.417,0,0,0-3.817-.836,32.1,32.1,0,0,0-7.808-.274,33.3,33.3,0,0,0-7.653,1.6,36.832,36.832,0,0,0-13.34,7.995,36.159,36.159,0,0,0-5.124,5.925,29.8,29.8,0,0,0-3.6,7,23.277,23.277,0,0,0-1,3.845,19.851,19.851,0,0,0-.233,1.987c-.023.333-.035.668-.04,1,0,.168,0,.335,0,.5l.009.479a18.846,18.846,0,0,1-1.38,7.193,23.325,23.325,0,0,1-3.8,6.343,26.032,26.032,0,0,1-5.535,4.951,28.679,28.679,0,0,1-6.688,3.278c-.3.1-.592.2-.891.286q-.223.07-.448.133l-.457.131a18.037,18.037,0,0,0-1.9.652,18.53,18.53,0,0,0-3.536,1.906,22.056,22.056,0,0,0-5.582,5.655,30.926,30.926,0,0,0-3.581,7.019,40.012,40.012,0,0,0-1.932,7.594,45.478,45.478,0,0,0-.523,7.8,43.653,43.653,0,0,0,.833,7.775,38.729,38.729,0,0,0,.962,3.8q.289.938.631,1.861c.232.621.467,1.2.7,1.8.459,1.191.911,2.383,1.322,3.578.2.6.4,1.2.569,1.794a17.27,17.27,0,0,1,.422,1.792c.051.3.092.594.116.888a7.8,7.8,0,0,1,.023.874,6.351,6.351,0,0,1-.287,1.7,10.4,10.4,0,0,1-.69,1.656c-.277.548-.591,1.091-.913,1.635-.649,1.086-1.335,2.172-2.005,3.269s-1.333,2.2-1.973,3.322c-1.283,2.234-2.5,4.516-3.6,6.854a73.666,73.666,0,0,0-2.949,7.173,57.079,57.079,0,0,0-2.067,7.492,43.111,43.111,0,0,0-.862,7.746,31.916,31.916,0,0,0,.793,7.781,24.2,24.2,0,0,0,2.963,7.271,19.166,19.166,0,0,0,5.411,5.723A16.515,16.515,0,0,0,1206.11,204a15.053,15.053,0,0,0,3.882.9,13.882,13.882,0,0,0,3.99-.2,13.242,13.242,0,0,0,3.756-1.372,19.376,19.376,0,0,0,5.858-5.243,27.446,27.446,0,0,0,2.137-3.282,35.2,35.2,0,0,0,1.7-3.509,48.9,48.9,0,0,0,2.394-7.383,67.774,67.774,0,0,0,1.379-7.617q.478-3.839.576-7.71a70.238,70.238,0,0,0-.207-7.732c-.112-1.287-.265-2.572-.5-3.852-.116-.64-.252-1.278-.424-1.913-.043-.158-.09-.318-.138-.475l-.137-.455c-.088-.3-.176-.609-.257-.915a33.654,33.654,0,0,1-1.158-7.488,26.909,26.909,0,0,1,.753-7.511,22.5,22.5,0,0,1,2.988-6.9,18.75,18.75,0,0,1,5.24-5.349,14.973,14.973,0,0,1,3.348-1.678,12.055,12.055,0,0,1,3.657-.689,10.322,10.322,0,0,1,1.854.12,9.571,9.571,0,0,1,1.793.468,9.343,9.343,0,0,1,1.663.816q.393.246.762.53l.379.3c.13.1.26.2.393.293a13.361,13.361,0,0,0,1.669,1.041,8.951,8.951,0,0,0,1.851.726,6.378,6.378,0,0,0,2,.206,5.977,5.977,0,0,0,1.961-.462,7.842,7.842,0,0,0,1.718-1.01,12.009,12.009,0,0,0,1.454-1.327,24.362,24.362,0,0,0,2.386-3.068c1.44-2.141,2.686-4.385,4.067-6.531a30.546,30.546,0,0,1,2.226-3.09,14.221,14.221,0,0,1,1.3-1.367,8.552,8.552,0,0,1,1.5-1.11,6.254,6.254,0,0,1,.832-.4c.071-.028.144-.053.216-.079s.146-.048.219-.07l.225-.063c.08-.022.16-.043.239-.068a7.248,7.248,0,0,0,1.8-.829,8.679,8.679,0,0,0,1.524-1.251,12.689,12.689,0,0,0,1.249-1.5,28.237,28.237,0,0,0,1.983-3.326c.6-1.139,1.16-2.289,1.753-3.421a36.733,36.733,0,0,1,1.918-3.3,18.037,18.037,0,0,1,2.395-2.945,12.714,12.714,0,0,1,3.051-2.222,13.042,13.042,0,0,1,3.578-1.216,16.167,16.167,0,0,1,1.885-.242,17.572,17.572,0,0,0,1.924-.228,20.565,20.565,0,0,0,3.727-1.034,31.749,31.749,0,0,0,6.783-3.653,52.676,52.676,0,0,0,5.968-4.865,74.89,74.89,0,0,0,5.327-5.553q1.261-1.453,2.455-2.963.6-.755,1.175-1.524.289-.385.572-.774l.281-.391.139-.2.069-.1c.023-.035.043-.057.078-.118" transform="translate(-1143.02 -30.04)" fill="#452321"/>
        <path id="Trazado_208173" data-name="Trazado 208173" d="M1343.606,308.739a25.585,25.585,0,0,1-1.917,2.741,32.414,32.414,0,0,1-4.672,4.78,28.828,28.828,0,0,1-2.693,1.978c-.463.31-.945.588-1.424.871l-.733.4c-.121.069-.246.129-.371.19l-.374.184-.374.184-.382.168-.382.168c-.128.055-.253.115-.384.162l-.777.3c-.129.052-.261.1-.392.14l-.4.132-.4.132c-.131.045-.267.077-.4.117l-.8.226-.812.187c-.135.03-.27.063-.406.092l-.41.072c-.273.047-.546.1-.82.143l-.826.1-.413.051-.418.041-.836.081c-2.23.218-4.463.429-6.692.717-1.115.138-2.227.307-3.337.492s-2.215.414-3.314.672-2.186.574-3.259.938a29.355,29.355,0,0,0-3.148,1.3,22.9,22.9,0,0,0-2.938,1.745l-.689.51c-.226.175-.441.363-.662.545l-.165.137c-.056.045-.11.092-.161.142l-.313.293c-.207.2-.424.385-.615.6l-.59.623-.552.657c-.19.215-.355.449-.526.678l-.256.344c-.042.058-.086.114-.127.173l-.117.179-.47.717c-.082.118-.147.245-.22.368l-.214.371-.214.371c-.073.123-.131.253-.2.38l-.385.764c-.123.257-.232.521-.348.781s-.235.52-.33.788c-.2.532-.41,1.066-.588,1.592q-.558,1.584-1.13,3.16c-.765,2.1-1.56,4.189-2.426,6.243a64.622,64.622,0,0,1-2.869,6.016c-.265.487-.543.964-.825,1.44s-.578.941-.885,1.4-.621.909-.952,1.347c-.163.221-.334.435-.5.65s-.345.425-.526.63q-.533.623-1.116,1.194c-.192.193-.393.374-.592.558s-.407.357-.619.524a12.957,12.957,0,0,1-2.716,1.707,11.166,11.166,0,0,1-1.493.557c-.128.035-.254.077-.384.106l-.387.092-.391.074c-.13.027-.262.04-.393.06a11.735,11.735,0,0,1-3.186-.012c-.133-.014-.265-.038-.4-.06s-.265-.04-.4-.07l-.395-.082-.412-.09c-.555-.124-1.114-.232-1.675-.331s-1.123-.183-1.687-.26-1.13-.138-1.7-.186a37.446,37.446,0,0,0-6.833,0,30.358,30.358,0,0,0-6.726,1.378,22.038,22.038,0,0,0-6.175,3.136,17.581,17.581,0,0,0-2.6,2.35c-.2.215-.386.443-.576.667s-.366.46-.536.7a15.518,15.518,0,0,0-.96,1.481,15.93,15.93,0,0,0-.792,1.577,16.455,16.455,0,0,0-.621,1.649c-.095.278-.167.562-.249.844s-.148.562-.2.865c-.028.149-.062.3-.084.446l-.061.444c-.01.074-.021.148-.029.222l-.019.22-.037.441a27.766,27.766,0,0,0,.02,3.464c.071,1.141.184,2.271.325,3.395.567,4.493,1.443,8.9,2.288,13.3.431,2.2.861,4.4,1.277,6.595s.819,4.4,1.193,6.6.717,4.409,1.009,6.62c.142,1.106.277,2.213.393,3.321l.089.831.078.832c.056.555.095,1.11.141,1.665q.257,3.331.224,6.67c-.021,1.111-.056,2.222-.149,3.329-.035.555-.1,1.105-.157,1.658-.033.275-.072.55-.108.825l-.055.412-.068.41a29.668,29.668,0,0,1-.691,3.251,22.968,22.968,0,0,1-1.088,3.137l-.166.381-.083.19-.093.186-.373.743-.413.721c-.066.122-.143.237-.219.353l-.227.348a16.216,16.216,0,0,1-2.12,2.567l.109.118a16.73,16.73,0,0,0,4.018-5.411,22.377,22.377,0,0,0,1.239-3.163,30.238,30.238,0,0,0,.83-3.293l.084-.416.07-.418c.046-.279.095-.558.137-.838.074-.56.16-1.12.214-1.683.13-1.124.2-2.252.259-3.38.018-.564.048-1.129.05-1.693l.01-.847,0-.846,0-.423-.01-.423-.02-.846c-.021-.563-.04-1.127-.068-1.69-.219-4.505-.776-8.978-1.438-13.424s-1.483-8.862-2.292-13.269c-.408-2.2-.816-4.4-1.194-6.6l-.281-1.65c-.089-.55-.183-1.1-.266-1.65-.173-1.1-.331-2.2-.465-3.3s-.253-2.2-.324-3.295a26.124,26.124,0,0,1-.035-3.253l.032-.4.016-.2c.007-.065.016-.13.024-.195l.049-.389c.018-.129.046-.253.068-.38.04-.249.113-.514.172-.773s.136-.516.22-.769a14.822,14.822,0,0,1,.549-1.5,14.365,14.365,0,0,1,.7-1.431,15.41,15.41,0,0,1,4.193-4.776,20.485,20.485,0,0,1,5.729-2.993,28.983,28.983,0,0,1,6.4-1.379,36.123,36.123,0,0,1,6.592-.067c.549.042,1.1.1,1.645.167s1.093.146,1.636.238,1.086.192,1.625.308l.41.086.428.086c.142.03.288.048.432.073s.288.048.434.062a12.951,12.951,0,0,0,3.514-.016c.145-.024.292-.04.437-.071l.434-.086.43-.105c.144-.033.284-.081.426-.121a12.382,12.382,0,0,0,1.649-.63,14.123,14.123,0,0,0,2.947-1.882c.227-.182.442-.376.659-.567s.424-.394.626-.6q.613-.611,1.169-1.27c.189-.217.365-.442.546-.665s.352-.451.52-.683c.341-.459.664-.929.977-1.405s.609-.961.9-1.449.568-.983.834-1.483a65.676,65.676,0,0,0,2.856-6.142c.854-2.085,1.634-4.194,2.381-6.311q.56-1.588,1.1-3.18c.177-.536.371-1.047.561-1.566.089-.261.2-.511.311-.765s.212-.508.328-.757l.364-.74c.063-.122.117-.249.186-.368l.2-.359.2-.359c.069-.119.13-.242.208-.355l.444-.693.111-.173c.038-.056.08-.111.12-.167l.242-.332c.162-.221.318-.447.5-.654l.523-.635.559-.6c.181-.206.387-.388.583-.579l.3-.285c.048-.049.1-.094.153-.137l.157-.133c.21-.176.415-.359.629-.53l.656-.5a22.159,22.159,0,0,1,2.816-1.717,28.616,28.616,0,0,1,3.05-1.3c1.045-.367,2.111-.679,3.188-.957s2.169-.5,3.266-.7,2.2-.376,3.307-.526c2.213-.311,4.439-.548,6.667-.791l.835-.091.418-.045.42-.056.841-.114c.279-.048.556-.1.834-.155l.417-.078c.138-.031.275-.065.413-.1l.824-.2.813-.239c.135-.042.272-.076.405-.123l.4-.139.4-.139c.134-.046.267-.092.4-.147l.786-.315c.132-.05.259-.112.388-.169l.386-.175.385-.175.378-.191.378-.191c.126-.063.252-.126.374-.2l.738-.413c.482-.292.968-.579,1.432-.9a29.1,29.1,0,0,0,2.7-2.035,32.64,32.64,0,0,0,4.644-4.88,25.737,25.737,0,0,0,1.9-2.789Z" transform="translate(-1165.282 -281.195)" fill="#2d1716"/>
        <path id="Trazado_208174" data-name="Trazado 208174" d="M1403.3,242.894c-1.274.692-2.591,1.314-3.917,1.9s-2.675,1.133-4.036,1.64-2.737.969-4.126,1.389l-.521.156-.26.078-.262.073-1.048.29c-.7.177-1.4.363-2.112.516-.7.168-1.417.3-2.127.444l-1.07.184c-.179.029-.356.064-.536.089l-.537.076-.537.076c-.179.025-.358.052-.538.069l-1.078.117c-.179.022-.36.035-.54.048l-.54.04c-.36.026-.72.058-1.081.065l-1.082.041c-.361,0-.721,0-1.082,0h-.541l-.54-.023c-.36-.017-.72-.027-1.079-.05l-1.076-.094-.269-.024-.134-.012-.134-.018-.534-.073-.534-.072c-.178-.024-.357-.045-.533-.082l-1.059-.2-.265-.049c-.088-.019-.175-.042-.262-.062l-.523-.127-.523-.126-.262-.064-.268-.069c-.713-.191-1.438-.341-2.167-.471s-1.467-.216-2.207-.276a19.867,19.867,0,0,0-2.23-.051,19.369,19.369,0,0,0-2.229.2,17.935,17.935,0,0,0-6.321,2.221,20.525,20.525,0,0,0-3.6,2.666,25.968,25.968,0,0,0-3,3.3,38.609,38.609,0,0,0-4.471,7.641c-.3.671-.593,1.349-.871,2.03l-.205.514c-.068.176-.136.351-.2.528-.129.353-.244.707-.357,1.061-.442,1.419-.794,2.845-1.133,4.266s-.666,2.835-1.021,4.235-.74,2.784-1.205,4.126c-.231.671-.483,1.332-.764,1.974a16.383,16.383,0,0,1-.943,1.851,8.267,8.267,0,0,1-2.659,2.885c-.068.041-.138.079-.206.119l-.1.059-.106.053-.213.105-.219.091c-.037.015-.073.032-.109.046l-.112.039c-.075.025-.149.053-.224.077-.154.039-.3.092-.461.119l-.234.049-.238.035-.119.018c-.04,0-.08.007-.12.011l-.241.021q-.243.012-.488.014l-.246-.006c-.082,0-.164,0-.247-.012-.165-.014-.33-.021-.5-.046l-.249-.032c-.083-.01-.166-.028-.249-.042l-.249-.044c-.083-.016-.166-.037-.249-.055l-.249-.056-.272-.064c-.734-.174-1.472-.313-2.213-.423a35.524,35.524,0,0,0-8.9-.075,40.882,40.882,0,0,0-4.375.741c-.721.164-1.439.345-2.149.552s-1.413.439-2.109.692a27.763,27.763,0,0,0-4.051,1.824,19.325,19.325,0,0,0-3.636,2.571,11.776,11.776,0,0,0-2.7,3.541,8.763,8.763,0,0,0-.69,2.12,8.351,8.351,0,0,0-.109,2.207l.161-.007a8.4,8.4,0,0,1,1.061-4.1,11.374,11.374,0,0,1,2.759-3.2,18.664,18.664,0,0,1,3.6-2.285,28.141,28.141,0,0,1,3.974-1.595,38.641,38.641,0,0,1,8.408-1.644,39.121,39.121,0,0,1,4.278-.129,31.354,31.354,0,0,1,4.238.381c.7.111,1.389.25,2.069.42l.542.131c.095.022.188.046.284.066l.288.055c.1.017.191.039.289.052l.292.041c.194.031.392.044.589.062a8.206,8.206,0,0,0,2.406-.156,7.291,7.291,0,0,0,2.275-.914,8.285,8.285,0,0,0,1.837-1.567,11.732,11.732,0,0,0,1.364-1.9,17.187,17.187,0,0,0,1.012-2.049c.293-.7.55-1.4.782-2.108.916-2.836,1.479-5.715,2.107-8.548.314-1.415.638-2.822,1.041-4.189.1-.34.207-.68.323-1.013.056-.168.117-.332.177-.5l.192-.5c.26-.671.532-1.337.818-2a37.387,37.387,0,0,1,4.234-7.452,24.823,24.823,0,0,1,2.825-3.19,19.427,19.427,0,0,1,3.372-2.567,16.946,16.946,0,0,1,3.865-1.706,17.138,17.138,0,0,1,2.065-.479,18.4,18.4,0,0,1,2.114-.22,18.961,18.961,0,0,1,2.132.016c.711.047,1.421.117,2.127.233s1.409.249,2.1.424l.261.063.269.061.54.122.54.122c.09.02.18.042.27.06l.272.047,1.09.184c.181.035.365.053.547.075l.548.065.548.064.137.016.138.01.275.019,1.1.077c.367.016.735.021,1.1.031l.551.014.551-.008c.367-.007.734-.01,1.1-.02l1.1-.061c.366-.015.731-.053,1.1-.086l.547-.05c.182-.016.365-.033.546-.058l1.09-.137c.182-.021.362-.05.543-.079l.542-.086.542-.086c.181-.028.36-.066.54-.1l1.078-.2c.714-.158,1.43-.3,2.138-.486.712-.167,1.414-.367,2.119-.557l1.05-.311.263-.078.261-.083.521-.166q2.084-.671,4.123-1.47t4.018-1.729c1.32-.62,2.624-1.269,3.893-1.993Z" transform="translate(-1230.158 -221.224)" fill="#2d1716"/>
        <path id="Trazado_208175" data-name="Trazado 208175" d="M1425.5,1063c.144-.074,6.476-3.233,11.074,8.232,4.653,11.6,2.324,70.115,3.422,76.386,1.586,9.057,23.506-8.922,23.506-8.922s24.058-12.456,25.8-16.706c1.262-3.074.743-7.766,1.885-10.079a6.808,6.808,0,0,0-1.359-.031s-.986.986-.986,3.521,1.549,5.354-5.353,9.157c-5.52,3.04-28.7,17.135-37.775,22.664a2.17,2.17,0,0,1-3.293-2.022c1.174-14.962,4.046-65.256-8.479-84.314-.109-.166-.219-.328-.331-.489a12.015,12.015,0,0,0-8.115,2.6" transform="translate(-1329.561 -965.795)" fill="#f79071"/>
      </g>
    </g>
    <rect id="Rect치ngulo_215698" data-name="Rect치ngulo 215698" width="344" height="344" transform="translate(-5994 82)" fill="none"/>
  </g>
</svg>
