<svg xmlns="http://www.w3.org/2000/svg" width="19.658" height="25" viewBox="0 0 19.658 25">
  <path id="Trazado_202634" data-name="Trazado 202634" d="M227.415,46.915c0-4.544-3.383-7.73-8.767-7.73-6.346,0-10.891,4.247-10.891,10.347,0,3.994,2.615,6.937,6.9,7.591l-.422,2.149h-2.53l-.612,3.1,2.532,0-.356,1.811h3.16l.357-1.809,2.861,0,.613-3.1H217.4l.409-2.075c5.665-.535,9.6-4.6,9.6-10.283m-13.78,2.272c0-2.84,1.654-5.285,4.519-5.285a3.144,3.144,0,0,1,3.383,3.359c0,2.84-1.654,5.285-4.519,5.285a3.145,3.145,0,0,1-3.383-3.359" transform="translate(-207.757 -39.185)" fill="#f55d8b"/>
</svg>
