<svg xmlns="http://www.w3.org/2000/svg" xmlns:xlink="http://www.w3.org/1999/xlink" width="503.114" height="355.674" viewBox="0 0 503.114 355.674">
  <defs>
    <clipPath id="clip-path">
      <rect id="Rectángulo_215662" data-name="Rectángulo 215662" width="392.161" height="300.428" fill="none"/>
    </clipPath>
    <clipPath id="clip-path-2">
      <rect id="Rectángulo_215661" data-name="Rectángulo 215661" width="392.161" height="300.429" fill="none"/>
    </clipPath>
    <clipPath id="clip-path-3">
      <rect id="Rectángulo_215660" data-name="Rectángulo 215660" width="11.038" height="35.807" fill="none"/>
    </clipPath>
  </defs>
  <g id="Grupo_172629" data-name="Grupo 172629" transform="translate(-811.886 -527)">
    <rect id="BG" width="503.114" height="355.674" transform="translate(811.886 527)" fill="#ecf5f7"/>
    <g id="Grupo_172404" data-name="Grupo 172404" transform="translate(912.176 574.179)">
      <g id="Grupo_172403" data-name="Grupo 172403" clip-path="url(#clip-path)">
        <g id="Grupo_172402" data-name="Grupo 172402" transform="translate(0 -0.001)">
          <g id="Grupo_172401" data-name="Grupo 172401" clip-path="url(#clip-path-2)">
            <path id="Trazado_221158" data-name="Trazado 221158" d="M576.158,1482.417c-2.621.011-238.283-.689-263.163-.235-30.133.55-50.164,30.84-.279,33.6,39.229,2.171,103.522,2.629,154.292,7.741,153.729,15.482,203.559-41.491,109.149-41.107" transform="translate(-233.552 -1225.763)" fill="#d1eaf0"/>
            <path id="Trazado_221159" data-name="Trazado 221159" d="M1284,744.818c8.854-1.317,14.249-11.7,12.526-20.488s-8.737-15.685-16.52-20.107a55.828,55.828,0,0,0-18.156-6.477c-8.473-1.444-17.22-.917-25.621-2.733s-16.945-6.782-19.48-15c-2.123-6.878.359-14.695-2.435-21.329-2.481-5.893-8.576-9.441-14.638-11.477a54.2,54.2,0,0,0-22.238-2.574c-5.6.525-11.1,1.922-16.712,2.189s-11.6-.758-15.84-4.443c-1.982-1.721-3.475-3.924-5.239-5.867a27.985,27.985,0,0,0-21.932-9c-8.156.449-18.1,10.022-19.713,18.689-2.478,13.322,2.369,10.213,2.369,21.638,0,6.993-4.346,13.378-2.759,19.986,2.5,10.393,11.207,10.469,15.724,12.959s12.025,15.837,13.324,21.3c2.764,11.624-3.491,24.024-.546,35.6a23.437,23.437,0,0,0,13.371,15.558c15.6,6.594,35.014-4.86,49.957,3.113,5.979,3.19,10.121,9.031,15.833,12.678a26.063,26.063,0,0,0,26.7.456c7.52-4.448,12.914-12.794,21.458-14.616,5.227-1.115,10.594.492,15.9,1.139s11.472-.054,14.645-4.356c4.384-5.945.4-14.155-2.906-20.76-.808-1.615-1.5-3.771-.222-5.048.8-.8,2.037-.869,3.151-1.035" transform="translate(-907.528 -518.974)" fill="#3b4954"/>
            <path id="Trazado_221160" data-name="Trazado 221160" d="M911.292,820.477a4.553,4.553,0,0,1-3.249-1.684s0,0,0,0a17.226,17.226,0,0,1-3.479-5.66c-3.563-9.72-4.244-21.623-4.307-28.461,0-.408,0-.8,0-1.163a.049.049,0,0,1,0-.02c0-2.709.1-4.367.1-4.367-.991-5.936.693-8.533,6.916-9.208s9.926-1.58,10.01,4.39c.155,10.785,2.017,17.994,5.26,27.426,1.454,4.232-5.074,18.931-11.245,18.749" transform="translate(-744.448 -636.376)" fill="#fcd2c3"/>
            <path id="Trazado_221161" data-name="Trazado 221161" d="M903.55,693.888c1.28-1.634,5.418-13.366,3.579-13.954-2.944-.942-4.652,5.973-5.811,4.549s.361-12.7-2.318-14.017-1.473,7.512-2.261,7.437-.1-8.949-2.42-9.919-1.617,8.6-2.35,10.664-.23-8.368-2.4-7.843-.775,11.1-1.9,10.993-1.23-5.508-2.4-4.876c-2.566,1.391.96,16.763,2.958,18.072s15.326-1.106,15.326-1.106" transform="translate(-731.446 -552.422)" fill="#fcd2c3"/>
            <path id="Trazado_221162" data-name="Trazado 221162" d="M949.57,775.955c-1.746,1.254-4.184,1.751-5.125,3.86a4.746,4.746,0,0,0,.443,4.687c.159.225.484-.052.327-.275a4.38,4.38,0,0,1-.128-4.7c.678-1.116,1.631-1.346,2.693-1.927a20.113,20.113,0,0,0,2.066-1.318c.224-.161-.053-.486-.275-.327" transform="translate(-780.789 -641.745)" fill="#f4bda5"/>
            <path id="Trazado_221163" data-name="Trazado 221163" d="M975.2,808.758a6.464,6.464,0,0,1-4.742,4.935c-.261.078-.185.5.08.42A6.88,6.88,0,0,0,975.6,808.9c.067-.264-.335-.409-.4-.143" transform="translate(-802.513 -668.794)" fill="#f4bda5"/>
            <path id="Trazado_221164" data-name="Trazado 221164" d="M899.232,813.92c.922,2.129,3.217,3.5,5.357,4.1.263.073.409-.328.143-.4-2-.558-4.244-1.872-5.114-3.881-.109-.253-.495-.069-.385.183" transform="translate(-743.725 -672.928)" fill="#f4bda5"/>
            <g id="Grupo_172400" data-name="Grupo 172400" transform="translate(155.805 148.295)" opacity="0.6">
              <g id="Grupo_172399" data-name="Grupo 172399">
                <g id="Grupo_172398" data-name="Grupo 172398" clip-path="url(#clip-path-3)">
                  <path id="Trazado_221165" data-name="Trazado 221165" d="M912.091,893.418a4.554,4.554,0,0,1-3.249-1.684,0,0,0,0,0,0,0,17.227,17.227,0,0,1-3.479-5.66c-3.563-9.72-4.244-21.623-4.307-28.46,1.776.925,4,2.9,5.134,7.125,2.068,7.7,2.5,20.8,5.24,26.1a6.12,6.12,0,0,1,.664,2.586" transform="translate(-901.053 -857.611)" fill="#ffe3dc"/>
                </g>
              </g>
            </g>
            <path id="Trazado_221166" data-name="Trazado 221166" d="M934.963,910.09a16.552,16.552,0,0,1-4.984,1.762c-1.757.21-4.238-4.883-4.544-6.6-.291-1.634-.506-8.125-3.951-5.794-2.9,1.96-6.108,6.051-8.823,8.256a32.917,32.917,0,0,1-5.513,3.042c-1.856.99-3.667,2.4-4.27,4.417a8.047,8.047,0,0,0,.177,4.326,28.009,28.009,0,0,0,5.433,10.212,17.2,17.2,0,0,0,5.034,4.547,19.238,19.238,0,0,0,7.347,1.851,48.906,48.906,0,0,0,15.9-.685,27.2,27.2,0,0,0,13.808-7.594l14.272-27.837a137.956,137.956,0,0,0-29.89,10.1" transform="translate(-746.57 -743.51)" fill="#fc9470"/>
            <path id="Trazado_221167" data-name="Trazado 221167" d="M794.481,1390.85c-1.3,15.534-2.388,26.9-2.831,27.72-1.482,2.748-39.336,2.419-43.016-.112s17.476-9.818,21.687-21.047a25.965,25.965,0,0,0,.94-6.844c.283-5.946,24.006-9.087,23.22.283" transform="translate(-618.83 -1145.442)" fill="#efbeaf"/>
            <path id="Trazado_221168" data-name="Trazado 221168" d="M748.737,1579.392a148.23,148.23,0,0,1,39.547.957,1.613,1.613,0,1,0,.435-3.177,152.221,152.221,0,0,0-40.537-.976c-2.339.259-1.8,3.457.555,3.2" transform="translate(-617.565 -1302.892)" fill="#b24732"/>
            <path id="Trazado_221169" data-name="Trazado 221169" d="M859.932,1466.978a42.918,42.918,0,0,0,14.189,2.892c4.065.217,7.977.046,11.565-2.054,1.779-1.042-.177-3.585-1.939-2.554-3.246,1.9-7.3,1.6-10.9,1.32a37.943,37.943,0,0,1-11.648-2.552c-1.909-.787-3.173,2.161-1.264,2.948" transform="translate(-710.454 -1210.767)" fill="#b24732"/>
            <path id="Trazado_221170" data-name="Trazado 221170" d="M782.7,1526.912c3.876,1.377,7.166,4.527,9.521,7.809,1.205,1.68,3.757-.262,2.554-1.939-2.65-3.693-6.452-7.269-10.811-8.818-1.938-.688-3.21,2.256-1.264,2.948" transform="translate(-646.554 -1260.362)" fill="#b24732"/>
            <path id="Trazado_221171" data-name="Trazado 221171" d="M1122.551,901.363s-8.361,5.515-11.543,9.78c-5.792,7.762-11.907,20.24-20.545,25.44-3.154,1.9,15.285,12.011,15.285,12.011s10.431-4.52,15.248-13.656,1.555-33.575,1.555-33.575" transform="translate(-901.605 -745.503)" fill="#fc9470"/>
            <path id="Trazado_221172" data-name="Trazado 221172" d="M979.468,1134.974s-56.378-59.31-89.252-53.4c-21.682,3.9-20.784,51.724-21.351,63.281-.241,4.92,25.2-2.108,27.5-4.671a108.818,108.818,0,0,0,9.29-12.165s13.219,37.651,36.559,40.615c35.352,4.49,39.586-15.9,37.249-33.661" transform="translate(-718.624 -894.211)" fill="#5aa395"/>
            <path id="Trazado_221173" data-name="Trazado 221173" d="M856.486,1409.89c-1.3,15.534-2.388,26.9-2.831,27.72-1.482,2.749-39.336,2.419-43.016-.112s17.476-9.818,21.687-21.047a25.973,25.973,0,0,0,.939-6.844c.283-5.946,24.007-9.087,23.221.283" transform="translate(-670.114 -1161.19)" fill="#fcd2c3"/>
            <path id="Trazado_221174" data-name="Trazado 221174" d="M1230.222,822.317a6,6,0,0,1-7.113-2.307l-9.746-15.725a5.7,5.7,0,0,1,2.243-7.893,6.088,6.088,0,0,1,8.243,1.786l9.746,15.725a5.7,5.7,0,0,1-2.243,7.893,6.52,6.52,0,0,1-1.13.521" transform="translate(-1002.894 -657.951)" fill="#fcd2c3"/>
            <path id="Trazado_221175" data-name="Trazado 221175" d="M1235.136,877.937c6.714-4.662,30.959-.817,38.236,14.29,37.911,78.711,13.562,77.657,13.562,77.657s-21.377,2.6-45.677-24.415c0,0-5.148-5.14-17.182-23.577,0,0-7.734-30.907,11.061-43.956" transform="translate(-1011.111 -724.587)" fill="#fc9470"/>
            <path id="Trazado_221176" data-name="Trazado 221176" d="M1043.442,1134.974s-56.379-59.31-89.252-53.4c-21.682,3.9-23.532,52.865-24.1,64.423-.241,4.919,26.727,2.009,28.064-1.171,3.694-8.781,6.167-22.114,6.167-22.114s18.531,42.958,41.87,45.922c35.352,4.49,39.586-15.9,37.249-33.661" transform="translate(-769.263 -894.211)" fill="#66b1a5"/>
            <path id="Trazado_221177" data-name="Trazado 221177" d="M992.8,1120.036c-1.632-2.022-14.682-10.7-15.878-8.774-1.916,3.088,5.971,7.36,3.947,8.227s-15.22-4.64-17.515-1.981,8.368,5.085,8.368,5.085-7.638-3.255-8.5-1.824c-1.363,2.262,5.188,5.77,5.188,5.77s-4.136-2.754-5.049-1.529c-1.358,1.822,5.3,5.568,5.3,5.568s.555,1.268,1.169,2.318c1.8,3.083,18.14,7.088,20.248,5.215s2.724-18.076,2.724-18.076" transform="translate(-796.51 -918.877)" fill="#fcd2c3"/>
            <path id="Trazado_221178" data-name="Trazado 221178" d="M974.673,1164.638l.005,0c.362.131,8.845,3.241,10.361,3.116a.136.136,0,0,0,.124-.146.142.142,0,0,0-.146-.124c-1.458.12-10.157-3.069-10.244-3.1a.138.138,0,0,0-.175.08.136.136,0,0,0,.075.172" transform="translate(-806.069 -963.038)" fill="#f4bda5"/>
            <path id="Trazado_221179" data-name="Trazado 221179" d="M986.374,1195.971a29.225,29.225,0,0,0,4.2,1.447.136.136,0,0,0,.085-.257l-.021-.007a37.767,37.767,0,0,1-6.813-2.65.018.018,0,0,0-.008-.006.134.134,0,0,0-.173.064.132.132,0,0,0,.059.181c.021.011,1.149.586,2.674,1.228" transform="translate(-813.542 -987.942)" fill="#f4bda5"/>
            <path id="Trazado_221180" data-name="Trazado 221180" d="M996.938,1224.728a7.556,7.556,0,0,0,2.68.678.133.133,0,0,0,.135-.135.131.131,0,0,0-.135-.135,10.035,10.035,0,0,1-3.6-1.142.034.034,0,0,0-.012-.007.136.136,0,0,0-.117.244c.039.022.46.248,1.051.5" transform="translate(-823.625 -1012.331)" fill="#f4bda5"/>
            <path id="Trazado_221181" data-name="Trazado 221181" d="M1405.405,1230.264c.377.82,10.791,32.7,32.807,32.566l-1.117-20.289Z" transform="translate(-1162.39 -1017.532)" fill="#fc9470"/>
            <path id="Trazado_221182" data-name="Trazado 221182" d="M816.025,1597.444a148.219,148.219,0,0,1,39.547.956,1.613,1.613,0,1,0,.435-3.177,152.225,152.225,0,0,0-40.537-.976c-2.339.259-1.8,3.457.555,3.2" transform="translate(-673.217 -1317.822)" fill="#c65638"/>
            <path id="Trazado_221183" data-name="Trazado 221183" d="M927.22,1485.029a42.911,42.911,0,0,0,14.189,2.892c4.065.217,7.977.046,11.565-2.054,1.779-1.041-.177-3.585-1.939-2.554-3.246,1.9-7.3,1.6-10.9,1.32a37.943,37.943,0,0,1-11.648-2.552c-1.909-.786-3.173,2.161-1.264,2.948" transform="translate(-766.107 -1225.697)" fill="#c65638"/>
            <path id="Trazado_221184" data-name="Trazado 221184" d="M849.984,1544.963c3.876,1.378,7.167,4.527,9.521,7.809,1.205,1.68,3.757-.262,2.554-1.939-2.65-3.693-6.452-7.269-10.811-8.818-1.938-.689-3.21,2.256-1.264,2.948" transform="translate(-702.207 -1275.291)" fill="#c65638"/>
            <path id="Trazado_221185" data-name="Trazado 221185" d="M1133.522,731.866s4.1,22.133,14.8,21.076c6.572-.649,10.145-7.211,13.045-16.981,2.5-8.409-24.641-24.5-27.847-4.1" transform="translate(-937.519 -597.118)" fill="#fcd2c3"/>
            <path id="Trazado_221186" data-name="Trazado 221186" d="M1186.753,830.787a2.516,2.516,0,0,0,2.56.975.512.512,0,0,0-.035-1.023c-.582.029-1.321.094-1.639-.493s-1.2-.037-.887.541" transform="translate(-981.491 -686.478)" fill="#e59a7f"/>
            <path id="Trazado_221187" data-name="Trazado 221187" d="M1196.075,772.8c1.172-1.331,3.114-1.612,4.8-1.544.669.027.631-1-.034-1.023-1.955-.078-4.176.342-5.524,1.873-.439.5.318,1.2.759.695" transform="translate(-988.518 -637.037)" fill="#e59a7f"/>
            <path id="Trazado_221188" data-name="Trazado 221188" d="M1148.46,792.692c.61-1.336,2.49-1.681,3.791-1.763a.512.512,0,0,0-.034-1.023c-1.679.107-3.907.629-4.677,2.317-.273.6.645,1.075.921.47" transform="translate(-949.071 -653.317)" fill="#e59a7f"/>
            <path id="Trazado_221189" data-name="Trazado 221189" d="M1119.9,714.38s-2.972-8.968,3.9-11.408c4.243-1.506,7.987-1.762,12.108.426,3.339,1.773,6.04,4.7,6.89,7.824a32.4,32.4,0,0,0,2.156,5.39c.976-.742,3.729-8.652,1.206-11.507-.136-.154-14.415-11.349-14.415-11.349l-10.62,3.452-5.894,8.359Z" transform="translate(-922.391 -573.794)" fill="#3b4954"/>
            <path id="Trazado_221190" data-name="Trazado 221190" d="M1245.652,770.172s1.389-4.461,3.467-4.042,2.829,4.485,1.24,5.711-4.211-.661-4.459-1.165Z" transform="translate(-1030.26 -633.631)" fill="#fcd2c3"/>
            <path id="Trazado_221191" data-name="Trazado 221191" d="M1254.91,770.924c.606.277,1.412-.271,1.86-.626a4.3,4.3,0,0,0,1.592-3.282c.042-1.287-.042-2.809-1.356-3.459a2.426,2.426,0,0,0-3.2,1.122c-.323.578.6,1.05.921.47.809-1.448,2.431-.676,2.552.691a5.036,5.036,0,0,1-.215,2.443,3.134,3.134,0,0,1-1.118,1.36c-.24.162-.771.27-.549.371-.6-.276-1.091.632-.483.91" transform="translate(-1036.945 -631.324)" fill="#e59a7f"/>
            <path id="Trazado_221192" data-name="Trazado 221192" d="M1256.607,833.189a13.381,13.381,0,0,1-3.9,7.664c-.48.463.306,1.129.783.669a14.367,14.367,0,0,0,4.141-8.156.52.52,0,0,0-1.023-.177" transform="translate(-1035.97 -688.78)" fill="#edb5a6"/>
            <path id="Trazado_221193" data-name="Trazado 221193" d="M1192.9,854.563a14.82,14.82,0,0,1,5.407-2.215c.655-.128.378-1.129-.276-1a15.566,15.566,0,0,0-5.654,2.319c-.554.367-.035,1.267.524.9" transform="translate(-985.999 -704.126)" fill="#3b4954"/>
            <path id="Trazado_221194" data-name="Trazado 221194" d="M1207.327,794.874a7.432,7.432,0,0,0,2.669-.327,3.541,3.541,0,0,0,1.66-1.615.505.505,0,0,0-.872-.51,2.382,2.382,0,0,1-1.514,1.291,8.282,8.282,0,0,1-1.943.151.505.505,0,0,0,0,1.01" transform="translate(-998.159 -655.201)" fill="#3b4954"/>
            <path id="Trazado_221195" data-name="Trazado 221195" d="M1157.317,814.133a4.76,4.76,0,0,0,3.806-1.359c.466-.454-.248-1.168-.714-.714a3.779,3.779,0,0,1-3.092,1.064c-.646-.063-.642.947,0,1.01" transform="translate(-956.8 -671.521)" fill="#3b4954"/>
            <path id="Trazado_221196" data-name="Trazado 221196" d="M1261.521,877.654s-5.37,15.162-9.969,15.791-.209-9.186-.9-10.3,9.832-6.236,10.866-5.495" transform="translate(-1033.38 -725.834)" fill="#fcd2c3"/>
            <path id="Trazado_221197" data-name="Trazado 221197" d="M1166.577,932.692s6.082,18.195,4.886,27.52c-1.123,8.751,3.314,22.012-12.7,28.7-12.132,5.066-40.637-.943-47.357-4.208-.015-.011-2.824-21.309,3.235-20.807,12.906,1.068,25.268,2.633,33.888-2.387,4.959-2.889-6.568-28.846-6.568-28.846-1.239-5.951,1.736-6.941,7.688-8.179s15.69,2.255,16.931,8.207" transform="translate(-918.676 -764.422)" fill="#fc9470"/>
            <path id="Trazado_221198" data-name="Trazado 221198" d="M1432.019,1103.58c-1.484,10.266-3.406,20.552-9.558,29.17-.389.545.511,1.063.9.524,6.2-8.687,8.166-19.067,9.662-29.418.094-.653-.905-.935-1-.276" transform="translate(-1176.417 -912.443)" fill="#e87a5d"/>
            <path id="Trazado_221199" data-name="Trazado 221199" d="M1290.31,1070.733c-.835,5.356-1.807,11.156-6.063,14.949-.5.445.236,1.177.734.734,4.394-3.916,5.467-9.87,6.33-15.408.1-.653-.9-.935-1-.276" transform="translate(-1062.043 -885.276)" fill="#e87a5d"/>
            <path id="Trazado_221200" data-name="Trazado 221200" d="M1201.574,1052.094a9.136,9.136,0,0,1-1.413,7.441c-.382.55.517,1.069.9.524a10.159,10.159,0,0,0,1.517-8.241c-.157-.649-1.158-.374-1,.276" transform="translate(-992.559 -869.635)" fill="#e87a5d"/>
            <path id="Trazado_221201" data-name="Trazado 221201" d="M1121.6,1303.072a7.39,7.39,0,0,0,.957,3.45.519.519,0,0,0,.9-.524,6.244,6.244,0,0,1-.815-2.926c-.019-.666-1.057-.669-1.038,0" transform="translate(-927.656 -1077.336)" fill="#5aa395"/>
            <path id="Trazado_221202" data-name="Trazado 221202" d="M1128.649,1307.079l-.962,2.355c-.253.618.751.887,1,.276l.962-2.355c.252-.618-.751-.887-1-.276" transform="translate(-932.66 -1080.779)" fill="#5aa395"/>
            <path id="Trazado_221203" data-name="Trazado 221203" d="M1510.125,1431.532c-.027,1.432-.323,3.469-1.652,4.324-.56.36-.04,1.259.524.9,1.666-1.073,2.131-3.383,2.166-5.22a.519.519,0,0,0-1.038,0" transform="translate(-1247.436 -1183.583)" fill="#5aa395"/>
            <path id="Trazado_221204" data-name="Trazado 221204" d="M1467.313,1482.3a6.744,6.744,0,0,1-3.791,1.412.519.519,0,0,0,0,1.038,7.667,7.667,0,0,0,4.315-1.553c.53-.394.013-1.3-.524-.9" transform="translate(-1210.043 -1225.902)" fill="#5aa395"/>
            <path id="Trazado_221205" data-name="Trazado 221205" d="M1411.982,1481.071l-4.225-1.194a.519.519,0,0,0-.276,1l4.225,1.194a.519.519,0,0,0,.276-1" transform="translate(-1163.804 -1223.965)" fill="#5aa395"/>
            <path id="Trazado_221206" data-name="Trazado 221206" d="M1356.948,1430.494a13.235,13.235,0,0,0,1.957,2.8c.45.5,1.182-.24.734-.734a12.177,12.177,0,0,1-1.8-2.589c-.308-.593-1.2-.068-.9.524" transform="translate(-1122.259 -1182.491)" fill="#5aa395"/>
            <path id="Trazado_221207" data-name="Trazado 221207" d="M1317.116,1372.081c1.01,1.02,1.476,2.5,2.49,3.526a.519.519,0,0,0,.734-.734c-1.011-1.02-1.477-2.5-2.49-3.526a.519.519,0,0,0-.734.734" transform="translate(-1089.241 -1134.092)" fill="#5aa395"/>
            <path id="Trazado_221208" data-name="Trazado 221208" d="M1279.2,1330.959c-.035-.024.029.022.107.093.1.093.2.185.3.279q.425.4.832.821c.267.273.53.55.781.838.088.1.173.2.256.307s.109.258.1.049c.043.663,1.081.668,1.038,0s-.844-1.312-1.27-1.755a11,11,0,0,0-1.618-1.528c-.554-.377-1.073.522-.524.9" transform="translate(-1057.815 -1099.999)" fill="#5aa395"/>
            <path id="Trazado_221209" data-name="Trazado 221209" d="M1043.3,1261.795a16.8,16.8,0,0,0-1.611,5.679c-.068.664.97.659,1.038,0a15.3,15.3,0,0,1,1.47-5.156c.291-.6-.6-1.125-.9-.524" transform="translate(-861.564 -1043.391)" fill="#5aa395"/>
            <path id="Trazado_221210" data-name="Trazado 221210" d="M1029.884,1323.05a23.328,23.328,0,0,0-1.673,5.529c-.111.653.889.934,1,.276a22.3,22.3,0,0,1,1.569-5.281c.267-.606-.627-1.134-.9-.524" transform="translate(-850.411 -1094.049)" fill="#5aa395"/>
            <path id="Trazado_221211" data-name="Trazado 221211" d="M1023.4,1380.929q-.255,1.862-.51,3.724c-.089.653.911.936,1,.276q.255-1.862.51-3.723c.09-.653-.91-.936-1-.276" transform="translate(-846.013 -1141.834)" fill="#5aa395"/>
            <path id="Trazado_221212" data-name="Trazado 221212" d="M939.963,1437.791a39.558,39.558,0,0,0,24.463-1.174c.618-.236.35-1.239-.276-1a38.6,38.6,0,0,1-23.911,1.174.519.519,0,0,0-.276,1" transform="translate(-777.126 -1187.346)" fill="#5aa395"/>
            <path id="Trazado_221213" data-name="Trazado 221213" d="M1018.708,1427.012l-.137,1.107a.522.522,0,0,0,.519.519.532.532,0,0,0,.519-.519q.068-.554.137-1.107a.522.522,0,0,0-.519-.519.532.532,0,0,0-.519.519" transform="translate(-842.442 -1179.83)" fill="#5aa395"/>
            <path id="Trazado_221214" data-name="Trazado 221214" d="M1145.056,633.619a18.641,18.641,0,0,1,9.27-6.335,23.421,23.421,0,0,1,11.694-.129,40.747,40.747,0,0,1,12.21,5.236c3.759,2.3,7.374,4.879,11.441,6.625,8.714,3.739,18.247,2.2,27.355,1.216,9.337-1.009,18.956-1.288,28.119,1.087a38.279,38.279,0,0,1,20.255,12.469,27.548,27.548,0,0,1,5.311,10.175c1.063,3.948.766,8.242,3.226,11.712,4.843,6.83,13.871,7.468,21.478,7.916a43.714,43.714,0,0,1,13.811,2.606,47.336,47.336,0,0,1,11.458,6.746c6.708,5.213,13.771,11.96,15.806,20.516a17.291,17.291,0,0,1-1.5,12.671,12.638,12.638,0,0,1-9.128,6.046,9.88,9.88,0,0,1-5.236-.736c-.744-.328-1.393.77-.643,1.1,7.033,3.107,14.92-1.607,17.353-8.465,3-8.457-1.1-17.251-6.661-23.578-5.79-6.586-13.234-12.512-21.471-15.67a45.328,45.328,0,0,0-13.788-2.51c-4.78-.282-9.7-.476-14.134-2.469-3.792-1.7-6.98-4.563-7.993-8.715-.563-2.309-.649-4.7-1.22-7.014a26.911,26.911,0,0,0-1.913-5.248c-3.4-7.025-9.624-12.524-16.6-15.867-8.589-4.117-18.343-5.074-27.753-4.716-4.965.189-9.881.826-14.818,1.342-4.98.521-10.084.881-15.041-.04-9.437-1.753-16.334-9.043-25.157-12.334-7.3-2.725-15.935-3.141-22.542,1.567a20.746,20.746,0,0,0-4.094,3.893c-.511.633.385,1.54.9.9" transform="translate(-946.188 -517.123)" fill="#3b4954"/>
            <path id="Trazado_221215" data-name="Trazado 221215" d="M1371.471,812.778c4.9,3.487,11.043,3.743,16.843,3.939,5.919.2,11.84.646,17.217,3.373a19.487,19.487,0,0,1,6.549,5.2,25.273,25.273,0,0,1,4.056,8.914c1.609,5.633,2.955,11.521,6.857,16.1,3.882,4.554,9.614,6.044,15.361,6.5,6.585.522,13.12.293,19.575,1.973a30.5,30.5,0,0,1,15.62,9.145,21.21,21.21,0,0,1,4.317,7.7c.938,3.1,1.177,6.381,2.284,9.435,2.179,6.015,7.789,8.761,12.8,12.078a21.553,21.553,0,0,1,7,6.947,18.8,18.8,0,0,1,2.563,9.975.638.638,0,0,0,1.275,0,19.968,19.968,0,0,0-6.8-15.494c-4.15-3.59-9.644-5.56-13.258-9.78-2.136-2.494-2.919-5.6-3.551-8.749a31.04,31.04,0,0,0-2.638-8.537,27.094,27.094,0,0,0-12.37-11.455c-6.094-2.921-12.849-3.921-19.544-4.189-6.022-.241-12.641,0-17.986-3.237-5.517-3.339-7.806-9.737-9.422-15.64-1.63-5.951-3.334-11.75-8.414-15.7-4.9-3.809-11.19-5.294-17.279-5.664-6.881-.418-14.495.268-20.411-3.941-.67-.476-1.307.628-.643,1.1" transform="translate(-1134.092 -671.229)" fill="#72828c"/>
            <path id="Trazado_221216" data-name="Trazado 221216" d="M1641.222,1149.515c1.035,5.749,7.3,7.63,12.28,8.315a38.13,38.13,0,0,1,8.337,1.7,20.9,20.9,0,0,1,6.919,4.234,14.488,14.488,0,0,1,4.152,6.463,13.46,13.46,0,0,1-.429,8.04c-1.781,5.378-5.053,10.17-4.524,16.076a18.1,18.1,0,0,0,8.172,13.608c.694.442,1.334-.66.643-1.1a16.752,16.752,0,0,1-7.577-13.009c-.341-5.84,3.161-10.577,4.744-15.964a14.111,14.111,0,0,0-2.7-13.333,21.931,21.931,0,0,0-12.309-7.188c-5.594-1.174-15.15-.776-16.484-8.185-.145-.806-1.373-.464-1.229.339" transform="translate(-1357.42 -950.085)" fill="#72828c"/>
            <path id="Trazado_221217" data-name="Trazado 221217" d="M1154.247,1155.955c.851,1,.1,2.439-.317,3.44a5.149,5.149,0,0,0-.5,2.61,9.223,9.223,0,0,0,.962,2.613,4.592,4.592,0,0,1,.13,3.522,9.546,9.546,0,0,0-.566,2.616,7.914,7.914,0,0,0,.828,2.875c.63,1.683-.387,3.546.827,5.035.519.636,1.416-.271.9-.9-.635-.778-.127-2.13-.178-3.035a8.554,8.554,0,0,0-.8-2.586c-.833-2.166.811-4.028.58-6.2a7.993,7.993,0,0,0-.86-2.466,4.286,4.286,0,0,1-.038-3.885c.632-1.518,1.105-3.155-.073-4.535-.534-.625-1.431.281-.9.9" transform="translate(-953.967 -955.152)" fill="#e87a5d"/>
            <path id="Trazado_221218" data-name="Trazado 221218" d="M1173.579,1156.353a7.1,7.1,0,0,1,.091,3.446,3.359,3.359,0,0,0,.686,2.331,7.045,7.045,0,0,1,1.135,3.5c.006,1.241-.675,2.1-1.075,3.208-.625,1.735.443,3.109,1.12,4.629.866,1.945-.439,3.986.452,5.943.34.746,1.439.1,1.1-.643-.473-1.039-.049-2.2.043-3.276a4.867,4.867,0,0,0-.364-2.366,21.359,21.359,0,0,1-1.184-2.514c-.327-1.2.488-2.083.875-3.15a6.785,6.785,0,0,0-.626-5.3,9.117,9.117,0,0,1-.816-1.568,4,4,0,0,1,.106-1.681,6.5,6.5,0,0,0-.316-2.9c-.258-.774-1.49-.443-1.229.339" transform="translate(-970.62 -955.757)" fill="#e87a5d"/>
            <path id="Trazado_221219" data-name="Trazado 221219" d="M1340.4,899.735q2.867,1.541,5.576,3.347c.684.456,1.323-.647.643-1.1q-2.708-1.807-5.576-3.347c-.722-.388-1.367.712-.643,1.1" transform="translate(-1108.361 -743.179)" fill="#e87a5d"/>
            <path id="Trazado_221220" data-name="Trazado 221220" d="M1389.238,928.643l1.016,1.277a.641.641,0,0,0,.9,0,.653.653,0,0,0,0-.9l-1.016-1.278a.641.641,0,0,0-.9,0,.653.653,0,0,0,0,.9" transform="translate(-1148.868 -767.167)" fill="#e87a5d"/>
            <path id="Trazado_221221" data-name="Trazado 221221" d="M1405.162,982.9v1.529a.638.638,0,0,0,1.275,0V982.9a.638.638,0,0,0-1.275,0" transform="translate(-1162.188 -812.428)" fill="#e87a5d"/>
            <path id="Trazado_221222" data-name="Trazado 221222" d="M1400.74,1027.12v1.53a.638.638,0,0,0,1.274,0v-1.53a.638.638,0,0,0-1.274,0" transform="translate(-1158.531 -849.006)" fill="#e87a5d"/>
            <path id="Trazado_221223" data-name="Trazado 221223" d="M1395.488,1066.518a3.059,3.059,0,0,0-.732,2.211.654.654,0,0,0,.637.637.642.642,0,0,0,.637-.637,1.78,1.78,0,0,1,.358-1.31.656.656,0,0,0,0-.9.642.642,0,0,0-.9,0" transform="translate(-1153.573 -881.947)" fill="#e87a5d"/>
            <path id="Trazado_221224" data-name="Trazado 221224" d="M1389.074,1109.571a3.933,3.933,0,0,1-.234,1.867c-.289.769.943,1.1,1.229.339a4.784,4.784,0,0,0,.28-2.206.656.656,0,0,0-.637-.637.641.641,0,0,0-.637.637" transform="translate(-1148.653 -917.182)" fill="#e87a5d"/>
            <path id="Trazado_221225" data-name="Trazado 221225" d="M1383.885,1133.07a2.711,2.711,0,0,1-.632,1.235c-.551.606.348,1.51.9.9a4.012,4.012,0,0,0,.959-1.8c.186-.8-1.043-1.139-1.229-.339" transform="translate(-1143.926 -936.767)" fill="#e87a5d"/>
            <path id="Trazado_221226" data-name="Trazado 221226" d="M1373.6,1162.4l-.764,1.275a.638.638,0,0,0,1.1.643l.764-1.275a.638.638,0,0,0-1.1-.643" transform="translate(-1135.378 -961.153)" fill="#e87a5d"/>
            <path id="Trazado_221227" data-name="Trazado 221227" d="M1346.994,1181.237a24.039,24.039,0,0,1-3.852,3.79c-.645.505.263,1.4.9.9a24.033,24.033,0,0,0,3.852-3.79c.512-.632-.384-1.539-.9-.9" transform="translate(-1110.71 -976.803)" fill="#e87a5d"/>
            <path id="Trazado_221228" data-name="Trazado 221228" d="M1315.782,1209.217a4.732,4.732,0,0,1-2.749.9.638.638,0,0,0,0,1.274,5.929,5.929,0,0,0,3.392-1.075c.666-.469.029-1.574-.643-1.1" transform="translate(-1085.481 -1000.029)" fill="#e87a5d"/>
            <path id="Trazado_221229" data-name="Trazado 221229" d="M1285.549,1216.54a3.02,3.02,0,0,1-1.968.43c-.815-.086-.809,1.189,0,1.274a4.165,4.165,0,0,0,2.611-.6c.7-.427.059-1.53-.643-1.1" transform="translate(-1061.127 -1006.1)" fill="#e87a5d"/>
            <path id="Trazado_221230" data-name="Trazado 221230" d="M1258.8,1219.493h-1.784a.638.638,0,0,0,0,1.275h1.784a.638.638,0,0,0,0-1.275" transform="translate(-1039.147 -1008.623)" fill="#e87a5d"/>
            <path id="Trazado_221231" data-name="Trazado 221231" d="M1235.722,1219.493h-2.294a.638.638,0,0,0,0,1.275h2.294a.638.638,0,0,0,0-1.275" transform="translate(-1019.64 -1008.623)" fill="#e87a5d"/>
            <path id="Trazado_221232" data-name="Trazado 221232" d="M1206.893,1219.293a.638.638,0,0,0,0-1.275.638.638,0,0,0,0,1.275" transform="translate(-997.693 -1007.403)" fill="#e87a5d"/>
            <path id="Trazado_221233" data-name="Trazado 221233" d="M153.066,69.35a5.85,5.85,0,0,0,.774,2.94,13.317,13.317,0,0,1-1.7,12.97,38.654,38.654,0,0,0-2.752,3.455,6.481,6.481,0,0,0-.427.841c-.649,1.557-.582,3.3-.8,4.974a14.731,14.731,0,0,1-7.081,10.656c-1.582.921-3.4,1.593-4.52,3.038s-1.318,3.4-1.952,5.125c-1.839,5.016-6.87,7.427-12.359,8.4h-.006a39.736,39.736,0,0,1-7.5.548c-27.765-.467-66.88-18.2-75.794-34.754a4.893,4.893,0,0,0-1.479-1.467C32.3,82.358,15.749,76.842,0,71.763V-.005C23.515,7.187,71.381,26.163,71.381,26.163c17.574-5.349,30.8-3.018,51.026,3.055,3.216.967,7.8,2.819,10.273,5.1,3.225,2.969,2.829,5.284,2.829,5.284,2.57,1.821,15.065,4.61,18.693,7.577,7,5.732,5.275,13.629.7,19.273-.732.9-1.678,1.751-1.835,2.9" transform="translate(0 0.005)" fill="#fcd2c3"/>
            <path id="Trazado_221234" data-name="Trazado 221234" d="M602.885,217.623c1.884,5.49-1.81,11.351-5.174,15.458a51.211,51.211,0,0,1-11.9,10.272c-2.211,1.436-4.494,2.76-6.811,4.017q-1.649.894-3.319,1.747c-1.339.686-2.983,1.785-4.555,1.352-2.761-.762-2.973-4.678-2.561-6.942a22.7,22.7,0,0,1,3.392-7.607c1.447-2.357,3.519-4.863,3.8-7.709.233-2.338-1.213-4.778-3.706-4.924-.819-.048-.816,1.226,0,1.274,1.628.1,2.515,1.778,2.462,3.258-.062,1.745-1.095,3.329-1.981,4.766a55.9,55.9,0,0,0-4.176,7.352,12.5,12.5,0,0,0-1.011,7.6c.469,2.026,1.886,4.065,4.105,4.271a6.741,6.741,0,0,0,3.518-.906c1.353-.654,2.684-1.366,4.009-2.075,2.435-1.3,4.834-2.676,7.158-4.17a52.811,52.811,0,0,0,12.469-10.675c3.648-4.451,7.544-10.745,5.5-16.7-.264-.771-1.495-.44-1.228.339" transform="translate(-469.055 -179.35)" fill="#edb5a6"/>
            <path id="Trazado_221235" data-name="Trazado 221235" d="M571.741,279.7a18.873,18.873,0,0,1-7.721-.446.637.637,0,0,0-.338,1.228,20.442,20.442,0,0,0,8.4.446c.808-.122.464-1.349-.339-1.228" transform="translate(-465.839 -230.944)" fill="#edb5a6"/>
            <path id="Trazado_221236" data-name="Trazado 221236" d="M712.3,371.731c-2.779,1.637-6.237,1.739-9.381,1.526A83.214,83.214,0,0,1,693.7,372a142.319,142.319,0,0,1-16.92-3.99c-.784-.244-1.12.985-.339,1.228a137.066,137.066,0,0,0,13.307,3.291,85.213,85.213,0,0,0,14.6,2.068,16.126,16.126,0,0,0,8.6-1.77.637.637,0,0,0-.643-1.1" transform="translate(-559.108 -304.352)" fill="#edb5a6"/>
            <path id="Trazado_221237" data-name="Trazado 221237" d="M609.06,425.262c-8.37,1.828-17.235.475-25.558-.993q-6.276-1.107-12.449-2.72c-2.115-.553-4.222-1.144-6.31-1.792a14.433,14.433,0,0,1-5.009-2.311c-2.625-2.169-3.1-5.815-2.4-8.963.177-.8-1.05-1.14-1.228-.339a10.679,10.679,0,0,0,1.576,8.969c2.1,2.736,5.714,3.6,8.863,4.513a152.7,152.7,0,0,0,27.522,5.4,48.972,48.972,0,0,0,15.329-.536c.8-.175.462-1.4-.338-1.228" transform="translate(-459.668 -337.191)" fill="#edb5a6"/>
            <path id="Trazado_221238" data-name="Trazado 221238" d="M586.217,503.252a75.3,75.3,0,0,1-26.8-1.484,55.9,55.9,0,0,1-12.222-4.153c-3.1-1.576-6.56-4.429-5.37-8.34,1.492-4.905,7.332-5.874,11.671-6.5.808-.117.464-1.345-.339-1.228-4.242.615-8.866,1.463-11.494,5.222-2.221,3.176-1.454,7.009,1.316,9.544,3.124,2.859,7.569,4.212,11.527,5.434a76.04,76.04,0,0,0,31.707,2.783c.8-.1.813-1.374,0-1.274" transform="translate(-446.934 -398.27)" fill="#edb5a6"/>
            <path id="Trazado_221239" data-name="Trazado 221239" d="M543.787,585.93a94.168,94.168,0,0,0-13.559-2.846c-3.715-.423-9.329-1.559-11.184,2.729-1.772,4.1,1.123,7.9,4.23,10.3a38.851,38.851,0,0,0,12.251,6.433,46.367,46.367,0,0,0,15.571,1.724c.817-.032.821-1.306,0-1.274-8.375.333-16.5-1.1-23.7-5.576-3.263-2.027-7.92-5.024-7.588-9.442a4.113,4.113,0,0,1,4.086-4.008,34.849,34.849,0,0,1,6.006.347,90.738,90.738,0,0,1,13.549,2.837.637.637,0,0,0,.338-1.228" transform="translate(-428.847 -481.881)" fill="#edb5a6"/>
            <path id="Trazado_221240" data-name="Trazado 221240" d="M359.271,328.884a36.772,36.772,0,0,1-15.35,5.078c-2.64.335-5.3.505-7.956.617-1.323.056-2.646.1-3.97.132a8.312,8.312,0,0,1-4.372-.652c-.719-.395-1.362.7-.643,1.1,2.378,1.307,5.387.828,7.99.732,2.99-.11,5.982-.281,8.952-.656,5.628-.71,11.172-2.171,15.993-5.251.689-.44.051-1.543-.643-1.1" transform="translate(-270.18 -271.929)" fill="#edb5a6"/>
            <path id="Trazado_221241" data-name="Trazado 221241" d="M380.474,444.036A37.031,37.031,0,0,0,369.9,433.511c-.687-.451-1.326.651-.643,1.1a35.467,35.467,0,0,1,10.119,10.069c.451.68,1.554.043,1.1-.643" transform="translate(-305.164 -358.461)" fill="#edb5a6"/>
            <path id="Trazado_221242" data-name="Trazado 221242" d="M342.694,149.186a42.038,42.038,0,0,0-14.757,7.846c-.634.52.272,1.417.9.9a40.467,40.467,0,0,1,14.2-7.519.637.637,0,0,0-.339-1.228" transform="translate(-271.053 -123.364)" fill="#edb5a6"/>
            <path id="Trazado_221243" data-name="Trazado 221243" d="M213.676,399.932a65.542,65.542,0,0,0-1.13,17.009c.053.814,1.326.82,1.274,0a64.222,64.222,0,0,1,1.085-16.67c.159-.8-1.068-1.143-1.228-.339" transform="translate(-175.682 -330.398)" fill="#edb5a6"/>
            <path id="Trazado_221244" data-name="Trazado 221244" d="M160.9,262.575l-9.969-3.33c-.779-.26-1.113.969-.339,1.228l9.969,3.33c.779.26,1.113-.969.339-1.228" transform="translate(-124.186 -214.387)" fill="#edb5a6"/>
          </g>
        </g>
      </g>
    </g>
  </g>
</svg>
