<svg id="Grupo_172271" data-name="Grupo 172271" xmlns="http://www.w3.org/2000/svg" xmlns:xlink="http://www.w3.org/1999/xlink" width="321.873" height="319.711" viewBox="0 0 321.873 319.711">
  <defs>
    <clipPath id="clip-path">
      <rect id="Rectángulo_215622" data-name="Rectángulo 215622" width="321.873" height="319.711" fill="none"/>
    </clipPath>
    <clipPath id="clip-path-3">
      <rect id="Rectángulo_215617" data-name="Rectángulo 215617" width="132.058" height="167.186" fill="none"/>
    </clipPath>
    <clipPath id="clip-path-4">
      <rect id="Rectángulo_215618" data-name="Rectángulo 215618" width="11.085" height="18.219" fill="none"/>
    </clipPath>
    <clipPath id="clip-path-5">
      <rect id="Rectángulo_215619" data-name="Rectángulo 215619" width="54.754" height="86.15" fill="none"/>
    </clipPath>
    <clipPath id="clip-path-6">
      <rect id="Rectángulo_215620" data-name="Rectángulo 215620" width="47.481" height="63.3" fill="none"/>
    </clipPath>
  </defs>
  <g id="Grupo_172270" data-name="Grupo 172270" clip-path="url(#clip-path)">
    <g id="Grupo_172269" data-name="Grupo 172269">
      <g id="Grupo_172268" data-name="Grupo 172268" clip-path="url(#clip-path)">
        <path id="Trazado_216870" data-name="Trazado 216870" d="M256.324,338.378c-3.964-3.4-40.8-12.613-40.023-5.643.655,5.89,20.867,87.7,25.207,96.16-4.508-7.333-36.424-51.321-33.129-48.974,3.751,2.672-85.584-.928-85.584-.928s-30.979,52.664-30.2,48.018,14.225-93.7,14.225-93.7-4.479,5.908-19.195,7.457a135.883,135.883,0,0,0-24.285,4.573L0,437.344H321.873s-63.268-97.01-65.549-98.966" transform="translate(0 -117.633)" fill="#7c8182"/>
        <path id="Trazado_216871" data-name="Trazado 216871" d="M137.717,297.259s3.943,20.559.281,25.346-10.983,4.506-14.644,7.04-6.2,5.633-18.869,5.633c-12.7,0-12.673-6.2-12.954-7.321s1.971-5.07,5.914-8.168,15.207-10.42,17.46-14.362a44.928,44.928,0,0,0,3.661-9.858Z" transform="translate(-32.6 -105.297)" fill="#552a11"/>
        <path id="Trazado_216872" data-name="Trazado 216872" d="M137.718,297.259l-19.15-1.69a53.339,53.339,0,0,1-1.925,6.114,62.647,62.647,0,0,0,6.583,2.816c6.638,2.49,6.915,8.714,3.734,13.693s-22.129,12.448-26.831,11.342c-4.485-1.056-3.313-2.866-7.034-5.191-1.145,1.631-1.712,3.018-1.562,3.615.281,1.125.253,7.321,12.954,7.321,12.673,0,15.208-3.1,18.869-5.633s10.983-2.252,14.644-7.04-.281-25.346-.281-25.346" transform="translate(-32.6 -105.297)" fill="#48230d"/>
        <path id="Trazado_216873" data-name="Trazado 216873" d="M139.543,325.922s-.313,3.348-8.63,6.79c-6.444,2.666-7.488,4.707-12.237,7.17a39,39,0,0,1-17.5,3.537c-4.75-.352-10.056-2.232-9.666-4.65a11.7,11.7,0,0,0,.566,4.97c.879,1.935,8.795,4.222,16.887,3.519s15.48-6.86,16.184-7.213,1.055.528,1.055.528S139.4,336,140.1,334.241s-.559-8.319-.559-8.319" transform="translate(-32.583 -116.111)" fill="#d1a589"/>
        <path id="Trazado_216874" data-name="Trazado 216874" d="M335.692,297.259s-3.943,20.559-.281,25.346,10.983,4.506,14.644,7.04,6.2,5.633,18.869,5.633c12.7,0,12.673-6.2,12.954-7.321s-1.971-5.07-5.913-8.168-15.208-10.42-17.461-14.362a44.929,44.929,0,0,1-3.661-9.858Z" transform="translate(-118.936 -105.297)" fill="#552a11"/>
        <path id="Trazado_216875" data-name="Trazado 216875" d="M335.692,297.259l19.15-1.69a53.338,53.338,0,0,0,1.925,6.114,62.646,62.646,0,0,1-6.583,2.816c-6.638,2.49-6.915,8.714-3.734,13.693s22.129,12.448,26.831,11.342c4.485-1.056,3.313-2.866,7.034-5.191,1.145,1.631,1.712,3.018,1.562,3.615-.281,1.125-.253,7.321-12.954,7.321-12.673,0-15.208-3.1-18.869-5.633s-10.983-2.252-14.644-7.04.281-25.346.281-25.346" transform="translate(-118.936 -105.297)" fill="#48230d"/>
        <path id="Trazado_216876" data-name="Trazado 216876" d="M333.419,325.922s.313,3.348,8.63,6.79c6.444,2.666,7.487,4.707,12.237,7.17a39,39,0,0,0,17.5,3.537c4.75-.352,10.056-2.232,9.666-4.65a11.7,11.7,0,0,1-.566,4.97c-.879,1.935-8.795,4.222-16.887,3.519s-15.48-6.86-16.184-7.213-1.055.528-1.055.528-13.193-4.574-13.9-6.333.559-8.319.559-8.319" transform="translate(-118.507 -116.111)" fill="#d1a589"/>
        <path id="Trazado_216877" data-name="Trazado 216877" d="M274.059,136.225c-9-32.046-12.989-64.218-16.457-79.7-4.056-18.1-9.047-44.446-9.047-44.446L244.893,0a364.476,364.476,0,0,1-38.938,0,377,377,0,0,1-39.517,0l-3.082,12.079s-4.946,26.6-8.3,42.111c-3.872,17.905-7.326,49.989-16.326,82.035s-11.252,52.387-10.652,55.411,25.052,3.627,25.052,3.627,10.652-33.038,16.652-57.224,35.292-88.415,35.892-90.229c.6,1.814,31.333,66.044,37.333,90.229s16.652,57.224,16.652,57.224,24.452-.6,25.052-3.627-1.652-23.365-10.652-55.411" transform="translate(-45.596)" fill="#365f98"/>
        <g id="Grupo_172258" data-name="Grupo 172258" transform="translate(82.394 28.077)" opacity="0.5" style="mix-blend-mode: multiply;isolation: isolate">
          <g id="Grupo_172257" data-name="Grupo 172257">
            <g id="Grupo_172256" data-name="Grupo 172256" clip-path="url(#clip-path-3)">
              <path id="Trazado_216878" data-name="Trazado 216878" d="M246.863,150.659c-1.84-8.947,6.992-10.557,5.94-13.5s-9.62-3.312-12.564-11.777c-4.417-10.673-26.057-51.108-27.34-54.743s10.05-12.856,8.8-15.209-8.8,1.069-9.981-.856,9.518-7.7,6.738-9.858-5.559,1.091-12.918,2.374-15.307-6.2-18.57-2.373,11.97,8.591,10.143,10.173-11.779-.633-10.143,3.165,10.072,9.606,10.143,15.3S174.574,127,170.241,134.539s-10.539,4.483-9.135,8.6,4.925,7.278,3.026,14.265-9.81,36.37-15.262,42.7c-3.779,4.387-14.594,5.435-20.879,5.666a9.041,9.041,0,0,0,.088,1.407c.6,3.023,25.052,3.628,25.052,3.628s10.652-33.039,16.652-57.225,35.292-88.415,35.892-90.229c.6,1.814,31.334,66.044,37.333,90.229S259.66,210.8,259.66,210.8c2.861-8.5-10.957-51.195-12.8-60.142" transform="translate(-127.991 -43.615)" fill="#365f98"/>
            </g>
          </g>
        </g>
        <g id="Grupo_172261" data-name="Grupo 172261" transform="translate(155.035 10.525)" opacity="0.5" style="mix-blend-mode: multiply;isolation: isolate">
          <g id="Grupo_172260" data-name="Grupo 172260">
            <g id="Grupo_172259" data-name="Grupo 172259" clip-path="url(#clip-path-4)">
              <path id="Trazado_216879" data-name="Trazado 216879" d="M241.528,16.419c.241,1.931.425,3.866.646,5.8l.572,5.8c.106.964.22,1.929.368,2.881a2.423,2.423,0,0,0,.06.292,1.12,1.12,0,0,0,.088.241,1.535,1.535,0,0,0,.281.423,3.167,3.167,0,0,0,1.024.689,7.526,7.526,0,0,0,1.535.494c.563.144,1.174.232,1.795.33,1.25.173,2.568.283,3.92.392h.005c.065.005.106.048.093.1a.115.115,0,0,1-.084.07,18.228,18.228,0,0,1-4.2.633,12.214,12.214,0,0,1-4.327-.512,4.445,4.445,0,0,1-1.844-1.151,2.711,2.711,0,0,1-.5-.867,2.3,2.3,0,0,1-.1-.464,2.743,2.743,0,0,1-.025-.431l.062-2.946c.01-1.956.055-3.911.122-5.87.089-1.96.149-3.916.276-5.879,0-.046.058-.086.122-.088s.106.028.111.069" transform="translate(-240.832 -16.35)" fill="#365f98"/>
            </g>
          </g>
        </g>
        <path id="Trazado_216880" data-name="Trazado 216880" d="M140.677,43.119c-.3-1.893,8.365-39.422,9.094-42.715.019-.086.035.072.049,0H132.9c-1.116,1.307-6.772,37.1-7.794,42.066-1.053,5.115-6.943,16.869-4.23,22.322s17.057,7.76,18.933,5.919,2.216-5.217,2.216-5.217a4.717,4.717,0,0,0,4.184-3.731,13.867,13.867,0,0,0-.313-7.087c-1.806-5.6-4.885-9.443-5.218-11.557" transform="translate(-42.81 -0.134)" fill="#d8907f"/>
        <path id="Trazado_216881" data-name="Trazado 216881" d="M150.795,97.437s-2.455-.715-3.362-.244-2.719,2.825-2.393,2.12,1-1.248.7-2.508a14.986,14.986,0,0,0-.95-2.578s.43,1.351,1.49-.233,1.41-4.912,1.931-3.685.305,3.333.646,4.806a4.123,4.123,0,0,0,1.943,2.322" transform="translate(-51.581 -32.078)" fill="#c47060"/>
        <path id="Trazado_216882" data-name="Trazado 216882" d="M131.158,67.885c-.462-.577-.786.309-1.21.561s-2.7-1.245-3.327-1.7-.648.009-.953.428-2.093-1.526-2.287-3.349,1.084-9.626,1.781-11.682,6.134-6.989,6.554-8.445-1.677-4.186-2.046-6.539c-.236-1.5,6.6-32.388,7.841-36.737H132.9c-1.115,1.307-6.772,37.1-7.794,42.066-1.053,5.116-6.943,16.869-4.231,22.322,2.6,5.231,15.9,7.565,18.636,6.121-.945-.084-2.447-.059-3.833-.229a6.793,6.793,0,0,1-4.52-2.813" transform="translate(-42.81 -0.149)" fill="#c47060"/>
        <path id="Trazado_216883" data-name="Trazado 216883" d="M352.3.132H335.117c.016.109.037-.151.066,0,.644,3.311,8.2,41.073,7.856,42.957-.386,2.1-3.564,5.872-5.514,11.419a13.865,13.865,0,0,0-.5,7.076,4.718,4.718,0,0,0,4.087,3.838s.252,3.382,2.081,5.272,16.228-.047,19.079-5.428-2.733-17.283-3.653-22.424C357.8,38.23,353.248,3.183,352.3.132" transform="translate(-119.387 -0.03)" fill="#d8907f"/>
        <path id="Trazado_216884" data-name="Trazado 216884" d="M344.435,97.53s2.472-.651,3.367-.158,2.645,2.9,2.338,2.182-.971-1.274-.632-2.526a14.949,14.949,0,0,1,1.016-2.552s-.465,1.339-1.484-.272-1.283-4.946-1.835-3.732-.391,3.324-.769,4.788a4.122,4.122,0,0,1-2,2.271" transform="translate(-122.706 -32.138)" fill="#c47060"/>
        <path id="Trazado_216885" data-name="Trazado 216885" d="M356.935.159h-4.741c1.156,4.642,6.9,35.828,6.634,37.265-.43,2.342-2.6,5.017-2.214,6.484s5.69,6.538,6.334,8.611,1.72,9.906,1.48,11.724-2.079,3.716-2.373,3.29-.3-.894-.941-.453-2.952,1.879-3.369,1.616-.719-1.156-1.195-.592a6.792,6.792,0,0,1-4.592,2.7c-1.39.135-2.89.071-3.837.131,2.7,1.514,16.052-.476,18.788-5.638,2.852-5.381-2.733-17.283-3.653-22.424-.827-4.611-5.375-39.658-6.32-42.709" transform="translate(-124.019 -0.057)" fill="#c47060"/>
        <path id="Trazado_216886" data-name="Trazado 216886" d="M261.72,281.565c-1.249-16.043,14.052-40.107,6.246-50.054S251.1,220.923,251.1,220.923a201.762,201.762,0,0,0-27.169-2.567,201.757,201.757,0,0,0-27.168,2.567s-9.056.641-16.863,10.588,7.182,33.048,5.933,49.091-14.677,46.524-13.428,54.225,27.792,13.8,51.525,16.363c23.734-2.567,50.277-8.663,51.526-16.363s-12.491-37.22-13.74-53.263" transform="translate(-61.392 -77.79)" fill="#ddbf55"/>
        <path id="Trazado_216887" data-name="Trazado 216887" d="M257,225.787c0,6.37-6.237,11.533-13.93,11.533s-13.93-5.163-13.93-11.533,6.237-11.533,13.93-11.533S257,219.417,257,225.787" transform="translate(-81.631 -76.329)" fill="#ca8679"/>
        <path id="Trazado_216888" data-name="Trazado 216888" d="M190.676,222.523s-11.99.333-17.822,11.32-18.051,52.12-13.839,59.112,21.94,10.807,27.124-4.509a217.1,217.1,0,0,0,9.4-40.287c1.944-12.984,1.3-22.307-4.861-25.637" transform="translate(-56.341 -79.275)" fill="#efd467"/>
        <path id="Trazado_216889" data-name="Trazado 216889" d="M261.589,326.047c-12.01-29.072-18.524-29.491-18.524-29.491-10.382-2.928-17.1,4.183-18.728,13.8a129.337,129.337,0,0,0-.862,12.977c-.25-6.069-.561-10.814-.928-12.977-1.629-9.621-8.346-16.732-18.728-13.8,0,0-6.513.418-18.524,29.491s-12.01,36.184-12.01,43.086,7.939,15.9,17.709,18.615c7.054,1.963,20.436-.694,27.715-3.031a16.158,16.158,0,0,1,9.97.031c7.153,2.33,20.186,4.955,27.209,3,9.771-2.719,17.71-11.713,17.71-18.615s0-14.014-12.01-43.086" transform="translate(-61.734 -105.412)" fill="#203673"/>
        <path id="Trazado_216890" data-name="Trazado 216890" d="M228.68,396.083c7.153,2.33,20.185,4.954,27.209,3,9.771-2.719,17.709-11.712,17.709-18.615,0-5.276-.006-10.687-5.373-25.927.294,8.768,1.427,26.132-6.339,31.2-10.018,6.533-18.729,2.613-23.956-5.227S231.4,333.036,225.3,328.68a6.123,6.123,0,0,0-1.521-.838c-.115,1.985-.216,4.289-.3,6.831-.108-2.6-.226-4.948-.355-6.961-3.4-.174-2.249,9.28-5.225,19.7-3.485,12.2-11.324,47.04-29.617,39.2-12.359-5.3-11.4-22.122-9.474-32.482-5.513,15.558-5.519,21.017-5.519,26.341,0,6.9,7.939,15.9,17.71,18.615,7.054,1.963,20.436-.693,27.715-3.031a16.158,16.158,0,0,1,9.97.031" transform="translate(-61.733 -116.748)" fill="#182955"/>
        <path id="Trazado_216891" data-name="Trazado 216891" d="M236.872,424.581s-.42,6.893.767,11.833,1.206,13.765,1.606,16.112.164,9.468-2.946,7.708-3.111-1.759-3.29-4.3l-.179-2.537s.188,6.949-2.372,5.871-1.536-5.6-1.536-5.6-1.193,6.4-3.051,4.338a5.6,5.6,0,0,1-1.206-4.733s-.048,5.037-2.164,3.58-1.188-4.941-1.188-4.941-.783,4.128-2.088,2.747.363-6.268.147-8.389,3.428-17.535,3.655-20.035-1.215-18.177-.583-20.638,12.318-2.848,13.308-.236,1.121,19.218,1.121,19.218" transform="translate(-77.92 -143.774)" fill="#e8a390"/>
        <path id="Trazado_216892" data-name="Trazado 216892" d="M226.049,295.995s-10.625-5.814-18.6,6.93,7.589,84.489,7.589,84.489,7.962-2.751,10.95-2.629,6.978,3.36,6.978,3.36,1.374-64.684,1.841-76.8c.474-12.281-8.759-15.348-8.759-15.348" transform="translate(-73.095 -104.978)" fill="#28427f"/>
        <path id="Trazado_216893" data-name="Trazado 216893" d="M230.1,296a13.363,13.363,0,0,0-8.06-1.12c2.469,3.8,6.878,13.318,7.153,33.077.383,27.535-1.53,43.979-8.8,46.274a13.044,13.044,0,0,1-3.848.559c1.453,7.612,2.541,12.628,2.541,12.628s7.962-2.751,10.95-2.629,6.978,3.36,6.978,3.36,1.374-64.684,1.841-76.8C239.334,299.064,230.1,296,230.1,296" transform="translate(-77.147 -104.981)" fill="#182b66"/>
        <path id="Trazado_216894" data-name="Trazado 216894" d="M256.542,425.034s.729,6.866-.234,11.858-.585,13.807-.88,16.172.262,9.466,3.29,7.564,3.029-1.9,3.093-4.444l.065-2.543s.124,6.951,2.633,5.756,1.282-5.669,1.282-5.669,1.48,6.339,3.242,4.192a5.608,5.608,0,0,0,.992-4.784s.274,5.03,2.323,3.476.964-4.992.964-4.992.968,4.088,2.209,2.648-.645-6.245-.524-8.373-4.213-17.36-4.551-19.847.4-18.215-.346-20.646-12.432-2.274-13.3.382-.255,19.251-.255,19.251" transform="translate(-90.972 -143.812)" fill="#e8a390"/>
        <path id="Trazado_216895" data-name="Trazado 216895" d="M258.554,296.157s10.474-6.094,18.766,6.433-5.458,84.662-5.458,84.662-8.029-2.538-11.013-2.337-6.891,3.543-6.891,3.543-3-64.625-3.774-76.726c-.783-12.264,8.371-15.575,8.371-15.575" transform="translate(-89.112 -104.979)" fill="#28427f"/>
        <path id="Trazado_216896" data-name="Trazado 216896" d="M279.186,302.59c-5.55-8.385-12.073-8.426-15.783-7.538,3.665,1.978,8.01,5.94,9.068,13.779,1.913,14.15.382,61.954-3.441,66.543-2.923,3.507-9.863,2.327-13.657,3.452.276,5.87.451,9.632.451,9.632s3.908-3.342,6.891-3.544,11.013,2.337,11.013,2.337,13.75-72.134,5.458-84.662" transform="translate(-90.978 -104.979)" fill="#182b66"/>
        <path id="Trazado_216897" data-name="Trazado 216897" d="M220.239,167.58a43.277,43.277,0,0,0,3.869,29.154c5.87,10.913,14.188,11.043,18.056,11.043s12.408-5.713,15.848-17.639,4.3-20.426,0-31.911-16.707-11.85-27.025-8.316-10.748,17.669-10.748,17.669" transform="translate(-78.107 -52.705)" fill="#dd9786"/>
        <path id="Trazado_216898" data-name="Trazado 216898" d="M225.4,157.779s.86,8.835,7.308,12.81,11.608,4.417,13.327,11.043,1.3,10-1.713,19.278-1.641,14.88-6.41,22.231c-6.878,10.6,3.87,18.994,11.178,19.878S264.6,215.687,264.6,202.877s-4.194-17.974-6.591-28.759c-2.11-9.5-.323-18.12-9.351-29.6s-20.206-4.859-20.206-4.859.43-2.208-9.029-1.766-16.694,19.438-18.333,30.837c-1.736,12.073-3.06,25.9-7.789,33.852s1.616,21.005,5.055,29.84,21.5,18.553,26.655,7.951-3.44-11.485-9.028-24.295-1.273-12.238-2.612-20.985c-1.209-7.9-1.3-15.223,2.567-24.057,1.587-3.625,9.458-13.252,9.458-13.252" transform="translate(-68.262 -49.075)" fill="#39291c"/>
        <path id="Trazado_216899" data-name="Trazado 216899" d="M234.045,375.506s-4.772,3.381-9.264,4.032-15.406,4.585-13.209,6.285,10.494.161,10.494.161-16.747,11.5-14.641,12.544,12.337-5.485,12.337-5.485-14.226,10.8-10.881,11.327,13.855-8.732,13.855-8.732-11.338,10.385-8.359,10.626,12.02-7.794,12.02-7.794-8.767,7.659-5.833,7.57,14.13-9.108,16.611-12.493,6.2-9.641,8.5-11.991,6.244-6.957,6.244-6.957l-8.692-8.492Z" transform="translate(-73.83 -130.426)" fill="#e8a390"/>
        <path id="Trazado_216900" data-name="Trazado 216900" d="M308.623,288.511c-.048-14.372-7.532-45.353-12.361-54.448-5.833-10.987-14.294-10.922-14.294-10.922-6.157,3.329-5.792,17.8-3.848,30.781,1.859,12.417,6.244,15.246,7.421,33.041-13.742,16.1-36.855,36.1-36.855,36.1s5.231,7.558,12.081,9.535c0,0,41.367-21.719,46.436-35.687a20.5,20.5,0,0,0,1.421-8.4" transform="translate(-88.595 -79.495)" fill="#efd467"/>
        <g id="Grupo_172264" data-name="Grupo 172264" transform="translate(165.312 166.956)" opacity="0.5" style="mix-blend-mode: multiply;isolation: isolate">
          <g id="Grupo_172263" data-name="Grupo 172263">
            <g id="Grupo_172262" data-name="Grupo 172262" clip-path="url(#clip-path-5)">
              <path id="Trazado_216901" data-name="Trazado 216901" d="M311.513,301.411c-.034-10.234-3.839-28.882-7.77-42.061,1.805,14.312,4.3,39.964,1.882,45.347-3.122,6.941-30.57,30.731-48.828,36.9a19.279,19.279,0,0,0,6.859,3.908s41.367-21.719,46.436-35.687a20.494,20.494,0,0,0,1.421-8.4" transform="translate(-256.796 -259.35)" fill="#efd467"/>
            </g>
          </g>
        </g>
        <path id="Trazado_216902" data-name="Trazado 216902" d="M256.814,195.029a11.078,11.078,0,0,0,2,.9,14.165,14.165,0,0,0,2.059.558,16.013,16.013,0,0,1,2.062.253,9.351,9.351,0,0,1,1.014.368,5.518,5.518,0,0,1,1.089.573l.008.005a.116.116,0,0,1,.027.163.105.105,0,0,1-.023.024,3.892,3.892,0,0,1-2.353.783,5.128,5.128,0,0,1-2.294-.7,10.113,10.113,0,0,1-2.047-1.181,8.9,8.9,0,0,1-1.679-1.608.1.1,0,0,1,.126-.144Z" transform="translate(-91.437 -69.474)" fill="#191923"/>
        <path id="Trazado_216903" data-name="Trazado 216903" d="M240.253,195.169a8.9,8.9,0,0,1-1.679,1.608,10.112,10.112,0,0,1-2.047,1.181,5.128,5.128,0,0,1-2.294.7,3.892,3.892,0,0,1-2.353-.783.117.117,0,0,1-.021-.163.12.12,0,0,1,.024-.023l.008-.006a5.5,5.5,0,0,1,1.089-.573,9.3,9.3,0,0,1,1.015-.368,16,16,0,0,1,2.062-.253,14.189,14.189,0,0,0,2.059-.558,11.073,11.073,0,0,0,2-.9l.007,0a.1.1,0,0,1,.126.144" transform="translate(-82.592 -69.474)" fill="#191923"/>
        <path id="Trazado_216904" data-name="Trazado 216904" d="M264.874,205.919a.642.642,0,0,1-.55-.308,3.3,3.3,0,0,0-2.963-1.163,5.4,5.4,0,0,0-2.5,1.3.644.644,0,1,1-.877-.942,6.762,6.762,0,0,1,3.212-1.634,4.591,4.591,0,0,1,4.229,1.77.643.643,0,0,1-.549.979" transform="translate(-91.834 -72.368)" fill="#191923"/>
        <path id="Trazado_216905" data-name="Trazado 216905" d="M233.562,205.919a.643.643,0,0,1-.548-.979,4.585,4.585,0,0,1,4.228-1.77,6.758,6.758,0,0,1,3.212,1.634.644.644,0,0,1-.877.942,5.525,5.525,0,0,0-2.5-1.3,3.294,3.294,0,0,0-2.962,1.163.644.644,0,0,1-.55.308" transform="translate(-82.978 -72.367)" fill="#191923"/>
        <path id="Trazado_216906" data-name="Trazado 216906" d="M254.866,226.725c-1.432-1.721-5.911-1.4-5.911-1.4s-4.479-.319-5.911,1.4.6,2.458,2.376,2.376,3.535-.352,3.535-.352,1.759.27,3.534.352,3.808-.655,2.377-2.376" transform="translate(-86.413 -80.264)" fill="#8f001b"/>
        <path id="Trazado_216907" data-name="Trazado 216907" d="M219.7,216.317s2.592-5.327,2.592-9.988,2.269-16.314,4.213-14.316,1.62,10.654,1.62,10.654,8.749-18.645,10.045-16.647-3.564,13.318-3.564,13.318,8.425-15.982,9.4-12.652S237.52,202,237.52,202s8.425-12.984,9.073-9.988-5.832,13.317-5.832,13.317,6.157-9.988,6.481-6.992-6.805,15.649-9.721,18.645-8.425,7.658-10.369,10.322-5.832,7.325-5.832,7.325l-9.4-7.658Z" transform="translate(-75.498 -66.217)" fill="#e8a390"/>
        <path id="Trazado_216908" data-name="Trazado 216908" d="M195.647,241.565s9.424,3.23,12.368,9.884c0,0-18.275,47.7-30.94,54.975s-19.706-.8-18.594-12.4,37.165-52.462,37.165-52.462" transform="translate(-56.419 -86.058)" fill="#efd467"/>
        <g id="Grupo_172267" data-name="Grupo 172267" transform="translate(104.114 159.835)" opacity="0.5" style="mix-blend-mode: multiply;isolation: isolate">
          <g id="Grupo_172266" data-name="Grupo 172266">
            <g id="Grupo_172265" data-name="Grupo 172265" clip-path="url(#clip-path-6)">
              <path id="Trazado_216909" data-name="Trazado 216909" d="M209.213,253.845a15.168,15.168,0,0,0-4.563-5.556c-5.305,10.1-24.679,46.548-30.8,52.079a36.667,36.667,0,0,1-12.116,6.985c2.9,4.562,8.624,6.014,16.543,1.467,12.664-7.273,30.939-54.975,30.939-54.975" transform="translate(-161.732 -248.289)" fill="#efd467"/>
            </g>
          </g>
        </g>
      </g>
    </g>
  </g>
</svg>
