<svg xmlns="http://www.w3.org/2000/svg" xmlns:xlink="http://www.w3.org/1999/xlink" width="154" height="229" viewBox="0 0 154 229">
  <defs>
    <clipPath id="clip-path">
      <rect id="Rectángulo_48629" data-name="Rectángulo 48629" width="154" height="229" rx="18" transform="translate(1268 6426)" fill="#e54043"/>
    </clipPath>
    <clipPath id="clip-path-2">
      <rect id="Rectángulo_48625" data-name="Rectángulo 48625" width="198.008" height="238.594" fill="none"/>
    </clipPath>
    <clipPath id="clip-path-3">
      <path id="Trazado_202993" data-name="Trazado 202993" d="M536.019,2436.252c-42.846.587-65.671-2.379-65.671-2.379l2.783,21.359H588l2.783-21.359c-20.831,1.478-39.131,2.165-54.766,2.379" transform="translate(-470.348 -2433.873)" fill="none"/>
    </clipPath>
    <linearGradient id="linear-gradient" x1="-0.322" y1="1.774" x2="-0.321" y2="1.774" gradientUnits="objectBoundingBox">
      <stop offset="0" stop-color="#3c1b1e"/>
      <stop offset="1" stop-color="#5b171f"/>
    </linearGradient>
  </defs>
  <g id="Enmascarar_grupo_46" data-name="Enmascarar grupo 46" transform="translate(-1268 -6426)" clip-path="url(#clip-path)">
    <g id="Grupo_163054" data-name="Grupo 163054" transform="translate(1272.992 6426)">
      <g id="Grupo_163049" data-name="Grupo 163049">
        <g id="Grupo_163048" data-name="Grupo 163048" clip-path="url(#clip-path-2)">
          <path id="Trazado_202992" data-name="Trazado 202992" d="M169.446,66.723c-6.629-15.86-20.5-32.976-20.5-44.542S154.035,0,154.035,0H43.973s5.086,10.616,5.086,22.181-13.868,28.681-20.5,44.542C16.723,95.05,2.245,147.5,0,195.745L38.786,200.7l3.787,28.473H93.567V202.023h10.876v27.151h50.994l3.787-28.473,38.786-4.957C195.763,147.5,181.285,95.05,169.446,66.723" fill="#5b171f"/>
        </g>
      </g>
      <g id="Grupo_163051" data-name="Grupo 163051" transform="translate(38.786 200.701)">
        <g id="Grupo_163050" data-name="Grupo 163050" clip-path="url(#clip-path-3)">
          <rect id="Rectángulo_48626" data-name="Rectángulo 48626" width="120.437" height="21.359" transform="translate(0)" fill="url(#linear-gradient)"/>
        </g>
      </g>
      <g id="Grupo_163053" data-name="Grupo 163053">
        <path id="Trazado_202994" data-name="Trazado 202994" d="M633.024,1009.583s-4.112-14.581-4.729-16.447-4.181-9.132-5.521-10.3.077-6.649,3.928-5.647,10.08,5.815,11.09,9.869,4.817,12.432,6.037,13.8,6.992,6.156,10.5-6.9c.938-5.011,2.558-10.994,1.769-20.242s-.369-23.964.375-27.922,2.708-5.813,5.313-5.813,3.718,2.35,3.966,9.029.247,11.255.866,15.337c.375,2.478,1.473,9.346,2.278,14.362a1.23,1.23,0,0,0,2.4.12l2.988-11.266s1.979-10.637,3.34-15.214,2.721-10.019,3.958-12.369,2.35-3.463,5.319-2.845,3.092,3.711,2.226,7.545-3.092,15.213-3.092,16.327-1.52,9.264-2.856,14.856a50.032,50.032,0,0,0-.587,6.422,1.1,1.1,0,0,0,2.04.634l1.539-2.489s3.2-10.023,6.295-15.218,5.143-12.121,5.849-14.1,2.314-4.576,5.159-3.587,3.463,3.587,2.1,6.927-5.071,14.842-5.442,16.079S696.3,980.3,694.7,983.764a16.578,16.578,0,0,0-1.14,4.564,2.587,2.587,0,0,0,4.177,2.353l.933-.742s4.6-5.969,6.262-8.129a92.92,92.92,0,0,0,6.454-9.993c.473-1.251,3.075-4.279,5.167-2.913s2.629,3.146-.255,8.254-9.574,17.045-10.411,18.876c-2.357,5.159-4.652,10.894-6.012,14.109s-2.318,4.98-3.811,8.961c-1.908,5.087-7.176,7.267-8.291,11.74,0,0-.266,8.809-.018,14.5s-.742,14.35-.247,21.277,1.778,22.285,1.778,22.285H652.665s2.181-28.223,1.439-38.12.619-13.147-6.185-18.225c-3.829-2.858-11.1-5.639-14.894-22.98" transform="translate(-570.967 -859.702)" fill="#ffdad7"/>
        <rect id="Rectángulo_48627" data-name="Rectángulo 48627" width="198.008" height="229.207" fill="none"/>
      </g>
    </g>
  </g>
</svg>
