<svg xmlns="http://www.w3.org/2000/svg" xmlns:xlink="http://www.w3.org/1999/xlink" width="295" height="221" viewBox="0 0 295 221">
  <defs>
    <clipPath id="clip-path">
      <rect id="Rect치ngulo_48640" data-name="Rect치ngulo 48640" width="221.092" height="202.799" fill="none"/>
    </clipPath>
  </defs>
  <g id="Grupo_172351" data-name="Grupo 172351" transform="translate(-1020 -7197)">
    <rect id="Rect치ngulo_215651" data-name="Rect치ngulo 215651" width="295" height="221" transform="translate(1020 7197)" fill="#d7eac7"/>
    <g id="Grupo_163066" data-name="Grupo 163066" transform="translate(1057 7206.001)">
      <g id="Grupo_163065" data-name="Grupo 163065" transform="translate(0 -0.001)" clip-path="url(#clip-path)">
        <path id="Trazado_203011" data-name="Trazado 203011" d="M3.064,321.739a88.581,88.581,0,0,1,8.418-20.918c21.013-34.761,68.263-57.339,105.361-33.058,7.508,4.907,11.411,8.524,24.587,22.779,4.146,4.484,6.345,6.758,8.418,8.725,3.395,3.2,7.878,7.043,11.633,9.951,4.6,3.564,14.086,11.411,17.862,14.763,15.514,13.758,23.466,39.731,15.789,59.38a56.472,56.472,0,0,1-12.3,18.411c-49.1,50.37-206.65,27.094-179.768-80.033" transform="translate(0 -230.95)" fill="#f55d8b" fill-rule="evenodd"/>
        <path id="Trazado_203012" data-name="Trazado 203012" d="M431.583,268.436c-.846-1.523-1.6-2.982-2.274-4.389-5.457-8.471-11.072-15.842-14.15-22.737-9.666-21.658-.814-41.952-14.425-47.356-3.9-15.186-19.258-20.96-33.545-18.422-15.112,2.676-24.82,12.627-28.913,26.078-9.179,30.171-20.706,40.122-33.407,64.625-25.835,49.841-5.013,83.449,47.853,88.6,16.265,1.586,35.015-.73,47.758-2.411a60.988,60.988,0,0,0,9.444-3.818c30.213-15.419,37.278-52.072,21.658-80.171" transform="translate(-263.398 -156.847)" fill="#202035" fill-rule="evenodd"/>
        <path id="Trazado_203013" data-name="Trazado 203013" d="M308.275,1534.331a33.714,33.714,0,0,1,6.609,2.157,158.583,158.583,0,0,1,16.857,8.227c5.023,2.929,7.6,5.309,9.148,7.223a8.389,8.389,0,0,1,2.179,5.055,25.671,25.671,0,0,1-.465,5.626,16.067,16.067,0,0,1-1.692,5.552c-1,1.777-2.654,3.511-8.555,4.981s-16.021,2.686-29.325,2.771-29.78-.962-38.959-1.692-11.083-1.142-13.991-1.058a87.9,87.9,0,0,0-11.125,1.406c-4.315.74-9.031,1.639-12.1,2.126s-4.516.56-5.489.359-1.481-.7-1.1-1.787a11.046,11.046,0,0,1,3.691-4.389,37.729,37.729,0,0,1,7.276-4.145c2.379-1.068,4.3-1.724,5.668-2.876s2.157-2.813,3.151-4a8.052,8.052,0,0,1,3.289-2.348,5.121,5.121,0,0,1,2.866-.4c.772.159,1.29.624,8.64-2.506s21.51-9.846,30.245-13.811,12.045-5.182,14.234-6.059a36.811,36.811,0,0,1,4.146-1.608,3.976,3.976,0,0,1,2.358.233,18.135,18.135,0,0,0,2.443.962" transform="translate(-197.355 -1374.37)" fill="#f8c294" fill-rule="evenodd"/>
        <path id="Trazado_203014" data-name="Trazado 203014" d="M454.063,615.609a17.3,17.3,0,0,0-2.58,3.215,11.4,11.4,0,0,0-1.713,5.933,97.108,97.108,0,0,0,.73,10.85,78.944,78.944,0,0,1,.412,11.6,54.529,54.529,0,0,1-1.745,11.273c-.92,3.405-2.136,6.229-2.771,8.027a10.7,10.7,0,0,0-.677,4.463c0,1.9.042,4.907.1,7.657s.1,5.224.1,7.434-.042,4.156-.021,5.637.116,2.506.169,3.014.053.518,1.893.709,5.541.582,8.978,1.079a50.352,50.352,0,0,1,8.46,1.777,4.505,4.505,0,0,1,2.7,1.882,2.2,2.2,0,0,1,.37.846l.032.127-.36-.042c-.36-.042-1.079-.127-1.777-.222a7.222,7.222,0,0,0-2-.085,4.676,4.676,0,0,0-2.157,1.28,19.159,19.159,0,0,0-4.368,5.245,69.188,69.188,0,0,0-4.759,10.448,20.58,20.58,0,0,0-1.533,6.514,11.57,11.57,0,0,0,.582,3.849,17.659,17.659,0,0,0,.878,2.178l.18.391-2.358.476a86.246,86.246,0,0,1-13.06,1.724,70.125,70.125,0,0,1-19.289-1.523A35.128,35.128,0,0,1,403.8,724a26.7,26.7,0,0,1-8.259-11.95c-1.629-4.812-2.062-10.543-1.269-17.428a104.705,104.705,0,0,1,5.711-22.768c2.866-7.868,6.567-15.6,9.623-22.811s5.5-13.928,7.783-18.475a24.007,24.007,0,0,1,7.043-8.968,60.575,60.575,0,0,1,8.069-5.013c2.327-1.28,3.881-2.126,5.393-2.94a48.4,48.4,0,0,0,4.3-2.517,18.517,18.517,0,0,0,3.881-3.6c1.343-1.607,2.792-3.744,3.521-4.812s.73-1.068,1.629,1.026,2.7,6.261,3.6,8.354.9,2.094.666,2.263a11.11,11.11,0,0,0-1.428,1.237" transform="translate(-353.115 -539.71)" fill="#eeb17c" fill-rule="evenodd"/>
        <path id="Trazado_203015" data-name="Trazado 203015" d="M450.14,757.109c.116,1.237.243,2.506.36,3.765a78.949,78.949,0,0,1,.412,11.6,54.529,54.529,0,0,1-1.745,11.273c-.92,3.405-2.136,6.229-2.771,8.027a10.7,10.7,0,0,0-.677,4.463c0,1.9.042,4.907.1,7.656s.1,5.224.1,7.434-.042,4.156-.021,5.637.116,2.506.169,3.014.053.518,1.893.709,5.541.582,8.978,1.079a50.353,50.353,0,0,1,8.46,1.777,4.506,4.506,0,0,1,2.7,1.882,2.2,2.2,0,0,1,.37.846l.032.127-.36-.042c-.359-.042-1.079-.127-1.777-.222a7.22,7.22,0,0,0-2-.085,4.675,4.675,0,0,0-2.157,1.28,19.155,19.155,0,0,0-4.368,5.245,69.167,69.167,0,0,0-4.759,10.448,20.582,20.582,0,0,0-1.533,6.514,11.568,11.568,0,0,0,.582,3.849,17.659,17.659,0,0,0,.878,2.179l.18.391-2.358.476a86.244,86.244,0,0,1-13.06,1.724,70.127,70.127,0,0,1-19.289-1.523,35.125,35.125,0,0,1-14.668-7.36,26.7,26.7,0,0,1-8.259-11.95c-1.629-4.812-2.062-10.544-1.269-17.428a104.7,104.7,0,0,1,5.711-22.768c2.866-7.868,6.567-15.6,9.623-22.811s5.5-13.928,7.783-18.475a24.006,24.006,0,0,1,7.043-8.968,60.564,60.564,0,0,1,8.069-5.013l.19-.106a18.984,18.984,0,0,0,2.253.962,53.432,53.432,0,0,1,5.637,1.946,13.435,13.435,0,0,1,5.14,4.42,49.741,49.741,0,0,1,4.008,7.191Z" transform="translate(-353.116 -664.978)" fill="#fefefe" fill-rule="evenodd"/>
        <path id="Trazado_203016" data-name="Trazado 203016" d="M926.2,616.582a18.335,18.335,0,0,0-2,2.337,30.763,30.763,0,0,1-3.162-6.292,6.405,6.405,0,0,1-.18-4.516c.391-1.333,1.015-2.919,1.385-3.9a6.51,6.51,0,0,0,.339-1.1,7.7,7.7,0,0,1,.782,1.618c.9,2.083,2.7,6.26,3.6,8.354s.9,2.094.666,2.263a11.092,11.092,0,0,0-1.428,1.237" transform="translate(-825.249 -540.683)" fill="#e38c4b" fill-rule="evenodd"/>
        <path id="Trazado_203017" data-name="Trazado 203017" d="M925.6,421.938a5.866,5.866,0,0,1-1.248-2.041,10.4,10.4,0,0,1-.106-4.653,6.432,6.432,0,0,1,1.935-3.765,2.208,2.208,0,0,1,2.58-.053,3.473,3.473,0,0,1,1.258,1.946,16.894,16.894,0,0,1,.465,1.893l.074.37h.656a26.62,26.62,0,0,0,3.881-.264,46.858,46.858,0,0,0,6.916-1.555,47.607,47.607,0,0,0,6.863-2.7,51.116,51.116,0,0,0,4.621-2.591c1.047-.645,1.555-.962,1.819-1.121s.3-.159.307-.159a4.038,4.038,0,0,1,.159.73,22.819,22.819,0,0,0,.994,3.691,22.323,22.323,0,0,0,2.21,4.272,27.968,27.968,0,0,0,2.062,2.707l.412.486-.222.7a26.934,26.934,0,0,1-1.364,3.405,17.321,17.321,0,0,1-2.58,3.8A17.643,17.643,0,0,1,953.941,430c-1.132.751-2.2,1.216-2.929,1.755a3.6,3.6,0,0,0-1.407,2.221c-.285,1.079-.486,2.633-.719,3.437s-.5.846-1.216.952-1.882.243-3.384.582-3.352.867-5.076,1.322-3.331.814-4.632,1.036a10.008,10.008,0,0,1-3.331.116,5.027,5.027,0,0,1-3.426-2.327,29.791,29.791,0,0,1-3.617-6.927,6.433,6.433,0,0,1-.18-4.526c.381-1.332,1.015-2.908,1.375-3.9s.465-1.364.2-1.8" transform="translate(-828.089 -365.096)" fill="#eeb17c" fill-rule="evenodd"/>
        <path id="Trazado_203018" data-name="Trazado 203018" d="M1228.663,407.45l.053-.042c.264-.159.3-.159.307-.159a4.038,4.038,0,0,1,.159.73,22.823,22.823,0,0,0,.994,3.691,22.316,22.316,0,0,0,2.21,4.272,27.968,27.968,0,0,0,2.062,2.707l.412.486-.222.7a28.8,28.8,0,0,1-1.269,3.215c-.592-1.026-1.417-2.5-2.115-3.987a25.879,25.879,0,0,1-2-6.091,33.845,33.845,0,0,1-.592-5.52" transform="translate(-1101.489 -365.096)" fill="#e38c4b" fill-rule="evenodd"/>
        <path id="Trazado_203019" data-name="Trazado 203019" d="M680.427,478.609c.233,5.88.381,12.394.465,17.861s.116,9.888-.159,13.674a30.418,30.418,0,0,1-1.756,9.179,12.357,12.357,0,0,1-2.908,4.156c-.656.645-.656.645-2.083.434a26.885,26.885,0,0,1-8.238-2.464,81.98,81.98,0,0,1-12.68-7.921,96.674,96.674,0,0,1-7.794-6.578c-1.607-1.481-2.369-2.126-3.141-2.771a46.575,46.575,0,0,1-6.165,5.256,13.671,13.671,0,0,1-6.007,2.284,4.793,4.793,0,0,1-4.294-1.629c-1.121-1.29-1.946-3.384-1.8-6.779a42.914,42.914,0,0,1,2.718-12.013,28.17,28.17,0,0,1,5.467-9.348,17.866,17.866,0,0,1,7.043-4.886,6.786,6.786,0,0,1,6.123.825c2.115,1.269,4.547,3.5,8.09,7.265s8.217,9.063,10.554,11.717l2.326,2.644.412-3.056c.412-3.067,1.237-9.19,2.168-15.228q.254-1.666.508-3.3c.063-.74.159-1.607.233-2.559a73.476,73.476,0,0,0,.2-7.466c-.212-7.064-.91-8.037-4.389-14.52a17.1,17.1,0,0,1-1.83-4.114c-.127-.825.254-1.132.687-1.026s.888.634,1.682,1.438,1.893,1.872,2.443,2.411.55.539.074-1.639-1.417-6.535-1.8-9.095-.2-3.3.18-3.458.931.286,1.734,2.57,1.84,6.4,2.358,8.46l.529,2.062-.317-2.242c-.328-2.253-.962-6.747-1.174-9.179s.011-2.792.275-2.972a.714.714,0,0,1,.846-.021c.275.19.508.582.814,1.639s.677,2.781,1.121,5.065.952,5.118,1.206,6.535l.264,1.417-.148-2.21c-.148-2.221-.444-6.641-.455-8.925s.275-2.443.582-2.464a1.033,1.033,0,0,1,.909.391c.243.317.4.825.645,3.035s.571,6.091.73,8.037l.159,1.946.032-1.586c.021-1.576.063-4.738.264-6.567s.529-2.327.867-2.506.666-.032.878.349a5.209,5.209,0,0,1,.381,2.178c.053,1.153.053,2.824.053,4.706s0,3.987.021,5.89.042,3.617.074,4.981c.243,10.618.18-.73,1.015,20.114" transform="translate(-559.281 -391.279)" fill="#f8c294" fill-rule="evenodd"/>
        <path id="Trazado_203020" data-name="Trazado 203020" d="M1019.64,1021.528l1.206,1.375.359-2.633c-.021.159-.042.381-.085.677-.127,1.11-.4,3.321-.487,5.446s.011,4.167.042,5.351.01,1.533-.222,1.11a10.483,10.483,0,0,1-.857-3.384,41.376,41.376,0,0,1-.074-5.964c.032-.73.074-1.4.116-1.978" transform="translate(-913.933 -914.666)" fill="#e38c4b" fill-rule="evenodd"/>
        <path id="Trazado_203021" data-name="Trazado 203021" d="M754.957,1039.827c-.592.571-1.184,1.142-1.787,1.692a13.285,13.285,0,0,1-1.914-2.834,19.581,19.581,0,0,1-1.449-4.146c-.2-.835-.2-.835.825.3s3.077,3.405,4.23,4.653c.592.634.941,1,1.163,1.248-.4-.349-.73-.624-1.068-.91" transform="translate(-672.104 -926.926)" fill="#e38c4b" fill-rule="evenodd"/>
        <path id="Trazado_203022" data-name="Trazado 203022" d="M1390.512,466.64c2.443,24.4,6.821,33.058,21.743,52.168,13.272,16.995,17.777,30.9,14.319,52.326a.526.526,0,0,1-.6.433.533.533,0,0,1-.434-.6c3.406-21.129-1.015-34.75-14.107-51.5-15.049-19.268-19.5-28.109-21.965-52.717a.526.526,0,0,1,1.047-.106" transform="translate(-1245.646 -417.92)" fill="#202035" fill-rule="evenodd"/>
        <path id="Trazado_203023" data-name="Trazado 203023" d="M962.246,1840.053a125.817,125.817,0,0,0,28.141.36.524.524,0,0,1,.571.476.538.538,0,0,1-.487.571,126.362,126.362,0,0,1-28.342-.37.521.521,0,1,1,.116-1.036" transform="translate(-862.123 -1649.594)" fill="#e38c4b" fill-rule="evenodd"/>
        <path id="Trazado_203024" data-name="Trazado 203024" d="M793.459,1498.291c6.1-.476,8.862-.8,14.932-.063a.54.54,0,0,1,.455.592.524.524,0,0,1-.592.444c-5.975-.719-8.693-.4-14.71.074a.521.521,0,0,1-.561-.476.53.53,0,0,1,.476-.571" transform="translate(-710.902 -1342.762)" fill="#d2d6d6" fill-rule="evenodd"/>
        <path id="Trazado_203025" data-name="Trazado 203025" d="M861.25,1235.933a43.984,43.984,0,0,1,3.458-10.29.525.525,0,1,1,.952.444,42.839,42.839,0,0,0-3.384,10.078.526.526,0,0,1-1.026-.233" transform="translate(-772.094 -1098.508)" fill="#d2d6d6" fill-rule="evenodd"/>
        <path id="Trazado_203026" data-name="Trazado 203026" d="M974.849,363.994c-9.01,6.356-19.406,5.827-29.949,5.214a.524.524,0,0,1,.063-1.047c10.195.592,20.537,1.153,29.241-4.992a.525.525,0,0,1,.74.1.511.511,0,0,1-.1.73" transform="translate(-846.66 -325.479)" fill="#474659" fill-rule="evenodd"/>
        <path id="Trazado_203027" data-name="Trazado 203027" d="M509.184,495.361c-1.671,11.675-9.983,16.614-18.919,23.847-16.4,13.272-20.8,20.558-23.794,41.91a.516.516,0,0,1-.582.455.524.524,0,0,1-.465-.582c3.035-21.626,7.561-29.145,24.175-42.6,8.661-7.011,16.931-11.9,18.549-23.16a.524.524,0,0,1,.582-.455.516.516,0,0,1,.455.582" transform="translate(-417.246 -443.564)" fill="#474659" fill-rule="evenodd"/>
        <path id="Trazado_203028" data-name="Trazado 203028" d="M287.483,389.581c-8.005,22.747-20.072,33.746-33.037,52.791-12.511,18.369-26.269,45.294-17.6,67.893l2.1,4.727a.518.518,0,0,1-.254.7.524.524,0,0,1-.7-.254l-2.126-4.78c-8.83-23,4.96-50.158,17.692-68.876,12.891-18.93,24.979-29.97,32.921-52.538a.535.535,0,0,1,.677-.328.527.527,0,0,1,.317.666" transform="translate(-208.955 -348.634)" fill="#202035" fill-rule="evenodd"/>
        <path id="Trazado_203029" data-name="Trazado 203029" d="M1264.327,625.236c-1.808,20.865,5.171,31.038,14.467,48.382,3.246,6.07,3.913,8.619,4.917,15.207a.524.524,0,0,1-.444.592.518.518,0,0,1-.592-.455c-1.205-7.836-2.21-10.427-6.313-17.428-9.052-15.419-14.647-28.278-13.082-46.4a.531.531,0,0,1,.571-.476.541.541,0,0,1,.476.582" transform="translate(-1132.288 -559.997)" fill="#474659" fill-rule="evenodd"/>
        <path id="Trazado_203030" data-name="Trazado 203030" d="M1228.931,1054.908c-4.05,18.528-4.7,32.847,3.881,50.391a.518.518,0,0,1-.222.708.531.531,0,0,1-.709-.233c-8.693-17.777-8.079-32.3-3.976-51.089a.525.525,0,0,1,1.026.222" transform="translate(-1098.215 -945.148)" fill="#474659" fill-rule="evenodd"/>
        <path id="Trazado_203031" data-name="Trazado 203031" d="M1549.508,64.021A32.011,32.011,0,1,0,1517.5,32.01a32.076,32.076,0,0,0,32.011,32.011" transform="translate(-1360.427 0.001)" fill="#f55d8b" fill-rule="evenodd"/>
        <path id="Trazado_203032" data-name="Trazado 203032" d="M1615.082,146.406a8.179,8.179,0,0,0-.36-1.047c-.116-.3-.307-.793-.423-1.121a8.972,8.972,0,0,0-2.538-2.866,5.8,5.8,0,0,1-.719-.5.709.709,0,0,0-.349-.211,4.773,4.773,0,0,1-.9-.56c-.434-.3-1.1-.772-1.481-1.036-6.631-4.674-2.58-14.657,5.362-14.731a7.82,7.82,0,0,1,4.2.835c2.009.941,3.067,2.4,3.712,5.161.243,1.047.486,1.364,1.216,1.6.645.222,1.036.539,1.131.931a2.522,2.522,0,0,1-.19,1.026,3.421,3.421,0,0,0,.021,2.506,2.1,2.1,0,0,1-.3,2.231,4.5,4.5,0,0,1-3,1.808c-.264,0-.349.053-.349.233,0,.349.18.391,1.523.412a15.317,15.317,0,0,1,4.812,1c.412.137.983.349,1.269.476a1.46,1.46,0,0,0,.645.18,1.377,1.377,0,0,0,.3-.677,15.484,15.484,0,0,1,1-2.9c.127-.137.085-.3-.254-.92-.476-.91-.624-1.777-.338-2.02.159-.127.233-.116.476.042a2.215,2.215,0,0,1,.5.5c.18.275.2.285.286.085a3.367,3.367,0,0,0,.1-.708c.01-.687.18-1.089.465-1.089s.592.645.592,1.216a.972.972,0,0,0,.074.455c.042.042.307-.233.592-.624.381-.529.582-.7.793-.7.444,0,.5.434.169,1.343a2.692,2.692,0,0,0-.212.814.743.743,0,0,0,.423-.074c.486-.18.74-.063.74.37,0,.3-.148.476-.941,1.121-.857.709-.941.814-.941,1.206a29.212,29.212,0,0,1-.867,4.653c-.053.127-.254.56-.444.973-.391.793-.825,1.2-1.3,1.2a.509.509,0,0,0-.37.116.459.459,0,0,1-.338.116.613.613,0,0,0-.338.074,8.784,8.784,0,0,0,1.978,1.449,17.262,17.262,0,0,0,2.295-2.633,24.258,24.258,0,0,1,3.532-3.627,3.018,3.018,0,0,1,4.368.751,12.94,12.94,0,0,1,1.544,3.162c.6,1.925,1.216,3.966,1.332,4.4a15.634,15.634,0,0,0,.962,2.591c.211.444.476.984.582,1.216a4.956,4.956,0,0,0,.465.751c.264.317.339.338,1.554.434,2.073.159,2.824.391,3.374,1.036a1.608,1.608,0,0,1,.243,1.724c-.571,1.5-2.168,2.253-4.822,2.263-2.432,0-3.395-.529-4.865-2.7-.687-1.026-2.252-3.014-3.215-4.558a14.269,14.269,0,0,1-1.2,3.183l-.5.878a12.342,12.342,0,0,1-1.385,1.956,9.82,9.82,0,0,1-3.638,2.623c-8.915,2.75-14.2-9.137-16.053-15.8" transform="translate(-1438.86 -111.465)" fill="#fefefe" fill-rule="evenodd"/>
      </g>
    </g>
  </g>
</svg>
