<svg xmlns="http://www.w3.org/2000/svg" xmlns:xlink="http://www.w3.org/1999/xlink" width="505" height="274.795" viewBox="0 0 505 274.795">
  <defs>
    <clipPath id="clip-path">
      <rect id="Rectángulo_49052" data-name="Rectángulo 49052" width="193.816" height="267.435" fill="none"/>
    </clipPath>
    <clipPath id="clip-path-3">
      <rect id="Rectángulo_49049" data-name="Rectángulo 49049" width="24.278" height="10.831" fill="none"/>
    </clipPath>
    <clipPath id="clip-path-4">
      <rect id="Rectángulo_49050" data-name="Rectángulo 49050" width="19.675" height="7.66" fill="none"/>
    </clipPath>
  </defs>
  <g id="Grupo_169883" data-name="Grupo 169883" transform="translate(-810 -10001.785)">
    <rect id="Rectángulo_48877" data-name="Rectángulo 48877" width="505" height="274.795" transform="translate(810 10001.785)" fill="#c9554b"/>
    <g id="Grupo_169882" data-name="Grupo 169882" transform="translate(966 10009.146)">
      <g id="Grupo_169881" data-name="Grupo 169881" clip-path="url(#clip-path)">
        <g id="Grupo_169880" data-name="Grupo 169880">
          <g id="Grupo_169879" data-name="Grupo 169879" clip-path="url(#clip-path)">
            <path id="Trazado_209707" data-name="Trazado 209707" d="M184.4,11.8S196.187-.33,217.611.007s28.565,11.461,32.493,20.9,7.736,18.837,18.8,28.276,19.353,29.6,16.139,53.528-5.307,35.163-2.451,50.668,9.283,38.764,5.713,46.854-51.06,34.045-106.761,20.562-52.488-65.056-48.56-78.2,12.854-62.023,10-71.124,13.211-43.82,23.566-49.551S184.4,11.8,184.4,11.8" transform="translate(-104.482 0)" fill="#211d38"/>
            <path id="Trazado_209708" data-name="Trazado 209708" d="M128.161,610.393s-2.275,17.191,2.023,20.478,46.77,8.343,57.135,19.466,10.618,52.079,9.607,68.258-2.275,34.759-2.275,34.759H30.576s-6.067-17.568-8.848-29.2-8.09-25.281-8.09-41.208c0-13.914-8.006-17.865-8.174-29.157-.186-12.481,10.7-18.876,16.517-21.152s54.354-2.528,58.9-4.045,7.331-17.949,7.079-18.708,40.2.505,40.2.505" transform="translate(-4.353 -485.92)" fill="#f39f90"/>
            <path id="Trazado_209709" data-name="Trazado 209709" d="M401.572,609.887c.155.464-.827,6.784-2.651,11.975,3.837,2.776,11.71,7.619,20.769,8.334,6.906.545,15.277-3.857,21.53-8.031a77.126,77.126,0,0,1,.549-11.773s-40.449-1.264-40.2-.506" transform="translate(-317.961 -485.92)" fill="#211d38"/>
            <path id="Trazado_209710" data-name="Trazado 209710" d="M683.3,348.128c.169-.506,2.528-12.978,8.6-10.112s3.371,18.371-1.517,21.236-7.247.506-7.247.506Z" transform="translate(-544.492 -269.076)" fill="#f39b8b"/>
            <path id="Trazado_209711" data-name="Trazado 209711" d="M358.494,82.8c6.662,14.079,11.124,41.208,10.365,61.433a70.447,70.447,0,0,1-18.2,45c-5.763,6.422-17.949,9.86-29.831,6.32a51.127,51.127,0,0,1-31.854-28.568c-7.079-15.927,0-42.725,1.517-56.377s20.983-36.91,33.371-39.691,32.775,7.95,34.635,11.882" transform="translate(-227.86 -56.16)" fill="#f39b8b"/>
            <path id="Trazado_209712" data-name="Trazado 209712" d="M554.261,297.96c-.5-.7-1.721-2.894.142-3.453s3.93,4.364,9.143,5.125a55.885,55.885,0,0,1,8.706,1.738c1.367.39,2.668,1.023,2.5,1.273s-9.151.711-13.6-.659c-4.141-1.275-5.719-2.4-6.887-4.024" transform="translate(-441.092 -234.702)" fill="#211d38"/>
            <g id="Grupo_169875" data-name="Grupo 169875" transform="translate(110.939 80.177)" opacity="0.5">
              <g id="Grupo_169874" data-name="Grupo 169874">
                <g id="Grupo_169873" data-name="Grupo 169873" clip-path="url(#clip-path-3)">
                  <path id="Trazado_209713" data-name="Trazado 209713" d="M551.152,398.161c-2.642-.66-4.154-1.4-4.47-1.084s1.264,5.309,7.521,7.774a13.773,13.773,0,0,0,14.536-2.528c2.844-2.654,2.655-5.625.885-6.889s-4.776,1.065-5.562,1.58c-1.833,1.2-6.59,2.727-12.91,1.147" transform="translate(-546.643 -395.063)" fill="#6482ca"/>
                </g>
              </g>
            </g>
            <path id="Trazado_209714" data-name="Trazado 209714" d="M622.025,421.434s-2.407,6.434-1.981,8.785,3.026,3.581,4.224,1.168c1.8-3.632-2.243-9.952-2.243-9.952" transform="translate(-494.167 -335.905)" fill="#6482ca"/>
            <path id="Trazado_209715" data-name="Trazado 209715" d="M546.727,370.415a12.743,12.743,0,0,1,6.025-6.7c4.466-2.149,10.2-.295,11.672,1.475a11.22,11.22,0,0,1,1.98,3.328,18.979,18.979,0,0,1-9.607,2.992,46.731,46.731,0,0,1-10.07-1.1" transform="translate(-435.771 -289.13)" fill="#fff"/>
            <path id="Trazado_209716" data-name="Trazado 209716" d="M581.036,363.88a3.581,3.581,0,0,0-3.192,2.56c-.98,2.591.758,5.536,4.266,5.467,3.192-.063,4.514-2.874,3.508-5.4-1.043-2.623-3.444-2.623-4.582-2.623" transform="translate(-460.357 -290.032)" fill="#6482ca"/>
            <path id="Trazado_209717" data-name="Trazado 209717" d="M591.581,376.026a1.382,1.382,0,0,0-1.232.988,1.567,1.567,0,0,0,1.646,2.11,1.449,1.449,0,0,0,1.354-2.085,1.674,1.674,0,0,0-1.768-1.012" transform="translate(-470.457 -299.713)" fill="#211d38"/>
            <path id="Trazado_209718" data-name="Trazado 209718" d="M602.041,374.936a.564.564,0,0,0-.5.4.64.64,0,0,0,.672.862.592.592,0,0,0,.553-.852.684.684,0,0,0-.722-.413" transform="translate(-479.424 -298.844)" fill="#fff"/>
            <g id="Grupo_169878" data-name="Grupo 169878" transform="translate(110.959 73.619)" style="mix-blend-mode: multiply;isolation: isolate">
              <g id="Grupo_169877" data-name="Grupo 169877">
                <g id="Grupo_169876" data-name="Grupo 169876" clip-path="url(#clip-path-4)">
                  <path id="Trazado_209719" data-name="Trazado 209719" d="M557.017,365.737a13.894,13.894,0,0,1,9.386,2.787l.01-.006a11.214,11.214,0,0,0-1.98-3.329c-1.475-1.77-7.205-3.624-11.671-1.475a12.73,12.73,0,0,0-6.023,6.693,20.079,20.079,0,0,1,10.279-4.671" transform="translate(-546.738 -362.748)" fill="#dedde1"/>
                </g>
              </g>
            </g>
            <path id="Trazado_209720" data-name="Trazado 209720" d="M546.727,367.339s3.076-5.267,7.289-6.657,8.093.2,9.522,1.6a12.761,12.761,0,0,1,2.423,3.434l2.244-1.075a11.886,11.886,0,0,0-10.239-5.751,11.466,11.466,0,0,0-9.955,5.688,7.658,7.658,0,0,0-1.285,2.76" transform="translate(-435.771 -286.054)" fill="#211d38"/>
            <path id="Trazado_209721" data-name="Trazado 209721" d="M496.28,369.476a45.838,45.838,0,0,0-.063,10.736c.185,1.777.394,3.556.716,5.3a19.028,19.028,0,0,0,.593,2.533,16.12,16.12,0,0,0,.993,2.385,20.628,20.628,0,0,0,1.31,2.259c.24.367.495.726.754,1.083l.4.532c.142.207.292.4.418.624a4.979,4.979,0,0,1,.6,1.47,3.034,3.034,0,0,1-.142,1.715,3.556,3.556,0,0,1-.966,1.333,6.594,6.594,0,0,1-1.257.819,14.757,14.757,0,0,1-5.407,1.385,12.426,12.426,0,0,1-5.4-.822,15.314,15.314,0,0,0,10.237-1.609,3.362,3.362,0,0,0,1.544-1.578,1.661,1.661,0,0,0,.034-.947,3.618,3.618,0,0,0-.468-1.005c-.1-.166-.237-.325-.349-.491l-.42-.548c-.276-.37-.549-.744-.808-1.129a21.624,21.624,0,0,1-1.435-2.406,16.775,16.775,0,0,1-1.645-5.371,49.612,49.612,0,0,1-.478-5.46,31.575,31.575,0,0,1,1.248-10.812" transform="translate(-389.616 -294.492)" fill="#211d38"/>
            <path id="Trazado_209722" data-name="Trazado 209722" d="M153.1,65.856a80.439,80.439,0,0,0,13.658-38.174,51.387,51.387,0,0,0-.268-11.629S150.968,4.635,133.561,8.427s-16.124,21.606-20.944,27.168S98.8,46.837,93,60.817c-5.955,14.363-8.387,43.615-7.316,58.784.73,10.342-1.339,34.214-2.143,42.809S116.951,146.5,122.039,146s-.8-44.747-1.071-47.023S142.391,81.783,153.1,65.856" transform="translate(-66.575 -6.101)" fill="#211d38"/>
            <path id="Trazado_209723" data-name="Trazado 209723" d="M476.275,46.452s5.815,11.882,17.7,16.685,18.708,10.618,20.478,14.916,1.011,14.157,3.034,19.719a53.059,53.059,0,0,0,4.045,8.848s-1.264-9.607,2.528-14.157,1.011-36.4-10.365-45.506-17.949-12.64-29.326-10.871-8.09,10.365-8.09,10.365" transform="translate(-379.265 -28.411)" fill="#211d38"/>
            <path id="Trazado_209724" data-name="Trazado 209724" d="M539.886,788.915a9.453,9.453,0,0,0,3.666,6.552,19.2,19.2,0,0,1-2.338-6.889,29.894,29.894,0,0,1,.127-7.079,11.031,11.031,0,0,0-1.454,7.416" transform="translate(-430.236 -622.896)" fill="#211d38"/>
            <path id="Trazado_209725" data-name="Trazado 209725" d="M94.884,706.758s3.186,39.623,29.621,57.472c23.09,15.59,44.494,13.483,54.944.337s9.185-28.715,7.837-37.142a63.558,63.558,0,0,0-3.982-14.347l10.555,2.591s16.264,52.605,19.635,69.122S213.3,811.5,209.112,818.5a74.017,74.017,0,0,1-9.1,12.259H63.494s-10.112-26.753-12.135-38.214-3.118-19.424-3.118-19.424,10.871,5.941,25.365-5.52S89.112,740.635,88.1,731.87s-6.362-24.48-6.362-24.48Z" transform="translate(-38.451 -563.324)" fill="#211d38"/>
            <path id="Trazado_209726" data-name="Trazado 209726" d="M37,655.364s-16.011-4.214-24.607,4.55S1.944,687.218,7,695.645s14.326,13.82,27.135,16.348,31.011-.674,37.584-5.562,13.315-18.708,13.315-18.708-7.416-33.034-11.966-36.067S41.55,656.375,37,655.364" transform="translate(-3.361 -518.84)" fill="#f4a799"/>
            <path id="Trazado_209727" data-name="Trazado 209727" d="M63.635,881.611a23.968,23.968,0,0,0,4.466.127s-5.941-1.643-9.9-4.888c-2.95-2.417-3.034-3.371-3.034-3.371a35.46,35.46,0,0,0,10.112,6.068,37.7,37.7,0,0,0,22.163,1.264c11.5-2.907,15.395-6.334,19.535-11.372a17.586,17.586,0,0,0,3.016-4.7l.961-.19s-4.045,9.944-12.809,14.494-22.416,4.888-31.685,4.382-19.635-5.309-24.86-9.86c7.079,3.539,17.674,7.6,22.037,8.048" transform="translate(-33.156 -689.089)" fill="#211d38"/>
            <path id="Trazado_209728" data-name="Trazado 209728" d="M18.639,670.632a20.012,20.012,0,0,0-9.2,4.839,24.344,24.344,0,0,0-5.617,8.642,34.931,34.931,0,0,0-1.6,4.981,45.057,45.057,0,0,0-.964,5.174A45.732,45.732,0,0,0,.9,699.543a27.253,27.253,0,0,0,.384,5.3,20.259,20.259,0,0,1-1.133-5.27,35.555,35.555,0,0,1,2.26-16.033,26.867,26.867,0,0,1,2.567-4.855,20.112,20.112,0,0,1,3.676-4.1,17.1,17.1,0,0,1,4.714-2.8,17.645,17.645,0,0,1,5.276-1.154" transform="translate(0 -534.529)" fill="#211d38"/>
            <path id="Trazado_209729" data-name="Trazado 209729" d="M849.534,777.762a34.051,34.051,0,0,1,8.631,4.289,21.646,21.646,0,0,1,6.333,7.387,35.772,35.772,0,0,1,3.321,9.173c.349,1.594.621,3.164.917,4.746s.564,3.167.788,4.762a142.479,142.479,0,0,1,1.409,19.239c.031,3.223-.053,6.428-.2,9.635s-.36,6.409-.719,9.6c.089-3.206.09-6.408.073-9.61-.033-3.2-.069-6.405-.225-9.587-.368-6.385-.871-12.751-1.835-19.051-1.061-6.28-1.764-12.718-4.56-18.37a22.056,22.056,0,0,0-5.682-7.42,37.9,37.9,0,0,0-8.249-4.79" transform="translate(-677.124 -619.918)" fill="#211d38"/>
            <path id="Trazado_209730" data-name="Trazado 209730" d="M71.5,179.27s-1.348-7.247-7.079-5.73-2.191,12.978-1.011,19.382,8.6,28.146,8.764,31.517,2.528,42.3,3.876,48.708,3.2,12.135,8.427,14.157,17.528-2.191,20.73-1.011,18.2,1.18,25.618-2.7,12.135-9.1,16.517-16.348,14.832-21.236,19.214-26.461,15.169-14.326,16.685-18.2,2.865-7.416-4.214-8.427S158.632,223.6,155.6,226.292s-9.438,11.292-11.124,12.135-3.371-5.225-1.348-15,8.258-37.584,10.45-49.045,3.034-23.6-2.36-25.618-10.618,17.865-12.3,24.775-10.281,38.6-11.966,39.944-4.045.506-3.2-7.247,6.91-32.528,5.9-53.6-8.764-17.528-11.8-14.326-3.539,23.427-4.55,29.157-3.2,24.944-3.708,29.158-.843,13.315-2.7,14.157,0-9.944-.168-18.371.674-29.157,1.011-34.888,0-11.966-4.214-12.64-6.91,4.045-7.753,9.607-2.7,20.73-3.2,24.27-.337,15-.506,19.888,0,16.854-1.854,18.876-4.55,1.685-5.73-1.854S77.9,194.944,75.71,190.9,71.5,179.27,71.5,179.27" transform="translate(-48.813 -108.308)" fill="#f8c3ba"/>
            <path id="Trazado_209731" data-name="Trazado 209731" d="M123.124,695.231s.793,20.022,4.559,30.131c1.869,5.017,3.237,7.433,8.293,7.77s12.918-2.615,17.022-1.854a49.551,49.551,0,0,0,11.629,1.18c4.55-.169,10.235-1.049,10.235-1.049s-11,3.469-18.733,2.28a24.191,24.191,0,0,0-10.378.286c-3.539.843-10.787,2.865-15-1.011s-5.745-8.889-6.736-16.918a180.974,180.974,0,0,1-.892-20.815" transform="translate(-98.124 -554.136)" fill="#211d38"/>
            <path id="Trazado_209732" data-name="Trazado 209732" d="M457.245,584.23a159,159,0,0,0,10.743-15.9c1.669-2.735,3.366-5.461,5.145-8.147a67.57,67.57,0,0,1,5.878-7.725c4.332-4.823,9.2-9.021,13.616-13.607,1.093-1.156,2.169-2.329,3.187-3.549a20.02,20.02,0,0,0,2.7-3.855,8.815,8.815,0,0,0,1.224-4.434,3.413,3.413,0,0,0-.828-2.1,4.659,4.659,0,0,0-1.974-1.271,4.775,4.775,0,0,1,2.139,1.115,3.72,3.72,0,0,1,1.079,2.213,6.642,6.642,0,0,1-.165,2.476,12.786,12.786,0,0,1-.81,2.328,20.563,20.563,0,0,1-2.591,4.148c-.966,1.3-2.03,2.516-3.089,3.735-4.3,4.822-9.129,9.075-13.348,13.818a69.194,69.194,0,0,0-5.824,7.519c-1.83,2.613-3.549,5.314-5.338,7.977a104.859,104.859,0,0,1-11.743,15.262" transform="translate(-364.449 -417.369)" fill="#211d38"/>
            <path id="Trazado_209733" data-name="Trazado 209733" d="M459.995,283.367a70.649,70.649,0,0,1,2.962-21.685q1.408-5.265,2.6-10.6l1.207-5.327c.387-1.773.751-3.559,1.114-5.343.747-3.566,1.45-7.141,2.155-10.715s1.391-7.155,1.968-10.73c.288-1.77.391-3.579.514-5.393s.153-3.623.1-5.431a23.884,23.884,0,0,0-.66-5.356,7.456,7.456,0,0,0-1.077-2.44,3.379,3.379,0,0,0-2.207-1.423,3.49,3.49,0,0,1,2.379,1.288,7.629,7.629,0,0,1,1.291,2.457,23.205,23.205,0,0,1,.989,5.434c.15,1.834.17,3.673.142,5.506a52.271,52.271,0,0,1-.325,5.512c-.937,7.279-2.353,14.431-3.776,21.6-.737,3.575-1.544,7.152-2.415,10.694s-1.785,7.092-2.869,10.591a84.819,84.819,0,0,0-4.095,21.358" transform="translate(-366.609 -158.557)" fill="#211d38"/>
            <path id="Trazado_209734" data-name="Trazado 209734" d="M372.313,289.035a68.723,68.723,0,0,1-.322,7.974c-.229,2.65-.532,5.292-.868,7.928-.362,2.632-.717,5.266-1.153,7.886l-.644,3.932-.709,3.921c-.236,1.3-.491,2.628-.76,3.908-.254,1.283-.454,2.578-.6,3.874a25.045,25.045,0,0,0-.192,3.879,11.56,11.56,0,0,0,.212,1.885,2.114,2.114,0,0,0,.843,1.362,1.086,1.086,0,0,0,1.377-.248,6.291,6.291,0,0,0,1.055-1.565,29.635,29.635,0,0,0,1.506-3.642c.858-2.5,1.583-5.056,2.193-7.638a70.907,70.907,0,0,1-1.821,7.758,27.537,27.537,0,0,1-1.384,3.766,7.719,7.719,0,0,1-1.092,1.769,2.141,2.141,0,0,1-.98.64,1.674,1.674,0,0,1-1.241-.143,2.946,2.946,0,0,1-1.357-1.826A11.092,11.092,0,0,1,366,332.41a26.182,26.182,0,0,1-.016-4.069c.1-1.346.268-2.68.485-4.008l.685-3.919,2.693-15.669c.465-2.609.893-5.223,1.328-7.837s.843-5.23,1.138-7.872" transform="translate(-291.651 -230.376)" fill="#211d38"/>
            <path id="Trazado_209735" data-name="Trazado 209735" d="M61.92,321.838a6.014,6.014,0,0,0-1.834,3.73,17.132,17.132,0,0,0,0,4.217c.138,1.423.4,2.824.667,4.27s.548,2.871.838,4.3c.574,2.867,1.208,5.725,1.861,8.583.636,2.862,1.365,5.708,1.925,8.6-1.02-2.76-2.025-5.527-2.89-8.345-.441-1.406-.836-2.826-1.236-4.245-.375-1.425-.735-2.855-1.072-4.292s-.63-2.882-.91-4.331a29.776,29.776,0,0,1-.611-4.442,13.539,13.539,0,0,1,.471-4.548,6.852,6.852,0,0,1,1.033-2.081,4.5,4.5,0,0,1,1.761-1.425" transform="translate(-46.736 -256.522)" fill="#211d38"/>
            <path id="Trazado_209736" data-name="Trazado 209736" d="M85.612,412.684a6.718,6.718,0,0,1,2.546-1.615,15.559,15.559,0,0,1,2.889-.786,11.03,11.03,0,0,1-2.668,1.355Z" transform="translate(-68.237 -327.017)" fill="#211d38"/>
            <path id="Trazado_209737" data-name="Trazado 209737" d="M104.3,473.217a4.276,4.276,0,0,1,1.922-1.34,9.419,9.419,0,0,1,2.249-.556,6.643,6.643,0,0,1-2.027,1.125c-.711.269-1.39.513-2.145.771" transform="translate(-83.131 -375.668)" fill="#211d38"/>
            <path id="Trazado_209738" data-name="Trazado 209738" d="M106.166,482.945a4.975,4.975,0,0,1,1.266-1.278,8.392,8.392,0,0,1,1.568-.886,8.672,8.672,0,0,1,3.486-.744c-1.106.456-2.188.843-3.244,1.3a20.568,20.568,0,0,0-3.076,1.6" transform="translate(-84.62 -382.615)" fill="#211d38"/>
            <path id="Trazado_209739" data-name="Trazado 209739" d="M232.6,391.021a14.671,14.671,0,0,1,3.16-.305,14.507,14.507,0,0,1,3.16.305,14.509,14.509,0,0,1-3.16.305,14.671,14.671,0,0,1-3.16-.305" transform="translate(-185.398 -311.421)" fill="#211d38"/>
            <path id="Trazado_209740" data-name="Trazado 209740" d="M229.9,405.163a47.147,47.147,0,0,0-5.5-.669q-1.375-.085-2.75-.037a15.648,15.648,0,0,0-2.746.327,8.226,8.226,0,0,1,2.7-.8,14.97,14.97,0,0,1,2.827-.1,15.519,15.519,0,0,1,5.466,1.279" transform="translate(-174.476 -321.898)" fill="#211d38"/>
            <path id="Trazado_209741" data-name="Trazado 209741" d="M240.7,291.775a5.8,5.8,0,0,1,1.749-.558,8.931,8.931,0,0,1,1.837-.113,8.418,8.418,0,0,1,1.821.282,5.049,5.049,0,0,1,1.671.768,20.1,20.1,0,0,0-3.52-.44,29.432,29.432,0,0,0-3.559.06" transform="translate(-191.852 -232.02)" fill="#211d38"/>
            <path id="Trazado_209742" data-name="Trazado 209742" d="M341.6,236.406a10.542,10.542,0,0,1,3.677-.66,9.8,9.8,0,0,1,1.876.168,5.844,5.844,0,0,1,1.779.619,30,30,0,0,0-3.652-.176c-1.214,0-2.425.069-3.68.05" transform="translate(-272.275 -187.902)" fill="#211d38"/>
            <path id="Trazado_209743" data-name="Trazado 209743" d="M336,337.716c1.292-.139,2.53-.357,3.841-.4a7.8,7.8,0,0,1,1.966.182,4.322,4.322,0,0,1,1.778.846,10.74,10.74,0,0,0-3.73-.418c-.631.008-1.27.043-1.918.026a7.653,7.653,0,0,1-1.936-.24" transform="translate(-267.808 -268.86)" fill="#211d38"/>
            <path id="Trazado_209744" data-name="Trazado 209744" d="M336.107,359.871a15.082,15.082,0,0,0-3.751-.331,27.305,27.305,0,0,1-3.834-.048,17.448,17.448,0,0,1,3.824-.562,8.454,8.454,0,0,1,1.954.186,5.156,5.156,0,0,1,1.806.755" transform="translate(-261.85 -286.086)" fill="#211d38"/>
            <path id="Trazado_209745" data-name="Trazado 209745" d="M467.417,287.536a5.156,5.156,0,0,1,1.86-.146,9.6,9.6,0,0,1,1.83.351,17.37,17.37,0,0,1,3.389,1.438,21.878,21.878,0,0,1-3.559-.851,21.6,21.6,0,0,0-3.519-.792" transform="translate(-372.556 -229.046)" fill="#211d38"/>
            <path id="Trazado_209746" data-name="Trazado 209746" d="M461.281,390.311a15.317,15.317,0,0,1-3.192-.79c-1.025-.34-2.036-.606-3.128-.853a6.483,6.483,0,0,1,3.314.272,16.317,16.317,0,0,1,3.006,1.372" transform="translate(-362.628 -309.7)" fill="#211d38"/>
            <path id="Trazado_209747" data-name="Trazado 209747" d="M450.6,400.732a6.135,6.135,0,0,1,2.482-.152,4.742,4.742,0,0,1,2.322.91c-.843-.084-1.611-.2-2.4-.306a16.506,16.506,0,0,1-2.4-.453" transform="translate(-359.153 -319.237)" fill="#211d38"/>
            <path id="Trazado_209748" data-name="Trazado 209748" d="M542.782,585.925a9.018,9.018,0,0,1,3.12,1.73,6.138,6.138,0,0,1,1.185,1.381,4.256,4.256,0,0,1,.625,1.693,10.61,10.61,0,0,0-2.212-2.614c-.851-.757-1.814-1.4-2.718-2.19" transform="translate(-432.626 -467.013)" fill="#211d38"/>
          </g>
        </g>
      </g>
    </g>
  </g>
</svg>
