<svg xmlns="http://www.w3.org/2000/svg" xmlns:xlink="http://www.w3.org/1999/xlink" width="505" height="275" viewBox="0 0 505 275">
  <defs>
    <clipPath id="clip-path">
      <rect id="Rectángulo_49048" data-name="Rectángulo 49048" width="431.244" height="275" fill="none"/>
    </clipPath>
    <clipPath id="clip-path-2">
      <rect id="Rectángulo_49047" data-name="Rectángulo 49047" width="431.243" height="274.999" fill="none"/>
    </clipPath>
    <clipPath id="clip-path-3">
      <rect id="Rectángulo_49046" data-name="Rectángulo 49046" width="21.852" height="12.392" fill="none"/>
    </clipPath>
  </defs>
  <g id="Grupo_169884" data-name="Grupo 169884" transform="translate(-810 -9600)">
    <rect id="Rectángulo_48864" data-name="Rectángulo 48864" width="505" height="275" transform="translate(810 9600)" fill="#fae3e7"/>
    <g id="Grupo_169872" data-name="Grupo 169872" transform="translate(810 9600)">
      <g id="Grupo_169871" data-name="Grupo 169871" clip-path="url(#clip-path)">
        <g id="Grupo_169870" data-name="Grupo 169870" transform="translate(0 0.001)">
          <g id="Grupo_169869" data-name="Grupo 169869" clip-path="url(#clip-path-2)">
            <path id="Trazado_209637" data-name="Trazado 209637" d="M1953.331,503.394h-.825c0-9.94-4.659-21.05-9.591-32.812-3.924-9.357-7.981-19.032-9.881-28.666-2.426-12.3-1.556-19.326-.634-26.764a81.035,81.035,0,0,0,.628-19.319l.822-.077a81.753,81.753,0,0,1-.631,19.5c-.913,7.371-1.776,14.332.625,26.5,1.884,9.552,5.925,19.188,9.833,28.506,4.966,11.84,9.656,23.024,9.656,33.131" transform="translate(-1541.529 -315.86)" fill="#361646"/>
            <path id="Trazado_209638" data-name="Trazado 209638" d="M394.169,94.111c-15.611,72.408,43.744,85.416-24.463,129.44-22.6,14.59-47.608,24.587-55.528,51.323H0V0H213.457c17.024,13.748,34.866,26.241,56.012,26.109,44.977-.279,81.406-25.255,115.2,21.112,9.423,14.216,13.327,29.138,9.5,46.887" transform="translate(0 -0.004)" fill="#361646"/>
            <path id="Trazado_209639" data-name="Trazado 209639" d="M1707.078,713.611l-.349-.352c6.915-6.847,14.066-13.927,20.058-21.8,6.695-8.8,11.117-17.633,13.144-26.258,3.486-14.832.383-30.622-2.354-44.552l.486-.1c2.747,13.98,5.86,29.824,2.35,44.76-2.043,8.694-6.495,17.591-13.232,26.445-6.014,7.9-13.176,15-20.1,21.854" transform="translate(-1362.168 -495.273)" fill="#82468c"/>
            <path id="Trazado_209640" data-name="Trazado 209640" d="M1862.645,812.349l-.408-.281a58.369,58.369,0,0,0,8.688-45.414l.483-.111a58.871,58.871,0,0,1-8.763,45.8" transform="translate(-1486.281 -611.792)" fill="#82468c"/>
            <path id="Trazado_209641" data-name="Trazado 209641" d="M1407.427,857.249l-.29,101.935h-81.667c4.8-84.838,62.042-79.818,81.958-101.935" transform="translate(-1057.878 -684.185)" fill="#c81e64"/>
            <path id="Trazado_209642" data-name="Trazado 209642" d="M1811.662,959.184h-81.667l.291-101.935c19.913,22.117,86.864,20.851,81.376,101.935" transform="translate(-1380.737 -684.185)" fill="#c81e64"/>
            <path id="Trazado_209643" data-name="Trazado 209643" d="M1608.127,912.737c-22.494,21.3-6.854,61.646,17.858,22.471,17.7-28.054-17.858-22.471-17.858-22.471" transform="translate(-1274.804 -728.11)" fill="#fff"/>
            <path id="Trazado_209644" data-name="Trazado 209644" d="M1720.507,912.241c22.494,21.3,5.912,63.711-17.857,22.471-16.563-28.737,17.857-22.471,17.857-22.471" transform="translate(-1355.316 -727.614)" fill="#fff"/>
            <path id="Trazado_209645" data-name="Trazado 209645" d="M1673.088,714.011h0c0,28.174-38.537,28.174-38.537,0h0q1.427-4.574,2.529-9.228,1.443-6.092,2.323-12.284a137.169,137.169,0,0,0,1.37-19.348q0-6.216-.564-12.432l-.094-1.043-.141-1.552h27.693l-.231,2.634-.034.39c-.042.483-.083.968-.12,1.451q-.358,4.63-.4,9.264-.054,5.687.362,11.352a137.333,137.333,0,0,0,5.727,30.4Z" transform="translate(-1304.562 -525.259)" fill="#febabd"/>
            <path id="Trazado_209646" data-name="Trazado 209646" d="M1677.237,689.349c-7.027,8.577-17.9,16.183-30.16,21.568q1.443-6.092,2.323-12.284a137.189,137.189,0,0,0,1.37-19.348q0-6.216-.564-12.432l-.094-1.043h7.935l19.231,2.923q-.358,4.631-.4,9.265-.054,5.686.362,11.352" transform="translate(-1314.559 -531.394)" fill="#d16e82"/>
            <path id="Trazado_209647" data-name="Trazado 209647" d="M1608.247,290.386c-2.3,23.482-3.995,34.571-10,43.968q-.364.567-.748,1.127c-.073.107-.147.215-.221.322q-.3.423-.606.844c-.127.173-.256.348-.39.522-.173.233-.353.466-.536.7-.147.187-.3.375-.448.561q-.354.441-.726.882a77.666,77.666,0,0,1-5.611,5.908c-9.871,9.388-12.729,11.183-20.826,10.8-8.371-.267-17.8-11.016-24.344-18.536-7.783-9.906-9.761-21.734-12.2-47.1-8.391-63.139,85.314-62.391,76.651,0" transform="translate(-1221.967 -194.192)" fill="#febabd"/>
            <path id="Trazado_209648" data-name="Trazado 209648" d="M1712.414,636.229a13.891,13.891,0,0,1-4.324.694,3.763,3.763,0,0,1-3.7-3.5l-.151-2-.357,2.656a3.78,3.78,0,0,0,3.753,4.286,5.388,5.388,0,0,0,4.777-2.135" transform="translate(-1359.87 -503.949)" fill="#d16e82"/>
            <path id="Trazado_209649" data-name="Trazado 209649" d="M1709.336,711.926a18.155,18.155,0,0,0-13.99,0Z" transform="translate(-1353.083 -567.079)" fill="#fefefe"/>
            <path id="Trazado_209650" data-name="Trazado 209650" d="M1709.336,711.926a18.155,18.155,0,0,0-13.99,0Z" transform="translate(-1353.083 -567.079)" fill="none" stroke="#d16e82" stroke-linecap="round" stroke-miterlimit="10" stroke-width="5.724"/>
            <g id="Grupo_169868" data-name="Grupo 169868" transform="translate(357.132 108.372)" opacity="0.4">
              <g id="Grupo_169867" data-name="Grupo 169867">
                <g id="Grupo_169866" data-name="Grupo 169866" clip-path="url(#clip-path-3)">
                  <path id="Trazado_209651" data-name="Trazado 209651" d="M1780.311,549.183a11.74,11.74,0,0,0,10.362-8.764,4.565,4.565,0,0,0,.118-1.926,2.1,2.1,0,0,0-1.094-1.521,3.413,3.413,0,0,0-2.755.425,51.235,51.235,0,0,1-8.917,3.117q-2.271.566-4.588.924c-1.224.189-3.411,0-4.44.594,1.191,4.521,6.962,7.436,11.313,7.15" transform="translate(-1768.999 -536.81)" fill="#d16e82"/>
                </g>
              </g>
            </g>
            <path id="Trazado_209652" data-name="Trazado 209652" d="M1850.5,583.442a1.887,1.887,0,1,1-3.775,0c0-1.042,1.887-4.79,1.887-4.79s1.887,3.748,1.887,4.79" transform="translate(-1473.903 -461.832)" fill="#fff"/>
            <path id="Trazado_209653" data-name="Trazado 209653" d="M1769.07,514.741s.466-9.309,8.894-11.531c10.919-2.879,12.517,6,12.517,6Z" transform="translate(-1411.923 -401.162)" fill="#d16e82"/>
            <path id="Trazado_209654" data-name="Trazado 209654" d="M1769.07,526.151a13.772,13.772,0,0,1,11.285-8.909c9.1-1.434,13.3,2.571,13.3,2.571l-3.176.81Z" transform="translate(-1411.923 -412.572)" fill="#361646"/>
            <path id="Trazado_209655" data-name="Trazado 209655" d="M1769.07,535.438s5.708-10.513,21.411-5.529c-4.493,10.493-14.862,8.976-21.411,5.529" transform="translate(-1411.923 -421.86)" fill="#fefefe"/>
            <path id="Trazado_209656" data-name="Trazado 209656" d="M1800.8,528.864c-6.024-.9-10.193.681-12.874,2.525a7.071,7.071,0,0,0,1.432,6.121c4.236,1.019,8.879.725,12.423-2.42a7.173,7.173,0,0,0-.981-6.226" transform="translate(-1426.829 -421.889)" fill="#361646"/>
            <path id="Trazado_209657" data-name="Trazado 209657" d="M1777.255,454.956c3.713-1.46,11.4-3.764,17.7-.932-7.112-5.519-13.134-4.92-19.1-3.139a2.154,2.154,0,1,0,1.395,4.072" transform="translate(-1416.108 -358.858)" fill="#361646"/>
            <path id="Trazado_209658" data-name="Trazado 209658" d="M1593.365,514.741s-.466-9.309-8.894-11.531c-10.919-2.879-12.517,6-12.517,6Z" transform="translate(-1254.602 -401.162)" fill="#aa4664"/>
            <path id="Trazado_209659" data-name="Trazado 209659" d="M1580.808,526.151a13.772,13.772,0,0,0-11.285-8.909c-9.1-1.434-13.3,2.571-13.3,2.571l3.176.81Z" transform="translate(-1242.045 -412.572)" fill="#361646"/>
            <path id="Trazado_209660" data-name="Trazado 209660" d="M1593.365,535.438s-5.708-10.513-21.411-5.529c4.493,10.493,14.862,8.976,21.411,5.529" transform="translate(-1254.602 -421.86)" fill="#fefefe"/>
            <path id="Trazado_209661" data-name="Trazado 209661" d="M1589.513,528.864c6.024-.9,10.193.681,12.874,2.525a7.269,7.269,0,0,1,.152.913,7.154,7.154,0,0,1-1.585,5.208c-4.236,1.019-8.879.725-12.423-2.42a7.172,7.172,0,0,1,.981-6.226" transform="translate(-1267.579 -421.889)" fill="#361646"/>
            <path id="Trazado_209662" data-name="Trazado 209662" d="M1589.6,447.628c-3.965-.442-11.991-.661-17.332,3.715,5.428-7.182,11.4-8.174,17.616-8.009a2.154,2.154,0,1,1-.284,4.294" transform="translate(-1254.851 -353.82)" fill="#361646"/>
            <path id="Trazado_209663" data-name="Trazado 209663" d="M1458.074,212.939c-22.808,26.16-16.114,58.447-52.807,81.509-12.267,7.71-5.339-28.238-22.932-26.563-9.843,1.422-12.955-6.693-11.733-15.374,1.663-21.87,8.041-46.66,28.1-58.525,20.127-13.812,80.211-4.947,59.374,18.953" transform="translate(-1093.699 -149.601)" fill="#361646"/>
            <path id="Trazado_209664" data-name="Trazado 209664" d="M1795.675,229.851c-.59,26.064,23.713,37.453,22.654,48.666-1.973,20.888,6.267-3.8,6.267-3.8l-3.7-37.807-25.809-17.825Z" transform="translate(-1432.686 -174.855)" fill="#361646"/>
            <path id="Trazado_209665" data-name="Trazado 209665" d="M1896.09,518.7c-18.081,22.379-15.258-3.183-8.083-13.929,9.251-6.212,12.99,7.857,8.083,13.929" transform="translate(-1502.432 -401.633)" fill="#febabd"/>
            <path id="Trazado_209666" data-name="Trazado 209666" d="M1404.727,100.21c-21.084-16.166-45.356-14.159-68.829-12.217-13.307,1.1-25.876,2.14-37.5-.084l.155-.811c11.512,2.2,24.026,1.168,37.275.073,11.651-.964,23.7-1.96,35.445-.672,13.291,1.458,24.4,5.729,33.954,13.057Z" transform="translate(-1036.274 -68.548)" fill="#361646"/>
            <path id="Trazado_209667" data-name="Trazado 209667" d="M1701.832,363.562l-.768-.3c1.606-4.074,2.962-8.818,4.4-13.841,3.384-11.838,7.22-25.257,15.662-33.627l.581.586c-8.288,8.219-12.093,21.527-15.449,33.268-1.442,5.042-2.8,9.8-4.423,13.916" transform="translate(-1357.647 -252.039)" fill="#361646"/>
            <path id="Trazado_209668" data-name="Trazado 209668" d="M1487.562,1128.7a58.147,58.147,0,0,0,3.656-7.236v0a12.257,12.257,0,0,0,1.051-4.177,7.825,7.825,0,0,0-1.118-4.225,7.906,7.906,0,0,0-6.6-3.494,7.5,7.5,0,0,0-7.717,7.719,11.549,11.549,0,0,0,.914,3.829,55.973,55.973,0,0,0,3.792,7.585c-2.063,3.358-4.468,6.981-6.8,10.249l4.185,2.989c1.179-1.65,3.363-4.769,5.627-8.312,2.265,3.544,4.448,6.662,5.628,8.312l4.185-2.989c-2.333-3.268-4.739-6.89-6.8-10.248m-5.582-11.415a2.355,2.355,0,0,1,2.572-2.572,4.206,4.206,0,0,1,.432.035,3.144,3.144,0,0,1,.539.116l.04.011a2.238,2.238,0,0,1,1.561,2.41c0,1.051-1,3.342-2.572,6.243-1.574-2.9-2.572-5.192-2.572-6.243" transform="translate(-1177.013 -885.566)" fill="#fff"/>
            <path id="Trazado_209669" data-name="Trazado 209669" d="M1973.825,1307.278a42.159,42.159,0,0,0-4.271,10.953h-.339a42.474,42.474,0,0,1,4.322-11.115Z" transform="translate(-1571.663 -1043.231)" fill="#361646"/>
            <path id="Trazado_209670" data-name="Trazado 209670" d="M1473.292,1317.962h-.343a39.86,39.86,0,0,0-4.982-11l.276-.182a40.167,40.167,0,0,1,5.05,11.182" transform="translate(-1171.608 -1042.963)" fill="#361646"/>
            <path id="Trazado_209671" data-name="Trazado 209671" d="M1270.177,168.855l-.495-.015c.259-8.532-5.83-17.371-14.809-21.5-7.34-3.372-16.518-4.094-27.281-2.147-5.367.971-10.711,2.482-15.88,3.943-3.65,1.032-7.423,2.1-11.181,2.969a121.657,121.657,0,0,1-69.436-4.48l.173-.464a121.65,121.65,0,0,0,69.151,4.462c3.746-.868,7.514-1.933,11.158-2.963,5.18-1.464,10.537-2.979,15.927-3.954,10.865-1.965,20.142-1.23,27.576,2.184a27.885,27.885,0,0,1,10.855,8.911,21.265,21.265,0,0,1,4.242,13.05" transform="translate(-902.745 -114.639)" fill="#82468c"/>
            <path id="Trazado_209672" data-name="Trazado 209672" d="M1189.141,168.652a40.945,40.945,0,0,0-24.855-9.714c-7.445-.293-14.874,1.476-22.058,3.185-2.179.518-4.432,1.054-6.651,1.525a136.72,136.72,0,0,1-103.166-19.921l.276-.411c29.557,19.8,67.982,27.224,102.788,19.848,2.213-.469,4.464-1,6.639-1.522,7.218-1.717,14.68-3.492,22.193-3.2a41.443,41.443,0,0,1,25.156,9.832Z" transform="translate(-823.984 -114.383)" fill="#82468c"/>
            <path id="Trazado_209673" data-name="Trazado 209673" d="M401.053,97.613l-.185.461c-6.791-2.744-13.655-5.634-20.295-8.43C366.428,83.684,351.8,77.521,337.044,72.45c-25.169-8.652-47.158-12.729-67.224-12.459-18.782.253-36.54,4.532-51.4,12.249v-.584a102.734,102.734,0,0,1,17.333-7.012A122.618,122.618,0,0,1,269.813,59.5a163.441,163.441,0,0,1,34.173,3.33,252.6,252.6,0,0,1,33.22,9.155c14.771,5.078,29.407,11.242,43.561,17.2,6.636,2.8,13.5,5.687,20.286,8.427" transform="translate(-174.325 -47.476)" fill="#82468c"/>
            <path id="Trazado_209674" data-name="Trazado 209674" d="M1234.054,315.627a44.837,44.837,0,0,1-9.657-1.014l.107-.484c10.275,2.264,22.287.658,35.7-4.773,6.045-2.447,11.972-5.44,17.7-8.334,5.018-2.534,10.208-5.154,15.464-7.4,13.666-5.847,25.388-7.878,35.838-6.211l-.078.489c-10.354-1.652-21.988.369-35.565,6.178-5.242,2.243-10.425,4.859-15.436,7.39-5.741,2.9-11.676,5.9-17.74,8.351a81.567,81.567,0,0,1-17.75,5.118,55.281,55.281,0,0,1-8.586.694" transform="translate(-977.211 -228.937)" fill="#82468c"/>
            <path id="Trazado_209675" data-name="Trazado 209675" d="M301.416,941.108a110.092,110.092,0,0,1,39.143-86.581l.316.381c-24.979,20.72-39.91,53.745-38.964,86.186Z" transform="translate(-240.531 -682.013)" fill="#82468c"/>
            <path id="Trazado_209676" data-name="Trazado 209676" d="M660.751,943.984a93.505,93.505,0,0,0-46.357,83.955h-.535q-.052-1.731-.04-3.473A94.692,94.692,0,0,1,660.5,943.556Z" transform="translate(-489.897 -753.068)" fill="#82468c"/>
            <path id="Trazado_209677" data-name="Trazado 209677" d="M720.9,1120.648h-.571a81.858,81.858,0,0,1-6.166-22.342,80.105,80.105,0,0,1,4.375-38.59l.464.177c-7.333,19.278-6.411,41.771,1.9,60.755" transform="translate(-569.444 -845.777)" fill="#82468c"/>
            <path id="Trazado_209678" data-name="Trazado 209678" d="M348.251,391.074l-.094.487c-32.859-6.3-59.775-5.159-82.286,3.478s-40.16,26.156-47.45,46.012v-1.567A71.535,71.535,0,0,1,231.36,418.4a88.289,88.289,0,0,1,34.334-23.821c22.6-8.672,49.6-9.817,82.557-3.5" transform="translate(-174.325 -308.928)" fill="#82468c"/>
            <path id="Trazado_209679" data-name="Trazado 209679" d="M770.956,346.54c-13.74,0-27.48-3.419-40.867-6.75-6.738-1.676-13.7-3.41-20.562-4.68a167.351,167.351,0,0,0-73.473,2.923l-.129-.478a167.857,167.857,0,0,1,73.692-2.932c6.872,1.273,13.847,3.008,20.591,4.686,17.135,4.264,34.854,8.672,52.352,5.836l.079.489a72.891,72.891,0,0,1-11.684.905" transform="translate(-507.542 -264.863)" fill="#82468c"/>
            <path id="Trazado_209680" data-name="Trazado 209680" d="M758.792,987.1l-.425-.255c6.535-10.892,16.812-20.382,30.545-28.2a194.4,194.4,0,0,1,27.328-12.359l.175.463a193.912,193.912,0,0,0-27.258,12.326c-13.658,7.78-23.875,17.211-30.365,28.029" transform="translate(-605.265 -755.24)" fill="#82468c"/>
            <path id="Trazado_209681" data-name="Trazado 209681" d="M1252.872,845.174c-6.869,14.345-14.03,35.208-12.3,57.574h-.5c-1.722-22.459,5.462-43.394,12.354-57.789,10.169-21.239,24.869-40.059,39.085-58.261l.391.305c-14.2,18.18-28.883,36.979-39.029,58.17" transform="translate(-989.513 -627.878)" fill="#82468c"/>
            <path id="Trazado_209682" data-name="Trazado 209682" d="M1318.648,433.515l-.267-.417c19.4-12.418,41.392-26.493,55.561-46.738a190.311,190.311,0,0,0,11.365-19.342c5.158-9.627,10.491-19.583,18.079-27.66l.361.339c-7.543,8.029-12.861,17.955-18,27.554a190.737,190.737,0,0,1-11.4,19.393c-14.225,20.325-36.26,34.428-55.7,46.871" transform="translate(-1052.221 -270.847)" fill="#82468c"/>
            <path id="Trazado_209683" data-name="Trazado 209683" d="M1416.639,372.183l1.4-.592a99.438,99.438,0,0,0,30.21-19.955c3.007-2.893,5.878-6.025,8.653-9.053,2.137-2.331,4.346-4.741,6.607-7.03,3.992-4.043,10.175-9.816,17.745-13.246l.2.451c-7.5,3.4-13.633,9.127-17.6,13.143-2.254,2.283-4.46,4.69-6.594,7.017-2.781,3.034-5.657,6.171-8.676,9.075a99.906,99.906,0,0,1-28.925,19.432,51.524,51.524,0,0,0,38.582-25.733l.434.239a51.664,51.664,0,0,1-40.527,26.135Z" transform="translate(-1130.643 -257.239)" fill="#82468c"/>
            <path id="Trazado_209684" data-name="Trazado 209684" d="M1804.83,657.9q-.364.567-.748,1.128c-.073.107-.147.215-.221.322q-.3.424-.606.844c-.127.173-.256.348-.39.522-.173.233-.353.465-.536.7-.147.186-.3.375-.447.561q-.354.441-.726.882l-10.183-8.744a3.078,3.078,0,1,1,4.01-4.67Z" transform="translate(-1428.547 -517.737)" fill="#ffe6e6"/>
            <path id="Trazado_209685" data-name="Trazado 209685" d="M1823.474,675.95l-2,2.326a.911.911,0,0,1-1.284.1l-2.9-2.491a.911.911,0,0,1-.1-1.284l2-2.326a.911.911,0,0,1,1.284-.1l2.9,2.491a.911.911,0,0,1,.1,1.284" transform="translate(-1450.156 -536.299)" fill="#f0c8c8"/>
            <path id="Trazado_209686" data-name="Trazado 209686" d="M1809.794,677.5a.374.374,0,1,1-.527.04.375.375,0,0,1,.527-.04" transform="translate(-1443.933 -540.653)" fill="#f0c8c8"/>
            <path id="Trazado_209687" data-name="Trazado 209687" d="M1814.868,671.593a.374.374,0,1,1-.527.04.374.374,0,0,1,.527-.04" transform="translate(-1447.983 -535.938)" fill="#f0c8c8"/>
            <path id="Trazado_209688" data-name="Trazado 209688" d="M1820.343,665.217a.374.374,0,1,1-.527.04.374.374,0,0,1,.527-.04" transform="translate(-1452.352 -530.849)" fill="#f0c8c8"/>
            <path id="Trazado_209689" data-name="Trazado 209689" d="M1805.1,673.467a.374.374,0,1,1-.527.04.374.374,0,0,1,.527-.04" transform="translate(-1440.183 -537.434)" fill="#f0c8c8"/>
            <path id="Trazado_209690" data-name="Trazado 209690" d="M1810.17,667.558a.374.374,0,1,1-.527.04.374.374,0,0,1,.527-.04" transform="translate(-1444.233 -532.717)" fill="#f0c8c8"/>
            <path id="Trazado_209691" data-name="Trazado 209691" d="M1815.645,661.183a.374.374,0,1,1-.528.04.374.374,0,0,1,.528-.04" transform="translate(-1448.603 -527.629)" fill="#f0c8c8"/>
            <path id="Trazado_209692" data-name="Trazado 209692" d="M1800.4,669.432a.374.374,0,1,1-.528.04.374.374,0,0,1,.528-.04" transform="translate(-1436.434 -534.213)" fill="#f0c8c8"/>
            <path id="Trazado_209693" data-name="Trazado 209693" d="M1805.472,663.524a.374.374,0,1,1-.527.04.374.374,0,0,1,.527-.04" transform="translate(-1440.484 -529.498)" fill="#f0c8c8"/>
            <path id="Trazado_209694" data-name="Trazado 209694" d="M1810.947,657.148a.374.374,0,1,1-.527.04.374.374,0,0,1,.527-.04" transform="translate(-1444.853 -524.409)" fill="#f0c8c8"/>
            <path id="Trazado_209695" data-name="Trazado 209695" d="M1849.421,711.558c-.147.187-.3.375-.448.561a.372.372,0,0,1,.448-.561" transform="translate(-1475.639 -567.883)" fill="#f0c8c8"/>
            <path id="Trazado_209696" data-name="Trazado 209696" d="M1854.392,705.623c-.127.173-.256.348-.39.522a.375.375,0,0,1,.39-.522" transform="translate(-1479.684 -563.168)" fill="#f0c8c8"/>
            <path id="Trazado_209697" data-name="Trazado 209697" d="M1859.278,699.861q-.109.161-.221.322a.378.378,0,0,1,.088-.223.365.365,0,0,1,.134-.1" transform="translate(-1483.744 -558.571)" fill="#f0c8c8"/>
            <path id="Trazado_209698" data-name="Trazado 209698" d="M1844.819,707.581a.374.374,0,1,1-.528.04.374.374,0,0,1,.528-.04" transform="translate(-1471.887 -564.661)" fill="#f0c8c8"/>
            <path id="Trazado_209699" data-name="Trazado 209699" d="M1849.893,701.672a.374.374,0,1,1-.527.04.374.374,0,0,1,.527-.04" transform="translate(-1475.937 -559.944)" fill="#f0c8c8"/>
            <path id="Trazado_209700" data-name="Trazado 209700" d="M1854.967,695.764a.374.374,0,1,1-.528.04.374.374,0,0,1,.528-.04" transform="translate(-1479.986 -555.229)" fill="#f0c8c8"/>
            <path id="Trazado_209701" data-name="Trazado 209701" d="M1203.3,954.636l-.541,1.028c-6.8,12.917-13.83,26.274-19.2,40.117-5.73,14.788-8.82,28.227-9.421,41h-.5c.6-12.835,3.7-26.331,9.454-41.18,5.231-13.5,12.036-26.52,18.67-39.125a114.414,114.414,0,0,0-34.282,46.075l-.459-.186a114.9,114.9,0,0,1,35.355-47.009Z" transform="translate(-931.422 -761.911)" fill="#82468c"/>
            <path id="Trazado_209702" data-name="Trazado 209702" d="M1839.7,311.367l-.493-.044c.869-9.619,1.768-19.565-.248-29.2a25.347,25.347,0,0,0-2.765-7.768c-3.608-6.164-11.35-9.914-18-8.723l-.087-.488a17.264,17.264,0,0,1,10.561,1.674,19,19,0,0,1,7.959,7.286,25.821,25.821,0,0,1,2.821,7.917c2.031,9.706,1.129,19.69.257,29.345" transform="translate(-1451.06 -211.433)" fill="#82468c"/>
            <path id="Trazado_209703" data-name="Trazado 209703" d="M1834.027,305.466c-1.335-5.755-2.716-11.705-5.609-16.974-3.193-5.814-8-9.9-13.185-11.2l.12-.48c5.32,1.337,10.24,5.508,13.5,11.442,2.926,5.329,4.314,11.314,5.657,17.1Z" transform="translate(-1448.767 -220.928)" fill="#82468c"/>
            <path id="Trazado_209704" data-name="Trazado 209704" d="M1836.4,335.714c-1.56-4.255-4.535-7.844-7.413-11.315-1.517-1.831-3.087-3.724-4.444-5.705a39.337,39.337,0,0,1-6.763-20.266l.5-.022a38.828,38.828,0,0,0,6.677,20.007c1.345,1.962,2.906,3.847,4.417,5.669,2.9,3.5,5.907,7.126,7.5,11.461Z" transform="translate(-1450.798 -238.163)" fill="#82468c"/>
            <path id="Trazado_209705" data-name="Trazado 209705" d="M1783.37,129.568l-.443-.222a25.009,25.009,0,0,0,2.638-10.557,22.417,22.417,0,0,0-3.792-13.227,18.527,18.527,0,0,0-11.271-7.652l.1-.485a19.025,19.025,0,0,1,11.577,7.856,22.917,22.917,0,0,1,3.881,13.521,25.519,25.519,0,0,1-2.691,10.768" transform="translate(-1413.068 -77.756)" fill="#82468c"/>
            <path id="Trazado_209706" data-name="Trazado 209706" d="M1841.855,184.12l-.359-.341a18.925,18.925,0,0,0,4.716-16.892l.484-.106a19.425,19.425,0,0,1-4.84,17.339" transform="translate(-1469.728 -133.111)" fill="#82468c"/>
          </g>
        </g>
      </g>
    </g>
  </g>
</svg>
