<svg xmlns="http://www.w3.org/2000/svg" xmlns:xlink="http://www.w3.org/1999/xlink" width="189.678" height="169.804" viewBox="0 0 189.678 169.804">
  <defs>
    <clipPath id="clip-path">
      <path id="Trazado_208606" data-name="Trazado 208606" d="M199.131,211.5c-9.73,49.378-47.981,39.28-62.74,47.691-16.619,9.471-15.287,11.752-22,15.191-14.076,7.21-29.539,6.374-42.2,4.165-27.856-4.86-50.506-26.765-57.195-54.421-12.95-53.548,32.147-89.105,47.74-95.95a126.708,126.708,0,0,1,50.879-11.145c54.659,0,96.249,40.01,85.517,94.469" transform="translate(-12.688 -117.03)" fill="none"/>
    </clipPath>
  </defs>
  <g id="Grupo_165269" data-name="Grupo 165269" transform="translate(-285.322 -13511.163)">
    <path id="Trazado_208583" data-name="Trazado 208583" d="M114.39,274.381c6.714-3.439,5.382-5.72,22-15.191,14.759-8.411,53.009,1.686,62.74-47.691,13.9-70.557-60.011-116.857-136.4-83.324-15.592,6.845-60.69,42.4-47.74,95.95,6.689,27.657,29.339,49.561,57.195,54.421,12.662,2.209,28.125,3.045,42.2-4.165" transform="translate(272.635 13394.133)" fill="#ce8c74"/>
    <path id="Trazado_208584" data-name="Trazado 208584" d="M0,1405.133c0,2.779,18.853,5.031,42.109,5.031s42.109-2.252,42.109-5.031-18.853-5.031-42.109-5.031S0,1402.354,0,1405.133" transform="translate(390.782 12266.684)" fill="#ad6e5a"/>
    <g id="Grupo_165268" data-name="Grupo 165268" transform="translate(285.322 13511.163)">
      <g id="Grupo_165267" data-name="Grupo 165267" clip-path="url(#clip-path)">
        <path id="Trazado_208585" data-name="Trazado 208585" d="M419.119,92.525a3.609,3.609,0,0,0,2-2.389c.99-2.515.628-4.48.5-8.665-.086-2.838-.013-5.034.052-7.023.1-3.083.244-3.6.355-6.006.286-6.182-.436-7.407-.183-11.995a61.276,61.276,0,0,1,1-8.519c1.346-8.717,2.019-13.075.743-17.75-1.159-4.245-3.222-3.5-6.675-10.612-4.234-8.725-2.876-12.21-5.811-15.392-5.791-6.279-17.434-4.859-20.769.176-.481.726-1.044,1.995-.152,8.1,1.49,10.207,4.042,10.569,4.122,16.515.071,5.325-.879,4.4-1.783,16.672-.129,1.755-.981,4.115-.035,7.058a84.241,84.241,0,0,0,5.115,12.424c.495,1.04,2.323,3.094,4.15,2.042.1-.057,1.785,4.828,5.953,3.22a13.936,13.936,0,0,0,1.36,1.715,3.742,3.742,0,0,0,3.726.973c.028.01.043.024.044.044.106,1.826.927,3.916,1.278,5.981.227,1.335.236,4.267,1.052,9.006.426,2.476.791,3.341,1.276,3.824a2.723,2.723,0,0,0,2.673.6" transform="translate(-281.865 -14.192)" fill="#691709"/>
        <path id="Trazado_208586" data-name="Trazado 208586" d="M426.952,722.418c.724-.924.067-3.811-.459-4.089-.8-.421-3.361-.44-3.622.085a4.979,4.979,0,0,0,.371,3.752,1.8,1.8,0,0,0,.865.826,2.728,2.728,0,0,0,1.576.235,2.127,2.127,0,0,0,1.269-.809" transform="translate(-288.856 -645.122)" fill="#7c1a0d"/>
        <path id="Trazado_208587" data-name="Trazado 208587" d="M312.42,249.814c1.058,4.563,2.714,6.863,3.837,8.081a5.177,5.177,0,0,0,3.267,1.848,2.063,2.063,0,0,0,1.707-.5,1.525,1.525,0,0,0,.286-1.021c-.031-2-1.491-2.729-1.723-4.79-.3-2.668.46-3.215.014-6.871a5.929,5.929,0,0,0-.526-1.881c-1.385-3.088-1.567-9.14-1.567-9.14-.048-6.1-7.16-18.533-10.429-17.831-3.3.708-3.488,16.188,1.134,21.576a9.08,9.08,0,0,1,2.607,3.218c1.09,2.4.584,3.824,1.392,7.309" transform="translate(-168.818 -205.475)" fill="#691709"/>
        <path id="Trazado_208588" data-name="Trazado 208588" d="M307.128,518.059c0,.022,0,.045,0,.069a2.212,2.212,0,0,0-.842.346c-.3.187-.908-.96-1.29-2.727a3.521,3.521,0,0,1-.019-1.744,1.305,1.305,0,0,1,.444-.62c.272,1.975,1.677,2.714,1.707,4.677" transform="translate(-154.429 -465.309)" fill="#7c1a0d"/>
        <path id="Trazado_208589" data-name="Trazado 208589" d="M485.092,506.781c.03-.284.057-.569.071-.854s.022-.57.025-.855,0-.569-.008-.853-.02-.568-.034-.851c-.062-1.133-.176-2.261-.33-3.383s-.348-2.237-.586-3.345c-.121-.554-.252-1.106-.4-1.655-.076-.274-.152-.548-.237-.82-.042-.136-.086-.272-.131-.408s-.094-.27-.146-.4c.028,1.143.112,2.27.219,3.394s.243,2.243.4,3.359.327,2.229.518,3.34.4,2.219.642,3.336" transform="translate(-354.13 -447.708)" fill="#49140d"/>
        <path id="Trazado_208590" data-name="Trazado 208590" d="M529.681,499.139c-.026-.25-.06-.5-.107-.744s-.105-.493-.167-.733l-.375-1.426q-.386-1.426-.84-2.832t-.995-2.785a25.207,25.207,0,0,0-1.23-2.713,25.345,25.345,0,0,0,.562,2.926q.355,1.44.815,2.848c.306.939.644,1.868,1.027,2.782.191.456.4.915.629,1.356.115.22.229.435.34.656s.223.443.341.665" transform="translate(-403.797 -442.923)" fill="#49140d"/>
        <path id="Trazado_208591" data-name="Trazado 208591" d="M579.082,491.822a17.468,17.468,0,0,0-.668-2.267c-.265-.735-.557-1.456-.872-2.167s-.65-1.411-1.01-2.1-.74-1.371-1.176-2.043c.021.2.049.4.084.593s.079.389.123.582.1.383.15.573.112.377.171.565a22.525,22.525,0,0,0,.842,2.193q.476,1.072,1.052,2.1a15.122,15.122,0,0,0,1.3,1.976" transform="translate(-459.188 -438.825)" fill="#49140d"/>
        <path id="Trazado_208592" data-name="Trazado 208592" d="M982.7,800.66a3.853,3.853,0,0,0-1.287-3.069c-1.9-2.17-3.943-2.789-7.975-4.717-2.735-1.308-4.782-2.452-6.637-3.489-2.874-1.606-3.3-2-5.524-3.277-5.724-3.3-7.24-3.212-11.468-5.7a65.444,65.444,0,0,1-7.59-5.124c-7.61-5.545-11.415-8.317-16.475-9.4-4.6-.979-4.9,1.344-13.336,1.136-10.35-.254-12.991-3.249-17.447-2.023-8.792,2.419-13.145,14.16-10,19.789.453.811,1.381,1.967,7.613,4.111,10.412,3.583,12.005,1.339,17.685,4.175,5.086,2.539,3.744,2.988,14.943,9.854,1.6.982,3.423,2.945,6.679,3.489a89.941,89.941,0,0,0,14.291,1.23c1.229.04,4.072-.689,3.97-2.937-.006-.122,5.454.67,5.97-4.071a14.862,14.862,0,0,0,2.293-.451,4,4,0,0,0,2.748-3.059c.023-.022.044-.029.064-.02,1.784.793,4.169,1.037,6.3,1.716,1.377.438,4.164,1.865,9.059,3.411,2.558.808,3.557.886,4.253.662a2.908,2.908,0,0,0,1.876-2.243" transform="translate(-900.259 -686.153)" fill="#691709"/>
        <path id="Trazado_208593" data-name="Trazado 208593" d="M892.866,1038.346c-.522-1.139-3.583-1.929-4.1-1.566-.791.551-2.062,2.973-1.693,3.477a5.315,5.315,0,0,0,3.742,1.485,1.92,1.92,0,0,0,1.207-.416,2.912,2.912,0,0,0,.994-1.381,2.271,2.271,0,0,0-.146-1.6" transform="translate(-811.001 -925.146)" fill="#7c1a0d"/>
        <path id="Trazado_208594" data-name="Trazado 208594" d="M1047.266,773.734c4.847,1.23,7.84.785,9.544.316a5.527,5.527,0,0,0,3.353-2.2,2.2,2.2,0,0,0,.365-1.862,1.628,1.628,0,0,0-.829-.772c-1.913-.949-3.319.078-5.388-.711-2.678-1.022-2.825-2.011-6.511-3.378a6.332,6.332,0,0,0-2.042-.421c-3.608-.2-9.438-2.988-9.438-2.988-5.812-2.941-21.087-2.281-22.022,1.164-.942,3.473,13.649,11.235,21.024,9.487a9.694,9.694,0,0,1,4.329-.9c2.808.139,3.913,1.318,7.616,2.258" transform="translate(-993.968 -681.893)" fill="#691709"/>
        <path id="Trazado_208595" data-name="Trazado 208595" d="M1026.652,832.181l.065.033a2.363,2.363,0,0,0-.084.968c.031.377-1.355.391-3.219-.111a3.759,3.759,0,0,1-1.664-.836,1.393,1.393,0,0,1-.372-.725c2.007.709,3.4-.262,5.273.67" transform="translate(-960.922 -744.852)" fill="#7c1a0d"/>
        <path id="Trazado_208596" data-name="Trazado 208596" d="M1073.822,997.15c-.255-.168-.512-.333-.776-.485s-.53-.3-.8-.442-.541-.277-.814-.41-.548-.259-.824-.385c-1.106-.5-2.232-.94-3.371-1.344s-2.293-.766-3.461-1.082c-.584-.157-1.172-.3-1.765-.431-.3-.063-.594-.124-.894-.177-.15-.027-.3-.052-.45-.076s-.3-.043-.454-.06c1.1.533,2.208,1,3.327,1.454s2.247.868,3.38,1.269,2.274.781,3.422,1.143,2.3.709,3.479,1.024" transform="translate(-1012.736 -886.103)" fill="#49140d"/>
        <path id="Trazado_208597" data-name="Trazado 208597" d="M1115.524,1046.429c-.25-.1-.5-.186-.758-.263s-.52-.142-.778-.2l-1.537-.343q-1.542-.332-3.1-.589c-1.037-.17-2.08-.312-3.129-.42a26.947,26.947,0,0,0-3.176-.161,27.06,27.06,0,0,0,3.051.9q1.54.368,3.1.621c1.041.169,2.088.3,3.143.387.526.042,1.063.07,1.594.067.265,0,.525,0,.789,0s.53.005.8,0" transform="translate(-1059.634 -931.963)" fill="#49140d"/>
        <path id="Trazado_208598" data-name="Trazado 208598" d="M1162.375,1088.961a18.663,18.663,0,0,0-2.478-.476c-.827-.109-1.654-.184-2.483-.234s-1.657-.074-2.489-.071-1.663.03-2.514.116c.2.077.4.149.6.21s.407.116.612.168.411.1.617.138.413.079.62.115a24.118,24.118,0,0,0,2.493.275q1.25.074,2.5.029a16.16,16.16,0,0,0,2.512-.269" transform="translate(-1112.472 -970.389)" fill="#49140d"/>
        <path id="Trazado_208599" data-name="Trazado 208599" d="M736.514,184.6c.77-1.013.886-2.407.437-4.385-.845-3.726-2.833-5.734-6.313-10.523-2.36-3.248-4.023-5.871-5.53-8.248-2.335-3.683-2.584-4.4-4.366-7.3-4.587-7.45-6.406-8.307-9.762-13.869-2.367-3.925-2.427-4.08-5.609-10.755-5.366-11.257-8.049-16.885-13.262-21.331-4.734-4.038-6.55-1.523-16.248-7.086-11.893-6.823-13.081-11.977-19.044-13.359-11.765-2.727-24.238,8.2-24.127,16.739.016,1.23.368,3.162,6.273,9.589,9.867,10.739,13.137,9.131,17.964,16.015,4.322,6.165,2.476,5.841,11.189,20.9,1.246,2.154,2.129,5.589,5.578,8.275a119.108,119.108,0,0,0,15.868,10.445c1.406.821,5.177,1.765,6.475-.918.07-.145,5.929,4.22,9.519-.977a19.7,19.7,0,0,0,2.955.921c3.639.572,4.72-1.719,5.129-1.83.04-.011.069-.006.087.017,1.577,2.049,4.2,3.837,6.254,5.97,1.327,1.379,3.673,4.8,8.4,9.685,2.469,2.554,3.583,3.275,4.535,3.453a3.85,3.85,0,0,0,3.6-1.43" transform="translate(-624.273 -90.922)" fill="#49140d"/>
        <path id="Trazado_208600" data-name="Trazado 208600" d="M645.087,841.877c.11-1.655-2.956-4.506-3.792-4.412-1.268.143-4.277,2.162-4.164,2.982.177,1.292,1.647,3.037,3.421,4.089a2.542,2.542,0,0,0,1.668.277,3.856,3.856,0,0,0,2.029-.981,3.007,3.007,0,0,0,.839-1.956" transform="translate(-532.689 -750.082)" fill="#511d18"/>
        <path id="Trazado_208601" data-name="Trazado 208601" d="M685.676,272.6c4.869,4.489,8.636,5.858,10.917,6.387a7.32,7.32,0,0,0,5.289-.442c.381-.225,1.5-.889,1.6-1.939a2.156,2.156,0,0,0-.479-1.421c-1.629-2.312-3.914-2-5.826-4.226-2.475-2.879-2.022-4.123-5.453-8.04a8.388,8.388,0,0,0-2.112-1.778c-4.077-2.505-9.108-9.432-9.108-9.432-4.914-7.091-23.12-15.955-26.381-12.531-3.287,3.45,8.811,21.691,18.5,24.307.908.245,2.864.018,5.608,1.684,3.183,1.933,3.726,4,7.446,7.432" transform="translate(-593.079 -223.694)" fill="#49140d"/>
        <path id="Trazado_208602" data-name="Trazado 208602" d="M662.926,511.809l.055.08a3.127,3.127,0,0,0-.708,1.075c-.2.458-1.825-.4-3.678-2.16a4.976,4.976,0,0,1-1.411-2.022,1.847,1.847,0,0,1,.024-1.078c1.89,2.091,4.12,1.837,5.718,4.106" transform="translate(-553.004 -460.318)" fill="#511d18"/>
        <path id="Trazado_208603" data-name="Trazado 208603" d="M838.246,641.7c-.191-.356-.387-.71-.6-1.055s-.428-.683-.652-1.018-.455-.664-.689-.991-.476-.647-.717-.968c-.975-1.275-2.006-2.5-3.078-3.691s-2.188-2.337-3.349-3.442c-.582-.551-1.174-1.092-1.784-1.616-.306-.26-.614-.519-.93-.77-.158-.126-.317-.249-.477-.372s-.325-.241-.492-.356c.943,1.313,1.938,2.562,2.958,3.792s2.069,2.428,3.137,3.609,2.156,2.344,3.265,3.49,2.231,2.276,3.406,3.387" transform="translate(-748.69 -565.518)" fill="#0a0302"/>
        <path id="Trazado_208604" data-name="Trazado 208604" d="M906.427,677.288c-.229-.271-.467-.534-.717-.785s-.516-.493-.779-.724l-1.574-1.368q-1.586-1.359-3.236-2.639t-3.379-2.462a35.631,35.631,0,0,0-3.6-2.19,35.864,35.864,0,0,0,2.985,2.972q1.561,1.4,3.22,2.679c1.105.853,2.24,1.67,3.416,2.433.586.38,1.194.752,1.815,1.083.31.165.613.326.92.5s.614.341.928.506" transform="translate(-825.078 -600.4)" fill="#0a0302"/>
        <path id="Trazado_208605" data-name="Trazado 208605" d="M983.167,708.122A24.678,24.678,0,0,0,980.583,706c-.894-.648-1.811-1.258-2.744-1.838s-1.884-1.131-2.854-1.652-1.956-1.014-3-1.45c.184.216.373.426.571.626s.4.392.607.582.418.37.632.55.431.352.65.524a31.829,31.829,0,0,0,2.73,1.893q1.409.874,2.9,1.613a21.372,21.372,0,0,0,3.1,1.271" transform="translate(-911.381 -630.227)" fill="#0a0302"/>
      </g>
    </g>
    <path id="Trazado_208607" data-name="Trazado 208607" d="M319.805,1016.918c1.519-.7,2.944-.457,4.907-.117a16.733,16.733,0,0,1,3.739,1.168,27.093,27.093,0,0,1,3.856,1.986c6.426,3.739,7.01,4.44,8.179,5.141a1.828,1.828,0,0,1,.7,1.052c.027.923-3.287,1.91-5.842,2.22-3.235.392-3.753-.486-10.048-1.4-4.746-.691-6.707-.521-7.945-2.22a4.879,4.879,0,0,1-.818-3.155,5.716,5.716,0,0,1,3.271-4.674" transform="translate(95.423 12603.789)" fill="#700622"/>
    <path id="Trazado_208608" data-name="Trazado 208608" d="M464.212,942.691a15.012,15.012,0,0,1-4.79,6.426c-.3.232.117,1.285.467,1.753,2.051,2.734,9.267,5.429,9.23,2.8-.058-4.148,2.547-5.294,3.388-7.244a4.9,4.9,0,0,0,.35-4.206c-.934-2.468-7.259-4.975-7.945-4.44-.179.14.417,2.365-.7,4.907" transform="translate(-53.891 12672.992)" fill="#49140d"/>
    <path id="Trazado_208609" data-name="Trazado 208609" d="M397.257,864.491a5.526,5.526,0,0,0,.239,1.794,6.131,6.131,0,0,0,.718,1.555,12.152,12.152,0,0,0,5.621,3.708,1.132,1.132,0,0,0,.837,0c.318-.163.389-.5.6-.957a14.543,14.543,0,0,1,.837-1.316A9.262,9.262,0,0,0,407.3,867c.1-.445.087-.79.359-.957.231-.142.4.006.957-.12a1.08,1.08,0,0,0,.718-.359.835.835,0,0,0,.12-.6c-.056-.329-1.076-2.631-.837-3.708.174-.782.324-1.688.837-3.468.231-.8.718-4.306-1.794-6.458a8.882,8.882,0,0,0-3.349-1.794,11.029,11.029,0,0,0-4.784-.359,8.944,8.944,0,0,0-5.382,2.392c-1.256,1.256-3.116,4.7-.359,7.057.941.8.911.588,1.674.6,1.059.014,2.213,2.213,2.033,3.229a10.209,10.209,0,0,0-.239,2.033" transform="translate(17.757 12750.884)" fill="#49140d"/>
    <path id="Trazado_208610" data-name="Trazado 208610" d="M406.382,848.413c-5.362-1.915-8.421,4.134-10.909,7.575-1,1.376-3.007,2.458-4.633,1.906a4,4,0,0,1-2.381-3.524,19.732,19.732,0,0,1,.222-6.624,9.621,9.621,0,0,1,4.425-5.461c1.709-.962,4.615-1.058,5.987-.994a12.039,12.039,0,0,1,3.645.533,9.089,9.089,0,0,1,3.9,2.459,8.978,8.978,0,0,1,1.562,2.531,2.337,2.337,0,0,1,.26,1.732c-.117.365-.177.648-.521.8-.456.2-.38-.51-1.562-.932" transform="translate(19.362 12757.729)" fill="#1f0d09"/>
    <path id="Trazado_208611" data-name="Trazado 208611" d="M473.172,919.432a2.128,2.128,0,0,0-.718-.718,1.5,1.5,0,0,0-.957-.239,1.64,1.64,0,0,0-1.076.837,2.711,2.711,0,0,0-.359,1.674,4,4,0,0,0,.837,2.153,2.114,2.114,0,0,0,.718.718,1.3,1.3,0,0,0,.837.239c.568-.115.808-1,.957-1.555a4.04,4.04,0,0,0-.239-3.11" transform="translate(-55.631 12689.904)" fill="#49140d"/>
    <path id="Trazado_208612" data-name="Trazado 208612" d="M319.211,903.158c-.661-.784-1.364-1.622-2.1-2.687a17.347,17.347,0,0,1-1.753-2.921,39.52,39.52,0,0,0-1.986-4.206c-.167-.245-.351-.467-.351-.467a6.3,6.3,0,0,0-.818-.818c-1.045-.895-.987-1.294-1.753-1.753a8.953,8.953,0,0,0-1.4-.467,6.021,6.021,0,0,0-2.57-.234c-.116.031-.584.467-.234.818.314.314.627.391,1.519.7.271.094,1.073.373,1.052.467s-.5.046-1.753,0a12.227,12.227,0,0,0-2.57,0,1.052,1.052,0,0,0-.584.35.642.642,0,0,0,0,.584c.125.267.354.295.351.467,0,.134-.14.14-.234.351a.742.742,0,0,0,0,.584.773.773,0,0,0,.351.35c.76.417,2.454.234,3.856.584a2.5,2.5,0,0,1,.818.467,3.8,3.8,0,0,1-1.4,0c-1.771-.149-2.624.012-2.8.35a.494.494,0,0,0,0,.351c.1.4,1.4.521,2.1.584a9.21,9.21,0,0,1,1.519.234,5.511,5.511,0,0,1,1.636.7,3.006,3.006,0,0,1,.818.7,3.28,3.28,0,0,1,.467.935,7.872,7.872,0,0,0,1.052,2.1,4.272,4.272,0,0,0,.935.818,10.214,10.214,0,0,1,2.337,2.8c1.648,2.442,1.416,3.166,2.337,3.505a2.889,2.889,0,0,0,2.687-.584,2.065,2.065,0,0,0,.818-1.168c.155-.859-.592-1.436-2.337-3.505" transform="translate(116.581 12715.329)" fill="#691709"/>
    <path id="Trazado_208613" data-name="Trazado 208613" d="M388.237,918.616a.027.027,0,0,0-.006.053,10.891,10.891,0,0,0,1.559.2c.605.033,1.2.035,1.8.04l.888-.008a.665.665,0,0,1,.181.03c.067.019.136.043.2.066.137.049.275.1.413.154.479.192.95.4,1.414.644a.027.027,0,0,0,.029-.044,7.035,7.035,0,0,0-1.332-.849c-.136-.068-.273-.133-.415-.191-.071-.029-.142-.058-.218-.084a1,1,0,0,0-.258-.057c-.047,0-.083,0-.121,0h-.112l-.225,0-.45,0-.9.01-.894.028c-.517.013-1.035.015-1.558.019" transform="translate(33.186 12689.82)" fill="#49140d"/>
    <path id="Trazado_208614" data-name="Trazado 208614" d="M389.69,907.14a.027.027,0,0,0,.031-.042,3.208,3.208,0,0,0-.458-.448,4.212,4.212,0,0,0-.606-.41,3.554,3.554,0,0,0-.331-.163c-.057-.024-.114-.048-.173-.068a1.1,1.1,0,0,0-.192-.056,1.722,1.722,0,0,0-.659.031.027.027,0,0,0,0,.052c.207.067.414.109.587.182.087.039.2.1.3.158l.307.17c.205.114.413.226.626.334.186.093.375.183.576.26" transform="translate(38.3 12700.914)" fill="#49140d"/>
    <path id="Trazado_208615" data-name="Trazado 208615" d="M227.417,1002.852s.993,1.348,2.337,3.622a44.233,44.233,0,0,0,2.8,3.739c2.539,3.224,2.467,2.842,3.388,4.206a18.088,18.088,0,0,1,2.454,5.608c.285,1.161.3,1.739,0,2.22-.623,1.012-2.378,1.23-3.622.935-1.024-.243-2.1-.929-5.258-6.543-2.934-5.209-2.454-4.557-3.856-7.01-1.007-1.761-2.454-3.739-2.454-3.739a11.17,11.17,0,0,0,1.869-.935,8.085,8.085,0,0,0,2.337-2.1" transform="translate(209.309 12615.752)" fill="#700622"/>
    <path id="Trazado_208616" data-name="Trazado 208616" d="M165.6,1088.729c.31,0,1.184.084,2.7,2.13,2.466,3.336,2.776,6.672,3.321,10.352.738,4.986.752,10.766,4.754,19.538a36.6,36.6,0,0,0,2.91,4.78c1.11,1.428,1.917,2.117,2.141,2.79.479,1.439,1.147,3.447.26,4.435-1.173,1.306-4.785.519-6.808-1.338a10.079,10.079,0,0,1-1.388-1.381,3.3,3.3,0,0,1-.431-.319c-.884-.78-.961-1.781-1.248-2.99-.528-2.22-1.274-2.421-3.94-7.459-.925-1.748-2.067-3.5-3.829-7.337-2.526-5.5-3.947-8.589-3.788-12.6.2-5.053,2.869-10.6,5.35-10.6" transform="translate(273.448 12540.29)" fill="#49140d"/>
    <path id="Trazado_208617" data-name="Trazado 208617" d="M221.267,1121.19c.373-.095.731-.2,1.065-.315a14.086,14.086,0,0,0,5.048-3.026l.1-.092-.052-.123a70.786,70.786,0,0,1-3.66-15c-.131-.99-.228-1.928-.363-2.846q-.065-.437-.126-.869c-.479-3.322-.931-6.459-3.23-9.569-1.083-1.465-2.041-2.208-2.848-2.208-2.76.006-5.355,5.936-5.547,10.787-.16,4.056,1.249,7.122,3.806,12.687,1.274,2.772,2.232,4.473,3,5.84.3.525.575,1.021.832,1.506.6,1.14,1.18,2.168,1.763,3.142l.074.123Z" transform="translate(221.853 12541.687)" fill="#0a0302"/>
    <path id="Trazado_208618" data-name="Trazado 208618" d="M534.576,943.687c.6,4.313-6.4,6.649-7.834,1.165s6.87-8.091,7.834-1.165" transform="translate(-123.481 12671.412)" fill="#1f0d09"/>
    <path id="Trazado_208619" data-name="Trazado 208619" d="M421.054,1043.234c-1.594.994-1.843,3.711-2.276,9.1a88.415,88.415,0,0,0,0,11.038c.28,8.591.466,12.94,2.731,15.59a5.382,5.382,0,0,0,2.617,2.048c5.717,1.609,13.142-10.933,14-12.4,2.648-4.557,6.577-11.317,3.869-16.045-.445-.776-1.073-1.505-7.965-4.893-10.746-5.281-12.152-4.95-12.972-4.438" transform="translate(-18.677 12580.504)" fill="#a10e2e"/>
    <path id="Trazado_208620" data-name="Trazado 208620" d="M284.08,1103.287s.885-.056-4.323,1.168a17.1,17.1,0,0,0-5.608,2.1c-.633.395-1.168.818-1.168.818a21.293,21.293,0,0,0,1.285,10.282,12.351,12.351,0,0,0,5.491,6.426c2.2,1.195,4.031,2.629,7.478,2.453a9.49,9.49,0,0,0,6.777-3.856c3.243-4.022,5.2-13.608,8.412-23.251.009-.026.039-.118,2.921-13.2.234-1.064.657-3.116-.467-4.557a4.764,4.764,0,0,0-3.038-1.519,6.948,6.948,0,0,0-4.79.935c-3.447,2.512-6.26,8.656-7.711,11.567-2.965,5.949-5.258,10.632-5.258,10.632" transform="translate(136.289 12547.914)" fill="#0a0302"/>
    <path id="Trazado_208621" data-name="Trazado 208621" d="M91.034,1375.326c-.4.141-.69,4.207.416,5.4a58.649,58.649,0,0,0,6.95,3.443,15.762,15.762,0,0,0,2.886.9,11.282,11.282,0,0,0,5.387.042,8.847,8.847,0,0,0,3.455-1.844,2.383,2.383,0,0,0,.746-1.034c.3-.835-.627-2.018-.818-2.237-.841-.964-1.692-1.055-3.475-1.721a19.347,19.347,0,0,1-6.649-4.405c-.543-.5-.379-.894-.813-1.053-.719-.263-2.284,1.309-3.6,3.137a1.933,1.933,0,0,1-1.943.957c-1.572-.22-2.062-1.753-2.54-1.587" transform="translate(353.069 12290.683)" fill="#efa695"/>
    <path id="Trazado_208622" data-name="Trazado 208622" d="M97.884,1423.528c.793.346,1.6.654,2.4.965l2.417.927,2.417.925c.805.309,1.609.623,2.416.92.2.074.4.153.6.22a2.812,2.812,0,0,0,.288.089c.1.025.2.047.3.068a10.161,10.161,0,0,0,3.755.01,7.7,7.7,0,0,0,2.359-.874c.094-.05.182-.108.272-.164s.178-.113.263-.176c.171-.124.336-.261.5-.4s.322-.284.475-.435a3.425,3.425,0,0,0,.431-.48,5.354,5.354,0,0,1-.793,1.032q-.223.24-.47.459c-.082.074-.17.144-.257.21s-.174.135-.266.2a7.371,7.371,0,0,1-2.413,1.078,9.517,9.517,0,0,1-3.965.106c-.11-.021-.22-.044-.331-.071a3.334,3.334,0,0,1-.332-.1c-.215-.071-.414-.146-.62-.221q-1.215-.466-2.415-.955c-.8-.335-1.6-.664-2.386-1.018s-1.577-.711-2.358-1.086a25.887,25.887,0,0,1-2.29-1.228" transform="translate(346.347 12246.1)" fill="#1f0d09"/>
    <path id="Trazado_208623" data-name="Trazado 208623" d="M172.172,1393.544a8.964,8.964,0,0,1,.713-.622l.7-.563c.231-.186.461-.371.687-.564a5.987,5.987,0,0,0,.668-.633,1.233,1.233,0,0,1-.088.5,2.257,2.257,0,0,1-.232.442,3.213,3.213,0,0,1-.667.718,3.6,3.6,0,0,1-.833.5,2.755,2.755,0,0,1-.949.226" transform="translate(279.174 12274.539)" fill="#1f0d09"/>
    <path id="Trazado_208624" data-name="Trazado 208624" d="M163.078,1400.106a8.909,8.909,0,0,1,.713-.622l.7-.563c.231-.186.461-.371.687-.564a6,6,0,0,0,.668-.633,1.234,1.234,0,0,1-.088.5,2.272,2.272,0,0,1-.232.442,3.212,3.212,0,0,1-.667.718,3.6,3.6,0,0,1-.833.5,2.757,2.757,0,0,1-.949.226" transform="translate(289.371 12268.772)" fill="#1f0d09"/>
    <path id="Trazado_208625" data-name="Trazado 208625" d="M153.984,1406.668a8.961,8.961,0,0,1,.713-.622l.7-.563c.231-.186.461-.371.687-.564a6.01,6.01,0,0,0,.668-.633,1.236,1.236,0,0,1-.088.5,2.277,2.277,0,0,1-.232.442,3.209,3.209,0,0,1-.667.718,3.6,3.6,0,0,1-.833.5,2.758,2.758,0,0,1-.949.226" transform="translate(299.568 12263.007)" fill="#1f0d09"/>
    <path id="Trazado_208626" data-name="Trazado 208626" d="M144.89,1413.231a8.906,8.906,0,0,1,.713-.622l.7-.563c.231-.186.461-.371.687-.563a6.011,6.011,0,0,0,.668-.633,1.234,1.234,0,0,1-.088.5,2.273,2.273,0,0,1-.232.442,3.213,3.213,0,0,1-.667.718,3.6,3.6,0,0,1-.833.5,2.76,2.76,0,0,1-.949.227" transform="translate(309.765 12257.24)" fill="#1f0d09"/>
    <path id="Trazado_208627" data-name="Trazado 208627" d="M181.265,1386.982a8.963,8.963,0,0,1,.713-.622l.7-.563c.231-.186.461-.371.687-.564a6,6,0,0,0,.668-.633,1.237,1.237,0,0,1-.088.5,2.267,2.267,0,0,1-.232.442,3.2,3.2,0,0,1-.667.718,3.59,3.59,0,0,1-.833.5,2.757,2.757,0,0,1-.949.226" transform="translate(268.978 12280.305)" fill="#1f0d09"/>
    <path id="Trazado_208628" data-name="Trazado 208628" d="M355.364,1103.294s-6.6.759-9.931,3.271c-.6.449-1.168.818-1.168.818s-.818,6.309,1.285,11.333a12.351,12.351,0,0,0,5.491,6.426c2.2,1.195,4.162,1.272,7.478,1.4,3.056.12,4.478-.361,5.491-.935a8.732,8.732,0,0,0,1.986-1.636c3.421-3.872,4.5-14.893,7.711-24.536.009-.026.039-.118,2.921-13.2.234-1.065.657-3.116-.467-4.557a4.764,4.764,0,0,0-3.038-1.519,7.063,7.063,0,0,0-4.79.935c-3.33,2.162-6.26,8.656-7.711,11.567-2.965,5.949-5.258,10.632-5.258,10.632" transform="translate(56.359 12547.907)" fill="#1f0d09"/>
    <path id="Trazado_208629" data-name="Trazado 208629" d="M213.188,1091.46c.31-.017,1.187.022,2.8,1.986,2.637,3.2,2.925,6.563,3.856,10.165,5.229,20.247,8.814,23.761,8.922,23.885,1.183,1.368,2.024,2.015,2.283,2.675.553,1.412,1.325,3.383.491,4.416-1.1,1.365-4.752.768-6.869-.981-.463-.382-1.769-1.495-1.905-1.6-.923-.732-.666-1.729-1.016-2.921-.643-2.189-1.784-2.352-4.709-7.244-1.015-1.7-2.246-3.389-4.206-7.127-2.809-5.358-4.389-8.372-4.44-12.385-.064-5.057,2.313-10.731,4.79-10.866" transform="translate(217.813 12537.893)" fill="#691709"/>
    <path id="Trazado_208630" data-name="Trazado 208630" d="M375.248,1150.108c-.712-1.427-1.432-2.837-2.114-4.259-.335-.714-.667-1.427-.969-2.148-.152-.361-.3-.722-.433-1.086s-.261-.729-.369-1.1a7.671,7.671,0,0,1-.253-1.1l-.021-.137-.018-.146-.034-.291c-.022-.194-.04-.386-.056-.579-.037-.386-.047-.772-.058-1.158s0-.773.031-1.159a13.084,13.084,0,0,1,1.142-4.526,9.173,9.173,0,0,0-1.161,2.106c-.037.094-.075.188-.109.284l-.094.289-.093.29-.079.294c-.026.1-.054.2-.076.3l-.06.3c-.019.1-.042.2-.058.3l-.046.3a12.233,12.233,0,0,0-.112,2.436c.008.2.024.406.041.606l.028.3.015.149.021.158a8.2,8.2,0,0,0,.268,1.219,16.709,16.709,0,0,0,.879,2.266q.51,1.094,1.114,2.13a31.325,31.325,0,0,0,2.677,3.963" transform="translate(54.852 12501.896)" fill="#0a0302"/>
    <path id="Trazado_208631" data-name="Trazado 208631" d="M508.235,1237.415a11.567,11.567,0,0,0-1.64,2.3,14.169,14.169,0,0,0-1.686,5.389,11.172,11.172,0,0,0,.055,2.826c.194-.924.368-1.829.579-2.721s.449-1.771.718-2.641.576-1.728.914-2.58.7-1.7,1.061-2.573" transform="translate(-94.467 12409.639)" fill="#0a0302"/>
    <path id="Trazado_208632" data-name="Trazado 208632" d="M126.2,1396.019c-.459.081-1.472,4.4-.491,5.872a63.835,63.835,0,0,0,6.869,4.906,17.136,17.136,0,0,0,2.944,1.472,12.279,12.279,0,0,0,5.78.981,9.632,9.632,0,0,0,4.033-1.38,2.6,2.6,0,0,0,.981-.981c.464-.846-.323-2.276-.491-2.545-.736-1.182-1.635-1.427-3.434-2.453a21.053,21.053,0,0,1-6.378-5.888c-.5-.626-.252-1.027-.69-1.272-.726-.408-2.681,1.01-4.416,2.744a2.1,2.1,0,0,1-2.254.69c-1.65-.509-1.911-2.242-2.453-2.146" transform="translate(313.348 12271.465)" fill="#fff"/>
    <path id="Trazado_208633" data-name="Trazado 208633" d="M131.284,1438.095c.792.51,1.6.981,2.415,1.454l2.436,1.416,2.436,1.414c.811.472,1.62.949,2.435,1.408.2.114.407.235.6.34a3.02,3.02,0,0,0,.294.145c.1.044.206.085.312.125a11.056,11.056,0,0,0,4.032.664,8.389,8.389,0,0,0,2.686-.529c.109-.038.215-.084.321-.129s.211-.091.313-.144c.206-.1.406-.222.606-.342s.4-.249.586-.385a3.744,3.744,0,0,0,.546-.441,5.833,5.833,0,0,1-1.032.971q-.281.219-.585.411c-.1.065-.207.125-.313.181s-.211.115-.32.165a8.023,8.023,0,0,1-2.78.738,10.357,10.357,0,0,1-4.278-.575c-.115-.042-.229-.085-.344-.134a3.687,3.687,0,0,1-.34-.163c-.219-.114-.42-.228-.628-.345q-1.225-.712-2.429-1.446c-.8-.5-1.6-.991-2.387-1.509s-1.571-1.038-2.344-1.577a28.127,28.127,0,0,1-2.246-1.717" transform="translate(307.769 12233.299)" fill="#1f0d09"/>
    <path id="Trazado_208634" data-name="Trazado 208634" d="M203.2,1419.561a9.717,9.717,0,0,1,.874-.544l.851-.483c.281-.16.56-.319.836-.486a6.544,6.544,0,0,0,.828-.564,1.347,1.347,0,0,1-.181.517,2.467,2.467,0,0,1-.326.434,3.494,3.494,0,0,1-.842.656,3.925,3.925,0,0,1-.982.392,3,3,0,0,1-1.059.078" transform="translate(243.764 12251.41)" fill="#1f0d09"/>
    <path id="Trazado_208635" data-name="Trazado 208635" d="M194.571,1428.189a9.774,9.774,0,0,1,.874-.544l.851-.483c.281-.16.559-.319.836-.486a6.509,6.509,0,0,0,.828-.564,1.34,1.34,0,0,1-.181.517,2.466,2.466,0,0,1-.326.435,3.5,3.5,0,0,1-.842.655,3.911,3.911,0,0,1-.982.393,3,3,0,0,1-1.059.078" transform="translate(253.44 12243.828)" fill="#1f0d09"/>
    <path id="Trazado_208636" data-name="Trazado 208636" d="M185.941,1436.82a9.729,9.729,0,0,1,.875-.544l.851-.483c.281-.16.56-.319.836-.486a6.5,6.5,0,0,0,.828-.564,1.344,1.344,0,0,1-.181.517,2.464,2.464,0,0,1-.326.435,3.492,3.492,0,0,1-.842.655,3.917,3.917,0,0,1-.982.392,3,3,0,0,1-1.059.078" transform="translate(263.117 12236.244)" fill="#1f0d09"/>
    <path id="Trazado_208637" data-name="Trazado 208637" d="M177.312,1445.449a9.723,9.723,0,0,1,.874-.545l.851-.483c.281-.16.559-.319.836-.486a6.52,6.52,0,0,0,.828-.564,1.342,1.342,0,0,1-.181.517,2.465,2.465,0,0,1-.326.435,3.5,3.5,0,0,1-.842.655,3.911,3.911,0,0,1-.982.393,3,3,0,0,1-1.059.078" transform="translate(272.793 12228.662)" fill="#1f0d09"/>
    <path id="Trazado_208638" data-name="Trazado 208638" d="M211.829,1410.931a9.776,9.776,0,0,1,.874-.544l.851-.483c.281-.16.56-.319.836-.486a6.538,6.538,0,0,0,.828-.564,1.343,1.343,0,0,1-.181.517,2.466,2.466,0,0,1-.326.435,3.5,3.5,0,0,1-.842.655,3.923,3.923,0,0,1-.982.392,3,3,0,0,1-1.059.078" transform="translate(234.089 12258.993)" fill="#1f0d09"/>
    <path id="Trazado_208639" data-name="Trazado 208639" d="M265.109,1124.469a11.713,11.713,0,0,0,6.837-2.547.193.193,0,0,0,.059-.235c-1.431-3.1-3.632-8.976-6.458-19.648-.187-.708-.343-1.417-.5-2.1-.643-2.845-1.251-5.532-3.4-8.138-1.125-1.366-2.093-2.058-2.88-2.058l-.084,0c-2.752.15-5.034,6.207-4.973,11.061.052,4.059,1.618,7.047,4.462,12.472,1.416,2.7,2.462,4.351,3.3,5.676.323.509.627.989.909,1.461,1.076,1.8,1.865,2.973,2.558,3.973l.058.084Z" transform="translate(172.205 12539.4)" fill="#1f0d09"/>
    <path id="Trazado_208640" data-name="Trazado 208640" d="M233.982,1031.955a5.848,5.848,0,0,1,4.089-.234,10.369,10.369,0,0,1,3.972,1.636,47.6,47.6,0,0,0,5.959,2.454,35.333,35.333,0,0,0,5.141,1.636c3.236.63,3.68.409,6.192.935a15.756,15.756,0,0,0,3.388.7,13.694,13.694,0,0,0,3.388-.467c3.714-.714,3.726-.273,5.258-.935,1.563-.676,2.058-1.244,3.388-1.168a3.465,3.465,0,0,1,1.869.7,3.54,3.54,0,0,1,1.285,3.973,3.267,3.267,0,0,1-.935,1.052,13.847,13.847,0,0,1-2.687,1.636,18.12,18.12,0,0,0-2.1,1.753,12.583,12.583,0,0,1-6.543,2.921,9.579,9.579,0,0,1-1.636,0c-6.8-.5-11.216-2.546-17.643-2.453a34.181,34.181,0,0,1-7.945-.935,9.258,9.258,0,0,1-4.79-2.1,6.853,6.853,0,0,1-2.687-5.024c-.092-2.119.783-4.865,3.038-6.075" transform="translate(168.861 12590.621)" fill="#a10e2e"/>
    <path id="Trazado_208641" data-name="Trazado 208641" d="M363.973,1148.808a10.75,10.75,0,0,1-1.709-.1c-.567-.082-1.135-.142-1.7-.242-1.13-.167-2.249-.388-3.368-.617l-1.676-.359-1.678-.37c-1.122-.24-2.249-.47-3.388-.659a34.54,34.54,0,0,0-3.448-.379c-1.155-.057-2.326-.021-3.451,0a26.811,26.811,0,0,1-3.4-.216c-1.134-.133-2.268-.311-3.409-.442,1.113.284,2.227.552,3.355.782.565.11,1.135.205,1.709.279s1.153.117,1.731.143,1.161.027,1.723.041,1.133.045,1.7.078q1.695.136,3.379.408c1.124.172,2.243.4,3.367.615s2.25.442,3.388.616c.284.047.568.092.853.13s.569.085.855.117c.572.064,1.144.132,1.718.173s1.149.07,1.723.094c.287.01.577.011.865,0a8.253,8.253,0,0,0,.859-.088" transform="translate(70.183 12490.476)" fill="#1f0d09"/>
    <path id="Trazado_208642" data-name="Trazado 208642" d="M123.808,1453.289a2.023,2.023,0,0,0,.278.307c.1.1.2.188.306.279.208.181.421.357.635.531s.43.344.648.514.436.337.655.5q.66.5,1.329.983c.445.325.9.64,1.348.957s.907.628,1.368.931c.23.151.464.305.7.447s.483.281.729.412c.492.264,1,.5,1.514.716l.769.308c.26.1.524.2.793.285a12,12,0,0,0,3.316.55l.21.007c.07,0,.14,0,.21,0,.14,0,.28,0,.42,0l.419-.02.1-.005c.035,0,.07,0,.106-.007.072-.007.145-.012.216-.022a8.452,8.452,0,0,0,1.645-.4,10.615,10.615,0,0,0,1.544-.66,8.01,8.01,0,0,0,.722-.439,3.789,3.789,0,0,0,.65-.558,2.21,2.21,0,0,0,.26-.351c.019-.031.036-.064.053-.1l.024-.047.024-.052c.008-.017.016-.035.023-.052l.019-.053a1.064,1.064,0,0,0,.032-.108,1.568,1.568,0,0,0,.042-.436,2.308,2.308,0,0,0-.056-.423,4.045,4.045,0,0,0-.273-.791q-.087-.189-.188-.37c-.067-.121-.138-.239-.217-.352a5.533,5.533,0,0,1,.329.753,3.97,3.97,0,0,1,.2.787,1.786,1.786,0,0,1-.04.776.889.889,0,0,1-.033.088l-.018.042c-.006.014-.015.027-.022.041l-.022.041-.026.043c-.017.028-.035.055-.053.082a1.958,1.958,0,0,1-.251.3,4.95,4.95,0,0,1-1.338.862c-.245.112-.493.219-.746.315s-.508.184-.767.259-.519.146-.782.2a6.918,6.918,0,0,1-.787.127c-.065.007-.13.009-.2.014-.032,0-.065,0-.1,0l-.1,0-.406.01c-.135,0-.27,0-.405,0-.068,0-.135,0-.2,0l-.2-.01c-.27-.01-.538-.035-.807-.06l-.4-.05c-.133-.019-.266-.042-.4-.063a11.2,11.2,0,0,1-1.565-.38c-.256-.08-.508-.172-.761-.27l-.764-.3c-.5-.2-1-.429-1.478-.676q-.362-.185-.715-.387c-.235-.134-.466-.275-.7-.42s-.464-.291-.7-.438l-.695-.442c-.463-.3-.921-.6-1.382-.9s-.919-.6-1.376-.907-.914-.611-1.367-.922c-.227-.155-.452-.313-.673-.475-.111-.081-.222-.162-.33-.247-.054-.043-.107-.086-.159-.131a1.2,1.2,0,0,1-.147-.144" transform="translate(315.059 12219.947)" fill="#ad6e5a"/>
  </g>
</svg>
