<svg xmlns="http://www.w3.org/2000/svg" xmlns:xlink="http://www.w3.org/1999/xlink" width="295" height="221" viewBox="0 0 295 221">
  <defs>
    <clipPath id="clip-path">
      <rect id="Rectángulo_48793" data-name="Rectángulo 48793" width="139.345" height="193.546" fill="none"/>
    </clipPath>
    <clipPath id="clip-path-2">
      <path id="Trazado_203336" data-name="Trazado 203336" d="M306.307,150.277c-.531-.191,1.847,2.622,2.006,3.139.153.5,5.856,13.06,5.9,15.095,12.292,3.345,14.481,4.787,11.374,14.075-.776,2.32-1.752,8.684-2.467,13.059A46.387,46.387,0,0,0,330.1,198.9c-.062-2.849,1.633-8.448,4.245-14.016,3.322-7.069,6.825-12.917.8-17.549-2.82-2.168-13.8-10.691-17.389-12.808a43.235,43.235,0,0,0-11.5-4.287c-.032,0-.016.012.054.037" transform="translate(-306.23 -150.24)" fill="none"/>
    </clipPath>
    <linearGradient id="linear-gradient" x1="-0.72" y1="4.108" x2="-0.717" y2="4.108" gradientUnits="objectBoundingBox">
      <stop offset="0" stop-color="#c1433d"/>
      <stop offset="1" stop-color="#f98877"/>
    </linearGradient>
    <clipPath id="clip-path-3">
      <path id="Trazado_203337" data-name="Trazado 203337" d="M332.057,538.744c-5.276,5.916-13.365,8.874-19.911,12.74-2.653,1.567-2.18,1.563-2.215,1.165-.113-1.261-.051-1.448-.221-1.409-.681.158,2.532,16.748,2.536,16.772,2.113,11.778,1.292,20.754,6.06,26.124,7.01,7.888,36.437,20.692,50.854,27.969,4.225,2.133,6.768,3.423,8.317,4.168a36.967,36.967,0,0,1,3.321,2.045c6.007,4.27,14.239,8.171,16.253,16.044.942,2.782,4.726-2.208,4.663-5.281.008-.075.012-.153.012-.233v-.038c-.011-1.649-1.463-4.2-2.272-5.5-2.641-4.255-3.026-4.5-3.815-9.453-1.088-6.763-.852-8.343-8.551-7.609-3.289.314-7.433-1.37-10.683-3.054-3.041-1.575-5.3-3.151-5.344-3.09-21.126-16.7-28.353-16.395-35.459-24.166-6.384-7.2-3.841-28.4-3.333-37.371.474-8.4.14-11.42-.076-11.42-.1,0-.169.6-.135,1.6" transform="translate(-309.615 -537.145)" fill="none"/>
    </clipPath>
    <linearGradient id="linear-gradient-2" x1="-0.503" y1="1.015" x2="-0.501" y2="1.015" xlink:href="#linear-gradient"/>
    <clipPath id="clip-path-4">
      <path id="Trazado_203338" data-name="Trazado 203338" d="M209.515,72.372a7.319,7.319,0,0,1-.24-.909,1.911,1.911,0,0,0,.24.909m.309-4.13a3.884,3.884,0,0,0-.549,3.221c.151-.619,2.424,1.992,4.652,6.694,1.048,2.209.407,4.637.857,4.33a26.26,26.26,0,0,0,5.868-6.2c.2.225.246.32.386.306.176-.016.29-.277.1-.494-.226-.254-.473-.54-.734-.846.5.509.68.623.621.206a62.972,62.972,0,0,0-5.917-6.116,12.887,12.887,0,0,0-1.7-1.381,14.928,14.928,0,0,0-3.054-2.109c.382.377.569,1.083-.53,2.385m.53-2.385a1.807,1.807,0,0,0-.677-.387c.1.054.353.2.677.387m-.729-.41s.016.011.052.023a.265.265,0,0,0-.051-.023h0" transform="translate(-209.159 -65.446)" fill="none"/>
    </clipPath>
    <linearGradient id="linear-gradient-3" x1="-1.285" y1="9.362" x2="-1.277" y2="9.362" xlink:href="#linear-gradient"/>
    <clipPath id="clip-path-6">
      <path id="Trazado_203342" data-name="Trazado 203342" d="M239.19,93.265h0c-.017,0-.015,0,0,0" transform="translate(-239.179 -93.264)" fill="none"/>
    </clipPath>
    <linearGradient id="linear-gradient-4" x1="-2134.373" y1="23510.713" x2="-2125.448" y2="23510.713" xlink:href="#linear-gradient"/>
    <clipPath id="clip-path-7">
      <path id="Trazado_203344" data-name="Trazado 203344" d="M239.257,93.257h0" transform="translate(-239.257 -93.256)" fill="none"/>
    </clipPath>
    <linearGradient id="linear-gradient-5" x1="0" y1="0.5" x2="1" y2="0.5" xlink:href="#linear-gradient"/>
    <clipPath id="clip-path-8">
      <path id="Trazado_203345" data-name="Trazado 203345" d="M248.224,130.776c-1.312,1.8-4.861,5.594-6.188,8.557a16.4,16.4,0,0,0-.725,2.184c-.463.117,2.266,7.2,3.325,9.241,3.568,6.872,4.193.987,10.654,9.714-.83.771,2.7,2.5,3.821,4.59a11.1,11.1,0,0,1,1.072,2.793,19.024,19.024,0,0,1,.552,3.694.306.306,0,0,0,.09.545c.13.657.65.433.666.062,0-.04-.047-.044.279,0,3.9.644,12.311,5.686,14.755,1.838a.287.287,0,0,0,.348.059c.885-.492-11.117-19.883-11.689-20.821-4.492-7.371-6.932-12.6-11.095-17.367a34.274,34.274,0,0,0-5.916-5.151c-.009,0,.007.019.051.059" transform="translate(-241.259 -130.717)" fill="none"/>
    </clipPath>
    <linearGradient id="linear-gradient-6" x1="-0.677" y1="3.266" x2="-0.674" y2="3.266" xlink:href="#linear-gradient"/>
    <clipPath id="clip-path-10">
      <path id="Trazado_203349" data-name="Trazado 203349" d="M26.9,448.753l-.006,0,.006,0m-.256-.156.007.008.243.144c-.03-.019-.173-.119-.391-.271l.141.119m-4.506-3.107c.1.039.205.085.315.138l-.564-.4.249.26m33.77-53.645c0,.013.025.026.028.025s-1.231,2.058-5.489,4.122c-6.11,5.024-13.127,8.08-19.809,12.588-5.917,3.991-11.084,8.282-16.832,12.616-3.3,2.924-4.313,3.99-5.577,5.157-4.4,4.054-7.079,5.352-7.856,8.792A14.647,14.647,0,0,0,0,438.39v0c0,8.025,6.912,14.05,12.062,21.378,3.083,3.344,24.407,32.277,28.39,42.186,2.746,6.839,7.564,14.571,5,22.283-.238.953.262,1.347,1.093,1.35h.022a8.277,8.277,0,0,0,5.663-3.273c1.021-1.278,1.194-4.457,1.22-6.079.078-5.008-.112-5.424,1.9-10.016,2.74-6.278,3.077-6.345-3.081-11.023-12.124-9.209-12.9-28.855-20.525-39.253-3.433-4.683-7.151-7.914-9.607-10.456q-.065-.026-.128-.047-.282-.25-.545-.512l.424.3a10.651,10.651,0,0,1-2.31-3.17c-1.285-3.741,4.947-3.759,8.439-4.5,15.2-3.246,29.765-11.665,28.409-10.955,7.45-3.9,12.572-6.819,16.576-14.189,3.92-7.217,2.468-10.934-.979-18.417a.314.314,0,0,0-.034.156,41.758,41.758,0,0,1-7.448-.755c-2.163-.38-3.778-.761-3.771-.759a37.182,37.182,0,0,0-4.741-.826c-.1,0-.121.013-.122.025" transform="translate(0 -391.821)" fill="none"/>
    </clipPath>
    <linearGradient id="linear-gradient-7" x1="0.241" y1="1.126" x2="0.242" y2="1.126" xlink:href="#linear-gradient"/>
    <clipPath id="clip-path-11">
      <path id="Trazado_203350" data-name="Trazado 203350" d="M123.366,155.523c-2.36,3.446-3.724,5.565-7.6,11.691-3.352,5.3-9.422,14.017-4.083,17.25,3.761,2.273,8.336-.882,11.394-4,6.821-6.951,6.529-10.339,13.006-19.175,4.076-5.561,9.3-13.766,3.568-17.044a7.766,7.766,0,0,0-3.881-1.123c-6.7,0-10.95,10.281-12.4,12.4" transform="translate(-109.571 -143.124)" fill="none"/>
    </clipPath>
    <linearGradient id="linear-gradient-8" x1="-0.189" y1="3.422" x2="-0.186" y2="3.422" xlink:href="#linear-gradient"/>
    <clipPath id="clip-path-12">
      <path id="Trazado_203351" data-name="Trazado 203351" d="M468.376,879.885a4.1,4.1,0,0,1,.472-.084l-1.208-.052c.241.053.487.1.735.137" transform="translate(-467.641 -879.748)" fill="none"/>
    </clipPath>
    <linearGradient id="linear-gradient-9" x1="-59.09" y1="146.55" x2="-58.964" y2="146.55" xlink:href="#linear-gradient"/>
    <clipPath id="clip-path-13">
      <path id="Trazado_203352" data-name="Trazado 203352" d="M508.467,881.474h0m-.293.007.011,0,.282-.01c-.036,0-.209-.006-.476-.017l.183.024" transform="translate(-507.991 -881.457)" fill="none"/>
    </clipPath>
    <linearGradient id="linear-gradient-10" x1="-217.68" y1="162.348" x2="-217.251" y2="162.348" xlink:href="#linear-gradient"/>
    <clipPath id="clip-path-14">
      <path id="Trazado_203353" data-name="Trazado 203353" d="M331.354,691.069c-3.874.288-13.135-.41-13.135-.41s4.483,1.821,11.442,3.978,9.006,4.332,9.006,4.332l.118-8.664s-3.557.475-7.431.763" transform="translate(-318.219 -690.306)" fill="none"/>
    </clipPath>
    <linearGradient id="linear-gradient-11" x1="-2.361" y1="10.184" x2="-2.353" y2="10.184" gradientUnits="objectBoundingBox">
      <stop offset="0" stop-color="#c1433d"/>
      <stop offset="0.303" stop-color="#d2584f"/>
      <stop offset="1" stop-color="#f98877"/>
    </linearGradient>
    <clipPath id="clip-path-15">
      <path id="Trazado_203354" data-name="Trazado 203354" d="M24.016,706.744c.089.036.183.077.279.124l-.52-.367.241.243M13.905,721.01c3.083,3.344,24.407,32.277,28.39,42.186,2.746,6.839,7.564,14.571,5,22.283-.238.953.262,1.347,1.093,1.35h.022a8.278,8.278,0,0,0,5.663-3.273c1.021-1.278,1.194-4.457,1.219-6.079.078-5.008-.112-5.424,1.9-10.016,2.74-6.278,3.077-6.345-3.081-11.023-12.124-9.209-14-30.049-21.621-40.446a70.4,70.4,0,0,0-8.476-9.248q-.084-.034-.164-.061c-.188-.167-.37-.337-.545-.513l.468.33a9.988,9.988,0,0,1-2.354-3.2c-.034-.1-.062-.2-.086-.29q-1.013-.293-2.034-.555a74.163,74.163,0,0,0-15.988-2.332q-.725-.023-1.462-.033c.256,7.8,7,13.733,12.053,20.921" transform="translate(-1.852 -700.089)" fill="none"/>
    </clipPath>
    <linearGradient id="linear-gradient-12" x1="0.03" y1="0.984" x2="0.033" y2="0.984" xlink:href="#linear-gradient"/>
    <clipPath id="clip-path-17">
      <path id="Trazado_203356" data-name="Trazado 203356" d="M164.813,58.443a1,1,0,0,0-.2.122c-.838.584-.4,1.7-1.515,2.132a3.955,3.955,0,0,1-3.191-.548,4.661,4.661,0,0,0-2.348-.7,1.646,1.646,0,0,0-.458.063,2.313,2.313,0,0,0-.207.754,3.77,3.77,0,0,0,.2,1.726,3.713,3.713,0,0,0,1.248,1.961c1.921,1.575,1.472,2.825,1.833,3.682.184.44.645.367.909.294a1.056,1.056,0,0,1,.195-.053h0c.626-.225.6-.064.716.294.1.311.328.257.5.2.094-.03.17-.06.194-.027.189.256.234.315.4.3.22-.018.426-.209.615-.187.321.063.685.77,1.479.453a2.733,2.733,0,0,0,1.44-1.8c.391-2.1,1.284-3.66.7-4.637-.419-.709-.748-.549-.562-1.034a2.3,2.3,0,0,0-1.3-3.1.922.922,0,0,0-.159-.014,1.126,1.126,0,0,0-.493.122" transform="translate(-156.867 -58.321)" fill="none"/>
    </clipPath>
    <linearGradient id="linear-gradient-13" x1="-1.411" y1="12.111" x2="-1.402" y2="12.111" xlink:href="#linear-gradient"/>
    <clipPath id="clip-path-18">
      <path id="Trazado_203357" data-name="Trazado 203357" d="M207.531,63.378c-.405.048-.411.764-.46,1.076l1.593.828a3.314,3.314,0,0,0,.1-1.21c-.1-.412-.726-.7-1.14-.7a.758.758,0,0,0-.091.005" transform="translate(-207.071 -63.373)" fill="none"/>
    </clipPath>
    <linearGradient id="linear-gradient-14" x1="-13.708" y1="77.977" x2="-13.641" y2="77.977" xlink:href="#linear-gradient"/>
    <clipPath id="clip-path-19">
      <path id="Trazado_203358" data-name="Trazado 203358" d="M105.107,119.622C98.319,147.037,95,156.951,100.72,162.029c5.984,5.311,11.584-9.708,12-17.211a77.255,77.255,0,0,0-.787-10.719c-.1-8.734-1.15-8.055-.857-15.666-.918-.024-2.44-.808-3.744-.808-.983,0-1.842.445-2.226,2" transform="translate(-97.795 -117.625)" fill="none"/>
    </clipPath>
    <linearGradient id="linear-gradient-15" x1="-0.403" y1="3.433" x2="-0.397" y2="3.433" xlink:href="#linear-gradient-11"/>
    <clipPath id="clip-path-20">
      <path id="Trazado_203359" data-name="Trazado 203359" d="M174.942,38.127c-.108.665.835,3.94-.436,4.764-.282.183-.047.833-.047.833l1.4,6.037a21.8,21.8,0,0,0,1.463-4.365,13.123,13.123,0,0,0-.405-4.523c-.358-1.275-.13-3.057-.32-3.315a.556.556,0,0,0-.417-.116c-.472,0-1.165.219-1.24.686" transform="translate(-174.367 -37.441)" fill="none"/>
    </clipPath>
    <linearGradient id="linear-gradient-16" x1="-1.75" y1="46.555" x2="-1.738" y2="46.555" xlink:href="#linear-gradient-11"/>
    <clipPath id="clip-path-21">
      <path id="Trazado_203360" data-name="Trazado 203360" d="M111.992,0c-.568,0-.527,1.174-.527,1.174.427,1.215.744,2.169,1.111,3.333.344,1.092.5,1.976.846,3.068.083.26-.245.31-.406.088a11.306,11.306,0,0,1-1.393-2.786c-.355-1.127-.959-2.178-1.446-3.659-.432-1.313-2.35-1.346-1.417.611.834,1.751,1.625,4.2,2.264,6.028.265.758-.22.654-.3.394a50.581,50.581,0,0,0-2.21-5.286c-.583-1-2.009-.783-1.289,1.2.8,1.637,2.522,5.986,2.224,6.23-.2.168-.636-1.021-.749-1.259-.763-1.6-1.107-2.023-1.835-3.814-.587-.888-1.146.074-.925.788.13.421,4.784,11.659,4.784,11.659l6.829-4.9a17.268,17.268,0,0,0-.629-2.645c-.58-1.615-1.138-1.973-1.808-3.7-.542-1.4-.964-2.542-1.608-4.023a8.969,8.969,0,0,0-1.02-2.28A.872.872,0,0,0,111.994,0Z" transform="translate(-105.889 0.002)" fill="none"/>
    </clipPath>
    <linearGradient id="linear-gradient-17" x1="-0.612" y1="9.111" x2="-0.604" y2="9.111" xlink:href="#linear-gradient-11"/>
    <clipPath id="clip-path-22">
      <path id="Trazado_203361" data-name="Trazado 203361" d="M126.835,78.372l2.881,6.868a19.219,19.219,0,0,0,4.3.094,2.623,2.623,0,0,0,1.815-2.37l-.535-6.838Z" transform="translate(-126.835 -76.125)" fill="none"/>
    </clipPath>
    <linearGradient id="linear-gradient-18" x1="-1.373" y1="14.254" x2="-1.361" y2="14.254" xlink:href="#linear-gradient-11"/>
  </defs>
  <g id="Grupo_172355" data-name="Grupo 172355" transform="translate(-1020 -8497)">
    <rect id="Rectángulo_215655" data-name="Rectángulo 215655" width="295" height="221" transform="translate(1020 8497)" fill="#ffd5d9"/>
    <g id="Grupo_163373" data-name="Grupo 163373" transform="translate(1098 8511.002)">
      <g id="Grupo_163375" data-name="Grupo 163375" transform="translate(0 -0.002)">
        <g id="Grupo_163374" data-name="Grupo 163374" transform="translate(0 0)" clip-path="url(#clip-path)">
          <path id="Trazado_203335" data-name="Trazado 203335" d="M254.887,134.939c-7.651-32.162-64.2-23.059-88.38-59.795-4.84-7.353.139-40.017,1.178-57.028.37-6.054-4.558-9.782-4.558-9.782s5.867-10.906,22.5-6.378c19.9,5.418,7.243,44.722,61.305,40.162,59.113-4.987-1.792,90.846,11.016,90.846" transform="translate(-138.24 -0.724)" fill="#040031"/>
        </g>
      </g>
      <g id="Grupo_163377" data-name="Grupo 163377" transform="translate(46.719 22.919)">
        <g id="Grupo_163376" data-name="Grupo 163376" clip-path="url(#clip-path-2)">
          <rect id="Rectángulo_48794" data-name="Rectángulo 48794" width="52.424" height="40.569" transform="matrix(0.11, -0.994, 0.994, 0.11, -5.81, 48.065)" fill="url(#linear-gradient)"/>
        </g>
      </g>
      <g id="Grupo_163379" data-name="Grupo 163379" transform="translate(47.235 81.945)">
        <g id="Grupo_163378" data-name="Grupo 163378" clip-path="url(#clip-path-3)">
          <rect id="Rectángulo_48795" data-name="Rectángulo 48795" width="92.748" height="109.999" transform="translate(-0.587 0)" fill="url(#linear-gradient-2)"/>
        </g>
      </g>
      <g id="Grupo_163381" data-name="Grupo 163381" transform="translate(31.909 9.983)">
        <g id="Grupo_163380" data-name="Grupo 163380" clip-path="url(#clip-path-4)">
          <rect id="Rectángulo_48796" data-name="Rectángulo 48796" width="21.25" height="19.735" transform="matrix(0.54, -0.841, 0.841, 0.54, -8.031, 12.281)" fill="url(#linear-gradient-3)"/>
        </g>
      </g>
      <g id="Grupo_163383" data-name="Grupo 163383" transform="translate(0 -0.002)">
        <g id="Grupo_163382" data-name="Grupo 163382" transform="translate(0 0)" clip-path="url(#clip-path)">
          <path id="Trazado_203339" data-name="Trazado 203339" d="M835.51,803.563h0" transform="translate(-707.988 -680.855)" fill="#040031"/>
          <path id="Trazado_203340" data-name="Trazado 203340" d="M728.722,607.282c.06.186.068.215,0,0" transform="translate(-617.548 -514.635)" fill="#040031"/>
          <path id="Trazado_203341" data-name="Trazado 203341" d="M804.337,754.127h0" transform="translate(-681.627 -639.077)" fill="#040031"/>
        </g>
      </g>
      <g id="Grupo_163385" data-name="Grupo 163385" transform="translate(36.489 14.227)">
        <g id="Grupo_163384" data-name="Grupo 163384" clip-path="url(#clip-path-6)">
          <rect id="Rectángulo_48798" data-name="Rectángulo 48798" width="0.017" height="0.008" transform="matrix(0.974, -0.226, 0.226, 0.974, -0.006, 0)" fill="url(#linear-gradient-4)"/>
        </g>
      </g>
      <g id="Grupo_163387" data-name="Grupo 163387" transform="translate(36.501 14.225)">
        <g id="Grupo_163386" data-name="Grupo 163386" clip-path="url(#clip-path-7)">
          <path id="Trazado_203343" data-name="Trazado 203343" d="M239.255,93.255h0Z" transform="translate(-239.256 -93.255)" fill="url(#linear-gradient-5)"/>
        </g>
      </g>
      <g id="Grupo_163389" data-name="Grupo 163389" transform="translate(36.807 19.941)">
        <g id="Grupo_163388" data-name="Grupo 163388" clip-path="url(#clip-path-8)">
          <rect id="Rectángulo_48799" data-name="Rectángulo 48799" width="46.595" height="54.243" transform="translate(-10.773 2.401) rotate(-13.044)" fill="url(#linear-gradient-6)"/>
        </g>
      </g>
      <g id="Grupo_163391" data-name="Grupo 163391" transform="translate(0 -0.002)">
        <g id="Grupo_163390" data-name="Grupo 163390" transform="translate(0 0)" clip-path="url(#clip-path)">
          <path id="Trazado_203346" data-name="Trazado 203346" d="M274.748,147.046c-.119.383,3.41,3.249,3.744,3.535a7.833,7.833,0,0,1,1.754,5.863c-.591,3.221-4.521,6.447-7.729,5.732-.515-.117-1.613.678-1.212.9-.3,1.4-.49,3.1.259,4.3.5.8,1.914,1.38,2.78,1.851,2.794,1.519,5.436,6.172,5.794,5.613,2.485-3.885,12.514-4.739,11.842-5.99-2.833-5.256-7.806-16.829-14.166-20.841-.5-.322-2.883-1.535-3.065-.963" transform="translate(-229.69 -124.484)" fill="#fff"/>
          <path id="Trazado_203347" data-name="Trazado 203347" d="M356.379,1177.817c0,.914.06.595,0-.116,0,.128-.015.119,0,.116" transform="translate(-302.004 -998.03)" fill="#f6b99f"/>
          <path id="Trazado_203348" data-name="Trazado 203348" d="M341.494,1265.983c.189-.044.13.027.353-.442-.4.5-.428.459-.353.442" transform="translate(-289.367 -1072.469)" fill="#f6b99f"/>
        </g>
      </g>
      <g id="Grupo_163393" data-name="Grupo 163393" transform="translate(0 59.775)">
        <g id="Grupo_163392" data-name="Grupo 163392" clip-path="url(#clip-path-10)">
          <rect id="Rectángulo_48801" data-name="Rectángulo 48801" width="148.323" height="106.785" transform="matrix(0.24, -0.971, 0.971, 0.24, -31.173, 126.061)" fill="url(#linear-gradient-7)"/>
        </g>
      </g>
      <g id="Grupo_163395" data-name="Grupo 163395" transform="translate(16.716 21.833)">
        <g id="Grupo_163394" data-name="Grupo 163394" clip-path="url(#clip-path-11)">
          <rect id="Rectángulo_48802" data-name="Rectángulo 48802" width="47.874" height="51.299" transform="translate(-12.816 2.221) rotate(-13.044)" fill="url(#linear-gradient-8)"/>
        </g>
      </g>
      <g id="Grupo_163397" data-name="Grupo 163397" transform="translate(71.343 134.213)">
        <g id="Grupo_163396" data-name="Grupo 163396" clip-path="url(#clip-path-12)">
          <rect id="Rectángulo_48803" data-name="Rectángulo 48803" width="1.207" height="0.406" transform="translate(-0.03 0.007) rotate(-13.044)" fill="url(#linear-gradient-9)"/>
        </g>
      </g>
      <g id="Grupo_163399" data-name="Grupo 163399" transform="translate(77.499 134.474)">
        <g id="Grupo_163398" data-name="Grupo 163398" clip-path="url(#clip-path-13)">
          <rect id="Rectángulo_48804" data-name="Rectángulo 48804" width="0.356" height="0.365" transform="matrix(0.698, -0.716, 0.716, 0.698, -0.014, 0.014)" fill="url(#linear-gradient-10)"/>
        </g>
      </g>
      <g id="Grupo_163401" data-name="Grupo 163401" transform="translate(48.548 105.312)">
        <g id="Grupo_163400" data-name="Grupo 163400" clip-path="url(#clip-path-14)">
          <rect id="Rectángulo_48805" data-name="Rectángulo 48805" width="20.566" height="8.664" fill="url(#linear-gradient-11)"/>
        </g>
      </g>
      <g id="Grupo_163403" data-name="Grupo 163403" transform="translate(0.283 106.804)">
        <g id="Grupo_163402" data-name="Grupo 163402" clip-path="url(#clip-path-15)">
          <rect id="Rectángulo_48806" data-name="Rectángulo 48806" width="62.784" height="89.618" transform="matrix(0.999, -0.051, 0.051, 0.999, -4.437, 0.228)" fill="url(#linear-gradient-12)"/>
        </g>
      </g>
      <g id="Grupo_163405" data-name="Grupo 163405" transform="translate(0 -0.002)">
        <g id="Grupo_163404" data-name="Grupo 163404" transform="translate(0 0)" clip-path="url(#clip-path)">
          <path id="Trazado_203355" data-name="Trazado 203355" d="M155.121,45.693s-4.007,2.878-.759,14.188c3.4,11.849.884,20.671.884,20.671l9.075-14.778Z" transform="translate(-129.736 -38.722)" fill="#040031"/>
        </g>
      </g>
      <g id="Grupo_163407" data-name="Grupo 163407" transform="translate(23.932 8.896)">
        <g id="Grupo_163406" data-name="Grupo 163406" clip-path="url(#clip-path-17)">
          <rect id="Rectángulo_48808" data-name="Rectángulo 48808" width="15.393" height="15.434" transform="translate(-5.304 6.947) rotate(-52.964)" fill="url(#linear-gradient-13)"/>
        </g>
      </g>
      <g id="Grupo_163409" data-name="Grupo 163409" transform="translate(31.591 9.667)">
        <g id="Grupo_163408" data-name="Grupo 163408" clip-path="url(#clip-path-18)">
          <rect id="Rectángulo_48809" data-name="Rectángulo 48809" width="2.287" height="2.361" transform="translate(-0.549 0.173) rotate(-17.542)" fill="url(#linear-gradient-14)"/>
        </g>
      </g>
      <g id="Grupo_163411" data-name="Grupo 163411" transform="translate(14.92 17.943)">
        <g id="Grupo_163410" data-name="Grupo 163410" clip-path="url(#clip-path-19)">
          <rect id="Rectángulo_48810" data-name="Rectángulo 48810" width="23.344" height="51.4" transform="matrix(0.994, -0.111, 0.111, 0.994, -8.294, 0.615)" fill="url(#linear-gradient-15)"/>
        </g>
      </g>
      <g id="Grupo_163413" data-name="Grupo 163413" transform="translate(26.602 5.71)">
        <g id="Grupo_163412" data-name="Grupo 163412" clip-path="url(#clip-path-20)">
          <rect id="Rectángulo_48811" data-name="Rectángulo 48811" width="12.483" height="3.945" transform="translate(-0.833 12.281) rotate(-86.784)" fill="url(#linear-gradient-16)"/>
        </g>
      </g>
      <g id="Grupo_163415" data-name="Grupo 163415" transform="translate(16.154 -0.002)">
        <g id="Grupo_163414" data-name="Grupo 163414" transform="translate(0 0)" clip-path="url(#clip-path-21)">
          <rect id="Rectángulo_48812" data-name="Rectángulo 48812" width="19.701" height="21.452" transform="matrix(0.837, -0.548, 0.548, 0.837, -8.371, 5.239)" fill="url(#linear-gradient-17)"/>
        </g>
      </g>
      <g id="Grupo_163417" data-name="Grupo 163417" transform="translate(19.35 11.612)">
        <g id="Grupo_163416" data-name="Grupo 163416" clip-path="url(#clip-path-22)">
          <rect id="Rectángulo_48813" data-name="Rectángulo 48813" width="12.736" height="12.881" transform="matrix(0.836, -0.549, 0.549, 0.836, -4.359, 2.86)" fill="url(#linear-gradient-18)"/>
        </g>
      </g>
      <g id="Grupo_163419" data-name="Grupo 163419" transform="translate(0 -0.002)">
        <g id="Grupo_163418" data-name="Grupo 163418" transform="translate(0 0)" clip-path="url(#clip-path)">
          <path id="Trazado_203362" data-name="Trazado 203362" d="M69.38,391.676s11.693.609,13.178-.05,15.312,7.938,21.519,26.558c3.5,10.5.212,20.472,14.483,30.048,7.5,5.033,12.588,15.441,12.588,15.441s-22.84-9.115-45.757-2.9c-3.287.891-13.928,2.679-20.112,1.269S50.374,456.5,46.467,450.755c-13.673-20.088-30.6-19.448-30.6-19.448S34.8,413.569,41.753,408.451c6.508-4.79,27.627-16.775,27.627-16.775" transform="translate(-13.445 -331.849)" fill="#ed1c24"/>
          <path id="Trazado_203363" data-name="Trazado 203363" d="M322.093,472.067c-5.006.2-12.011-5.781-13.355-2.818a1.181,1.181,0,0,0,.015.981c-.079.232.168.279.227.348a62.572,62.572,0,0,0,9.13,3.985c1.223.384,3.352,1.063,3.943,2.178a3.724,3.724,0,0,1-2.49,1.6c-1.409.374-10.17.591-9.291,3.155-.369.6,2.754.9,3.525.913,3.182.069,7.038-.878,9.955-.4a69.646,69.646,0,0,1,8.489,2.23,54.983,54.983,0,0,1,9.917,3.739c3.907,1.879,12.988,6.685,14.106,7.335,2.3,1.337,13.848,9.534,16.463,10.687.585.258,2.157-2.223-1.087-4.621-.774-.572,5.721-.1,6.489-2.164.963-2.589-8.145-10.944-8.749-10.537-1.13-.514-13.026-6.832-14.537-7.517-9.363-4.241-9.526-6.34-10.319-9.641a19.652,19.652,0,0,0-2.943-7.036c-2.369-3.738-1.432-3.57-3.312-6.181-1.244-1.727-.48-3.249-1.566-4-.818-.572-2.029.743-2.357,1.625-1.437,3.864,7.386,14.214-4.459,9.652a27.091,27.091,0,0,1-6.112-3.851c-2.215-1.73-7.607-6.413-8.726-3.85-.8,1.877,4.042,3.731,8.02,7.449.459.431,2.293,2.218,1.8,2.62-.964.61-5.519-1.972-6.849-2.7-5.907-3.228-7.118-3.47-8.255-2.647-3.93,2.827,10.9,6.186,12.327,9.467m-8,.5h0l-.008-.006c.344.161.266.128.024.012h0l-.008,0h0l0,0Zm21.1,11.9c-.176-.027,0,0,0,0" transform="translate(-261.552 -384.874)" fill="#040031"/>
        </g>
      </g>
    </g>
  </g>
</svg>
