<svg xmlns="http://www.w3.org/2000/svg" xmlns:xlink="http://www.w3.org/1999/xlink" width="505" height="275" viewBox="0 0 505 275">
  <defs>
    <clipPath id="clip-path">
      <rect id="Rectángulo_48876" data-name="Rectángulo 48876" width="211.726" height="249.304" fill="none"/>
    </clipPath>
    <clipPath id="clip-path-3">
      <path id="Trazado_207890" data-name="Trazado 207890" d="M162.82,2.327c-29.512,4.682-36.758,29.4-36.758,29.4V177.1l40.345,23.31,76.934-38.684q.062-.667.1-1.318a24.417,24.417,0,0,0-19.669-24.976c-11.538-2.324-17.144-8.091-17.144-8.091,13.995,2.141,17.787-11.174,17.787-11.174a16.081,16.081,0,0,1-13.581,3.327,12.05,12.05,0,0,1-9.154-8.833c-3.041-11.628,7.569-20.825,7.569-20.825a64.041,64.041,0,0,0,11.5-15.86,45.04,45.04,0,0,0,4.86-20.021c-.035-28.733-27.826-29.034-27.826-29.034,0-12.189-8.114-18.027-15.416-20.814A36.227,36.227,0,0,0,169.423,1.8a42.148,42.148,0,0,0-6.6.529" transform="translate(-126.062 -1.798)" fill="none"/>
    </clipPath>
    <clipPath id="clip-path-5">
      <path id="Trazado_207908" data-name="Trazado 207908" d="M61.9,39.779c-9.83-2.214-20.515-.232-27.045,1.525a43.457,43.457,0,0,0-13.661,6.221C.1,62.27,6.685,85.959,6.841,86.519a43.293,43.293,0,0,1,2.775-6.894C49.462,56.5,99.022,85.648,99.022,85.648c-4.58,9.578-1.823,15.093.127,17.46a19.189,19.189,0,0,1,3.447,5.969c2.767,8.118-.028,13.151-.835,14.376,3.936-5.388,7.955-8.507,11.728-10.213,10-4.5,20.771,4.3,18.684,15.066-4.045,20.789-30.621,22.839-30.621,22.839L97.3,154.164c53.07,2.24,52.263-51.22,52.263-51.22,5.823-26.44-17.125-40.281-17.125-40.281-11.874-20.611-34.789-24.75-51.284-24.75A95.8,95.8,0,0,0,61.9,39.779" transform="translate(-5.748 -37.913)" fill="none"/>
    </clipPath>
    <clipPath id="clip-path-7">
      <rect id="Rectángulo_48868" data-name="Rectángulo 48868" width="15.338" height="19.374" fill="none"/>
    </clipPath>
    <clipPath id="clip-path-8">
      <rect id="Rectángulo_48869" data-name="Rectángulo 48869" width="10.068" height="13.678" fill="none"/>
    </clipPath>
    <clipPath id="clip-path-9">
      <rect id="Rectángulo_48870" data-name="Rectángulo 48870" width="7.746" height="12.989" fill="none"/>
    </clipPath>
    <clipPath id="clip-path-10">
      <rect id="Rectángulo_48871" data-name="Rectángulo 48871" width="4.708" height="8.082" fill="none"/>
    </clipPath>
    <clipPath id="clip-path-11">
      <path id="Trazado_207934" data-name="Trazado 207934" d="M4.649,143.5s6.421,1.12,9.427-3.42a16.841,16.841,0,0,0-8.742-5.108s-.024,5.957-.685,8.528" transform="translate(-4.649 -134.969)" fill="none"/>
    </clipPath>
    <clipPath id="clip-path-13">
      <path id="Trazado_207942" data-name="Trazado 207942" d="M70.5,134.059a21.749,21.749,0,0,0-7.475,7.324,34.192,34.192,0,0,1,8.5,4.591s14.387,11.962,27.359.515A17.882,17.882,0,0,0,91.6,134.916a18.855,18.855,0,0,0-11.133-3.59,19.557,19.557,0,0,0-9.969,2.733" transform="translate(-63.023 -131.326)" fill="none"/>
    </clipPath>
    <clipPath id="clip-path-15">
      <rect id="Rectángulo_48874" data-name="Rectángulo 48874" width="35.591" height="16.04" fill="none"/>
    </clipPath>
    <clipPath id="clip-path-16">
      <rect id="Rectángulo_48865" data-name="Rectángulo 48865" width="505" height="269.895" fill="none"/>
    </clipPath>
  </defs>
  <g id="Grupo_165019" data-name="Grupo 165019" transform="translate(-810 -9600)">
    <rect id="Rectángulo_48864" data-name="Rectángulo 48864" width="505" height="275" transform="translate(810 9600)" fill="#f5d7cd"/>
    <g id="Grupo_165017" data-name="Grupo 165017" transform="translate(970.669 9600)">
      <g id="Grupo_165016" data-name="Grupo 165016" clip-path="url(#clip-path)">
        <g id="Grupo_164984" data-name="Grupo 164984">
          <g id="Grupo_164983" data-name="Grupo 164983" clip-path="url(#clip-path)">
            <path id="Trazado_207870" data-name="Trazado 207870" d="M243.341,161.726,166.407,200.41,126.062,177.1V31.722s7.246-24.714,36.758-29.4a38.06,38.06,0,0,1,19.545,1.78c7.3,2.786,15.414,8.624,15.414,20.813,0,0,27.793.3,27.828,29.034a45.049,45.049,0,0,1-4.861,20.021,64.008,64.008,0,0,1-11.5,15.86s-10.609,9.2-7.568,20.825a12.049,12.049,0,0,0,9.154,8.833,16.081,16.081,0,0,0,13.58-3.327s-3.791,13.314-17.786,11.174c0,0,5.605,5.767,17.144,8.09a24.418,24.418,0,0,1,19.669,24.977q-.035.651-.1,1.318" transform="translate(-34.234 -0.488)" fill="#da9588"/>
          </g>
        </g>
        <g id="Grupo_164986" data-name="Grupo 164986" transform="translate(91.828 1.31)">
          <g id="Grupo_164985" data-name="Grupo 164985" clip-path="url(#clip-path-3)">
            <path id="Trazado_207871" data-name="Trazado 207871" d="M186.74,7.49s-18.475-12.9-44.083,2.36c0,0-18.224,10.4-21.331,38.29l-5.539-1.361s1.263-26.239,25.17-40.427c0,0,26.066-15.023,45.783,1.138" transform="translate(-123.272 -1.31)" fill="#fff"/>
            <path id="Trazado_207872" data-name="Trazado 207872" d="M201.775,20.548s-20.429-6.053-35.941,3.629c0,0-12.038,7.3-15.731,25.766h-3.5s2.624-18.27,18.173-27.794c0,0,15.785-10.392,37-1.6" transform="translate(-131.64 -5.931)" fill="#fff"/>
            <path id="Trazado_207873" data-name="Trazado 207873" d="M160.745,55.968s33.817-24.812,57.177-7.391A23.047,23.047,0,0,1,226.78,63.54a50.259,50.259,0,0,1-8.116,36.453s16.992-17.294,9.254-42.474a24.7,24.7,0,0,0-7.624-11.742C211.886,38.731,193.7,32,160.745,55.968" transform="translate(-135.481 -11.956)" fill="#fff"/>
            <path id="Trazado_207874" data-name="Trazado 207874" d="M167.769,60.631s29.82-15.189,35.943,13.065c0,0,2.915,11.927-10.787,22.569l.146,3.353s11.814-7.088,13.677-20.5a22.409,22.409,0,0,0-6.463-19.368c-5.58-5.311-15.715-9.379-32.515.885" transform="translate(-137.388 -16.052)" fill="#fff"/>
            <path id="Trazado_207875" data-name="Trazado 207875" d="M195.051,156.981a34.282,34.282,0,0,0,7.416,17.545s6.459,6.475,4.435,19.517c-.144.924-.356,1.84-.582,2.747-.752,3.014-2.478,14.146,11.613,18.169,0,0,7.862,1.611,9.757,8.171l-2.818,1.943a11.725,11.725,0,0,0-9.427-7.442,14.9,14.9,0,0,1-12.1-12.981,22.414,22.414,0,0,1,.695-9.249,21.94,21.94,0,0,0-.838-13.947,22.777,22.777,0,0,0-2.88-4.966c-2.3-3.1-7.969-11.841-5.275-19.508" transform="translate(-144.604 -43.94)" fill="#fff"/>
            <path id="Trazado_207876" data-name="Trazado 207876" d="M210.991,146.038s-9.8,29.489,21.811,41.07c1.254.46,2.535.833,3.821,1.194,3.733,1.045,16.436,5.874,14.442,22.819l2.924-2.189s4.342-18.475-17.585-23.655c0,0-30.6-8.987-25.413-39.239" transform="translate(-148.736 -40.968)" fill="#fff"/>
            <path id="Trazado_207877" data-name="Trazado 207877" d="M175.887,182.593s6.04,3.779,5.466,12.687a19.066,19.066,0,0,1-2.216,7.617,24.191,24.191,0,0,0,.3,23.039s3.421,7.676,17.394,8.051a12.026,12.026,0,0,1,3.714.626c1.694.6,3.575,1.765,3.575,3.956l2.88-2.023s-3.372-6.146-13.184-4.929c0,0-15.457-1.211-15.457-17.149a20.358,20.358,0,0,1,2.252-10.162,26.589,26.589,0,0,0,2.664-8.386c.624-4.928-.045-11.423-6.366-15.369Z" transform="translate(-139.593 -50.341)" fill="#fff"/>
            <path id="Trazado_207878" data-name="Trazado 207878" d="M142.324,38.372s9.143-41.3,56.179-27.5" transform="translate(-130.478 -3.495)" fill="none" stroke="#c3564d" stroke-linecap="round" stroke-linejoin="round" stroke-width="1.245"/>
            <path id="Trazado_207879" data-name="Trazado 207879" d="M148.738,40.344S160.983,3.124,205.3,19.45" transform="translate(-132.22 -5.467)" fill="none" stroke="#c3564d" stroke-linecap="round" stroke-linejoin="round" stroke-width="3.735"/>
            <path id="Trazado_207880" data-name="Trazado 207880" d="M166.349,59.91A52.314,52.314,0,0,1,183.773,49.9c23.459-7.711,45.9,14.755,37.311,37.906a42.322,42.322,0,0,1-6.168,10.938,27.3,27.3,0,0,1-3.37,3.6,40.214,40.214,0,0,0-6.047,6.993c-11.649,17.064-4.057,40.361,15.154,47.965a76.962,76.962,0,0,0,7.5,2.513s17.687,4.1,13.605,26.248" transform="translate(-137.002 -14.44)" fill="none" stroke="#c3564d" stroke-linecap="round" stroke-linejoin="round" stroke-width="3.735"/>
            <path id="Trazado_207881" data-name="Trazado 207881" d="M175.072,56.639s23.48-11.705,32.955,11.473c0,0,5.637,13.826-6.8,25.4a35.972,35.972,0,0,0-11.719,23.451c-.637,8.36.206,18.274,5.445,26.5a28.277,28.277,0,0,0,2.282,3.008c2.014,2.388,7.211,9.95,4.07,21.5A15.12,15.12,0,0,0,211.8,186.689q.441.116.905.219a14.583,14.583,0,0,1,11.628,13.509q.023.592.023,1.222" transform="translate(-139.371 -15.888)" fill="none" stroke="#c3564d" stroke-linecap="round" stroke-linejoin="round" stroke-width="2.49"/>
            <path id="Trazado_207882" data-name="Trazado 207882" d="M218.946,128.143s-16.311,15.178-9.18,38.1a31.455,31.455,0,0,0,10.672,15.822,26.551,26.551,0,0,0,11.806,5.2,18.945,18.945,0,0,1,9.58,4.445c3.73,3.341,7.2,9.159,6.183,19.072" transform="translate(-148.303 -36.108)" fill="none" stroke="#c3564d" stroke-linecap="round" stroke-linejoin="round" stroke-width="1.245"/>
            <path id="Trazado_207883" data-name="Trazado 207883" d="M167.769,167.105s11.157-2.836,17.681,9.419a28.421,28.421,0,0,1,3.245,14.324c-.127,3.667-.865,8.193-3.282,11.78a17.61,17.61,0,0,0-3.24,11.03c.395,5.436,3.628,11.792,15.557,14.331,0,0,8.022,1.165,8.022,9.038" transform="translate(-137.388 -46.612)" fill="none" stroke="#c3564d" stroke-linecap="round" stroke-linejoin="round" stroke-width="3.735"/>
            <path id="Trazado_207884" data-name="Trazado 207884" d="M153.721,177.366s14.389-4.708,21.24,5.97a16.331,16.331,0,0,1,2.465,8.671,21.152,21.152,0,0,1-2.372,10.361,20.361,20.361,0,0,0-2.56,7.418,25.709,25.709,0,0,0,.036,6.115,16.626,16.626,0,0,0,19.406,14.35c.113-.02.227-.042.341-.065" transform="translate(-133.573 -49.195)" fill="none" stroke="#c3564d" stroke-linecap="round" stroke-linejoin="round" stroke-width="1.245"/>
            <path id="Trazado_207885" data-name="Trazado 207885" d="M120.821,187.68s25.972-5.245,29.471,12.394c0,0,2.008,9.224-2.366,17.108a28.967,28.967,0,0,0-3.73,18.093c1.3,9.1,6.7,19.5,24.317,20.629" transform="translate(-124.639 -52.078)" fill="none" stroke="#c3564d" stroke-linecap="round" stroke-linejoin="round" stroke-width="2.49"/>
            <path id="Trazado_207886" data-name="Trazado 207886" d="M158.878,50.969S182.348,25.9,215.146,34.06" transform="translate(-134.974 -10.115)" fill="none" stroke="#c3564d" stroke-linecap="round" stroke-linejoin="round" stroke-width="1.245"/>
            <path id="Trazado_207887" data-name="Trazado 207887" d="M165.014,52.623S195.3,30.194,216.9,41.9a26.863,26.863,0,0,1,12.972,17.232c2.394,9.528,3.073,26.1-11.6,44.675" transform="translate(-136.64 -11.769)" fill="none" stroke="#c3564d" stroke-linecap="round" stroke-linejoin="round" stroke-width="2.49"/>
            <path id="Trazado_207888" data-name="Trazado 207888" d="M236.658,174.143s5.318,6.842,17.216,9.975a25.665,25.665,0,0,1,10.857,5.687c4.436,4.05,8.607,10.828,6.376,21.368l4.519-2.77s3.239-14.172-9.516-23.283a27.584,27.584,0,0,0-13.681-4.844c-4.36-.383-11.345-1.706-15.772-6.133" transform="translate(-156.096 -48.6)" fill="#fff"/>
            <path id="Trazado_207889" data-name="Trazado 207889" d="M236.967,122.656s-11.106,9.775-8.4,21.4a13.028,13.028,0,0,0,10.841,9.908c4.022.606,8.98-.026,12.719-4.981,0,0-11.617,7.539-20.509-2.521,0,0-7.242-8.113,5.344-23.81" transform="translate(-153.784 -34.618)" fill="#fff"/>
          </g>
        </g>
        <g id="Grupo_164988" data-name="Grupo 164988">
          <g id="Grupo_164987" data-name="Grupo 164987" clip-path="url(#clip-path)">
            <path id="Trazado_207891" data-name="Trazado 207891" d="M149.561,102.944s.807,53.46-52.263,51.219l4.254-3.02s26.576-2.05,30.621-22.839c2.086-10.766-8.68-19.564-18.684-15.066-3.773,1.7-7.791,4.825-11.728,10.213.807-1.225,3.6-6.259.835-14.376a19.18,19.18,0,0,0-3.447-5.968c-1.95-2.367-4.707-7.882-.127-17.46,0,0-49.56-29.152-89.406-6.023a43.384,43.384,0,0,0-2.775,6.893C6.685,85.959.1,62.27,21.192,47.525A43.44,43.44,0,0,1,34.854,41.3c6.529-1.757,17.214-3.738,27.044-1.525,0,0,50.693-11.565,70.539,22.884,0,0,22.948,13.842,17.125,40.281" transform="translate(-1.561 -10.296)" fill="#da9588"/>
            <path id="Trazado_207892" data-name="Trazado 207892" d="M183.692,112.672s.807,53.46-52.263,51.219l4.254-3.02s24.916-1.923,30.168-20.916c8.934-8.762,14.476-19.51,15.237-31.364.808-12.59-3.9-24.626-12.589-34.857,5.406,4.054,19.964,17.261,15.192,38.939" transform="translate(-35.691 -20.023)" fill="#c97b71"/>
          </g>
        </g>
        <g id="Grupo_164990" data-name="Grupo 164990" transform="translate(4.187 27.617)">
          <g id="Grupo_164989" data-name="Grupo 164989" clip-path="url(#clip-path-5)">
            <path id="Trazado_207893" data-name="Trazado 207893" d="M129.661,95.745s34.077-4.758,36.426-23.855l3.661.853s-.415,23.169-40.087,26.115Z" transform="translate(-39.398 -47.14)" fill="#fff"/>
            <path id="Trazado_207894" data-name="Trazado 207894" d="M77.486,71.7s-.752-7.222,4.165-15.643c7.016-12.015,20.96-18.107,34.694-15.883a74.764,74.764,0,0,1,18.139,5.345,62.15,62.15,0,0,0-21.735-7.01,30.523,30.523,0,0,0-23.167,6.2c-7.367,5.8-15.232,15.091-12.1,26.989" transform="translate(-25.037 -37.992)" fill="#fff"/>
            <path id="Trazado_207895" data-name="Trazado 207895" d="M77.486,71.7s-.752-7.222,4.165-15.643c7.016-12.015,20.96-18.107,34.694-15.883a74.764,74.764,0,0,1,18.139,5.345,62.15,62.15,0,0,0-21.735-7.01,30.523,30.523,0,0,0-23.167,6.2C82.216,50.511,74.351,59.8,77.486,71.7Z" transform="translate(-25.037 -37.992)" fill="none" stroke="#fff" stroke-miterlimit="10" stroke-width="0.934"/>
            <path id="Trazado_207896" data-name="Trazado 207896" d="M128.994,117.172s47.576,13,54.983-14.8c0,0,2.548,32.123-54.983,14.8" transform="translate(-39.217 -55.418)" fill="#fff"/>
            <path id="Trazado_207897" data-name="Trazado 207897" d="M128.994,117.172s47.576,13,54.983-14.8C183.977,102.374,186.525,134.5,128.994,117.172Z" transform="translate(-39.217 -55.418)" fill="none" stroke="#fff" stroke-miterlimit="10" stroke-width="0.934"/>
            <path id="Trazado_207898" data-name="Trazado 207898" d="M53.154,37.913S18.482,53.042,29.355,76.8c0,0-8.25-9.767,0-23.3,0,0,9.054-14.251,23.8-15.594" transform="translate(-11.163 -37.913)" fill="#fff"/>
            <path id="Trazado_207899" data-name="Trazado 207899" d="M53.154,37.913S18.482,53.042,29.355,76.8c0,0-8.25-9.767,0-23.3C29.355,53.507,38.41,39.256,53.154,37.913Z" transform="translate(-11.163 -37.913)" fill="none" stroke="#fff" stroke-miterlimit="10" stroke-width="0.934"/>
            <path id="Trazado_207900" data-name="Trazado 207900" d="M138.7,133.32s34.919,9.612,46.965-6.131" transform="translate(-41.853 -62.157)" fill="none" stroke="#c3564d" stroke-linecap="round" stroke-linejoin="round" stroke-width="2.49"/>
            <path id="Trazado_207901" data-name="Trazado 207901" d="M131.344,117.731s45.72,11.715,52.324-13.3" transform="translate(-39.855 -55.976)" fill="none" stroke="#c3564d" stroke-linecap="round" stroke-linejoin="round" stroke-width="1.245"/>
            <path id="Trazado_207902" data-name="Trazado 207902" d="M133.795,94.874S164.083,90.89,167.21,71.89" transform="translate(-40.521 -47.14)" fill="none" stroke="#c3564d" stroke-linecap="round" stroke-linejoin="round" stroke-width="3.735"/>
            <path id="Trazado_207903" data-name="Trazado 207903" d="M122.479,88.153s36.76-4.961,36.76-25.777" transform="translate(-37.448 -44.556)" fill="none" stroke="#c3564d" stroke-linecap="round" stroke-linejoin="round" stroke-width="1.245"/>
            <path id="Trazado_207904" data-name="Trazado 207904" d="M111.485,37.9s-15.855-1.3-26.659,10.287c-5.782,6.2-10.152,12.858-7.772,23.492" transform="translate(-24.932 -37.897)" fill="none" stroke="#c3564d" stroke-linecap="round" stroke-linejoin="round" stroke-width="1.245"/>
            <path id="Trazado_207905" data-name="Trazado 207905" d="M78.87,40.044S56.316,56.155,64.087,71.384" transform="translate(-21.148 -38.492)" fill="none" stroke="#c3564d" stroke-linecap="round" stroke-linejoin="round" stroke-width="3.735"/>
            <path id="Trazado_207906" data-name="Trazado 207906" d="M46.179,39.408S17.944,53.3,27.173,74.561" transform="translate(-11.063 -38.319)" fill="none" stroke="#c3564d" stroke-linecap="round" stroke-linejoin="round" stroke-width="1.245"/>
            <path id="Trazado_207907" data-name="Trazado 207907" d="M7.537,85.558s-3.474-35.32,30.57-44.074c0,0-38.757,6.012-31.22,46Z" transform="translate(-5.793 -38.883)" fill="#fff"/>
          </g>
        </g>
        <g id="Grupo_165004" data-name="Grupo 165004">
          <g id="Grupo_165003" data-name="Grupo 165003" clip-path="url(#clip-path)">
            <path id="Trazado_207909" data-name="Trazado 207909" d="M145.033,251.073,97.253,275.01l-4.585,2.3L46.684,300.345a93.191,93.191,0,0,1,8.372-32.122c.39-.828.781-1.64,1.187-2.429a83.851,83.851,0,0,1,8.646-13.6c.718-.906,1.421-1.781,2.14-2.617,8.622-10.145,16.682-14.542,16.682-14.542V205.495l32.45-17.541.071,3.421.078,3.444.047,2.015.468,22.383c12.652-1.319,19.626,4.944,23.477,12.262.406.773.773,1.555,1.1,2.335a43.187,43.187,0,0,1,2.531,8.059c.188.89.336,1.742.469,2.539a46.152,46.152,0,0,1,.632,6.662" transform="translate(-12.678 -51.041)" fill="#763c2f"/>
            <path id="Trazado_207910" data-name="Trazado 207910" d="M130.155,196.832,97.511,223.97V205.494l32.453-17.542Z" transform="translate(-26.48 -51.041)" fill="#662e25"/>
            <g id="Grupo_164993" data-name="Grupo 164993" transform="translate(42.378 198.544)" opacity="0.2" style="mix-blend-mode: multiply;isolation: isolate">
              <g id="Grupo_164992" data-name="Grupo 164992">
                <g id="Grupo_164991" data-name="Grupo 164991" clip-path="url(#clip-path-7)">
                  <path id="Trazado_207911" data-name="Trazado 207911" d="M73.514,280.606A11.325,11.325,0,0,1,58.176,291.2c.39-.825.78-1.641,1.188-2.431a83.719,83.719,0,0,1,8.644-13.6c.716-.907,1.424-1.777,2.14-2.611a11.266,11.266,0,0,1,3.365,8.045" transform="translate(-58.176 -272.561)" fill="#582075"/>
                </g>
              </g>
            </g>
            <g id="Grupo_164996" data-name="Grupo 164996" transform="translate(43.566 201.156)" opacity="0.2" style="mix-blend-mode: multiply;isolation: isolate">
              <g id="Grupo_164995" data-name="Grupo 164995">
                <g id="Grupo_164994" data-name="Grupo 164994" clip-path="url(#clip-path-8)">
                  <path id="Trazado_207912" data-name="Trazado 207912" d="M69.875,280.963a8.861,8.861,0,0,1-8.853,8.861,8.983,8.983,0,0,1-1.215-.082,83.688,83.688,0,0,1,8.644-13.6,8.81,8.81,0,0,1,1.424,4.816" transform="translate(-59.807 -276.147)" fill="#582075"/>
                </g>
              </g>
            </g>
            <path id="Trazado_207913" data-name="Trazado 207913" d="M142.964,249.344c-.281.758-9.341,24.851-28.569,42.338l-4.584,2.3c3.054-2.835,21.813-20.8,33.153-44.634" transform="translate(-29.82 -67.712)" fill="#4c1f1a"/>
            <path id="Trazado_207914" data-name="Trazado 207914" d="M138.059,268.062s7.518.08,11.517-1.36c0,0-4.239,2.56-11.517,1.36" transform="translate(-37.492 -72.426)" fill="#4c1f1a"/>
            <path id="Trazado_207915" data-name="Trazado 207915" d="M128.279,280.472s8.409.09,12.882-1.521c0,0-4.741,2.863-12.882,1.521" transform="translate(-34.836 -75.752)" fill="#4c1f1a"/>
            <path id="Trazado_207916" data-name="Trazado 207916" d="M115.654,292.481s12.007.128,18.394-2.171c0,0-6.77,4.087-18.394,2.171" transform="translate(-31.407 -78.837)" fill="#4c1f1a"/>
            <g id="Grupo_164999" data-name="Grupo 164999" transform="translate(123.974 180.44)" opacity="0.2" style="mix-blend-mode: multiply;isolation: isolate">
              <g id="Grupo_164998" data-name="Grupo 164998">
                <g id="Grupo_164997" data-name="Grupo 164997" clip-path="url(#clip-path-9)">
                  <path id="Trazado_207917" data-name="Trazado 207917" d="M177.936,260.641a6.457,6.457,0,0,1-.844.055,6.9,6.9,0,0,1-3.256-12.989c.408.771.78,1.551,1.106,2.331a43.608,43.608,0,0,1,2.531,8.064c.181.889.336,1.742.463,2.539" transform="translate(-170.191 -247.707)" fill="#582075"/>
                </g>
              </g>
            </g>
            <g id="Grupo_165002" data-name="Grupo 165002" transform="translate(126.549 182.771)" opacity="0.2" style="mix-blend-mode: multiply;isolation: isolate">
              <g id="Grupo_165001" data-name="Grupo 165001">
                <g id="Grupo_165000" data-name="Grupo 165000" clip-path="url(#clip-path-10)">
                  <path id="Trazado_207918" data-name="Trazado 207918" d="M178.434,258.971c-.127.009-.254.018-.381.018a4.327,4.327,0,0,1-2.15-8.082,43.61,43.61,0,0,1,2.531,8.064" transform="translate(-173.727 -250.907)" fill="#582075"/>
                </g>
              </g>
            </g>
            <path id="Trazado_207919" data-name="Trazado 207919" d="M130.612,140.529c-4.045,20.789-30.621,22.839-30.621,22.839l-7.156,5.079-.517.372L59.946,191.795l-1.378.979-1.034.735a21.666,21.666,0,0,1-2.812,1.705c-.118.063-.245.118-.372.181A22.2,22.2,0,0,1,29.525,191.3L12.137,174.842c-14.884-14.884-13.207-30.9-9.869-40.825a37.631,37.631,0,0,0,1.406-18.331C1.661,103.75,8.056,91.849,8.056,91.849c39.846-23.129,89.4,6.023,89.4,6.023-4.58,9.578-1.823,15.093.127,17.46a19.173,19.173,0,0,1,3.446,5.969c2.767,8.118-.027,13.151-.834,14.376,3.936-5.388,7.955-8.507,11.728-10.213,10-4.5,20.771,4.3,18.684,15.066" transform="translate(0 -22.52)" fill="#763c2f"/>
            <path id="Trazado_207920" data-name="Trazado 207920" d="M150.756,172.115a.031.031,0,0,1-.018.009,44.962,44.962,0,0,1-11.066,2.377v-8.454s3.855-6.231,8.726-9.524c2.267-1.552,4.752-2.449,7.165-1.787a6.486,6.486,0,0,1,4.563,6.022c.172,3.311-1.161,8.263-9.37,11.356" transform="translate(-37.93 -41.961)" fill="#662e25"/>
            <path id="Trazado_207921" data-name="Trazado 207921" d="M150.756,172.785a.031.031,0,0,1-.018.009,44.962,44.962,0,0,1-11.066,2.377v-8.454a39.148,39.148,0,0,1,7.273-8.436,5.538,5.538,0,0,1,4.9-1.125l.034.009a6.5,6.5,0,0,1,4.572,6.023c.135,2.74-.744,6.594-5.7,9.6" transform="translate(-37.93 -42.63)" fill="#4c1f1a"/>
            <path id="Trazado_207922" data-name="Trazado 207922" d="M29.467,172.522a6.8,6.8,0,1,1-6.8-6.8,6.8,6.8,0,0,1,6.8,6.8" transform="translate(-4.307 -45.003)" fill="#8c473c"/>
            <path id="Trazado_207923" data-name="Trazado 207923" d="M26.887,171.79a4.179,4.179,0,1,1-4.179-4.179,4.179,4.179,0,0,1,4.179,4.179" transform="translate(-5.032 -45.517)" fill="#9e5149"/>
            <path id="Trazado_207924" data-name="Trazado 207924" d="M19.726,162.809s-10.5,9.489,0,15.726a7.328,7.328,0,0,1-5.406-11.681,12.1,12.1,0,0,1,5.406-4.045" transform="translate(-3.507 -44.213)" fill="#3f2927"/>
            <path id="Trazado_207925" data-name="Trazado 207925" d="M41.817,206.163a58.306,58.306,0,0,0-16.05-.133l-.758-1.436c10.636-1.539,16.808,1.569,16.808,1.569" transform="translate(-6.791 -55.444)" fill="#3f2927"/>
            <path id="Trazado_207926" data-name="Trazado 207926" d="M102.375,135.676a26.038,26.038,0,0,0,.254-9.678,14.36,14.36,0,0,0-4.563-7.936c-8.018-7.42-3.628-18.684-3.628-18.684-54.1-26.123-85.8-2.758-86.431-2.286a40.632,40.632,0,0,1,2.222-5.243c39.846-23.129,89.406,6.023,89.406,6.023-4.58,9.578-1.823,15.092.127,17.46a19.194,19.194,0,0,1,3.447,5.968c2.766,8.118-.028,13.152-.835,14.376" transform="translate(-2.175 -22.52)" fill="#662e25"/>
            <path id="Trazado_207927" data-name="Trazado 207927" d="M69.189,118.594s14.966-5.345,33.916,8.649c0,0-9.325-16.363-29.565-14.353a4.843,4.843,0,0,0-4.368,5.619c.005.028.011.056.017.085" transform="translate(-18.762 -30.61)" fill="#da9588"/>
            <path id="Trazado_207928" data-name="Trazado 207928" d="M13.415,122.02A20.7,20.7,0,0,0,4.774,125.3a6.833,6.833,0,0,1-.3-3.542s5.067-3.607,8.941.267" transform="translate(-1.18 -32.649)" fill="#da9588"/>
            <path id="Trazado_207929" data-name="Trazado 207929" d="M14.076,140.076a16.841,16.841,0,0,0-8.742-5.108s-.025,5.958-.685,8.529c0,0,6.421,1.12,9.427-3.421" transform="translate(-1.262 -36.652)" fill="#fff"/>
          </g>
        </g>
        <g id="Grupo_165006" data-name="Grupo 165006" transform="translate(3.387 98.317)">
          <g id="Grupo_165005" data-name="Grupo 165005" clip-path="url(#clip-path-11)">
            <path id="Trazado_207930" data-name="Trazado 207930" d="M16.8,139.384a6.192,6.192,0,1,1-6.192-6.192,6.192,6.192,0,0,1,6.192,6.192" transform="translate(-4.585 -134.486)" fill="#816e68"/>
            <path id="Trazado_207931" data-name="Trazado 207931" d="M16.452,139.608a4.289,4.289,0,1,1-4.289-4.289,4.289,4.289,0,0,1,4.289,4.289" transform="translate(-5.525 -135.064)" fill="#604244"/>
            <path id="Trazado_207932" data-name="Trazado 207932" d="M9.526,138.584A1.781,1.781,0,1,1,7.745,136.8a1.781,1.781,0,0,1,1.781,1.781" transform="translate(-5.006 -135.467)" fill="#fff"/>
            <path id="Trazado_207933" data-name="Trazado 207933" d="M17.9,146.169a1.185,1.185,0,1,1-1.185-1.185,1.185,1.185,0,0,1,1.185,1.185" transform="translate(-7.605 -137.689)" fill="#fff"/>
          </g>
        </g>
        <g id="Grupo_165008" data-name="Grupo 165008">
          <g id="Grupo_165007" data-name="Grupo 165007" clip-path="url(#clip-path)">
            <path id="Trazado_207935" data-name="Trazado 207935" d="M13.787,139.276s-1.113-5.479-8.736-7.07l-1.463-.182a2.51,2.51,0,0,0,1.458,2.145s4.328.3,8.742,5.108" transform="translate(-0.974 -35.853)" fill="#3f2927"/>
            <path id="Trazado_207936" data-name="Trazado 207936" d="M63.022,141.383a34.178,34.178,0,0,1,8.5,4.592s14.387,11.961,27.359.514A17.887,17.887,0,0,0,91.6,134.916a19.273,19.273,0,0,0-21.1-.857,21.779,21.779,0,0,0-7.476,7.324" transform="translate(-17.114 -35.663)" fill="#fff"/>
            <path id="Trazado_207937" data-name="Trazado 207937" d="M71.437,147.45a34.383,34.383,0,0,0-8.417-4.517,21.651,21.651,0,0,1,5.351-5.9c-3.017,6.334,2.386,9.832,3.066,10.413" transform="translate(-17.114 -37.214)" fill="#c6a7a5"/>
          </g>
        </g>
        <g id="Grupo_165010" data-name="Grupo 165010" transform="translate(45.908 95.663)">
          <g id="Grupo_165009" data-name="Grupo 165009" clip-path="url(#clip-path-13)">
            <path id="Trazado_207938" data-name="Trazado 207938" d="M103.853,143.447A11.263,11.263,0,1,1,92.59,132.184a11.263,11.263,0,0,1,11.263,11.263" transform="translate(-67.993 -131.559)" fill="#816e68"/>
            <path id="Trazado_207939" data-name="Trazado 207939" d="M103.221,143.854a7.8,7.8,0,1,1-7.8-7.8,7.8,7.8,0,0,1,7.8,7.8" transform="translate(-69.702 -132.609)" fill="#604244"/>
            <path id="Trazado_207940" data-name="Trazado 207940" d="M90.623,141.991a3.24,3.24,0,1,1-3.239-3.239,3.239,3.239,0,0,1,3.239,3.239" transform="translate(-68.759 -133.343)" fill="#fff"/>
            <path id="Trazado_207941" data-name="Trazado 207941" d="M104.428,153.46a2.155,2.155,0,1,1-2.155-2.155,2.156,2.156,0,0,1,2.155,2.155" transform="translate(-73.097 -136.752)" fill="#fff"/>
          </g>
        </g>
        <g id="Grupo_165015" data-name="Grupo 165015">
          <g id="Grupo_165014" data-name="Grupo 165014" clip-path="url(#clip-path)">
            <g id="Grupo_165013" data-name="Grupo 165013" transform="translate(46.178 96.49)" opacity="0.2" style="mix-blend-mode: multiply;isolation: isolate">
              <g id="Grupo_165012" data-name="Grupo 165012">
                <g id="Grupo_165011" data-name="Grupo 165011" clip-path="url(#clip-path-15)">
                  <path id="Trazado_207943" data-name="Trazado 207943" d="M98.984,146.8a19.753,19.753,0,0,1-2.4,1.705c-2.739-9.7-12.88-15.084-22.657-12.644a27.054,27.054,0,0,0-10.53,5.442,23.291,23.291,0,0,1,10.83-7.809c10.2-3.411,21.514,1.9,24.489,12.254.1.335.191.689.272,1.052" transform="translate(-63.393 -132.462)" fill="#604244"/>
                </g>
              </g>
            </g>
            <path id="Trazado_207944" data-name="Trazado 207944" d="M63.022,140.519a18.648,18.648,0,0,1,13.453-11.811,23.094,23.094,0,0,1,17.15,2.887,27.363,27.363,0,0,1,10.724,12.131,10.87,10.87,0,0,1-5.467,1.895s-10.836-25.267-35.86-5.1" transform="translate(-17.114 -34.799)" fill="#3f2927"/>
            <path id="Trazado_207945" data-name="Trazado 207945" d="M113.873,155.941c0,2.488-2.692,4.5-6.013,4.5s-6.013-2.016-6.013-4.5,2.692-4.5,6.013-4.5,6.013,2.016,6.013,4.5" transform="translate(-27.658 -41.124)" fill="#e2c3bf"/>
            <path id="Trazado_207946" data-name="Trazado 207946" d="M113.118,155.4c0,1.726-2.009,3.125-4.486,3.125s-4.487-1.4-4.487-3.125,2.009-3.125,4.487-3.125,4.486,1.4,4.486,3.125" transform="translate(-28.282 -41.352)" fill="#fff"/>
            <path id="Trazado_207947" data-name="Trazado 207947" d="M113.338,188.2c-1.015,1.788-2.546,4.506-4.139,7.341L81.326,215.319l-1.187.844a13.765,13.765,0,0,1-1.882-4.381,108.136,108.136,0,0,0-4.343-11.941,4.126,4.126,0,0,1,.329-4.132c.039-.055.07-.1.109-.156a4.143,4.143,0,0,1,7.005.64,37.71,37.71,0,0,1,2.655,6.107c-.2-1.219-2.359-14.527-3.373-21.985A3.856,3.856,0,0,1,83.575,176a.443.443,0,0,0,.1-.016,3.835,3.835,0,0,1,4.444,3c.976,4.484,2.9,13.676,3.373,18.526,0,0,1.453-13.41,3.108-20.782.484-2.187,2.062-4,4.264-3.616.039.008.079.008.117.015a3.593,3.593,0,0,1,3.007,3.663c-.554,6.8-2.008,16.635-3.2,23.078,0,0,4.663-9.832,8.255-15.463a3.733,3.733,0,0,1,4.779-1.375c.023.016.055.023.078.039a3.709,3.709,0,0,1,1.437,5.123" transform="translate(-19.962 -46.997)" fill="#4c1f1a"/>
            <path id="Trazado_207948" data-name="Trazado 207948" d="M50.169,81.8a9.163,9.163,0,0,0-2.976-2.1,10.5,10.5,0,0,0-13.634,4.974c-3.456,6.825-6.99,19.756,10.487,26.837,0,0-14.723-12.381-4.665-25.5,0,0,3.35-4.435,10.787-4.207" transform="translate(-8.343 -21.393)" fill="#da9588"/>
            <path id="Trazado_207949" data-name="Trazado 207949" d="M50.167,81.8c-.471-.018-.935-.009-1.369.009a7.467,7.467,0,0,0-.844-.444A9.971,9.971,0,0,0,35.01,86.088c-3.175,6.258-6.412,17.931,8.327,24.771.436.417.707.644.707.644C26.566,104.428,30.1,91.494,33.559,84.664a10.5,10.5,0,0,1,13.633-4.971,9.131,9.131,0,0,1,2.975,2.1" transform="translate(-8.343 -21.393)" fill="#fff"/>
          </g>
        </g>
      </g>
    </g>
    <g id="Grupo_164982" data-name="Grupo 164982" transform="translate(810 9605.104)">
      <g id="Grupo_164981" data-name="Grupo 164981" clip-path="url(#clip-path-16)">
        <path id="Trazado_207864" data-name="Trazado 207864" d="M442.841,191.3,419.6,195.637A61.246,61.246,0,0,0,408.433,177.6s-22.986-1.954-33.359-5.7c-1.662-.6-3.349-1.173-5.134-1.631l-.295-.082c-3.237-.83-2.706-3.557.791-3.9.013,0,.023,0,.035-.006a12.917,12.917,0,0,1,4.651.434,122.945,122.945,0,0,0,13.145,2.879s5.537-5.507-12.5-13.806c0,0-9.685-4.249-14.3-6.318-2.065-.928-2.282-2.745-.246-3.693a7.257,7.257,0,0,1,.951-.351,7.024,7.024,0,0,1,4.415.278c3.7,1.582,16,6.711,21.662,10.374a37.551,37.551,0,0,0-16.4-15.846,2.574,2.574,0,0,1-1.127-1,.4.4,0,0,0-.042-.084c-.986-2.021,3.263-3.558,6.134-2.225,4.06,1.893,13.636,7.533,19.79,14.5,0,0-.137-6.776-8.443-13.808-1.827-1.552.9-3.548,4.016-2.92l.265.06a3.839,3.839,0,0,1,1.579.7c2.092,1.718,12.713,10.611,16.185,17.216,0,0-2.627-7.971-4.619-11.527-.535-.946.809-1.9,2.567-1.826l.318.015c2.9.181,5.311,1.341,6.326,2.882,2.338,3.558,9.59,15.105,12.059,25.844,0,0,7.759,7.08,15.984,23.233" transform="translate(3.598 -58.083)" fill="#c3564d"/>
        <path id="Trazado_207865" data-name="Trazado 207865" d="M145.362,280.182a2.447,2.447,0,0,1-.232.142,51.235,51.235,0,0,0-5.108,2.995,90.441,90.441,0,0,1-29.028,15.049c-1.121,10.334,1.606,20.577,6.787,30.41L93.7,335.5l-2.717.756c-10.666-25.886-4.5-42.824-4.5-42.824-8.466-11.913-6.151-24.654-6.464-28.593-.131-1.705.828-3.371,3.474-4.2.091-.028.192-.063.283-.085,1.646-.472,3.606.131,3.788,1.16.636,3.86,3.808,13.184,3.808,13.184-1.424-7.117,1.811-20.076,2.6-22.2a2.1,2.1,0,0,1,1-1.034c.071-.04.141-.08.212-.114,2.535-1.307,6.4-.039,5.939,1.881-3.03,12.5,2.391,17.177,2.391,17.177.869-8.083,6.024-17.272,8.559-20.006,1.778-1.938,6.959-1.427,7.464.733.01.028.01.057.02.085a1.483,1.483,0,0,1-.354,1.216c-7.05,8.5-4.357,20.517-4.357,20.517a112.405,112.405,0,0,1,12.227-15.938,5.622,5.622,0,0,1,4.02-1.268,9.879,9.879,0,0,1,1.172.119c2.636.443,3.727,2.234,2.414,3.592a121.586,121.586,0,0,0-8.086,10.374c-11.3,12.062-3.324,15.248-3.324,15.248,4.949-2.24,12.6-6.036,14.351-7.184a9.986,9.986,0,0,1,4.141-1.472h.03c3.606-.466,6.08,2.024,3.575,3.558" transform="translate(0.799 -107.636)" fill="#c3564d"/>
        <path id="Trazado_207866" data-name="Trazado 207866" d="M450.993,126.081c3.888-46.206-8.575-74.383-8.575-74.383-14.4,1.341-29.775-12.033-29.775-12.033-2.04,1.143-6.363,1.705-8.575,1.927a4.051,4.051,0,0,0-2.171.8c-1.8,1.523-4.131,3.615-5.434,4.809a6.535,6.535,0,0,1-3.353,1.461,20.023,20.023,0,0,1-5.626.006c-2.485-.335-3.525-2.012-2.05-3.183,3.4-2.7,7.312-6.025,9.464-7.873a16.409,16.409,0,0,1,5.121-2.853c1.98-.711,3.949-1.33,3.949-1.33-1.667.171-4.272.244-6.515.279a18.586,18.586,0,0,0-7.535,1.614c-2.565,1.205-5.474,2.41-7.444,3.2a20.368,20.368,0,0,1-7.848,1.415c-.374-.006-.737-.023-1.081-.045-4.949-.335-6.454-3.979-2.3-5.531,4.565-1.7,8.868-3.507,12.231-4.991a45.915,45.915,0,0,1,15.877-3.53c2.1-.108,3.676-.2,3.676-.2a42.132,42.132,0,0,1-5.484-2.882,22.17,22.17,0,0,0-10.151-2.882c-4.616-.267-9.565-.722-12.807-1.052-5.424-.546-9.353-3.342-8.716-6.423.01-.034.02-.068.03-.1.323-1.393,2.778-2.291,5.191-1.938,4.959.728,10.908,1.41,15.928,1.938a56.5,56.5,0,0,1,18.847,5.156c.7.347,1.151.568,1.151.568-.525-.506-1.192-1.251-1.868-2.024a18.032,18.032,0,0,0-8.171-4.911c-2.778-.892-5.565-1.847-7.787-2.637-4.191-1.478-6.434-4.292-5.272-6.991a.327.327,0,0,0,.04-.085c.586-1.279,3.3-1.8,5.191-1.012C393.6,2.212,400.443,5.043,405.675,7.2a42.342,42.342,0,0,1,10.979,6.383c5.434,4.508,13.878,10.271,13.878,10.271,21.675,5.036,22.513,15.575,22.513,15.575,23.089,25.1,33.552,51.583,37.279,75.667Z" transform="translate(3.658 0)" fill="#c3564d"/>
        <path id="Trazado_207867" data-name="Trazado 207867" d="M125.833,88.817c-.354.068-.727.125-1.121.176a23.965,23.965,0,0,1-8.8-.58c-2.363-.6-5.868-1.535-9.019-2.507a22.315,22.315,0,0,0-8.535-.824c-2.374.227-5.141.455-6.959.466,0,0,2.3.426,4.656.944A23.025,23.025,0,0,1,102.5,88.9c2.939,1.694,8.282,4.741,12.857,7.19,1.99,1.069,1.5,2.956-.99,3.592a20.538,20.538,0,0,1-5.929.648,8.637,8.637,0,0,1-4.06-1.148c-1.818-1.1-5.05-3.035-7.5-4.434A5.266,5.266,0,0,0,94.3,94.16c-2.4.028-7.171-.063-9.736-1.029,0,0-8.908,12.3-24.785,16.143,0,0-25.523,45.729,8.878,145.451L28.863,265.843C21.834,227.521,9.158,135.034,41.912,97.582c0,0-2.99-11.2,17.988-19.03,0,0,6.777-7.054,10.837-12.437a33.108,33.108,0,0,1,9.231-8c4.717-2.876,10.888-6.656,14.9-9.117,1.7-1.04,4.747-.813,5.838.46a.526.526,0,0,0,.071.085c2.222,2.717.889,5.94-2.98,7.986-2.06,1.086-4.636,2.421-7.242,3.683-3.313,1.6-5.666,3.746-6.8,6.127-.424.892-.858,1.751-1.222,2.342,0,0,.394-.279,1-.728a48.913,48.913,0,0,1,17.958-7.622c5.1-1.148,11.12-2.558,16.079-3.9,2.414-.654,5.323.006,6.181,1.432l.061.1c1.808,3.172-1.3,6.577-6.817,7.782-3.3.722-8.343,1.785-13.11,2.6a19.011,19.011,0,0,0-9.635,4.212,33.39,33.39,0,0,1-4.717,3.678s1.7-.085,3.949-.216a54.889,54.889,0,0,1,18.018,1.87c4.091,1.165,9.282,2.569,14.726,3.831,4.939,1.148,4.686,5.167-.394,6.093" transform="translate(0.205 -20.862)" fill="#c3564d"/>
        <path id="Trazado_207868" data-name="Trazado 207868" d="M505,197.062V354.944H0V338.153l29.068-8.123,39.794-11.118,4.394-1.228,25.189-7.037,2.717-.756,24.078-6.724,302.889-84.625,23.715-6.628,2.808-.784,39.329-10.987Z" transform="translate(0 -85.049)" fill="#c3564d"/>
        <path id="Trazado_207869" data-name="Trazado 207869" d="M504.163,268.162V296.7l-7.05,1.972L194.224,383.294l-8.363,2.336H83.71l24.594-6.872,4.393-1.228,25.189-7.037,2.717-.756,24.078-6.724,302.889-84.625,23.715-6.628,2.808-.784Z" transform="translate(0.837 -115.735)" fill="#604244"/>
      </g>
    </g>
  </g>
</svg>
