<svg xmlns="http://www.w3.org/2000/svg" xmlns:xlink="http://www.w3.org/1999/xlink" width="601" height="431" viewBox="0 0 601 431">
  <defs>
    <clipPath id="clip-path">
      <rect id="Rectángulo_48830" data-name="Rectángulo 48830" width="524" height="431" transform="translate(-0.278 15.695)" fill="none"/>
    </clipPath>
    <clipPath id="clip-path-2">
      <rect id="Rectángulo_48829" data-name="Rectángulo 48829" width="524" height="525" transform="translate(0 0.04)" fill="none"/>
    </clipPath>
    <clipPath id="clip-path-3">
      <rect id="Rectángulo_48817" data-name="Rectángulo 48817" width="35.814" height="32.211" fill="none"/>
    </clipPath>
    <clipPath id="clip-path-4">
      <rect id="Rectángulo_48818" data-name="Rectángulo 48818" width="21.052" height="17.275" fill="none"/>
    </clipPath>
    <clipPath id="clip-path-5">
      <rect id="Rectángulo_48819" data-name="Rectángulo 48819" width="22.37" height="18.984" fill="none"/>
    </clipPath>
    <clipPath id="clip-path-6">
      <rect id="Rectángulo_48820" data-name="Rectángulo 48820" width="35.813" height="32.21" fill="none"/>
    </clipPath>
    <clipPath id="clip-path-7">
      <rect id="Rectángulo_48821" data-name="Rectángulo 48821" width="21.052" height="17.274" fill="none"/>
    </clipPath>
    <clipPath id="clip-path-8">
      <rect id="Rectángulo_48822" data-name="Rectángulo 48822" width="22.371" height="18.984" fill="none"/>
    </clipPath>
    <clipPath id="clip-path-9">
      <rect id="Rectángulo_48823" data-name="Rectángulo 48823" width="35.814" height="32.21" fill="none"/>
    </clipPath>
  </defs>
  <g id="Grupo_172411" data-name="Grupo 172411" transform="translate(-180 -8880)">
    <rect id="Rectángulo_48815" data-name="Rectángulo 48815" width="601" height="431" transform="translate(180 8880)" fill="#fcf8ff"/>
    <g id="Grupo_163462" data-name="Grupo 163462" transform="translate(208.278 8864.305)" clip-path="url(#clip-path)">
      <g id="Grupo_163461" data-name="Grupo 163461" transform="translate(-0.278 -1.345)">
        <g id="Grupo_163460" data-name="Grupo 163460" transform="translate(0 0)" clip-path="url(#clip-path-2)">
          <path id="Trazado_203364" data-name="Trazado 203364" d="M418.333,89.031c-7.177,6.248-9.232,16.63-8.9,26.152s2.588,18.956,2.185,28.475c-.885,20.808-14.728,39.47-32.262,50.649-10.2,6.505-21.862,11.046-30.407,19.623A43.636,43.636,0,0,0,336.4,245.271" transform="translate(16.671 4.879)" fill="none" stroke="#ede4ff" stroke-miterlimit="10" stroke-width="1"/>
          <path id="Trazado_203365" data-name="Trazado 203365" d="M467.37,62.55c-.949-2.183-2.027-3.16-4.381-2.835-7.906,1.089-18.672,7.143-25.838,11.914,4.39-3.5,8.779-7.085,12.178-11.554,5.088-6.688,8.688-10.608,7.116-13.564a3.307,3.307,0,0,0-4.464-1.16c-8.906,4.636-15.434,12.395-21.362,19.25,5.68-10.216,11.768-26.007,10.832-28.187-3.035-6.569-8.612-3.481-13.091,8.855-1.8,4.949-4.129,9.668-5.573,14.732q-.118-12.682-.239-25.364c-.027-2.9-.593-6.569-3.714-6.981a4.662,4.662,0,0,0-4.906,3.4,64.43,64.43,0,0,0-2.042,29.077q-3.289-13.67-6.576-27.341c-.468-1.944-1.209-4.223-3.668-4.182a3.83,3.83,0,0,0-3.576,3.1,72.875,72.875,0,0,0,16.057,61.514l.812.826c16.748-.306,29.306-10.435,42.019-20.205,2.983-2.292,12.107-7.413,10.417-11.3" transform="translate(19.592 1.751)" fill="#ede4ff"/>
          <path id="Trazado_203366" data-name="Trazado 203366" d="M477.628,135.459c.57-1.3.562-2.166-.531-3.068-3.668-3.03-10.66-5.31-15.639-6.529a40.324,40.324,0,0,0,9.966.68c4.976-.468,8.143-.472,8.8-2.355a1.977,1.977,0,0,0-1.295-2.428c-5.622-2.037-11.649-1.769-17.037-1.6,6.757-1.632,16.114-5.337,16.688-6.628,1.645-3.985-1.956-5.185-9.155-2.17-2.888,1.21-5.891,2.092-8.686,3.5l10.984-10.349c1.254-1.181,2.631-2.913,1.551-4.45a2.775,2.775,0,0,0-3.468-.779,38.223,38.223,0,0,0-13.528,10.846L465.565,96.2c.661-.991,1.357-2.236.346-3.3a2.276,2.276,0,0,0-2.8-.317,43.345,43.345,0,0,0-20.39,31.891l-.034.689c6.9,7.227,16.394,8.649,25.8,10.283,2.206.384,8.128,2.319,9.143.008" transform="translate(21.826 5.043)" fill="#ede4ff"/>
          <path id="Trazado_203367" data-name="Trazado 203367" d="M407.3,150.627a61.181,61.181,0,0,1,51.128-32" transform="translate(20.11 6.386)" fill="none" stroke="#ede4ff" stroke-miterlimit="10" stroke-width="1"/>
          <path id="Trazado_203368" data-name="Trazado 203368" d="M408.942,139.585a42.371,42.371,0,0,0-6.46-25.146,41.173,41.173,0,0,0-19.918-16.252c-4.275,7.939-2.186,18.062,2.918,25.316s13.756,14.39,23.46,16.081" transform="translate(18.798 5.345)" fill="#ede4ff"/>
          <path id="Trazado_203369" data-name="Trazado 203369" d="M397.45,172.489a42.111,42.111,0,0,0,25.582-4.09,41.2,41.2,0,0,0,18.009-18.353c-7.484-5.01-17.736-3.874-25.42.539s-15.583,12.38-18.171,21.9" transform="translate(19.632 7.819)" fill="#ede4ff"/>
          <path id="Trazado_203370" data-name="Trazado 203370" d="M436.514,242.416c-7.567-4.49-17.258-3.263-25.5-.191s-15.843,7.814-24.3,10.239c-18.48,5.3-38.865-1.427-53.775-13.586-8.676-7.076-16.06-16.008-26.065-21.02a40.142,40.142,0,0,0-31.11-1.884" transform="translate(13.731 11.228)" fill="none" stroke="#ede4ff" stroke-miterlimit="10" stroke-width="1"/>
          <path id="Trazado_203371" data-name="Trazado 203371" d="M470.269,279.682c1.635-1.472,2.175-2.706,1.2-4.682-3.263-6.637-11.71-14.34-17.981-19.251,4.343,2.841,8.769,5.654,13.674,7.339,7.344,2.523,11.827,4.544,13.956,2.3a3.074,3.074,0,0,0-.287-4.266c-6.662-6.481-15.362-9.958-23.1-13.171,10.606,2.014,26.211,2.757,27.846,1.3,4.866-4.589.533-8.593-11.577-8.931-4.859-.136-9.672-.808-14.528-.6l22.14-7.619c2.528-.87,5.579-2.441,5.03-5.307a4.315,4.315,0,0,0-4.414-3.322,59.226,59.226,0,0,0-26.057,6.7L478.2,216.393c1.566-.979,3.345-2.3,2.591-4.448a3.539,3.539,0,0,0-3.761-2.241A67.133,67.133,0,0,0,427.85,241.8l-.487.955c5.161,14.644,17.7,22.734,29.968,31.064,2.879,1.955,10.028,8.485,12.937,5.863" transform="translate(21.083 11.023)" fill="#ede4ff"/>
          <path id="Trazado_203372" data-name="Trazado 203372" d="M408.311,309.611c1.3.123,2.06-.139,2.531-1.363,1.582-4.111,1.536-10.93,1.149-15.666a37.586,37.586,0,0,0,2.316,8.967c1.863,4.241,2.791,7.025,4.632,7.053a1.827,1.827,0,0,0,1.748-1.849c.141-5.54-1.854-10.764-3.573-15.456,3.4,5.467,9.38,12.617,10.679,12.746,3.97.282,3.97-3.237-.775-8.689-1.9-2.187-3.552-4.572-5.605-6.618l12.271,6.641c1.4.758,3.32,1.462,4.349.063a2.578,2.578,0,0,0-.331-3.278,35.337,35.337,0,0,0-13.448-8.733l14.909,4.1c1.06.291,2.355.54,2.989-.659a2.116,2.116,0,0,0-.54-2.556,39.925,39.925,0,0,0-33.88-8.623l-.614.172c-4.314,8.178-2.785,16.948-1.469,25.7.308,2.052.343,7.827,2.663,8.046" transform="translate(19.963 14.343)" fill="#ede4ff"/>
          <path id="Trazado_203373" data-name="Trazado 203373" d="M374.263,252.206a56.642,56.642,0,0,1,42.959,35.631" transform="translate(18.508 13.189)" fill="none" stroke="#ede4ff" stroke-miterlimit="10" stroke-width="1"/>
          <path id="Trazado_203374" data-name="Trazado 203374" d="M384.459,250.849a39.026,39.026,0,0,0,20.132-13.028A38.2,38.2,0,0,0,413,215.55c-8.2-1.442-16.454,3.354-21.316,9.962s-8.582,16.306-7.228,25.337" transform="translate(18.988 11.309)" fill="#ede4ff"/>
          <path id="Trazado_203375" data-name="Trazado 203375" d="M351.93,250.038a39.161,39.161,0,0,0,11.054,21.312,38.034,38.034,0,0,0,21.333,10.481c2.2-8.047-1.789-16.734-7.9-22.205s-15.392-10.092-24.489-9.588" transform="translate(17.425 13.077)" fill="#ede4ff"/>
          <path id="Trazado_203376" data-name="Trazado 203376" d="M74.3,116.576c2.948,9,11.655,14.894,20.493,18.261s18.337,4.927,26.89,8.968c18.695,8.833,30.43,28.749,33.9,49.171,2.018,11.885,1.678,24.351,6.229,35.51A43.3,43.3,0,0,0,185.644,252.1" transform="translate(3.962 6.282)" fill="none" stroke="#ede4ff" stroke-miterlimit="10" stroke-width="1"/>
          <path id="Trazado_203377" data-name="Trazado 203377" d="M70.187,60.278c-2.362.032-3.672.645-4.282,2.932-2.052,7.685-.663,19.914.939,28.339-1.506-5.382-3.1-10.8-5.875-15.645C56.812,68.65,54.614,63.831,51.3,64.136a3.3,3.3,0,0,0-2.783,3.655c.807,9.972,5.389,18.962,9.375,27.052C50.741,85.685,38.643,74,36.288,74.024c-7.18.257-6.5,6.573,3.054,15.444,3.834,3.56,7.252,7.52,11.328,10.8L27.376,90.712c-2.66-1.092-6.239-1.987-7.819.722a4.655,4.655,0,0,0,1.223,5.82,63.734,63.734,0,0,0,25.812,13.085l-27.546-4.495c-1.959-.319-4.328-.517-5.238,1.758a3.82,3.82,0,0,0,1.458,4.483,72.053,72.053,0,0,0,62.461,8.954l1.069-.428c6.175-15.51,1.75-30.955-2.288-46.406-.947-3.625-2.115-13.984-6.321-13.928" transform="translate(1.016 3.414)" fill="#ede4ff"/>
          <path id="Trazado_203378" data-name="Trazado 203378" d="M118.366,141.85a41.891,41.891,0,0,0-25.493-3.756A40.9,40.9,0,0,0,70.33,150.137c5.614,6.988,15.679,8.97,24.282,7.076s18.466-7.1,23.754-15.362" transform="translate(3.769 7.348)" fill="#ede4ff"/>
          <path id="Trazado_203379" data-name="Trazado 203379" d="M64.527,337.88c3.668,7.286,14.775,26.005,18.783,34.178S93.86,388.8,98.483,396.643c10.109,17.135,30.172,26.6,49.977,28.094,11.525.869,23.4-.576,34.455,2.788a41.594,41.594,0,0,1,24.678,20.737" transform="translate(3.488 17.553)" fill="none" stroke="#ede4ff" stroke-miterlimit="10" stroke-width="1"/>
          <path id="Trazado_203380" data-name="Trazado 203380" d="M18.59,321.125c.8-2.129,1.783-3.114,4.045-2.917,7.6.658,18.166,5.918,25.237,10.128-4.359-3.126-8.72-6.34-12.18-10.442-5.179-6.139-8.8-9.708-7.443-12.606a3.161,3.161,0,0,1,4.205-1.323c8.725,4,15.328,11.088,21.316,17.347-5.912-9.478-12.482-24.259-11.693-26.385,2.582-6.417,8.055-3.738,12.922,7.822,1.953,4.638,4.406,9.03,6.027,13.795q-.5-12.113-.989-24.224c-.113-2.766.252-6.3,3.21-6.844a4.456,4.456,0,0,1,4.846,3.012,61.582,61.582,0,0,1,3.345,27.658L76.4,289.729c.352-1.878.951-4.089,3.3-4.168a3.658,3.658,0,0,1,3.563,2.788,69.663,69.663,0,0,1-12.376,59.494l-.735.828c-16,.515-28.476-8.549-41.081-17.263-2.957-2.045-11.912-6.493-10.485-10.284" transform="translate(1.253 14.88)" fill="#ede4ff"/>
          <path id="Trazado_203381" data-name="Trazado 203381" d="M32.387,412.839c-.986-.928-1.3-1.694-.677-2.9,2.1-4.04,7.4-8.666,11.322-11.6a38.627,38.627,0,0,1-8.513,4.333c-4.553,1.453-7.338,2.637-8.619,1.226a1.893,1.893,0,0,1,.234-2.622c4.186-3.9,9.586-5.92,14.388-7.794-6.553,1.1-16.166,1.344-17.152.424-2.933-2.889-.213-5.295,7.244-5.34,2.991-.018,5.963-.367,8.948-.173l-13.522-4.986c-1.543-.57-3.4-1.577-3.024-3.334a2.657,2.657,0,0,1,2.761-1.985,36.453,36.453,0,0,1,15.945,4.472l-13.366-8.771c-.95-.623-2.027-1.458-1.534-2.771a2.178,2.178,0,0,1,2.343-1.328A41.325,41.325,0,0,1,59,390.1l.287.594c-3.372,8.941-11.195,13.751-18.857,18.713-1.8,1.163-6.284,5.087-8.039,3.433" transform="translate(1.436 19.172)" fill="#ede4ff"/>
          <path id="Trazado_203382" data-name="Trazado 203382" d="M100.864,399.494A58.383,58.383,0,0,0,43.953,390.5" transform="translate(2.49 20.042)" fill="none" stroke="#ede4ff" stroke-miterlimit="10" stroke-width="1"/>
          <path id="Trazado_203383" data-name="Trazado 203383" d="M97.616,396.565a40.5,40.5,0,0,1-5.873-24.11,39.476,39.476,0,0,1,9.471-22.7c7.175,4.757,9.97,14.232,8.934,22.652s-5.117,18.346-12.533,24.158" transform="translate(4.802 18.158)" fill="#ede4ff"/>
          <path id="Trazado_203384" data-name="Trazado 203384" d="M121.72,414.947a40.274,40.274,0,0,1-23.4,8.119,39.27,39.27,0,0,1-23.435-7.324c4.052-7.606,13.2-11.283,21.663-11.038s18.7,3.387,25.17,10.242" transform="translate(3.99 20.955)" fill="#ede4ff"/>
          <path id="Trazado_203385" data-name="Trazado 203385" d="M50.476,184.817s4.961-7.5,18.942-4.906a28.063,28.063,0,0,1,19.466,13.959l-3.833-21.483s-10.571-10.293-25.019-5.9-9.556,18.327-9.556,18.327" transform="translate(2.768 8.768)" fill="#b39dde"/>
          <path id="Trazado_203386" data-name="Trazado 203386" d="M21.01,242.78l11.131,12.786s21.648-14.08,30.181-20.865S89.243,210.825,92.2,201.374s.882-23.2-5.764-29.325a36.27,36.27,0,0,1-9.575,23.906C57.79,217.169,21.01,242.78,21.01,242.78" transform="translate(1.378 9.107)" fill="#e3d0ff"/>
          <path id="Trazado_203387" data-name="Trazado 203387" d="M65.245,205.39l6.882,18.593L51.682,240.071l-9.074-15.95Z" transform="translate(2.425 10.805)" fill="#b39dde"/>
          <path id="Trazado_203388" data-name="Trazado 203388" d="M87.465,259.245l-15.649,6.474s-12.1-22.452-16.724-32.337-14.5-33.224-12.948-43.007,8.649-20.729,18.2-23.676a36.288,36.288,0,0,0-2.058,25.676c7.644,27.513,29.181,66.871,29.181,66.871" transform="translate(2.394 8.834)" fill="#e3d0ff"/>
          <path id="Trazado_203389" data-name="Trazado 203389" d="M414.17,341.9s5.987-8.286,21.751-4.688a31.924,31.924,0,0,1,21.467,16.772l-3.355-24.589S442.5,317.2,425.881,321.52,414.17,341.9,414.17,341.9" transform="translate(20.41 16.672)" fill="#b39dde"/>
          <path id="Trazado_203390" data-name="Trazado 203390" d="M378.113,406.265l12.05,15.048s25.253-14.986,35.264-22.3,31.7-25.868,35.5-36.466,2.083-26.316-5.182-33.588a41.231,41.231,0,0,1-11.992,26.711c-22.662,23.211-65.644,50.59-65.644,50.59" transform="translate(18.694 17.099)" fill="#e3d0ff"/>
          <path id="Trazado_203391" data-name="Trazado 203391" d="M430,365.948l6.954,21.446-23.977,17.322-9.567-18.547Z" transform="translate(19.921 18.982)" fill="#b39dde"/>
          <path id="Trazado_203392" data-name="Trazado 203392" d="M452.756,428.187l-18.082,6.623s-12.7-26.076-17.5-37.522-14.927-38.427-12.709-49.47,10.792-23.146,21.779-26.049c0,0-7.483,12.213-3.534,29.077,7.4,31.617,30.041,77.342,30.041,77.342" transform="translate(19.957 16.732)" fill="#e3d0ff"/>
          <path id="Trazado_203393" data-name="Trazado 203393" d="M376.93,60.278C388.46,117.417,412.393,245.8,412.393,245.8" transform="translate(18.637 3.414)" fill="none" stroke="#004c5d" stroke-miterlimit="10" stroke-width="4"/>
          <path id="Trazado_203394" data-name="Trazado 203394" d="M389.295,33.383c-1.343-8.693-18.117-14.779-31.353-11.052-18.831,5.3-23.02,18.145-43.354,34.509-10.9,8.771-34.608,10.971-48.147,9.173-29.464-3.913-53.985-16.7-83.4-20.959-23.272-3.371-34.409,4.265-54.853,22.344C115.354,78.748,105.3,85.481,87.733,79.848l22.855,62.672c44.56.388,42-22.162,61.533-30.386,13.2-5.558,17.634-5.431,30.632-2.17,8.6,2.158,17.188,7.327,25.647,9.989,33.036,10.4,94.159,13.861,124.508-11.647,34.288-28.82,43.749-27.025,46-21.547Z" transform="translate(4.613 1.425)" fill="#e3d0ff"/>
          <path id="Trazado_203395" data-name="Trazado 203395" d="M275.343,362.737l72.951-30.809L386.128,220.9l34.36,8.52s-43.236,136.474-49.194,144.82-134.105,59.507-134.105,59.507Z" transform="translate(11.861 11.595)" fill="#b25b44"/>
          <path id="Trazado_203396" data-name="Trazado 203396" d="M405.668,247.855a29.9,29.9,0,0,0,15.394-4.759c7.711-4.956,15.922-9.17,15.865-18.05s-6.256-9.272-6.256-9.272,1.786-7.967-2.945-8.274c0,0,2.082-8.176-3.064-10.625,0,0,3.27-3.545-2.894-7.486s-10.6-1.52-10.6-1.52L377.91,226.775,392.721,258.1Z" transform="translate(18.684 9.875)" fill="#b25b44"/>
          <path id="Trazado_203397" data-name="Trazado 203397" d="M427.362,205.4a41.051,41.051,0,0,1-17.872,11.657c-1.611.522-3.419.932-4.949.207a5.543,5.543,0,0,1-2.705-4.488A4.464,4.464,0,0,1,402.8,209c1.006-.975,2.543-1.046,3.912-1.334a21.365,21.365,0,0,0,6.618-3.1c3.834-2.366,7.722-4.774,10.754-8.11" transform="translate(19.842 10.35)" fill="none" stroke="#004c5d" stroke-linecap="round" stroke-linejoin="round" stroke-width="1"/>
          <path id="Trazado_203398" data-name="Trazado 203398" d="M429.8,214.157a23.486,23.486,0,0,1-12.848,10.013,13.293,13.293,0,0,1-5.693.669,7.229,7.229,0,0,1-4.92-2.725,5.033,5.033,0,0,1-.387-5.446" transform="translate(20.014 11.251)" fill="none" stroke="#004c5d" stroke-linecap="round" stroke-linejoin="round" stroke-width="1"/>
          <path id="Trazado_203399" data-name="Trazado 203399" d="M430.649,225.074a41.212,41.212,0,0,1-10.946,6.535,7.84,7.84,0,0,1-4.753.735,5.017,5.017,0,0,1-3.28-2.976,7.058,7.058,0,0,1-.181-4.513" transform="translate(20.299 11.796)" fill="none" stroke="#004c5d" stroke-linecap="round" stroke-linejoin="round" stroke-width="1"/>
          <path id="Trazado_203400" data-name="Trazado 203400" d="M398.6,222.728c7.777-4.46,1.783-20.938,1.783-20.938l5.915-4.82a14.2,14.2,0,0,0,7.759,2.308c4.957.154,5.372-2.829,5.535-6.184s-17.459-7.895-17.459-7.895l-10.651,7.219a19.041,19.041,0,0,0-7.777,11.108L378.369,224.7" transform="translate(18.707 9.777)" fill="#b25b44"/>
          <path id="Trazado_203401" data-name="Trazado 203401" d="M398.673,222.728c7.777-4.46,1.784-20.938,1.784-20.938l5.914-4.82s1.31,1.844,6.266,2,7.413-2.5,7.916-5.818c.46-3.032-18.348-7.95-18.348-7.95l-10.789,7.312a18.6,18.6,0,0,0-7.6,10.853l-6.89,27.322" transform="translate(18.637 9.777)" fill="none" stroke="#004c5d" stroke-linecap="round" stroke-linejoin="round" stroke-width="1"/>
          <path id="Trazado_203402" data-name="Trazado 203402" d="M269.606,250.962,245.883,208.45l-13.7-135.426L196.35,65.746s-.237,143.212,3.365,152.82S235.2,301.981,235.2,301.981Z" transform="translate(9.88 3.693)" fill="#8e1fef"/>
          <path id="Trazado_203403" data-name="Trazado 203403" d="M196.661,68.148a30.056,30.056,0,0,1-5.821-15.056c-.9-9.137-2.7-18.207,4.288-23.668s11.137-.83,11.137-.83,5.128-6.344,8.3-2.814c0,0,5.108-6.708,10.218-4.18,0,0,.744-4.77,7.652-2.368s7.764,7.394,7.764,7.394l-6.661,49.545-36.873,8.511Z" transform="translate(9.57 1.289)" fill="#8e1fef"/>
          <path id="Trazado_203404" data-name="Trazado 203404" d="M213.449,25.653c-1.232,7.1.231,12.895,2.738,19.65.59,1.59,1.391,3.266,2.907,4.02a5.518,5.518,0,0,0,5.191-.657,4.453,4.453,0,0,0,2.357-3.1c.139-1.4-.759-2.648-1.382-3.9a21.474,21.474,0,0,1-1.68-7.125c-.526-4.481-1.052-9.033-.321-13.484" transform="translate(10.688 1.416)" fill="none" stroke="#004c5d" stroke-linecap="round" stroke-linejoin="round" stroke-width="1"/>
          <path id="Trazado_203405" data-name="Trazado 203405" d="M205.479,27.619a23.586,23.586,0,0,0,.13,16.313,13.367,13.367,0,0,0,3.006,4.892A7.229,7.229,0,0,0,213.8,51a5.012,5.012,0,0,0,4.5-3.073" transform="translate(10.255 1.751)" fill="none" stroke="#004c5d" stroke-linecap="round" stroke-linejoin="round" stroke-width="1"/>
          <path id="Trazado_203406" data-name="Trazado 203406" d="M196.191,33.536a41.421,41.421,0,0,0,1.673,12.66,7.878,7.878,0,0,0,2.373,4.193,5,5,0,0,0,4.363.732,7.036,7.036,0,0,0,3.645-2.655" transform="translate(9.872 2.052)" fill="none" stroke="#004c5d" stroke-linecap="round" stroke-linejoin="round" stroke-width="1"/>
          <path id="Trazado_203407" data-name="Trazado 203407" d="M219.348,57.835c-1.332-8.88,15.282-14.385,15.282-14.385l.1-7.641a14.213,14.213,0,0,1-6.618-4.669c-3.195-3.8-1.117-5.978,1.407-8.187s17.007,8.833,17.007,8.833l1.492,20.094L231.288,76.156" transform="translate(10.992 1.498)" fill="#8e1fef"/>
          <path id="Trazado_203408" data-name="Trazado 203408" d="M219.348,57.866c-1.332-8.88,15.282-14.385,15.282-14.385l.1-7.641s-2.255.115-5.45-3.688-2.641-7.378-.354-9.833c2.086-2.242,17.6,9.5,17.6,9.5l1.492,20.094L231.288,76.187" transform="translate(10.992 1.467)" fill="none" stroke="#004c5d" stroke-linecap="round" stroke-linejoin="round" stroke-width="1"/>
          <path id="Trazado_203409" data-name="Trazado 203409" d="M363.943,148.545l-35.288,9.594-4.9,136.031,41.919-3.8c2.973-9.822-1.731-141.828-1.731-141.828" transform="translate(16.058 7.91)" fill="#ce7ca2"/>
          <path id="Trazado_203410" data-name="Trazado 203410" d="M364.218,150.842a30.076,30.076,0,0,0,4.835-15.4c.308-9.177,1.511-18.345-5.814-23.339s-11.167-.1-11.167-.1-5.528-6-8.467-2.269c0,0-5.532-6.361-10.465-3.506,0,0-1.054-4.711-7.791-1.864s-7.267,7.883-7.267,7.883l9.855,49.008,37.346,6.1Z" transform="translate(15.783 5.613)" fill="#ce7ca2"/>
          <path id="Trazado_203411" data-name="Trazado 203411" d="M342.092,108.037a41.256,41.256,0,0,1-.577,21.365c-.485,1.625-1.176,3.349-2.641,4.2a5.516,5.516,0,0,1-5.221-.317,4.453,4.453,0,0,1-2.553-2.941c-.23-1.383.586-2.691,1.126-3.985a21.485,21.485,0,0,0,1.214-7.22c.235-4.505.465-9.082-.553-13.477" transform="translate(16.413 5.726)" fill="none" stroke="#004c5d" stroke-linecap="round" stroke-linejoin="round" stroke-width="1"/>
          <path id="Trazado_203412" data-name="Trazado 203412" d="M351.093,111.087a23.58,23.58,0,0,1,.927,16.286,13.365,13.365,0,0,1-2.683,5.077,7.23,7.23,0,0,1-5.032,2.512,5.011,5.011,0,0,1-4.692-2.773" transform="translate(16.827 6.002)" fill="none" stroke="#004c5d" stroke-linecap="round" stroke-linejoin="round" stroke-width="1"/>
          <path id="Trazado_203413" data-name="Trazado 203413" d="M360.663,116.394a41.4,41.4,0,0,1-.85,12.741,7.878,7.878,0,0,1-2.1,4.339,5,5,0,0,1-4.306,1.015,7.023,7.023,0,0,1-3.808-2.413" transform="translate(17.312 6.272)" fill="none" stroke="#004c5d" stroke-linecap="round" stroke-linejoin="round" stroke-width="1"/>
          <path id="Trazado_203414" data-name="Trazado 203414" d="M339.854,142.109c.754-8.949-16.181-13.36-16.181-13.36l-.6-7.618a14.217,14.217,0,0,0,6.3-5.091c2.941-4,.727-6.038-1.935-8.077s-16.4,9.921-16.4,9.921l-.188,20.148,18.271,23.136" transform="translate(15.433 5.831)" fill="#ce7ca2"/>
          <path id="Trazado_203415" data-name="Trazado 203415" d="M339.854,142.143c.754-8.949-16.181-13.36-16.181-13.36l-.6-7.618s2.257-.033,5.2-4.035,2.158-7.534-.282-9.836c-2.228-2.1-16.948,10.623-16.948,10.623l-.188,20.148L329.126,161.2" transform="translate(15.433 5.797)" fill="none" stroke="#004c5d" stroke-linecap="round" stroke-linejoin="round" stroke-width="1"/>
          <path id="Trazado_203416" data-name="Trazado 203416" d="M168.582,351.7l-13.6-46.764L171.956,169.88l-33.291-15.153s-32.3,139.507-30.938,149.679S124.792,395.6,124.792,395.6Z" transform="translate(5.581 8.225)" fill="#ffa865"/>
          <path id="Trazado_203417" data-name="Trazado 203417" d="M137.4,156.724a30.084,30.084,0,0,1-2.3-15.981c1.166-9.106,1.449-18.349,9.479-22.1s11.039,1.7,11.039,1.7,6.418-5.029,8.72-.875c0,0,6.481-5.388,10.892-1.775,0,0,1.8-4.48,7.988-.584s5.909,8.951,5.909,8.951L171.546,172.84H133.708Z" transform="translate(6.843 6.227)" fill="#ffa865"/>
          <path id="Trazado_203418" data-name="Trazado 203418" d="M164.145,117.968a41.239,41.239,0,0,0-2.856,21.18c.219,1.683.624,3.5,1.932,4.571a5.515,5.515,0,0,0,5.206.529,4.447,4.447,0,0,0,2.991-2.491c.448-1.328-.147-2.751-.474-4.114a21.48,21.48,0,0,1-.04-7.322c.49-4.485,1-9.039,2.706-13.213" transform="translate(8.164 6.309)" fill="none" stroke="#004c5d" stroke-linecap="round" stroke-linejoin="round" stroke-width="1"/>
          <path id="Trazado_203419" data-name="Trazado 203419" d="M154.8,119.608a23.581,23.581,0,0,0-3.526,15.926,13.37,13.37,0,0,0,1.835,5.443,7.236,7.236,0,0,0,4.563,3.289,5.006,5.006,0,0,0,5.076-1.982" transform="translate(7.684 6.436)" fill="none" stroke="#004c5d" stroke-linecap="round" stroke-linejoin="round" stroke-width="1"/>
          <path id="Trazado_203420" data-name="Trazado 203420" d="M144.367,123.3a41.436,41.436,0,0,0-1.2,12.713,7.882,7.882,0,0,0,1.374,4.62,5,5,0,0,0,4.087,1.7,7.014,7.014,0,0,0,4.146-1.769" transform="translate(7.297 6.624)" fill="none" stroke="#004c5d" stroke-linecap="round" stroke-linejoin="round" stroke-width="1"/>
          <path id="Trazado_203421" data-name="Trazado 203421" d="M161.8,152.06c.691-8.954,18.113-10.581,18.113-10.581l1.813-7.422a14.239,14.239,0,0,1-5.4-6.04c-2.261-4.424.252-6.076,3.205-7.661s14.594,12.434,14.594,12.434l-3.045,19.916L169.332,172.6" transform="translate(8.205 6.468)" fill="#ffa865"/>
          <path id="Trazado_203422" data-name="Trazado 203422" d="M161.8,152.1c.691-8.954,18.113-10.581,18.113-10.581l1.813-7.422s-2.224-.4-4.484-4.821-.922-7.783,1.856-9.661c2.535-1.715,15.024,13.214,15.024,13.214l-3.045,19.916-21.744,19.893" transform="translate(8.205 6.429)" fill="none" stroke="#004c5d" stroke-linecap="round" stroke-linejoin="round" stroke-width="1"/>
          <path id="Trazado_203423" data-name="Trazado 203423" d="M199.556,206.442v117.07a3.3,3.3,0,1,0,6.608,0V210.56Z" transform="translate(10.036 10.858)" fill="#004c5d"/>
          <path id="Trazado_203424" data-name="Trazado 203424" d="M209.064,206.442v117.07a3.3,3.3,0,1,0,6.608,0V210.56Z" transform="translate(10.497 10.858)" fill="#004c5d"/>
          <path id="Trazado_203425" data-name="Trazado 203425" d="M218.573,206.442v117.07a3.3,3.3,0,1,0,6.608,0V210.56Z" transform="translate(10.958 10.858)" fill="#004c5d"/>
          <path id="Trazado_203426" data-name="Trazado 203426" d="M228.082,206.442v117.07a3.3,3.3,0,1,0,6.608,0V210.56Z" transform="translate(11.419 10.858)" fill="#004c5d"/>
          <path id="Trazado_203427" data-name="Trazado 203427" d="M237.59,206.442v117.07a3.3,3.3,0,1,0,6.608,0V210.56Z" transform="translate(11.88 10.858)" fill="#004c5d"/>
          <path id="Trazado_203428" data-name="Trazado 203428" d="M247.1,206.442v117.07a3.3,3.3,0,1,0,6.608,0V210.56Z" transform="translate(12.341 10.858)" fill="#004c5d"/>
          <path id="Trazado_203429" data-name="Trazado 203429" d="M256.608,206.442v117.07a3.3,3.3,0,1,0,6.607,0V210.56Z" transform="translate(12.802 10.858)" fill="#004c5d"/>
          <path id="Trazado_203430" data-name="Trazado 203430" d="M266.116,206.442v117.07a3.3,3.3,0,1,0,6.608,0V210.56Z" transform="translate(13.263 10.858)" fill="#004c5d"/>
          <path id="Trazado_203431" data-name="Trazado 203431" d="M275.625,206.442v117.07a3.3,3.3,0,1,0,6.608,0V210.56Z" transform="translate(13.724 10.858)" fill="#004c5d"/>
          <path id="Trazado_203432" data-name="Trazado 203432" d="M217.439,223.182V329.066H266.8V211.883Z" transform="translate(10.903 11.136)" fill="#b25b44"/>
          <path id="Trazado_203433" data-name="Trazado 203433" d="M292.114,159.051c-.682,16.613.1,26.736-2.493,43.159-1.918,12.137-5.309,24.877-14.376,33.148-9.8,8.944-24.142,10.727-37.386,10.191-6.658-.269-13.508-1.079-19.315-4.35-5.837-3.287-10.137-8.817-13.237-14.763-5.11-9.8-7.3-20.931-7.71-31.984s-.116-29.348,1.476-40.292c0,0,8.258-34.341,44.972-33.018,45.932,1.656,48.069,37.909,48.069,37.909" transform="translate(9.933 6.512)" fill="#b25b44"/>
          <path id="Trazado_203434" data-name="Trazado 203434" d="M204.212,168.807c.462-.618,6.939-5.564,15.882-3.554s12.027,12.518,12.027,12.518-6.168,6.337-15.111,4.173-12.8-13.137-12.8-13.137" transform="translate(10.261 8.736)" fill="#fff"/>
          <path id="Trazado_203435" data-name="Trazado 203435" d="M244.574,189.053a.639.639,0,0,1-.537-.294l-1.961-3.06a.638.638,0,1,1,1.074-.69l1.961,3.061a.638.638,0,0,1-.537.984" transform="translate(12.093 9.752)" fill="#004c5d"/>
          <path id="Trazado_203436" data-name="Trazado 203436" d="M225.658,208.422c1.483-2.493,3.848-6.389,5.9-8.435a10.42,10.42,0,0,1,15.552-.4,34.746,34.746,0,0,1,5.444,6.862c.684,1.029,1.4,2.223,1.106,3.424a4.52,4.52,0,0,1-1.416,2.017c-1.744,1.7-3.585,3.464-5.918,4.163-2.429.729-5.037.2-7.51-.36-5.035-1.141-10.577-2.79-13.16-7.269" transform="translate(11.301 10.342)" fill="#004c5d"/>
          <path id="Trazado_203437" data-name="Trazado 203437" d="M200.98,188.587a5.969,5.969,0,0,0-5.895-4.433,8.016,8.016,0,0,0-6.5,4.045,12.472,12.472,0,0,0-1.426,7.74,13.887,13.887,0,0,0,4.972,9.457,9.926,9.926,0,0,0,10.308,1.262" transform="translate(9.43 9.723)" fill="#b25b44"/>
          <path id="Trazado_203438" data-name="Trazado 203438" d="M285.129,186.952a5.969,5.969,0,0,1,5.895-4.434,8.015,8.015,0,0,1,6.5,4.045,12.473,12.473,0,0,1,1.426,7.74,13.884,13.884,0,0,1-4.972,9.457,9.926,9.926,0,0,1-10.308,1.262" transform="translate(14.115 9.64)" fill="#b25b44"/>
          <path id="Trazado_203439" data-name="Trazado 203439" d="M226.732,173.756a8.439,8.439,0,1,1-8.439-8.458,8.449,8.449,0,0,1,8.439,8.458" transform="translate(10.535 8.763)" fill="#004c5d"/>
          <g id="Grupo_163426" data-name="Grupo 163426" transform="translate(216.199 159.171)" opacity="0.3">
            <g id="Grupo_163425" data-name="Grupo 163425">
              <g id="Grupo_163424" data-name="Grupo 163424" clip-path="url(#clip-path-3)">
                <path id="Trazado_203440" data-name="Trazado 203440" d="M240.861,160.727a14.222,14.222,0,0,0-8.151-7.841,29.38,29.38,0,0,0-11.418-1.752,64.485,64.485,0,0,0-9.709.833c-2.039.331-4.276.9-5.413,2.627l-.082,1.028a9.282,9.282,0,0,0,4.139,9.852c4.4,2.635,10.326,1.172,14.834,3.624a12.419,12.419,0,0,1,4.728,4.944,31.476,31.476,0,0,1,2.516,6.447,4.692,4.692,0,0,0,1.139,2.243,2.952,2.952,0,0,0,3.346.177,6.114,6.114,0,0,0,2.288-2.687c1.389-2.769,1.787-5.916,2.164-8.992.431-3.513.844-7.184-.381-10.5" transform="translate(-205.858 -151.13)" fill="#853d2e"/>
              </g>
            </g>
          </g>
          <path id="Trazado_203441" data-name="Trazado 203441" d="M235.58,191.835a.636.636,0,0,1-.556-.325c-2.4-4.264-1.228-6.229-.2-7.962.174-.293.348-.583.5-.884.4-.791.841-1.559,1.284-2.326a27.429,27.429,0,0,0,1.835-3.555c1.359-3.417,1.276-7.365,1.2-10.85-.049-2.359-.106-5.034-1.36-7.152-1.051-1.772-2.924-3.169-5.9-4.393a.639.639,0,0,1,.484-1.182c2.039.841,4.933,2.266,6.507,4.923,1.427,2.407,1.49,5.385,1.539,7.778.075,3.606.16,7.693-1.294,11.349a28.613,28.613,0,0,1-1.917,3.723c-.431.745-.863,1.491-1.248,2.258-.165.328-.353.645-.543.966-.937,1.573-1.823,3.06.211,6.678a.641.641,0,0,1-.242.871.634.634,0,0,1-.312.082" transform="translate(11.609 8.145)" fill="#004c5d"/>
          <path id="Trazado_203442" data-name="Trazado 203442" d="M231.418,178.983c-.034-.106-3.434-10.6-11.54-12.425-8.232-1.85-15.379,3.491-15.452,3.545l-1.546-2.032c.328-.25,8.141-6.123,17.555-4.005,9.551,2.145,13.26,13.662,13.413,14.151Z" transform="translate(10.197 8.677)" fill="#004c5d"/>
          <path id="Trazado_203443" data-name="Trazado 203443" d="M279.032,169c-.462-.618-6.939-5.564-15.882-3.554s-12.027,12.518-12.027,12.518,6.168,6.337,15.111,4.173S279.032,169,279.032,169" transform="translate(12.536 8.746)" fill="#fff"/>
          <path id="Trazado_203444" data-name="Trazado 203444" d="M256,173.944a8.438,8.438,0,1,0,8.438-8.458A8.448,8.448,0,0,0,256,173.944" transform="translate(12.773 8.773)" fill="#004c5d"/>
          <path id="Trazado_203445" data-name="Trazado 203445" d="M251.967,179.171l-2.432-.766c.153-.49,3.863-12.006,13.413-14.151,9.412-2.119,17.227,3.754,17.555,4.005l-1.544,2.033c-.071-.054-7.222-5.389-15.453-3.546-8.107,1.822-11.506,12.32-11.539,12.425" transform="translate(12.459 8.686)" fill="#004c5d"/>
          <g id="Grupo_163429" data-name="Grupo 163429" transform="translate(272.723 193.764)" opacity="0.3">
            <g id="Grupo_163428" data-name="Grupo 163428">
              <g id="Grupo_163427" data-name="Grupo 163427" clip-path="url(#clip-path-4)">
                <path id="Trazado_203446" data-name="Trazado 203446" d="M280.24,186.209c1.89,3.157-1.007,8.378-6.286,11.944s-11.2,4.282-13.407,1.337.4-8.6,6-12.377,11.815-4.048,13.7-.9" transform="translate(-259.768 -184.046)" fill="#853d2e"/>
              </g>
            </g>
          </g>
          <g id="Grupo_163432" data-name="Grupo 163432" transform="translate(212.224 194.682)" opacity="0.3">
            <g id="Grupo_163431" data-name="Grupo 163431">
              <g id="Grupo_163430" data-name="Grupo 163430" clip-path="url(#clip-path-5)">
                <path id="Trazado_203447" data-name="Trazado 203447" d="M223.893,201.95c-.961,1.56-3.1,2.2-5.8,1.867a21.352,21.352,0,0,1-15.241-11.45c-1.08-2.506-1.062-4.743.161-6.1,2.5-2.708,8.6-1.121,14.077,2.981,5.465,4.12,8.7,9.542,6.8,12.706" transform="translate(-202.067 -184.92)" fill="#853d2e"/>
              </g>
            </g>
          </g>
          <path id="Trazado_203448" data-name="Trazado 203448" d="M197.5,187.4c.01-.28,4.267-28.252,5.8-34.465s44.971-31.794,44.971-31.794-16.952-5.418-37.751,12S197.5,187.4,197.5,187.4" transform="translate(9.867 6.474)" fill="#004c5d"/>
          <path id="Trazado_203449" data-name="Trazado 203449" d="M289.933,187.4c-.01-.28-4.267-28.252-5.8-34.465s-44.971-31.794-44.971-31.794,16.952-5.418,37.751,12S289.933,187.4,289.933,187.4" transform="translate(11.956 6.474)" fill="#004c5d"/>
          <path id="Trazado_203450" data-name="Trazado 203450" d="M217.566,235.413s26.017,12.915,49.224-.72c0,0-11.655,18.835-22.993,18.143s-26.23-17.423-26.23-17.423" transform="translate(10.909 12.297)" fill="#004c5d"/>
          <path id="Trazado_203451" data-name="Trazado 203451" d="M275.52,154.133c-.412,1.811-2.2,3.076-4.446,4.062a44.425,44.425,0,0,1-16.444,2.945c-2.448-.145-4.561-.713-5.573-2.268-.991-1.513-.558-3.855,1.478-6.2a18.9,18.9,0,0,1,21.454-3.842c2.72,1.491,3.935,3.538,3.529,5.3" transform="translate(12.411 7.833)" fill="#004c5d"/>
          <path id="Trazado_203452" data-name="Trazado 203452" d="M235.638,157.731c-.967,1.584-3.062,2.214-5.5,2.431a44.44,44.44,0,0,1-16.523-2.458c-2.274-.92-4.1-2.132-4.562-3.929-.458-1.752.7-3.833,3.372-5.4a18.9,18.9,0,0,1,21.558,3.207c2.1,2.283,2.606,4.61,1.66,6.153" transform="translate(10.491 7.797)" fill="#004c5d"/>
          <path id="Trazado_203453" data-name="Trazado 203453" d="M194.373,229.111a14.3,14.3,0,0,1,0-28.594.639.639,0,0,1,0,1.278,13.019,13.019,0,1,0,10.279,20.98.638.638,0,1,1,1.009.782,14.172,14.172,0,0,1-11.288,5.554" transform="translate(9.093 10.557)" fill="#004c5d"/>
          <path id="Trazado_203454" data-name="Trazado 203454" d="M290.176,229.111a14.167,14.167,0,0,1-11.287-5.554.638.638,0,1,1,1.008-.782,13,13,0,1,0,10.279-20.98.639.639,0,0,1,0-1.278,14.3,14.3,0,0,1,0,28.594" transform="translate(13.876 10.557)" fill="#004c5d"/>
          <path id="Trazado_203455" data-name="Trazado 203455" d="M318.236,213.378c-4.754.167-9.346-2.5-12.176-6.336a23.234,23.234,0,0,1-4.107-13.459,31.512,31.512,0,0,1,13.232-26.022,29.554,29.554,0,0,1,28.88-2.464,28.086,28.086,0,0,1,15.776,24.177,26.658,26.658,0,0,1-15.2,24.338" transform="translate(15.001 8.617)" fill="#004c5d"/>
          <path id="Trazado_203456" data-name="Trazado 203456" d="M303.478,310.439V416.322h49.358V299.139Z" transform="translate(15.075 15.58)" fill="#ffa865"/>
          <path id="Trazado_203457" data-name="Trazado 203457" d="M378.154,245.549c-.683,16.613.1,26.736-2.494,43.159-1.917,12.137-5.309,24.877-14.376,33.148-9.8,8.945-24.141,10.727-37.385,10.191-6.659-.269-13.508-1.079-19.315-4.35-5.838-3.287-10.137-8.817-13.237-14.763-5.111-9.8-7.306-20.932-7.711-31.984s-.116-29.348,1.476-40.292c0,0,8.259-34.341,44.972-33.018,45.932,1.656,48.07,37.909,48.07,37.909" transform="translate(14.105 10.918)" fill="#ffa865"/>
          <path id="Trazado_203458" data-name="Trazado 203458" d="M330.613,275.552a.638.638,0,0,1-.537-.293l-1.961-3.061a.639.639,0,1,1,1.074-.691l1.961,3.061a.638.638,0,0,1-.537.985" transform="translate(16.265 14.157)" fill="#004c5d"/>
          <path id="Trazado_203459" data-name="Trazado 203459" d="M339.7,292.006c.294-.742-.421-1.479-1.106-2.114a27.442,27.442,0,0,0-5.443-4.237,16.03,16.03,0,0,0-7.909-2.028A15.379,15.379,0,0,0,317.6,285.9c-2.054,1.264-4.419,5.122-5.9,6.662Z" transform="translate(15.474 14.789)" fill="#004c5d"/>
          <path id="Trazado_203460" data-name="Trazado 203460" d="M287.019,275.085a5.969,5.969,0,0,0-5.895-4.434,8.015,8.015,0,0,0-6.5,4.045,12.473,12.473,0,0,0-1.426,7.74,13.884,13.884,0,0,0,4.972,9.457,9.926,9.926,0,0,0,10.308,1.262" transform="translate(13.602 14.129)" fill="#ffa865"/>
          <path id="Trazado_203461" data-name="Trazado 203461" d="M371.169,273.449a5.968,5.968,0,0,1,5.895-4.434,8.015,8.015,0,0,1,6.5,4.045,12.474,12.474,0,0,1,1.426,7.74,13.884,13.884,0,0,1-4.972,9.457,9.926,9.926,0,0,1-10.308,1.262" transform="translate(18.287 14.045)" fill="#ffa865"/>
          <g id="Grupo_163435" data-name="Grupo 163435" transform="translate(306.411 250.075)" opacity="0.3">
            <g id="Grupo_163434" data-name="Grupo 163434">
              <g id="Grupo_163433" data-name="Grupo 163433" clip-path="url(#clip-path-6)">
                <path id="Trazado_203462" data-name="Trazado 203462" d="M292.127,242.12a9.282,9.282,0,0,0,4.139,9.852c4.4,2.635,10.326,1.172,14.835,3.624a12.417,12.417,0,0,1,4.727,4.944,31.517,31.517,0,0,1,2.517,6.448,4.691,4.691,0,0,0,1.138,2.243,2.952,2.952,0,0,0,3.346.175,6.111,6.111,0,0,0,2.288-2.686c1.389-2.769,1.787-5.916,2.164-8.993.431-3.512.845-7.183-.381-10.5a14.22,14.22,0,0,0-8.15-7.841,29.369,29.369,0,0,0-11.419-1.752,64.487,64.487,0,0,0-9.709.833c-2.039.331-4.276.9-5.413,2.626" transform="translate(-291.898 -237.628)" fill="#853d2e"/>
              </g>
            </g>
          </g>
          <path id="Trazado_203463" data-name="Trazado 203463" d="M321.618,278.333a.64.64,0,0,1-.556-.326c-2.4-4.263-1.227-6.227-.194-7.961.174-.293.347-.583.5-.884.4-.793.842-1.563,1.288-2.333a27.256,27.256,0,0,0,1.832-3.548c1.359-3.417,1.276-7.365,1.2-10.85-.048-2.359-.1-5.033-1.36-7.153-1.051-1.771-2.924-3.166-5.9-4.393a.638.638,0,0,1,.485-1.18c2.039.841,4.933,2.266,6.506,4.92,1.428,2.41,1.49,5.386,1.54,7.778.074,3.606.16,7.693-1.294,11.351a28.951,28.951,0,0,1-1.912,3.716c-.432.747-.865,1.494-1.253,2.265-.164.329-.352.645-.542.965-.938,1.574-1.823,3.061.21,6.68a.639.639,0,0,1-.242.87.632.632,0,0,1-.312.082" transform="translate(15.781 12.55)" fill="#004c5d"/>
          <path id="Trazado_203464" data-name="Trazado 203464" d="M365.153,256.548c-.462-.538-6.939-4.845-15.882-3.1s-12.027,10.9-12.027,10.9a18.268,18.268,0,0,0,15.111,3.633c8.944-1.884,12.8-11.438,12.8-11.438" transform="translate(16.712 13.232)" fill="#fff"/>
          <path id="Trazado_203465" data-name="Trazado 203465" d="M342.042,261.244c0,4.181,3.778,7.57,8.438,7.57s8.438-3.389,8.438-7.57-3.778-7.57-8.438-7.57-8.438,3.389-8.438,7.57" transform="translate(16.945 13.264)" fill="#004c5d"/>
          <path id="Trazado_203466" data-name="Trazado 203466" d="M337.982,265.626l-2.385-.9c.155-.412,3.9-10.1,13.435-11.891,9.327-1.745,17.095,3.12,17.421,3.327l-1.367,2.158c-.072-.048-7.263-4.537-15.586-2.972-8.108,1.52-11.485,10.193-11.518,10.28" transform="translate(16.633 13.202)" fill="#004c5d"/>
          <path id="Trazado_203467" data-name="Trazado 203467" d="M290.169,256.325c.462-.538,6.939-4.845,15.882-3.095s12.027,10.9,12.027,10.9a18.268,18.268,0,0,1-15.111,3.633c-8.944-1.884-12.8-11.438-12.8-11.438" transform="translate(14.43 13.22)" fill="#fff"/>
          <path id="Trazado_203468" data-name="Trazado 203468" d="M312.771,261.022c0,4.181-3.778,7.57-8.438,7.57s-8.438-3.389-8.438-7.57,3.778-7.57,8.438-7.57,8.438,3.389,8.438,7.57" transform="translate(14.707 13.253)" fill="#004c5d"/>
          <path id="Trazado_203469" data-name="Trazado 203469" d="M317.477,265.4c-.033-.087-3.411-8.763-11.518-10.28-8.317-1.558-15.513,2.924-15.586,2.97l-1.367-2.156c.326-.207,8.093-5.07,17.421-3.327,9.539,1.788,13.28,11.479,13.435,11.891Z" transform="translate(14.373 13.191)" fill="#004c5d"/>
          <g id="Grupo_163438" data-name="Grupo 163438" transform="translate(362.936 284.667)" opacity="0.3">
            <g id="Grupo_163437" data-name="Grupo 163437">
              <g id="Grupo_163436" data-name="Grupo 163436" clip-path="url(#clip-path-7)">
                <path id="Trazado_203470" data-name="Trazado 203470" d="M366.28,272.707c1.89,3.157-1.007,8.378-6.286,11.944s-11.2,4.281-13.407,1.337.4-8.6,6-12.377,11.815-4.048,13.7-.9" transform="translate(-345.808 -270.544)" fill="#853d2e"/>
              </g>
            </g>
          </g>
          <g id="Grupo_163441" data-name="Grupo 163441" transform="translate(302.436 285.586)" opacity="0.3">
            <g id="Grupo_163440" data-name="Grupo 163440">
              <g id="Grupo_163439" data-name="Grupo 163439" clip-path="url(#clip-path-8)">
                <path id="Trazado_203471" data-name="Trazado 203471" d="M309.932,288.447c-.961,1.56-3.1,2.2-5.8,1.868a21.352,21.352,0,0,1-15.241-11.45c-1.08-2.507-1.062-4.744.161-6.106,2.5-2.707,8.6-1.12,14.077,2.983,5.465,4.12,8.7,9.542,6.8,12.706" transform="translate(-288.106 -271.418)" fill="#853d2e"/>
              </g>
            </g>
          </g>
          <path id="Trazado_203472" data-name="Trazado 203472" d="M283.538,273.9c.01-.28,4.267-28.251,5.8-34.465s44.971-31.794,44.971-31.794-16.952-5.418-37.751,12S283.538,273.9,283.538,273.9" transform="translate(14.039 10.879)" fill="#004c5d"/>
          <path id="Trazado_203473" data-name="Trazado 203473" d="M375.972,273.9c-.01-.28-4.267-28.251-5.8-34.465S325.2,207.641,325.2,207.641s16.952-5.418,37.751,12S375.972,273.9,375.972,273.9" transform="translate(16.128 10.879)" fill="#004c5d"/>
          <path id="Trazado_203474" data-name="Trazado 203474" d="M303.606,321.911s26.017,12.915,49.224-.72c0,0-11.655,18.835-22.993,18.143s-26.23-17.423-26.23-17.423" transform="translate(15.081 16.703)" fill="#004c5d"/>
          <path id="Trazado_203475" data-name="Trazado 203475" d="M361.56,240.631c-.412,1.811-2.2,3.076-4.445,4.062a44.436,44.436,0,0,1-16.445,2.945c-2.448-.145-4.561-.713-5.573-2.268-.991-1.513-.558-3.856,1.478-6.2a18.9,18.9,0,0,1,21.454-3.842c2.72,1.491,3.935,3.538,3.529,5.3" transform="translate(16.584 12.238)" fill="#004c5d"/>
          <path id="Trazado_203476" data-name="Trazado 203476" d="M321.678,244.229c-.966,1.584-3.062,2.214-5.5,2.431A44.413,44.413,0,0,1,299.65,244.2c-2.274-.918-4.1-2.131-4.562-3.928-.458-1.752.7-3.833,3.372-5.4a18.9,18.9,0,0,1,21.558,3.207c2.1,2.283,2.606,4.61,1.66,6.153" transform="translate(14.663 12.203)" fill="#004c5d"/>
          <path id="Trazado_203477" data-name="Trazado 203477" d="M325.276,300.711a17.109,17.109,0,0,1-5.213-.813.639.639,0,0,1,.388-1.218,16.045,16.045,0,0,0,10.681-.368.639.639,0,0,1,.47,1.188,17.087,17.087,0,0,1-6.326,1.212" transform="translate(15.858 15.535)" fill="#004c5d"/>
          <path id="Trazado_203478" data-name="Trazado 203478" d="M116.918,257.924s-12.535,23.143-18.31,49.031c-4.348,19.493-3.6,28.114-3.6,28.114l31.866,7.585Z" transform="translate(4.964 13.48)" fill="#004c5d"/>
          <path id="Trazado_203479" data-name="Trazado 203479" d="M173.153,258.564s12.535,23.141,18.31,49.03c4.348,19.493,3.6,28.116,3.6,28.116l-31.866,7.584Z" transform="translate(8.272 13.513)" fill="#004c5d"/>
          <path id="Trazado_203480" data-name="Trazado 203480" d="M124,315.121V421h49.358V303.822Z" transform="translate(6.372 15.818)" fill="#ce7ca2"/>
          <path id="Trazado_203481" data-name="Trazado 203481" d="M198.677,246.307c-.682,16.613.1,26.736-2.493,43.159-1.918,12.137-5.31,24.877-14.376,33.148-9.8,8.944-24.141,10.727-37.387,10.191-6.657-.269-13.507-1.079-19.315-4.35-5.836-3.287-10.136-8.816-13.236-14.763-5.11-9.8-7.3-20.931-7.71-31.984s-.116-29.348,1.476-40.292c0,0,8.258-34.341,44.972-33.018,45.931,1.656,48.069,37.909,48.069,37.909" transform="translate(5.402 10.956)" fill="#ce7ca2"/>
          <path id="Trazado_203482" data-name="Trazado 203482" d="M151.138,276.309a.635.635,0,0,1-.537-.293l-1.962-3.06a.639.639,0,1,1,1.074-.692l1.961,3.06a.638.638,0,0,1-.536.985" transform="translate(7.562 14.196)" fill="#004c5d"/>
          <path id="Trazado_203483" data-name="Trazado 203483" d="M107.543,275.844a5.969,5.969,0,0,0-5.895-4.434,8.016,8.016,0,0,0-6.5,4.045,12.474,12.474,0,0,0-1.426,7.74,13.884,13.884,0,0,0,4.972,9.457A9.925,9.925,0,0,0,109,293.915Z" transform="translate(4.899 14.167)" fill="#ce7ca2"/>
          <path id="Trazado_203484" data-name="Trazado 203484" d="M204.089,273.819a8.013,8.013,0,0,0-6.5-4.045,5.967,5.967,0,0,0-5.895,4.434l-1.457,18.071a9.926,9.926,0,0,0,10.308-1.262,13.884,13.884,0,0,0,4.972-9.457,12.473,12.473,0,0,0-1.426-7.74" transform="translate(9.584 14.084)" fill="#ce7ca2"/>
          <g id="Grupo_163444" data-name="Grupo 163444" transform="translate(118.231 250.872)" opacity="0.3">
            <g id="Grupo_163443" data-name="Grupo 163443">
              <g id="Grupo_163442" data-name="Grupo 163442" clip-path="url(#clip-path-9)">
                <path id="Trazado_203485" data-name="Trazado 203485" d="M147.424,247.983a14.218,14.218,0,0,0-8.15-7.84,29.37,29.37,0,0,0-11.419-1.753,64.5,64.5,0,0,0-9.709.833c-2.039.331-4.276.9-5.413,2.627l-.082,1.028a9.285,9.285,0,0,0,4.139,9.854c4.4,2.634,10.326,1.171,14.835,3.623a12.423,12.423,0,0,1,4.727,4.944,31.475,31.475,0,0,1,2.516,6.448,4.7,4.7,0,0,0,1.139,2.243,2.95,2.95,0,0,0,3.346.177,6.114,6.114,0,0,0,2.288-2.687c1.389-2.769,1.787-5.916,2.164-8.992.431-3.512.845-7.184-.381-10.5" transform="translate(-112.421 -238.387)" fill="#853d2e"/>
              </g>
            </g>
          </g>
          <path id="Trazado_203486" data-name="Trazado 203486" d="M142.143,279.091a.639.639,0,0,1-.556-.325c-2.4-4.263-1.228-6.228-.2-7.961.174-.293.348-.583.5-.884.4-.79.841-1.558,1.284-2.326a27.427,27.427,0,0,0,1.835-3.555c1.359-3.418,1.276-7.366,1.2-10.85-.049-2.36-.106-5.035-1.361-7.152-1.05-1.772-2.923-3.168-5.9-4.394a.638.638,0,0,1,.485-1.18c2.04.841,4.933,2.265,6.507,4.92,1.428,2.407,1.49,5.385,1.539,7.778.075,3.606.161,7.692-1.294,11.351a28.674,28.674,0,0,1-1.917,3.723c-.431.744-.863,1.489-1.248,2.257-.165.329-.353.645-.543.965-.938,1.574-1.824,3.06.211,6.68a.636.636,0,0,1-.555.951" transform="translate(7.078 12.589)" fill="#004c5d"/>
          <path id="Trazado_203487" data-name="Trazado 203487" d="M110.693,255.835c.462-.538,6.48-3.074,15.422-1.324A18.311,18.311,0,0,1,138.6,263.64a18.268,18.268,0,0,1-15.111,3.633c-8.944-1.884-12.8-11.438-12.8-11.438" transform="translate(5.726 13.276)" fill="#fff"/>
          <path id="Trazado_203488" data-name="Trazado 203488" d="M132.169,260.789c0,3.717-3.354,6.73-7.493,6.73s-7.493-3.013-7.493-6.73,3.354-6.73,7.493-6.73,7.493,3.013,7.493,6.73" transform="translate(6.041 13.284)" fill="#004c5d"/>
          <path id="Trazado_203489" data-name="Trazado 203489" d="M138.062,265.063a18.792,18.792,0,0,0-12.134-8.6A29.128,29.128,0,0,0,110.7,257.7l-1-2.352a31.239,31.239,0,0,1,16.69-1.4,21.036,21.036,0,0,1,13.908,9.9Z" transform="translate(5.679 13.251)" fill="#004c5d"/>
          <path id="Trazado_203490" data-name="Trazado 203490" d="M184.017,255.835c-.462-.538-6.48-3.074-15.422-1.324a18.311,18.311,0,0,0-12.486,9.129,18.268,18.268,0,0,0,15.111,3.633c8.944-1.884,12.8-11.438,12.8-11.438" transform="translate(7.929 13.276)" fill="#fff"/>
          <path id="Trazado_203491" data-name="Trazado 203491" d="M161.943,260.789c0,3.717,3.354,6.73,7.493,6.73s7.493-3.013,7.493-6.73-3.354-6.73-7.493-6.73-7.493,3.013-7.493,6.73" transform="translate(8.212 13.284)" fill="#004c5d"/>
          <path id="Trazado_203492" data-name="Trazado 203492" d="M156.772,265.063l-2.243-1.213a21.039,21.039,0,0,1,13.907-9.9,31.26,31.26,0,0,1,16.691,1.4l-1,2.352a29.108,29.108,0,0,0-15.226-1.235,18.664,18.664,0,0,0-12.133,8.6" transform="translate(7.852 13.251)" fill="#004c5d"/>
          <g id="Grupo_163447" data-name="Grupo 163447" transform="translate(174.755 285.465)" opacity="0.3">
            <g id="Grupo_163446" data-name="Grupo 163446">
              <g id="Grupo_163445" data-name="Grupo 163445" clip-path="url(#clip-path-7)">
                <path id="Trazado_203493" data-name="Trazado 203493" d="M186.8,273.465c1.89,3.157-1.007,8.378-6.286,11.944s-11.2,4.281-13.407,1.337.4-8.6,6-12.377,11.815-4.048,13.7-.9" transform="translate(-166.331 -271.303)" fill="#853d2e"/>
              </g>
            </g>
          </g>
          <g id="Grupo_163450" data-name="Grupo 163450" transform="translate(114.256 286.382)" opacity="0.3">
            <g id="Grupo_163449" data-name="Grupo 163449">
              <g id="Grupo_163448" data-name="Grupo 163448" clip-path="url(#clip-path-5)">
                <path id="Trazado_203494" data-name="Trazado 203494" d="M130.456,289.206c-.961,1.56-3.1,2.2-5.8,1.867a21.352,21.352,0,0,1-15.241-11.45c-1.079-2.507-1.062-4.744.161-6.106,2.5-2.707,8.6-1.12,14.077,2.983,5.465,4.12,8.7,9.542,6.8,12.706" transform="translate(-108.63 -272.176)" fill="#853d2e"/>
              </g>
            </g>
          </g>
          <path id="Trazado_203495" data-name="Trazado 203495" d="M104.061,274.659c.01-.28,4.267-28.251,5.8-34.465S154.836,208.4,154.836,208.4s-16.952-5.418-37.751,12-13.024,54.263-13.024,54.263" transform="translate(5.336 10.918)" fill="#004c5d"/>
          <path id="Trazado_203496" data-name="Trazado 203496" d="M196.5,274.659c-.011-.28-4.267-28.251-5.8-34.465S145.721,208.4,145.721,208.4s16.952-5.418,37.751,12S196.5,274.659,196.5,274.659" transform="translate(7.425 10.918)" fill="#004c5d"/>
          <path id="Trazado_203497" data-name="Trazado 203497" d="M124.13,322.67s26.016,12.915,49.223-.72c0,0-11.655,18.835-22.993,18.143S124.13,322.67,124.13,322.67" transform="translate(6.378 16.741)" fill="#004c5d"/>
          <path id="Trazado_203498" data-name="Trazado 203498" d="M182.083,241.389c-.412,1.811-2.2,3.076-4.445,4.062a44.437,44.437,0,0,1-16.445,2.945c-2.448-.145-4.561-.713-5.573-2.268-.991-1.513-.558-3.855,1.478-6.2a18.9,18.9,0,0,1,21.454-3.842c2.72,1.491,3.935,3.538,3.529,5.3" transform="translate(7.88 12.277)" fill="#004c5d"/>
          <path id="Trazado_203499" data-name="Trazado 203499" d="M142.2,244.987c-.967,1.584-3.062,2.214-5.5,2.431a37.014,37.014,0,0,1-8.376-.446,37.084,37.084,0,0,1-8.147-2.014c-2.274-.919-4.1-2.131-4.562-3.928-.458-1.752.7-3.833,3.372-5.4a18.9,18.9,0,0,1,21.558,3.207c2.1,2.283,2.606,4.61,1.66,6.153" transform="translate(5.96 12.241)" fill="#004c5d"/>
          <path id="Trazado_203500" data-name="Trazado 203500" d="M106.4,293.68a5.034,5.034,0,1,1-5.034-5.044,5.039,5.039,0,0,1,5.034,5.044" transform="translate(5.03 15.045)" fill="#ffd5c7"/>
          <path id="Trazado_203501" data-name="Trazado 203501" d="M199.659,293.68a5.033,5.033,0,1,1-5.033-5.044,5.039,5.039,0,0,1,5.033,5.044" transform="translate(9.552 15.045)" fill="#ffd5c7"/>
          <path id="Trazado_203502" data-name="Trazado 203502" d="M159.662,290.038c.485.417-17.355-.134-26.012.43,0,0,.32-3.668,9.174-4s13.655.829,16.838,3.569" transform="translate(6.84 14.931)" fill="#004c5d"/>
          <path id="Trazado_203503" data-name="Trazado 203503" d="M138.109,306.745a.639.639,0,0,1-.328-1.186,24.537,24.537,0,0,1,20.035-2.272.639.639,0,0,1-.4,1.215,23.244,23.244,0,0,0-18.984,2.152.648.648,0,0,1-.327.091" transform="translate(7.025 15.731)" fill="#004c5d"/>
          <path id="Trazado_203504" data-name="Trazado 203504" d="M242.826,370.51c-.062-2.416-.219-5.076-1.894-6.815-1.509-1.567-3.837-1.944-6-2.175a114.825,114.825,0,0,0-35.6,1.762c-6.6,1.376-13.171,3.381-18.809,7.075s-10.292,9.26-11.775,15.847a18.342,18.342,0,0,0-23.064,16.582,15.539,15.539,0,0,0-14.58,3.038c-3.918,3.405-10.869,11.88-5.255,21.265H244.264l-1.437-56.578" transform="translate(6.359 18.724)" fill="#004c5d"/>
          <path id="Trazado_203505" data-name="Trazado 203505" d="M246.609,370.51c.062-2.416.219-5.076,1.894-6.815,1.509-1.567,3.837-1.944,6-2.175a114.825,114.825,0,0,1,35.6,1.762c6.6,1.376,13.171,3.381,18.809,7.075s10.292,9.26,11.775,15.847a18.342,18.342,0,0,1,23.064,16.582,15.539,15.539,0,0,1,14.58,3.038c3.918,3.405,10.869,11.88,5.255,21.265H245.172q.719-28.289,1.438-56.578" transform="translate(12.248 18.724)" fill="#004c5d"/>
          <path id="Trazado_203506" data-name="Trazado 203506" d="M215.553,374.356V427.3h49.358V368.707Z" transform="translate(10.811 19.123)" fill="#8e1fef"/>
          <path id="Trazado_203507" data-name="Trazado 203507" d="M290.165,327.571c-.682,16.613.1,26.736-2.493,43.159-1.918,12.137-5.309,24.877-14.376,33.148-9.8,8.944-24.142,10.727-37.387,10.191-6.657-.269-13.507-1.079-19.315-4.35-5.836-3.287-10.136-8.817-13.236-14.763-5.11-9.8-7.3-20.932-7.71-31.984s-.116-29.348,1.476-40.292c0,0,8.258-34.341,44.972-33.018,45.932,1.656,48.069,37.909,48.069,37.909" transform="translate(9.838 15.095)" fill="#8e1fef"/>
          <path id="Trazado_203508" data-name="Trazado 203508" d="M242.625,357.574a.641.641,0,0,1-.538-.293l-1.96-3.06a.638.638,0,1,1,1.073-.691l1.961,3.06a.638.638,0,0,1-.536.985" transform="translate(11.998 18.335)" fill="#004c5d"/>
          <path id="Trazado_203509" data-name="Trazado 203509" d="M251.712,374.029c.295-.742-.421-1.479-1.105-2.114a27.475,27.475,0,0,0-5.444-4.237,16.029,16.029,0,0,0-7.909-2.028,15.379,15.379,0,0,0-7.644,2.275c-2.054,1.264-4.419,5.122-5.9,6.662a19.461,19.461,0,0,0,27.761-.306Z" transform="translate(11.207 18.967)" fill="#004c5d"/>
          <path id="Trazado_203510" data-name="Trazado 203510" d="M199.031,357.108a5.971,5.971,0,0,0-5.9-4.434,8.015,8.015,0,0,0-6.5,4.045,12.481,12.481,0,0,0-1.426,7.74,13.884,13.884,0,0,0,4.972,9.457,9.927,9.927,0,0,0,10.309,1.262Z" transform="translate(9.335 18.306)" fill="#8e1fef"/>
          <path id="Trazado_203511" data-name="Trazado 203511" d="M295.577,355.084a8.017,8.017,0,0,0-6.5-4.046,5.97,5.97,0,0,0-5.895,4.434l-1.457,18.072a9.925,9.925,0,0,0,10.308-1.262A13.887,13.887,0,0,0,297,362.824a12.472,12.472,0,0,0-1.426-7.74" transform="translate(14.02 18.223)" fill="#8e1fef"/>
          <g id="Grupo_163453" data-name="Grupo 163453" transform="translate(214.156 336.275)" opacity="0.3">
            <g id="Grupo_163452" data-name="Grupo 163452">
              <g id="Grupo_163451" data-name="Grupo 163451" clip-path="url(#clip-path-9)">
                <path id="Trazado_203512" data-name="Trazado 203512" d="M238.912,329.247a14.222,14.222,0,0,0-8.15-7.841,29.388,29.388,0,0,0-11.419-1.752,64.484,64.484,0,0,0-9.709.833c-2.039.331-4.276.9-5.413,2.627l-.082,1.028A9.282,9.282,0,0,0,208.278,334c4.4,2.635,10.326,1.172,14.834,3.624a12.419,12.419,0,0,1,4.728,4.944,31.477,31.477,0,0,1,2.516,6.447,4.692,4.692,0,0,0,1.139,2.243,2.952,2.952,0,0,0,3.346.177,6.114,6.114,0,0,0,2.288-2.687c1.389-2.769,1.787-5.916,2.164-8.992.431-3.513.845-7.184-.381-10.5" transform="translate(-203.909 -319.651)" fill="#853d2e"/>
              </g>
            </g>
          </g>
          <path id="Trazado_203513" data-name="Trazado 203513" d="M233.631,360.355a.637.637,0,0,1-.556-.326c-2.4-4.261-1.228-6.226-.2-7.959.174-.293.348-.583.5-.885.4-.79.841-1.559,1.284-2.327A27.425,27.425,0,0,0,236.5,345.3c1.36-3.418,1.277-7.366,1.2-10.85-.049-2.36-.106-5.035-1.36-7.152-1.051-1.773-2.924-3.169-5.9-4.393a.639.639,0,0,1,.484-1.182c2.039.841,4.933,2.265,6.507,4.924,1.427,2.4,1.49,5.383,1.54,7.776.076,3.606.16,7.692-1.295,11.351a28.792,28.792,0,0,1-1.916,3.722c-.432.744-.863,1.49-1.249,2.26-.165.328-.353.644-.543.965-.937,1.574-1.823,3.061.211,6.678a.638.638,0,0,1-.555.952" transform="translate(11.514 16.728)" fill="#004c5d"/>
          <path id="Trazado_203514" data-name="Trazado 203514" d="M277.165,337.429c-.463-.592-6.94-5.324-15.882-3.4s-12.028,11.98-12.028,11.98A17.192,17.192,0,0,0,264.366,350c8.944-2.07,12.8-12.571,12.8-12.571" transform="translate(12.446 17.333)" fill="#fff"/>
          <path id="Trazado_203515" data-name="Trazado 203515" d="M254.053,342.589a8.439,8.439,0,1,0,8.438-8.318,8.378,8.378,0,0,0-8.438,8.318" transform="translate(12.678 17.369)" fill="#004c5d"/>
          <path id="Trazado_203516" data-name="Trazado 203516" d="M250.006,347.319l-2.41-.829c.154-.451,3.878-11.054,13.425-13.021,9.38-1.931,17.163,3.437,17.49,3.666l-1.459,2.094c-.072-.049-7.245-4.966-15.517-3.257-8.106,1.67-11.495,11.251-11.528,11.347" transform="translate(12.365 17.307)" fill="#004c5d"/>
          <path id="Trazado_203517" data-name="Trazado 203517" d="M202.181,337.376c.462-.583,6.939-5.253,15.882-3.356S230.09,345.84,230.09,345.84a17.335,17.335,0,0,1-15.111,3.939c-8.944-2.042-12.8-12.4-12.8-12.4" transform="translate(10.163 17.333)" fill="#fff"/>
          <path id="Trazado_203518" data-name="Trazado 203518" d="M224.781,342.469a8.441,8.441,0,1,1-8.438-8.208,8.325,8.325,0,0,1,8.438,8.208" transform="translate(10.44 17.368)" fill="#004c5d"/>
          <path id="Trazado_203519" data-name="Trazado 203519" d="M229.478,347.145c-.034-.095-3.419-9.539-11.525-11.186-8.279-1.689-15.455,3.166-15.527,3.214l-1.447-2.1c.327-.224,8.117-5.508,17.48-3.615,9.545,1.941,13.272,12.407,13.427,12.852Z" transform="translate(10.105 17.306)" fill="#004c5d"/>
          <g id="Grupo_163456" data-name="Grupo 163456" transform="translate(270.68 370.868)" opacity="0.2">
            <g id="Grupo_163455" data-name="Grupo 163455">
              <g id="Grupo_163454" data-name="Grupo 163454" clip-path="url(#clip-path-7)">
                <path id="Trazado_203520" data-name="Trazado 203520" d="M278.291,354.73c1.89,3.157-1.007,8.378-6.286,11.944s-11.2,4.282-13.407,1.337.4-8.6,6-12.377,11.815-4.048,13.7-.9" transform="translate(-257.819 -352.567)" fill="#853d2e"/>
              </g>
            </g>
          </g>
          <g id="Grupo_163459" data-name="Grupo 163459" transform="translate(208.175 371.786)" opacity="0.2">
            <g id="Grupo_163458" data-name="Grupo 163458">
              <g id="Grupo_163457" data-name="Grupo 163457" clip-path="url(#clip-path-8)">
                <path id="Trazado_203521" data-name="Trazado 203521" d="M220.032,370.47c-.963,1.56-3.1,2.2-5.8,1.867a21.346,21.346,0,0,1-15.241-11.45c-1.081-2.506-1.062-4.744.16-6.1,2.5-2.708,8.6-1.121,14.077,2.981,5.465,4.12,8.7,9.543,6.8,12.706" transform="translate(-198.205 -353.441)" fill="#853d2e"/>
              </g>
            </g>
          </g>
          <path id="Trazado_203522" data-name="Trazado 203522" d="M195.549,355.923c.01-.28,4.267-28.251,5.8-34.465s44.971-31.794,44.971-31.794-16.952-5.418-37.751,12-13.024,54.263-13.024,54.263" transform="translate(9.772 15.056)" fill="#004c5d"/>
          <path id="Trazado_203523" data-name="Trazado 203523" d="M287.259,356.514c-.01-.279-3.543-28.843-5.079-35.057s-44.971-31.793-44.971-31.793,16.951-5.419,37.751,12,12.3,54.853,12.3,54.853" transform="translate(11.861 15.056)" fill="#004c5d"/>
          <path id="Trazado_203524" data-name="Trazado 203524" d="M215.617,403.934s26.017,12.915,49.224-.72c0,0-11.655,18.835-22.993,18.143s-26.23-17.423-26.23-17.423" transform="translate(10.814 20.88)" fill="#004c5d"/>
          <path id="Trazado_203525" data-name="Trazado 203525" d="M273.716,324.331c-.636,1.743-2.568,2.774-4.919,3.469a44.447,44.447,0,0,1-16.684.846c-2.41-.453-4.435-1.282-5.243-2.953-.793-1.627-.069-3.895,2.245-5.963a18.9,18.9,0,0,1,21.767-1.1c2.51,1.822,3.459,4.007,2.835,5.706" transform="translate(12.315 16.423)" fill="#004c5d"/>
          <path id="Trazado_203526" data-name="Trazado 203526" d="M233.762,321.926c-.412,1.811-2.2,3.076-4.446,4.062a44.426,44.426,0,0,1-16.444,2.945c-2.448-.145-4.561-.712-5.574-2.268-.99-1.513-.557-3.856,1.479-6.2a18.9,18.9,0,0,1,21.454-3.842c2.72,1.491,3.935,3.539,3.529,5.3" transform="translate(10.386 16.378)" fill="#004c5d"/>
          <path id="Trazado_203527" data-name="Trazado 203527" d="M205.543,347.167a14.31,14.31,0,0,0-2.771,6.534,6.548,6.548,0,0,0,.024,2.507,3.155,3.155,0,0,0,1.4,2.013,2.094,2.094,0,0,0,2.357-.138,2.363,2.363,0,0,0,.73-1.657,10.947,10.947,0,0,0,.007-2.329,66.187,66.187,0,0,0-1.748-6.93" transform="translate(10.186 18.026)" fill="#ede4ff"/>
        </g>
      </g>
    </g>
  </g>
</svg>
