<svg id="Grupo_170254" data-name="Grupo 170254" xmlns="http://www.w3.org/2000/svg" xmlns:xlink="http://www.w3.org/1999/xlink" width="610" height="342.189" viewBox="0 0 610 342.189">
  <defs>
    <clipPath id="clip-path">
      <rect id="Rectángulo_49269" data-name="Rectángulo 49269" width="610" height="342.189" fill="none"/>
    </clipPath>
    <clipPath id="clip-path-3">
      <rect id="Rectángulo_49263" data-name="Rectángulo 49263" width="305.605" height="312.162" fill="none"/>
    </clipPath>
    <clipPath id="clip-path-4">
      <rect id="Rectángulo_49264" data-name="Rectángulo 49264" width="281.202" height="268.546" fill="none"/>
    </clipPath>
    <clipPath id="clip-path-5">
      <rect id="Rectángulo_49265" data-name="Rectángulo 49265" width="57.146" height="56.316" fill="none"/>
    </clipPath>
    <clipPath id="clip-path-6">
      <rect id="Rectángulo_49266" data-name="Rectángulo 49266" width="25.27" height="23.574" fill="none"/>
    </clipPath>
    <clipPath id="clip-path-7">
      <rect id="Rectángulo_49267" data-name="Rectángulo 49267" width="20.393" height="21.884" fill="none"/>
    </clipPath>
  </defs>
  <g id="Grupo_170253" data-name="Grupo 170253" clip-path="url(#clip-path)">
    <g id="Grupo_170252" data-name="Grupo 170252">
      <g id="Grupo_170251" data-name="Grupo 170251" clip-path="url(#clip-path)">
        <g id="Grupo_170238" data-name="Grupo 170238" transform="translate(292.852)" opacity="0.2" style="mix-blend-mode: multiply;isolation: isolate">
          <g id="Grupo_170237" data-name="Grupo 170237">
            <g id="Grupo_170236" data-name="Grupo 170236" clip-path="url(#clip-path-3)">
              <path id="Trazado_210336" data-name="Trazado 210336" d="M355.688,260.977a127.684,127.684,0,0,1-21.156-51.945c-3.165-19.079-2.03-39.372,5.676-57.292,8.137-18.952,23.641-33.063,41.144-43.376,18.688-11,39.392-17.672,59.568-25.32a270.814,270.814,0,0,0,29.706-12.914,200.085,200.085,0,0,0,27.883-17.8,309.635,309.635,0,0,0,25.161-21.36c3.984-3.726,7.889-7.529,11.756-11.383A144.811,144.811,0,0,1,546.567,9.12c7.212-5.832,15.566-9.412,24.946-9.1a41.9,41.9,0,0,1,15.1,3.462l.181.054c18.1,5.883,32.222,20.35,40.759,37.014,8.925,17.444,11.541,37.327,10.817,56.719-.752,20.16-4.619,40.338-10.084,59.715a259.645,259.645,0,0,1-23.746,57.624,203.7,203.7,0,0,1-37.795,48.539,187.85,187.85,0,0,1-52.97,34.388c-18.667,8.179-38.746,14.283-59.262,14.614a118.03,118.03,0,0,1-56.1-13.48,119.518,119.518,0,0,1-42.734-37.691" transform="translate(-332.883 0)" fill="#f2ac56"/>
            </g>
          </g>
        </g>
        <g id="Grupo_170241" data-name="Grupo 170241" transform="translate(0 15.093)" opacity="0.2" style="mix-blend-mode: multiply;isolation: isolate">
          <g id="Grupo_170240" data-name="Grupo 170240">
            <g id="Grupo_170239" data-name="Grupo 170239" clip-path="url(#clip-path-4)">
              <path id="Trazado_210337" data-name="Trazado 210337" d="M263,76.137c10.526,14.613,18.282,32.227,18.2,50.481-.074,18.309-6.431,36.906-15.817,52.482a108.363,108.363,0,0,1-36.916,36.841c-15.492,9.34-32.894,15.132-50.518,18.922-9.22,1.983-18.55,3.234-27.862,4.67-9.581,1.464-19.162,3.428-27.909,7.746-14.084,6.95-25.36,18.208-38.222,27-6.06,4.142-12.573,7.783-19.671,9.794a41.922,41.922,0,0,1-22.535.167c-15.271-4.2-27.807-16.41-34.358-30.587-8.08-17.476-8.441-37.379-6.227-56.18a236.9,236.9,0,0,1,12.305-52.047,244.584,244.584,0,0,1,23.2-47.692A239.269,239.269,0,0,1,67.584,58.392,175.816,175.816,0,0,1,83.864,40.073a79.712,79.712,0,0,1,22.109-15.2,86.152,86.152,0,0,1,24.193-6.774c17.448-2.325,35.359-.157,52.232,4.605A165.524,165.524,0,0,1,227.6,43,131.941,131.941,0,0,1,263,76.137" transform="translate(0 -17.156)" fill="#f2ac56"/>
            </g>
          </g>
        </g>
        <path id="Trazado_210338" data-name="Trazado 210338" d="M336.012,358.371H186.888q-1.048-13.932-3.259-27.758a321.275,321.275,0,0,1,11.117-37.994c1.788-3.2,7.285-50.975,7.717-54.634.224-1.846.424-3.692.624-5.538a374.982,374.982,0,0,0-2.387-96.262.009.009,0,0,1,.009-.009c3.135-.682,6.295-1.23,9.488-1.613q2.444,28.638,4.856,57.27c.84,9.854,2.1,20.631,9.222,27.491,5.363,5.147,13.063,7.019,20.456,7.809a94.869,94.869,0,0,0,30.41-1.7c7.4-1.638,14.977-4.424,19.866-10.228,5.5-6.544,6.578-15.617,7.417-24.132q2.681-26.893,5.339-53.785a20.66,20.66,0,0,0,4.59,2.212,6.609,6.609,0,0,1,1.772-2.944c1.438.549,2.886,1.1,4.324,1.638-4.083,29.246-8.149,59.007-3.526,88.162-.15.482-.691,5.381-1.322,11.783a123.681,123.681,0,0,0,6.378,53.028c7.11,20.341,15.009,48.339,16.033,67.207" transform="translate(-22.082 -16.182)" fill="#5b8989"/>
        <path id="Trazado_210339" data-name="Trazado 210339" d="M311.394,136.159q-2.666,26.894-5.34,53.788c-.836,8.516-1.909,17.586-7.416,24.131-4.883,5.806-12.466,8.586-19.865,10.231a94.967,94.967,0,0,1-30.413,1.7c-7.328-.774-14.956-2.622-20.313-7.671-.044-.044-.1-.088-.141-.132-7.126-6.862-8.384-17.639-9.22-27.492l-1.372-16.179q-1.729-20.48-3.475-40.961l.51-.026c.07-.079,14.2-1,21.158-.871,5.059.1,10.117.22,15.167.343a70.148,70.148,0,0,1,.853-7.795c.422,2.639.933,5.261,1.531,7.847q10,.264,20,.528,3.814.106,7.645.194c-.167-2.49-.334-4.971-.5-7.46q1.293,3.748,2.6,7.513c3.035.079,6.079.15,9.123.229,3.1.07,6.211.158,9.317.229a66.892,66.892,0,0,1,10.161,1.856" transform="translate(-25.715 -15.059)" fill="#ea8744"/>
        <g id="Grupo_170244" data-name="Grupo 170244" transform="translate(191.599 146.975)" opacity="0.3" style="mix-blend-mode: multiply;isolation: isolate">
          <g id="Grupo_170243" data-name="Grupo 170243">
            <g id="Grupo_170242" data-name="Grupo 170242" clip-path="url(#clip-path-5)">
              <path id="Trazado_210340" data-name="Trazado 210340" d="M268.753,206.89c-3.29,2.34-7.355,3.132-11.226,3.959a49.6,49.6,0,0,0-5.824,1.5,26.544,26.544,0,0,0-5.9,3.026c-3.713,2.437-7.135,5.358-11.331,6.976a14.756,14.756,0,0,1-5.947,1.02c-.044-.044-.1-.088-.141-.132-7.126-6.862-8.384-17.639-9.22-27.492l-1.372-16.179a42.407,42.407,0,0,1,4.161-4.179,33.758,33.758,0,0,1,11.032-6.968c8.12-2.824,17.2-.915,24.694,2.815,6.968,3.449,13.715,8.938,16.275,16.522,2.235,6.633.721,14.912-5.2,19.134" transform="translate(-217.789 -167.065)" fill="#ea8744"/>
            </g>
          </g>
        </g>
        <path id="Trazado_210341" data-name="Trazado 210341" d="M200.2,136.408a374.983,374.983,0,0,1,2.387,96.262l-.549-.1q-2.295,7.023-4.923,13.929l-.157.166c-.233-.216-.457-.432-.691-.657q-2.482-26.406-4.956-52.829c-.881-9.372-1.821-18.968-5.845-27.483a33.911,33.911,0,0,0-5.971-8.773q1.6-3.617,3.2-7.226a27.861,27.861,0,0,1,2.96-5.538c3.368-4.5,9.039-6.52,14.544-7.751" transform="translate(-21.585 -16.404)" fill="#ea8744"/>
        <path id="Trazado_210342" data-name="Trazado 210342" d="M309.992,104.215a50.656,50.656,0,0,1-.755-11.582c.3-7.82,1.679-15.554,2.046-23.372A94.323,94.323,0,0,0,309.829,46.5a62.655,62.655,0,0,0-6.786-18.681c-.7-1.247-1.466-2.463-2.269-3.652a68.728,68.728,0,0,0-9.224-13.984c-2.711-3.168-6.012-6.253-10.145-6.844-4.419-.628-8.461,1.7-12.027,4.624-7.463-3.153-16.567-1.014-22.873,3.754a23.5,23.5,0,0,0-7.252,9.553,82.387,82.387,0,0,0-4.145,12.537c-2.25,8.711-3.594,17.62-5.568,26.393a128.021,128.021,0,0,1-3.651,13.121c-1.477,4.349-3.142,8.633-4.591,12.993-2.683,8.074-4.645,16.778-3.087,25.279-.022,1.319-.018,2.639,0,3.956a9.766,9.766,0,0,0,.34,2.794,3.694,3.694,0,0,0,.549,1.1c.807,1.089,2.628,1.513,3.493.474a52.877,52.877,0,0,1,3.285-20.158,95.456,95.456,0,0,0,.465,19.675,7.051,7.051,0,0,0,1.057,3.393,7.358,7.358,0,0,0,2.944,2.037c6.752,3.185,13.845,6.444,21.3,6.07a68.914,68.914,0,0,1,.341-20.382,123.626,123.626,0,0,0,3.418,15.126,6.942,6.942,0,0,0,2,3.7,6.751,6.751,0,0,0,3.335,1.107,69.651,69.651,0,0,0,19.417-.076,2.087,2.087,0,0,0,1.239-.473,2.164,2.164,0,0,0,.366-1.68q-.561-8.294-1.106-16.6,2.507,7.271,5.015,14.535a4.736,4.736,0,0,0,1.156,2.088,4.481,4.481,0,0,0,2.361.823,45.655,45.655,0,0,0,17.28-1.022,1.291,1.291,0,0,0,.932-.566,1.324,1.324,0,0,0-.033-.857q-2.008-7.646-4.025-15.3a21.775,21.775,0,0,0,8.515,10.129,20.649,20.649,0,0,0,4.591,2.212,6.624,6.624,0,0,1,1.771-2.944,6.072,6.072,0,0,1,1.455-1.064,35.162,35.162,0,0,1-9.681-15.48m-65.1-84.939c-5.8,7.451-8.507,16.848-10.229,26.128s-2.636,18.768-5.43,27.79c-3.143,10.112-8.623,19.517-10.345,29.962-.16.984-.284,1.974-.382,2.966a53.758,53.758,0,0,1,2.579-16.376c1.289-4.3,2.879-8.505,4.393-12.732s2.881-8.468,3.97-12.813c2.132-8.5,3.455-17.181,5.391-25.728a115.709,115.709,0,0,1,3.525-12.615c1.366-3.911,3-7.864,5.842-10.95a24,24,0,0,1,9.91-6.252A22.14,22.14,0,0,1,266.254,7.8c.178.042.35.1.526.15-8.411-.251-16.647,4.6-21.89,11.328m62.2,66.068c-.2-12.557,1.9-25.138.59-37.628a68.726,68.726,0,0,0-4.061-17.029,62.191,62.191,0,0,1,5,14.116,89.415,89.415,0,0,1,1.9,22.682c-.126,3.849-.447,7.686-.864,11.514-.425,3.895-.913,7.785-1.155,11.7a65.816,65.816,0,0,0-.06,7.627,70.44,70.44,0,0,1-1.352-12.979" transform="translate(-26.174 -0.39)" fill="#442626"/>
        <path id="Trazado_210343" data-name="Trazado 210343" d="M509.4,157.809c-10.566,21.95-8.366,47.849-14.63,71.435-.141.528-.959,2.683-2.173,5.771-4.161-5.05-5.208-12.589-9.862-17.243,0,6.519-1.487,13.645-1.487,20.4,0,5.322.924,10.407,4.214,14.806-3.589,9.079-6.844,17.551-6.915,18.7a54.934,54.934,0,0,1,.369,6.95c.167,7.671.176,19.865.255,27.642.035,3.827.1,6.581.194,7.205-.721.326-1.434.651-2.129.994-6.193,2.991-12.088,6.677-18.721,8.366a62.792,62.792,0,0,1-7.9,1.355c-15.835,2.05-32,3.959-47.691.994-12.9-2.446-24.941-8.085-36.817-13.662q-6.11-2.877-12.2-5.736c-.968-.457-1.927-.906-2.894-1.364q1.57-7.759,3.149-15.519l.044-.167,10.83-40.838q3.814-5.991,7.117-12.29,2.547-4.79,4.768-9.748a.264.264,0,0,0,.035-.07c-.123-.053-.246-.1-.37-.15a.009.009,0,0,1-.009-.009c-.326-.132-.651-.264-.977-.4q-2.428-1.056-4.759-2.34c-.5-.273-.994-.554-1.487-.836-.413-.246-.836-.493-1.24-.748-.475-.29-.941-.589-1.408-.889s-.924-.607-1.381-.924l-.079-.053c-.449-.3-.88-.607-1.311-.915a.009.009,0,0,0-.009-.009c-1.214-.862-2.393-1.777-3.545-2.71a134.518,134.518,0,0,1-17.648-18.088c-1.478-1.742-2.93-3.5-4.381-5.27,3.545-8.877,5.111-18.475,8.19-27.562a51.107,51.107,0,0,1,8.076-15.466,28.458,28.458,0,0,1,10.143-8.27c5.736-2.683,12.184-3.053,18.527-3.651,6.431,3.7,11.8,8.947,17.6,13.557,5.419,4.293,11.542,8.138,18.334,9.193l59.321.449a73.991,73.991,0,0,0,24.8-11.762,37.683,37.683,0,0,1,6.053,8.868" transform="translate(-40.688 -16.535)" fill="#f4e5d9"/>
        <path id="Trazado_210344" data-name="Trazado 210344" d="M390.968,228.14a27.836,27.836,0,0,1-.437,5.579c-.165.915-.341,1.828-.567,2.729s-.474,1.8-.759,2.681l-.26.8-.748-.26a33.972,33.972,0,0,1-3.413-1.394,22.435,22.435,0,0,1-3.2-1.867c1.228.215,2.408.514,3.588.8l3.5.931-1.007.544.706-2.654c.24-.883.508-1.759.767-2.64a54.318,54.318,0,0,1,1.832-5.251" transform="translate(-45.887 -27.435)" fill="#442626"/>
        <path id="Trazado_210345" data-name="Trazado 210345" d="M503.581,225.354c-.182,0-.306-.218-.332-.391a2.074,2.074,0,0,1,0-.529l.1-.958c.082-.632.16-1.261.256-1.883.185-1.246.377-2.48.589-3.711s.438-2.46.678-3.7.5-2.478.871-3.74a15.806,15.806,0,0,1,.421,3.864,22.688,22.688,0,0,1-.332,3.852,22.921,22.921,0,0,1-.973,3.742c-.208.611-.463,1.208-.731,1.8-.143.292-.287.582-.443.867a1.946,1.946,0,0,0-.194.4c-.041.13-.065.291.083.386" transform="translate(-60.516 -25.307)" fill="#442626"/>
        <path id="Trazado_210346" data-name="Trazado 210346" d="M484.754,381.728H347.929q2.631-26.581,7.126-52.937l12.2,5.738c11.883,5.579,23.924,11.218,36.822,13.662,15.691,2.968,31.857,1.056,47.69-.99a64.861,64.861,0,0,0,7.9-1.356c6.636-1.7,12.532-5.38,18.719-8.366a385.13,385.13,0,0,1,6.369,44.248" transform="translate(-41.84 -39.538)" fill="#f27242"/>
        <path id="Trazado_210347" data-name="Trazado 210347" d="M169.3,382.443H37.354a374.547,374.547,0,0,1,9.688-47.707,27.656,27.656,0,0,0,12.615,5.347,68.5,68.5,0,0,0,15.442.441,22.844,22.844,0,0,1,5.98.166,25.811,25.811,0,0,1,5.047,1.888c9.738,4.324,20.847,6.586,31.109,3.725,2.12-.59,4.183-1.4,6.337-1.9,3.816-.889,7.792-.781,11.716-.8s7.867-.15,11.783-.416a31.683,31.683,0,0,0,10.253-1.954,13.553,13.553,0,0,0,5.454-4.075q1.871,8.719,3.26,17.521,2.208,13.808,3.259,27.758" transform="translate(-4.492 -40.253)" fill="#f27242"/>
        <path id="Trazado_210348" data-name="Trazado 210348" d="M361.568,234.027a.263.263,0,0,1-.035.07q-2.23,4.949-4.768,9.748-3.3,6.295-7.117,12.29-1.069,1.676-2.173,3.325l-.211.317c-.4.607-.809,1.214-1.223,1.812-2.894,4.188-6.079,8.366-10.46,10.979a28.537,28.537,0,0,1-9.976,3.352c-1.152.194-2.323.361-3.484.5-.792.106-1.575.194-2.358.273q-2.784.317-5.578.607c-18.334,1.944-36.712,3.4-55.1,4.856l-.2-.211a41.116,41.116,0,0,1-18.73,10.83q-14.872-14.212-29.735-28.425a186.368,186.368,0,0,0,21.624-2.692c7.038-1.311,14-3.018,20.912-4.865q2.586-.686,5.173-1.4,2.534-.686,5.067-1.39,6.189-1.716,12.369-3.413,5.318-1.478,10.645-2.947,15.294-4.236,30.589-8.454c.449-1.416.9-2.842,1.346-4.249q4.606-14.5,9.2-28.988a134.519,134.519,0,0,0,17.648,18.088c1.152.933,2.331,1.847,3.545,2.71a.009.009,0,0,1,.009.009c.431.308.871.616,1.311.915l.079.053c.457.317.915.625,1.381.924s.933.6,1.408.889c.4.255.818.5,1.24.748.493.282.985.563,1.487.836q2.336,1.28,4.759,2.34c.326.141.651.273.977.4a.009.009,0,0,0,.009.009c.123.053.246.1.37.15" transform="translate(-25.304 -24.767)" fill="#fca27e"/>
        <g id="Grupo_170247" data-name="Grupo 170247" transform="translate(227.651 225.825)" opacity="0.3" style="mix-blend-mode: multiply;isolation: isolate">
          <g id="Grupo_170246" data-name="Grupo 170246">
            <g id="Grupo_170245" data-name="Grupo 170245" clip-path="url(#clip-path-6)">
              <path id="Trazado_210349" data-name="Trazado 210349" d="M279.091,276.4c-3.1,2.815-8.006,5.252-12.044,2.956-3.836-2.182-5.067-6.959-6.07-10.918-.053-.22-.106-.44-.158-.651a17.862,17.862,0,0,0-2.05-4.891q2.586-.686,5.173-1.4,2.534-.686,5.067-1.39,6.189-1.716,12.369-3.413a20.126,20.126,0,0,1,2.578,7.575,14.312,14.312,0,0,1-4.865,12.132" transform="translate(-258.769 -256.694)" fill="#fca27e"/>
            </g>
          </g>
        </g>
        <path id="Trazado_210350" data-name="Trazado 210350" d="M515.812,143.9a37.051,37.051,0,0,1,6.694,5.788,74.024,74.024,0,0,1-24.8,11.767q.088-.562.2-1.123a21.49,21.49,0,0,1,17.879-16.607Z" transform="translate(-59.852 -17.283)" fill="#fca27e"/>
        <path id="Trazado_210351" data-name="Trazado 210351" d="M423.1,130.77c2.886,5.472,1.78,12.058,1.547,18.236a41.588,41.588,0,0,0,.715,10.062c-6.785-1.056-12.914-4.906-18.336-9.2-5.8-4.607-11.168-9.854-17.6-13.554,1.048-.092,2.087-.2,3.118-.316a87.477,87.477,0,0,0,28.365-8.374,16.466,16.466,0,0,1,2.187,3.143" transform="translate(-46.831 -15.348)" fill="#fca27e"/>
        <path id="Trazado_210352" data-name="Trazado 210352" d="M661.613,196.468c-.1,16.222-3.6,32.207-5.771,48.28-1.619,11.929-2.569,24.158-7.258,35.243-4.619,10.909-12.554,19.961-20.868,28.5a181.043,181.043,0,0,1,9.985,50.313h-139.4a360.575,360.575,0,0,1,5.9-76.406,41.643,41.643,0,0,1-8.841-1.68c-.457-.141-.915-.281-1.372-.44-.73-.238-1.46-.5-2.182-.774a64.188,64.188,0,0,1-8.27-3.862c-.413-.229-.827-.457-1.232-.7-5.067-2.886-9.906-6.281-14.674-9.651q-19.214-13.579-38.419-27.131c.361-1.258.765-2.49,1.214-3.713a59.247,59.247,0,0,1,12.818-20.586c.5-.537,1.02-1.056,1.548-1.557q24.1,9.58,48.166,19.266a76.556,76.556,0,0,1,11.182,5.226,37.924,37.924,0,0,1,1.548-7.478c6.264-23.586,4.064-49.486,14.63-71.435.1-.22.211-.457.326-.677a39.815,39.815,0,0,1,10.311-13.645,22.858,22.858,0,0,1,15.22-5.349,8.721,8.721,0,0,0,.774.73c3.457,2.868,8.252,3.237,12.589,4.381a33.3,33.3,0,0,1,16.469,10.205c3.4,3.88,5.859,8.525,9.378,12.281,6.677,7.1,16.935,10.407,26.621,9.369s18.739-6.149,25.293-13.372c2.252-2.472,4.249-5.208,6.915-7.24,1.267-.968,2.7-1.786,4.012-2.7,9.968,12.255,13.487,28.759,13.381,44.594" transform="translate(-51.615 -16.618)" fill="#5b8989"/>
        <path id="Trazado_210353" data-name="Trazado 210353" d="M582.913,22.621a39.1,39.1,0,0,1,16.83-5.364A39.986,39.986,0,0,1,634.811,33.93c8.84,12.673,9.43,29.146,9.7,44.6q.149,8.444.3,16.888c.058,3.593.282,7.584,2.835,10.121,2,1.971,5.114,2.7,6.669,5.031,1.6,2.386,1.181,5.929,3.368,7.783a10.392,10.392,0,0,0,2.686,1.372,13.271,13.271,0,0,1,6.677,5.729,8.8,8.8,0,0,1,.026,8.565,11.271,11.271,0,0,1-3.36,3.3c-1.313.914-2.744,1.737-4.016,2.7-2.661,2.029-4.665,4.765-6.91,7.243-6.561,7.217-15.6,12.331-25.3,13.371s-19.941-2.271-26.618-9.372c-3.526-3.758-5.988-8.4-9.38-12.282a33.32,33.32,0,0,0-16.473-10.2c-4.333-1.147-9.131-1.513-12.582-4.382a9.527,9.527,0,0,1-.781-.732c-2.9-2.969-3.925-7.476-3.668-11.667.283-4.548,1.854-8.906,3.077-13.3a87.238,87.238,0,0,0,2.977-28.731c-.416-6.511-1.572-13.03-.84-19.508A36.255,36.255,0,0,1,578.946,24.95a37.206,37.206,0,0,1,3.967-2.329" transform="translate(-67.096 -2.063)" fill="#f27242"/>
        <path id="Trazado_210354" data-name="Trazado 210354" d="M647.591,305.066c-.475,3.026-3.1,5.111-5.754,6.264a34.29,34.29,0,0,1-4.918,1.636,9.341,9.341,0,0,1-4.54.167l-48.923-6.493c-9.572-1.276-19.17-2.56-28.451-5.19-6.193-1.768-12.554-4.364-16.486-9.422-.132-.15-.246-.308-.361-.466l1.425-.018a110.992,110.992,0,0,0,17.4-27.14,132.461,132.461,0,0,1,14.287,3.792c4.83,1.566,9.563,3.413,14.287,5.252q11.177,4.355,22.346,8.7l8.551,3.325a77.136,77.136,0,0,0,11.375,3.739,19.633,19.633,0,0,1,6.721-9.035,14.762,14.762,0,0,1-.035-6.114c.273-1.355.792-3.308,2.2-3.915,1.619-.686,2.683,1,3.062,2.323a27.01,27.01,0,0,1,.581,5.525,16.965,16.965,0,0,0,1.285,4.971,17.639,17.639,0,0,1,1.715,1.724,6.661,6.661,0,0,1,1.627,4.619,5.153,5.153,0,0,1-.642,2.155c-.123.229-.37.563-.264.836.062.176.325.334.457.44a5.469,5.469,0,0,1,.669.607,6.62,6.62,0,0,1,1.689,5.463,6.432,6.432,0,0,1-.238.985,2.747,2.747,0,0,0-.167.519.826.826,0,0,0,.229.686,5.485,5.485,0,0,1,.871,4.064" transform="translate(-64.716 -31.796)" fill="#fca27e"/>
        <g id="Grupo_170250" data-name="Grupo 170250" transform="translate(543.19 250.353)" opacity="0.3" style="mix-blend-mode: multiply;isolation: isolate">
          <g id="Grupo_170249" data-name="Grupo 170249">
            <g id="Grupo_170248" data-name="Grupo 170248" clip-path="url(#clip-path-7)">
              <path id="Trazado_210355" data-name="Trazado 210355" d="M637.832,291.744a18.959,18.959,0,0,1-1.979,7.9,12.461,12.461,0,0,1-6.712,6.343,6.875,6.875,0,0,1-5.155-.062,6.968,6.968,0,0,1-3.106-3.237c-1.724-3.4-1.61-7.425-1.909-11.129a21.623,21.623,0,0,0-1.531-6.985l8.551,3.325a73.8,73.8,0,0,0,11.841,3.844" transform="translate(-617.439 -284.574)" fill="#fca27e"/>
            </g>
          </g>
        </g>
        <path id="Trazado_210356" data-name="Trazado 210356" d="M345.6,165.032c-3.079,9.088-4.645,18.686-8.19,27.562,1.452,1.768,2.9,3.528,4.381,5.27q-4.606,14.489-9.2,28.988c-4.619-29.155-.554-58.917,3.528-88.168.422.167.853.326,1.284.493a58.33,58.33,0,0,1,9.589,4.32,20.576,20.576,0,0,1,6.686,6.07,51.108,51.108,0,0,0-8.076,15.466" transform="translate(-39.749 -16.677)" fill="#ea8744"/>
        <path id="Trazado_210357" data-name="Trazado 210357" d="M512.509,119.426a22.092,22.092,0,0,0-2.006-6.2,15.93,15.93,0,0,1-1.319-6.967,14.3,14.3,0,0,1,.678-3.6c.356-1.1.819-2.166,1.188-3.263a8.542,8.542,0,0,0-.012-6.22c-1.72-4.086-5.818-6.147-9.156-8.7a17.118,17.118,0,0,1-4.471-5.008,23.107,23.107,0,0,1-2.384-6.127c-1.2-4.9-1.121-9.983-1.544-14.98A54.258,54.258,0,0,0,490.872,45.2a37.393,37.393,0,0,0-2.076-4.869c-.04-.125-.072-.251-.114-.375a44.35,44.35,0,0,0-29.927-28.214,24.271,24.271,0,0,0-10.736-.715c-13.006-1.63-26.6,5.746-34.668,16.074-3.392,4.341-6.279,9.4-6.486,14.9-.191,4.789,1.664,9.413,2.428,14.145a45.988,45.988,0,0,1,.132,11.709c-1.038,3.411-2.326,6.753-3.437,9.938-1.628,4.67-3,9.479-3.056,14.46a20.542,20.542,0,0,0,3.806,12.726c2.524,3.347,5.943,5.827,8.907,8.748a21.909,21.909,0,0,1,3.865,4.856,19.457,19.457,0,0,1,2.158,7.089c.632,5.038.172,10.148.629,15.2.428,4.719,1.532,9.472,4.209,13.452a16.174,16.174,0,0,0,9.917,7.08,35.275,35.275,0,0,0,7.026.5,16.526,16.526,0,0,1,4.722,1.313c2.486,1.247,4.191,3.593,6.261,5.455s5.031,3.285,7.568,2.154c2.437-1.081,3.393-3.975,5.039-6.07,4.432-5.646,14.079-5.622,17.5-11.925,1.214-2.236,1.372-4.847,1.772-7.384q.087-.562.2-1.123a20.26,20.26,0,0,1,3.451-7.784,18.862,18.862,0,0,1,1.589-1.679,18.032,18.032,0,0,1,4.9-3.2c1.829-.807,3.8-1.223,5.7-1.854a16.3,16.3,0,0,0,2.528-1.079,15.007,15.007,0,0,0,1.869-.689c3.422-1.543,6.332-4.637,5.967-8.622m-78.733,40.258a15.276,15.276,0,0,1-4.979-3.746c-3.141-3.5-4.7-8.036-5.384-12.626-.757-5.089-.381-10.222-.7-15.337a26.742,26.742,0,0,0-1.258-7.047,17.949,17.949,0,0,0-3.154-5.548c-2.667-3.247-6.141-5.689-9.033-8.716a18.288,18.288,0,0,1-5.423-12.022,37.2,37.2,0,0,1,2.185-14.371c.893-2.756,1.95-5.549,2.936-8.374-.367,2.863-.788,5.725-1.085,8.58-.839,8.108-.432,16.973,4.607,23.384,2.869,3.668,7.043,6.237,10.054,9.7a16.494,16.494,0,0,1,2.187,3.143c2.886,5.472,1.78,12.058,1.547,18.236a41.588,41.588,0,0,0,.715,10.062,26.924,26.924,0,0,0,1.871,5.763,19.163,19.163,0,0,0,10.561,10.208,16.4,16.4,0,0,1-5.644-1.295m77.786-38.149a7.794,7.794,0,0,1-3.084,4.423,11.483,11.483,0,0,1-1.407.9,8.79,8.79,0,0,0,2.041-4.481,12.142,12.142,0,0,0-.341-5.213,26.245,26.245,0,0,0-2.628-5.389,13.518,13.518,0,0,1-1.671-6.261c-.083-2.154.125-4.3.117-6.453a15.355,15.355,0,0,0-1.064-6.029,16.748,16.748,0,0,0-3.293-4.682c-1.356-1.438-2.811-2.777-4.083-4.283a26.718,26.718,0,0,1-3.476-5.322c-.1-.183-.175-.374-.267-.566-.941-10.755-.07-21.783-2.165-32.248a50.974,50.974,0,0,1,2.144,9.846c.593,4.835.516,9.729,1.22,14.553a24.31,24.31,0,0,0,4.534,11.68c2.74,3.467,6.971,5.141,9.975,8.307a8.931,8.931,0,0,1,2.711,5.47c.125,2.281-1,4.371-1.708,6.476a15.219,15.219,0,0,0-.65,6.839,25.459,25.459,0,0,0,2.029,6.25c.8,1.942,1.541,4.065,1.065,6.186" transform="translate(-48.454 -1.287)" fill="#442626"/>
        <path id="Trazado_210358" data-name="Trazado 210358" d="M435.433,218.587a59.247,59.247,0,0,0-12.818,20.586l-.035-.009c-14.621-7.548-29.2-15.3-42.888-24.422-3.158-1.478-6.132-3.5-7.68-6.739-1.619-3.378-1.654-7.188-2.551-10.777-8.454-11.34-4.284-11.665-3.792-12.325a10.805,10.805,0,0,1-1.144-5.49,2.949,2.949,0,0,1,.238-1.205,1.349,1.349,0,0,1,.915-.765,1.688,1.688,0,0,1,1.161.29,17.6,17.6,0,0,1,3.3,2.868,23.486,23.486,0,0,0,3.959,3.088c-.572-1.091.334-3.167,1.566-3.334a5.979,5.979,0,0,1,3.5,1.064c1.205.686,2.41,1.355,3.625,2.032a53.315,53.315,0,0,1,5.6,3.449,4.682,4.682,0,0,1-.484-1.636,1.966,1.966,0,0,1,.765-1.812,2.674,2.674,0,0,1,2.34.07,48.525,48.525,0,0,1,5.314,2.886c5.912,3.211,13.047,4.02,18.483,8,3.827,2.789,6.457,6.9,8.762,11.041a60.138,60.138,0,0,0,4.724,7.733,15.268,15.268,0,0,0,7.126,5.384Z" transform="translate(-43.798 -21.335)" fill="#ed8864"/>
        <path id="Trazado_210359" data-name="Trazado 210359" d="M392.421,189.238c2.142,1.424,4.151,2.974,6.174,4.51,2.008,1.559,4.021,3.1,5.947,4.806a42.486,42.486,0,0,1-12.121-9.316" transform="translate(-47.19 -22.757)" fill="#f4e5d9"/>
        <path id="Trazado_210360" data-name="Trazado 210360" d="M376.616,185.855c.925.726,1.824,1.478,2.739,2.215l2.683,2.277c1.789,1.518,3.53,3.088,5.271,4.658s3.455,3.172,5.134,4.809l2.519,2.458c.818.844,1.657,1.664,2.456,2.528-.933-.716-1.831-1.474-2.746-2.208l-2.684-2.277c-1.788-1.518-3.53-3.089-5.271-4.659-1.726-1.586-3.453-3.173-5.133-4.81s-3.369-3.265-4.969-4.99" transform="translate(-45.29 -22.35)" fill="#f4e5d9"/>
        <path id="Trazado_210361" data-name="Trazado 210361" d="M366.316,186.573c1.881,2.061,3.734,4.137,5.624,6.176s3.792,4.065,5.732,6.053,3.9,3.958,5.871,5.917q1.482,1.469,2.994,2.908l3,2.908c-1.123-.829-2.2-1.713-3.29-2.586q-1.6-1.349-3.169-2.736c-2.089-1.851-4.089-3.8-6.039-5.8-1.935-2.012-3.823-4.071-5.607-6.219s-3.521-4.332-5.118-6.621" transform="translate(-44.051 -22.436)" fill="#f4e5d9"/>
        <path id="Trazado_210362" data-name="Trazado 210362" d="M370.793,200.645c2.339,2.637,4.462,5.421,6.734,8.062a73.282,73.282,0,0,0,7.281,7.509,31.8,31.8,0,0,1-7.949-6.938,60.973,60.973,0,0,1-6.066-8.633" transform="translate(-44.589 -24.128)" fill="#f4e5d9"/>
        <path id="Trazado_210363" data-name="Trazado 210363" d="M235.463,301.093c-.216.566-.449,1.13-.7,1.688a39.853,39.853,0,0,1-13.479,16.531c-.5.357-1,.691-1.514,1.014A441.688,441.688,0,0,1,176.6,293.576q-4.752-3.331-9.421-6.793c-2.911-2.162-5.8-4.366-8.541-6.727l-.017.017a93.248,93.248,0,0,0,3.792,19.375c1.156,3.726,2.553,7.684,1.456,11.426a9.732,9.732,0,0,1-1.647,3.177,13.548,13.548,0,0,1-5.455,4.074,31.679,31.679,0,0,1-10.253,1.955q-5.875.4-11.783.415c-3.925.017-7.9-.091-11.717.8-2.154.5-4.216,1.306-6.336,1.9-10.261,2.86-21.372.6-31.109-3.726a25.876,25.876,0,0,0-5.048-1.888,22.839,22.839,0,0,0-5.979-.166,68.448,68.448,0,0,1-15.442-.441,27.663,27.663,0,0,1-12.615-5.346c-.424-.333-.831-.691-1.231-1.064a4.678,4.678,0,0,1-1.264-1.672c-.607-1.589.416-3.293,1.264-4.765,2.337-4.034,2.27-15.068,2.536-19.883-5.513-7.126-11.442-18.769-13.214-27.4-1.871-9.114-2.079-18.486-1.746-27.774a242.049,242.049,0,0,1,6.586-48.056,56.033,56.033,0,0,1,4.174-12.44,31.734,31.734,0,0,1,3.16-5.347,33.162,33.162,0,0,1,11.277-9.28,89.586,89.586,0,0,1,13.347-5.8,105.422,105.422,0,0,1,28.78-5.454,127.353,127.353,0,0,1,29.42,1.979,140.371,140.371,0,0,1,14.42,3.418c4.831,1.423,9.72,3.027,13.837,6.012a.8.8,0,0,1,.117.125,29.423,29.423,0,0,1,3.9,3.442,33.922,33.922,0,0,1,5.97,8.773c4.025,8.516,4.964,18.112,5.846,27.483q2.482,26.419,4.956,52.83c.233.224.457.441.691.656.748.724,1.5,1.447,2.253,2.162l7.484,7.16q14.868,14.207,29.737,28.422,8.344,7.984,16.681,15.95" transform="translate(-3.932 -17.138)" fill="#f4e5d9"/>
        <path id="Trazado_210364" data-name="Trazado 210364" d="M136.731,207.776a12.565,12.565,0,0,1,3.274,4.619,45.513,45.513,0,0,1,1.833,5.339c1.066,3.574,2.095,7.158,2.98,10.78.863,3.629,1.606,7.29,2.526,10.9s1.993,7.185,3.113,10.743,2.257,7.1,3.464,10.6a93.328,93.328,0,0,0,4.234,10.215,54.477,54.477,0,0,0,5.711,9.387,50.58,50.58,0,0,0,7.671,7.987l-.1.135a38.789,38.789,0,0,1-8.585-7.29,45.129,45.129,0,0,1-6.288-9.431,69.947,69.947,0,0,1-4.13-10.51c-1.131-3.579-2.034-7.213-2.859-10.853s-1.715-7.261-2.755-10.842-2.249-7.115-3.341-10.682c-1.071-3.572-2-7.183-2.887-10.805-.449-1.814-.842-3.618-1.416-5.357a14.069,14.069,0,0,0-2.564-4.82Z" transform="translate(-16.429 -24.986)" fill="#442626"/>
        <path id="Trazado_210365" data-name="Trazado 210365" d="M57.075,324.222a22.682,22.682,0,0,1,6.995,2.454,61.145,61.145,0,0,1,6.279,3.893c2,1.4,3.976,2.8,6,4.121A46.729,46.729,0,0,0,82.72,338.2a22.111,22.111,0,0,1-7.022-2.382,57.684,57.684,0,0,1-6.294-3.877c-2-1.4-3.974-2.813-5.987-4.144a48.834,48.834,0,0,0-6.342-3.571" transform="translate(-6.864 -38.989)" fill="#442626"/>
        <path id="Trazado_210366" data-name="Trazado 210366" d="M58.652,195.34c-.867,3.937-1.6,7.884-2.078,11.861s-.729,7.97-.832,11.972a82.511,82.511,0,0,0,.447,12.016c.484,3.992,1.456,7.9,2.315,11.846.426,1.973.834,3.961,1.086,5.98a53.014,53.014,0,0,1,.39,6.094,61.918,61.918,0,0,1-1.242,12.123,128.514,128.514,0,0,1-7.525,23.023l-.125-.044c2.273-7.735,4.8-15.39,6.269-23.25A72.267,72.267,0,0,0,58.738,255.1c.014-1.99-.025-3.982-.19-5.969-.189-1.985-.435-3.975-.755-5.958-1.365-7.919-2.985-15.876-3.15-24A71.015,71.015,0,0,1,58.525,195.3Z" transform="translate(-6.143 -23.486)" fill="#442626"/>
        <path id="Trazado_210367" data-name="Trazado 210367" d="M514.855,291.635a43.935,43.935,0,0,0,12.254-3.141c2-.755,4.007-1.452,5.853-2.339a22.838,22.838,0,0,0,5.073-3.336A39.449,39.449,0,0,0,546,273.081c2.2-3.672,4.191-7.473,6.076-11.325s3.786-7.7,5.783-11.483c1.967-3.8,3.941-7.6,5.986-11.366,4.151-7.491,8.382-14.938,13.018-22.19l.222.114c-3.209,7.988-6.94,15.721-10.9,23.333-2.007,3.79-4.111,7.529-6.262,11.241-2.119,3.729-4.356,7.393-6.659,11.017s-4.51,7.3-6.568,11.064c-2.084,3.734-4.06,7.678-7.256,10.86a18.436,18.436,0,0,1-5.545,3.811,47.735,47.735,0,0,1-6.178,2.173,45.236,45.236,0,0,1-6.35,1.479,21.613,21.613,0,0,1-6.525.076Z" transform="translate(-61.912 -26.061)" fill="#f4e5d9"/>
        <path id="Trazado_210368" data-name="Trazado 210368" d="M663.716,212.062a48.483,48.483,0,0,1-.384,7.455,52.189,52.189,0,0,1-1.375,7.3c-.679,2.39-1.629,4.708-2.287,7.09a73.135,73.135,0,0,0-1.62,7.244c-.242,1.217-.455,2.444-.724,3.656s-.6,2.408-.917,3.607c-.661,2.39-1.346,4.778-2.193,7.11a74.548,74.548,0,0,1-6.447,13.427l-.23-.1c1.168-4.856,2.657-9.533,4.16-14.206.382-1.167.776-2.327,1.211-3.475l1.248-3.465c.794-2.323,1.67-4.624,2.575-6.925.427-1.158.857-2.316,1.219-3.494s.671-2.37.934-3.574q.351-1.816.58-3.657c.137-1.231.272-2.459.459-3.675s.388-2.427.679-3.621c.25-1.2.518-2.4.823-3.594.281-1.2.583-2.392.931-3.581.321-1.194.675-2.383,1.109-3.565Z" transform="translate(-77.869 -25.497)" fill="#f4e5d9"/>
        <path id="Trazado_210369" data-name="Trazado 210369" d="M646.64,320.426a7.793,7.793,0,0,1,2.854,1.64,10.928,10.928,0,0,1,3.347,5.456,7.738,7.738,0,0,1,.161,3.288,21.465,21.465,0,0,1-1.954-2.493c-.567-.824-1.093-1.641-1.6-2.471s-1-1.67-1.474-2.549a21.994,21.994,0,0,1-1.335-2.871" transform="translate(-77.761 -38.533)" fill="#f4e5d9"/>
        <path id="Trazado_210370" data-name="Trazado 210370" d="M586.5,130.567a13.839,13.839,0,0,1,5.414.339,22.524,22.524,0,0,1,5.075,2.017,45.26,45.26,0,0,1,4.607,2.854c1.484,1.015,2.91,2.1,4.311,3.206a78.707,78.707,0,0,0,8.553,6.36,29.532,29.532,0,0,0,9.886,3.709,41.962,41.962,0,0,0,10.487.545,39.642,39.642,0,0,0,10.2-2.148,24.086,24.086,0,0,0,4.654-2.211,24.832,24.832,0,0,0,4.065-3.208,76.4,76.4,0,0,0,6.878-8.1l.138.092a50.185,50.185,0,0,1-6.075,8.915,23.159,23.159,0,0,1-4.126,3.648,23.588,23.588,0,0,1-4.921,2.525,35.472,35.472,0,0,1-10.721,2.046,34.824,34.824,0,0,1-10.78-1.22,44.434,44.434,0,0,1-9.951-4.129,104.4,104.4,0,0,1-9.111-5.717c-2.923-2.045-5.725-4.236-8.724-6.047a20.253,20.253,0,0,0-9.846-3.313Z" transform="translate(-70.529 -15.686)" fill="#f4e5d9"/>
        <path id="Trazado_210371" data-name="Trazado 210371" d="M656.718,119.66a3.472,3.472,0,0,0-1.136,1.646c-.252.643-.53,1.345-.842,2a20.4,20.4,0,0,1-2.22,3.779c-.9,1.166-1.994,2.174-2.98,3.239s-1.96,2.147-2.993,3.2a15.115,15.115,0,0,1-3.519,2.745,15.417,15.417,0,0,1-4.184,1.69,12,12,0,0,1-8.755-1.131l.059-.156a18.805,18.805,0,0,0,8.27-.435,23.263,23.263,0,0,0,3.888-1.364,31.663,31.663,0,0,0,3.661-2.051,13.6,13.6,0,0,0,3.165-2.857,25.447,25.447,0,0,0,2.236-3.654c.706-1.233,1.474-2.423,2.242-3.631.4-.605.754-1.2,1.2-1.815a3.036,3.036,0,0,1,1.847-1.364Z" transform="translate(-75.771 -14.371)" fill="#f4e5d9"/>
        <path id="Trazado_210372" data-name="Trazado 210372" d="M289.717,311.209c3.486,3.618,5.342,8.463,7.111,13.161a9.506,9.506,0,0,0-.838-.473,18.5,18.5,0,0,0-7.891-1.639c-3.03-.085-6.087.134-9.064-.4-5.721-1.013-10.589-4.6-15.229-8.081,2.362.939,5-.037,7.511-.4,4.583-.67,9.145.732,13.45,2.623a21.615,21.615,0,0,1-3.376-2.082,20.771,20.771,0,0,1-3.9-4.466,96.206,96.206,0,0,1-7.764-13.223c4.536,7.065,14.174,8.928,19.99,14.983" transform="translate(-31.724 -35.622)" fill="#93c1bf"/>
        <path id="Trazado_210373" data-name="Trazado 210373" d="M298.294,328.752c-.009.033-.009.076-.017.118a.39.39,0,0,1,.017.4c-.017.033-.042.068-.059.1-.059.566-.127,1.139-.228,1.7a43.5,43.5,0,0,1-4,11.306c-1.864,3.881-3.83,7.72-5.746,11.567q-2.948,5.922-5.906,11.846c-.978,1.974-1.965,3.948-2.945,5.922-.928,1.864-1.8,3.779-2.818,5.593a5.819,5.819,0,0,1-3.476,3.164,3.79,3.79,0,0,1-2.033-.068c-.507-.169-1.325-.608-1.476-1.181-.093-.362.236-.919.379-1.248a10.655,10.655,0,0,1,.641-1.182c.506-.827,1.1-1.594,1.687-2.379,1.156-1.569,2.312-3.147,3.45-4.742,3.113-4.336,6.126-8.766,8.918-13.313a82.774,82.774,0,0,1-12.622,14.14q-2.164,1.911-4.463,3.645c-.793.607-1.6,1.189-2.43,1.763a3.567,3.567,0,0,1-2.4.937,1.386,1.386,0,0,1-1.215-1.452,3.023,3.023,0,0,1,1.257-1.949,25.674,25.674,0,0,1,2.429-1.544c.852-.566,1.679-1.156,2.489-1.781,6.506-5.062,11.272-11.972,15.4-19.017q1.025-1.771,2.034-3.568c-.937,1.012-1.873,2.008-2.835,2.987-5.644,5.728-11.753,10.959-17.861,16.173l-2.623,2.244a8.066,8.066,0,0,1-2.2,1.511,2.09,2.09,0,0,1-2.051-.11,1.636,1.636,0,0,1-.54-1.856c.582-1.637,2.557-2.354,3.932-3.13q2.506-1.43,4.885-3.079A94.57,94.57,0,0,0,283,346.554c3.206-3.653,6.218-7.475,9.163-11.339,1.553-2.564,3.189-5.071,4.994-7.475a.462.462,0,0,1,.785.093.355.355,0,0,1,.4.4v.009a.37.37,0,0,1,.026.287,2.235,2.235,0,0,0-.068.228" transform="translate(-30.9 -39.39)" fill="#93c1bf"/>
        <path id="Trazado_210374" data-name="Trazado 210374" d="M331.353,346.685C325.293,343.544,319,340.2,315.1,334.6a41.35,41.35,0,0,1-2.377-3.986c-.876-1.613-1.76-3.222-2.631-4.826a20.751,20.751,0,0,1,13.769,6.99,36.3,36.3,0,0,1,7.494,13.906" transform="translate(-37.29 -39.177)" fill="#93c1bf"/>
        <path id="Trazado_210375" data-name="Trazado 210375" d="M331.169,321.541a3.814,3.814,0,0,1-1.324,1.616c-.3.2-.676.347-.849.684a2.93,2.93,0,0,0-.173.977,4.808,4.808,0,0,1-1.6,3.589,7.444,7.444,0,0,1-3.424,1.013,6.28,6.28,0,0,0-1.944.548,4.6,4.6,0,0,0-1.416,1.37c-.786,1.031-1.6,1.99-2.977,2.118-1.589.137-2.94-.757-4.364-1.278-1.689-.6-3.3-.164-4.957.32-1.306.384-2.913.949-4.264.438-1.278-.484-1.616-1.818-1.644-3.059-.027-1.306.055-2.6-.063-3.908a2.087,2.087,0,0,1-1.342-.173c-.548-.275-.886-.667-1.525-.356-.438.219-.813.557-1.224.8a4.2,4.2,0,0,1-2.7.7c-1.461-.219-2.081-1.552-2.675-2.73a3.116,3.116,0,0,0-1.169-1.5c-.776-.4-1.725-.046-2.529.064a2.7,2.7,0,0,1-3.168-1.955c-.521-1.616.165-3.341-.338-4.93-.465-1.47-2.173-1.753-3.232-2.648-1.306-1.1-1-2.776-.082-4.018a8.073,8.073,0,0,1,7.368-3.077,2.556,2.556,0,0,1,.758-2.466,4.536,4.536,0,0,1,4.136-.712,11.324,11.324,0,0,1,3.78,1.963,4.141,4.141,0,0,0,1.817.776,4.909,4.909,0,0,0,1.818-.246,11.392,11.392,0,0,1,3.625-.867,3.362,3.362,0,0,1,2.74,1.68c1.57,2.6.064,5.7,1.114,8.41a10.782,10.782,0,0,1,.749,2.182,4.654,4.654,0,0,1-.119,1.909,7.749,7.749,0,0,1-.73,1.707,3.27,3.27,0,0,0,1.607-.374,2.267,2.267,0,0,0,1.224-1.845,3.3,3.3,0,0,1,.712-2.09,1.822,1.822,0,0,1,1.917-.3c.713.219,1.407.484,2.137.676a18.308,18.308,0,0,0,5.223.53c1.662-.073,3.241-.557,4.894-.684a4.13,4.13,0,0,1,3.8,1.516,3.666,3.666,0,0,1,.42,3.625" transform="translate(-33.838 -36.412)" fill="#f27242"/>
        <path id="Trazado_210376" data-name="Trazado 210376" d="M309.493,300.335a5,5,0,0,0-2.966.717,4.548,4.548,0,0,1-1.182.653.994.994,0,0,1-1.173-.435l-.143-.033c.121-.5.217-.991.3-1.495a5.727,5.727,0,0,0,.039-2.2,2.249,2.249,0,0,0-1.336-1.657c-1.4-.484-2.832.953-4.3.748-1-.14-1.826-1.036-2.849-1.016-1.618.026-2.678,2.323-4.262,2a6.837,6.837,0,0,1-1.182-.52.91.91,0,0,0-1.457.769,7.557,7.557,0,0,0,.463,2.462,2.86,2.86,0,0,1-.23,2.433l-.009.037a3.923,3.923,0,0,1-2.077-1.269c1.329,2.2,3.885,3.273,6.079,4.608a8.888,8.888,0,0,1,3.667,3.854,4.354,4.354,0,0,1,.3,1.043,16.627,16.627,0,0,0-4.981-3.271c-1.289-.589-2.634-1.087-3.955-1.568-1.6-.584-3.187-1.163-4.773-1.748a6.154,6.154,0,0,1-2.069-1.063,3.218,3.218,0,0,1,.833-5.084,1.068,1.068,0,0,0,.558-.363c.282-.466-.349-.929-.59-1.416-.46-.931.61-1.9,1.6-2.231a7.779,7.779,0,0,1,6.534.8c.721-.906.5-2.2.367-3.36-.119-1.067.011-2.373.87-2.937a.929.929,0,0,1,.212-.125c.86-.4,1.955.025,2.886.034a1.949,1.949,0,0,0,.281-.016,1.37,1.37,0,0,0,.89-.393c.4-.393.489-1.03.915-1.393a1.308,1.308,0,0,1,1.148-.243,2.735,2.735,0,0,1,1.145.606,8.684,8.684,0,0,0,1.877,1.68,3.925,3.925,0,0,0,3.438-.49,2.835,2.835,0,0,1,.977-.392,2.149,2.149,0,0,1,1.862,1.122c1.672,2.471,1.045,5.94,2.553,8.519Z" transform="translate(-33.731 -34.467)" fill="#f27242"/>
        <path id="Trazado_210377" data-name="Trazado 210377" d="M325.848,308.922a8.666,8.666,0,0,1-4.839,1.628c-1.063.088-2.147.1-3.2.133a13.766,13.766,0,0,0-4.436.78,5.773,5.773,0,0,0-2.469,1.692l-.185-.142a9.7,9.7,0,0,0,.87-2.286,5.226,5.226,0,0,1,5.3-3.27l.006,0,.623.414a4.548,4.548,0,0,0,1.858-.976,2.524,2.524,0,0,0-1.819-3.9,16.623,16.623,0,0,0-1.869.1,1.7,1.7,0,0,1-1.593-.781c-.154-.328-.155-.763-.448-.983a1.031,1.031,0,0,0-.52-.148l.257-2.64c.505-1.33,1-2.666,1.511-4a1.449,1.449,0,0,1,.379-.647,1.363,1.363,0,0,1,1.518.1,6.11,6.11,0,0,1,2.821,3.472,1.6,1.6,0,0,0,.421.816c.365.289.885.158,1.346.169a1.968,1.968,0,0,1,1.109.38,2.106,2.106,0,0,1,.9,1.82,13.591,13.591,0,0,0-.288,1.643c.063,1.254,1.424,1.85,2.518,2.6a2.727,2.727,0,0,1,1.375,1.737,2.633,2.633,0,0,1-1.145,2.279" transform="translate(-37.366 -35.32)" fill="#f27242"/>
        <path id="Trazado_210378" data-name="Trazado 210378" d="M304.16,305.889c-1.5-.549-2.865-1.731-4.442-2.161-1.911-.532-3.935.071-5.9.377a8.4,8.4,0,0,1-3.45-.084l.01-.037a2.857,2.857,0,0,0,.229-2.433,7.547,7.547,0,0,1-.462-2.462.909.909,0,0,1,1.456-.768,7,7,0,0,0,1.181.52c1.584.322,2.645-1.973,4.263-2,1.022-.021,1.847.876,2.849,1.015,1.469.2,2.9-1.232,4.3-.747a2.247,2.247,0,0,1,1.337,1.657,5.727,5.727,0,0,1-.04,2.2c-.084.5-.18,1-.3,1.495a26.279,26.279,0,0,1-.771,2.775Z" transform="translate(-34.89 -35.696)" fill="#f27242"/>
        <path id="Trazado_210379" data-name="Trazado 210379" d="M314.494,308.69c-.109-.018-.212-.031-.326-.043l-.005,0a5.225,5.225,0,0,0-5.3,3.27,9.737,9.737,0,0,1-.871,2.286,1.958,1.958,0,0,1-.3.337,2.952,2.952,0,0,1-1.685.64,9.7,9.7,0,0,1-6.193-1.648,18.947,18.947,0,0,1-2.03-1.5,8.878,8.878,0,0,0-3.667-3.854c-2.194-1.335-4.75-2.409-6.079-4.608a3.927,3.927,0,0,0,2.077,1.269,8.434,8.434,0,0,0,3.45.084c1.967-.306,3.991-.91,5.9-.377,1.577.43,2.942,1.613,4.442,2.162a4.291,4.291,0,0,0,1.65.291c1.035-.038,2-.528,3.027-.655,2.154-.266,4.153,1.076,5.908,2.356" transform="translate(-34.638 -36.505)" fill="#f27242"/>
        <path id="Trazado_210380" data-name="Trazado 210380" d="M318.818,307.921a4.539,4.539,0,0,1-1.857.976l-.624-.414c.113.012.216.026.326.043-1.756-1.28-3.754-2.622-5.909-2.356-1.03.128-1.991.618-3.026.655a4.271,4.271,0,0,1-1.65-.291l.258-.649a26.211,26.211,0,0,0,.771-2.774l.142.033a.994.994,0,0,0,1.173.435,4.549,4.549,0,0,0,1.182-.653,5,5,0,0,1,2.966-.717,1.026,1.026,0,0,1,.52.148c.294.22.294.655.449.983a1.693,1.693,0,0,0,1.593.781,16.591,16.591,0,0,1,1.869-.1,2.524,2.524,0,0,1,1.819,3.9" transform="translate(-36.807 -36.34)" fill="#f27242"/>
        <path id="Trazado_210381" data-name="Trazado 210381" d="M310.89,321.218c-1.027.9-2.438,1.6-3.717,1.132a4,4,0,0,0-1.218-.433c-.611-.022-1.006.406-1.378.912a5.211,5.211,0,0,1-1.314,1.452c-.985.56-2.236-.044-3.087-.8a6.8,6.8,0,0,0-2.74-1.953c-1.6-.355-3.633.81-4.755-.4-1.221-1.321.329-3.961-1.076-5.075-.7-.567-1.787-.355-2.559-.816-1.24-.728-.947-2.767.186-3.654a6.367,6.367,0,0,1,3.895-.944,16.627,16.627,0,0,1,4.981,3.271,4.356,4.356,0,0,0-.3-1.043,18.856,18.856,0,0,0,2.03,1.5,9.7,9.7,0,0,0,6.192,1.648,2.955,2.955,0,0,0,1.686-.64,2,2,0,0,0,.3-.337l.185.142a5.767,5.767,0,0,1,2.469-1.692l.51.463a3.358,3.358,0,0,1,1.924,3.582,4.56,4.56,0,0,1-.513,1.595,7.333,7.333,0,0,1-1.7,2.077" transform="translate(-34.662 -37.357)" fill="#f27242"/>
        <path id="Trazado_210382" data-name="Trazado 210382" d="M328.253,318.36c-.153.055-.3.114-.445.184a9.441,9.441,0,0,1-2.1.812,1.96,1.96,0,0,1-2.26-1.061l-.263-.311a1.206,1.206,0,0,0,.368-.378c.329-.615-.376-1.339-.26-2.03.115-.716,1.038-1.069,1.2-1.778s-.567-1.337-1.279-1.484a2.618,2.618,0,0,0-.611-.057l-.191-.459a8.673,8.673,0,0,0,4.839-1.628,2.633,2.633,0,0,0,1.145-2.279,2.725,2.725,0,0,0-1.375-1.737l.21-.318a4.374,4.374,0,0,1,2.206-1.724,1.79,1.79,0,0,1,1.494.388,1.147,1.147,0,0,1,.437,1.071c-.045.22-.157.425-.187.648-.087.7.6,1.251,1.26,1.523a3.348,3.348,0,0,1,1.781,1.1c.589.981-.29,2.216-1.268,2.825-.587.369-1.316.792-1.31,1.482a2.331,2.331,0,0,0,.307.89,2.738,2.738,0,0,1,.118,2.3c-.635,1.342-2.428,1.5-3.819,2.023" transform="translate(-38.772 -36.566)" fill="#f27242"/>
        <path id="Trazado_210383" data-name="Trazado 210383" d="M322.512,318.661a1.216,1.216,0,0,1-.368.378,5.859,5.859,0,0,1-4.015.918,12.564,12.564,0,0,1-2.47-.552,4.548,4.548,0,0,0,.513-1.595,3.358,3.358,0,0,0-1.924-3.582l-.51-.463a13.793,13.793,0,0,1,4.437-.779c1.05-.035,2.136-.046,3.2-.133l.191.459a2.625,2.625,0,0,1,.611.057c.711.146,1.44.775,1.278,1.484s-1.086,1.062-1.2,1.778c-.114.691.589,1.415.26,2.03" transform="translate(-37.728 -37.622)" fill="#f27242"/>
        <path id="Trazado_210384" data-name="Trazado 210384" d="M323.043,326.5a1.575,1.575,0,0,0-.78.36c-.325.366-.186.935-.243,1.424,0,.032-.014.068-.018.1a1.767,1.767,0,0,1-1.6,1.3,4.15,4.15,0,0,1-2.131-.481,4.484,4.484,0,0,0-1.2-.421,4.074,4.074,0,0,0-2.023.457,9.34,9.34,0,0,1-3.225.835,3.7,3.7,0,0,1-3-1.21c-1.127-1.393-.778-3.618-2.011-4.922.372-.506.767-.934,1.378-.912a4,4,0,0,1,1.218.433c1.279.468,2.69-.238,3.717-1.132a7.346,7.346,0,0,0,1.7-2.077,12.56,12.56,0,0,0,2.47.552,5.856,5.856,0,0,0,4.014-.918l.263.311a1.961,1.961,0,0,0,2.261,1.061,9.443,9.443,0,0,0,2.1-.812,2.4,2.4,0,0,1,.688,1.025,3.319,3.319,0,0,1-.219,2.684,4.352,4.352,0,0,1-1.47,1.524,6.435,6.435,0,0,1-1.887.823" transform="translate(-36.895 -38.467)" fill="#f27242"/>
        <path id="Trazado_210385" data-name="Trazado 210385" d="M330.9,303.5a1.79,1.79,0,0,0-1.494-.388,4.368,4.368,0,0,0-2.2,1.724l-.211.318c-1.094-.751-2.454-1.348-2.517-2.6a13.3,13.3,0,0,1,.288-1.644,2.107,2.107,0,0,0-.9-1.819l-1.692-1.851c.212-.621.933-.875,1.562-1.049a6.821,6.821,0,0,1,2.7-.355,2.346,2.346,0,0,1,2.03,1.6c.141.553.017,1.22.418,1.63.493.511,1.374.216,2.044.455a1.752,1.752,0,0,1,.994,1.879,1.165,1.165,0,0,1-.019.16,4.553,4.553,0,0,1-1,1.942" transform="translate(-38.743 -35.572)" fill="#f27242"/>
        <path id="Trazado_210386" data-name="Trazado 210386" d="M334.245,318.678a2.8,2.8,0,0,1-2.324,1.178,8.289,8.289,0,0,1-2.654-.527l-.033.011a2.387,2.387,0,0,0-.688-1.025c.145-.069.292-.128.445-.184,1.391-.52,3.184-.682,3.819-2.023a2.738,2.738,0,0,0-.118-2.3,2.331,2.331,0,0,1-.307-.89c-.006-.691.723-1.114,1.31-1.482.977-.609,1.857-1.845,1.268-2.825a3.348,3.348,0,0,0-1.781-1.1c-.656-.272-1.347-.822-1.26-1.523.03-.223.143-.428.187-.648a1.147,1.147,0,0,0-.437-1.071,4.559,4.559,0,0,0,1-1.942,1.175,1.175,0,0,0,.019-.16,6.114,6.114,0,0,1,2.694.617,3.159,3.159,0,0,1,1.8,2.85c-.075,1.023-.792,1.959-.671,2.975.179,1.5,2.093,2.514,1.872,4.006-.23,1.538-2.437,1.853-3.246,3.183-.526.864-.363,2.016-.889,2.879" transform="translate(-39.509 -36.337)" fill="#f27242"/>
        <path id="Trazado_210387" data-name="Trazado 210387" d="M306.992,323.267a1.539,1.539,0,0,1,1.421-1.494,4.578,4.578,0,0,1,2.087.334,2.842,2.842,0,0,0,1.867.249,2.189,2.189,0,0,0,1.225-1.411c.208-.611.286-1.27.469-1.94A6.678,6.678,0,0,1,314.4,318a5.241,5.241,0,0,0,.341-.862,2.166,2.166,0,0,0-.353-1.645,5.421,5.421,0,0,0-1.39-1.361l.032-.063a4.013,4.013,0,0,1,1.8,1.084,2.521,2.521,0,0,1,.648,2.147,4.154,4.154,0,0,1-.411,1.013,6.051,6.051,0,0,0-.369.886,9.557,9.557,0,0,1-.755,1.914,3.4,3.4,0,0,1-1.491,1.46,3.557,3.557,0,0,1-2.106.1,8.808,8.808,0,0,0-1.877-.357,1.456,1.456,0,0,0-1.4.956Z" transform="translate(-36.917 -37.768)" fill="#f2ac56"/>
        <path id="Trazado_210388" data-name="Trazado 210388" d="M315.292,319.806a1.261,1.261,0,0,1,.844-.486,3.14,3.14,0,0,1,.97.012c.625.1,1.172.208,1.763.292a7.091,7.091,0,0,0,1.779.144,1.7,1.7,0,0,0,1.417-.823,1,1,0,0,0,.1-.713,3.1,3.1,0,0,0-.374-.716,1.481,1.481,0,0,1-.243-1.126,1.915,1.915,0,0,1,.645-.889,1.521,1.521,0,0,0,.471-.56,1.249,1.249,0,0,0-.292-1.383,1.817,1.817,0,0,1-.514-.8l.065-.026a2.259,2.259,0,0,0,.683.553,1.626,1.626,0,0,1,.665.789,1.7,1.7,0,0,1,.04,1.088,2.046,2.046,0,0,1-.6.887c-.484.45-.605.6-.331,1.15a2.763,2.763,0,0,1,.351.946,1.413,1.413,0,0,1-.338,1.013,2.682,2.682,0,0,1-1.706.835,10.912,10.912,0,0,1-1.861.214,6.515,6.515,0,0,1-1.825-.341,2.1,2.1,0,0,0-1.656-.011Z" transform="translate(-37.915 -37.608)" fill="#f2ac56"/>
        <path id="Trazado_210389" data-name="Trazado 210389" d="M323.24,318.307a4.45,4.45,0,0,0,3.186.926,5.04,5.04,0,0,0,1.631-.178,2.113,2.113,0,0,0,1.157-.966,4.381,4.381,0,0,1,1.226-1.355,11.621,11.621,0,0,0,1.442-.981,1.712,1.712,0,0,0,.589-1.47c-.091-.541-.672-.794-1.056-1.324a.989.989,0,0,1-.078-1.05,6.2,6.2,0,0,1,.508-.767,8.351,8.351,0,0,0,.9-1.424,2.2,2.2,0,0,0,.15-1.477,1.406,1.406,0,0,0-.973-.955,3.53,3.53,0,0,1-.846-.491,1.748,1.748,0,0,1-.539-.918c-.15-.622-.191-1.145-.588-1.377a1.523,1.523,0,0,0-1.453-.007,5.5,5.5,0,0,0-1.342,1.058l-.054-.046a4.649,4.649,0,0,1,1.219-1.323,1.914,1.914,0,0,1,1.906-.16,1.531,1.531,0,0,1,.688.8c.126.31.186.608.275.856a1.164,1.164,0,0,0,.354.564,3,3,0,0,0,.687.356,2.751,2.751,0,0,1,.855.524,1.875,1.875,0,0,1,.523.933,2.893,2.893,0,0,1-.26,1.943,7.327,7.327,0,0,1-1.058,1.487c-.179.221-.391.455-.526.654a.543.543,0,0,0-.018.613c.245.441.852.811.974,1.486a2.1,2.1,0,0,1-.67,1.675c-.428.436-.94.752-1.364,1.13a4.089,4.089,0,0,0-.97,1.357,3.054,3.054,0,0,1-.586.764,2.331,2.331,0,0,1-.875.484,4.866,4.866,0,0,1-1.851.129,7.142,7.142,0,0,1-1.774-.354,2.749,2.749,0,0,1-1.439-1.075Z" transform="translate(-38.864 -36.538)" fill="#f2ac56"/>
        <path id="Trazado_210390" data-name="Trazado 210390" d="M332.328,304.663a.37.37,0,0,1-.576.024l-.115-.111.146-.242a.969.969,0,0,1,.223-.278,2,2,0,0,1,.355-.144c.248-.1.283-.383.291-.618a3.926,3.926,0,0,1,.121-.6c.068-.187.15-.362.267-.647l.067-.024a.875.875,0,0,1,.383.779,1.168,1.168,0,0,1-.348.76c-.224.187-.481.287-.552.552a1.362,1.362,0,0,1-.141.382.915.915,0,0,1-.3.226l.031-.353c-.034.026-.024.142.121.228Z" transform="translate(-39.881 -36.319)" fill="#f2ac56"/>
        <path id="Trazado_210391" data-name="Trazado 210391" d="M310.994,313.8a5.643,5.643,0,0,1,2.727-2.2,10.5,10.5,0,0,1,3.453-.733c1.166-.06,2.321,0,3.464-.132a8.287,8.287,0,0,0,3.237-1.027,6.4,6.4,0,0,0,1.3-1.028,2.989,2.989,0,0,0,.807-1.3,1.092,1.092,0,0,0-.549-1.13c-.416-.3-.951-.547-1.46-.918a2.647,2.647,0,0,1-.682-.735,1.907,1.907,0,0,1-.27-1,8.516,8.516,0,0,1,.326-1.769,2.085,2.085,0,0,0-.106-1.532,1.9,1.9,0,0,0-1.269-.955l.007-.07a1.976,1.976,0,0,1,1.564.833,2.428,2.428,0,0,1,.348,1.816,8.355,8.355,0,0,0-.19,1.649,1.482,1.482,0,0,0,.72,1.153c.422.314.955.544,1.461.94a2.179,2.179,0,0,1,.652.793,1.62,1.62,0,0,1,.1,1.066,3.3,3.3,0,0,1-1.066,1.559,5.91,5.91,0,0,1-1.515.968,12.892,12.892,0,0,1-3.384.911c-1.147.183-2.3.331-3.439.489a17,17,0,0,0-3.316.66,6.816,6.816,0,0,0-2.864,1.735Z" transform="translate(-37.398 -35.988)" fill="#f2ac56"/>
        <path id="Trazado_210392" data-name="Trazado 210392" d="M310.33,313.477a11.879,11.879,0,0,1,1.4-3.339A4.482,4.482,0,0,1,313,308.726a2.312,2.312,0,0,1,.945-.379,3.273,3.273,0,0,1,.974.025,6.779,6.779,0,0,0,1.727.109,3.386,3.386,0,0,0,1.626-.52,2.582,2.582,0,0,0,1.038-1.331,1.908,1.908,0,0,0-.183-1.6,1.572,1.572,0,0,0-1.277-.784c-.531-.04-1.1.121-1.744.145a3.6,3.6,0,0,1-1.927-.362,2.4,2.4,0,0,1-.773-.685c-.2-.255-.356-.5-.525-.693a2.116,2.116,0,0,0-1.317-.7,2.36,2.36,0,0,0-1.531.342,5.5,5.5,0,0,1-1.71.7,1.938,1.938,0,0,1-1.715-.631l.049-.051a1.851,1.851,0,0,0,1.6.332,5.911,5.911,0,0,0,1.5-.834,4.14,4.14,0,0,1,.866-.422,2.7,2.7,0,0,1,1.007-.117,2.723,2.723,0,0,1,1.81.874c.446.524.675,1.009,1.1,1.241a2.926,2.926,0,0,0,1.54.335,11.971,11.971,0,0,1,1.827-.038,1.99,1.99,0,0,1,1.555,1.158,2.387,2.387,0,0,1,.077,1.866,3.2,3.2,0,0,1-1.141,1.438,5.271,5.271,0,0,1-3.544.807,2.193,2.193,0,0,0-1.517.294,4.5,4.5,0,0,0-1.155,1.191,20.431,20.431,0,0,0-1.787,3.06Z" transform="translate(-36.871 -36.229)" fill="#f2ac56"/>
        <path id="Trazado_210393" data-name="Trazado 210393" d="M303.9,306.027a6.88,6.88,0,0,1,.269-3.8,13.1,13.1,0,0,0,.875-3.542,2,2,0,0,0-.659-1.5,1.352,1.352,0,0,0-.757-.34,1.543,1.543,0,0,0-.839.2,14.627,14.627,0,0,1-1.618,1.013A2.957,2.957,0,0,1,299.21,298c-.626-.2-1.194-.512-1.752-.752a4.176,4.176,0,0,0-.842-.27,1.176,1.176,0,0,0-.724.021,1.193,1.193,0,0,0-.468.548,4.2,4.2,0,0,1-.548.871,2.445,2.445,0,0,1-2.046.669c-.725-.078-1.3-.374-1.838-.421-.506-.056-1.068.191-1.074.659a4.561,4.561,0,0,0,.1.872l.157.935q.153.936.274,1.878l-.069.016q-.293-.905-.554-1.817l-.258-.912a3.764,3.764,0,0,1-.2-.991,1.223,1.223,0,0,1,.576-1.032,1.908,1.908,0,0,1,1.09-.288c.733.029,1.321.331,1.862.35a1.808,1.808,0,0,0,1.446-.424,3.607,3.607,0,0,0,.476-.714,1.828,1.828,0,0,1,.806-.807,1.742,1.742,0,0,1,1.135-.021,4.869,4.869,0,0,1,.936.37c.587.289,1.1.66,1.652.9a2.425,2.425,0,0,0,1.74.185,9.26,9.26,0,0,0,1.59-.979,1.911,1.911,0,0,1,.961-.295,1.7,1.7,0,0,1,.986.317,2.451,2.451,0,0,1,1,1.772,4.769,4.769,0,0,1-.29,1.973c-.2.611-.434,1.2-.652,1.783a8.476,8.476,0,0,0-.718,3.619Z" transform="translate(-34.797 -35.629)" fill="#f2ac56"/>
        <path id="Trazado_210394" data-name="Trazado 210394" d="M313.542,308.925a3.593,3.593,0,0,0-2.221-2.4,6.021,6.021,0,0,0-3.321-.172,21.018,21.018,0,0,1-3.492.658,6.372,6.372,0,0,1-3.451-1.029,16.054,16.054,0,0,0-3.122-1.577,6.01,6.01,0,0,0-1.691-.314,5.834,5.834,0,0,0-1.69.255,11.5,11.5,0,0,1-3.5.788,9.99,9.99,0,0,1-3.49-.94l.448-.5c.5.852,1.743,1.225,2.759,1.845a27.01,27.01,0,0,1,3.019,1.971,5.15,5.15,0,0,1,2.037,3.025,5.261,5.261,0,0,0,.706,1.566,1.891,1.891,0,0,0,1.41.856l0,.07a2,2,0,0,1-1.627-.75,5.155,5.155,0,0,1-.895-1.594,6.541,6.541,0,0,0-.783-1.517,5.543,5.543,0,0,0-1.235-1.145c-.955-.65-1.978-1.262-3-1.826l-1.569-.84a3.487,3.487,0,0,1-1.444-1.322l-.489-.909.938.413a10.029,10.029,0,0,0,3.24,1,12.651,12.651,0,0,0,3.381-.562,6.146,6.146,0,0,1,3.544.216,31.565,31.565,0,0,1,3.2,1.5,6.053,6.053,0,0,0,3.268.733c1.116-.1,2.23-.457,3.419-.653a5.929,5.929,0,0,1,3.6.357,3.57,3.57,0,0,1,2.119,2.783Z" transform="translate(-34.501 -36.453)" fill="#f2ac56"/>
        <path id="Trazado_210395" data-name="Trazado 210395" d="M302.094,315.719c.607.223,1.136.31,1.713.547a8.763,8.763,0,0,0,.835.425,2.535,2.535,0,0,0,.909.127c.622-.028,1.2-.018,1.777-.069a16.16,16.16,0,0,0,1.783-.16l.034.062a2.793,2.793,0,0,1-1.755.848,4.022,4.022,0,0,1-1.91-.3,4.63,4.63,0,0,0-.9-.284c-.306-.058-.636-.036-.947-.084a2.213,2.213,0,0,1-1.591-1.057Z" transform="translate(-36.322 -37.966)" fill="#f2ac56"/>
        <path id="Trazado_210396" data-name="Trazado 210396" d="M315.648,294.006c-.34.557-.544,1.039-.837,1.563a5.639,5.639,0,0,0-.486.786,2.9,2.9,0,0,0-.2.9c-.035.626-.138,1.216-.215,1.8-.114.584-.215,1.156-.37,1.791l-.07.009a3.516,3.516,0,0,1-.3-1.9,5.222,5.222,0,0,1,.589-1.81,3.829,3.829,0,0,0,.355-.865c.077-.3.074-.634.165-.948a2.056,2.056,0,0,1,1.333-1.386Z" transform="translate(-37.657 -35.349)" fill="#f2ac56"/>
        <path id="Trazado_210397" data-name="Trazado 210397" d="M292.946,310.531a6.743,6.743,0,0,0-3.36,1.351,3.354,3.354,0,0,0-1.1,1.33,1.709,1.709,0,0,0,.091,1.541c.258.462.739.564,1.389.663a2.385,2.385,0,0,1,1,.376,2.113,2.113,0,0,1,.687.86c.587,1.317.2,2.677.641,3.652.4,1.007,1.733,1.1,2.915.957a7.269,7.269,0,0,1,1.934-.025,2.874,2.874,0,0,1,1.706.99c.431.479.774,1,1.213,1.411a2.65,2.65,0,0,0,1.576.743,2.984,2.984,0,0,0,2.985-1.537l.194-.4.088.437a14.32,14.32,0,0,0,1.041,3.464,4.886,4.886,0,0,0,2.394,2.411,4.016,4.016,0,0,0,3.271-.245c.514-.237.979-.612,1.575-.925a3.4,3.4,0,0,1,2.008-.358c1.33.147,2.454.735,3.537.732a1.947,1.947,0,0,0,1.384-.5,1.232,1.232,0,0,0,.357-.568,2.358,2.358,0,0,0-.012-.794,1.3,1.3,0,0,1,.593-1.133,3.811,3.811,0,0,1,.944-.41,2.854,2.854,0,0,0,1.37-.841,3.168,3.168,0,0,0,.707-3.07l-.287-.833.74.449a3.774,3.774,0,0,0,3.548.147,3.925,3.925,0,0,0,2.137-3l.083.006a4.109,4.109,0,0,1-2.029,3.354,4.264,4.264,0,0,1-4.051.044l.453-.384a3.861,3.861,0,0,1-.727,3.794,3.678,3.678,0,0,1-1.678,1.123,3.156,3.156,0,0,0-.738.316.425.425,0,0,0-.22.417,2.878,2.878,0,0,1-.008,1.031,2.071,2.071,0,0,1-.59.977,2.823,2.823,0,0,1-1.971.755c-1.4,0-2.522-.66-3.633-.778a2.563,2.563,0,0,0-1.558.242c-.5.242-1.006.631-1.612.9a4.655,4.655,0,0,1-3.847.143,5.34,5.34,0,0,1-2.551-2.808,16.027,16.027,0,0,1-.925-3.6l.283.038a3.347,3.347,0,0,1-3.283,1.669,2.943,2.943,0,0,1-1.758-.782c-.477-.437-.842-.955-1.277-1.372a2.427,2.427,0,0,0-1.5-.772,6.912,6.912,0,0,0-1.789.131,5.5,5.5,0,0,1-1.971.04,2.309,2.309,0,0,1-1.675-1.285c-.585-1.35-.152-2.664-.623-3.666a1.389,1.389,0,0,0-1.177-.878,4.758,4.758,0,0,1-.967-.252,1.7,1.7,0,0,1-.825-.75,2.269,2.269,0,0,1-.028-2.056,3.818,3.818,0,0,1,1.327-1.456,6.532,6.532,0,0,1,3.6-1.1Z" transform="translate(-34.607 -37.333)" fill="#f2ac56"/>
        <path id="Trazado_210398" data-name="Trazado 210398" d="M271.179,365.127A38.7,38.7,0,0,1,247.1,341.269l-.033-.049a39.847,39.847,0,0,0,13.479-16.532,139.384,139.384,0,0,0,16.757,2.653,21.665,21.665,0,0,1,4.623.764c2.786.9,5.023,2.936,7.418,4.607,2.886,2.021,6.178,3.625,8.34,6.4a3.426,3.426,0,0,1,.866,2.037,3.862,3.862,0,0,1-1.6,2.561c.615.5,1.222,1.006,1.829,1.514a5.608,5.608,0,0,1,1.606,1.8,3.58,3.58,0,0,1-.183,3.077,5.019,5.019,0,0,1-2.836,2.462,29.611,29.611,0,0,1,.948,3.691,3.328,3.328,0,0,1,0,1.714,2.878,2.878,0,0,1-1.356,1.4,8.552,8.552,0,0,1-5.521,1.106,3.143,3.143,0,0,1-1.4-.5,15.757,15.757,0,0,0,1.505,2.12,7.633,7.633,0,0,1,1.372,1.929,1.922,1.922,0,0,1-.391,2.178,2.6,2.6,0,0,1-1.414.441,31.342,31.342,0,0,1-6.952-.058h-.142c0,.59,0,1.173.009,1.763a1.169,1.169,0,0,1-.158.715,1.134,1.134,0,0,1-.549.316c-.781.275-1.563.541-2.345.815a4.181,4.181,0,0,1-5.381-1.056c-1.463-1.33-2.944-2.661-4.415-4.008" transform="translate(-29.71 -39.045)" fill="#aa593d"/>
        <path id="Trazado_210399" data-name="Trazado 210399" d="M280.5,367.72a17.5,17.5,0,0,1,7.182,4.593,30.091,30.091,0,0,1-7.182-4.593" transform="translate(-33.731 -44.22)" fill="#5b8989"/>
        <path id="Trazado_210400" data-name="Trazado 210400" d="M289.964,361.119a24.389,24.389,0,0,0,2.923,1.164,8.3,8.3,0,0,1,1.469.719c.467.3.755,1.15,1.02,1.649-.993-.489-1.781-1.208-2.791-1.592a7.878,7.878,0,0,1-1.468-.731,3.243,3.243,0,0,1-1.154-1.208" transform="translate(-34.869 -43.426)" fill="#5b8989"/>
        <path id="Trazado_210401" data-name="Trazado 210401" d="M297.611,352.689a13.544,13.544,0,0,1,2.732,1.137,23.859,23.859,0,0,1,3.269,2.217,12.7,12.7,0,0,1-3.659-1.483,7.44,7.44,0,0,1-2.342-1.87" transform="translate(-35.789 -42.412)" fill="#5b8989"/>
        <path id="Trazado_210402" data-name="Trazado 210402" d="M297.426,343.41a7.226,7.226,0,0,1,3.383.925,8.412,8.412,0,0,1,1.451,1,10.724,10.724,0,0,0,1.329,1.069,3.389,3.389,0,0,1-1.7-.534l-1.48-.8c-.979-.544-1.973-1.029-2.987-1.655" transform="translate(-35.767 -41.296)" fill="#5b8989"/>
        <path id="Trazado_210403" data-name="Trazado 210403" d="M411.926,39.276a6.018,6.018,0,0,0-.236,3.659,5.447,5.447,0,0,1,.327,1.59,1.194,1.194,0,0,1-.918,1.19l-.088.15c-.524-.316-1.058-.6-1.606-.88a6.892,6.892,0,0,0-2.516-.831,2.7,2.7,0,0,0-2.378.942c-1.055,1.431.083,3.588-.677,5.2-.517,1.1-1.84,1.726-2.182,2.907-.547,1.866,1.708,3.9.773,5.6a8.334,8.334,0,0,1-1.018,1.17,1.326,1.326,0,0,0-.311,1.433,1.343,1.343,0,0,0,.672.512,9.081,9.081,0,0,0,2.99.347,3.435,3.435,0,0,1,2.71,1.131l.039.024a4.714,4.714,0,0,1-2.2,1.931c3-.741,5.141-3.29,7.456-5.331A10.669,10.669,0,0,1,418.5,57.2a5.215,5.215,0,0,1,1.3.026,19.974,19.974,0,0,0-5.53,4.548c-1.135,1.269-2.186,2.634-3.21,3.979q-1.859,2.435-3.709,4.854A7.384,7.384,0,0,1,405.4,72.6a3.867,3.867,0,0,1-5.536-2.77,1.282,1.282,0,0,0-.218-.769c-.434-.491-1.19.069-1.834.172-1.232.2-1.961-1.377-1.991-2.628a9.351,9.351,0,0,1,3.248-7.212c-.783-1.151-2.352-1.359-3.725-1.619-1.267-.245-2.718-.86-3.06-2.046a1.132,1.132,0,0,1-.068-.289c-.15-1.129.726-2.234,1.069-3.3a2.228,2.228,0,0,0,.083-.327,1.648,1.648,0,0,0-.134-1.163c-.31-.594-1.007-.928-1.271-1.547a1.574,1.574,0,0,1,.131-1.4,3.3,3.3,0,0,1,1.1-1.1,10.432,10.432,0,0,0,2.6-1.554c.984-1.06.936-2.7.663-4.119a3.441,3.441,0,0,1-.1-1.261A2.58,2.58,0,0,1,398.3,37.93c3.432-1.036,7.188.92,10.685.111Z" transform="translate(-47.121 -4.524)" fill="#f27242"/>
        <path id="Trazado_210404" data-name="Trazado 210404" d="M427.035,25.757a10.414,10.414,0,0,1,.143,6.133c-.279,1.25-.655,2.5-.989,3.717a16.545,16.545,0,0,0-.688,5.368,6.929,6.929,0,0,0,1.06,3.435l-.229.162a11.638,11.638,0,0,0-2.311-1.814,6.282,6.282,0,0,1-1.862-7.246l.007-.005.7-.567a5.46,5.46,0,0,0-.457-2.479,3.033,3.033,0,0,0-5.122.7,20.025,20.025,0,0,0-.554,2.18,2.039,2.039,0,0,1-1.465,1.549c-.432.06-.931-.1-1.288.164a1.241,1.241,0,0,0-.355.544l-2.937-1.237c-1.347-1.055-2.7-2.1-4.047-3.159a1.734,1.734,0,0,1-.608-.667c-.26-.6.184-1.263.657-1.7a7.343,7.343,0,0,1,4.99-2,1.912,1.912,0,0,0,1.086-.192c.462-.317.5-.959.675-1.485a2.351,2.351,0,0,1,.831-1.136,2.53,2.53,0,0,1,2.408-.382,16.053,16.053,0,0,0,1.784.917c1.46.375,2.63-.974,3.882-1.959a3.274,3.274,0,0,1,2.484-.959,3.162,3.162,0,0,1,2.206,2.126" transform="translate(-48.818 -2.839)" fill="#f27242"/>
        <path id="Trazado_210405" data-name="Trazado 210405" d="M415.822,49.16c-1.165,1.525-3.008,2.67-4.064,4.325-1.292,2-1.322,4.541-1.673,6.907a10.117,10.117,0,0,1-1.327,3.929l-.04-.024a3.43,3.43,0,0,0-2.71-1.131,9.076,9.076,0,0,1-2.989-.348,1.092,1.092,0,0,1-.362-1.945,8.334,8.334,0,0,0,1.018-1.17c.935-1.7-1.32-3.738-.773-5.6.341-1.181,1.664-1.806,2.182-2.908.759-1.612-.377-3.769.677-5.2a2.7,2.7,0,0,1,2.379-.943,6.873,6.873,0,0,1,2.515.832c.548.276,1.083.564,1.607.88a31.7,31.7,0,0,1,2.908,1.873Z" transform="translate(-48.371 -5.416)" fill="#f27242"/>
        <path id="Trazado_210406" data-name="Trazado 210406" d="M422.475,36.726c-.059.119-.112.232-.165.358l-.007.005a6.282,6.282,0,0,0,1.862,7.246,11.667,11.667,0,0,1,2.311,1.813,2.364,2.364,0,0,1,.279.469,3.551,3.551,0,0,1,.132,2.162,11.644,11.644,0,0,1-4.1,6.517,22.758,22.758,0,0,1-2.449,1.792,10.67,10.67,0,0,0-5.731,2.832c-2.315,2.041-4.459,4.59-7.456,5.33a4.715,4.715,0,0,0,2.2-1.93,10.12,10.12,0,0,0,1.327-3.93c.351-2.365.381-4.9,1.673-6.906,1.057-1.655,2.9-2.8,4.064-4.325a5.146,5.146,0,0,0,.924-1.789c.326-1.2.106-2.479.327-3.707.464-2.567,2.716-4.381,4.811-5.938" transform="translate(-48.962 -4.416)" fill="#f27242"/>
        <path id="Trazado_210407" data-name="Trazado 210407" d="M423.329,33.518A5.447,5.447,0,0,1,423.786,36l-.7.567c.055-.125.106-.239.165-.358-2.095,1.558-4.348,3.371-4.811,5.939-.221,1.227,0,2.506-.327,3.706a5.147,5.147,0,0,1-.924,1.789l-.652-.527a31.6,31.6,0,0,0-2.908-1.874l.088-.151a1.193,1.193,0,0,0,.918-1.19,5.457,5.457,0,0,0-.327-1.59,6.008,6.008,0,0,1,.236-3.658,1.241,1.241,0,0,1,.355-.544c.357-.259.856-.1,1.288-.164a2.038,2.038,0,0,0,1.465-1.549,19.827,19.827,0,0,1,.555-2.18,3.032,3.032,0,0,1,5.121-.7" transform="translate(-49.741 -3.897)" fill="#f27242"/>
        <path id="Trazado_210408" data-name="Trazado 210408" d="M435.722,45.613c.66,1.5.966,3.368-.028,4.669a4.8,4.8,0,0,0-.931,1.243,2.039,2.039,0,0,0,.555,1.906,6.258,6.258,0,0,1,1.2,2.027c.291,1.329-.849,2.55-2.013,3.257s-2.539,1.265-3.219,2.447c-.98,1.715-.367,4.458-2.152,5.315-1.952.93-4.427-1.791-6.208-.576-.9.605-1.045,1.922-1.848,2.645-1.277,1.165-3.513.1-4.126-1.518a7.651,7.651,0,0,1,.306-4.805,19.959,19.959,0,0,1,5.53-4.548,5.257,5.257,0,0,0-1.3-.026,22.649,22.649,0,0,0,2.449-1.792,11.644,11.644,0,0,0,4.1-6.517,3.541,3.541,0,0,0-.132-2.161,2.315,2.315,0,0,0-.279-.469l.229-.162a6.929,6.929,0,0,1-1.06-3.435l.713-.421a4.036,4.036,0,0,1,4.8-.929,5.462,5.462,0,0,1,1.647,1.158,8.817,8.817,0,0,1,1.776,2.695" transform="translate(-50.106 -4.974)" fill="#f27242"/>
        <path id="Trazado_210409" data-name="Trazado 210409" d="M436.818,53.215a1.849,1.849,0,0,1-1.207-2.162,5.478,5.478,0,0,1,1.129-2.275,3.416,3.416,0,0,0,.951-2.053,2.629,2.629,0,0,0-1.182-1.91c-.627-.457-1.356-.782-2.059-1.231a7.985,7.985,0,0,1-1.036-.749,6.35,6.35,0,0,0-.867-.7,2.6,2.6,0,0,0-2.014-.182,6.527,6.527,0,0,0-2.058,1.109L428.415,43a4.818,4.818,0,0,1,1.884-1.676,3.035,3.035,0,0,1,2.7.022,5,5,0,0,1,1.014.833,7.11,7.11,0,0,0,.885.739,11.447,11.447,0,0,1,1.927,1.549,4.081,4.081,0,0,1,1.144,2.232,4.279,4.279,0,0,1-.631,2.454,10.588,10.588,0,0,0-1.08,2.027,1.748,1.748,0,0,0,.6,1.953Z" transform="translate(-51.519 -4.933)" fill="#f4e5d9"/>
        <path id="Trazado_210410" data-name="Trazado 210410" d="M426.648,45.264a14.267,14.267,0,0,1-3.332-2.795,5.388,5.388,0,0,1-1.167-1.961,2.785,2.785,0,0,1-.1-1.219,3.909,3.909,0,0,1,.376-1.108,8.108,8.108,0,0,0,.742-1.942,4.079,4.079,0,0,0-.017-2.051A3.108,3.108,0,0,0,422,32.521a2.292,2.292,0,0,0-1.9-.361,1.887,1.887,0,0,0-1.355,1.185c-.236.595-.256,1.31-.456,2.053a4.33,4.33,0,0,1-1.1,2.081,2.9,2.9,0,0,1-1.062.643c-.363.134-.7.23-.983.355a2.545,2.545,0,0,0-1.271,1.262,2.845,2.845,0,0,0-.153,1.878,6.616,6.616,0,0,1,.2,2.213,2.331,2.331,0,0,1-1.335,1.743l-.041-.074a2.226,2.226,0,0,0,.95-1.716,7.055,7.055,0,0,0-.419-2.023,4.959,4.959,0,0,1-.176-1.145,3.218,3.218,0,0,1,.224-1.2,3.274,3.274,0,0,1,1.65-1.765,6.092,6.092,0,0,0,1.818-.823,3.512,3.512,0,0,0,.934-1.647,14.452,14.452,0,0,1,.608-2.111A2.392,2.392,0,0,1,420,31.7a2.87,2.87,0,0,1,2.169.577,3.842,3.842,0,0,1,1.241,1.823,6.329,6.329,0,0,1-.339,4.355,2.634,2.634,0,0,0-.2,1.845,5.43,5.43,0,0,0,.955,1.751A24.778,24.778,0,0,0,426.7,45.2Z" transform="translate(-49.609 -3.809)" fill="#f4e5d9"/>
        <path id="Trazado_210411" data-name="Trazado 210411" d="M415.96,49.388a8.262,8.262,0,0,1-4.269-1.666,15.75,15.75,0,0,0-3.752-2.268,2.4,2.4,0,0,0-1.957.22,1.63,1.63,0,0,0-.66.746,1.859,1.859,0,0,0-.064,1.037,17.458,17.458,0,0,1,.585,2.218,3.563,3.563,0,0,1-.764,2.227c-.459.647-1.014,1.188-1.489,1.742a5.057,5.057,0,0,0-.611.87,1.425,1.425,0,0,0-.235.838,1.442,1.442,0,0,0,.463.733,4.984,4.984,0,0,1,.8.94,2.938,2.938,0,0,1,.036,2.586c-.348.8-.893,1.36-1.138,1.957-.245.561-.162,1.294.372,1.468a5.494,5.494,0,0,0,1.037.193l1.129.155q1.128.158,2.253.355l-.006.085q-1.143.013-2.281-.013l-1.139-.029a4.566,4.566,0,0,1-1.21-.119,1.466,1.466,0,0,1-.978-1.029,2.284,2.284,0,0,1,.059-1.353c.294-.83.851-1.4,1.065-2.012a2.174,2.174,0,0,0,.03-1.811,4.343,4.343,0,0,0-.649-.8,2.2,2.2,0,0,1-.639-1.212,2.094,2.094,0,0,1,.381-1.309,5.823,5.823,0,0,1,.758-.943c.542-.57,1.148-1.021,1.621-1.575a2.913,2.913,0,0,0,.832-1.93,11.156,11.156,0,0,0-.555-2.174,2.294,2.294,0,0,1,0-1.207,2.038,2.038,0,0,1,.716-1.018,2.943,2.943,0,0,1,2.391-.522A5.754,5.754,0,0,1,410.26,45.8c.629.451,1.218.925,1.813,1.384a10.179,10.179,0,0,0,3.9,2.116Z" transform="translate(-48.336 -5.376)" fill="#f4e5d9"/>
        <path id="Trazado_210412" data-name="Trazado 210412" d="M422.405,37.884a4.315,4.315,0,0,0-3.543,1.694,7.236,7.236,0,0,0-1.382,3.749,25.144,25.144,0,0,1-.491,4.241,7.661,7.661,0,0,1-2.412,3.593,19.293,19.293,0,0,0-2.923,3.019,7.183,7.183,0,0,0-.964,1.828,7,7,0,0,0-.311,2.03,13.821,13.821,0,0,1-.343,4.294A12.009,12.009,0,0,1,407.713,66l-.41-.691c1.155-.267,2.026-1.562,3.1-2.507a32.516,32.516,0,0,1,3.34-2.76,6.169,6.169,0,0,1,4.2-1.258,6.315,6.315,0,0,0,2.049-.252,2.27,2.27,0,0,0,1.486-1.313l.082.023a2.4,2.4,0,0,1-1.442,1.6,6.153,6.153,0,0,1-2.148.457,7.884,7.884,0,0,0-2.019.358,6.639,6.639,0,0,0-1.754,1.009c-1.086.863-2.154,1.818-3.165,2.794l-1.524,1.5a4.188,4.188,0,0,1-2.032,1.184l-1.218.238.808-.928a12.065,12.065,0,0,0,2.3-3.362,15.233,15.233,0,0,0,.562-4.08,7.381,7.381,0,0,1,1.51-3.99,38.332,38.332,0,0,1,2.864-3.138,7.253,7.253,0,0,0,2.007-3.488c.288-1.315.271-2.722.471-4.155a7.137,7.137,0,0,1,1.694-4,4.289,4.289,0,0,1,3.949-1.438Z" transform="translate(-48.854 -4.537)" fill="#f4e5d9"/>
        <path id="Trazado_210413" data-name="Trazado 210413" d="M426.118,56.292c.473-.617.76-1.192,1.239-1.77a10.589,10.589,0,0,0,.786-.806,3.052,3.052,0,0,0,.47-1c.19-.723.408-1.386.554-2.063a19.229,19.229,0,0,0,.452-2.1l.083-.017a3.352,3.352,0,0,1,.348,2.315,4.836,4.836,0,0,1-1.027,2.084,5.562,5.562,0,0,0-.647.928c-.175.33-.268.716-.435,1.056a2.654,2.654,0,0,1-1.781,1.448Z" transform="translate(-51.242 -5.836)" fill="#f4e5d9"/>
        <path id="Trazado_210414" data-name="Trazado 210414" d="M406.159,33.672c.518.589,1,.994,1.5,1.518a6.654,6.654,0,0,0,.728.838,3.461,3.461,0,0,0,.962.552c.706.264,1.346.593,1.993.89.63.34,1.251.659,1.923,1.064l-.015.084a4.215,4.215,0,0,1-2.292-.328,6.3,6.3,0,0,1-1.866-1.322,4.547,4.547,0,0,0-.866-.717c-.317-.2-.7-.311-1.029-.527a2.468,2.468,0,0,1-1.114-2.023Z" transform="translate(-48.832 -4.049)" fill="#f4e5d9"/>
        <path id="Trazado_210415" data-name="Trazado 210415" d="M151.165,285.329c-6.572-8.3-10.117-18.29-12.44-28.715q-25.244,9.171-50.48,18.308a66.835,66.835,0,0,1-11.278,3.229,16.4,16.4,0,0,0-6.624-4.364,16.144,16.144,0,0,0-4.795-.924,27.478,27.478,0,0,0-5.5.537c-.66.114-1.311.246-1.962.4a8.179,8.179,0,0,1-1.542-1.505q-.437-.117-.886-.2l-.032-.006-.018,0c-.141-.013-.282-.026-.424-.034-.283-.018-.567-.023-.851-.018s-.568.022-.852.049l-.251.03-.224.04a13.878,13.878,0,0,0-1.672.421c-.311.1-.616.21-.92.326-.05.018-.108.042-.145.057-.11.048-.22.1-.329.149q-.786.367-1.534.81c-.491.29-.969.6-1.432.938-.1.07-.192.14-.287.211a7.51,7.51,0,0,0-.442,4.7,5.811,5.811,0,0,0-4.166,1.577,3.141,3.141,0,0,1-.2.287,3.42,3.42,0,0,0-.7,3.673,11.284,11.284,0,0,1,1.138,4.561,9.832,9.832,0,0,1-1.472,4.411,9.36,9.36,0,0,0-1.463,3.257c-.25,1.848.947,3.71,2,5.476a11.285,11.285,0,0,1,2.1,2.694,4.119,4.119,0,0,1,.361,1.214,21.569,21.569,0,0,0,.1,2.516,3.6,3.6,0,0,0,3.2,2.472,9.173,9.173,0,0,0,4.2-.836,42.315,42.315,0,0,0,9.2-5.032c19.178-2.736,45.659-7.091,64.828-9.827,9.844-1.408,19.926-2.886,28.733-7.487-1.029-1.082-2.023-2.217-2.947-3.4" transform="translate(-4.732 -30.859)" fill="#ea8744"/>
        <path id="Trazado_210416" data-name="Trazado 210416" d="M161.089,77.98A16.654,16.654,0,0,1,158.58,72.8a14.715,14.715,0,0,1,.223-6.04,22.78,22.78,0,0,0,.609-5.836,12.02,12.02,0,0,0-1.575-5.079c-1.864-3.225-5.083-4.92-8.315-6.5a33.59,33.59,0,0,1-4.057-2.256c-.992-4.254-.727-9.247-4.144-11.806-3.036-2.27-7.534-1.321-10.786-3.267s-5.131-6.628-8.907-6.5c-1.888.055-3.346,1.359-4.488,2.953a12.535,12.535,0,0,0-7.451-4.832,9.525,9.525,0,0,0-4.935.268,12.745,12.745,0,0,0-4.2,2.6c-2.621,2.3-4.83,5.326-8.259,6.473A33.042,33.042,0,0,1,86,34.026a16.312,16.312,0,0,0-5.426,1.551,14.3,14.3,0,0,0-6.806,7.614c-.766,2.045-.964,4.246-1.659,6.311a13.682,13.682,0,0,1-2.955,4.829c-4.91,5.359-13.071,8.156-15.615,15.495a11.6,11.6,0,0,0-.367,5.747c.362,2.184,1.1,4.284,1.469,6.469a22.621,22.621,0,0,1,.063,6.844c-1.639,1.927-3.279,3.844-3.941,6.245-1.2,4.382,1.222,8.914,1.339,13.454a15.474,15.474,0,0,1-.294,3.335c-.536.812-1.13,1.59-1.711,2.337a35.66,35.66,0,0,0-4.579,7.217,17.8,17.8,0,0,0-1.743,8.069,15.126,15.126,0,0,0,2.474,7.258c1.3,2.1,2.879,4.019,4.2,6.111a17.413,17.413,0,0,1,1.686,3.309,12.965,12.965,0,0,1,.706,3.852,11.6,11.6,0,0,0,.75,4.356,7.038,7.038,0,0,0,2.418,2.764c2.365,1.65,5.288,1.947,8.087,2.111a45.542,45.542,0,0,1,5.256.514A32.214,32.214,0,0,1,73.994,161c.715.239,1.418.508,2.113.8A14.123,14.123,0,0,0,80.46,166.3c4.723,2.645,10.769-.474,16.008.9,3.093.807,5.887,3.185,9.072,2.811,3.883-.45,6.054-4.632,9.331-6.778,3.442-2.254,8.024-2.154,11.483-4.374,3.518-2.262,5.239-6.478,8.307-9.313,2.586-2.387,5.979-3.668,9.006-5.464s5.937-4.481,6.32-7.983c.017-.125.025-.258.033-.383.213-3.873-2.6-7.458-3.347-11.211.123-.194.232-.4.369-.58,1.846-2.5,4.581-4.151,6.747-6.34a11.444,11.444,0,0,0,2.516-3.609,13.493,13.493,0,0,0,.73-5.73,28.6,28.6,0,0,1,.087-6,14.816,14.816,0,0,1,2.057-5.359c1.781-2.827,4.868-4.994,5.6-8.41.834-3.913-1.668-7.408-3.685-10.5M53.8,73.682c-.145-3.851,2.06-7.085,4.754-9.631A47.9,47.9,0,0,1,63.381,60.2a12.66,12.66,0,0,0-4.292,5.548c-2.021,5.6,1.372,12.09-.715,17.662a15.546,15.546,0,0,1-2.691,4.307q.065-.761.082-1.525a24.1,24.1,0,0,0-.653-6.008,34.612,34.612,0,0,1-1.31-6.506M67.351,158.7c-2.981-.318-6.108-.1-8.955-1.189a8.144,8.144,0,0,1-3.149-2.079,6.494,6.494,0,0,1-1.5-4.045,25.006,25.006,0,0,0-.425-4.131,14.24,14.24,0,0,0-1.259-3.229,60.993,60.993,0,0,0-4.092-6.134,17.96,17.96,0,0,1-3.147-6.6,15.183,15.183,0,0,1,.984-8.361,33,33,0,0,1,4.988-8.224c.161-.208.322-.42.483-.631-.793,2.665-2.008,5.264-3,7.868-1.664,4.366-2.645,9.564-.134,13.5,1.789,2.794,5.056,4.441,6.678,7.334a8.566,8.566,0,0,1,.49,1.048c1.322,3.227,1.139,7.226,3.709,9.555,3.16,2.861,8.39,1.322,12.183,3.285a12.089,12.089,0,0,1,4.034,3.91,32.654,32.654,0,0,0-7.888-1.874M83.487,36.015c-4.482,3.01-4.391,9.63-7.318,14.17-2.544,3.954-7.23,6.123-11.148,8.82.755-.56,1.5-1.132,2.224-1.734a22.361,22.361,0,0,0,3.714-3.828,14.428,14.428,0,0,0,2.374-5.195,28.422,28.422,0,0,1,1.711-5.924A13.538,13.538,0,0,1,78.2,38.206a13.172,13.172,0,0,1,4.517-2.638,17.862,17.862,0,0,1,3.437-.726,8.871,8.871,0,0,0-2.667,1.174m24.174-9.879c-4.374,1.272-7.293,5.563-11.576,7.118a19.5,19.5,0,0,1-5,.9,11.981,11.981,0,0,0,3.2-1.14,18.413,18.413,0,0,0,3.906-3.073c2.376-2.307,4.748-5.049,8.2-5.588a10.453,10.453,0,0,1,8.044,2.469,9.475,9.475,0,0,0-6.77-.686m51.711,69.044A16.2,16.2,0,0,0,156.1,105.8a28.948,28.948,0,0,1-.056,6.135,9.117,9.117,0,0,1-2.213,4.4c-2.053,2.333-4.779,3.961-6.813,6.313-.18.208-.338.43-.5.649a7.387,7.387,0,0,1,.056-1.61c.723-4.807,6.145-7.517,7.85-12.058,1.937-5.189-1.43-11.326.79-16.4,1.472-3.36,5.213-5.7,5.513-9.363.324-3.9-3.435-6.894-4.5-10.661-1.522-5.364,2.454-11.966-1.064-16.29-1.871-2.3-5.205-2.869-7.292-4.964a8.675,8.675,0,0,1-2.062-3.63c3.047,1.875,6.623,2.928,9.286,5.4a11.069,11.069,0,0,1,2.98,4.677,12.549,12.549,0,0,1,.342,5.814,57.21,57.21,0,0,0-.886,5.876,11.231,11.231,0,0,0,1.192,5.488c1.7,3.489,4.837,6.463,5.333,10.465.479,3.867-2.536,6.375-4.679,9.142" transform="translate(-5.262 -2.818)" fill="#442626"/>
        <path id="Trazado_210417" data-name="Trazado 210417" d="M481.281,318.366l-.079-.07a6.327,6.327,0,0,1-1.232,1.091c-.141.106-.29.2-.44.3a9.236,9.236,0,0,1-1.839.871,15.276,15.276,0,0,1-5.789.519c-4.117-.29-13.082-3.493-13.082-3.493-4.944-3.44-11.947-3.748-17.956-4-27.888-1.179-55.864-3.616-82.907-10.5-1.135-.281-2.261-.581-3.387-.933h-.009a23.1,23.1,0,0,1-7.39-3.484c-1.909-1.434-3.932-8.639-5.824-17.569a28.537,28.537,0,0,0,9.976-3.352c4.381-2.613,7.566-6.792,10.46-10.979.413-.6.827-1.205,1.223-1.812l.211-.317q1.108-1.65,2.173-3.325,3.814-5.991,7.117-12.29c.633,5.912,1.232,11.067,1.874,15.008a425.353,425.353,0,0,1,46.046,17.454c3.994,1.777,7.962,3.625,12.026,5.243,5.454,2.182,11.674,3.941,17.032,6.369a14.687,14.687,0,0,1,4.68-2.331,26.69,26.69,0,0,1,10.363-1.61,20.356,20.356,0,0,1,4.478.862,7.137,7.137,0,0,0,3.968-1.047,67.133,67.133,0,0,0,6.3,3.07c.651.282,1.311.545,1.971.792.721.273,1.452.537,2.182.774a9.247,9.247,0,0,1-.079,5.015,9.572,9.572,0,0,0-.475,1.821c-.167,1.8,1.249,3.6.721,5.331-.22.7-.721,1.267-.941,1.953-.572,1.777.845,3.537,1.223,5.366a4.958,4.958,0,0,1-2.6,5.27" transform="translate(-41.049 -29.946)" fill="#ea8744"/>
      </g>
    </g>
  </g>
</svg>
