<svg xmlns="http://www.w3.org/2000/svg" xmlns:xlink="http://www.w3.org/1999/xlink" width="601" height="387.002" viewBox="0 0 601 387.002">
  <defs>
    <clipPath id="clip-path">
      <rect id="Rectángulo_49376" data-name="Rectángulo 49376" width="600.722" height="353.427" fill="none"/>
    </clipPath>
    <clipPath id="clip-path-3">
      <rect id="Rectángulo_49364" data-name="Rectángulo 49364" width="18.97" height="30.001" fill="none"/>
    </clipPath>
    <clipPath id="clip-path-4">
      <rect id="Rectángulo_49365" data-name="Rectángulo 49365" width="6.314" height="15.979" fill="none"/>
    </clipPath>
    <clipPath id="clip-path-5">
      <rect id="Rectángulo_49366" data-name="Rectángulo 49366" width="27.014" height="27.13" fill="none"/>
    </clipPath>
    <clipPath id="clip-path-6">
      <rect id="Rectángulo_49367" data-name="Rectángulo 49367" width="12.131" height="23.233" fill="none"/>
    </clipPath>
    <clipPath id="clip-path-7">
      <rect id="Rectángulo_49368" data-name="Rectángulo 49368" width="0.873" height="3.603" fill="none"/>
    </clipPath>
    <clipPath id="clip-path-8">
      <rect id="Rectángulo_49369" data-name="Rectángulo 49369" width="5.732" height="5.192" fill="none"/>
    </clipPath>
    <clipPath id="clip-path-9">
      <rect id="Rectángulo_49370" data-name="Rectángulo 49370" width="11.079" height="7.741" fill="none"/>
    </clipPath>
    <clipPath id="clip-path-10">
      <rect id="Rectángulo_49371" data-name="Rectángulo 49371" width="17.483" height="10.283" fill="none"/>
    </clipPath>
    <clipPath id="clip-path-11">
      <rect id="Rectángulo_49372" data-name="Rectángulo 49372" width="4.727" height="4.895" fill="none"/>
    </clipPath>
    <clipPath id="clip-path-12">
      <rect id="Rectángulo_49373" data-name="Rectángulo 49373" width="4.729" height="4.895" fill="none"/>
    </clipPath>
    <clipPath id="clip-path-13">
      <rect id="Rectángulo_49374" data-name="Rectángulo 49374" width="1.98" height="4.04" fill="none"/>
    </clipPath>
  </defs>
  <g id="Grupo_172510" data-name="Grupo 172510" transform="translate(-180 -20273)">
    <rect id="Rectángulo_49349" data-name="Rectángulo 49349" width="601" height="387" transform="translate(180 20273)" fill="#24384f"/>
    <g id="Grupo_170504" data-name="Grupo 170504" transform="translate(180.278 20306.574)" clip-path="url(#clip-path)">
      <g id="Grupo_170503" data-name="Grupo 170503">
        <g id="Grupo_170502" data-name="Grupo 170502" clip-path="url(#clip-path)">
          <path id="Trazado_210885" data-name="Trazado 210885" d="M454.587,237.216a74.3,74.3,0,0,1,6.12,13.843c8.837,5.4,18.493,9.46,28.742,9.637,7.133.122,14.426-1.764,20.1-6.086,7.479-5.7,11.454-15.061,12.624-24.389a77.276,77.276,0,0,0-.112-17.549c-.508-.126-1-.256-1.472-.393-7.22-2.1-15.444-6.745-19.847-12.84L508,171.483a5.254,5.254,0,0,1,.66-1.682,5.254,5.254,0,0,0-.66,1.682l-7.2,27.719a66.713,66.713,0,0,1-18.2-15.6c-8.44-10.452-12.392-23.4-13.364-36.8,11.5,13.519,21.271,19.5,39.819,22.558a3.858,3.858,0,0,1,2.04-.642c7.92-.926,15.818-2.368,23.737-3.292a8.545,8.545,0,0,0,7.619-8.1c.054-3.489-3.691-7.936-1.674-10.784.469-.662.941-1.358,1.355-2.076-.361.078-.718.143-1.038.179-6.3.713-11.4-.81-19.576-4.229,4.729-.378,10.19-1.469,13.018-5.709a14.123,14.123,0,0,1,5.063-5.062,2.408,2.408,0,0,1,1.256-.244c-.431-.7-.943-1.367-1.37-2.074-.662-1.094-1.4-3.314-.882-4.54a.971.971,0,0,1,.44-.443,27.881,27.881,0,0,0,4.187-2.521,12.905,12.905,0,0,0,2.668-2.23c2.076-2.826-.944-5.488-3.131-7.339-3.339-2.824-7.434-5.391-10.147-8.864-4.763-6.1-6.742-12.535-8.9-19.965-.011-.04-.023-.081-.034-.12-3.182-10.853-7.344-20.714-18.755-25.953-4.023,23.081-17.284,45.763-35.82,60.093-2.331-3.72-7.976-4.468-11.955-2.615s-6.46,6.207-6.72,10.589a18.873,18.873,0,0,0,4.11,12.223c.021.029.045.055.067.084a9.36,9.36,0,1,1,8.647,12.941h-.008A169.934,169.934,0,0,1,436,204.707a60.982,60.982,0,0,1-9.228,9.792c11.462,2.438,21.935,12.587,27.818,22.716M522.915,96.224c-1.038,7.188-8.668,11.785-15.59,13.747-2.673-2.168-3.62-2.931-6.293-5.1,7.167,1.194,16.175-1.9,21.882-8.648m-26.392-6.65a43.383,43.383,0,0,1,22.733-5.087,4.517,4.517,0,0,1,1.419,4.761C496.341,93.358,497.295,91.9,486.642,99.5c1.511-2.5,7.253-8.517,9.881-9.929" transform="translate(31.661 4.107)" fill="#f29c59"/>
          <path id="Trazado_210886" data-name="Trazado 210886" d="M536,207.443c.135.084.279.161.409.247-.13-.086-.274-.163-.409-.247" transform="translate(39.764 15.39)" fill="#f29c59"/>
          <path id="Trazado_210887" data-name="Trazado 210887" d="M534.73,206.736c.175.088.357.172.526.264-.17-.092-.351-.176-.526-.264" transform="translate(39.67 15.337)" fill="#f29c59"/>
          <path id="Trazado_210888" data-name="Trazado 210888" d="M525.969,203.939l.65.144-.65-.144" transform="translate(39.02 15.13)" fill="#f29c59"/>
          <path id="Trazado_210889" data-name="Trazado 210889" d="M524.409,203.614l.57.117-.57-.117" transform="translate(38.905 15.106)" fill="#f29c59"/>
          <path id="Trazado_210890" data-name="Trazado 210890" d="M530.56,205.111c.226.069.451.138.673.209-.222-.072-.448-.141-.673-.209" transform="translate(39.361 15.217)" fill="#f29c59"/>
          <path id="Trazado_210891" data-name="Trazado 210891" d="M532.013,205.59c.215.076.432.151.642.232-.211-.081-.428-.156-.642-.232" transform="translate(39.469 15.252)" fill="#f29c59"/>
          <path id="Trazado_210892" data-name="Trazado 210892" d="M533.4,206.128c.2.084.4.164.6.251-.194-.087-.4-.168-.6-.251" transform="translate(39.572 15.292)" fill="#f29c59"/>
          <path id="Trazado_210893" data-name="Trazado 210893" d="M527.526,204.293c.228.055.454.11.681.167q-.34-.085-.681-.167" transform="translate(39.136 15.156)" fill="#f29c59"/>
          <path id="Trazado_210894" data-name="Trazado 210894" d="M529.059,204.681c.231.062.462.125.691.189-.229-.064-.46-.127-.691-.189" transform="translate(39.25 15.185)" fill="#f29c59"/>
          <path id="Trazado_210895" data-name="Trazado 210895" d="M518.011,202.371c.06.013.118.026.179.038-.061-.012-.119-.025-.179-.038" transform="translate(38.43 15.013)" fill="#f29c59"/>
          <path id="Trazado_210896" data-name="Trazado 210896" d="M539.134,210a30.463,30.463,0,0,1,3.18,3.8,30.463,30.463,0,0,0-3.18-3.8" transform="translate(39.997 15.58)" fill="#f29c59"/>
          <path id="Trazado_210897" data-name="Trazado 210897" d="M522.89,203.315l.335.066-.335-.066" transform="translate(38.792 15.083)" fill="#f29c59"/>
          <path id="Trazado_210898" data-name="Trazado 210898" d="M519.462,202.66l.175.034-.175-.034" transform="translate(38.538 15.035)" fill="#f29c59"/>
          <path id="Trazado_210899" data-name="Trazado 210899" d="M466.311,140.491c.973,13.4,4.925,26.344,13.364,36.8a66.7,66.7,0,0,0,18.2,15.6q3.6-13.86,7.2-27.719a5.23,5.23,0,0,1,.661-1.682,2.162,2.162,0,0,1,.4-.436c-18.548-3.057-28.316-9.039-39.82-22.558" transform="translate(34.594 10.423)" fill="#dd7f40"/>
          <path id="Trazado_210900" data-name="Trazado 210900" d="M532.611,205.806c.291.111.571.228.852.346-.28-.118-.561-.235-.852-.346" transform="translate(39.513 15.268)" fill="#f06161"/>
          <path id="Trazado_210901" data-name="Trazado 210901" d="M560,336.51c-3.124-41.622-6.983-91.313-11.056-108.478C553.014,245.2,556.874,294.888,560,336.51" transform="translate(40.725 16.917)" fill="#f06161"/>
          <path id="Trazado_210902" data-name="Trazado 210902" d="M531.187,205.306c.3.1.594.2.887.305-.293-.1-.587-.207-.887-.305" transform="translate(39.407 15.231)" fill="#f06161"/>
          <path id="Trazado_210903" data-name="Trazado 210903" d="M539.338,210.178q-.873-.881-1.836-1.68a13.247,13.247,0,0,0-1.122-.825,13.247,13.247,0,0,1,1.122.825q.964.8,1.836,1.68" transform="translate(39.793 15.407)" fill="#f06161"/>
          <path id="Trazado_210904" data-name="Trazado 210904" d="M542.094,213.548a55.448,55.448,0,0,1,4.919,8.74,55.448,55.448,0,0,0-4.919-8.74" transform="translate(40.217 15.843)" fill="#f06161"/>
          <path id="Trazado_210905" data-name="Trazado 210905" d="M535.22,206.982c.29.157.563.327.836.5-.273-.169-.546-.338-.836-.5" transform="translate(39.707 15.355)" fill="#f06161"/>
          <path id="Trazado_210906" data-name="Trazado 210906" d="M547.642,223.81a17.344,17.344,0,0,1,.7,1.929,17.344,17.344,0,0,0-.7-1.929" transform="translate(40.628 16.604)" fill="#f06161"/>
          <path id="Trazado_210907" data-name="Trazado 210907" d="M548.294,225.607c.233.758.465,1.63.7,2.606-.232-.976-.464-1.848-.7-2.606" transform="translate(40.677 16.737)" fill="#f06161"/>
          <path id="Trazado_210908" data-name="Trazado 210908" d="M533.96,206.362c.285.128.555.265.827.4-.272-.136-.542-.274-.827-.4" transform="translate(39.613 15.309)" fill="#f06161"/>
          <path id="Trazado_210909" data-name="Trazado 210909" d="M519.624,202.692c1.143.22,2.318.44,3.508.669-1.189-.229-2.366-.449-3.508-.669" transform="translate(38.55 15.037)" fill="#f06161"/>
          <path id="Trazado_210910" data-name="Trazado 210910" d="M518.178,202.406c.451.092.913.183,1.378.273-.465-.09-.926-.18-1.378-.273" transform="translate(38.442 15.016)" fill="#f06161"/>
          <path id="Trazado_210911" data-name="Trazado 210911" d="M529.7,204.857q.466.132.923.273c-.306-.093-.611-.185-.923-.273" transform="translate(39.297 15.198)" fill="#f06161"/>
          <path id="Trazado_210912" data-name="Trazado 210912" d="M515.481,201.806h0c.86.214,1.773.412,2.718.607-.944-.194-1.857-.393-2.718-.607" transform="translate(38.242 14.971)" fill="#f06161"/>
          <path id="Trazado_210913" data-name="Trazado 210913" d="M523.2,203.375q.648.126,1.3.256-.649-.131-1.3-.256" transform="translate(38.815 15.088)" fill="#f06161"/>
          <path id="Trazado_210914" data-name="Trazado 210914" d="M524.94,203.722q.554.114,1.105.233-.551-.119-1.105-.233" transform="translate(38.944 15.114)" fill="#f06161"/>
          <path id="Trazado_210915" data-name="Trazado 210915" d="M528.16,204.448c.324.081.646.164.966.25-.32-.086-.641-.17-.966-.25" transform="translate(39.183 15.167)" fill="#f06161"/>
          <path id="Trazado_210916" data-name="Trazado 210916" d="M526.574,204.073c.343.076.683.156,1.023.236-.339-.081-.68-.16-1.023-.236" transform="translate(39.065 15.14)" fill="#f06161"/>
          <path id="Trazado_210917" data-name="Trazado 210917" d="M519.83,219.355c-1.17,9.328-5.145,18.692-12.624,24.389-5.674,4.323-12.969,6.209-20.1,6.086-10.25-.176-19.9-4.238-28.743-9.637a164.076,164.076,0,0,1,4.925,19.466c3.084,15.233,5.777,30.755,7.752,46.35,1.408,10.695,2.82,22.755,3.453,30.5-.19.052-.4.1-.6.151.034.6.073,1.2.1,1.8h92.723c-3.124-41.622-6.984-91.313-11.056-108.478-.231-.976-.463-1.848-.7-2.606a17.343,17.343,0,0,0-.7-1.929q-.509-1.142-1.04-2.284a55.388,55.388,0,0,0-4.92-8.741,30.536,30.536,0,0,0-3.18-3.8q-.873-.881-1.836-1.679a13.028,13.028,0,0,0-1.122-.826c-.131-.086-.274-.164-.409-.247-.274-.169-.547-.338-.837-.5-.17-.092-.351-.176-.526-.264-.272-.136-.544-.274-.827-.4-.194-.087-.4-.169-.6-.251-.281-.118-.562-.236-.853-.346-.211-.081-.428-.156-.642-.232-.293-.1-.586-.207-.887-.305-.222-.072-.448-.141-.674-.209-.305-.093-.611-.186-.922-.274-.229-.064-.46-.127-.691-.188-.32-.086-.641-.17-.966-.25-.226-.057-.453-.112-.681-.167-.339-.081-.68-.16-1.023-.236l-.65-.144q-.551-.119-1.105-.233c-.19-.039-.38-.078-.57-.116q-.648-.131-1.3-.257l-.335-.064c-1.19-.23-2.365-.449-3.508-.669l-.174-.034c-.466-.09-.927-.182-1.379-.273l-.178-.038c-.945-.194-1.858-.393-2.719-.607a77.279,77.279,0,0,1,.112,17.549" transform="translate(34.005 14.971)" fill="#f06161"/>
          <path id="Trazado_210918" data-name="Trazado 210918" d="M533.089,131.867c.246,1.416,2.095,1.5,2.32,2.916a7.021,7.021,0,0,1-1.148,4.576,6.451,6.451,0,0,0,1.794-.626,2.982,2.982,0,0,0,1.258-3.25c-.31-1.271-1.841-3.108-3.071-3.295a10.839,10.839,0,0,0,1.534-3.088c.259-1.066.459-2.629-.456-3.594a3.615,3.615,0,0,0-2.335-1.211,5.846,5.846,0,0,1,.7,1.5c.5,1.833-.921,4.2-.6,6.07" transform="translate(39.541 9.221)" fill="#f05b5a"/>
          <path id="Trazado_210919" data-name="Trazado 210919" d="M533.064,124.539A14.116,14.116,0,0,0,528,129.6c-2.829,4.24-8.291,5.332-13.019,5.71,8.18,3.418,13.274,4.942,19.576,4.229.32-.037.678-.1,1.038-.179a7.024,7.024,0,0,0,1.149-4.577c-.226-1.419-2.074-1.5-2.321-2.916-.325-1.872,1.1-4.237.6-6.069a5.837,5.837,0,0,0-.7-1.5,2.41,2.41,0,0,0-1.256.244" transform="translate(38.205 9.221)" fill="#f05b5a"/>
          <path id="Trazado_210920" data-name="Trazado 210920" d="M495.9,102.05c2.673,2.168,3.62,2.933,6.293,5.1,6.922-1.964,14.552-6.56,15.59-13.747-5.707,6.744-14.715,9.843-21.882,8.647" transform="translate(36.79 6.929)" fill="#614a49"/>
          <path id="Trazado_210921" data-name="Trazado 210921" d="M515.121,82.479a43.383,43.383,0,0,0-22.733,5.087c-2.627,1.41-8.37,7.427-9.881,9.929,10.653-7.6,9.7-6.144,34.033-10.255a4.517,4.517,0,0,0-1.419-4.761" transform="translate(35.796 6.114)" fill="#614a49"/>
          <path id="Trazado_210922" data-name="Trazado 210922" d="M452.75,130.184a9.355,9.355,0,0,0,8.638,12.941c.383-1.435.748-2.871,1.083-4.309a39.744,39.744,0,0,1-9.72-8.632" transform="translate(33.535 9.658)" fill="#fae6d8"/>
          <path id="Trazado_210923" data-name="Trazado 210923" d="M470.708,134.164a9.359,9.359,0,0,0-18.007-3.581,39.736,39.736,0,0,0,9.72,8.631c-.335,1.437-.7,2.875-1.082,4.31h.008a9.361,9.361,0,0,0,9.36-9.36" transform="translate(33.585 9.259)" fill="#fae6d8"/>
          <path id="Trazado_210924" data-name="Trazado 210924" d="M76.06,272.546a146.222,146.222,0,0,0,50.76,7.636c-1.578-7.162-3.176-14.529-4.806-22.158a108.277,108.277,0,0,1-54.921-9.232c-16.872-7.777-31.486-20.342-43.545-35.6a218.877,218.877,0,0,1-21.9-34.42c-.563.719-1.117,1.445-1.651,2.19v31.494a208.74,208.74,0,0,0,19.217,23.019c16.115,16.574,35.157,29.658,56.843,37.072" transform="translate(0 13.263)" fill="#cd3b3a"/>
          <path id="Trazado_210925" data-name="Trazado 210925" d="M139.121,326.656c-1.188.112-2.376.223-3.566.313-25.221,1.9-50.994-1.119-74.806-9.784C37.672,308.789,17.184,294.9,0,277.446v55.4H140.592q-.736-3.089-1.471-6.188" transform="translate(0 20.583)" fill="#cd3b3a"/>
          <path id="Trazado_210926" data-name="Trazado 210926" d="M7.642,283.94C25.667,300.365,46.727,312.871,70.13,319.9a180.808,180.808,0,0,0,68.351,6.492c-1.866-7.9-3.724-15.892-5.594-24.062A160.518,160.518,0,0,1,65.813,293.2c-21.144-7.847-39.909-20.857-55.631-37.237Q4.85,250.4,0,244.461v32.1q3.722,3.787,7.642,7.38" transform="translate(0 18.136)" fill="#cd3b3a"/>
          <path id="Trazado_210927" data-name="Trazado 210927" d="M81.747,229.318a79.049,79.049,0,0,0,33.785,5.447,147.607,147.607,0,0,1-1.7-18.286,58.131,58.131,0,0,1-22.169,1.965,49.436,49.436,0,0,1-34.921-21.431c-7.8-11.74-10.593-27.426-6.679-40.967l-10.155,1.421A61.5,61.5,0,0,0,22.2,162.753a114.047,114.047,0,0,0,22.55,39.9,97.088,97.088,0,0,0,37,26.663" transform="translate(1.647 11.577)" fill="#cd3b3a"/>
          <path id="Trazado_210928" data-name="Trazado 210928" d="M74.174,250.087a107.256,107.256,0,0,0,47.059,6.353c-.342-1.607-.684-3.218-1.029-4.848-.912-4.312-1.894-9.184-2.743-14.339a80.012,80.012,0,0,1-40.1-8.261,103.959,103.959,0,0,1-36.28-30.221A116.847,116.847,0,0,1,22.422,162.86,61.514,61.514,0,0,0,2.553,178.614c7.631,13.987,16.229,27.371,26.522,39.025,12.763,14.451,27.848,25.932,45.1,32.448" transform="translate(0.189 12.082)" fill="#cd3b3a"/>
          <path id="Trazado_210929" data-name="Trazado 210929" d="M17.447,262.022c16.523,15.373,35.817,27.036,57.265,33.562a160.148,160.148,0,0,0,57.539,6.261c-1.59-6.975-3.189-14.092-4.809-21.417A146.807,146.807,0,0,1,67.29,269.617c-21.3-8.84-39.806-23.216-55.1-40.759C7.877,223.918,3.833,218.78,0,213.49v29.862a191.747,191.747,0,0,0,17.447,18.669" transform="translate(0 15.838)" fill="#cd3b3a"/>
          <path id="Trazado_210930" data-name="Trazado 210930" d="M75.993,229.035a80.014,80.014,0,0,0,40.1,8.261q-.243-1.482-.472-2.993a79.068,79.068,0,0,1-33.785-5.447,97.084,97.084,0,0,1-37-26.663,114.05,114.05,0,0,1-22.551-39.9c-.415.2-.821.407-1.231.612a116.85,116.85,0,0,0,18.663,35.911,103.973,103.973,0,0,0,36.28,30.221" transform="translate(1.562 12.04)" fill="#e47e7f"/>
          <path id="Trazado_210931" data-name="Trazado 210931" d="M66.979,248.885a108.277,108.277,0,0,0,54.921,9.232c-.2-.919-.393-1.839-.591-2.766A107.236,107.236,0,0,1,74.251,249c-17.253-6.517-32.337-18-45.1-32.448C18.858,204.9,10.26,191.513,2.629,177.526c-.367.443-.737.883-1.092,1.336a218.75,218.75,0,0,0,21.9,34.42c12.06,15.261,26.673,27.825,43.545,35.6" transform="translate(0.114 13.17)" fill="#e47e7f"/>
          <path id="Trazado_210932" data-name="Trazado 210932" d="M67.29,269.867a146.81,146.81,0,0,0,60.151,10.811l-.622-2.821a146.249,146.249,0,0,1-50.761-7.636c-21.686-7.415-40.727-20.5-56.842-37.072A208.84,208.84,0,0,1,0,210.129v3.61c3.834,5.29,7.877,10.428,12.186,15.368,15.3,17.543,33.8,31.919,55.1,40.759" transform="translate(0 15.589)" fill="#e47e7f"/>
          <path id="Trazado_210933" data-name="Trazado 210933" d="M65.813,293.431a160.52,160.52,0,0,0,67.074,9.136c-.213-.927-.424-1.852-.637-2.783a160.149,160.149,0,0,1-57.539-6.262C53.264,287,33.97,275.333,17.447,259.959A191.615,191.615,0,0,1,0,241.291V244.7q4.866,5.926,10.183,11.5c15.721,16.379,34.487,29.39,55.63,37.237" transform="translate(0 17.901)" fill="#e47e7f"/>
          <path id="Trazado_210934" data-name="Trazado 210934" d="M135.554,327.2c1.191-.089,2.379-.2,3.566-.313q-.319-1.353-.64-2.71a180.827,180.827,0,0,1-68.349-6.492c-23.4-7.029-44.464-19.535-62.489-35.961Q3.71,278.141,0,274.342v3.334c17.184,17.456,37.672,31.343,60.747,39.738,23.813,8.664,49.586,11.682,74.806,9.784" transform="translate(0 20.353)" fill="#e47e7f"/>
          <path id="Trazado_210935" data-name="Trazado 210935" d="M96.074,105.363c-.31-.521-.639-1.032-.995-1.528.356.5.684,1.007.995,1.528" transform="translate(7.054 7.703)" fill="#c6664f"/>
          <path id="Trazado_210936" data-name="Trazado 210936" d="M149.938,171.427c11.479-2.447,15.973-3.073,27.937-5.606a127.674,127.674,0,0,1-16.294-27.467c-8.551-19.534-14.283-40.6-18.017-61.736a10.288,10.288,0,0,1-8.863,1.047,68.872,68.872,0,0,1-31.959,40.848h0a22.074,22.074,0,0,1-5.608,15.629,94.427,94.427,0,0,1-17.77,14.367c-8.04,5.053-18.575,8.909-31.222,13.429l46.649-7.825s26.59,8.321,55.149,17.314" transform="translate(3.571 5.684)" fill="#c6664f"/>
          <path id="Trazado_210937" data-name="Trazado 210937" d="M132.2,82.243a10.363,10.363,0,1,1,13.728-15.16,14.06,14.06,0,0,0-8.607-22.767c-5.8-.981-11.711,3.518-14.487,8.7-7.285-4.69-11.705-12.688-15.168-20.63S101.316,16.08,95.934,9.29,82.831-1.336,74.35.428C67.28,1.9,61.381,11.786,60.228,18.913c-1.112,6.873,3.514,19.01,3.338,24.648-.226,7.217-.471,9.084-5.7,15.792C56,61.75,51.149,65.681,51,68.716c-.111,2.33,2.456,3.91,4.425,5.163a14.938,14.938,0,0,0,5.892,2.379c.039.046.074.089.114.135.018.986.029,1.934.037,2.852a5.007,5.007,0,0,1-1.2,3.427l-.016.018c-.373.406-.808.777-1.2,1.171a2.317,2.317,0,0,1,.657-.122c2.693-.06,2.546,1.042,5.254,2.157a12.487,12.487,0,0,0,5.363,1.115,49.721,49.721,0,0,0,5.318-.92c-2.151,3.657-7.148,9.133-10.656,11.148a8.746,8.746,0,0,1-1.025.509c.135.141.266.279.415.423,2.991,2.906,2.077,13.984,5.32,16.606,3.924,3.172,9.569,3.246,14.447,1.961s9.376-3.738,14.2-5.2c0,0,14.869-7.242,33.853-29.3M78.948,50.759a4.846,4.846,0,0,1-2.9.334c-1.522-.432-2.343-2.064-2.806-3.577s-.811-3.181-1.987-4.24a79.353,79.353,0,0,1,15.266,2.967,22.742,22.742,0,0,1-7.571,4.516M66.275,37.35a4.658,4.658,0,0,1-1.08-4.759,38.16,38.16,0,0,1,20.58-6.611c2.763-.06,10.163,2.319,12.538,3.732-12.073-1.369-10.63-.581-32.039,7.637" transform="translate(3.784 0)" fill="#c6664f"/>
          <path id="Trazado_210938" data-name="Trazado 210938" d="M97.5,108.343c-.127-.324-.266-.643-.409-.962.143.319.283.638.409.962" transform="translate(7.203 7.966)" fill="#c6664f"/>
          <path id="Trazado_210939" data-name="Trazado 210939" d="M96.841,106.813c-.174-.356-.364-.7-.557-1.049.193.347.383.694.557,1.049" transform="translate(7.143 7.846)" fill="#c6664f"/>
          <path id="Trazado_210940" data-name="Trazado 210940" d="M98.456,111.518c-.067-.3-.135-.594-.213-.888.077.294.146.591.213.888" transform="translate(7.288 8.207)" fill="#c6664f"/>
          <path id="Trazado_210941" data-name="Trazado 210941" d="M98.916,114.768c-.019-.273-.032-.547-.061-.819.029.272.042.546.061.819" transform="translate(7.334 8.454)" fill="#c6664f"/>
          <path id="Trazado_210942" data-name="Trazado 210942" d="M98.747,113.142c-.042-.287-.082-.574-.133-.859.052.286.091.573.133.859" transform="translate(7.316 8.33)" fill="#c6664f"/>
          <path id="Trazado_210943" data-name="Trazado 210943" d="M98.041,109.915q-.142-.464-.3-.919c.107.3.208.611.3.919" transform="translate(7.251 8.086)" fill="#c6664f"/>
          <path id="Trazado_210944" data-name="Trazado 210944" d="M54.941,197.554a49.436,49.436,0,0,0,34.921,21.431,58.124,58.124,0,0,0,22.168-1.965c-.255-10.859,1.124-21.429,5.8-29.548a43.873,43.873,0,0,1,27.635-20.4c1.657-.365,3.175-.693,4.591-1C121.5,157.083,94.91,148.762,94.91,148.762l-46.649,7.824c-3.914,13.541-1.121,29.228,6.679,40.967" transform="translate(3.45 11.036)" fill="#c6664f"/>
          <path id="Trazado_210945" data-name="Trazado 210945" d="M98.912,114.711c.023.325.054.65.062.975-.01-.325-.04-.65-.062-.975" transform="translate(7.338 8.51)" fill="#bc5642"/>
          <path id="Trazado_210946" data-name="Trazado 210946" d="M98.864,114.013c-.032-.312-.082-.621-.126-.931.044.31.093.62.126.931" transform="translate(7.325 8.389)" fill="#bc5642"/>
          <path id="Trazado_210947" data-name="Trazado 210947" d="M97.758,109.048c-.091-.259-.183-.516-.283-.771.1.255.192.512.283.771" transform="translate(7.232 8.033)" fill="#bc5642"/>
          <path id="Trazado_210948" data-name="Trazado 210948" d="M98.627,112.344c-.055-.3-.119-.592-.186-.887.067.3.131.59.186.887" transform="translate(7.303 8.269)" fill="#bc5642"/>
          <path id="Trazado_210949" data-name="Trazado 210949" d="M97.116,107.43c-.1-.23-.2-.461-.313-.689.111.227.209.459.313.689" transform="translate(7.182 7.919)" fill="#bc5642"/>
          <path id="Trazado_210950" data-name="Trazado 210950" d="M98.259,110.688q-.111-.421-.238-.836c.084.277.164.555.238.836" transform="translate(7.272 8.15)" fill="#bc5642"/>
          <path id="Trazado_210951" data-name="Trazado 210951" d="M96.3,105.8c-.1-.182-.193-.366-.3-.545.105.178.2.363.3.545" transform="translate(7.122 7.809)" fill="#bc5642"/>
          <path id="Trazado_210952" data-name="Trazado 210952" d="M131.218,77.669a10.343,10.343,0,0,1-2.287-1.106c-18.985,22.053-33.853,29.3-33.853,29.3.356.5.685,1.007,1,1.528.106.178.2.364.3.545.193.347.383.694.558,1.049.111.227.209.458.313.689.143.318.283.637.409.961.1.256.192.512.284.771.106.305.208.611.3.921.085.277.165.555.24.836s.146.591.213.888.131.59.185.887.092.571.134.859c.045.309.093.619.126.93.029.273.042.546.061.819.023.325.053.65.062.976a68.877,68.877,0,0,0,31.959-40.848" transform="translate(7.054 5.68)" fill="#bc5642"/>
          <path id="Trazado_210953" data-name="Trazado 210953" d="M61.113,80.823a22.289,22.289,0,0,1-3.479-1.249,3.7,3.7,0,0,1,1-1.5,3.268,3.268,0,0,0-2.009,2.379c-.346,1.261.551,2.523,1.27,3.328a10.639,10.639,0,0,0,2.76,1.968c-.98.732-1.457,3.032-1.136,4.278a2.929,2.929,0,0,0,2.6,2.235,3.452,3.452,0,0,0,1.433-.3c-3.433-3.542-2.989-5.91-2.437-11.134" transform="translate(4.196 5.792)" fill="#ce3d3d"/>
          <path id="Trazado_210954" data-name="Trazado 210954" d="M75.156,80.308a49.723,49.723,0,0,1-5.318.92,12.489,12.489,0,0,1-5.363-1.115C61.767,79,61.914,77.9,59.221,77.955a2.31,2.31,0,0,0-.656.122,3.7,3.7,0,0,0-1.005,1.5,22.179,22.179,0,0,0,3.479,1.248c-.552,5.225-1,7.592,2.437,11.134a8.677,8.677,0,0,0,1.026-.509c3.507-2.015,8.5-7.491,10.655-11.148" transform="translate(4.27 5.783)" fill="#ce3d3d"/>
          <path id="Trazado_210955" data-name="Trazado 210955" d="M135.253,66.176q.825,5.743,1.847,11.493a10.345,10.345,0,0,0,2.578-15.219,13.7,13.7,0,0,1-4.425,3.726" transform="translate(10.034 4.633)" fill="#fae6d8"/>
          <path id="Trazado_210956" data-name="Trazado 210956" d="M132.545,58.809a10.364,10.364,0,0,0-5.624,19.071c1.152-1.338,2.317-2.724,3.5-4.173a43.564,43.564,0,0,1-1.21,5.28,10.291,10.291,0,0,0,8.863-1.046q-1.017-5.749-1.847-11.494a13.714,13.714,0,0,0,4.425-3.726,10.34,10.34,0,0,0-8.1-3.911" transform="translate(9.064 4.363)" fill="#fae6d8"/>
          <path id="Trazado_210957" data-name="Trazado 210957" d="M126.593,76.851a10.3,10.3,0,0,0,2.287,1.106,43.841,43.841,0,0,0,1.21-5.279c-1.179,1.448-2.345,2.834-3.5,4.172" transform="translate(9.392 5.392)" fill="#fae6d8"/>
          <path id="Trazado_210958" data-name="Trazado 210958" d="M64.231,30.8a4.656,4.656,0,0,0,1.08,4.759c21.409-8.219,19.966-9.006,32.039-7.637-2.375-1.413-9.776-3.792-12.538-3.732A38.16,38.16,0,0,0,64.231,30.8" transform="translate(4.748 1.794)" fill="#764c4a"/>
          <path id="Trazado_210959" data-name="Trazado 210959" d="M71.841,44.527c.463,1.514,1.283,3.145,2.806,3.577a4.847,4.847,0,0,0,2.9-.334,22.748,22.748,0,0,0,7.57-4.516,79.326,79.326,0,0,0-15.265-2.967c1.176,1.059,1.524,2.726,1.987,4.24" transform="translate(5.182 2.989)" fill="#764c4a"/>
          <path id="Trazado_210960" data-name="Trazado 210960" d="M247.268,179.473c-4.086,9.048-14.469,14.451-24.693,14.915a39.8,39.8,0,0,1-7.7-.419c12.61,10.3,19.572,24.916,21.722,30,.491,1.158.739,1.836.739,1.836v38.111a2.565,2.565,0,0,1,0,4.213v43.669a2.33,2.33,0,0,1,1.45-.461c3.155,0,3.15,4.894,0,4.894a2.327,2.327,0,0,1-1.45-.46v26.2h33.552a240.315,240.315,0,0,1-14.7-53.708,2.481,2.481,0,0,1-.276.028c-3.016,0-3.136-4.464-.387-4.856-4.357-34.759,1.055-63.12,14.944-70.644a56.073,56.073,0,0,1,10.707-4.214c-2.243-.813-1.955-4.738.869-4.738a2.467,2.467,0,0,1,1.881,3.974c10.824-2.84,24.094-4.454,36.134-5.368-2.244-9.381-5.37-17.66-9.562-24.436-7.86-12.7-46.742-22.6-64.074-23.61,2.968,7.777,4.211,17.625.849,25.072m7.738,149.883c3.155,0,3.151,4.9,0,4.9s-3.15-4.9,0-4.9m45.959-136.33c3.155,0,3.15,4.9,0,4.9s-3.15-4.9,0-4.9m-6.308-19.313c3.155,0,3.149,4.894,0,4.894s-3.15-4.894,0-4.894m-23.43,4.249c3.155,0,3.15,4.9,0,4.9s-3.15-4.9,0-4.9m-7.209-17.121c3.155,0,3.15,4.894,0,4.894s-3.151-4.894,0-4.894m-18.925,36.947c3.155,0,3.149,4.9,0,4.9s-3.15-4.9,0-4.9m3.6,25.622c-3.155,0-3.15-4.9,0-4.9s3.15,4.9,0,4.9" transform="translate(15.941 11.455)" fill="#fae6d8"/>
          <path id="Trazado_210961" data-name="Trazado 210961" d="M169.03,159.638l-.114.025q.788,1,1.6,1.988-.762-1-1.487-2.013" transform="translate(12.531 11.843)" fill="#fae6d8"/>
          <path id="Trazado_210962" data-name="Trazado 210962" d="M185.171,309.82,182.7,284.8q-8.39,3.574-17.065,6.351c1.884,1.056,1.49,4.591-1.191,4.591a2.432,2.432,0,0,1-2.12-3.557,178.654,178.654,0,0,1-37.613,7.091c-.334.026-.669.041-1,.064,1.87,8.169,3.729,16.156,5.594,24.061,2.089-.191,4.178-.4,6.259-.662a201.254,201.254,0,0,0,49.608-12.917m-46.858-3.655c3.155,0,3.15,4.9,0,4.9s-3.15-4.9,0-4.9" transform="translate(9.178 21.128)" fill="#fae6d8"/>
          <path id="Trazado_210963" data-name="Trazado 210963" d="M181.1,265.455l-1.577-15.979a2.8,2.8,0,0,1-.137-1.394l-.356-3.6.873,2.413a2.236,2.236,0,0,1,1.811-.821c3.155,0,3.15,4.9,0,4.9a2.749,2.749,0,0,1-.349-.034l4.472,12.357q7.568-3.59,14.823-7.833a226.565,226.565,0,0,0,43.75-33.671c-2.152-5.081-9.113-19.7-21.723-30a59.065,59.065,0,0,1-20.484-7.617,87.911,87.911,0,0,0-15.079-.122,106.989,106.989,0,0,1-30.593,34.308,92.123,92.123,0,0,1-42.893,16.992c-1.371.159-2.743.267-4.115.351.849,5.154,1.83,10.026,2.742,14.338.345,1.631.687,3.242,1.029,4.848q3.651-.313,7.282-.856c17.926-2.711,35.176-9.791,50.858-19.82,15.754-10.075,29.913-23.075,42.348-37.849,1.263-1.5,3.284.771,2.017,2.264q-2.4,2.829-4.884,5.572c-13.06,14.4-27.918,26.877-44.243,36.225-16.43,9.408-34.314,15.576-52.733,17.226l-.056,0c1.63,7.628,3.229,15,4.807,22.157a155.053,155.053,0,0,0,18.084-1.49A169.057,169.057,0,0,0,181.1,265.455m-63.367-24.4c-3.155,0-3.15-4.9,0-4.9s3.15,4.9,0,4.9m36.947-9.011c-3.154,0-3.15-4.9,0-4.9s3.151,4.9,0,4.9m21.628-13.518c-3.154,0-3.15-4.9,0-4.9s3.151,4.9,0,4.9m19.826-25.233c-3.155,0-3.15-4.9,0-4.9s3.15,4.9,0,4.9m22.529,12.227c3.155,0,3.15,4.9,0,4.9s-3.151-4.9,0-4.9m-16.221,24.331c3.155,0,3.15,4.9,0,4.9s-3.15-4.9,0-4.9m-47.762,18.924c3.155,0,3.151,4.9,0,4.9s-3.15-4.9,0-4.9M138.464,269.5c3.155,0,3.15,4.9,0,4.9s-3.15-4.9,0-4.9" transform="translate(8.125 13.635)" fill="#fae6d8"/>
          <path id="Trazado_210964" data-name="Trazado 210964" d="M196.853,305.19q1.963-.975,3.906-1.984a243.923,243.923,0,0,0,38.523-25.022V261.189a2.365,2.365,0,0,1-1.254.341c-3.155,0-3.15-4.9,0-4.9a2.365,2.365,0,0,1,1.254.34v-9.069a227.714,227.714,0,0,1-50.618,34.651ZM218.2,282.769c3.155,0,3.15,4.9,0,4.9s-3.15-4.9,0-4.9" transform="translate(13.996 18.392)" fill="#fae6d8"/>
          <path id="Trazado_210965" data-name="Trazado 210965" d="M185.028,310.807a205.672,205.672,0,0,1-55.515,13.375q.733,3.1,1.469,6.188h55.976Zm-12.9,17.248c-3.155,0-3.15-4.9,0-4.9s3.15,4.9,0,4.9" transform="translate(9.608 23.058)" fill="#fae6d8"/>
          <path id="Trazado_210966" data-name="Trazado 210966" d="M182.779,283.424l-2.052-20.791A170.374,170.374,0,0,1,127.4,276.3q-4.37.364-8.762.483c1.621,7.325,3.22,14.442,4.81,21.417,3.269-.225,6.531-.532,9.78-.941a181.369,181.369,0,0,0,49.549-13.834" transform="translate(8.802 19.484)" fill="#fae6d8"/>
          <path id="Trazado_210967" data-name="Trazado 210967" d="M230.448,232.771a2.323,2.323,0,0,1-1.457-.466,219.2,219.2,0,0,1-40.031,27.161q-3.693,1.93-7.465,3.7l6.7,18.51c1.479-.744,2.953-1.5,4.414-2.281a227.2,227.2,0,0,0,47.2-33.854V222.558q-3.558,3.4-7.243,6.651a2.436,2.436,0,0,1-2.122,3.562M203.414,257.1c-3.155,0-3.15-4.9,0-4.9s3.15,4.9,0,4.9" transform="translate(13.465 16.511)" fill="#fae6d8"/>
          <path id="Trazado_210968" data-name="Trazado 210968" d="M159.99,212.066a103.789,103.789,0,0,0,23.731-27.73,102.071,102.071,0,0,0-38.79,12.55c-11.867,6.831-24.382,13.944-37.427,17.5a147.607,147.607,0,0,0,1.7,18.286,78.151,78.151,0,0,0,9.954-1.223,92.492,92.492,0,0,0,40.832-19.377m10.164-21.906c3.155,0,3.15,4.9,0,4.9s-3.15-4.9,0-4.9m-32.442,20.726c3.155,0,3.15,4.9,0,4.9s-3.15-4.9,0-4.9" transform="translate(7.975 13.675)" fill="#fae6d8"/>
          <path id="Trazado_210969" data-name="Trazado 210969" d="M207.019,332.678h31.629v-26.2a2.618,2.618,0,0,1,0-3.974V279.677A245.265,245.265,0,0,1,197.2,305.549Z" transform="translate(14.63 20.749)" fill="#fae6d8"/>
          <path id="Trazado_210970" data-name="Trazado 210970" d="M156.567,218.339a106.977,106.977,0,0,0,30.593-34.308c-1.186.09-2.371.193-3.557.328a103.825,103.825,0,0,1-23.731,27.73,92.5,92.5,0,0,1-40.833,19.377,78.344,78.344,0,0,1-9.954,1.223q.227,1.511.473,2.993c1.373-.084,2.745-.191,4.116-.35a92.14,92.14,0,0,0,42.893-16.993" transform="translate(8.093 13.653)" fill="#fae6d8"/>
          <path id="Trazado_210971" data-name="Trazado 210971" d="M166.416,239.589c16.324-9.348,31.183-21.83,44.243-36.225q2.485-2.738,4.884-5.572c1.266-1.493-.754-3.766-2.017-2.264C201.09,210.3,186.931,223.3,171.177,233.377c-15.682,10.029-32.932,17.109-50.858,19.82q-3.627.549-7.282.856c.2.927.393,1.847.59,2.766l.055,0c18.42-1.65,36.3-7.818,52.734-17.226" transform="translate(8.386 14.469)" fill="#fae6d8"/>
          <path id="Trazado_210972" data-name="Trazado 210972" d="M180.571,260.666l.995,2.75q3.769-1.769,7.465-3.7a219.2,219.2,0,0,0,40.031-27.161c-1.58-1.221-1.094-4.429,1.457-4.429a2.211,2.211,0,0,1,2.12,1.333q3.688-3.252,7.244-6.651V221s-.249-.678-.739-1.836a226.532,226.532,0,0,1-43.75,33.671q-7.246,4.234-14.823,7.833" transform="translate(13.396 16.259)" fill="#fae6d8"/>
          <path id="Trazado_210973" data-name="Trazado 210973" d="M180.77,262.842l-.3-3.027a169.053,169.053,0,0,1-44.326,12.864,154.834,154.834,0,0,1-18.085,1.491l.622,2.821q4.389-.119,8.762-.483a170.373,170.373,0,0,0,53.326-13.666" transform="translate(8.759 19.275)" fill="#fae6d8"/>
          <path id="Trazado_210974" data-name="Trazado 210974" d="M162.369,292.392a2.208,2.208,0,0,1,2.12-1.337,2.4,2.4,0,0,1,1.192.3q8.661-2.775,17.062-6.351l-.3-3.018A181.383,181.383,0,0,1,132.9,295.822c-3.249.409-6.512.716-9.779.941q.316,1.4.635,2.783c.335-.024.669-.039,1-.064a178.659,178.659,0,0,0,37.612-7.091" transform="translate(9.134 20.92)" fill="#fae6d8"/>
          <path id="Trazado_210975" data-name="Trazado 210975" d="M187.732,280.086l1,2.764A227.786,227.786,0,0,0,239.35,248.2v-4.246a227.2,227.2,0,0,1-47.2,33.854q-2.191,1.168-4.414,2.279" transform="translate(13.927 18.098)" fill="#fae6d8"/>
          <path id="Trazado_210976" data-name="Trazado 210976" d="M196.287,303.1l.983,2.717a245.324,245.324,0,0,0,41.445-25.872v-3.85a244.11,244.11,0,0,1-38.521,25.022q-1.943,1.01-3.907,1.983" transform="translate(14.562 20.483)" fill="#fae6d8"/>
          <path id="Trazado_210977" data-name="Trazado 210977" d="M184.784,308.093a201.231,201.231,0,0,1-49.608,12.917c-2.082.259-4.169.47-6.259.662q.321,1.357.64,2.711a205.663,205.663,0,0,0,55.515-13.375Z" transform="translate(9.564 22.857)" fill="#fae6d8"/>
          <path id="Trazado_210978" data-name="Trazado 210978" d="M185.19,178.637l2.746.874,3.857,1.231a97.566,97.566,0,0,1-19.348-19.094q-.81-.985-1.6-1.988c-11.965,2.533-16.46,3.159-27.937,5.606,14.693,4.627,29.9,9.429,42.283,13.37" transform="translate(10.602 11.845)" fill="#fae6d8"/>
          <path id="Trazado_210979" data-name="Trazado 210979" d="M183.724,185.779q2.172-3.661,4.1-7.53c-12.383-3.941-27.59-8.744-42.284-13.37-1.416.3-2.934.631-4.591.995a43.879,43.879,0,0,0-27.635,20.4c-4.68,8.119-6.058,18.689-5.8,29.547,13.046-3.55,25.561-10.663,37.428-17.494a102.059,102.059,0,0,1,38.79-12.55m-27.986-14.9c3.155,0,3.15,4.9,0,4.9s-3.15-4.9,0-4.9m-34.244,21.115c-3.155,0-3.15-4.9,0-4.9s3.15,4.9,0,4.9" transform="translate(7.973 12.232)" fill="#fae6d8"/>
          <path id="Trazado_210980" data-name="Trazado 210980" d="M181.768,184.469a87.912,87.912,0,0,1,15.079.122c-.252-.146-.506-.288-.756-.436a83.838,83.838,0,0,1-7.181-4.783q-1.867-.6-3.857-1.231c-.578,1.216-1.172,2.422-1.8,3.609q-.725,1.373-1.487,2.719" transform="translate(13.485 13.216)" fill="#fae6d8"/>
          <path id="Trazado_210981" data-name="Trazado 210981" d="M182.014,184.529q.761-1.347,1.487-2.719c.626-1.187,1.22-2.393,1.8-3.609l-2.746-.874q-1.917,3.869-4.1,7.53c1.186-.134,2.372-.237,3.557-.328" transform="translate(13.239 13.155)" fill="#fae6d8"/>
          <path id="Trazado_210982" data-name="Trazado 210982" d="M256.182,130.755c-.377-.035-.711-.063-1.026-.088.315.025.649.053,1.026.088" transform="translate(18.929 9.694)" fill="#f9bfb4"/>
          <path id="Trazado_210983" data-name="Trazado 210983" d="M254.824,130.643c-.45-.03-.882-.055-1.371-.081.489.026.921.05,1.371.081" transform="translate(18.803 9.686)" fill="#f9bfb4"/>
          <path id="Trazado_210984" data-name="Trazado 210984" d="M249.825,163.409a4.6,4.6,0,0,1-.881-.214,9.82,9.82,0,0,1-3.521-2.288c-7.291-5.025-20.776-18.594-17.586-49.065,0,0,22.752,24.433,41.207,26.916-2.843-.36-4.6-.567-5.87-.7,1.273.13,3.027.337,5.869.7,3.588.454,7.794.618,10.517-1.7,2.481-2.114,2.885-5.7,2.569-8.88s-1.1-6.371-.477-9.508a4.659,4.659,0,0,1,2.515-1.2l-.058-.052a2.238,2.238,0,0,1-.546.073,5.006,5.006,0,0,1-2.2-.843c-3.91-2.093-9.244-7.372-11.048-10.792a21.819,21.819,0,0,0,10.3.089c2.32-.451,3.673-1.537,6.122-1.367a2.187,2.187,0,0,1,1.247.519,4.032,4.032,0,0,1,.076-2.891,4.2,4.2,0,0,1,1.174-1.581,8.4,8.4,0,0,1,3.315-.969c2.652-.306,4.384-.627,5.484-2.582,2.25-4-3.093-8.53-5.02-11.441-3.279-5.492-6.431-15.3-7.52-21.19-.92-4.977.15-9.306.047-14.262a31.973,31.973,0,0,0-4.055-14.865,19.57,19.57,0,0,0-1.551-2.339C266,33.51,251.366,43.525,243.181,54.811c-2.722,3.754-4.943,7.992-9.971,9.628a5.647,5.647,0,0,1-3.485-.154l-.041-.014a10.235,10.235,0,0,0-11.153-6.228,12.114,12.114,0,0,0-9.372,9.182,14.4,14.4,0,0,0,3.8,12.641,17.716,17.716,0,0,0,3.452,2.825,7.721,7.721,0,1,1,10.665,10.97c1.892,11.656.7,23.11-2.442,35.264-3.022,11.7-11.778,19.978-22.027,26.375s-22.065,10.16-33.625,13.67l.047.064c1.1-.234,2.257-.481,3.5-.75ZM273.33,67.9c.529,2.174-1.692,4.9-3.819,5.6a7.559,7.559,0,0,1-6.372-1.2c-1.862-1.239-3.011-3.275-4.408-5.022a48.748,48.748,0,0,0,18.689-3.885A11.5,11.5,0,0,1,273.33,67.9M258.551,51.108a38.165,38.165,0,0,1,21.184,4.3,4.658,4.658,0,0,1-.548,4.849C257,54.451,258.349,53.508,246.5,56.2c2.205-1.665,9.3-4.848,12.05-5.093" transform="translate(12.536 2.447)" fill="#f9bfb4"/>
          <path id="Trazado_210985" data-name="Trazado 210985" d="M237.542,137.65l-.016.063.016-.063" transform="translate(17.621 10.212)" fill="#f9bfb4"/>
          <path id="Trazado_210986" data-name="Trazado 210986" d="M245.258,131.12a22.875,22.875,0,0,1,7.089-.647c.679.042,1.226.072,1.713.1-.488-.027-1.034-.057-1.713-.1a22.875,22.875,0,0,0-7.089.647" transform="translate(18.195 9.676)" fill="#f9bfb4"/>
          <path id="Trazado_210987" data-name="Trazado 210987" d="M237.4,138.243l0,.016,0-.016" transform="translate(17.612 10.256)" fill="#f9bfb4"/>
          <path id="Trazado_210988" data-name="Trazado 210988" d="M194.08,182.486c3.3,1.06,6.209,2,8.59,2.775a48.471,48.471,0,0,1,15.606,8.71,39.819,39.819,0,0,0,7.7.418c10.223-.463,20.607-5.867,24.692-14.914,3.363-7.446,2.119-17.294-.848-25.072l-77.3,4.876c-1.239.269-2.394.516-3.5.749q.723,1.01,1.487,2.013a87.2,87.2,0,0,0,23.572,20.446" transform="translate(12.539 11.455)" fill="#f9bfb4"/>
          <path id="Trazado_210989" data-name="Trazado 210989" d="M196.062,184.412a59.051,59.051,0,0,0,20.484,7.617,48.528,48.528,0,0,0-15.607-8.71c-2.381-.777-5.287-1.714-8.59-2.775a65.166,65.166,0,0,0,10.139,4.737c-2.106-.388-4.257-.661-6.426-.87" transform="translate(14.27 13.394)" fill="#f9bfb4"/>
          <path id="Trazado_210990" data-name="Trazado 210990" d="M170.4,161.511A97.594,97.594,0,0,0,189.753,180.6l4.224,1.352A87.181,87.181,0,0,1,170.4,161.511" transform="translate(12.642 11.982)" fill="#f9bfb4"/>
          <path id="Trazado_210991" data-name="Trazado 210991" d="M196.354,184.505c2.169.209,4.319.482,6.426.87a65.168,65.168,0,0,1-10.139-4.737l-4.224-1.352a83.858,83.858,0,0,0,7.181,4.784c.25.147.5.29.756.435" transform="translate(13.978 13.301)" fill="#f9bfb4"/>
          <path id="Trazado_210992" data-name="Trazado 210992" d="M237.659,137.26c-.037.115-.077.26-.118.419.041-.16.082-.3.118-.419" transform="translate(17.623 10.183)" fill="#e59891"/>
          <path id="Trazado_210993" data-name="Trazado 210993" d="M237.535,137.709c-.043.17-.087.362-.131.574.044-.213.088-.4.131-.574" transform="translate(17.612 10.216)" fill="#e59891"/>
          <path id="Trazado_210994" data-name="Trazado 210994" d="M240.377,153.1c.042.029.086.061.128.089-4.316-4.257-3.721-11.768-3.072-14.928-.65,3.134-1.259,10.561,2.944,14.839" transform="translate(17.58 10.257)" fill="#e59891"/>
          <path id="Trazado_210995" data-name="Trazado 210995" d="M223.8,106.4c-3.19,30.47,10.3,44.041,17.586,49.066-4.2-4.279-3.594-11.7-2.944-14.839l0-.017q.066-.317.13-.573c.006-.023.011-.042.017-.063.041-.16.082-.305.118-.419,1.14-3.539,4.378-5.653,8.171-6.648a22.872,22.872,0,0,1,7.089-.647c.679.042,1.225.072,1.713.1s.921.05,1.371.081c.15.01.3.021.46.033.315.024.649.052,1.025.087l.6.059c1.272.13,3.026.337,5.869.7C246.557,130.831,223.8,106.4,223.8,106.4" transform="translate(16.568 7.893)" fill="#e59891"/>
          <path id="Trazado_210996" data-name="Trazado 210996" d="M273.989,104.1c-3.389,3.4-1.138,5.136,2.453,8.341a2.747,2.747,0,0,0,1.912-1.853c.344-1.121.006-3.237-.855-3.944a9.73,9.73,0,0,0,2.6-1.676c.688-.7,1.559-1.814,1.3-2.977a3.339,3.339,0,0,0-1.076-1.872c.071.286.153.583.249.907-2.88.537-5.532.887-6.577,3.074" transform="translate(20.203 7.428)" fill="#f05b5a"/>
          <path id="Trazado_210997" data-name="Trazado 210997" d="M273.617,101a21.814,21.814,0,0,1-10.3-.089c1.8,3.42,7.137,8.7,11.047,10.792a5,5,0,0,0,2.2.843,2.232,2.232,0,0,0,.546-.073c-3.592-3.205-5.843-4.941-2.453-8.341,1.046-2.188,3.7-2.538,6.576-3.075-.095-.322-.177-.62-.249-.906a2.184,2.184,0,0,0-1.246-.519c-2.45-.17-3.8.916-6.122,1.367" transform="translate(19.535 7.39)" fill="#f05b5a"/>
          <path id="Trazado_210998" data-name="Trazado 210998" d="M213.246,79.258a7.718,7.718,0,0,0,10.665,10.97,70.319,70.319,0,0,0-1.72-7.79,21.951,21.951,0,0,1-8.945-3.18" transform="translate(15.698 5.88)" fill="#f89c1c"/>
          <path id="Trazado_210999" data-name="Trazado 210999" d="M226.94,84.223a7.722,7.722,0,0,0-13.808-4.76,21.964,21.964,0,0,0,8.944,3.181,70.5,70.5,0,0,1,1.722,7.789,7.712,7.712,0,0,0,3.142-6.21" transform="translate(15.812 5.675)" fill="#f89c1c"/>
          <path id="Trazado_211000" data-name="Trazado 211000" d="M256.94,70.2a7.559,7.559,0,0,0,6.372,1.2c2.127-.693,4.347-3.425,3.819-5.6a11.5,11.5,0,0,0,4.088-4.511,48.741,48.741,0,0,1-18.688,3.884c1.4,1.748,2.546,3.783,4.408,5.023" transform="translate(18.735 4.547)" fill="#9f6b62"/>
          <path id="Trazado_211001" data-name="Trazado 211001" d="M273.833,59.014a4.658,4.658,0,0,0,.548-4.849,38.165,38.165,0,0,0-21.184-4.3c-2.752.245-9.845,3.428-12.05,5.093,11.848-2.693,10.5-1.75,32.686,4.055" transform="translate(17.89 3.689)" fill="#9f6b62"/>
          <path id="Trazado_211002" data-name="Trazado 211002" d="M152.567,175.358c3.15,0,3.155-4.9,0-4.9s-3.155,4.9,0,4.9" transform="translate(11.143 12.646)" fill="#a27c7e"/>
          <path id="Trazado_211003" data-name="Trazado 211003" d="M171.862,211.57c-3.15,0-3.155,4.9,0,4.9s3.155-4.9,0-4.9" transform="translate(12.575 15.696)" fill="#a27c7e"/>
          <path id="Trazado_211004" data-name="Trazado 211004" d="M211.292,208.914c3.15,0,3.155-4.9,0-4.9s-3.155,4.9,0,4.9" transform="translate(15.5 15.136)" fill="#a27c7e"/>
          <path id="Trazado_211005" data-name="Trazado 211005" d="M151.729,249.182c3.148,0,3.155-4.9,0-4.9s-3.156,4.9,0,4.9" transform="translate(11.081 18.123)" fill="#a27c7e"/>
          <path id="Trazado_211006" data-name="Trazado 211006" d="M202.063,250.16c-3.15,0-3.155,4.9,0,4.9s3.155-4.9,0-4.9" transform="translate(14.815 18.559)" fill="#a27c7e"/>
          <path id="Trazado_211007" data-name="Trazado 211007" d="M135.789,213.948c3.15,0,3.155-4.9,0-4.9s-3.155,4.9,0,4.9" transform="translate(9.898 15.509)" fill="#a27c7e"/>
          <path id="Trazado_211008" data-name="Trazado 211008" d="M229.289,228.75q-1.774,1.565-3.577,3.1a2.323,2.323,0,0,0,1.457.466,2.436,2.436,0,0,0,2.12-3.562" transform="translate(16.745 16.97)" fill="#a27c7e"/>
          <path id="Trazado_211009" data-name="Trazado 211009" d="M227.231,227.509c-2.55,0-3.037,3.208-1.457,4.429q1.8-1.529,3.577-3.1a2.209,2.209,0,0,0-2.12-1.333" transform="translate(16.682 16.878)" fill="#a27c7e"/>
          <path id="Trazado_211010" data-name="Trazado 211010" d="M161.8,295.3c2.68,0,3.074-3.535,1.191-4.592-1.1.353-2.205.7-3.313,1.034A2.433,2.433,0,0,0,161.8,295.3" transform="translate(11.828 21.567)" fill="#a27c7e"/>
          <path id="Trazado_211011" data-name="Trazado 211011" d="M159.658,291.765c1.106-.333,2.21-.682,3.313-1.034a2.4,2.4,0,0,0-1.192-.3,2.208,2.208,0,0,0-2.12,1.337" transform="translate(11.845 21.546)" fill="#a27c7e"/>
          <path id="Trazado_211012" data-name="Trazado 211012" d="M136.628,263.583c-3.15,0-3.155,4.9,0,4.9s3.155-4.9,0-4.9" transform="translate(9.961 19.555)" fill="#a27c7e"/>
          <path id="Trazado_211013" data-name="Trazado 211013" d="M120.689,185.563c-3.15,0-3.155,4.9,0,4.9s3.155-4.9,0-4.9" transform="translate(8.778 13.766)" fill="#a27c7e"/>
          <path id="Trazado_211014" data-name="Trazado 211014" d="M196.191,231.565c3.15,0,3.155-4.9,0-4.9s-3.155,4.9,0,4.9" transform="translate(14.38 16.816)" fill="#a27c7e"/>
          <path id="Trazado_211015" data-name="Trazado 211015" d="M137.467,309.584c3.149,0,3.155-4.9,0-4.9s-3.155,4.9,0,4.9" transform="translate(10.023 22.604)" fill="#a27c7e"/>
          <path id="Trazado_211016" data-name="Trazado 211016" d="M117.333,232.543c-3.15,0-3.155,4.9,0,4.9s3.155-4.9,0-4.9" transform="translate(8.529 17.252)" fill="#a27c7e"/>
          <path id="Trazado_211017" data-name="Trazado 211017" d="M169.346,322.307c-3.15,0-3.155,4.9,0,4.9s3.155-4.9,0-4.9" transform="translate(12.388 23.911)" fill="#a27c7e"/>
          <path id="Trazado_211018" data-name="Trazado 211018" d="M216.325,285.256c3.15,0,3.155-4.9,0-4.9s-3.155,4.9,0,4.9" transform="translate(15.873 20.799)" fill="#a27c7e"/>
          <path id="Trazado_211019" data-name="Trazado 211019" d="M237.235,305.39c3.15,0,3.155-4.9,0-4.9a2.33,2.33,0,0,0-1.45.461v3.974a2.334,2.334,0,0,0,1.45.46" transform="translate(17.492 22.293)" fill="#a27c7e"/>
          <path id="Trazado_211020" data-name="Trazado 211020" d="M235.848,304.9v-3.974a2.619,2.619,0,0,0,0,3.974" transform="translate(17.429 22.325)" fill="#a27c7e"/>
          <path id="Trazado_211021" data-name="Trazado 211021" d="M252.4,322.168c3.15,0,3.155-4.9,0-4.9s-3.155,4.9,0,4.9" transform="translate(18.549 23.538)" fill="#a27c7e"/>
          <path id="Trazado_211022" data-name="Trazado 211022" d="M253.237,279.38a2.534,2.534,0,0,0,.276-.028q-.363-2.433-.664-4.828c-2.749.392-2.63,4.856.388,4.856" transform="translate(18.612 20.366)" fill="#a27c7e"/>
          <path id="Trazado_211023" data-name="Trazado 211023" d="M174.7,245.036l-.137-1.394a2.8,2.8,0,0,0,.137,1.394" transform="translate(12.948 18.075)" fill="#a27c7e"/>
          <path id="Trazado_211024" data-name="Trazado 211024" d="M176.858,246.665c3.15,0,3.155-4.9,0-4.9a2.236,2.236,0,0,0-1.811.821l1.462,4.04a2.749,2.749,0,0,0,.349.034" transform="translate(12.986 17.936)" fill="#a27c7e"/>
          <path id="Trazado_211025" data-name="Trazado 211025" d="M235.785,256.349v4.214a2.566,2.566,0,0,0,0-4.214" transform="translate(17.492 19.018)" fill="#a27c7e"/>
          <path id="Trazado_211026" data-name="Trazado 211026" d="M234.781,260.927a2.355,2.355,0,0,0,1.254-.342v-4.213a2.365,2.365,0,0,0-1.254-.341c-3.15,0-3.155,4.9,0,4.9" transform="translate(17.242 18.994)" fill="#a27c7e"/>
          <path id="Trazado_211027" data-name="Trazado 211027" d="M246.526,218.981c3.15,0,3.155-4.9,0-4.9s-3.155,4.9,0,4.9" transform="translate(18.114 15.883)" fill="#a27c7e"/>
          <path id="Trazado_211028" data-name="Trazado 211028" d="M267.5,181.23c3.15,0,3.155-4.9,0-4.9s-3.155,4.9,0,4.9" transform="translate(19.67 13.082)" fill="#a27c7e"/>
          <path id="Trazado_211029" data-name="Trazado 211029" d="M165.99,194.653c3.15,0,3.155-4.9,0-4.9s-3.155,4.9,0,4.9" transform="translate(12.139 14.078)" fill="#a27c7e"/>
          <path id="Trazado_211030" data-name="Trazado 211030" d="M151.729,224.153c-3.151,0-3.156,4.9,0,4.9s3.155-4.9,0-4.9" transform="translate(11.081 16.629)" fill="#a27c7e"/>
          <path id="Trazado_211031" data-name="Trazado 211031" d="M190.319,188.08c-3.15,0-3.155,4.9,0,4.9s3.155-4.9,0-4.9" transform="translate(13.944 13.953)" fill="#a27c7e"/>
          <path id="Trazado_211032" data-name="Trazado 211032" d="M289.311,177.274c3.149,0,3.155-4.9,0-4.9s-3.155,4.9,0,4.9" transform="translate(21.288 12.788)" fill="#a27c7e"/>
          <path id="Trazado_211033" data-name="Trazado 211033" d="M243.171,199.686c3.148,0,3.155-4.9,0-4.9s-3.156,4.9,0,4.9" transform="translate(17.865 14.451)" fill="#a27c7e"/>
          <path id="Trazado_211034" data-name="Trazado 211034" d="M260.788,165.291c3.15,0,3.155-4.9,0-4.9s-3.155,4.9,0,4.9" transform="translate(19.172 11.899)" fill="#a27c7e"/>
          <path id="Trazado_211035" data-name="Trazado 211035" d="M277.566,200.425c-2.824,0-3.112,3.925-.869,4.738q1.345-.4,2.75-.764a2.467,2.467,0,0,0-1.881-3.974" transform="translate(20.417 14.869)" fill="#a27c7e"/>
          <path id="Trazado_211036" data-name="Trazado 211036" d="M295.183,195.253c3.15,0,3.155-4.9,0-4.9s-3.155,4.9,0,4.9" transform="translate(21.724 14.122)" fill="#a27c7e"/>
          <path id="Trazado_211037" data-name="Trazado 211037" d="M189.408,280.164c-.986.49-1.972.978-2.966,1.452q-3.872,1.845-7.815,3.525l2.47,25.023q8.4-3.347,16.5-7.369Z" transform="translate(13.252 20.785)" fill="#fae6d8"/>
          <g id="Grupo_170471" data-name="Grupo 170471" transform="translate(191.879 300.949)" opacity="0.44" style="mix-blend-mode: multiply;isolation: isolate">
            <g id="Grupo_170470" data-name="Grupo 170470">
              <g id="Grupo_170469" data-name="Grupo 170469" clip-path="url(#clip-path-3)">
                <path id="Trazado_211038" data-name="Trazado 211038" d="M189.408,280.164c-.986.49-1.972.978-2.966,1.452q-3.872,1.845-7.815,3.525l2.47,25.023q8.4-3.347,16.5-7.369Z" transform="translate(-178.627 -280.164)" fill="#cdc2bb"/>
              </g>
            </g>
          </g>
          <path id="Trazado_211039" data-name="Trazado 211039" d="M176.535,246.4a2.2,2.2,0,0,1-1.842-1.457l1.577,15.98q2.383-1.051,4.737-2.166Z" transform="translate(12.96 18.171)" fill="#fae6d8"/>
          <g id="Grupo_170474" data-name="Grupo 170474" transform="translate(187.653 263.111)" opacity="0.44" style="mix-blend-mode: multiply;isolation: isolate">
            <g id="Grupo_170473" data-name="Grupo 170473">
              <g id="Grupo_170472" data-name="Grupo 170472" clip-path="url(#clip-path-4)">
                <path id="Trazado_211040" data-name="Trazado 211040" d="M176.535,246.4a2.2,2.2,0,0,1-1.842-1.457l1.577,15.98q2.383-1.051,4.737-2.166Z" transform="translate(-174.693 -244.94)" fill="#cdc2bb"/>
              </g>
            </g>
          </g>
          <path id="Trazado_211041" data-name="Trazado 211041" d="M198.39,303.762q-2.053,1.007-4.126,1.973-6.447,3-13.071,5.593l1.93,19.563h25.082Zm-2.162,7.693c-3.155,0-3.15-4.9,0-4.9s3.15,4.9,0,4.9" transform="translate(13.442 22.535)" fill="#fae6d8"/>
          <g id="Grupo_170477" data-name="Grupo 170477" transform="translate(194.635 326.297)" opacity="0.44" style="mix-blend-mode: multiply;isolation: isolate">
            <g id="Grupo_170476" data-name="Grupo 170476">
              <g id="Grupo_170475" data-name="Grupo 170475" clip-path="url(#clip-path-5)">
                <path id="Trazado_211042" data-name="Trazado 211042" d="M198.39,303.762q-2.053,1.007-4.126,1.973-6.447,3-13.071,5.593l1.93,19.563h25.082Zm-2.162,7.693c-3.155,0-3.15-4.9,0-4.9s3.15,4.9,0,4.9" transform="translate(-181.193 -303.762)" fill="#cdc2bb"/>
              </g>
            </g>
          </g>
          <path id="Trazado_211043" data-name="Trazado 211043" d="M181.872,260.36q-2.7,1.266-5.433,2.442l2.052,20.791q5.1-2.22,10.079-4.722Zm1.19,14.665c-3.155,0-3.15-4.9,0-4.9s3.15,4.9,0,4.9" transform="translate(13.09 19.315)" fill="#fae6d8"/>
          <g id="Grupo_170480" data-name="Grupo 170480" transform="translate(189.529 279.675)" opacity="0.44" style="mix-blend-mode: multiply;isolation: isolate">
            <g id="Grupo_170479" data-name="Grupo 170479">
              <g id="Grupo_170478" data-name="Grupo 170478" clip-path="url(#clip-path-6)">
                <path id="Trazado_211044" data-name="Trazado 211044" d="M181.872,260.36q-2.7,1.266-5.433,2.442l2.052,20.791q5.1-2.22,10.079-4.722Zm1.19,14.665c-3.155,0-3.15-4.9,0-4.9s3.15,4.9,0,4.9" transform="translate(-176.439 -260.359)" fill="#cdc2bb"/>
              </g>
            </g>
          </g>
          <path id="Trazado_211045" data-name="Trazado 211045" d="M174.234,240.288l.356,3.6a2.514,2.514,0,0,1,.518-1.19Z" transform="translate(12.926 17.826)" fill="#fae6d8"/>
          <g id="Grupo_170483" data-name="Grupo 170483" transform="translate(187.16 258.114)" opacity="0.44" style="mix-blend-mode: multiply;isolation: isolate">
            <g id="Grupo_170482" data-name="Grupo 170482">
              <g id="Grupo_170481" data-name="Grupo 170481" clip-path="url(#clip-path-7)">
                <path id="Trazado_211046" data-name="Trazado 211046" d="M174.234,240.288l.356,3.6a2.514,2.514,0,0,1,.518-1.19Z" transform="translate(-174.234 -240.288)" fill="#cdc2bb"/>
              </g>
            </g>
          </g>
          <path id="Trazado_211047" data-name="Trazado 211047" d="M180.9,257.8q-2.354,1.117-4.736,2.164l.3,3.027q2.733-1.179,5.432-2.442Z" transform="translate(13.069 19.126)" fill="#fae6d8"/>
          <g id="Grupo_170486" data-name="Grupo 170486" transform="translate(189.23 276.925)" opacity="0.44" style="mix-blend-mode: multiply;isolation: isolate">
            <g id="Grupo_170485" data-name="Grupo 170485">
              <g id="Grupo_170484" data-name="Grupo 170484" clip-path="url(#clip-path-8)">
                <path id="Trazado_211048" data-name="Trazado 211048" d="M180.9,257.8q-2.354,1.117-4.736,2.164l.3,3.027q2.733-1.179,5.432-2.442Z" transform="translate(-176.161 -257.799)" fill="#cdc2bb"/>
              </g>
            </g>
          </g>
          <path id="Trazado_211049" data-name="Trazado 211049" d="M189.428,280.355l-1-2.764q-4.974,2.5-10.079,4.723l.3,3.018q3.941-1.679,7.815-3.526c.994-.475,1.98-.962,2.966-1.452" transform="translate(13.231 20.594)" fill="#fae6d8"/>
          <g id="Grupo_170489" data-name="Grupo 170489" transform="translate(191.58 298.185)" opacity="0.44" style="mix-blend-mode: multiply;isolation: isolate">
            <g id="Grupo_170488" data-name="Grupo 170488">
              <g id="Grupo_170487" data-name="Grupo 170487" clip-path="url(#clip-path-9)">
                <path id="Trazado_211050" data-name="Trazado 211050" d="M189.428,280.355l-1-2.764q-4.974,2.5-10.079,4.723l.3,3.018q3.941-1.679,7.815-3.526c.994-.475,1.98-.962,2.966-1.452" transform="translate(-178.349 -277.591)" fill="#cdc2bb"/>
              </g>
            </g>
          </g>
          <path id="Trazado_211051" data-name="Trazado 211051" d="M198.409,303.95l-.983-2.717q-8.092,4.015-16.5,7.369l.287,2.914q6.621-2.588,13.071-5.593,2.074-.965,4.126-1.973" transform="translate(13.422 22.348)" fill="#fae6d8"/>
          <g id="Grupo_170492" data-name="Grupo 170492" transform="translate(194.348 323.581)" opacity="0.44" style="mix-blend-mode: multiply;isolation: isolate">
            <g id="Grupo_170491" data-name="Grupo 170491">
              <g id="Grupo_170490" data-name="Grupo 170490" clip-path="url(#clip-path-10)">
                <path id="Trazado_211052" data-name="Trazado 211052" d="M198.409,303.95l-.983-2.717q-8.092,4.015-16.5,7.369l.287,2.914q6.621-2.588,13.071-5.593,2.074-.965,4.126-1.973" transform="translate(-180.926 -301.233)" fill="#cdc2bb"/>
              </g>
            </g>
          </g>
          <path id="Trazado_211053" data-name="Trazado 211053" d="M182.768,269.455c-3.15,0-3.155,4.9,0,4.9s3.155-4.9,0-4.9" transform="translate(13.384 19.99)" fill="#a27c7e"/>
          <g id="Grupo_170495" data-name="Grupo 170495" transform="translate(193.789 289.445)" opacity="0.44" style="mix-blend-mode: multiply;isolation: isolate">
            <g id="Grupo_170494" data-name="Grupo 170494">
              <g id="Grupo_170493" data-name="Grupo 170493" clip-path="url(#clip-path-11)">
                <path id="Trazado_211054" data-name="Trazado 211054" d="M182.768,269.455c-3.15,0-3.155,4.9,0,4.9s3.155-4.9,0-4.9" transform="translate(-180.405 -269.455)" fill="#cdc2bb"/>
              </g>
            </g>
          </g>
          <path id="Trazado_211055" data-name="Trazado 211055" d="M195.352,306.367c-3.15,0-3.155,4.9,0,4.9s3.155-4.9,0-4.9" transform="translate(14.317 22.729)" fill="#a27c7e"/>
          <g id="Grupo_170498" data-name="Grupo 170498" transform="translate(207.305 329.096)" opacity="0.44" style="mix-blend-mode: multiply;isolation: isolate">
            <g id="Grupo_170497" data-name="Grupo 170497">
              <g id="Grupo_170496" data-name="Grupo 170496" clip-path="url(#clip-path-12)">
                <path id="Trazado_211056" data-name="Trazado 211056" d="M195.352,306.367c-3.15,0-3.155,4.9,0,4.9s3.155-4.9,0-4.9" transform="translate(-192.988 -306.367)" fill="#cdc2bb"/>
              </g>
            </g>
          </g>
          <path id="Trazado_211057" data-name="Trazado 211057" d="M176.545,246.574l-1.462-4.04a2.516,2.516,0,0,0-.518,1.189l.137,1.394a2.2,2.2,0,0,0,1.842,1.457" transform="translate(12.951 17.993)" fill="#a27c7e"/>
          <g id="Grupo_170501" data-name="Grupo 170501" transform="translate(187.516 260.527)" opacity="0.44" style="mix-blend-mode: multiply;isolation: isolate">
            <g id="Grupo_170500" data-name="Grupo 170500">
              <g id="Grupo_170499" data-name="Grupo 170499" clip-path="url(#clip-path-13)">
                <path id="Trazado_211058" data-name="Trazado 211058" d="M176.545,246.574l-1.462-4.04a2.516,2.516,0,0,0-.518,1.189l.137,1.394a2.2,2.2,0,0,0,1.842,1.457" transform="translate(-174.565 -242.534)" fill="#cdc2bb"/>
              </g>
            </g>
          </g>
          <path id="Trazado_211059" data-name="Trazado 211059" d="M317.691,320.534l3.92,9.113h44.508q.069-1.3.134-2.574c-17.032-1.6-33.747-3.77-48.562-6.54" transform="translate(23.569 23.78)" fill="#287099"/>
          <path id="Trazado_211060" data-name="Trazado 211060" d="M314.672,295.75c12.08.8,31.25,1.9,52.8,2.483-.733-12.76-.163-26.158,3.943-38.065a52.746,52.746,0,0,1,8.132-15.287c.366-.47.753-.943,1.155-1.415q.614-.738,1.256-1.453a45.805,45.805,0,0,1-7.474.681q-1.067.006-2.137-.042c-11.407-.518-22.993-6.547-27.552-16.642-3.751-8.308-2.365-19.295.945-27.972-2.648-.021-16.665-.064-32.945,1.172,6.3,26.336,5.619,61.394,1.881,96.539" transform="translate(23.205 14.691)" fill="#287099"/>
          <path id="Trazado_211061" data-name="Trazado 211061" d="M426.78,203.511c-.038-.008-.074-.02-.112-.028-.014.019-.029.039-.042.058l.073.039.081-.069" transform="translate(31.65 15.096)" fill="#287099"/>
          <path id="Trazado_211062" data-name="Trazado 211062" d="M377.264,238.976q-.64.717-1.256,1.453c.413-.487.846-.973,1.3-1.46l-.04.006" transform="translate(27.895 17.729)" fill="#287099"/>
          <path id="Trazado_211063" data-name="Trazado 211063" d="M426.809,203.6c-.323.453-.659.906-.99,1.358,8.546,12.068,17.678,23.108,27.318,30.02,2.47,1.771,5.022,3.485,7.642,5.085a74.4,74.4,0,0,0-6.12-13.843c-5.883-10.129-16.358-20.277-27.819-22.716-.026.024-.054.046-.079.069l.049.027" transform="translate(31.59 15.098)" fill="#287099"/>
          <path id="Trazado_211064" data-name="Trazado 211064" d="M376.649,240.328c-.4.473-.788.944-1.154,1.416a52.758,52.758,0,0,0-8.133,15.286,52.758,52.758,0,0,1,8.133-15.286c.374-.481.764-.949,1.154-1.416" transform="translate(27.254 17.829)" fill="#287099"/>
          <path id="Trazado_211065" data-name="Trazado 211065" d="M473.81,329.142c-.031-.6-.07-1.2-.1-1.8a87.286,87.286,0,0,1-12.862,1.8Z" transform="translate(34.189 24.285)" fill="#287099"/>
          <path id="Trazado_211066" data-name="Trazado 211066" d="M475.989,290.941c.623,4.025,1.358,9.251,2.094,14.843-1.975-15.6-4.668-31.116-7.752-46.349a164.035,164.035,0,0,0-4.925-19.467c-2.62-1.6-5.171-3.314-7.641-5.085-9.64-6.912-18.771-17.952-27.318-30.02-7.873,10.726-18.019,21-29.569,27.831a67.719,67.719,0,0,1-22.642,8.807c-.449.487-.883.973-1.3,1.46-.39.467-.781.935-1.154,1.415a52.776,52.776,0,0,0-8.133,15.287c-4.107,11.907-4.676,25.3-3.943,38.065,39.074,1.057,85.918.416,112.278-6.786" transform="translate(26.963 15.198)" fill="#287099"/>
          <path id="Trazado_211067" data-name="Trazado 211067" d="M362.774,329.2H398.8c-11.753-.591-23.9-1.444-35.89-2.574q-.064,1.279-.134,2.574" transform="translate(26.913 24.231)" fill="#287099"/>
          <path id="Trazado_211068" data-name="Trazado 211068" d="M279.336,205.416a2.488,2.488,0,0,1-.868-.157,56.015,56.015,0,0,0-10.707,4.214c-13.89,7.524-19.3,35.885-14.945,70.644a2.769,2.769,0,0,1,.388-.039c3.056,0,3.138,4.581.276,4.867a240.2,240.2,0,0,0,14.7,53.708h43.645l-17.891-75.783,13.752,31.972c2.131.166,6.117.465,11.541.825,3.737-35.146,4.418-70.2-1.881-96.54-12.038.914-25.309,2.528-36.132,5.368a2.219,2.219,0,0,1-1.882.921m-18.924,41.965c-3.155,0-3.15-4.9,0-4.9s3.149,4.9,0,4.9m5.407,63.726c-3.155,0-3.15-4.9,0-4.9s3.15,4.9,0,4.9m7.209-87.545c3.155,0,3.15,4.9,0,4.9s-3.15-4.9,0-4.9m3.6,50.6c-3.155,0-3.15-4.9,0-4.9s3.15,4.9,0,4.9m29.738,54.582c3.155,0,3.149,4.9,0,4.9s-3.15-4.9,0-4.9m4.505-41.064c-3.154,0-3.15-4.9,0-4.9s3.151,4.9,0,4.9m.9-44.157c-3.154,0-3.15-4.9,0-4.9s3.151,4.9,0,4.9m-3.6-32.83c3.155,0,3.15,4.894,0,4.894s-3.15-4.894,0-4.894m-16.221,36.045c3.155,0,3.15,4.9,0,4.9s-3.15-4.9,0-4.9m-8.11,56.773c3.155,0,3.15,4.9,0,4.9s-3.15-4.9,0-4.9" transform="translate(18.647 14.773)" fill="#287099"/>
          <path id="Trazado_211069" data-name="Trazado 211069" d="M281.761,301.2c3.15,0,3.155-4.9,0-4.9s-3.155,4.9,0,4.9" transform="translate(20.728 21.982)" fill="#287099"/>
          <path id="Trazado_211070" data-name="Trazado 211070" d="M253.1,274.488a2.622,2.622,0,0,0-.388.039q.3,2.394.664,4.829c2.862-.286,2.78-4.867-.276-4.867" transform="translate(18.748 20.364)" fill="#287099"/>
          <path id="Trazado_211071" data-name="Trazado 211071" d="M264.982,298.817c-3.15,0-3.155,4.9,0,4.9s3.155-4.9,0-4.9" transform="translate(19.483 22.168)" fill="#287099"/>
          <path id="Trazado_211072" data-name="Trazado 211072" d="M302.734,324.685c3.149,0,3.155-4.9,0-4.9s-3.155,4.9,0,4.9" transform="translate(22.284 23.724)" fill="#287099"/>
          <path id="Trazado_211073" data-name="Trazado 211073" d="M306.928,277c-3.15,0-3.155,4.9,0,4.9s3.155-4.9,0-4.9" transform="translate(22.595 20.55)" fill="#287099"/>
          <path id="Trazado_211074" data-name="Trazado 211074" d="M275.049,264.421c-3.15,0-3.155,4.9,0,4.9s3.155-4.9,0-4.9" transform="translate(20.23 19.617)" fill="#287099"/>
          <path id="Trazado_211075" data-name="Trazado 211075" d="M259.949,239.492c-3.15,0-3.155,4.9,0,4.9s3.155-4.9,0-4.9" transform="translate(19.11 17.767)" fill="#287099"/>
          <path id="Trazado_211076" data-name="Trazado 211076" d="M289.311,248.343c3.149,0,3.155-4.9,0-4.9s-3.155,4.9,0,4.9" transform="translate(21.288 18.061)" fill="#287099"/>
          <path id="Trazado_211077" data-name="Trazado 211077" d="M304.411,214.787c3.15,0,3.155-4.9,0-4.9s-3.155,4.9,0,4.9" transform="translate(22.408 15.571)" fill="#287099"/>
          <path id="Trazado_211078" data-name="Trazado 211078" d="M271.694,221.875c-3.15,0-3.155,4.9,0,4.9s3.155-4.9,0-4.9" transform="translate(19.981 16.46)" fill="#287099"/>
          <path id="Trazado_211079" data-name="Trazado 211079" d="M307.767,240.793c3.15,0,3.155-4.9,0-4.9s-3.155,4.9,0,4.9" transform="translate(22.657 17.501)" fill="#287099"/>
          <path id="Trazado_211080" data-name="Trazado 211080" d="M279.344,204.125q-1.4.369-2.75.764a2.49,2.49,0,0,0,.869.157,2.221,2.221,0,0,0,1.881-.921" transform="translate(20.52 15.144)" fill="#287099"/>
          <path id="Trazado_211081" data-name="Trazado 211081" d="M473.618,329.311c-.634-7.743-2.045-19.8-3.452-30.5,1.292,10.2,2.271,20.441,2.849,30.649.2-.051.414-.1.6-.151" transform="translate(34.88 22.168)" fill="#7baec8"/>
          <path id="Trazado_211082" data-name="Trazado 211082" d="M318.1,322.873c14.815,2.769,31.53,4.935,48.562,6.54.852-16.547,1.273-30.838.877-37.447-.01-.16-.015-.321-.025-.481-21.546-.583-40.716-1.682-52.8-2.483-.72,6.772-1.553,13.544-2.472,20.26Z" transform="translate(23.164 21.44)" fill="#7baec8"/>
          <path id="Trazado_211083" data-name="Trazado 211083" d="M362.9,329.71c11.991,1.13,24.137,1.983,35.89,2.574H468.11a87.474,87.474,0,0,0,12.862-1.8c-.579-10.208-1.556-20.444-2.85-30.65-.736-5.592-1.472-10.818-2.094-14.843-26.361,7.2-73.2,7.843-112.278,6.786.01.16.014.321.024.481.4,6.609-.025,20.9-.875,37.447" transform="translate(26.923 21.143)" fill="#7baec8"/>
          <path id="Trazado_211084" data-name="Trazado 211084" d="M315.339,289.058c-5.424-.36-9.41-.658-11.541-.825l9.068,21.085c.92-6.716,1.753-13.489,2.473-20.26" transform="translate(22.538 21.383)" fill="#7baec8"/>
          <path id="Trazado_211085" data-name="Trazado 211085" d="M351.569,185.422c0,.032,0,.063,0,.1,0-.032,0-.063,0-.1" transform="translate(26.082 13.756)" fill="#f69b82"/>
          <path id="Trazado_211086" data-name="Trazado 211086" d="M351.345,188.147l.006-.043-.006.043" transform="translate(26.065 13.955)" fill="#f69b82"/>
          <path id="Trazado_211087" data-name="Trazado 211087" d="M340.974,171.7c-.25-.047-.5-.089-.754-.128.252.039.5.081.754.128" transform="translate(25.24 12.729)" fill="#f69b82"/>
          <path id="Trazado_211088" data-name="Trazado 211088" d="M351.5,186.836c0-.033.005-.066.009-.1,0,.033-.005.066-.009.1" transform="translate(26.077 13.854)" fill="#f69b82"/>
          <path id="Trazado_211089" data-name="Trazado 211089" d="M349.6,193.381l.052-.089c-.016.03-.034.059-.052.089" transform="translate(25.936 14.34)" fill="#f69b82"/>
          <path id="Trazado_211090" data-name="Trazado 211090" d="M351.566,184.228v0" transform="translate(26.082 13.665)" fill="#f69b82"/>
          <path id="Trazado_211091" data-name="Trazado 211091" d="M342.116,171.954q-.361-.089-.726-.166.366.077.726.166" transform="translate(25.327 12.745)" fill="#f69b82"/>
          <path id="Trazado_211092" data-name="Trazado 211092" d="M348.611,175.357q.238.238.461.493-.222-.255-.461-.493" transform="translate(25.863 13.009)" fill="#f69b82"/>
          <path id="Trazado_211093" data-name="Trazado 211093" d="M350.239,192.124c.011-.025.02-.049.031-.073-.011.024-.02.048-.031.073" transform="translate(25.983 14.248)" fill="#f69b82"/>
          <path id="Trazado_211094" data-name="Trazado 211094" d="M348.824,194.532l.041-.052-.041.052" transform="translate(25.878 14.428)" fill="#f69b82"/>
          <path id="Trazado_211095" data-name="Trazado 211095" d="M351.275,181.027l-.019-.124.019.124" transform="translate(26.059 13.421)" fill="#f69b82"/>
          <path id="Trazado_211096" data-name="Trazado 211096" d="M351.406,181.991c0-.027-.005-.055-.009-.082,0,.027.005.055.009.082" transform="translate(26.069 13.495)" fill="#f69b82"/>
          <path id="Trazado_211097" data-name="Trazado 211097" d="M339.823,171.511c-.278-.038-.559-.068-.839-.1.28.028.561.058.839.1" transform="translate(25.148 12.717)" fill="#f69b82"/>
          <path id="Trazado_211098" data-name="Trazado 211098" d="M350.285,177.65c-.116-.226-.235-.45-.368-.664.133.214.252.438.368.664" transform="translate(25.959 13.13)" fill="#f69b82"/>
          <path id="Trazado_211099" data-name="Trazado 211099" d="M343.242,172.274c-.237-.074-.476-.147-.718-.213.242.066.48.139.718.213" transform="translate(25.411 12.765)" fill="#f69b82"/>
          <path id="Trazado_211100" data-name="Trazado 211100" d="M350.844,178.982a9.409,9.409,0,0,0-.424-1.073,9.409,9.409,0,0,1,.424,1.073" transform="translate(25.997 13.199)" fill="#f69b82"/>
          <path id="Trazado_211101" data-name="Trazado 211101" d="M351.124,180.165l-.023-.113.023.113" transform="translate(26.047 13.358)" fill="#f69b82"/>
          <path id="Trazado_211102" data-name="Trazado 211102" d="M350.965,179.448c-.005-.024-.012-.043-.017-.067.005.024.012.043.017.067" transform="translate(26.036 13.308)" fill="#f69b82"/>
          <path id="Trazado_211103" data-name="Trazado 211103" d="M348.344,175.1c-.171-.157-.348-.306-.53-.452.182.146.359.3.53.452" transform="translate(25.803 12.956)" fill="#f69b82"/>
          <path id="Trazado_211104" data-name="Trazado 211104" d="M349.719,176.691c-.131-.189-.264-.376-.408-.555.144.179.277.366.408.555" transform="translate(25.915 13.067)" fill="#f69b82"/>
          <path id="Trazado_211105" data-name="Trazado 211105" d="M347.542,174.42c-.205-.154-.419-.3-.635-.439.216.142.43.286.635.439" transform="translate(25.736 12.907)" fill="#f69b82"/>
          <path id="Trazado_211106" data-name="Trazado 211106" d="M346.422,235.441c4.559,10.47,16.145,16.724,27.553,17.261q1.068.05,2.135.044a44.325,44.325,0,0,0,7.5-.712,83.554,83.554,0,0,1,15.4-13.046c11.329-8.153,24.664-15.89,34.364-22.167q1.6-1.246,3.125-2.554c.063-.091.133-.178.2-.271-21.54-11.365-31.434-17.095-51-29.157a22.015,22.015,0,0,1-10.225-15.228c-1.089-7.383,1.723-14.723,2.607-22.134a57.182,57.182,0,0,0-.119-15.531c-.032,0-.063.005-.1.005a8.623,8.623,0,1,1,6.784-13.933,19.748,19.748,0,0,0,3.853-3.153,16.067,16.067,0,0,0,4.236-14.1,13.514,13.514,0,0,0-10.458-10.246,11.418,11.418,0,0,0-12.443,6.949c-.026.011-.052.016-.077.027l.084.422c-9.34,1.894-19.347,2.035-28.106-1.706a38.629,38.629,0,0,1-11.259-7.539c-.183.035-.362.06-.546.1a90.738,90.738,0,0,0-16.031,4.682c-.2-1.633-.128-3.621-.327-5.254a100.235,100.235,0,0,1,13.3-3.306,58.1,58.1,0,0,1-3.928-5.129,108.244,108.244,0,0,1-9.177-17.214,21.974,21.974,0,0,0-1.73,2.609,35.671,35.671,0,0,0-4.524,16.587c-.115,5.531,1.078,10.361.053,15.914-1.215,6.572-10.254,20.363-13.912,26.492a19.385,19.385,0,0,0-1.651,3.012c-1.23,2.634-1.873,5.5-.122,7.661,1.578,1.944,4.425,2.317,6.975,2.54,1.408.124,2.857.232,4.292.235,1.33.976,2.176,2.774,1.613,5.445a2.443,2.443,0,0,1,1.416-.6c2.734-.189,4.824,1.141,7.473,2.5a11.035,11.035,0,0,0,3.4,1.356c1.776.247,4.194-.469,5.3-.633-2.389,4.778-6.694,8.03-10.163,10.241a4.837,4.837,0,0,1-2.46.941,2.43,2.43,0,0,1-.608-.082l-.066.058a5.189,5.189,0,0,1,2.806,1.336c.7,3.5-.182,7.062-.533,10.609s.1,7.549,2.868,9.908c3.038,2.587,7.731,2.405,11.734,1.9A119.137,119.137,0,0,1,338.24,179.4a26.969,26.969,0,0,1,3.9.046q-.624-.053-1.249-.078c10.956-1.316,24.191-7.631,33.712-15.248-.381,6.475-3.131,15.609-4.824,21.455a35.931,35.931,0,0,1-10.547,16.114,27.912,27.912,0,0,1-8.3,4.762,11.332,11.332,0,0,1-2.583,1.4,5.161,5.161,0,0,1-.983.238v0h.055c-3.312,9-4.752,18.735-1,27.351m-30-127.77a24.56,24.56,0,0,0,21.518-9.513,21.408,21.408,0,0,1,3.47,6.117c-6.564,4.952-17.328,6.385-24.988,3.4" transform="translate(21.574 4.64)" fill="#f69b82"/>
          <path id="Trazado_211107" data-name="Trazado 211107" d="M344.37,172.675c-.248-.1-.5-.192-.751-.279.255.087.5.183.751.279" transform="translate(25.492 12.79)" fill="#f69b82"/>
          <path id="Trazado_211108" data-name="Trazado 211108" d="M345.718,173.275q-.509-.258-1.045-.481.535.224,1.045.481" transform="translate(25.57 12.819)" fill="#f69b82"/>
          <path id="Trazado_211109" data-name="Trazado 211109" d="M346.687,173.827q-.49-.3-1.011-.571.522.267,1.011.571" transform="translate(25.645 12.853)" fill="#f69b82"/>
          <path id="Trazado_211110" data-name="Trazado 211110" d="M425.9,204.825c.248-.348.51-.685.754-1.036q-1.529,1.305-3.125,2.553c.809-.523,1.6-1.039,2.355-1.541l.016.024" transform="translate(31.421 15.119)" fill="#f69b82"/>
          <path id="Trazado_211111" data-name="Trazado 211111" d="M392.607,226.8a83.56,83.56,0,0,0-15.4,13.047l.042-.008a103.386,103.386,0,0,1,15.363-13.04" transform="translate(27.984 16.826)" fill="#f69b82"/>
          <path id="Trazado_211112" data-name="Trazado 211112" d="M391.543,228.333c11.176-7.627,23.854-13.991,34.364-22.167-9.7,6.276-23.035,14.014-34.364,22.167" transform="translate(29.048 15.295)" fill="#f69b82"/>
          <path id="Trazado_211113" data-name="Trazado 211113" d="M377.241,241.479c7.978-1.426,15.657-4.864,22.614-9.128a101.6,101.6,0,0,0,29.484-27.6l-.016-.024c-.755.5-1.546,1.018-2.355,1.541-10.51,8.176-23.187,14.54-34.364,22.167a103.452,103.452,0,0,0-15.363,13.04" transform="translate(27.987 15.188)" fill="#f69b82"/>
          <path id="Trazado_211114" data-name="Trazado 211114" d="M342.736,226.01c4.559,10.1,16.145,16.125,27.552,16.642q1.07.048,2.135.042-1.065.006-2.135-.043c-11.407-.537-22.993-6.791-27.552-17.261-3.752-8.617-2.311-18.351,1-27.352h-.056c-3.311,8.677-4.7,19.665-.945,27.972" transform="translate(25.26 14.692)" fill="#f69b82"/>
          <path id="Trazado_211115" data-name="Trazado 211115" d="M426.713,203.576l-.074-.039c-.062.091-.132.178-.2.27l.27-.231" transform="translate(31.637 15.1)" fill="#f69b82"/>
          <path id="Trazado_211116" data-name="Trazado 211116" d="M370.219,239.659a45.925,45.925,0,0,0,7.474-.681l.027-.03a44.212,44.212,0,0,1-7.5.711" transform="translate(27.466 17.727)" fill="#f69b82"/>
          <path id="Trazado_211117" data-name="Trazado 211117" d="M377.246,238.941l-.042.008-.027.03.04-.006.029-.031" transform="translate(27.982 17.726)" fill="#f69b82"/>
          <path id="Trazado_211118" data-name="Trazado 211118" d="M425.825,204.958c.332-.452.666-.9.99-1.358l-.05-.026-.27.231c-.244.35-.506.689-.754,1.036l.084.117" transform="translate(31.585 15.103)" fill="#f69b82"/>
          <path id="Trazado_211119" data-name="Trazado 211119" d="M399.857,232.349c-6.957,4.265-14.636,7.7-22.614,9.128-.01.011-.019.02-.028.031a67.736,67.736,0,0,0,22.642-8.807c11.549-6.826,21.7-17.105,29.567-27.831-.027-.04-.055-.078-.083-.117a101.614,101.614,0,0,1-29.484,27.6" transform="translate(27.985 15.19)" fill="#f69b82"/>
          <path id="Trazado_211120" data-name="Trazado 211120" d="M342.558,172.07c-.163-.045-.327-.086-.492-.127.165.041.329.083.492.127" transform="translate(25.377 12.756)" fill="#e9846e"/>
          <path id="Trazado_211121" data-name="Trazado 211121" d="M345.678,173.257l-.033-.015.033.015" transform="translate(25.643 12.852)" fill="#e9846e"/>
          <path id="Trazado_211122" data-name="Trazado 211122" d="M346.928,174c-.1-.069-.2-.142-.31-.207.106.066.206.139.31.207" transform="translate(25.715 12.893)" fill="#e9846e"/>
          <path id="Trazado_211123" data-name="Trazado 211123" d="M343.652,172.406c-.151-.052-.306-.1-.46-.147.154.048.308.1.46.147" transform="translate(25.461 12.779)" fill="#e9846e"/>
          <path id="Trazado_211124" data-name="Trazado 211124" d="M349.648,193.379a13.054,13.054,0,0,0,.635-1.26,13.054,13.054,0,0,1-.635,1.26" transform="translate(25.94 14.253)" fill="#e9846e"/>
          <path id="Trazado_211125" data-name="Trazado 211125" d="M344.7,172.8c-.125-.053-.255-.1-.381-.148.127.05.257.1.381.148" transform="translate(25.544 12.809)" fill="#e9846e"/>
          <path id="Trazado_211126" data-name="Trazado 211126" d="M347.837,174.662c-.113-.091-.223-.185-.339-.272.116.087.227.18.339.272" transform="translate(25.78 12.938)" fill="#e9846e"/>
          <path id="Trazado_211127" data-name="Trazado 211127" d="M348.862,194.562a11.513,11.513,0,0,0,.792-1.187,11.513,11.513,0,0,1-.792,1.187" transform="translate(25.881 14.346)" fill="#e9846e"/>
          <path id="Trazado_211128" data-name="Trazado 211128" d="M350.432,177.932c-.053-.113-.115-.218-.172-.328.057.11.119.215.172.328" transform="translate(25.985 13.176)" fill="#e9846e"/>
          <path id="Trazado_211129" data-name="Trazado 211129" d="M351.352,188.2c.068-.46.118-.916.156-1.37-.038.453-.088.911-.156,1.37" transform="translate(26.066 13.86)" fill="#e9846e"/>
          <path id="Trazado_211130" data-name="Trazado 211130" d="M349.331,176.16c-.093-.117-.191-.231-.291-.344.1.113.2.227.291.344" transform="translate(25.894 13.043)" fill="#e9846e"/>
          <path id="Trazado_211131" data-name="Trazado 211131" d="M351.111,180.1c-.049-.241-.1-.461-.147-.654.048.192.1.415.147.654" transform="translate(26.037 13.312)" fill="#e9846e"/>
          <path id="Trazado_211132" data-name="Trazado 211132" d="M351.266,180.958q-.069-.43-.144-.8.074.371.144.8" transform="translate(26.049 13.365)" fill="#e9846e"/>
          <path id="Trazado_211133" data-name="Trazado 211133" d="M349.934,177.011c-.077-.122-.161-.24-.243-.358.082.118.165.235.243.358" transform="translate(25.943 13.105)" fill="#e9846e"/>
          <path id="Trazado_211134" data-name="Trazado 211134" d="M350.958,179.417c-.049-.2-.1-.371-.143-.508.044.137.093.313.143.508" transform="translate(26.026 13.273)" fill="#e9846e"/>
          <path id="Trazado_211135" data-name="Trazado 211135" d="M351.566,184.226c.012.417.013.848,0,1.284q.014-.656,0-1.284" transform="translate(26.082 13.667)" fill="#e9846e"/>
          <path id="Trazado_211136" data-name="Trazado 211136" d="M339.014,171.418c-.139-.014-.275-.031-.414-.043.139.012.276.029.414.043" transform="translate(25.12 12.714)" fill="#e9846e"/>
          <path id="Trazado_211137" data-name="Trazado 211137" d="M348.307,175.064c.112.1.219.208.325.315-.106-.106-.214-.213-.325-.315" transform="translate(25.84 12.988)" fill="#e9846e"/>
          <path id="Trazado_211138" data-name="Trazado 211138" d="M351.5,186.829c.035-.446.057-.885.068-1.318-.011.433-.032.873-.068,1.318" transform="translate(26.077 13.763)" fill="#e9846e"/>
          <path id="Trazado_211139" data-name="Trazado 211139" d="M351.405,181.975c-.04-.338-.085-.656-.131-.957.046.3.091.62.131.957" transform="translate(26.06 13.429)" fill="#e9846e"/>
          <path id="Trazado_211140" data-name="Trazado 211140" d="M348.975,194.528a10.668,10.668,0,0,1-2.192,2.133,10.64,10.64,0,0,0,2.192-2.133" transform="translate(25.727 14.432)" fill="#e9846e"/>
          <path id="Trazado_211141" data-name="Trazado 211141" d="M341.425,171.794c-.168-.035-.334-.07-.5-.1.168.031.335.067.5.1" transform="translate(25.292 12.737)" fill="#e9846e"/>
          <path id="Trazado_211142" data-name="Trazado 211142" d="M351.577,184.359c-.025-.85-.088-1.649-.172-2.374.084.725.147,1.524.172,2.374" transform="translate(26.07 13.501)" fill="#e9846e"/>
          <path id="Trazado_211143" data-name="Trazado 211143" d="M340.254,171.578c-.162-.026-.324-.053-.488-.074.163.021.325.048.488.074" transform="translate(25.206 12.723)" fill="#e9846e"/>
          <path id="Trazado_211144" data-name="Trazado 211144" d="M350.268,192.341a16.861,16.861,0,0,0,1.157-4.2,16.919,16.919,0,0,1-1.157,4.2" transform="translate(25.986 13.958)" fill="#e9846e"/>
          <path id="Trazado_211145" data-name="Trazado 211145" d="M355.777,194.676a35.93,35.93,0,0,0,10.547-16.114c1.693-5.846,4.444-14.981,4.824-21.455-9.521,7.617-22.757,13.932-33.711,15.248.416.015.832.043,1.249.077.139.012.275.03.414.044.28.028.56.058.839.1.163.021.325.049.488.074.252.04.5.081.754.128.169.032.336.067.5.1.244.053.486.107.725.168.165.041.329.083.492.127.242.067.48.139.718.213.154.048.308.1.46.147.255.087.5.183.751.279.127.051.256.1.38.148q.535.224,1.045.481l.033.015q.522.267,1.011.571c.106.066.206.139.31.207.216.142.43.286.635.439.117.088.228.18.341.272.18.147.359.3.53.452.111.1.218.208.325.315q.24.24.462.493c.1.113.2.227.291.344.143.179.277.366.407.555.083.119.167.235.243.358.133.214.252.438.368.664.057.11.12.215.172.328a9.289,9.289,0,0,1,.425,1.073c.044.139.092.314.143.509.005.023.011.042.017.066.048.193.1.415.146.655.009.038.015.073.024.112.048.247.1.515.143.8l.019.124q.071.451.132.957c0,.027.005.055.009.082.084.725.147,1.525.172,2.374v.033c.012.418.013.848,0,1.285,0,.032,0,.063,0,.1q-.016.649-.069,1.318c0,.032-.005.066-.008.1-.038.454-.088.911-.156,1.371l-.006.042a16.911,16.911,0,0,1-1.158,4.2c-.01.025-.02.049-.031.074a13.138,13.138,0,0,1-.634,1.259c-.017.03-.034.06-.053.089a11.633,11.633,0,0,1-.792,1.187l-.042.052a10.64,10.64,0,0,1-2.192,2.133,27.933,27.933,0,0,0,8.3-4.762" transform="translate(25.034 11.655)" fill="#e9846e"/>
          <path id="Trazado_211146" data-name="Trazado 211146" d="M310.972,141.9c-1.167-2.441-4.126-2.832-7.339-3.431a10.144,10.144,0,0,0,.252-.988,3.732,3.732,0,0,0-1.175,2.066c-.292,1.3.679,2.538,1.447,3.321a10.814,10.814,0,0,0,2.9,1.87c-.961.79-1.337,3.15-.954,4.4a3.064,3.064,0,0,0,2.134,2.067c4.007-3.576,6.519-5.513,2.737-9.307" transform="translate(22.453 10.2)" fill="#f05b5a"/>
          <path id="Trazado_211147" data-name="Trazado 211147" d="M311.236,150.4c3.469-2.213,7.774-5.464,10.163-10.242-1.1.164-3.52.881-5.3.633a11.059,11.059,0,0,1-3.4-1.355c-2.649-1.363-4.739-2.693-7.472-2.505a2.457,2.457,0,0,0-1.417.6,10.065,10.065,0,0,1-.252.988c3.213.6,6.172.99,7.339,3.431,3.782,3.794,1.27,5.731-2.737,9.308a2.433,2.433,0,0,0,.609.082,4.837,4.837,0,0,0,2.459-.941" transform="translate(22.521 10.157)" fill="#f05b5a"/>
          <path id="Trazado_211148" data-name="Trazado 211148" d="M327.993,87.127l.02,0a50.125,50.125,0,0,1-3.625-3.775h0a49.952,49.952,0,0,0,3.607,3.778" transform="translate(24.065 6.183)" fill="#9b665c"/>
          <path id="Trazado_211149" data-name="Trazado 211149" d="M312.335,91.91a90.686,90.686,0,0,1,16.031-4.682c.184-.04.363-.064.546-.1A49.529,49.529,0,0,1,325.3,83.35a100.235,100.235,0,0,0-13.3,3.306c.2,1.633.128,3.621.327,5.254" transform="translate(23.147 6.184)" fill="#9b665c"/>
          <path id="Trazado_211150" data-name="Trazado 211150" d="M314.653,105.211c7.66,2.989,18.423,1.556,24.988-3.4a21.407,21.407,0,0,0-3.47-6.117,24.56,24.56,0,0,1-21.518,9.513" transform="translate(23.343 7.1)" fill="#9b665c"/>
          <path id="Trazado_211151" data-name="Trazado 211151" d="M372.176,128.117a8.61,8.61,0,0,0,6.687-13.928,24.517,24.517,0,0,1-9.98,3.548,33.612,33.612,0,0,1,3.293,10.38" transform="translate(27.366 8.471)" fill="#f05b5a"/>
          <path id="Trazado_211152" data-name="Trazado 211152" d="M372.454,111.105a8.622,8.622,0,1,0,0,17.245c.032,0,.064,0,.1,0a33.619,33.619,0,0,0-3.293-10.381,24.491,24.491,0,0,0,9.98-3.548,8.6,8.6,0,0,0-6.784-3.312" transform="translate(26.992 8.243)" fill="#f05b5a"/>
          <path id="Trazado_211153" data-name="Trazado 211153" d="M313.069,319.921l-1.675-4.951q-1.121,7.631-2.361,15.09h13.22l-3.92-9.115c-1.782-.333-3.541-.673-5.265-1.025" transform="translate(22.926 23.367)" fill="#1f6584"/>
          <path id="Trazado_211154" data-name="Trazado 211154" d="M312.732,319.163,302.97,290.3s.628.052,1.778.141L291,258.469l17.892,75.783h1.483c.823-4.963,1.613-10,2.361-15.089" transform="translate(21.588 19.175)" fill="#1f6584"/>
          <path id="Trazado_211155" data-name="Trazado 211155" d="M318.17,321.474l-5.854-13.612q-.525,3.833-1.085,7.636l1.675,4.951q2.588.525,5.265,1.025" transform="translate(23.089 22.84)" fill="#1f6584"/>
          <path id="Trazado_211156" data-name="Trazado 211156" d="M311.905,316.964q.559-3.8,1.084-7.636l-9.068-21.085c-1.149-.089-1.778-.141-1.778-.141Z" transform="translate(22.415 21.374)" fill="#1f6584"/>
        </g>
      </g>
    </g>
  </g>
</svg>
