<svg id="Grupo_170235" data-name="Grupo 170235" xmlns="http://www.w3.org/2000/svg" xmlns:xlink="http://www.w3.org/1999/xlink" width="610" height="419.975" viewBox="0 0 610 419.975">
  <defs>
    <clipPath id="clip-path">
      <rect id="Rect치ngulo_49262" data-name="Rect치ngulo 49262" width="610" height="419.974" fill="none"/>
    </clipPath>
    <clipPath id="clip-path-3">
      <rect id="Rect치ngulo_49260" data-name="Rect치ngulo 49260" width="610" height="324.218" fill="none"/>
    </clipPath>
  </defs>
  <g id="Grupo_170234" data-name="Grupo 170234" clip-path="url(#clip-path)">
    <g id="Grupo_170233" data-name="Grupo 170233">
      <g id="Grupo_170232" data-name="Grupo 170232" clip-path="url(#clip-path)">
        <g id="Grupo_170231" data-name="Grupo 170231" transform="translate(0 13.35)" opacity="0.2" style="mix-blend-mode: multiply;isolation: isolate">
          <g id="Grupo_170230" data-name="Grupo 170230">
            <g id="Grupo_170229" data-name="Grupo 170229" clip-path="url(#clip-path-3)">
              <path id="Trazado_210227" data-name="Trazado 210227" d="M8.249,184.72c19.775-48.937,62.125-58.82,105.262-78.547,37.918-20.43,62.222-58.971,100.121-79.435,58.439-31.412,127.391-4.311,175.3,34.386,23.434,17.946,47.207,38.524,76.742,45.242,41.4,9.473,94.256-17.5,125.827,21.05,42.812,59.34,5.217,146.37-50.749,183.409-117.379,69.957-167.071-20.044-271.183-31.3-66.159-4.836-128.157,33.044-194.392,25.315C15.3,300.911-16.011,237.3,8.249,184.72" transform="translate(0 -12.995)" fill="#f2ac56"/>
            </g>
          </g>
        </g>
        <path id="Trazado_210228" data-name="Trazado 210228" d="M335.4,251.034l-8.207-11.35q-1.139-9.73-2.02-19.482a75.09,75.09,0,0,1,.1-36.314,32.143,32.143,0,0,1,3.238-8.5c2.8-4.734,7.385-8.144,12.173-10.879a72.036,72.036,0,0,1,18-7.256c.331-.085.663-.171.993-.246,1.785-.427,3.58-.791,5.376-1.155a2.946,2.946,0,0,0,.438.128c2.747.641,5.59-.342,8.24-1.3q2.772-1.026,5.547-2.031a89.833,89.833,0,0,0-6.957,16.693c-1.529,5.044-2.533,10.826.171,15.347a13.414,13.414,0,0,0,8.09,5.727,27.059,27.059,0,0,0,10.078.492,36.252,36.252,0,0,0,10.878-2.694c7.406-3.259,13.006-9.746,16.736-16.927,3.484-6.723,5.515-14.075,7.416-21.417,2.362.481,4.757.823,7.15,1.165,1.87.267,3.729.523,5.589.843a41.929,41.929,0,0,1,13.156,4.136c-1.731,10.816-5.087,21.321-7.556,32-2.661,11.489-4.285,23.532-1.71,35.042,1.624,7.309,4.873,14.1,8.486,20.679-1.475,20.689-2.64,41.625,1.517,61.92.663,3.217,1.442,6.391,2.362,9.533q0,12.279-.31,24.558c.684.609,1.389,1.187,2.1,1.742l-.032.042c-15.656,14.2-36.3,23.276-57.442,23.33-19.835.053-39.851-8.271-52.8-23.211-.706-.8-1.39-1.624-2.031-2.469a556.075,556.075,0,0,0,3.11-85.089c-.8-2.2-1.571-4.4-2.3-6.625q-3.319,3.766-6.818,7.384-1.362-1.908-2.757-3.815" transform="translate(8.826 4.096)" fill="#f27242"/>
        <path id="Trazado_210229" data-name="Trazado 210229" d="M345.837,336.55c12.953,14.94,32.969,23.265,52.8,23.211,21.139-.053,41.787-9.126,57.442-23.329l.033-.043c.107.085.224.171.342.257a446.1,446.1,0,0,0-2.33,74.135H336.048c3.784-21.652,6.562-50.977,9.789-74.232" transform="translate(9.183 9.193)" fill="#f2ac56"/>
        <path id="Trazado_210230" data-name="Trazado 210230" d="M361.377,105.08c.534,11.7,3.505,23.747,11.382,32.36a32.277,32.277,0,0,0,8.389,6.626,2.5,2.5,0,0,0,.235.117,21.822,21.822,0,0,1-2.106,11.265c-.1.032-.181.064-.277.1q-2.774,1.011-5.547,2.031c-2.65.962-5.493,1.945-8.239,1.3a2.923,2.923,0,0,1-.439-.128c-3.163-.951-5.429-3.826-8.346-5.461a60.733,60.733,0,0,0-6.616-2.629c-1.72-1.634-3.452-3.248-5.193-4.862-.427-1.133-.695-2.352-1.218-3.442-1.9-3.975-6.937-6.016-8.122-10.259-1.2-4.3,2.137-8.656,1.774-13.1-.214-2.544-1.614-4.809-2.576-7.181a22.008,22.008,0,0,1-.043-16.373c2.832-7.022,9.115-12.173,12.086-19.13,2.266-5.322,2.811-11.948,7.492-15.336,3.6-2.607,8.56-2.372,12.514-4.4,4.617-2.362,7.246-7.428,11.574-10.292A14.884,14.884,0,0,1,395.97,47.83c1.475-2.5,4.767-3.345,7.653-3.035s5.61,1.474,8.453,2.03c2.319.46,4.755.524,6.915,1.475,4.7,2.083,6.85,7.8,11.37,10.259,2.693,1.465,6.038,1.657,8.646,3.1a7.633,7.633,0,0,1,1.5,1.068c4.071,3.741,2.522,10.986,6.219,15.08.93,1.037,2.138,1.784,3,2.863,3.815,4.7-.374,12.782,3.592,17.356.833.963,1.955,1.657,2.768,2.64,2.255,2.789,1.315,6.914-.075,10.227s-3.153,6.85-2.18,10.3c.524,1.838,1.806,3.463,1.945,5.376a4.818,4.818,0,0,1-.074,1.314c-.7,3.655-5.323,6.039-6.818,9.758-.856,2.095-.631,4.457-1.133,6.647a10.288,10.288,0,0,1-5.61,6.733,13.79,13.79,0,0,1-1.155.8,12.547,12.547,0,0,1-8.389,1.913l-.032.192c-2.394-.342-4.788-.683-7.15-1.164a.4.4,0,0,1-.107-.022l-.01.042a9.353,9.353,0,0,1-5.119-1.592,11.976,11.976,0,0,1-6.712-10.783c-.192-1.87-.224-3.762-.406-5.632.267-.3.546-.6.813-.9a33.649,33.649,0,0,0,8.015-16.244c2.511-.6,5.033-1.5,6.433-3.6a10.412,10.412,0,0,0,1.187-2.821c1.143-3.847,1.881-8.079.342-11.788a4.95,4.95,0,0,0-3.324-3.217c-1.966-.374-3.719,1.1-5.151,2.576-.791-3.719-1.828-7.8-4.979-9.918-1.817-1.218-4.147-1.624-5.772-3.1a8.8,8.8,0,0,1-2.4-5.215c-.31-1.934-.342-3.9-.813-5.8a12.483,12.483,0,0,0-10.612-9.212,11.784,11.784,0,0,0-11.83,7.353c-.856,2.33-.919,4.9-1.924,7.16a9.438,9.438,0,0,1-6.166,5.248c-1.646.427-3.473.438-4.884,1.4a6.491,6.491,0,0,0-2.352,4.884c-.171,1.859.011,3.751-.331,5.578a10.315,10.315,0,0,1-7.93,7.919" transform="translate(9.097 1.202)" fill="#442626"/>
        <path id="Trazado_210231" data-name="Trazado 210231" d="M420.616,98.214c1.432-1.475,3.185-2.949,5.151-2.576a4.947,4.947,0,0,1,3.323,3.217c1.539,3.709.8,7.94-.342,11.788a10.4,10.4,0,0,1-1.186,2.822c-1.4,2.1-3.922,3-6.434,3.6a33.636,33.636,0,0,1-8.015,16.244c-.267.3-.544.6-.812.9A41.277,41.277,0,0,1,396.56,144.36a20.917,20.917,0,0,1-8.518,1.559,18.331,18.331,0,0,1-7.417-2.308,2.268,2.268,0,0,1-.234-.117,32.282,32.282,0,0,1-8.39-6.626c-7.875-8.613-10.846-20.657-11.381-32.36a10.312,10.312,0,0,0,7.929-7.919c.342-1.828.16-3.719.332-5.578a6.492,6.492,0,0,1,2.35-4.884c1.412-.963,3.238-.973,4.884-1.4a9.44,9.44,0,0,0,6.167-5.248c1-2.265,1.068-4.83,1.923-7.16a11.786,11.786,0,0,1,11.831-7.353,12.483,12.483,0,0,1,10.612,9.213c.469,1.9.5,3.868.812,5.8a8.809,8.809,0,0,0,2.4,5.216c1.624,1.474,3.954,1.88,5.771,3.1,3.153,2.116,4.189,6.2,4.98,9.918" transform="translate(9.855 1.774)" fill="#aa6148"/>
        <path id="Trazado_210232" data-name="Trazado 210232" d="M378.277,153.032a21.815,21.815,0,0,0,2.1-11.264,18.341,18.341,0,0,0,7.417,2.308,20.918,20.918,0,0,0,8.518-1.561,41.265,41.265,0,0,0,15.742-10.153c.182,1.871.214,3.762.406,5.633a11.975,11.975,0,0,0,6.712,10.783,9.359,9.359,0,0,0,5.119,1.592l.01-.043a.36.36,0,0,0,.107.022c-1.9,7.342-3.933,14.695-7.416,21.417-3.73,7.181-9.33,13.669-16.736,16.928a36.279,36.279,0,0,1-10.879,2.693,27.052,27.052,0,0,1-10.077-.492,13.408,13.408,0,0,1-8.09-5.727c-2.7-4.521-1.7-10.3-.172-15.346A89.781,89.781,0,0,1,378,153.128c.1-.033.181-.065.277-.1" transform="translate(10.098 3.617)" fill="#aa6148"/>
        <path id="Trazado_210233" data-name="Trazado 210233" d="M327.081,237.3l8.207,11.35a91.073,91.073,0,0,1-5.792,7.181q-1.33-9.249-2.415-18.531" transform="translate(8.938 6.485)" fill="#aa6148"/>
        <path id="Trazado_210234" data-name="Trazado 210234" d="M378.506,142.114c3.492,1.172,6.879,2.376,10.364,2.462a14.245,14.245,0,0,0,5.266-.65,25.507,25.507,0,0,0,4.933-2.3c1.559-.935,3.088-1.9,4.6-2.88s2.952-2.064,4.4-3.13c2.916-2.114,5.685-4.414,8.494-6.794l.12.107a35.386,35.386,0,0,1-7.582,8.05,40.889,40.889,0,0,1-4.642,3.051,33.589,33.589,0,0,1-5.006,2.384l-5.143,2a17.957,17.957,0,0,1-5.425,1.494,13.506,13.506,0,0,1-5.578-.971,20.323,20.323,0,0,1-4.874-2.682Z" transform="translate(10.341 3.52)" fill="#442626"/>
        <path id="Trazado_210235" data-name="Trazado 210235" d="M351.62,180.395c-1.08,3.065-2.268,6.078-3.486,9.072s-2.434,5.984-3.713,8.947c-1.3,2.954-2.639,5.9-3.711,8.952a63.415,63.415,0,0,0-2.493,9.345,34.65,34.65,0,0,0-.54,9.474,35.453,35.453,0,0,0,2.406,9.132c1.143,2.974,2.481,5.911,3.792,8.875,1.289,2.972,2.554,5.955,3.72,8.986l-.145.07c-1.642-2.8-3.186-5.651-4.7-8.512-1.489-2.87-3.029-5.74-4.254-8.794a31.613,31.613,0,0,1-2.318-9.632,29.08,29.08,0,0,1,1.187-9.79c.865-3.149,1.909-6.213,2.857-9.316s1.868-6.221,2.964-9.282c1.114-3.052,2.431-6.021,3.816-8.953s2.873-5.814,4.477-8.64Z" transform="translate(9.185 4.928)" fill="#442626"/>
        <path id="Trazado_210236" data-name="Trazado 210236" d="M361.949,254.14a118.885,118.885,0,0,1,44.321-7.921c-7.471,1.061-14.884,2.08-22.257,3.42-7.381,1.293-14.689,2.905-22.064,4.5" transform="translate(9.891 6.728)" fill="#442626"/>
        <path id="Trazado_210237" data-name="Trazado 210237" d="M401.086,250.41c-5.745,2.91-11.4,5.832-16.866,9.108-5.492,3.236-10.762,6.8-16.069,10.45a78.167,78.167,0,0,1,32.935-19.558" transform="translate(10.06 6.843)" fill="#442626"/>
        <path id="Trazado_210238" data-name="Trazado 210238" d="M394.565,409.389c-.8-2.42-1.476-4.866-2.08-7.328s-1.171-4.93-1.6-7.429l-.56-3.765c-.192-1.247-.326-2.535-.631-3.724a3.7,3.7,0,0,0-2.233-2.654c-1.123-.54-2.324-.961-3.506-1.393a59.276,59.276,0,0,1-13.939-6.3,47.568,47.568,0,0,1-11.367-10.227l.115-.111a97.634,97.634,0,0,0,12.165,8.893c2.122,1.318,4.286,2.572,6.521,3.7s4.548,2.119,6.842,3.236c1.156.54,2.283,1.124,3.422,1.723a5.333,5.333,0,0,1,1.569,1.218,5.219,5.219,0,0,1,.909,1.766l2,7.367c.608,2.46,1.077,4.951,1.506,7.448s.787,5.01,1.022,7.549Z" transform="translate(9.801 10.014)" fill="#f2dcce"/>
        <path id="Trazado_210239" data-name="Trazado 210239" d="M400.4,380.843c1.58-1.251,3.236-2.363,4.9-3.455s3.35-2.148,5.1-3.1c1.759-.936,3.575-1.783,5.295-2.791a52.909,52.909,0,0,0,4.938-3.363c1.583-1.216,3.175-2.414,4.809-3.548,1.621-1.156,3.226-2.33,4.875-3.442,3.31-2.207,6.661-4.352,10.169-6.308l.095.129a86.437,86.437,0,0,1-9.291,7.585c-1.631,1.152-3.32,2.22-5.008,3.287s-3.414,2.075-5.171,3.033-3.485,1.954-5.14,3.068c-.832.55-1.638,1.141-2.441,1.739l-2.437,1.752a57.817,57.817,0,0,1-5.164,3.031,52.381,52.381,0,0,1-5.452,2.523Z" transform="translate(10.942 9.697)" fill="#f2dcce"/>
        <path id="Trazado_210240" data-name="Trazado 210240" d="M408.577,382.08c2.058-1.038,4.166-1.925,6.292-2.76s4.275-1.6,6.433-2.338c2.168-.71,4.341-1.4,6.545-2s4.419-1.169,6.688-1.576c-2.058,1.04-4.166,1.928-6.291,2.762s-4.276,1.6-6.434,2.335c-2.168.709-4.343,1.4-6.546,2s-4.419,1.169-6.687,1.578" transform="translate(11.165 10.204)" fill="#f2dcce"/>
        <path id="Trazado_210241" data-name="Trazado 210241" d="M394.278,122.119a52.3,52.3,0,0,1,4.767,2.971,24.043,24.043,0,0,1-2.148,3.367,7.931,7.931,0,0,1-2.619,2.4,8.353,8.353,0,0,1-3.228.716,30.735,30.735,0,0,1-4.328-.01,9.62,9.62,0,0,1-2.81-.546,8.487,8.487,0,0,1-3.667-3.227c-.908-1.283-1.646-2.682-2.607-3.944,1.454-.812,2.907-1.614,4.36-2.426a6.114,6.114,0,0,1,2.4-.908c1.454-.1,2.725.833,3.858,1.763a4.9,4.9,0,0,1,4.478-.866,9.133,9.133,0,0,1,1.539.706" transform="translate(10.32 3.293)" fill="#593333"/>
        <path id="Trazado_210242" data-name="Trazado 210242" d="M397.346,62.793a11.621,11.621,0,0,0-9.294,5.694c-2.116,3.648-1.254,8.6-4.395,11.7-2.924,2.882-7.343,3.487-10.352,6.29a7.74,7.74,0,0,0-2.463,5.373,21.075,21.075,0,0,1-.364,3.5,11.043,11.043,0,0,1-13.631,8.092.535.535,0,0,0-.284,1.03,12.22,12.22,0,0,0,11.639-3,12.376,12.376,0,0,0,3.087-5.052,12.764,12.764,0,0,0,.542-3.076,12.237,12.237,0,0,1,.5-3.679c1.511-3.956,6.493-5.031,9.766-6.983a9.736,9.736,0,0,0,4.1-4.329,35.712,35.712,0,0,0,1.587-6.2,10.757,10.757,0,0,1,3.444-5.811,10.379,10.379,0,0,1,6.115-2.479c.684-.038.688-1.107,0-1.068" transform="translate(9.733 1.716)" fill="#442626"/>
        <path id="Trazado_210243" data-name="Trazado 210243" d="M396.592,47.933a20.888,20.888,0,0,0-11.208-5.916c-4.184-.586-7.96.931-11.249,3.432-3.369,2.562-6.253,5.682-9.926,7.841-4.025,2.366-8.476,3.859-12.606,6.016-3.639,1.9-7.165,4.395-9.364,7.938-2.51,4.043-2.642,9.007-3.953,13.475a43.2,43.2,0,0,1-2.686,6.915c-1.009,2.052-2.176,4.021-3.216,6.056-1.921,3.764-3.242,7.747-2.462,12,1.351,7.374,7.467,12.959,8.525,20.407a13.5,13.5,0,0,1,.1,2.747c-.044.687,1.024.684,1.068,0,.473-7.435-5.053-13.32-7.613-19.865a17.2,17.2,0,0,1-1.239-5.137,15.2,15.2,0,0,1,1.033-6.246c1.549-4.185,4.176-7.881,5.895-12a44.128,44.128,0,0,0,2.194-6.721c.552-2.3.871-4.655,1.51-6.934a15.5,15.5,0,0,1,2.959-5.814,21.156,21.156,0,0,1,4.6-4.029c3.683-2.448,7.848-3.979,11.835-5.838a38.973,38.973,0,0,0,5.946-3.32,53.854,53.854,0,0,0,4.591-3.751c2.947-2.594,6.068-5.346,10.056-6.074,4.268-.779,8.58.991,11.979,3.472a24.531,24.531,0,0,1,2.483,2.1c.5.475,1.255-.28.756-.756" transform="translate(9.01 1.145)" fill="#442626"/>
        <path id="Trazado_210244" data-name="Trazado 210244" d="M260.136,121.114a39.806,39.806,0,0,0,16.084,18.6A45.552,45.552,0,0,0,295.926,118.4c-.107-.341-.214-.693-.309-1.036,8.443.321,17.109.7,24.8,4.21a50.5,50.5,0,0,1,11.275,7.48c1.2.984,2.372,2.01,3.537,3.025q6.589,5.771,13.017,11.713a7.214,7.214,0,0,0,.651,1.4,8.969,8.969,0,0,0,4.542,3.463q4.842,4.566,9.586,9.243c-.331.076-.663.161-.993.246a72.074,72.074,0,0,0-18,7.256c-4.787,2.737-9.372,6.146-12.173,10.88a32.136,32.136,0,0,0-3.238,8.495,75.094,75.094,0,0,0-.1,36.315q.866,9.747,2.02,19.483,1.089,9.28,2.415,18.53,2.774,19.188,6.593,38.217c-.8.469-1.6.941-2.415,1.4-18.67,10.729-38.858,19.525-60.241,19.835-8.507.128-16.982-1.1-25.4-2.34-9.073-1.325-18.21-2.671-26.91-5.589a58.548,58.548,0,0,1-16.757-8.549,43.516,43.516,0,0,1-5.044-4.478q1.25-7.294,2.511-14.6,3.11-18.05,6.252-36.111,1.042-5.979,2.083-11.969a206.689,206.689,0,0,1-3.484-58.051q-3.27-.593-6.54-1.175a119.767,119.767,0,0,0-3.56-48.55,161.028,161.028,0,0,1,59.7-7c.117.332.246.652.384.972" transform="translate(5.467 3.207)" fill="#f2ac56"/>
        <path id="Trazado_210245" data-name="Trazado 210245" d="M276.7,330.584q-4.09,40.8-10.345,81.359H208.5a731.214,731.214,0,0,1-.823-114.692,58.6,58.6,0,0,0,16.757,8.549c8.7,2.918,17.837,4.264,26.91,5.59,8.422,1.24,16.9,2.469,25.4,2.34,21.384-.31,41.572-9.105,60.241-19.835q.639,59.023.257,118.047H281.78q-2.532-40.685-5.075-81.359" transform="translate(5.624 8.031)" fill="#442626"/>
        <path id="Trazado_210246" data-name="Trazado 210246" d="M246.936,48.808a30.47,30.47,0,0,0-5.2,21.245,4.475,4.475,0,0,0,.085.535,121.847,121.847,0,0,0,9.03,29.484,35.944,35.944,0,0,0,5.974,9.651,21.363,21.363,0,0,0,3.944,3.323q-.689,5.258-1.389,10.516c-.14-.321-.267-.641-.385-.972a159.364,159.364,0,0,0-30.041.673l-.117-1.026c-1.8-4.691-.684-9.992,1.1-14.684s4.243-9.18,5.205-14.106c1.09-5.568.2-11.3-.247-16.96a71.6,71.6,0,0,1,1.7-23.81,35.525,35.525,0,0,1,6.99-14.182c7.427-8.635,19.8-11.563,31.141-10.537a31.008,31.008,0,0,1,13.145,3.784,31.649,31.649,0,0,1,9.511,9.618,61.716,61.716,0,0,1,8.774,19.269c1.517,5.825,2.319,12.13,6.059,16.843,4.061,5.108,11.275,7.865,13.273,14.085,1.881,5.835-1.774,12.248-.427,18.243.908,4.071,4,7.309,5.536,11.2a15.76,15.76,0,0,1,.342,10.5,50.462,50.462,0,0,0-11.275-7.48c-7.695-3.505-16.362-3.89-24.8-4.211q-2.1-7.053-3.933-14.171c2.714-5.012,3.623-10.965,4.168-16.768a14.5,14.5,0,0,0,4.916-7.8,22.626,22.626,0,0,0,.065-10.014,4.954,4.954,0,0,0-1.539-3.12,3.553,3.553,0,0,0-3.655-.14,8.377,8.377,0,0,0-2.564,2.191,5.694,5.694,0,0,1-3.046-1.539,53.5,53.5,0,0,0-4.82-3.837,10,10,0,0,0-5.792-1.838c-2.714.118-5.151,1.8-7.865,2.106a8.1,8.1,0,0,1-5.269-1.218c-3.548-2.277-4.755-6.872-7.6-9.982-2.757-3.024-6.85-4.393-10.986-4.874" transform="translate(6.228 0.759)" fill="#593333"/>
        <path id="Trazado_210247" data-name="Trazado 210247" d="M291.951,69.429a8.381,8.381,0,0,1,2.565-2.191,3.552,3.552,0,0,1,3.654.14,4.954,4.954,0,0,1,1.539,3.12,22.611,22.611,0,0,1-.064,10.014,14.509,14.509,0,0,1-4.916,7.8c-.545,5.8-1.454,11.756-4.168,16.768a21.4,21.4,0,0,1-2.17,3.292,21.026,21.026,0,0,1-15.774,7.7,21.822,21.822,0,0,1-16.159-6.914,35.893,35.893,0,0,1-5.974-9.651,121.8,121.8,0,0,1-9.03-29.484,4.275,4.275,0,0,1-.086-.535,30.475,30.475,0,0,1,5.2-21.245c4.136.481,8.229,1.849,10.986,4.874,2.843,3.11,4.051,7.7,7.6,9.982a8.1,8.1,0,0,0,5.268,1.218c2.714-.31,5.151-1.988,7.865-2.106a10,10,0,0,1,5.793,1.838,53.487,53.487,0,0,1,4.819,3.837,5.694,5.694,0,0,0,3.046,1.539" transform="translate(6.589 1.318)" fill="#ea8744"/>
        <path id="Trazado_210248" data-name="Trazado 210248" d="M294.019,117.74c.1.342.2.694.31,1.037a45.552,45.552,0,0,1-19.707,21.31,39.8,39.8,0,0,1-16.084-18.6q.706-5.258,1.39-10.516a21.518,21.518,0,0,0,12.215,3.591,21.025,21.025,0,0,0,15.774-7.7,21.4,21.4,0,0,0,2.17-3.292q1.828,7.118,3.933,14.171" transform="translate(7.065 2.83)" fill="#ea8744"/>
        <path id="Trazado_210249" data-name="Trazado 210249" d="M236.259,222.711c1.286-.517,2.589-.988,3.895-1.45,1.314-.436,2.636-.843,3.962-1.238,2.661-.756,5.344-1.439,8.065-1.943l4.1-.632c1.374-.179,2.744-.362,4.105-.6,2.728-.428,5.434-.978,8.145-1.53s5.44-1.025,8.183-1.394l4.119-.519c1.376-.152,2.755-.265,4.133-.388a115.024,115.024,0,0,1,16.6-.008l0,.16c-5.506.584-10.986,1.029-16.46,1.552l-8.219.7c-1.366.149-2.738.267-4.109.386-1.366.155-2.743.25-4.115.377-1.368.16-2.743.285-4.107.477s-2.72.438-4.073.7c-2.7.561-5.354,1.33-8.019,2.02q-2,.525-4.014.951c-1.34.312-2.681.614-4.03.892-2.687.6-5.385,1.156-8.117,1.638Z" transform="translate(6.456 5.813)" fill="#442626"/>
        <path id="Trazado_210250" data-name="Trazado 210250" d="M258.64,110.763c2.8,1.891,5.982,2.456,9.226,2.931a23.488,23.488,0,0,0,4.936.474,14.852,14.852,0,0,0,4.822-1.1,32.914,32.914,0,0,0,4.368-2.225,31.915,31.915,0,0,0,3.914-2.875,35.02,35.02,0,0,0,6.524-7.346l.145.068a19.154,19.154,0,0,1-5.546,8.569,21.362,21.362,0,0,1-4.3,2.9,17.873,17.873,0,0,1-4.849,1.75c-1.679.355-3.357.587-5.039.778a35.36,35.36,0,0,1-5.109.335,15.4,15.4,0,0,1-5.052-1.085,9.419,9.419,0,0,1-4.153-3.058Z" transform="translate(7.065 2.75)" fill="#442626"/>
        <path id="Trazado_210251" data-name="Trazado 210251" d="M277.344,328.656a40.924,40.924,0,0,1,4.554-3.149,44.769,44.769,0,0,1,4.879-2.58l2.572-1.018c.867-.319,1.729-.641,2.57-1.011,1.692-.714,3.325-1.554,4.957-2.412.82-.419,1.632-.857,2.461-1.261s1.674-.768,2.517-1.138c1.692-.725,3.39-1.442,5.127-2.056a62.68,62.68,0,0,1,10.71-2.732l.046.154c-3.366,1.536-6.764,2.873-10.173,4.184-1.706.648-3.435,1.234-5.155,1.851-1.709.643-3.445,1.227-5.188,1.8a41.283,41.283,0,0,0-5.084,2.078c-1.634.829-3.181,1.835-4.765,2.75-.793.457-1.6.888-2.422,1.281-.815.414-1.634.818-2.466,1.2-1.656.78-3.318,1.549-5.062,2.192Z" transform="translate(7.579 8.507)" fill="#f2dcce"/>
        <path id="Trazado_210252" data-name="Trazado 210252" d="M281.893,329.923a28.422,28.422,0,0,1,4.285-2.628,41.676,41.676,0,0,1,9.393-3.445,28.159,28.159,0,0,1,4.969-.762c-1.522.737-3.059,1.355-4.6,1.956s-3.081,1.171-4.621,1.75c-1.549.552-3.091,1.124-4.657,1.649s-3.135,1.057-4.772,1.48" transform="translate(7.703 8.829)" fill="#f2dcce"/>
        <path id="Trazado_210253" data-name="Trazado 210253" d="M271.883,329.493c-2.379-1.1-4.7-2.276-7.02-3.431s-4.637-2.313-6.97-3.432c-2.321-1.146-4.662-2.248-7-3.373s-4.692-2.223-7.026-3.418a57.4,57.4,0,0,1,7.513,2.265c2.457.9,4.856,1.952,7.214,3.085,2.345,1.161,4.652,2.4,6.874,3.784a57.887,57.887,0,0,1,6.415,4.52" transform="translate(6.664 8.631)" fill="#f2dcce"/>
        <path id="Trazado_210254" data-name="Trazado 210254" d="M271.8,96.088a23.529,23.529,0,0,1,3.944,2.073,8.169,8.169,0,0,1-3.068,3.74,10.093,10.093,0,0,1-4.232.769,10.668,10.668,0,0,1-3.912-.16,8.928,8.928,0,0,1-3.816-3.068,8.459,8.459,0,0,1,2.726-2.532,3.715,3.715,0,0,1,3.89.15,4.774,4.774,0,0,1,2.671-1.325,4.526,4.526,0,0,1,1.8.352" transform="translate(7.125 2.616)" fill="#593333"/>
        <path id="Trazado_210255" data-name="Trazado 210255" d="M240.16,50.308c-6.667,8.659-5.665,20.162-5.685,30.43a28.2,28.2,0,0,1-.948,8.357,31.009,31.009,0,0,1-3.343,6.852c-2.591,4.247-5.605,8.513-6.17,13.6-.489,4.4,1.5,9.389,5.873,11.028.644.241.923-.791.284-1.03-3.841-1.441-5.474-5.951-5.112-9.768.469-4.953,3.536-9.17,6.049-13.287a34.382,34.382,0,0,0,3.232-6.449,24.71,24.71,0,0,0,1.187-7.638c.124-5.423-.266-10.852.227-16.266.494-5.434,1.956-10.905,5.33-15.288.419-.544-.509-1.078-.923-.539" transform="translate(6.12 1.369)" fill="#593333"/>
        <path id="Trazado_210256" data-name="Trazado 210256" d="M328.129,111.408a20.039,20.039,0,0,1-2.068-8.745c-.065-3,.227-6,.145-9a19,19,0,0,0-1.883-8.314,21.876,21.876,0,0,0-5.315-6.359c-2.264-1.941-4.76-3.581-7.165-5.336a35.01,35.01,0,0,1-6.731-6.19c-4.15-5.135-6.537-11.446-8.615-17.638-.218-.649-1.25-.371-1.03.284,1.816,5.414,3.856,10.855,7.056,15.624a31.245,31.245,0,0,0,5.5,6.276c2.313,2,4.871,3.672,7.333,5.471a31.57,31.57,0,0,1,6.371,5.827,15.637,15.637,0,0,1,3.236,7.9c.687,5.759-.851,11.7.834,17.358.955,3.207,3.148,5.92,3.692,9.266a12.561,12.561,0,0,1-2.1,9.112c-.392.567.533,1.1.923.539a13.573,13.573,0,0,0,2.395-7.78c-.018-3.05-1.255-5.615-2.584-8.288" transform="translate(8.073 1.351)" fill="#593333"/>
        <path id="Trazado_210257" data-name="Trazado 210257" d="M239.557,119.068a50.116,50.116,0,0,1-8.668,4.425,89.287,89.287,0,0,0-8.667,4.125,28.9,28.9,0,0,0-7.309,5.964c-2.971,3.355-5.526,7.278-9,10.12.758,3.7,1.346,7.428,1.741,11.178.246,2.32.417,4.628.524,6.957a56.728,56.728,0,0,1,.053,6.594,10.513,10.513,0,0,1-1.4,4.905,13.906,13.906,0,0,1-3.687,3.6,32.555,32.555,0,0,1-9.564,4.852c-6.284,1.977-13.679,2.265-19.6-.993a16.25,16.25,0,0,1-6.68-7.225,50.813,50.813,0,0,1-3.677-10.74,66.52,66.52,0,0,1-1.325-23.522,64.159,64.159,0,0,1-4.477-21.951c-.2-4.233-.15-8.475-.032-12.707.107-3.922.214-7.845.448-11.745.428-7.5,1.368-15.111,4.286-22.09a19.381,19.381,0,0,1,2.362-4.585,3.7,3.7,0,0,1,4.029-1.506c1.634.609,1.838,2.457,2,3.954a46.248,46.248,0,0,1,.246,5.952c-.128,7.513-1.581,15.079-.524,22.56,1.956-4.221,2.469-8.967,3.131-13.54.7-4.905,1.454-9.8,2.395-14.673a42.565,42.565,0,0,1,3.783-11.969,17.659,17.659,0,0,1,3.677-5.034c1.3-1.154,3.28-1.859,4.841-.737a3.959,3.959,0,0,1,1.315,2.447c.139.524.256,1.058.374,1.581.085-.321.16-.641.256-.962a26.488,26.488,0,0,1,3.121-6.54c1.047-1.561,2.811-3.345,4.809-2.213a5.135,5.135,0,0,1,1.881,2.191,14.749,14.749,0,0,1,1.272,3.3,14.938,14.938,0,0,1,.427,3.068,9.45,9.45,0,0,1,1.464-2.5,3.714,3.714,0,0,1,5.653-.342c1.475,1.571,1.924,3.889,2.245,5.952a39.271,39.271,0,0,1,.352,8.069,119.727,119.727,0,0,1-2.352,16.18c-2.062,10.729-4.5,21.7-2.918,32.659a4.9,4.9,0,0,0,3.356,1.646,13.891,13.891,0,0,0,5.76-.738c3.8-1.229,7.288-3.345,11.008-4.809q2.549-1.009,5.193-1.774a16.639,16.639,0,0,1,5.354-.876c2.746.107,5.824,1.689,6.38,4.617s-1.646,5.323-3.858,6.872" transform="translate(4.309 1.235)" fill="#ea8744"/>
        <path id="Trazado_210258" data-name="Trazado 210258" d="M189.47,54.664a50.616,50.616,0,0,1-.827,5.259c-.352,1.731-.732,3.454-1.244,5.145-.528,1.686-1.164,3.349-1.622,5.055a42.684,42.684,0,0,0-.99,5.206c-.225,1.758-.472,3.508-.794,5.242-.3,1.738-.581,3.481-.941,5.206-.739,3.45-1.567,6.882-2.656,10.28l-.158-.027a72.312,72.312,0,0,1,1.135-10.579c.318-1.741.731-3.464,1.142-5.186.4-1.726.885-3.431,1.414-5.125a51.477,51.477,0,0,0,1.342-5.136c.343-1.735.526-3.509.833-5.256a46.906,46.906,0,0,1,1.337-5.137,42.674,42.674,0,0,1,1.875-4.992Z" transform="translate(4.925 1.493)" fill="#f4e5d9"/>
        <path id="Trazado_210259" data-name="Trazado 210259" d="M201.8,52.547c-.137,1.907-.427,3.772-.741,5.633s-.666,3.71-1.141,5.535c-.493,1.82-1.09,3.623-1.506,5.464a47.879,47.879,0,0,0-.85,5.594c-.174,1.884-.366,3.761-.634,5.626-.243,1.868-.464,3.738-.762,5.6-.614,3.716-1.307,7.42-2.249,11.108l-.159-.018a78.612,78.612,0,0,1,.716-11.339c.256-1.874.611-3.733.966-5.591s.778-3.7,1.257-5.537.91-3.673,1.2-5.538.441-3.763.71-5.638a52.339,52.339,0,0,1,1.235-5.534,47.514,47.514,0,0,1,1.8-5.4Z" transform="translate(5.295 1.435)" fill="#f4e5d9"/>
        <path id="Trazado_210260" data-name="Trazado 210260" d="M176.637,94.908a29.613,29.613,0,0,1,5.8-.609,39.836,39.836,0,0,1,11.539,1.526,29.464,29.464,0,0,1,5.441,2.1c-1.935-.259-3.824-.582-5.711-.88s-3.767-.584-5.653-.82c-1.884-.266-3.774-.468-5.673-.683s-3.807-.383-5.743-.635" transform="translate(4.827 2.577)" fill="#f4e5d9"/>
        <path id="Trazado_210261" data-name="Trazado 210261" d="M165.619,140.391c.688.238,1.339.515,1.975.807.663.247,1.3.516,1.939.8.655.237,1.3.494,1.937.762a20.3,20.3,0,0,1,1.935.758c.648.245,1.287.532,1.937.806.66.236,1.326.469,2.005.653.688.137,1.382.252,2.079.333.7.05,1.408.033,2.106.05.7-.038,1.4-.1,2.1-.116.694-.07,1.386-.113,2.076-.152l2.06-.25c.679-.128,1.362-.217,2.044-.316A76.5,76.5,0,0,0,198,142.744l.068.145a20.755,20.755,0,0,1-7.957,3.32c-.717.1-1.434.22-2.155.293l-2.172.1c-.723-.011-1.446-.026-2.167-.068-.719-.079-1.434-.2-2.145-.294-.709-.128-1.41-.292-2.115-.387-.7-.151-1.4-.268-2.108-.363-.7-.134-1.412-.219-2.131-.3-.707-.129-1.423-.246-2.131-.4-.692-.2-1.379-.438-2.047-.708-.656-.305-1.307-.623-1.944-.96-.619-.376-1.23-.763-1.819-1.174a20.8,20.8,0,0,1-1.642-1.416Z" transform="translate(4.523 3.836)" fill="#f4e5d9"/>
        <path id="Trazado_210262" data-name="Trazado 210262" d="M448.656,157.113a41.921,41.921,0,0,0-13.156-4.136c-1.859-.321-3.719-.577-5.589-.844l.032-.192a12.547,12.547,0,0,0,8.389-1.913,13.962,13.962,0,0,0,1.155-.8,10.288,10.288,0,0,0,5.61-6.733c.5-2.19.277-4.552,1.133-6.647,1.5-3.719,6.123-6.1,6.817-9.758a249.064,249.064,0,0,1,31.046-9.147c-.075,1.175-.192,2.351-.342,3.526l-.342.375c4.81,4.669,12.824,5.086,18.991,2.307,6.059-2.736,10.633-7.907,14.395-13.422a21.332,21.332,0,0,1,3.666,4.253c3.772,6.049,2.619,13.893,4.745,20.7a22.348,22.348,0,0,0,13.85,14.246c-1.155-4.072.833-8.369,3.173-11.906a55.862,55.862,0,0,1,14.6-14.994,13.064,13.064,0,0,1,4.243-2.148,20.235,20.235,0,0,1,6.146,4.221,34.559,34.559,0,0,1,6.113,8.369,49.9,49.9,0,0,1,5.632,30.425c-1.9,13.326-9.415,25.05-16.992,36.239-1.068,12.408-3.548,24.676-4.745,37.083-1.292,13.423-.983,27.391,4.1,39.873,1.09,1.859,2.19,3.73,3.28,5.6,2.64,4.51,5.291,9.031,7.492,13.765,4.926,10.612,7.545,22.111,10.024,33.546-1.047.588-2.095,1.165-3.152,1.731a402.925,402.925,0,0,1-41.5,19.931c-8.5,3.462-17.291,6.615-26.45,7.16-7.2.416-14.385-.791-21.47-2.106-12.535-2.319-25.628-5.29-35.663-12.878-.117-.085-.235-.171-.342-.257-.716-.555-1.421-1.132-2.1-1.741q.32-12.28.31-24.558-.032-34.611-2.6-69.166c-.439-.759-.855-1.517-1.282-2.287-3.612-6.583-6.862-13.37-8.486-20.679-2.575-11.51-.951-23.555,1.71-35.043,2.469-10.676,5.825-21.181,7.556-32" transform="translate(11.748 2.999)" fill="#f4e5d9"/>
        <path id="Trazado_210263" data-name="Trazado 210263" d="M586.117,352c2.7,19.642-.4,39.531-3.794,59.1H451a446.205,446.205,0,0,1,2.329-74.134c10.035,7.587,23.127,10.558,35.663,12.878,7.085,1.314,14.267,2.522,21.47,2.105,9.159-.546,17.954-3.7,26.449-7.16a402.711,402.711,0,0,0,41.5-19.931,101.777,101.777,0,0,1,7.7,27.145" transform="translate(12.308 8.877)" fill="#442626"/>
        <path id="Trazado_210264" data-name="Trazado 210264" d="M455.19,17.806a38.468,38.468,0,0,0-7.8,16.361,67.3,67.3,0,0,0-.417,19.654c.888,8.271,2.747,16.521,6.434,23.981s9.266,14.118,16.5,18.222a24.352,24.352,0,0,0,12.408,3.462,66.518,66.518,0,0,1,1.656,20.455,248.83,248.83,0,0,0-31.045,9.148,4.828,4.828,0,0,0,.074-1.315c-.139-1.913-1.421-3.537-1.945-5.376-.972-3.452.791-7,2.18-10.3s2.33-7.438.075-10.227c-.812-.983-1.934-1.678-2.768-2.639-3.964-4.575.224-12.654-3.591-17.356-.866-1.08-2.074-1.828-3-2.864-3.7-4.093-2.147-11.339-6.219-15.079a7.681,7.681,0,0,0-1.5-1.069l.1-.16c.813-9.2-2.6-18.4-1.753-27.6A30.545,30.545,0,0,1,449.59,11.8c2.212-1.25,4.831-2.245,7.256-1.5C459.967,3.635,467.865.493,475.218.066,493.2-.992,510.462,11.084,518.253,27.328c4.617,9.608,6.786,21.1,15.058,27.818,6.1,4.948,15.026,6.8,18.895,13.625,3.484,6.134,1.507,14.139,4.488,20.54,2.233,4.777,6.882,7.93,10.013,12.183a22.777,22.777,0,0,1,.385,25.606,20.2,20.2,0,0,0-6.146-4.221,13.024,13.024,0,0,0-4.243,2.148,55.84,55.84,0,0,0-14.6,14.993c-2.341,3.538-4.329,7.834-3.174,11.906a22.348,22.348,0,0,1-13.85-14.246c-2.127-6.807-.972-14.652-4.745-20.7a21.3,21.3,0,0,0-3.666-4.253c-3.185-2.971-6.892-5.535-8.773-9.436-3.014-6.284-.289-13.637.993-20.487a48.068,48.068,0,0,0-1.966-24.794,19.214,19.214,0,0,0,3.517-17.848A10.133,10.133,0,0,0,506.5,34.53a5.045,5.045,0,0,0-4.318-.6c-1.945.748-2.971,2.863-3.484,4.884-3.142.127-6.369-1.4-8.86-3.463-3.152-2.619-5.514-6.059-8.431-8.923a31.748,31.748,0,0,0-26.215-8.624" transform="translate(11.872 0)" fill="#593333"/>
        <path id="Trazado_210265" data-name="Trazado 210265" d="M481.994,99.019a24.356,24.356,0,0,1-12.407-3.462c-7.235-4.1-12.825-10.762-16.5-18.222s-5.547-15.71-6.433-23.981a67.266,67.266,0,0,1,.416-19.654,38.462,38.462,0,0,1,7.8-16.361,31.744,31.744,0,0,1,26.215,8.624c2.918,2.864,5.279,6.3,8.431,8.923,2.49,2.063,5.718,3.591,8.86,3.462.514-2.02,1.539-4.135,3.484-4.884a5.048,5.048,0,0,1,4.318.6,10.13,10.13,0,0,1,3.944,5.632,19.212,19.212,0,0,1-3.517,17.847,48.073,48.073,0,0,1,1.966,24.795c-1.282,6.85-4.008,14.2-.993,20.486,1.881,3.9,5.589,6.466,8.773,9.437-3.761,5.515-8.336,10.686-14.395,13.423-6.166,2.778-14.181,2.362-18.99-2.308l.342-.375c.149-1.175.267-2.351.341-3.526a66.519,66.519,0,0,0-1.656-20.455" transform="translate(12.192 0.466)" fill="#fca27e"/>
        <path id="Trazado_210266" data-name="Trazado 210266" d="M565.449,289.906c-1.373,6.925-5.346,13.208-10.279,18.194a92.041,92.041,0,0,1-8.023,6.816c-2.751,2.158-5.506,4.308-8.295,6.422s-5.642,4.155-8.629,6a80.853,80.853,0,0,1-9.262,5.048,50.218,50.218,0,0,1-20.432,4.8l-.011-.16a69.3,69.3,0,0,0,19.728-6.193,156.1,156.1,0,0,0,18.1-10.215,79.725,79.725,0,0,0,8.467-6.105,71.151,71.151,0,0,0,7.382-7.33,53.341,53.341,0,0,0,11.1-17.321Z" transform="translate(13.678 7.921)" fill="#442626"/>
        <path id="Trazado_210267" data-name="Trazado 210267" d="M509.794,328.676c2.227-1.374,4.411-2.748,6.526-4.215s4.162-3.008,6.121-4.659c1.98-1.628,3.862-3.37,5.694-5.173s3.577-3.708,5.335-5.647a36.022,36.022,0,0,1-4.414,6.495,44.448,44.448,0,0,1-12.073,10.039,36.19,36.19,0,0,1-7.188,3.16" transform="translate(13.931 8.444)" fill="#442626"/>
        <path id="Trazado_210268" data-name="Trazado 210268" d="M458.889,241.133a160.939,160.939,0,0,1,56.749-12.368c-9.61,1.483-19.146,3.086-28.6,5.168-9.46,2.035-18.8,4.546-28.153,7.2" transform="translate(12.54 6.251)" fill="#442626"/>
        <path id="Trazado_210269" data-name="Trazado 210269" d="M467.634,361.293a70.621,70.621,0,0,0,7.3,4.437c2.506,1.328,5.092,2.482,7.694,3.632a83.513,83.513,0,0,0,7.942,3.216,81.505,81.505,0,0,0,8.313,2.187,2.024,2.024,0,0,1,1.2.648,2.791,2.791,0,0,1,.44,1.237q.211,1.057.39,2.116c.251,1.413.5,2.825.723,4.242.458,2.831.929,5.66,1.311,8.5.728,5.688,1.353,11.392,1.657,17.141l-.159.023c-1.311-5.606-2.3-11.257-3.19-16.923-.425-2.835-.763-5.684-1.112-8.53-.184-1.422-.336-2.849-.489-4.275-.081-.713-.154-1.426-.215-2.142-.067-.8-.076-.948-.792-1.194-2.723-.882-5.468-1.746-8.228-2.535s-5.561-1.5-8.287-2.476a39.328,39.328,0,0,1-14.6-9.183Z" transform="translate(12.776 9.873)" fill="#f2dcce"/>
        <path id="Trazado_210270" data-name="Trazado 210270" d="M479.8,98.214c1.555-.547,3.079-1.044,4.571-1.62s2.945-1.2,4.414-1.824a25.859,25.859,0,0,0,4.344-2.092,17.325,17.325,0,0,0,3.616-3.191c1.051-1.221,2.017-2.492,2.951-3.775a46.416,46.416,0,0,0,2.5-4.039,55.982,55.982,0,0,0,3.991-8.738l.158.031a22.747,22.747,0,0,1-2.649,9.528,25.332,25.332,0,0,1-2.807,4.134,21.954,21.954,0,0,1-3.542,3.494c-1.288,1.041-2.618,2-3.925,2.983a41.978,41.978,0,0,1-4.052,2.862,19.117,19.117,0,0,1-4.629,1.811,17.778,17.778,0,0,1-4.922.594Z" transform="translate(13.112 1.993)" fill="#442626"/>
        <path id="Trazado_210271" data-name="Trazado 210271" d="M485.6,68.664c-1.272.962-1.763,2.65-2.073,4.221-.322,1.614-.589,3.335-1.668,4.563a8.153,8.153,0,0,1-2.724,1.806,10.2,10.2,0,0,1-4.242,1.25c-2.683.022-5.056-1.881-7.728-2.073a19.419,19.419,0,0,0,1.218-3.056,6.567,6.567,0,0,1,.555-1.464,3.884,3.884,0,0,1,2.661-1.7,10.814,10.814,0,0,1,3.112-.011c.951-1.239,1.249-3.056,2.618-3.794a3.829,3.829,0,0,1,2.373-.256c1.976.267,3.985,1.037,5.9.513" transform="translate(12.766 1.86)" fill="#f27242"/>
        <path id="Trazado_210272" data-name="Trazado 210272" d="M568.089,101.238a19.206,19.206,0,0,0-2.179-3.827,36.92,36.92,0,0,0-3.34-3.718,18.027,18.027,0,0,1-3.06-3.919,16.763,16.763,0,0,1-1.574-4.525c-.665-3.151-.734-6.388-1.151-9.573a22.238,22.238,0,0,0-2.859-8.843,26.847,26.847,0,0,0-6.365-6.954c-2.713-2.147-5.735-3.838-8.568-5.813a29.68,29.68,0,0,1-6.686-6.324,43.178,43.178,0,0,1-4.319-7.129c-2.507-5.077-4.338-10.45-6.584-15.641-2.193-5.073-4.835-10.062-8.76-14.021a35.161,35.161,0,0,0-16.1-8.8A67.536,67.536,0,0,0,476.607.129C469.94.4,463.048,2.055,458.038,6.718a18.348,18.348,0,0,0-2.879,3.433c-.376.578.549,1.115.923.539,3.628-5.577,10.141-8.314,16.526-9.162A58.632,58.632,0,0,1,483.4,1.272,67.778,67.778,0,0,1,492.75,2.38c6.035,1.173,12.027,3.352,16.849,7.259,4.357,3.529,7.359,8.282,9.725,13.3,4.585,9.728,7.126,21.084,15.108,28.795a50.425,50.425,0,0,0,8,5.86,40.438,40.438,0,0,1,7.683,6.046,19.815,19.815,0,0,1,4.785,8.02,51.451,51.451,0,0,1,1.353,9.344,26.066,26.066,0,0,0,2,8.661c1.425,3.01,4.035,5.017,6.127,7.521a19.694,19.694,0,0,1,3.85,16.775,18.433,18.433,0,0,1-1.519,4.2c-.31.612.612,1.154.923.539a20.829,20.829,0,0,0,.447-17.466" transform="translate(12.436 0.002)" fill="#593333"/>
        <path id="Trazado_210273" data-name="Trazado 210273" d="M454.382,11.834c-4.222-.605-8.158,1.341-11.238,4.1a40.68,40.68,0,0,0-4.31,4.661,45.257,45.257,0,0,0-3.6,4.992,21.675,21.675,0,0,0-3.5,11.769c.109,4.56,1.545,9.073,2.781,13.43a44.721,44.721,0,0,0,5.57,13.093c.384.566,1.311.032.924-.539a39.993,39.993,0,0,1-4.9-10.935c-.58-1.9-1.094-3.828-1.607-5.751a56.236,56.236,0,0,1-1.469-6.61,19.761,19.761,0,0,1,2.075-12.051,43.019,43.019,0,0,1,6.971-9.516c3.077-3.28,7.266-6.293,12.017-5.612.672.1.963-.933.284-1.03" transform="translate(11.798 0.32)" fill="#593333"/>
        <path id="Trazado_210274" data-name="Trazado 210274" d="M497.506,37.2c-13.516.628-23.818-9.913-34.56-16.431a45.5,45.5,0,0,0-9.654-4.544c-.656-.211-.938.821-.285,1.03,12.563,4.028,21.482,14.815,33.859,19.275a27.675,27.675,0,0,0,10.64,1.738c.685-.032.688-1.1,0-1.068" transform="translate(12.369 0.443)" fill="#593333"/>
        <path id="Trazado_210275" data-name="Trazado 210275" d="M455.8,101.779a11.585,11.585,0,0,1-1.537-4.539,30.778,30.778,0,0,1,.112-5.083c.214-3.1.1-6.077-1.351-8.888a13.576,13.576,0,0,0-6.007-5.834,3.646,3.646,0,0,1-1.682-1.329,4.666,4.666,0,0,1-.307-2.355,12.26,12.26,0,0,0-.527-4.028,15.726,15.726,0,0,0-4.616-6.764c-5.509-4.945-13.059-6.22-19.405-9.7-.6-.331-1.143.592-.539.924,5.636,3.091,12.215,4.368,17.477,8.156a17.016,17.016,0,0,1,5.456,6.183,10.619,10.619,0,0,1,1.079,4.01c.075,1.3-.212,2.708.369,3.935.628,1.324,2.06,1.772,3.235,2.47a12.014,12.014,0,0,1,3.142,2.721,12.52,12.52,0,0,1,2.715,8.3c-.05,3.241-.775,6.6.276,9.764.87,2.62,2.817,4.734,3.651,7.359a5.571,5.571,0,0,1-.584,4.667c-.974,1.7-2.12,3.322-3.187,4.969l-6.805,10.516c-.375.579.551,1.116.923.539l6.227-9.62q1.519-2.35,3.041-4.7a9.187,9.187,0,0,0,1.734-4.106c.25-2.8-1.6-5.251-2.89-7.568" transform="translate(11.469 1.453)" fill="#442626"/>
        <path id="Trazado_210276" data-name="Trazado 210276" d="M571.841,173.77a11.085,11.085,0,0,1-1,4.178,24.462,24.462,0,0,1-4.425,7.3c-3.377,3.592-8.186,5.4-12.995,5.985-9.7,1.175-20.412-2.415-26.973-9.779-4.927-1.731-8.881-5.92-11.35-10.494a54.259,54.259,0,0,1-3.794-9.436c-1.09-3.442-1.945-7.01-3.676-10.217a36.306,36.306,0,0,0-6.369-8.122c-2.041-2.073-5.044-4.884-3.58-8.122a4.366,4.366,0,0,1,3.142-2.352,7.121,7.121,0,0,1,4.68.908,22.252,22.252,0,0,1,6.359,5.418c3.056,3.527,5.675,7.663,9.415,10.505a100.122,100.122,0,0,0,1.187-20.23c-.14-6.765-.428-13.465.234-20.209.321-3.27.631-6.6,1.218-9.843a5.2,5.2,0,0,1,1.828-3.442,2.968,2.968,0,0,1,3.056-.384c1.176.609,1.6,2.041,2,3.206a35.388,35.388,0,0,1,1.217,4.681c.609,3.185.931,6.433,1.293,9.651.352,3.077.706,6.144,1.058,9.222.01-.652.022-1.293.032-1.934.075-4.061.182-8.122.364-12.183.085-1.945.182-3.879.3-5.814s.192-3.858.459-5.771a7.086,7.086,0,0,1,1.9-4.254,4,4,0,0,1,3.709-1.047c2.7.631,3.826,3.121,4.263,5.622a2.429,2.429,0,0,1,1.038-.556c2.062-.546,3.387,1.507,4.125,3.088a27.584,27.584,0,0,1,2.479,10.452,3.914,3.914,0,0,1,1.315-.994c1.528-.651,2.789.482,3.355,1.828a18.172,18.172,0,0,1,.951,5.248c.2,2.063.289,4.136.352,6.209.108,4.243.065,8.486.514,12.707.78,7.416,3.067,14.951,1.581,22.389a23.758,23.758,0,0,1,9.918,12.162,12.54,12.54,0,0,1,.823,4.425" transform="translate(13.589 2.489)" fill="#fca27e"/>
        <path id="Trazado_210277" data-name="Trazado 210277" d="M533.219,120.92a20.143,20.143,0,0,1,.729,3.779,30.854,30.854,0,0,1,.187,3.807,30.47,30.47,0,0,1-.266,3.8,19.892,19.892,0,0,1-.814,3.761,27.3,27.3,0,0,1-.437-3.807c-.08-1.262-.1-2.518-.086-3.774s.062-2.512.169-3.771a27.85,27.85,0,0,1,.517-3.8" transform="translate(14.552 3.304)" fill="#f4e5d9"/>
        <path id="Trazado_210278" data-name="Trazado 210278" d="M551.313,109.165c-.15,2.2-.381,4.37-.6,6.534s-.436,4.319-.613,6.479c-.208,2.156-.367,4.318-.549,6.484s-.331,4.34-.578,6.535a40.44,40.44,0,0,1-.672-6.567,56.065,56.065,0,0,1,1.18-13.123,40.836,40.836,0,0,1,1.829-6.343" transform="translate(14.983 2.983)" fill="#f4e5d9"/>
        <path id="Trazado_210279" data-name="Trazado 210279" d="M543.9,96.685l-1.723,9.657c-.331,1.6-.733,3.2-.916,4.838-.071.818-.124,1.639-.135,2.459s.047,1.647.074,2.469c.114,1.646.213,3.288.237,4.932.046,1.645.106,3.292.074,4.941a50.043,50.043,0,0,1-1.1,9.874l-.16-.012c-.26-3.316-.4-6.584-.445-9.874-.012-1.645.064-3.291.127-4.939.048-1.65.2-3.3.393-4.947s.368-3.29.419-4.941c.041-.825.042-1.654.032-2.487l.082-2.5c.08-.83.2-1.656.36-2.475.181-.815.383-1.626.6-2.431.256-.8.53-1.587.829-2.365.338-.767.7-1.524,1.1-2.254Z" transform="translate(14.751 2.641)" fill="#f4e5d9"/>
        <path id="Trazado_210280" data-name="Trazado 210280" d="M528.453,137.272a30.33,30.33,0,0,1,6.213-2.346,38.376,38.376,0,0,1,13.227-1.132,30.119,30.119,0,0,1,6.521,1.261c-2.217-.016-4.395-.05-6.566-.011s-4.33.139-6.482.337c-2.154.167-4.3.447-6.445.765s-4.286.732-6.468,1.127" transform="translate(14.441 3.652)" fill="#f4e5d9"/>
        <path id="Trazado_210281" data-name="Trazado 210281" d="M531.449,177.357a15.7,15.7,0,0,1,1.72-.513c.567-.174,1.134-.316,1.7-.446.561-.161,1.125-.3,1.69-.424a14.2,14.2,0,0,1,1.7-.379c.569-.119,1.153-.2,1.736-.293.576-.117,1.155-.239,1.718-.411.552-.2,1.1-.424,1.625-.678.524-.269,1.017-.6,1.523-.893.975-.667,1.927-1.338,2.9-1.97.952-.666,1.864-1.375,2.8-2.05,1.884-1.344,3.7-2.769,5.644-4.2l.12.106a19,19,0,0,1-4.729,5.452c-.49.354-.974.718-1.481,1.048l-1.562.924c-.533.284-1.067.563-1.614.819-.556.237-1.128.439-1.688.655-1.139.4-2.264.78-3.351,1.27-.552.224-1.087.5-1.625.775-.549.246-1.1.508-1.66.73a15.551,15.551,0,0,1-3.533.742c-.6.042-1.206.071-1.809.069a14.92,14.92,0,0,1-1.811-.175Z" transform="translate(14.523 4.512)" fill="#f4e5d9"/>
        <path id="Trazado_210282" data-name="Trazado 210282" d="M573.168,260.959a5.792,5.792,0,0,1-1.3,1.658,7.824,7.824,0,0,1-.879.62c-.587.395-.508.767-.474,1.409a6.376,6.376,0,0,1-1.343,4.228,6.038,6.038,0,0,1-1.86,1.647c-.315.181-.665.3-.97.5a2.021,2.021,0,0,0-.834,1.274,18.75,18.75,0,0,1-5.243,8.649,15.383,15.383,0,0,1-9.63,3.992,9.686,9.686,0,0,1-5.017-.868,2.309,2.309,0,0,1-1.049-3.349,6.317,6.317,0,0,1,2.108-1.658c.88-.519,1.749-1.049,2.628-1.579l4.477-2.683c-2.549-.428-5.143-.462-7.713-.688a18.871,18.871,0,0,1-7.273-1.849,4.013,4.013,0,0,1-2.278-2.436,3.1,3.1,0,0,1,1.037-2.842,5.581,5.581,0,0,1,2.222-1.274,18.38,18.38,0,0,1-2.729-.395,6.552,6.552,0,0,1-3.237-1.59,3.079,3.079,0,0,1-.766-3.338,4.712,4.712,0,0,1,3.123-2.6,38.763,38.763,0,0,1,5.12-1.038c1.894-.338,3.8-.666,5.706-.97,1.183-.192,2.379-.361,3.574-.541-1.07-.011-2.131-.023-3.2-.045a44.817,44.817,0,0,1-8.255-.395c-2.052-.428-4.713-1.681-5.063-4-.406-2.706,2.379-4.127,4.51-4.815,2.413-.766,4.86-1.443,7.307-2.085a7.122,7.122,0,0,1-2.03-2.741c-.71-1.714,2.256-4.217,2.313-4.195.563-.349,1.127-.71,1.68-1.07a21.2,21.2,0,0,1,2.864-1.658,9.058,9.058,0,0,1,6.145-.023,27.64,27.64,0,0,1,6.045,2.683,24.291,24.291,0,0,1,4.984,3.688,5.865,5.865,0,0,1,1.41,2.018,8.053,8.053,0,0,1,.281,1.286,1.733,1.733,0,0,0,.79,1.15,6.332,6.332,0,0,1,2.458,3.394,6.165,6.165,0,0,1-.44,4.364c-.305.643-.045.958.338,1.477a5.714,5.714,0,0,1,.519.766,6.082,6.082,0,0,1,.631,1.917,6.611,6.611,0,0,1-.687,4.015" transform="translate(14.561 6.386)" fill="#aa6148"/>
        <path id="Trazado_210283" data-name="Trazado 210283" d="M538.348,264.852c3.055-.273,6.069-.34,9.09-.455,3.021-.081,6.034-.208,9.1-.128a43.469,43.469,0,0,1-18.19.583" transform="translate(14.711 7.221)" fill="#f4e5d9"/>
        <path id="Trazado_210284" data-name="Trazado 210284" d="M548.479,254.857a16.553,16.553,0,0,1,4.386-1.285,16.355,16.355,0,0,1,4.566-.173,18.527,18.527,0,0,1-8.952,1.458" transform="translate(14.988 6.922)" fill="#f4e5d9"/>
        <path id="Trazado_210285" data-name="Trazado 210285" d="M544.864,243.8a24.836,24.836,0,0,1,13.957-1.241c-2.355.358-4.658.518-6.968.739-2.312.187-4.609.437-6.989.5" transform="translate(14.89 6.615)" fill="#f4e5d9"/>
        <path id="Trazado_210286" data-name="Trazado 210286" d="M552.935,273.775a24.555,24.555,0,0,1,4.05-1.582,23.974,23.974,0,0,1,4.239-.966,12.079,12.079,0,0,1-8.288,2.548" transform="translate(15.11 7.412)" fill="#f4e5d9"/>
        <path id="Trazado_210287" data-name="Trazado 210287" d="M132.464,64.624a31.617,31.617,0,0,1-13.081,15.421l.011.075a24.631,24.631,0,0,1-11.649-2,40.47,40.47,0,0,0,8.72-15.6C112.341,69.134,106.154,74.21,99.6,78.431a16.352,16.352,0,0,1-5.525,2.6,5.266,5.266,0,0,0-4.682.053,6.989,6.989,0,0,0-2.928,3.056l-.748-.4c.791-1.506,1.549-3.035,2.255-4.574,3.173-6.979,5.29-14.535,9.7-20.807A33.346,33.346,0,0,1,154.212,61.6c5.034,9.223,5.418,20.465,2.864,30.661l-.085.289a3.324,3.324,0,0,0-2.34.085l-.032-.075q.143-8.912-.546-17.8a26.879,26.879,0,0,1-5.1,12.9c-1.881-.621-3.772-1.25-5.653-1.892a11.608,11.608,0,0,0,1.411-3.078,51.759,51.759,0,0,0,2.64-18.713A46.765,46.765,0,0,1,134.8,81.53a6.6,6.6,0,0,1-1.025.022,28.292,28.292,0,0,1-6.092-.609,11.983,11.983,0,0,0,2.233-4.039,54.217,54.217,0,0,0,2.544-12.28" transform="translate(2.342 1.208)" fill="#442626"/>
        <path id="Trazado_210288" data-name="Trazado 210288" d="M170.312,411.427H38.6a372.074,372.074,0,0,1,17.772-98.651c7.171,6.007,16.03,9.833,24.826,13.156a109.609,109.609,0,0,0,15.143,4.787c12.236,2.725,25.05,1.924,37.319-.641a226.9,226.9,0,0,0,29.988-9c5.782,29.667,6.3,60.092,6.668,90.347" transform="translate(1.055 8.547)" fill="#442626"/>
        <path id="Trazado_210289" data-name="Trazado 210289" d="M212.558,244.553q-3.142,18.05-6.252,36.111a463.554,463.554,0,0,1-42.993-39.188c.2-.791.4-1.571.556-2.372a64.711,64.711,0,0,0,1.1-10.153,106.374,106.374,0,0,0,15.486-26.14q15.244,21.464,32.1,41.743" transform="translate(4.463 5.542)" fill="#f9b480"/>
        <path id="Trazado_210290" data-name="Trazado 210290" d="M185.516,201.93c-.331.9-.684,1.8-1.048,2.682a106.307,106.307,0,0,1-15.485,26.14,64.711,64.711,0,0,1-1.1,10.152c-.16.8-.353,1.582-.556,2.373-.759,2.843-1.753,5.61-2.757,8.378a323.273,323.273,0,0,0,4.243,72.6c-1.517.546-3.036,1.1-4.563,1.635a227.059,227.059,0,0,1-29.988,9c-12.268,2.565-25.082,3.367-37.319.641A109.609,109.609,0,0,1,81.8,330.74a115,115,0,0,1-16.726-7.566,56.327,56.327,0,0,1-8.1-5.59c-.534-.438-1.058-.9-1.571-1.367.1-.471.192-.93.289-1.4.16-.813.331-1.636.491-2.447q5.082-24.9,10.153-49.79-3.59-18.675-6.209-37.511a41.768,41.768,0,0,1-2.949,4.926c-1.422-.3-2.832-.641-4.243-1a96.84,96.84,0,0,1-24.9-10.409,46.6,46.6,0,0,1-9.115-6.8,25.315,25.315,0,0,1-2.5-2.864c4.019-11.285,8.09-22.592,13.37-33.353C35.654,163.6,43.594,151.777,55.66,146.1l-.022-.1c6.07-1.656,13.6.192,15.047,4.371.962,2.778.192,5.814-.192,8.72a32.185,32.185,0,0,0,1.453,14.556c1.058.085,2.116.171,3.185.246-2.918-6.872.813-14.545,3.762-21.406A104.909,104.909,0,0,0,84.2,136.847c1.454,15.977-6.006,31.857-4,47.771a15.148,15.148,0,0,0,5.375-.118c-1.421-2.971-1.122-6.465-.481-9.7,1.828-9.159,6.144-17.655,9-26.514,1.432,7.62,7.3,13.839,13.979,17.858a11.267,11.267,0,0,0,4.777,1.848,10.64,10.64,0,0,0,5.963-1.731,30.745,30.745,0,0,0,14.193-17.836c5.92.834,11.873,2.158,16.96,5.279a30.073,30.073,0,0,1,2.906,2.02c.941.726,1.839,1.5,2.725,2.287,13.316,11.852,21.983,27.946,29.913,43.923" transform="translate(0.449 3.74)" fill="#f27242"/>
        <path id="Trazado_210291" data-name="Trazado 210291" d="M152.659,108.3c-.139.117-.277.224-.417.331a11.121,11.121,0,0,1-5.119,2.3,43.2,43.2,0,0,1-5.717,9.554,27.072,27.072,0,0,1-10.537,8.165q-.546.223-1.09.416a29.241,29.241,0,0,1-5.3,1.293c-5.4.855-11.093.546-16.041-1.763A25.646,25.646,0,0,1,96.35,115.765a36.7,36.7,0,0,1-2.769-9.8c0-1.058.022-2.115.075-3.173-.15-.065-.3-.14-.438-.214A13.308,13.308,0,0,1,88.1,98.025a17.184,17.184,0,0,1-2.512-7.341,13.462,13.462,0,0,1,.342-5.7,9.783,9.783,0,0,1,.546-1.336A6.981,6.981,0,0,1,89.4,80.595a5.267,5.267,0,0,1,4.68-.053,16.35,16.35,0,0,0,5.525-2.6c6.551-4.221,12.739-9.3,16.865-15.913a40.465,40.465,0,0,1-8.721,15.6,24.633,24.633,0,0,0,11.649,2l-.01-.075a31.621,31.621,0,0,0,13.08-15.421,54.138,54.138,0,0,1-2.543,12.28,11.958,11.958,0,0,1-2.234,4.039,28.233,28.233,0,0,0,6.092.609,6.49,6.49,0,0,0,1.026-.022A46.759,46.759,0,0,0,147.38,63.486,51.739,51.739,0,0,1,144.74,82.2a11.689,11.689,0,0,1-1.411,3.078c1.88.641,3.772,1.272,5.652,1.891a26.876,26.876,0,0,0,5.1-12.9q.689,8.881.544,17.8l.032.075a3.324,3.324,0,0,1,2.34-.086,3.4,3.4,0,0,1,1.123.577,5,5,0,0,1,1.7,3.922,10.035,10.035,0,0,1-1.133,4.232,21.029,21.029,0,0,1-6.027,7.5" transform="translate(2.335 1.695)" fill="#f9b480"/>
        <path id="Trazado_210292" data-name="Trazado 210292" d="M129.946,149.235c-.257-.043-.524-.075-.78-.107-.086-3.11-.16-6.219-.247-9.319-.117-4-.214-7.994-.321-11.98q.546-.193,1.09-.417a27.064,27.064,0,0,0,10.537-8.165,43.219,43.219,0,0,0,5.718-9.554,11.135,11.135,0,0,0,5.119-2.3c.139-.107.277-.214.416-.332a109.084,109.084,0,0,0-1.015,23.458,122.967,122.967,0,0,1-.652,26.012,30.073,30.073,0,0,0-2.906-2.02c-5.087-3.121-11.04-4.446-16.96-5.279" transform="translate(3.514 2.926)" fill="#442626"/>
        <path id="Trazado_210293" data-name="Trazado 210293" d="M130.165,149.19c.257.032.524.064.78.107a30.75,30.75,0,0,1-14.192,17.836,10.641,10.641,0,0,1-5.964,1.731,11.272,11.272,0,0,1-4.777-1.848c-6.68-4.019-12.547-10.238-13.979-17.858a58.527,58.527,0,0,0,2.213-8.923c1.859-11.692-.866-23.6-.844-35.438a36.731,36.731,0,0,0,2.768,9.8,25.65,25.65,0,0,0,12.088,12.824c4.948,2.308,10.644,2.618,16.041,1.763a29.237,29.237,0,0,0,5.3-1.292c.107,3.986.2,7.982.321,11.98.085,3.1.16,6.209.246,9.319" transform="translate(2.515 2.864)" fill="#f9b480"/>
        <path id="Trazado_210294" data-name="Trazado 210294" d="M93.077,149.762c-2.853,8.86-7.171,17.356-9,26.514-.641,3.238-.94,6.733.481,9.7a15.148,15.148,0,0,1-5.375.118c-2.009-15.913,5.45-31.794,4-47.771a104.922,104.922,0,0,1-5.311,15.646c-2.949,6.86-6.68,14.534-3.762,21.405-1.068-.075-2.127-.16-3.185-.246a32.185,32.185,0,0,1-1.453-14.556c.384-2.906,1.154-5.941.192-8.72-1.443-4.179-8.977-6.027-15.047-4.371l-.738.225c2.694-8.325,13.787-14.224,16.64-22.5,1.709-4.959,1.966-10.3,3.206-15.4,2.372-9.768,8.2-18.21,12.867-27.123l.748.4a9.784,9.784,0,0,0-.546,1.336,13.5,13.5,0,0,0-.342,5.7,17.193,17.193,0,0,0,2.512,7.342,13.314,13.314,0,0,0,5.119,4.552c.085,1.133.2,2.265.364,3.388-.022,11.841,2.7,23.746.843,35.438a58.491,58.491,0,0,1-2.212,8.923" transform="translate(1.472 2.26)" fill="#442626"/>
        <path id="Trazado_210295" data-name="Trazado 210295" d="M96.477,115.087a80.514,80.514,0,0,0,7.31,8.2,20.2,20.2,0,0,0,4.278,3.408,16.765,16.765,0,0,0,5.186,1.8,38.056,38.056,0,0,0,5.427.5,36.244,36.244,0,0,0,5.4-.378,42.245,42.245,0,0,0,5.341-1.047,19.023,19.023,0,0,0,5.11-1.942l.1.124a13.467,13.467,0,0,1-4.812,3.015,25.466,25.466,0,0,1-5.491,1.541,24.663,24.663,0,0,1-5.719.192,21.072,21.072,0,0,1-5.579-1.161,49.4,49.4,0,0,1-5.2-2.188,26.937,26.937,0,0,1-4.914-2.862,19.877,19.877,0,0,1-3.866-4.175,23.5,23.5,0,0,1-2.707-4.955Z" transform="translate(2.633 3.145)" fill="#442626"/>
        <path id="Trazado_210296" data-name="Trazado 210296" d="M151.708,96.495a10.216,10.216,0,0,1-.446,2.44,10.675,10.675,0,0,1-.905,2.257c-.41.708-.966,1.355-1.325,2.082a9.967,9.967,0,0,0-.781,2.307,17.7,17.7,0,0,1-.654,2.365c-.255.773-.53,1.538-.858,2.28a18.525,18.525,0,0,1-2.6,4.164l-.146-.066a18.753,18.753,0,0,1,1.18-4.782c.3-.749.66-1.475,1.035-2.193a17.7,17.7,0,0,1,1.239-2.108,9.838,9.838,0,0,0,1.112-2.166c.272-.763.346-1.608.567-2.391a10.608,10.608,0,0,1,.989-2.216,10.4,10.4,0,0,1,1.446-2.033Z" transform="translate(3.935 2.635)" fill="#442626"/>
        <path id="Trazado_210297" data-name="Trazado 210297" d="M59.98,221.057a30.982,30.982,0,0,1,1.227-4.26c.481-1.387,1.048-2.736,1.631-4.077.611-1.329,1.241-2.65,1.955-3.934a30.664,30.664,0,0,1,2.366-3.75,30.622,30.622,0,0,1-1.224,4.261c-.483,1.387-1.05,2.736-1.634,4.077-.613,1.328-1.243,2.649-1.957,3.932a31.116,31.116,0,0,1-2.364,3.751" transform="translate(1.639 5.603)" fill="#f2dcce"/>
        <path id="Trazado_210298" data-name="Trazado 210298" d="M154.733,190.931c.949,2.4,1.778,4.83,2.536,7.282s1.477,4.914,2.058,7.412c.561,2.5,1.007,5.04,1.621,7.53s1.381,4.939,2.187,7.377a64.744,64.744,0,0,1,2.179,7.44,22.129,22.129,0,0,1,.31,7.9c-.785,5.246-2.865,9.936-4.136,14.9l-.159-.024c.283-5.189,2.033-10.153,2.6-15.1a24.7,24.7,0,0,0-.1-7.407c-.409-2.472-1.032-4.963-1.544-7.482-.536-2.512-1.111-5.012-1.841-7.471s-1.625-4.873-2.407-7.318c-.761-2.45-1.384-4.938-1.969-7.436s-1.1-5.015-1.493-7.565Z" transform="translate(4.224 5.218)" fill="#f2dcce"/>
        <path id="Trazado_210299" data-name="Trazado 210299" d="M88.173,254.636a34.28,34.28,0,0,1,6.15-3.138,49.357,49.357,0,0,1,6.634-2,122.966,122.966,0,0,1,13.634-2.131,121.6,121.6,0,0,1,13.775-.746,74.046,74.046,0,0,1,13.72,1.291,166.982,166.982,0,0,0-27.325,1.047c-4.537.492-9.084.985-13.554,1.76a51.158,51.158,0,0,0-13.035,3.918" transform="translate(2.41 6.739)" fill="#442626"/>
        <path id="Trazado_210300" data-name="Trazado 210300" d="M137.531,354.8c-2.487,1.584-5.03,3.057-7.606,4.464s-5.172,2.779-7.83,4.023l-4.026,1.794-2.009.89a2.085,2.085,0,0,0-1.277,1.418c-.9,2.78-1.623,5.635-2.29,8.49-1.3,5.726-2.722,11.412-4.151,17.1-1.515,5.662-3.045,11.32-4.817,16.938l-.156-.035a173.694,173.694,0,0,1,3.316-17.322c.7-2.855,1.5-5.682,2.318-8.505s1.7-5.628,2.646-8.411,1.849-5.57,2.64-8.412a2.695,2.695,0,0,1,1.463-1.838l1.914-1.1,3.826-2.187c2.576-1.41,5.215-2.693,7.872-3.941s5.348-2.429,8.1-3.5Z" transform="translate(2.825 9.692)" fill="#f2dcce"/>
        <path id="Trazado_210301" data-name="Trazado 210301" d="M128.656,108.553a26.782,26.782,0,0,1,1.592,2.512,25.817,25.817,0,0,1-2.993,2.5,7.536,7.536,0,0,1-2.5,1.25,7.647,7.647,0,0,1-3.185-.117c-1.3-.247-2.6-.567-3.879-.909a6.393,6.393,0,0,1-2.672-1.165,5.992,5.992,0,0,1-1.068-1.357,29.131,29.131,0,0,1-1.913-3.666c1.774-.534,3.42-1.474,5.215-1.966a3.944,3.944,0,0,1,3.249.246c.758.524,1.132,1.432,1.741,2.106a10.572,10.572,0,0,1,2.308-.951,3.8,3.8,0,0,1,2.48-.022,4.153,4.153,0,0,1,1.624,1.539" transform="translate(3.062 2.88)" fill="#f27242"/>
        <path id="Trazado_210302" data-name="Trazado 210302" d="M82.546,89.414c-.865,3.906-3.7,6.885-5.976,10.032A38.582,38.582,0,0,0,71,110.615c-1.27,4.1-1.415,8.592-3.244,12.508-1.731,3.7-4.929,6.375-7.477,9.484-2.647,3.232-4.849,7.624-3.392,11.849.222.647,1.255.369,1.03-.284-1.34-3.888.743-7.932,3.188-10.895,2.472-2.994,5.52-5.6,7.319-9.1,1.948-3.785,2.163-8.124,3.281-12.17a37.6,37.6,0,0,1,5.2-11.186c2.438-3.567,5.711-6.772,6.676-11.128.149-.671-.881-.956-1.03-.285" transform="translate(1.542 2.433)" fill="#442626"/>
        <path id="Trazado_210303" data-name="Trazado 210303" d="M154.216,139.808a64.545,64.545,0,0,0-2.015-9.2c-.83-3.11-1.572-6.242-2.2-9.4q-1.1-5.491-1.783-11.054c-.083-.674-1.153-.682-1.068,0a150.229,150.229,0,0,0,3.445,18.5c1.481,5.859,3.718,12.013,2.254,18.1a17.424,17.424,0,0,1-4.4,8.012c-.478.5.277,1.252.756.756a19.112,19.112,0,0,0,5.021-15.723" transform="translate(4.021 2.996)" fill="#442626"/>
        <path id="Trazado_210304" data-name="Trazado 210304" d="M107.674,309.061c-4.744,3.12-7.995,8-11.113,12.737.344-.127.7-.223,1.043-.313a20.9,20.9,0,0,1,9.1.157c3.36.66,6.677,1.662,10.089,1.817,6.558.306,12.815-2.438,18.8-5.119-2.836.448-5.5-1.283-8.179-2.314-4.884-1.879-10.262-1.468-15.477-.456a24.382,24.382,0,0,0,4.242-1.455,23.518,23.518,0,0,0,5.406-3.952,108.738,108.738,0,0,0,11.847-12.643c-6.758,6.659-17.844,6.314-25.759,11.541" transform="translate(2.639 8.13)" fill="#5b8989"/>
        <path id="Trazado_210305" data-name="Trazado 210305" d="M84.808,301.967c-2.262,5.207-6.512,9.245-10.646,13.128.066-.362.1-.726.13-1.081a20.929,20.929,0,0,0-1.714-8.944c-1.226-3.2-2.781-6.292-3.518-9.629-1.424-6.408.208-13.043,1.826-19.395.045,2.871,2.206,5.2,3.679,7.662,2.687,4.49,3.2,9.859,3.1,15.171a24.355,24.355,0,0,1,.708-4.427,23.506,23.506,0,0,1,2.967-6A108.968,108.968,0,0,1,91.77,274.611c-5.4,7.8-3.166,18.661-6.961,27.356" transform="translate(1.872 7.504)" fill="#5b8989"/>
        <path id="Trazado_210306" data-name="Trazado 210306" d="M82.869,326.454c-.026.03-.047.073-.077.111a.437.437,0,0,1-.183.409c-.034.026-.077.047-.111.073-.345.541-.7,1.087-1.091,1.607a49.192,49.192,0,0,1-9.754,9.406c-3.845,2.979-7.772,5.866-11.651,8.787q-5.973,4.5-11.954,8.987c-1.987,1.5-3.982,3-5.968,4.5-1.881,1.416-3.726,2.911-5.675,4.23-1.479,1.019-3.282,1.876-5.111,1.441a4.278,4.278,0,0,1-2.022-1.1,2.617,2.617,0,0,1-.895-1.94c.089-.413.7-.81,1.015-1.069a11.78,11.78,0,0,1,1.244-.87c.93-.58,1.923-1.053,2.907-1.552,1.961-1,3.926-2.013,5.883-3.048,5.338-2.81,10.619-5.764,15.74-8.95a93.5,93.5,0,0,1-19.9,7.915q-3.153.837-6.352,1.428c-1.108.214-2.222.392-3.347.555a4.03,4.03,0,0,1-2.9-.265,1.566,1.566,0,0,1-.494-2.08,3.42,3.42,0,0,1,2.255-1.335,29.141,29.141,0,0,1,3.236-.332c1.146-.141,2.281-.321,3.415-.542,9.132-1.829,17.44-6.4,25.17-11.439q1.931-1.273,3.859-2.58c-1.459.551-2.908,1.083-4.374,1.586-8.6,2.938-17.415,5.139-26.224,7.322l-3.786.942a9.089,9.089,0,0,1-2.988.414,2.361,2.361,0,0,1-2.017-1.148,1.846,1.846,0,0,1,.392-2.148c1.416-1.36,3.772-1.088,5.555-1.177q3.255-.179,6.493-.644a106.829,106.829,0,0,0,25.252-7.231c5.085-2.072,10.061-4.413,14.989-6.831,2.865-1.808,5.786-3.513,8.825-5.031a.523.523,0,0,1,.747.49.4.4,0,0,1,.2.6l0,.008a.414.414,0,0,1-.12.3c-.064.064-.127.128-.183.2" transform="translate(0.561 8.876)" fill="#5b8989"/>
        <path id="Trazado_210307" data-name="Trazado 210307" d="M105.761,354.054c-6.893-3.457-14.058-7.139-18.547-13.406a46.724,46.724,0,0,1-2.747-4.467c-1.014-1.809-2.036-3.613-3.045-5.413,5.954.253,11.564,3.346,15.662,7.688a41.033,41.033,0,0,1,8.678,15.6" transform="translate(2.225 9.039)" fill="#5b8989"/>
        <path id="Trazado_210308" data-name="Trazado 210308" d="M113.955,338a4.3,4.3,0,0,1-2.154.965,2.429,2.429,0,0,0-1.2.263,3.286,3.286,0,0,0-.67.9c-.826,1.282-1.836,2.542-3.427,2.819a8.4,8.4,0,0,1-3.973-.706,7.124,7.124,0,0,0-2.243-.429,5.2,5.2,0,0,0-2.122.67c-1.315.646-2.621,1.2-4.078.637-1.676-.665-2.589-2.252-3.765-3.5-1.4-1.463-3.248-1.832-5.173-2.183-1.513-.271-3.423-.512-4.531-1.711-1.048-1.135-.716-2.654-.116-3.922.632-1.333,1.37-2.6,1.91-3.982a2.355,2.355,0,0,1-1.269-.854c-.415-.554-.558-1.121-1.361-1.13-.554,0-1.1.152-1.643.194a4.739,4.739,0,0,1-3.086-.655c-1.366-.96-1.32-2.621-1.324-4.111a3.525,3.525,0,0,0-.425-2.1c-.581-.8-1.721-.918-2.588-1.214a3.047,3.047,0,0,1-2.215-3.575c.291-1.9,1.854-3.295,2.149-5.154.272-1.721-1.31-2.869-1.928-4.31-.766-1.767.387-3.312,1.947-4.1a9.123,9.123,0,0,1,9,.613,2.887,2.887,0,0,1,2.012-2.109c1.615-.485,3.309.35,4.541,1.37a12.789,12.789,0,0,1,2.828,3.894,4.669,4.669,0,0,0,1.444,1.7,5.534,5.534,0,0,0,1.961.669,12.84,12.84,0,0,1,4.1.955,3.8,3.8,0,0,1,1.92,3.082c.272,3.423-2.814,5.79-3.123,9.062A12.2,12.2,0,0,1,95,322.636a5.256,5.256,0,0,1-1.084,1.869,8.8,8.8,0,0,1-1.6,1.356,3.685,3.685,0,0,0,1.813.434,2.559,2.559,0,0,0,2.169-1.245,3.744,3.744,0,0,1,1.776-1.754,2.062,2.062,0,0,1,2.091.665c.609.58,1.176,1.2,1.817,1.762A20.711,20.711,0,0,0,107,328.9c1.717.765,3.558,1.075,5.292,1.78a4.667,4.667,0,0,1,3.074,3.451A4.143,4.143,0,0,1,113.955,338" transform="translate(1.87 8.176)" fill="#f2dcce"/>
        <path id="Trazado_210309" data-name="Trazado 210309" d="M101.8,307.967a5.662,5.662,0,0,0-3.359-.775,5.108,5.108,0,0,1-1.526.063,1.12,1.12,0,0,1-.965-1.032l-.127-.1c.373-.439.72-.891,1.06-1.358a6.455,6.455,0,0,0,1.155-2.208,2.54,2.54,0,0,0-.515-2.351c-1.168-1.2-3.343-.468-4.724-1.418-.943-.647-1.323-1.97-2.367-2.467-1.648-.79-3.88.994-5.318-.133a7.833,7.833,0,0,1-.931-1.122,1.244,1.244,0,0,0-1.283-.505,1.257,1.257,0,0,0-.577.546,8.53,8.53,0,0,0-.777,2.722,3.225,3.225,0,0,1-1.462,2.342l-.028.033a4.425,4.425,0,0,1-1.458-2.331c.232,2.894,2.272,5.27,3.815,7.729a10.034,10.034,0,0,1,1.758,5.748,4.868,4.868,0,0,1-.222,1.206,18.786,18.786,0,0,0-3.382-5.823c-1-1.246-2.112-2.429-3.205-3.583q-1.977-2.094-3.941-4.178a6.957,6.957,0,0,1-1.554-2.119,3.636,3.636,0,0,1,3.411-4.717,1.2,1.2,0,0,0,.747-.086c.522-.328.117-1.115.119-1.728.005-1.173,1.576-1.611,2.742-1.449a8.793,8.793,0,0,1,6.2,4.108c1.187-.551,1.618-1.976,2.068-3.21.419-1.138,1.21-2.392,2.363-2.529a1.045,1.045,0,0,1,.277-.02c1.07.033,1.964,1.013,2.9,1.494a2.091,2.091,0,0,0,.292.125,1.55,1.55,0,0,0,1.1.053c.6-.2,1.014-.794,1.628-.945a1.48,1.48,0,0,1,1.283.334,3.1,3.1,0,0,1,.851,1.192,9.8,9.8,0,0,0,1.048,2.646c.834,1.075,2.364,1.279,3.722,1.241a3.233,3.233,0,0,1,1.186.1,2.428,2.428,0,0,1,1.314,2.074c.441,3.343-1.945,6.531-1.724,9.9Z" transform="translate(1.958 7.849)" fill="#f2dcce"/>
        <path id="Trazado_210310" data-name="Trazado 210310" d="M110.17,321.826a9.787,9.787,0,0,1-5.713-.8c-1.118-.448-2.22-.985-3.3-1.481a15.586,15.586,0,0,0-4.878-1.454,6.535,6.535,0,0,0-3.349.463l-.115-.237a10.9,10.9,0,0,0,2.034-1.87,5.907,5.907,0,0,1,7.007-.628l0,.007.421.733a5.136,5.136,0,0,0,2.37-.047,2.853,2.853,0,0,0,.13-4.859,18.689,18.689,0,0,0-1.939-.845,1.915,1.915,0,0,1-1.215-1.594c.01-.41.229-.85.043-1.22a1.158,1.158,0,0,0-.45-.411l1.593-2.539c1.183-1.09,2.363-2.186,3.546-3.276a1.627,1.627,0,0,1,.711-.463c.6-.151,1.144.363,1.482.869a6.9,6.9,0,0,1,1.1,4.933,1.8,1.8,0,0,0,.013,1.038c.223.477.814.608,1.275.852a2.226,2.226,0,0,1,.929.944,2.383,2.383,0,0,1-.011,2.293,15.108,15.108,0,0,0-1.122,1.516c-.569,1.3.5,2.589,1.23,3.9a3.08,3.08,0,0,1,.513,2.45,2.973,2.973,0,0,1-2.308,1.725" transform="translate(2.536 8.233)" fill="#f2dcce"/>
        <path id="Trazado_210311" data-name="Trazado 210311" d="M92.831,308.864c-1.238-1.312-2.021-3.2-3.4-4.428-1.662-1.5-4.013-1.917-6.156-2.6a9.5,9.5,0,0,1-3.445-1.829l.028-.033a3.228,3.228,0,0,0,1.462-2.342,8.523,8.523,0,0,1,.777-2.721,1.027,1.027,0,0,1,1.859-.041,7.773,7.773,0,0,0,.932,1.122c1.438,1.127,3.67-.658,5.318.134,1.044.5,1.424,1.818,2.367,2.466,1.381.95,3.556.222,4.724,1.418a2.539,2.539,0,0,1,.514,2.351,6.475,6.475,0,0,1-1.154,2.209c-.34.466-.687.918-1.06,1.358a29.956,29.956,0,0,1-2.18,2.414Z" transform="translate(2.182 8.043)" fill="#f2dcce"/>
        <path id="Trazado_210312" data-name="Trazado 210312" d="M102.561,316.135c-.1-.073-.2-.139-.307-.208l0-.007a5.907,5.907,0,0,0-7.007.628,10.94,10.94,0,0,1-2.034,1.87,2.191,2.191,0,0,1-.478.188A3.338,3.338,0,0,1,90.7,318.4a10.95,10.95,0,0,1-5.425-4.795,21.2,21.2,0,0,1-1.291-2.545,10.04,10.04,0,0,0-1.759-5.748c-1.543-2.457-3.583-4.835-3.815-7.729a4.429,4.429,0,0,0,1.459,2.331,9.492,9.492,0,0,0,3.445,1.829c2.142.684,4.493,1.1,6.156,2.6,1.376,1.231,2.158,3.116,3.4,4.428A4.845,4.845,0,0,0,94.39,309.9c1.065.485,2.284.475,3.39.866,2.313.82,3.654,3.186,4.781,5.367" transform="translate(2.143 8.132)" fill="#f2dcce"/>
        <path id="Trazado_210313" data-name="Trazado 210313" d="M104.661,316.395a5.123,5.123,0,0,1-2.37.047l-.421-.734c.109.07.206.136.307.209-1.127-2.181-2.469-4.547-4.781-5.367-1.105-.391-2.325-.382-3.39-.867a4.826,4.826,0,0,1-1.519-1.128l.589-.525a29.988,29.988,0,0,0,2.18-2.415l.126.1a1.122,1.122,0,0,0,.966,1.032,5.1,5.1,0,0,0,1.525-.063,5.662,5.662,0,0,1,3.359.775,1.162,1.162,0,0,1,.451.412c.186.371-.034.81-.043,1.22a1.917,1.917,0,0,0,1.215,1.594,18.556,18.556,0,0,1,1.939.845,2.851,2.851,0,0,1-.131,4.858" transform="translate(2.527 8.352)" fill="#f2dcce"/>
        <path id="Trazado_210314" data-name="Trazado 210314" d="M93.122,325.9c-1.49.386-3.272.386-4.329-.733a4.512,4.512,0,0,0-1.012-1.053,1.919,1.919,0,0,0-1.853.226,5.892,5.892,0,0,1-2.062.8c-1.279.068-2.238-1.175-2.718-2.364s-.788-2.548-1.781-3.358c-1.442-1.169-4.082-1.017-4.606-2.8-.566-1.953,2.334-3.836,1.477-5.673-.425-.93-1.626-1.262-2.175-2.117-.886-1.362.442-3.275,2.036-3.6a7.19,7.19,0,0,1,4.412,1.014,18.792,18.792,0,0,1,3.382,5.822,4.956,4.956,0,0,0,.222-1.206,21.2,21.2,0,0,0,1.291,2.545,10.943,10.943,0,0,0,5.426,4.795,3.335,3.335,0,0,0,2.025.205,2.171,2.171,0,0,0,.478-.188l.115.237a6.539,6.539,0,0,1,3.35-.463l.281.725a3.8,3.8,0,0,1,.135,4.593,5.135,5.135,0,0,1-1.324,1.353,8.266,8.266,0,0,1-2.771,1.239" transform="translate(2.016 8.339)" fill="#f2dcce"/>
        <path id="Trazado_210315" data-name="Trazado 210315" d="M106.792,330.2a5.366,5.366,0,0,0-.542-.039,10.627,10.627,0,0,1-2.529-.238,2.215,2.215,0,0,1-1.749-2.215l-.109-.447a1.368,1.368,0,0,0,.563-.2c.643-.454.3-1.542.762-2.182.479-.666,1.59-.556,2.112-1.191s.1-1.639-.542-2.146a3.083,3.083,0,0,0-.588-.367l.038-.56a9.8,9.8,0,0,0,5.714.8,2.97,2.97,0,0,0,2.307-1.725,3.076,3.076,0,0,0-.512-2.45l.373-.214a4.937,4.937,0,0,1,3.1-.629,2.019,2.019,0,0,1,1.313,1.146,1.3,1.3,0,0,1-.1,1.3c-.156.2-.374.349-.517.559-.443.665-.022,1.57.5,2.176a3.771,3.771,0,0,1,1.245,2.01c.1,1.289-1.413,2.093-2.708,2.215-.779.076-1.73.135-2.072.836a2.6,2.6,0,0,0-.14,1.055,3.1,3.1,0,0,1-1.044,2.384c-1.319,1.036-3.213.292-4.882.115" transform="translate(2.784 8.644)" fill="#f2dcce"/>
        <path id="Trazado_210316" data-name="Trazado 210316" d="M102.605,327.026a1.352,1.352,0,0,1-.563.2,6.614,6.614,0,0,1-4.521-1.1,14.2,14.2,0,0,1-2.218-1.806,5.135,5.135,0,0,0,1.324-1.353,3.8,3.8,0,0,0-.135-4.593l-.281-.725a15.594,15.594,0,0,1,4.878,1.454c1.08.5,2.181,1.034,3.3,1.481l-.039.561a2.962,2.962,0,0,1,.589.367c.645.508,1.064,1.511.542,2.146s-1.633.524-2.112,1.19c-.465.64-.119,1.728-.762,2.183" transform="translate(2.604 8.68)" fill="#f2dcce"/>
        <path id="Trazado_210317" data-name="Trazado 210317" d="M100.729,334.625a1.778,1.778,0,0,0-.971-.031c-.513.206-.66.852-.965,1.317-.021.029-.048.062-.069.09a2,2,0,0,1-2.276.5,4.69,4.69,0,0,1-1.911-1.563,5.1,5.1,0,0,0-1-1.032,4.615,4.615,0,0,0-2.276-.561,10.545,10.545,0,0,1-3.681-.785,4.188,4.188,0,0,1-2.418-2.737c-.435-1.978,1.043-4.05.455-5.991a1.914,1.914,0,0,1,1.852-.226,4.517,4.517,0,0,1,1.013,1.053c1.056,1.12,2.839,1.12,4.328.733a8.278,8.278,0,0,0,2.771-1.239,14.2,14.2,0,0,0,2.218,1.806,6.615,6.615,0,0,0,4.521,1.1l.109.448a2.215,2.215,0,0,0,1.749,2.214,10.629,10.629,0,0,0,2.529.239,2.7,2.7,0,0,1,.177,1.383,3.749,3.749,0,0,1-1.577,2.6,4.926,4.926,0,0,1-2.255.8,7.267,7.267,0,0,1-2.324-.121" transform="translate(2.325 8.839)" fill="#f2dcce"/>
        <path id="Trazado_210318" data-name="Trazado 210318" d="M116.28,317.807a2.021,2.021,0,0,0-1.314-1.146,4.934,4.934,0,0,0-3.1.629l-.374.214c-.725-1.312-1.8-2.6-1.23-3.9a15.391,15.391,0,0,1,1.122-1.516,2.38,2.38,0,0,0,.011-2.293l-.775-2.725a2.331,2.331,0,0,1,2.109-.27,7.711,7.711,0,0,1,2.9,1,2.649,2.649,0,0,1,1.243,2.642c-.137.631-.6,1.242-.4,1.858.239.765,1.28.912,1.837,1.493a1.983,1.983,0,0,1,.055,2.4,1.694,1.694,0,0,1-.1.152,5.155,5.155,0,0,1-1.989,1.459" transform="translate(3.009 8.381)" fill="#f2dcce"/>
        <path id="Trazado_210319" data-name="Trazado 210319" d="M111.71,333.417a3.165,3.165,0,0,1-2.945.016,9.394,9.394,0,0,1-2.416-1.874l-.039-.006a2.691,2.691,0,0,0-.177-1.384,5.388,5.388,0,0,1,.542.039c1.668.177,3.562.921,4.882-.115a3.1,3.1,0,0,0,1.044-2.384,2.6,2.6,0,0,1,.14-1.055c.342-.7,1.292-.76,2.072-.836,1.3-.122,2.809-.926,2.708-2.215a3.781,3.781,0,0,0-1.244-2.01c-.526-.606-.947-1.511-.5-2.176.142-.21.362-.36.518-.559a1.3,1.3,0,0,0,.1-1.3,5.155,5.155,0,0,0,1.989-1.459c.038-.047.066-.1.1-.151a6.9,6.9,0,0,1,2.41,1.984,3.569,3.569,0,0,1,.379,3.79c-.594,1-1.791,1.579-2.182,2.667-.578,1.609.845,3.6-.133,4.995-1.009,1.438-3.4.641-4.889,1.577-.968.607-1.385,1.853-2.353,2.46" transform="translate(2.9 8.634)" fill="#f2dcce"/>
        <path id="Trazado_210320" data-name="Trazado 210320" d="M85.749,324.1a1.739,1.739,0,0,1,2.19-.792A5.155,5.155,0,0,1,89.88,324.7a3.21,3.21,0,0,0,1.761,1.195,2.475,2.475,0,0,0,1.951-.807c.521-.513.932-1.139,1.455-1.724a7.651,7.651,0,0,1,.853-.849,5.839,5.839,0,0,0,.781-.7,2.446,2.446,0,0,0,.475-1.842,6.114,6.114,0,0,0-.717-2.077l.064-.047a4.52,4.52,0,0,1,1.269,2,2.848,2.848,0,0,1-.429,2.5,4.667,4.667,0,0,1-.927.816,6.709,6.709,0,0,0-.82.709,10.734,10.734,0,0,1-1.731,1.553,3.834,3.834,0,0,1-2.245.722,4.022,4.022,0,0,1-2.181-.957,9.963,9.963,0,0,0-1.717-1.31,1.645,1.645,0,0,0-1.9.257Z" transform="translate(2.343 8.686)" fill="#f27242"/>
        <path id="Trazado_210321" data-name="Trazado 210321" d="M94.554,324.374a1.428,1.428,0,0,1,1.1-.064,3.538,3.538,0,0,1,.974.5c.579.422,1.08.8,1.634,1.186a8.035,8.035,0,0,0,1.725,1.046,1.928,1.928,0,0,0,1.848-.116,1.13,1.13,0,0,0,.459-.672,3.593,3.593,0,0,0-.016-.913,1.675,1.675,0,0,1,.324-1.261,2.171,2.171,0,0,1,1.1-.572,1.722,1.722,0,0,0,.758-.329,1.406,1.406,0,0,0,.433-.675,1.426,1.426,0,0,0-.028-.87,2.043,2.043,0,0,1-.117-1.065l.079.007a2.522,2.522,0,0,0,.41.9,1.832,1.832,0,0,1,.274,1.134,1.916,1.916,0,0,1-.512,1.119,2.312,2.312,0,0,1-1.057.592c-.717.211-.914.3-.915.994a3.115,3.115,0,0,1-.124,1.133,1.594,1.594,0,0,1-.853.854,3.022,3.022,0,0,1-2.145-.018,12.231,12.231,0,0,1-1.989-.723,7.392,7.392,0,0,1-1.671-1.267,2.378,2.378,0,0,0-1.667-.849Z" transform="translate(2.584 8.76)" fill="#f27242"/>
        <path id="Trazado_210322" data-name="Trazado 210322" d="M101.654,327.606a5.027,5.027,0,0,0,2.751,2.546,5.71,5.71,0,0,0,1.738.645,2.4,2.4,0,0,0,1.658-.392,4.928,4.928,0,0,1,1.923-.749,13.156,13.156,0,0,0,1.953-.264,1.932,1.932,0,0,0,1.338-1.188c.183-.593-.277-1.142-.4-1.872a1.115,1.115,0,0,1,.451-1.1,7.138,7.138,0,0,1,.9-.519,9.445,9.445,0,0,0,1.628-.986,2.483,2.483,0,0,0,.9-1.417,1.586,1.586,0,0,0-.5-1.458,4,4,0,0,1-.607-.923,1.976,1.976,0,0,1-.081-1.2c.163-.7.386-1.254.1-1.689a1.717,1.717,0,0,0-1.465-.741,6.217,6.217,0,0,0-1.89.391l-.032-.073a5.235,5.235,0,0,1,1.9-.721,2.163,2.163,0,0,1,2.007.8,1.722,1.722,0,0,1,.29,1.157c-.028.377-.118.708-.155,1a1.329,1.329,0,0,0,.074.749,3.4,3.4,0,0,0,.515.708,3.086,3.086,0,0,1,.6.963,2.108,2.108,0,0,1,.057,1.206,3.265,3.265,0,0,1-1.245,1.833,8.3,8.3,0,0,1-1.82.969c-.294.131-.625.262-.862.395a.608.608,0,0,0-.327.61c.024.569.45,1.249.232,1.994a2.372,2.372,0,0,1-1.524,1.354c-.654.225-1.33.285-1.949.453a4.607,4.607,0,0,0-1.666.881,3.431,3.431,0,0,1-.979.476,2.6,2.6,0,0,1-1.129.047,5.5,5.5,0,0,1-1.935-.8,8.074,8.074,0,0,1-1.615-1.253,3.106,3.106,0,0,1-.911-1.814Z" transform="translate(2.776 8.632)" fill="#f27242"/>
        <path id="Trazado_210323" data-name="Trazado 210323" d="M116.212,318.117a.419.419,0,0,1-.595-.267l-.06-.171.269-.171a1.09,1.09,0,0,1,.366-.168,2.344,2.344,0,0,1,.43.033c.3.03.48-.242.608-.478a4.438,4.438,0,0,1,.425-.544c.162-.155.334-.29.6-.52l.079.01a.991.991,0,0,1-.006.981,1.326,1.326,0,0,1-.737.592c-.321.076-.632.047-.836.279a1.536,1.536,0,0,1-.337.314,1.009,1.009,0,0,1-.413.079l.21-.341c-.048.01-.1.13.007.292Z" transform="translate(3.158 8.631)" fill="#f27242"/>
        <path id="Trazado_210324" data-name="Trazado 210324" d="M93,318.338a6.379,6.379,0,0,1,3.87-.85,11.865,11.865,0,0,1,3.86,1c1.208.528,2.346,1.17,3.567,1.616a9.367,9.367,0,0,0,3.79.6,7.219,7.219,0,0,0,1.838-.379,3.394,3.394,0,0,0,1.474-.908,1.235,1.235,0,0,0,.015-1.419c-.267-.517-.684-1.034-1.012-1.666a3.016,3.016,0,0,1-.318-1.087,2.157,2.157,0,0,1,.23-1.143,9.685,9.685,0,0,1,1.224-1.624,2.355,2.355,0,0,0,.667-1.6,2.152,2.152,0,0,0-.8-1.606l.042-.068a2.226,2.226,0,0,1,1.16,1.631,2.74,2.74,0,0,1-.565,2.012,9.452,9.452,0,0,0-1.025,1.571,1.677,1.677,0,0,0,.145,1.529c.268.531.691,1.032,1,1.689a2.456,2.456,0,0,1,.259,1.131,1.832,1.832,0,0,1-.441,1.126,3.726,3.726,0,0,1-1.866,1.037,6.646,6.646,0,0,1-2.02.213,14.58,14.58,0,0,1-3.88-.789c-1.252-.4-2.5-.831-3.723-1.243A19.1,19.1,0,0,0,96.8,318.1a7.7,7.7,0,0,0-3.77.306Z" transform="translate(2.541 8.45)" fill="#f27242"/>
        <path id="Trazado_210325" data-name="Trazado 210325" d="M93.136,317.826a13.408,13.408,0,0,1,3.1-2.668,5.088,5.088,0,0,1,2-.786,2.63,2.63,0,0,1,1.146.095,3.684,3.684,0,0,1,.972.518,7.666,7.666,0,0,0,1.69.982,3.827,3.827,0,0,0,1.906.3,2.917,2.917,0,0,0,1.722-.821,2.151,2.151,0,0,0,.624-1.712,1.774,1.774,0,0,0-.894-1.437c-.516-.309-1.177-.437-1.836-.735a4.065,4.065,0,0,1-1.765-1.34,2.727,2.727,0,0,1-.436-1.083c-.069-.357-.107-.684-.18-.966a2.4,2.4,0,0,0-.979-1.371,2.666,2.666,0,0,0-1.72-.426,6.224,6.224,0,0,1-2.084-.152,2.188,2.188,0,0,1-1.414-1.5l.075-.027a2.093,2.093,0,0,0,1.448,1.142,6.668,6.668,0,0,0,1.942-.082,4.664,4.664,0,0,1,1.089.01,3.029,3.029,0,0,1,1.077.39,3.081,3.081,0,0,1,1.388,1.8,5.7,5.7,0,0,0,.487,1.811,3.31,3.31,0,0,0,1.387,1.118,13.521,13.521,0,0,1,1.867.885,2.247,2.247,0,0,1,.985,1.955,2.7,2.7,0,0,1-.865,1.925,3.614,3.614,0,0,1-1.88.875,5.954,5.954,0,0,1-3.99-.975,2.476,2.476,0,0,0-1.681-.469,5.088,5.088,0,0,0-1.77.621,23.21,23.21,0,0,0-3.351,2.189Z" transform="translate(2.545 8.326)" fill="#f27242"/>
        <path id="Trazado_210326" data-name="Trazado 210326" d="M92.54,308.99a7.777,7.777,0,0,1,2.194-3.71,14.806,14.806,0,0,0,2.674-3.137,2.254,2.254,0,0,0,.093-1.85,1.534,1.534,0,0,0-.593-.725,1.743,1.743,0,0,0-.952-.217,16.386,16.386,0,0,1-2.147.206,3.35,3.35,0,0,1-1.951-1.047c-.53-.525-.948-1.122-1.391-1.647a4.814,4.814,0,0,0-.714-.7,1.008,1.008,0,0,0-1.493-.027,4.729,4.729,0,0,1-.994.6,2.764,2.764,0,0,1-2.406-.36c-.692-.445-1.126-1.035-1.644-1.353-.484-.312-1.176-.346-1.42.123a5.207,5.207,0,0,0-.336.934l-.314,1.023q-.319,1.023-.672,2.037l-.077-.018q.16-1.063.358-2.115l.2-1.053a4.31,4.31,0,0,1,.294-1.1,1.379,1.379,0,0,1,1.1-.752,2.158,2.158,0,0,1,1.247.26c.726.4,1.169,1,1.705,1.294a2.041,2.041,0,0,0,1.677.3,4.127,4.127,0,0,0,.841-.482,2.061,2.061,0,0,1,1.221-.408,1.972,1.972,0,0,1,1.158.552,5.53,5.53,0,0,1,.76.847c.447.59.773,1.22,1.215,1.743a2.735,2.735,0,0,0,1.665,1.065,10.47,10.47,0,0,0,2.1-.186,2.175,2.175,0,0,1,1.121.187,1.927,1.927,0,0,1,.835.82,2.767,2.767,0,0,1,.121,2.3,5.4,5.4,0,0,1-1.29,1.847c-.515.516-1.044.99-1.559,1.473a9.567,9.567,0,0,0-2.555,3.3Z" transform="translate(2.197 8.037)" fill="#f27242"/>
        <path id="Trazado_210327" data-name="Trazado 210327" d="M101.613,316.038a4.059,4.059,0,0,0-1.033-3.545,6.8,6.8,0,0,0-3.27-1.851,23.721,23.721,0,0,1-3.862-1.1,7.2,7.2,0,0,1-2.968-2.784,18.076,18.076,0,0,0-2.359-3.171,6.749,6.749,0,0,0-1.55-1.172,6.568,6.568,0,0,0-1.837-.6,13,13,0,0,1-3.933-.971,11.289,11.289,0,0,1-3.052-2.713l.7-.275c.073,1.113,1.142,2.117,1.856,3.258a30.742,30.742,0,0,1,2.055,3.519,5.808,5.808,0,0,1,.53,4.087,5.918,5.918,0,0,0-.077,1.939,2.136,2.136,0,0,0,.991,1.579l-.033.072a2.257,2.257,0,0,1-1.264-1.581,5.764,5.764,0,0,1-.1-2.063,7.4,7.4,0,0,0-.026-1.928,6.269,6.269,0,0,0-.67-1.781c-.636-1.138-1.361-2.275-2.113-3.361l-1.161-1.642a3.945,3.945,0,0,1-.791-2.066l-.035-1.166.739.891a11.314,11.314,0,0,0,2.772,2.643,14.307,14.307,0,0,0,3.7,1.141,6.946,6.946,0,0,1,3.473,2.007,35.864,35.864,0,0,1,2.477,3.133,6.828,6.828,0,0,0,2.933,2.393C94.89,309.4,96.2,309.6,97.5,310a6.711,6.711,0,0,1,3.456,2.179,4.035,4.035,0,0,1,.736,3.883Z" transform="translate(2.121 8.109)" fill="#f27242"/>
        <path id="Trazado_210328" data-name="Trazado 210328" d="M85.327,314.192c.5.533.991.887,1.455,1.419a10.178,10.178,0,0,0,.629.852,2.892,2.892,0,0,0,.855.587c.643.287,1.225.59,1.832.828a18.22,18.22,0,0,0,1.883.739l0,.079a3.151,3.151,0,0,1-2.2-.029A4.552,4.552,0,0,1,88,317.4a5.184,5.184,0,0,0-.762-.741c-.279-.214-.625-.359-.914-.564a2.5,2.5,0,0,1-1.074-1.873Z" transform="translate(2.33 8.586)" fill="#f27242"/>
        <path id="Trazado_210329" data-name="Trazado 210329" d="M106.888,301.42c-.626.391-1.075.776-1.636,1.158a6.245,6.245,0,0,0-.888.549,3.242,3.242,0,0,0-.659.809c-.352.615-.755,1.159-1.129,1.715-.411.533-.8,1.06-1.279,1.623l-.075-.027a3.972,3.972,0,0,1,.652-2.077,5.927,5.927,0,0,1,1.51-1.531,4.275,4.275,0,0,0,.8-.694c.231-.265.4-.6.646-.875a2.323,2.323,0,0,1,2.046-.727Z" transform="translate(2.766 8.234)" fill="#f27242"/>
        <path id="Trazado_210330" data-name="Trazado 210330" d="M80.445,306.078a7.61,7.61,0,0,0-4.078-.332,3.8,3.8,0,0,0-1.783.788,1.93,1.93,0,0,0-.688,1.6c.027.6.462.944,1.069,1.371a2.71,2.71,0,0,1,.822.888,2.4,2.4,0,0,1,.259,1.216c-.072,1.627-1.154,2.806-1.2,4.015-.1,1.223,1.194,1.991,2.462,2.44a8.231,8.231,0,0,1,1.967.951,3.244,3.244,0,0,1,1.225,1.863c.193.7.277,1.4.513,2.039a3,3,0,0,0,1.216,1.547,3.372,3.372,0,0,0,3.794-.045l.4-.305-.133.487a16.217,16.217,0,0,0-.7,4.026,5.525,5.525,0,0,0,1.2,3.647,4.538,4.538,0,0,0,3.43,1.4c.639.021,1.3-.123,2.059-.139a3.853,3.853,0,0,1,2.211.653c1.27.82,2.109,1.983,3.205,2.527a2.2,2.2,0,0,0,1.652.19,1.381,1.381,0,0,0,.648-.393,2.65,2.65,0,0,0,.389-.81,1.464,1.464,0,0,1,1.172-.845,4.37,4.37,0,0,1,1.161.063,3.23,3.23,0,0,0,1.809-.157,3.582,3.582,0,0,0,2.266-2.746l.131-.987.521.827a4.269,4.269,0,0,0,3.511,1.943,4.438,4.438,0,0,0,3.677-1.955l.08.048a4.642,4.642,0,0,1-3.746,2.365,4.819,4.819,0,0,1-4.117-2l.652-.16a4.365,4.365,0,0,1-2.652,3.468,4.149,4.149,0,0,1-2.263.287,3.683,3.683,0,0,0-.905-.053.481.481,0,0,0-.434.311,3.27,3.27,0,0,1-.529,1.038,2.349,2.349,0,0,1-1.09.689,3.189,3.189,0,0,1-2.374-.233c-1.414-.708-2.216-1.942-3.279-2.622a2.9,2.9,0,0,0-1.7-.543c-.626-.006-1.336.13-2.083.1a5.261,5.261,0,0,1-3.961-1.8,6.042,6.042,0,0,1-1.16-4.128,18.122,18.122,0,0,1,.885-4.1l.266.182a3.778,3.778,0,0,1-4.161.028,3.326,3.326,0,0,1-1.382-1.679c-.261-.683-.368-1.391-.6-2.032a2.739,2.739,0,0,0-1.129-1.539,7.8,7.8,0,0,0-1.874-.772,6.212,6.212,0,0,1-2.013-.955,2.609,2.609,0,0,1-1.044-2.145c.091-1.66,1.193-2.769,1.224-4.019a1.571,1.571,0,0,0-.747-1.482,5.388,5.388,0,0,1-.85-.744,1.917,1.917,0,0,1-.455-1.174,2.566,2.566,0,0,1,1.01-2.093,4.308,4.308,0,0,1,2.077-.8,7.379,7.379,0,0,1,4.19.7Z" transform="translate(2 8.341)" fill="#f27242"/>
        <path id="Trazado_210331" data-name="Trazado 210331" d="M80.709,343.994a3.574,3.574,0,0,1-2.455,1.315c.267.678.514,1.366.771,2.055a5.087,5.087,0,0,1,.452,2.178,3.325,3.325,0,0,1-1.562,2.383,4.609,4.609,0,0,1-3.4.657c-.031.134-.062.277-.092.411a27.528,27.528,0,0,1-.853,2.99,3.132,3.132,0,0,1-.791,1.377,2.666,2.666,0,0,1-1.726.493,7.631,7.631,0,0,1-2.044-.247,7.864,7.864,0,0,1-2.9-1.418,2.947,2.947,0,0,1-.883-1.038,15.6,15.6,0,0,0,.226,2.394,9.579,9.579,0,0,1,.236,1.6,2.7,2.7,0,0,1-.021.575,1.77,1.77,0,0,1-1.325,1.562,2.493,2.493,0,0,1-1.336-.3c-.082-.041-.164-.072-.247-.113a29.164,29.164,0,0,1-5.291-3.133l-.113-.072c-.277.473-.544.945-.812,1.418a.775.775,0,0,1-1.038.5l-2.25-.431a5.113,5.113,0,0,1-2.63-1.027,5.129,5.129,0,0,1-1.2-2.291c-.555-1.746-1.13-3.493-1.685-5.25a33.2,33.2,0,0,1-4.2-5.866,36.013,36.013,0,0,1-4.695-18.9Q23.266,303.769,9.834,280.289c-2.353-4.109-4.705-8.393-5.26-13.1-.452-3.719.247-7.469,1.017-11.136a297.208,297.208,0,0,1,13.653-46.261,46.532,46.532,0,0,0,9.112,6.791,96.522,96.522,0,0,0,24.9,10.407q-10.895,16.566-20.3,34.056c6.688,7.058,10.992,16.109,14.485,25.231,3.072,8.013,5.6,16.263,9.071,24.1q.647,1.479,1.356,2.928a127.016,127.016,0,0,0,12.184,9.821,20.074,20.074,0,0,1,3.349,2.753c1.818,2,2.671,4.664,3.822,7.1,1.377,2.959,3.277,5.753,3.729,8.979a3.137,3.137,0,0,1-.247,2.034" transform="translate(0.121 5.733)" fill="#f9b480"/>
        <path id="Trazado_210332" data-name="Trazado 210332" d="M52.505,347.051a16.2,16.2,0,0,1,3.639,6.99,23.537,23.537,0,0,1-2.069-3.366,23.9,23.9,0,0,1-1.57-3.624" transform="translate(1.435 9.484)" fill="#442626"/>
        <path id="Trazado_210333" data-name="Trazado 210333" d="M60.978,346.412a22.629,22.629,0,0,0,1.806,2.28,7.7,7.7,0,0,1,.845,1.252,4.233,4.233,0,0,1,.059,1.792c-.57-.85-.87-1.789-1.5-2.562a7.267,7.267,0,0,1-.84-1.262,3,3,0,0,1-.368-1.5" transform="translate(1.666 9.466)" fill="#442626"/>
        <path id="Trazado_210334" data-name="Trazado 210334" d="M69.551,343.646a12.563,12.563,0,0,1,1.665,2.169,22.134,22.134,0,0,1,1.6,3.283,11.725,11.725,0,0,1-2.248-2.874,6.862,6.862,0,0,1-1.015-2.578" transform="translate(1.901 9.391)" fill="#442626"/>
        <path id="Trazado_210335" data-name="Trazado 210335" d="M73.086,337.207a6.692,6.692,0,0,1,2.284,2.3,7.837,7.837,0,0,1,.7,1.469,9.758,9.758,0,0,0,.571,1.469,3.137,3.137,0,0,1-1.114-1.209l-.814-1.326c-.535-.887-1.107-1.733-1.63-2.7" transform="translate(1.997 9.215)" fill="#442626"/>
      </g>
    </g>
  </g>
</svg>
