<svg xmlns="http://www.w3.org/2000/svg" xmlns:xlink="http://www.w3.org/1999/xlink" width="505" height="275" viewBox="0 0 505 275">
  <defs>
    <clipPath id="clip-path">
      <rect id="Rect치ngulo_48995" data-name="Rect치ngulo 48995" width="378.209" height="263.085" fill="none"/>
    </clipPath>
  </defs>
  <g id="Grupo_169865" data-name="Grupo 169865" transform="translate(-810 -13059)">
    <g id="Grupo_165018" data-name="Grupo 165018" transform="translate(0 3459)">
      <rect id="Rect치ngulo_48864" data-name="Rect치ngulo 48864" width="505" height="275" transform="translate(810 9600)" fill="#c6a843"/>
    </g>
    <g id="Grupo_169719" data-name="Grupo 169719" transform="translate(873 13070.915)">
      <g id="Grupo_169719-2" data-name="Grupo 169719" clip-path="url(#clip-path)">
        <path id="Trazado_209337" data-name="Trazado 209337" d="M586.4,272.607l4.755,80.364H543.89l9.481-77.755c-12.283-19.883,3.565-37.52,3.565-37.52a68.026,68.026,0,0,1-1.447-11.89c0-5.219,7.129-6.473,7.129-6.473,1.062-7.264,10.836-6.081,10.836-6.081a21.123,21.123,0,0,1,3.736-2.374s-.449-6.344,2.374-6.637,11.3,4.156,11.3,4.156,5.055-2.224,8.32-1.483,8.868,27.8,8.868,32.4S586.4,272.607,586.4,272.607" transform="translate(-239.383 -89.886)" fill="#ffdbc0"/>
        <path id="Trazado_209338" data-name="Trazado 209338" d="M600.189,224.305c-.223-1.716-1.764-2.255-2.91-3.307a10.33,10.33,0,0,1-2.821-4.5c-.279-.874-1.616-.377-1.337.5a11.689,11.689,0,0,0,2,3.765,11.9,11.9,0,0,0,1.447,1.514,19.924,19.924,0,0,1,1.86,1.41c.545.607.366,1.591.331,2.339q-.07,1.511-.142,3.022-.067,1.422-.134,2.844c-.02.415-.037.83-.058,1.245-.034.657-.107.619-.73.748a21.005,21.005,0,0,0-14.065,10.308,21.249,21.249,0,0,0-2.613,10.264c0,.917,1.419.788,1.42-.124A19.429,19.429,0,0,1,595.7,235.887a18.434,18.434,0,0,1,2.12-.586c.619-.129,1.327-.156,1.73-.712a3.924,3.924,0,0,0,.32-2.087q.071-1.511.142-3.022a30.45,30.45,0,0,0,.179-5.174" transform="translate(-255.723 -95.086)" fill="#f9a66e"/>
        <path id="Trazado_209339" data-name="Trazado 209339" d="M637.862,232.881a66.981,66.981,0,0,1-2.49-12.135,12.436,12.436,0,0,0-.971-4.589c-.81-1.522-2.333-2.012-3.606-3.035-.716-.574-1.634.517-.917,1.092,1.222.981,2.816,1.436,3.448,3a20.408,20.408,0,0,1,.788,5.011,69.283,69.283,0,0,0,2.412,11.155c.265.878,1.6.38,1.336-.5" transform="translate(-277.115 -93.73)" fill="#f9a66e"/>
        <path id="Trazado_209340" data-name="Trazado 209340" d="M617.22,210.625a.73.73,0,0,0-.994-.17,4.068,4.068,0,0,1-2.235.226,18.479,18.479,0,0,1-2.6-.346,4.78,4.78,0,0,1-3.44-2.36c-.382-.827-1.723-.338-1.337.5a6.172,6.172,0,0,0,4.35,3.225,18.07,18.07,0,0,0,3.082.41,5.289,5.289,0,0,0,3-.489.718.718,0,0,0,.17-.994" transform="translate(-266.961 -91.349)" fill="#f9a66e"/>
        <path id="Trazado_209341" data-name="Trazado 209341" d="M596.482,239.616a20.824,20.824,0,0,1-1.029-16.485c.313-.857-.974-1.472-1.289-.61a22.218,22.218,0,0,0,.982,17.592c.409.809,1.751.323,1.336-.5" transform="translate(-260.911 -97.756)" fill="#f9a66e"/>
        <path id="Trazado_209342" data-name="Trazado 209342" d="M582.767,251.048a6.408,6.408,0,0,1-2.635-3.176,22.1,22.1,0,0,1-1.572-4.184,21.834,21.834,0,0,1-.414-9.092.714.714,0,0,0-1.4-.258,23.549,23.549,0,0,0,.559,10.135,22.567,22.567,0,0,0,1.853,4.59,7.07,7.07,0,0,0,3,3.273.714.714,0,0,0,.61-1.289" transform="translate(-253.707 -102.891)" fill="#f9a66e"/>
        <path id="Trazado_209343" data-name="Trazado 209343" d="M575.938,270.814l-.051.008a1.28,1.28,0,0,1-.4-.027,6.372,6.372,0,0,1-1-.268,7.6,7.6,0,0,1-4.57-4.5.713.713,0,0,0-1.336.5,9,9,0,0,0,3.636,4.465c1.091.695,4.57,2.391,5.068.212.193-.845-1.031-1.106-1.344-.387" transform="translate(-250.228 -116.89)" fill="#f9a66e"/>
        <path id="Trazado_209344" data-name="Trazado 209344" d="M584.3,320.6a59.114,59.114,0,0,0-12.482,3.173.713.713,0,0,0,.5,1.336,57.3,57.3,0,0,1,12.109-3.089c.905-.128.787-1.549-.124-1.42" transform="translate(-251.479 -141.102)" fill="#f9a66e"/>
        <path id="Trazado_209345" data-name="Trazado 209345" d="M587.652,327.875l-7.135.788a.713.713,0,0,0,.124,1.42l7.135-.788a.713.713,0,0,0-.124-1.42" transform="translate(-255.229 -144.306)" fill="#f9a66e"/>
        <path id="Trazado_209346" data-name="Trazado 209346" d="M657.387,179.835l-10.239,11.081c-.735.8.554,1.872,1.287,1.079l10.239-11.081c.735-.8-.554-1.872-1.287-1.079" transform="translate(-284.733 -79.029)" fill="#f9c662"/>
        <path id="Trazado_209347" data-name="Trazado 209347" d="M637.592,172.438l-2.906,11.414c-.267,1.05,1.387,1.346,1.652.3q1.454-5.707,2.906-11.415c.268-1.049-1.387-1.346-1.652-.3" transform="translate(-279.332 -75.61)" fill="#f9c662"/>
        <path id="Trazado_209348" data-name="Trazado 209348" d="M618.78,187.77q-.49-3.187-.979-6.374a.86.86,0,0,0-.91-.764.848.848,0,0,0-.764.91q.49,3.187.979,6.374a.86.86,0,0,0,.91.764.847.847,0,0,0,.764-.91" transform="translate(-271.174 -79.501)" fill="#f9c662"/>
        <path id="Trazado_209349" data-name="Trazado 209349" d="M667.346,207.267l-7.328,2.452c-1.025.343-.441,1.918.585,1.574l7.329-2.452c1.024-.343.439-1.918-.586-1.574" transform="translate(-290.259 -91.203)" fill="#f9c662"/>
        <path id="Trazado_209350" data-name="Trazado 209350" d="M543.89,418.742h47.265l-1.388-65.081L546.2,364.867Z" transform="translate(-239.383 -155.657)" fill="#ffcf36"/>
        <path id="Trazado_209351" data-name="Trazado 209351" d="M557.622,376a1.438,1.438,0,0,0-1.273,1.516q-.028,3.84-.056,7.679a1.4,1.4,0,0,0,1.516,1.273,1.438,1.438,0,0,0,1.273-1.516q.028-3.84.056-7.679A1.4,1.4,0,0,0,557.622,376" transform="translate(-244.842 -165.483)" fill="#ffa506"/>
        <path id="Trazado_209352" data-name="Trazado 209352" d="M581.159,374.672a1.407,1.407,0,0,0-1.516-1.273,1.435,1.435,0,0,0-1.273,1.517q.042,3.735.086,7.471a1.4,1.4,0,0,0,1.516,1.272,1.434,1.434,0,0,0,1.273-1.516q-.042-3.735-.085-7.471" transform="translate(-254.559 -164.341)" fill="#ffa506"/>
        <path id="Trazado_209353" data-name="Trazado 209353" d="M598.928,373.378a1.411,1.411,0,0,0-1.516-1.273,1.43,1.43,0,0,0-1.273,1.517q.18,3.84.362,7.681a1.411,1.411,0,0,0,1.517,1.272,1.429,1.429,0,0,0,1.272-1.516q-.181-3.84-.362-7.681" transform="translate(-262.379 -163.771)" fill="#ffa506"/>
        <path id="Trazado_209354" data-name="Trazado 209354" d="M618.66,370.6a1.412,1.412,0,0,0-1.516-1.273,1.429,1.429,0,0,0-1.273,1.517l.408,7.886a1.41,1.41,0,0,0,1.516,1.273,1.429,1.429,0,0,0,1.273-1.516q-.2-3.944-.408-7.886" transform="translate(-271.063 -162.55)" fill="#ffa506"/>
        <path id="Trazado_209355" data-name="Trazado 209355" d="M567.124,398.978a1.437,1.437,0,0,0-1.273,1.516q-.006,3.425-.013,6.848a1.405,1.405,0,0,0,1.516,1.273,1.437,1.437,0,0,0,1.273-1.517q.007-3.424.013-6.848a1.4,1.4,0,0,0-1.516-1.273" transform="translate(-249.043 -175.599)" fill="#ffa506"/>
        <path id="Trazado_209356" data-name="Trazado 209356" d="M588.014,401.547a1.407,1.407,0,0,0-1.516-1.273,1.433,1.433,0,0,0-1.273,1.517l.1,6.122a1.407,1.407,0,0,0,1.517,1.273,1.433,1.433,0,0,0,1.272-1.517q-.051-3.06-.1-6.122" transform="translate(-257.576 -176.169)" fill="#ffa506"/>
        <path id="Trazado_209357" data-name="Trazado 209357" d="M612.244,401.365a1.4,1.4,0,1,0-2.789.244q.211,2.9.421,5.81a1.4,1.4,0,1,0,2.789-.244q-.21-2.906-.421-5.81" transform="translate(-268.238 -176.089)" fill="#ffa506"/>
        <path id="Trazado_209358" data-name="Trazado 209358" d="M554.8,423.6a1.408,1.408,0,0,0-1.516-1.273,1.433,1.433,0,0,0-1.273,1.517q.08,3.113.159,6.227a1.407,1.407,0,0,0,1.516,1.272,1.432,1.432,0,0,0,1.273-1.516q-.08-3.113-.159-6.227" transform="translate(-242.956 -185.876)" fill="#ffa506"/>
        <path id="Trazado_209359" data-name="Trazado 209359" d="M575.2,426.568a1.411,1.411,0,0,0-1.516-1.273,1.429,1.429,0,0,0-1.273,1.517q.153,2.957.305,5.914A1.412,1.412,0,0,0,574.228,434a1.429,1.429,0,0,0,1.273-1.517q-.153-2.957-.305-5.914" transform="translate(-251.933 -187.181)" fill="#ffa506"/>
        <path id="Trazado_209360" data-name="Trazado 209360" d="M599.846,422.675a1.407,1.407,0,0,0-1.516-1.273,1.434,1.434,0,0,0-1.273,1.517q.045,2.646.089,5.292a1.408,1.408,0,0,0,1.517,1.273,1.433,1.433,0,0,0,1.272-1.517l-.089-5.292" transform="translate(-262.784 -185.468)" fill="#ffa506"/>
        <path id="Trazado_209361" data-name="Trazado 209361" d="M621.444,425.149a1.425,1.425,0,0,0-.89-.568c-.667-.092-1.593.341-1.63,1.124l-.306,6.537a1.549,1.549,0,0,0,.234,1.062,1.428,1.428,0,0,0,.89.568c.667.092,1.593-.342,1.63-1.124l.306-6.537a1.547,1.547,0,0,0-.235-1.062" transform="translate(-272.271 -186.866)" fill="#ffa506"/>
        <path id="Trazado_209362" data-name="Trazado 209362" d="M559.229,446.6a1.439,1.439,0,0,0-1.273,1.516q-.05,3.164-.1,6.328a1.4,1.4,0,0,0,1.516,1.272,1.438,1.438,0,0,0,1.273-1.516q.049-3.164.1-6.328a1.4,1.4,0,0,0-1.516-1.273" transform="translate(-245.53 -196.561)" fill="#ffa506"/>
        <path id="Trazado_209363" data-name="Trazado 209363" d="M584.366,446.373a1.4,1.4,0,0,0-1.972.172,1.644,1.644,0,0,0-.322,1.022q-.116,2.853-.231,5.706a1.394,1.394,0,0,0,.494.951,1.4,1.4,0,0,0,1.972-.173,1.646,1.646,0,0,0,.322-1.021l.23-5.706a1.391,1.391,0,0,0-.494-.95" transform="translate(-256.086 -196.317)" fill="#ffa506"/>
        <path id="Trazado_209364" data-name="Trazado 209364" d="M610.763,446.274a1.4,1.4,0,0,0-2.519.556q-.206,2.906-.412,5.811a1.525,1.525,0,0,0,.235,1.062,1.4,1.4,0,0,0,2.519-.556q.206-2.906.412-5.811a1.525,1.525,0,0,0-.235-1.062" transform="translate(-267.522 -196.164)" fill="#ffa506"/>
        <path id="Trazado_209365" data-name="Trazado 209365" d="M482.007,166.636s6.395,19.327,5.653,23.782-23.19,22.891-23.19,22.891l13.381,115.439H423.743l6.544-132.683s-2.531-27.347,0-34.183,9.068-12.668,16.646-9.161c0,0,3.864-7.821,11.891,0,0,0,4.9-4.064,7.727-3.472s6.245,3.472,6.245,3.472,2.523-2.88,7.136-1.241,3.265,11.592,2.074,15.156" transform="translate(-186.503 -65.663)" fill="#ffca5f"/>
        <path id="Trazado_209366" data-name="Trazado 209366" d="M469.213,178.629a3.216,3.216,0,0,1-4.361-1.965c-.646-1.845-.3-4.031-.121-5.928a68.479,68.479,0,0,1,2.548-13.013c.261-.88-1.144-1.128-1.4-.258a67.277,67.277,0,0,0-2.748,15.662,13.022,13.022,0,0,0,.136,3.067,5.093,5.093,0,0,1-5.025,2,5.953,5.953,0,0,1-4.209-4.258,17.641,17.641,0,0,1-.258-7.594,36.138,36.138,0,0,1,1.843-7.671c.309-.858-.979-1.473-1.289-.61a37.51,37.51,0,0,0-2.069,9.028,21.03,21.03,0,0,0,.092,5.957.611.611,0,0,0-.151.352c-.042.441-.675.562-1.028.668a10.717,10.717,0,0,1-1.97.418,4.439,4.439,0,0,1-3.5-.973c-2.014-1.761-2.183-4.673-2.343-7.153a.713.713,0,0,0-1.42.124c.2,3.107.612,6.728,3.471,8.588a6.3,6.3,0,0,0,4.647.727,7.2,7.2,0,0,0,2.811-.929c.107.276.217.551.351.818a6.846,6.846,0,0,0,5.373,3.99,6.566,6.566,0,0,0,5.2-1.9,4.786,4.786,0,0,0,.671,1.033,4.639,4.639,0,0,0,5.252,1.156c.843-.355.352-1.694-.5-1.336" transform="translate(-194.507 -69.067)" fill="#efa835"/>
        <path id="Trazado_209367" data-name="Trazado 209367" d="M500.261,169.083q-3.853.175-7.7.411a.688.688,0,0,0,.054-.118,43.184,43.184,0,0,0,1.077-11.934c-.044-.917-1.464-.791-1.42.124a41.8,41.8,0,0,1-1.059,11.552.621.621,0,0,0,.06.454c-.575.036-1.151.067-1.725.1q-2.722.179-5.44.386-1.228.094-2.456.193a6.524,6.524,0,0,0-2.2.34c-2.319,1.076-.489,5.071.326,6.6a14.141,14.141,0,0,0,5.071,5.37,13.016,13.016,0,0,0,4.029,1.629c.38.083.752.071.986.38a4.229,4.229,0,0,1,.356,1.533q.206,1.085.412,2.169a25.439,25.439,0,0,0-13.193,1.752,16.977,16.977,0,0,0-8.581,8.321.713.713,0,0,0,1.288.61,15.536,15.536,0,0,1,8.035-7.7,24.832,24.832,0,0,1,13.2-1.46c.415.054.931-.282.839-.764-.293-1.541-.523-3.112-.887-4.638-.292-1.226-1.236-1.38-2.32-1.628a12.169,12.169,0,0,1-6.272-3.789,12.366,12.366,0,0,1-1.991-3.01,7.975,7.975,0,0,1-.958-3.469c.049-.9,1.137-.752,1.813-.807q1.314-.107,2.63-.208,2.456-.187,4.913-.351,5.617-.375,11.242-.628c.917-.041.791-1.462-.124-1.42" transform="translate(-206.327 -69.019)" fill="#efa835"/>
        <path id="Trazado_209368" data-name="Trazado 209368" d="M465.169,255.817c-4.668,1.034-9.451,1.748-13.718,4.03-.807.431.023,1.592.824,1.163,4.023-2.152,8.619-2.8,13.018-3.774.883-.2.77-1.619-.124-1.42" transform="translate(-198.553 -112.585)" fill="#efa835"/>
        <path id="Trazado_209369" data-name="Trazado 209369" d="M471.888,267.436a54.228,54.228,0,0,0-11.1.648c-.9.146-.783,1.568.124,1.42a54.232,54.232,0,0,1,11.1-.648.717.717,0,0,0,.648-.772.73.73,0,0,0-.772-.648" transform="translate(-202.536 -117.684)" fill="#efa835"/>
        <path id="Trazado_209370" data-name="Trazado 209370" d="M477.27,110.819c-.022-1.081-1.7-.931-1.674.146l.306,14.627c.024,1.081,1.7.931,1.674-.146Z" transform="translate(-209.325 -48.449)" fill="#f9c662"/>
        <path id="Trazado_209371" data-name="Trazado 209371" d="M448.817,138.164l-5.6-5.763a.845.845,0,0,0-1.183.1.86.86,0,0,0,.1,1.184l5.6,5.763a.845.845,0,0,0,1.183-.1.859.859,0,0,0-.1-1.183" transform="translate(-194.469 -58.187)" fill="#f9c662"/>
        <path id="Trazado_209372" data-name="Trazado 209372" d="M503.328,126.075a.845.845,0,0,0-1.183.1l-3.735,5.6a.865.865,0,0,0,.1,1.183.846.846,0,0,0,1.183-.1l3.735-5.6a.865.865,0,0,0-.1-1.183" transform="translate(-219.285 -55.405)" fill="#f9c662"/>
        <path id="Trazado_209373" data-name="Trazado 209373" d="M477.854,408.264H423.742l.314-8.454.106-2.867,2.016-54.145.106-2.788.375-10.156,6.875.151,3.074.073,22.557.5,3.23.073,8.622.19.655,7.4.437,4.938,1.053,11.976.319,3.6.924,10.419.258,2.956.526,5.963.274,3.074,2.379,26.958Z" transform="translate(-186.502 -145.179)" fill="#36cec3"/>
        <path id="Trazado_209374" data-name="Trazado 209374" d="M490.7,387.769a44.259,44.259,0,0,1-14.792,5.016,20.91,20.91,0,0,1-9.652-.454,11.16,11.16,0,0,1-6.567-5.755c-2.833-5.716-.812-12.328,2.922-17.087,4.356-5.548,10.682-8.93,15.895-13.543a36.1,36.1,0,0,0,8.4-11.1l.437,4.938a40.373,40.373,0,0,1-7.609,8.784c-4.955,4.283-10.889,7.5-14.982,12.726-3.208,4.081-5.095,10.055-2.144,14.831,3.242,5.252,10.3,4.541,15.508,3.432a40.307,40.307,0,0,0,12.306-4.86Z" transform="translate(-201.736 -151.777)" fill="#129b8e"/>
        <path id="Trazado_209375" data-name="Trazado 209375" d="M504.465,392.029c-.3.14-.6.269-.9.392-2.7,1.109-6.024,2.357-8.919,1.338-3-1.058-3.9-4.35-2.637-7.094a12.431,12.431,0,0,1,2.693-3.46q1.772-1.747,3.538-3.494l4.725-4.658.319,3.6c-.935.918-1.864,1.842-2.8,2.76-1.053,1.041-2.105,2.077-3.158,3.118a15.246,15.246,0,0,0-2.519,2.816,3.049,3.049,0,0,0-.386,2.85,2.625,2.625,0,0,0,2.239,1.148,11.176,11.176,0,0,0,3.908-.806,29.814,29.814,0,0,0,3.544-1.422c.034-.017.062-.028.1-.045Z" transform="translate(-216.305 -165.073)" fill="#129b8e"/>
        <path id="Trazado_209376" data-name="Trazado 209376" d="M479.768,416.248H476.9a12.309,12.309,0,0,0-3.8-5.268c-3.09-2.559-7.144-3.583-11.035-4.149-7.547-1.092-15.609-.588-22.26-4.916a14.869,14.869,0,0,1-6.142-7.525c-1.249-3.757-.56-7.721.767-11.349,1.338-3.667,3.426-6.993,4.882-10.609a16.615,16.615,0,0,0,1.041-10.324,15.038,15.038,0,0,0-12.256-11.326l.106-2.788a18.31,18.31,0,0,1,8.678,3.712,17.9,17.9,0,0,1,6.327,10.447,19.664,19.664,0,0,1-1.321,11.365c-1.489,3.734-3.661,7.161-5.011,10.957-1.2,3.359-1.68,7.2.05,10.47a14.34,14.34,0,0,0,7.116,6.1c7.306,3.174,15.671,1.848,23.235,4.014a19.522,19.522,0,0,1,9.557,5.683,13.484,13.484,0,0,1,2.928,5.375Z" transform="translate(-188.417 -153.163)" fill="#129b8e"/>
        <path id="Trazado_209377" data-name="Trazado 209377" d="M439.15,461h-3.23a19.618,19.618,0,0,0-11.617-8.454l.106-2.867A22.389,22.389,0,0,1,439.15,461" transform="translate(-186.749 -197.92)" fill="#129b8e"/>
        <path id="Trazado_209378" data-name="Trazado 209378" d="M470.093,330.773c-1.355,2.01-2.525,4.143-3.919,6.119a17.5,17.5,0,0,1-5.867,5.481,10.2,10.2,0,0,1-8.185.728c-5.722-1.915-8.51-7.625-10.805-12.743a1.972,1.972,0,0,1-.084-.235l3.074.073a29.047,29.047,0,0,0,4.02,6.931,10.389,10.389,0,0,0,5.694,3.606,7.922,7.922,0,0,0,6.315-1.68c2.889-2.144,4.652-5.308,6.528-8.353Z" transform="translate(-194.2 -145.298)" fill="#129b8e"/>
        <path id="Trazado_209379" data-name="Trazado 209379" d="M345.085,114.815c-1.989,4.619-8.811,18.05-8.811,18.05l4.27,157.571h-58.65l20.2-156.893s-22.913-17.644-22.913-22.064c0-3.643-2.309-22.791-3.13-29.464A6.1,6.1,0,0,1,277.1,77.8l10.821-15.569s7.778-1.8,5.226,10.879c0,0,7.942-5.119,10.23,3.193,0,0,4.32-8.633,12.147-2.452,0,0,1.6-4.534,6.081-4.37s6.181,5.653,6.181,5.653,9.111-1.226,10.765,7.136c0,0,4.683,3.978,4.683,9.659s3.843,18.272,1.854,22.884" transform="translate(-121.48 -27.352)" fill="#994c19"/>
        <path id="Trazado_209380" data-name="Trazado 209380" d="M348.5,92.38a.767.767,0,0,0-1.527.134,25.111,25.111,0,0,1-1.764,12.114,6.559,6.559,0,0,1-3.467,3.8,5.56,5.56,0,0,1-4.894-.475.755.755,0,0,0-.074-.036,28.138,28.138,0,0,0,1.512-8.129,48.792,48.792,0,0,0-1.062-14.892c-.217-.958-1.653-.417-1.438.535a46.924,46.924,0,0,1,1.127,11.738,45.33,45.33,0,0,1-.583,5.958,17.657,17.657,0,0,1-1.346,4.954,5.415,5.415,0,0,1-3.884,3.2,4.1,4.1,0,0,1-3.841-2.019,10.174,10.174,0,0,1-1.372-5.111c-.133-1.979-.193-3.964-.284-5.945q-.318-6.886-.637-13.773c-.045-.986-1.573-.851-1.528.134l.655,14.156c.1,2.134.118,4.293.343,6.419a.71.71,0,0,0-.134.226,4.182,4.182,0,0,1-5.937,2.49c-2.1-1.131-3.028-3.814-3.69-5.946-1.582-5.1-1.5-10.556-1.432-15.844.012-.986-1.516-.845-1.528.134-.059,4.778-.113,9.761,1.014,14.451a.578.578,0,0,0-.144.208,8.661,8.661,0,0,1-.417.966q-.118.234-.253.461a2.564,2.564,0,0,1-.138.227l0,.005c-.027.04-.054.081-.082.121a8.494,8.494,0,0,1-.648.829q-.175.2-.362.382c-.056.056-.112.114-.172.166l0,0-.132.115a.972.972,0,0,0-.233.324,21.843,21.843,0,0,0-7.5-.889,15.654,15.654,0,0,0-3.137-8.953c-.418-.549-1.5-1.358-1.38-2.1a5.856,5.856,0,0,1,.693-1.464l.681-1.356,2.982-5.934c.444-.884-.944-1.537-1.387-.656l-3.067,6.1c-.753,1.5-2.151,3.3-.945,4.91.518.693,1.136,1.3,1.626,2.018a13.856,13.856,0,0,1,1.376,2.571,14.478,14.478,0,0,1,1.049,5.741.773.773,0,0,0,.831.7,20.391,20.391,0,0,1,19.335,9.662c.516.841,1.767-.046,1.252-.886a21.541,21.541,0,0,0-3.327-4.148c.14.028.281.053.426.069a5.684,5.684,0,0,0,5.218-2.265,8.117,8.117,0,0,0,1.474,3.014,5.53,5.53,0,0,0,8.529.321,8.158,8.158,0,0,0,1.241-1.638.887.887,0,0,0,.087.065,7.026,7.026,0,0,0,5.519.709,7.35,7.35,0,0,0,4.418-3.8c2.214-4.1,2.784-9.287,2.37-13.867m-36.82,12.6a9.523,9.523,0,0,0,1.669-2.145c.24.719.511,1.43.822,2.13a12.787,12.787,0,0,0,.852,1.6,22.091,22.091,0,0,0-3.343-1.588" transform="translate(-130.545 -36.392)" fill="#702c07"/>
        <path id="Trazado_209381" data-name="Trazado 209381" d="M350.256,189.711a51.243,51.243,0,0,0-14.845.6c-.961.181-.837,1.711.133,1.528a49.849,49.849,0,0,1,14.435-.615c.977.1,1.259-1.406.277-1.509" transform="translate(-147.334 -83.373)" fill="#702c07"/>
        <path id="Trazado_209382" data-name="Trazado 209382" d="M296.316,63.744a.773.773,0,0,0-.893.616,6.827,6.827,0,0,1-5.386,6.315.771.771,0,0,0-.451.986.786.786,0,0,0,.986.451,8.384,8.384,0,0,0,6.36-7.475.791.791,0,0,0-.616-.893" transform="translate(-127.437 -28.051)" fill="#702c07"/>
        <path id="Trazado_209383" data-name="Trazado 209383" d="M335.319.74c-.032-1.081-1.705-.931-1.673.146q.452,15.1.9,30.2c.032,1.081,1.705.931,1.673-.147L335.319.74" transform="translate(-146.848 0)" fill="#f9c662"/>
        <path id="Trazado_209384" data-name="Trazado 209384" d="M290.2,43.077,280.958,27.7c-.557-.927-1.926.047-1.371.971l9.24,15.373c.557.927,1.927-.047,1.371-.971" transform="translate(-122.998 -12.029)" fill="#f9c662"/>
        <path id="Trazado_209385" data-name="Trazado 209385" d="M262.355,75.395l-11.045-5.3a.841.841,0,0,0-.718,1.519l11.045,5.3a.841.841,0,0,0,.718-1.519" transform="translate(-110.089 -30.81)" fill="#f9c662"/>
        <path id="Trazado_209386" data-name="Trazado 209386" d="M255.455,108.083l-7.308-.842a.861.861,0,0,0-.978.675.848.848,0,0,0,.674.978l7.308.841a.86.86,0,0,0,.978-.674.847.847,0,0,0-.674-.978" transform="translate(-108.782 -47.197)" fill="#f9c662"/>
        <path id="Trazado_209387" data-name="Trazado 209387" d="M376.681,22.511l-6.948,17.548c-.4,1,1.12,1.724,1.519.718L378.2,23.229c.4-1-1.12-1.724-1.519-.718" transform="translate(-162.702 -9.695)" fill="#f9c662"/>
        <path id="Trazado_209388" data-name="Trazado 209388" d="M404.019,50.444a.845.845,0,0,0-1.171-.2l-10.5,9.572a.867.867,0,0,0-.2,1.171.844.844,0,0,0,1.171.2l10.5-9.572a.868.868,0,0,0,.2-1.171" transform="translate(-172.531 -22.043)" fill="#f9c662"/>
        <path id="Trazado_209389" data-name="Trazado 209389" d="M412.3,90.038l-10.9,2.174a.864.864,0,0,0-.764.91.846.846,0,0,0,.91.764l10.9-2.174a.865.865,0,0,0,.764-.91.845.845,0,0,0-.91-.764" transform="translate(-176.334 -39.623)" fill="#f9c662"/>
        <path id="Trazado_209390" data-name="Trazado 209390" d="M302.535,210.9h41.089l1.547,145.007h-58.65Z" transform="translate(-126.107 -92.824)" fill="#e84b78"/>
        <path id="Trazado_209391" data-name="Trazado 209391" d="M353.255,222.8l-29.232.322-8.353.092c-1.081.012-.929,1.685.147,1.673l29.232-.321,5.247-.058a.944.944,0,0,0-.018.19q.063,26.447.125,52.895.062,26.307.124,52.615.035,14.833.071,29.666c0,1.081,1.676.928,1.673-.147q-.062-26.447-.125-52.895-.063-26.307-.125-52.615l-.07-29.666c0-.022-.005-.041-.007-.062l1.457-.016c1.081-.012.93-1.685-.146-1.673" transform="translate(-138.611 -98.061)" fill="#fff"/>
        <path id="Trazado_209392" data-name="Trazado 209392" d="M61.117,283.311l9.218,76.5H28.417L30.8,279.746S14,256.413,14.152,251.508s1.041-24.972,3.864-26.754,16.054-6.987,19.027-4.164c0,0,2.074-1.633,5.2,4.755,0,0,7.286-5.8,10.85-.3,0,0,9.517-3.565,13.68,10.707s5.5,21.843,1.483,28.829-7.136,18.728-7.136,18.728" transform="translate(-6.228 -96.727)" fill="#ff9f50"/>
        <path id="Trazado_209393" data-name="Trazado 209393" d="M62.826,269.7c-.1.042-.052.025,0,0" transform="translate(-27.626 -118.702)" fill="#e58033"/>
        <path id="Trazado_209394" data-name="Trazado 209394" d="M70.219,236.809a.713.713,0,0,0-1.42.124c.215,3.117.45,6.423-.656,9.411-.435,1.175-1.209,2.952-2.692,2.978-1.574.027-2.485-1.629-2.977-2.886a25.059,25.059,0,0,1,.244-18.355c.345-.849-.943-1.461-1.289-.61a26.842,26.842,0,0,0-1.093,16.988,11.877,11.877,0,0,0,2.217,4.921.61.61,0,0,0-.04.055c-1.06,2.367-3.859,3.93-6.314,2.508-1.942-1.126-2.609-3.627-3.012-5.678a56.943,56.943,0,0,1-.672-17.409c.1-.909-1.3-1.17-1.4-.258a59.374,59.374,0,0,0-.289,10.375,44.174,44.174,0,0,0,1.3,9,.6.6,0,0,0-.246.187c-.059.079-.121.156-.188.229-.031.034-.062.068-.095.1l-.04.036a4.313,4.313,0,0,1-.408.311l-.118.072-.028.013.035-.015c-.085.034-.166.081-.251.116a3.333,3.333,0,0,1-.467.148,3.453,3.453,0,0,1-.5.063.592.592,0,0,0-.221.062,13.693,13.693,0,0,0-4.388-2.74,14.068,14.068,0,0,1-2.392-5.9c-.516-2.382-.934-4.784-1.278-7.2a16.083,16.083,0,0,0,5.931-10.148c.132-.908-1.27-1.167-1.4-.258a14.7,14.7,0,0,1-9.621,11.625.628.628,0,0,0-.441.692.615.615,0,0,0-.1.45l1.224,8.341c.145.986.221,1.809,1.3,2.109,1.245.346,2.557.48,3.812.807a14.389,14.389,0,0,1,6.38,3.23c1.812,1.718,2.58,4.1,3.305,6.42.274.875,1.61.378,1.337-.5a18.358,18.358,0,0,0-2.55-5.694,4.1,4.1,0,0,0,1.892-1.059c.825,2.078,2.288,3.924,4.626,4.335a6.123,6.123,0,0,0,6.452-3.534,3.972,3.972,0,0,0,.931.361c2.673.665,4.247-1.968,4.964-4.117,1.044-3.125.861-6.476.637-9.714M41.55,245.445c-.584-.133-1.171-.252-1.759-.364-.213-.041-.785-.036-.963-.179-.267-.215-.228-.548-.274-.863q-.6-4.089-1.2-8.179a15.445,15.445,0,0,0,2.888-1.46c.343,2.284.752,4.558,1.254,6.812a18.589,18.589,0,0,0,1.554,4.619c-.5-.14-1-.272-1.5-.387" transform="translate(-15.801 -97.924)" fill="#e58033"/>
        <path id="Trazado_209395" data-name="Trazado 209395" d="M44.311,221.782a9.766,9.766,0,0,1-3.319,1.781,8.4,8.4,0,0,1-1.774.349c-.451.037-1.051.024-1.2-.484-.265-.878-1.6-.38-1.337.5.545,1.806,2.816,1.475,4.212,1.138a10.787,10.787,0,0,0,4.246-2.117c.708-.576-.11-1.745-.824-1.164" transform="translate(-16.127 -97.544)" fill="#e58033"/>
        <path id="Trazado_209396" data-name="Trazado 209396" d="M73.965,319.275a53.257,53.257,0,0,0-15.553,6.454c-.782.48.044,1.643.825,1.164a52.1,52.1,0,0,1,15.226-6.281c.89-.212.387-1.547-.5-1.336" transform="translate(-25.57 -140.513)" fill="#e58033"/>
        <path id="Trazado_209397" data-name="Trazado 209397" d="M74.1,331.636l-7.445,1.1c-.9.134-.785,1.555.124,1.42l7.445-1.1c.9-.134.785-1.555-.124-1.42" transform="translate(-29.062 -145.959)" fill="#e58033"/>
        <path id="Trazado_209398" data-name="Trazado 209398" d="M55.668,171.288v21.168c0,1.08,1.673.928,1.673-.146V171.143c0-1.081-1.673-.928-1.673.146" transform="translate(-24.501 -75)" fill="#f9c662"/>
        <path id="Trazado_209399" data-name="Trazado 209399" d="M29.251,200.334q-1.556-4.981-3.112-9.961c-.322-1.031-1.9-.445-1.575.586l3.112,9.961c.322,1.031,1.9.445,1.574-.586" transform="translate(-10.792 -83.551)" fill="#f9c662"/>
        <path id="Trazado_209400" data-name="Trazado 209400" d="M6.829,216.65l-5.454-5.441a.847.847,0,0,0-1.183.1A.859.859,0,0,0,.3,212.5l5.454,5.441a.846.846,0,0,0,1.183-.1.858.858,0,0,0-.1-1.183" transform="translate(0 -92.873)" fill="#f9c662"/>
        <path id="Trazado_209401" data-name="Trazado 209401" d="M80.919,188.849q-1.245,5.914-2.49,11.828a.841.841,0,0,0,1.653.3q1.245-5.915,2.49-11.829a.84.84,0,0,0-1.652-.3" transform="translate(-34.51 -82.829)" fill="#f9c662"/>
        <path id="Trazado_209402" data-name="Trazado 209402" d="M100.954,201.8a.858.858,0,0,0-1.119.4l-3.808,6.494a.847.847,0,0,0,.4,1.119.858.858,0,0,0,1.118-.4l3.809-6.494a.847.847,0,0,0-.4-1.119" transform="translate(-42.226 -88.782)" fill="#f9c662"/>
        <path id="Trazado_209403" data-name="Trazado 209403" d="M81.55,414.857H39.632V344.834h37.03l.431,6.215.123,1.685,1.433,20.558.118,1.674.728,10.442.118,1.68,1.114,15.973.118,1.674Z" transform="translate(-17.444 -151.772)" fill="#36cec3"/>
        <path id="Trazado_209404" data-name="Trazado 209404" d="M77.216,357.619l-2.749.672q-17.418,4.249-34.835,8.5v-1.719q3.191-.781,6.383-1.556,15.536-3.8,31.078-7.586Z" transform="translate(-17.443 -156.658)" fill="#ffcf36"/>
        <path id="Trazado_209405" data-name="Trazado 209405" d="M78.767,397.338l-5.448.2q-16.846.613-33.687,1.232v-1.68c1.8-.067,3.6-.129,5.4-.2q16.8-.621,33.615-1.232Z" transform="translate(-17.443 -174.144)" fill="#ffcf36"/>
        <path id="Trazado_209406" data-name="Trazado 209406" d="M79.612,418.984l-7.138.924-32.842,4.249v-1.7c.168-.017.33-.039.5-.062q19.685-2.545,39.364-5.095Z" transform="translate(-17.443 -183.669)" fill="#ffcf36"/>
        <path id="Trazado_209407" data-name="Trazado 209407" d="M80.844,449.557l-5.135-.151q-18.039-.529-36.078-1.064v-1.668l5.784.168,35.31,1.041Z" transform="translate(-17.443 -196.595)" fill="#ffcf36"/>
        <path id="Trazado_209408" data-name="Trazado 209408" d="M211.654,157.091c5.225,4.955,1.312,27.254,0,30.326S188.941,211.2,188.941,211.2l6.147,116.13H141.877l12.974-120.094s-8.619-33.691-6.737-39.836,9.218-18.628,16.646-12.882c0,0,4.163-7.207,10.508-1.475,0,0,5.546-8.234,11.884-.507,0,0,4.363-4.94,9.909-1.233,0,0,1.39-5.8,5.154-5.3s4.214,6.138,9.439,11.093" transform="translate(-62.445 -64.245)" fill="#f29e8b"/>
        <path id="Trazado_209409" data-name="Trazado 209409" d="M208.238,169.8a11.619,11.619,0,0,1-2.44-11.3c.288-.862-1-1.479-1.289-.61a13.033,13.033,0,0,0,2.374,12.5,25,25,0,0,0-3.51,8.441.733.733,0,0,0-.277-.058,52.863,52.863,0,0,0-7.433.456,26.715,26.715,0,0,1,.794-20.18.713.713,0,0,0-1.289-.61,28.19,28.19,0,0,0-1.2,20.217c-4.094,2.152-8.646-.956-10.22-4.779-1.938-4.708-.626-9.848.8-14.5.269-.876-1.137-1.125-1.4-.258-1.634,5.314-2.957,11.286-.161,16.464.036.067.081.128.119.194a4.483,4.483,0,0,1-4.123,3.1,4.885,4.885,0,0,1-4.53-3.451,21.29,21.29,0,0,1-1.133-6.438,32.831,32.831,0,0,1,.452-7.5.713.713,0,0,0-1.4-.258,34.348,34.348,0,0,0-.38,9.075,20.225,20.225,0,0,0,1.171,5.734c-.482,2.593-3.509,3.473-5.7,2.484-2.733-1.231-3.868-4.215-4.161-7.012a.713.713,0,0,0-1.42.124c.363,3.453,1.954,7.122,5.457,8.372a5.666,5.666,0,0,0,4.551-.226,5.229,5.229,0,0,0,2.171-2.08,5.9,5.9,0,0,0,10.006-.541,9.755,9.755,0,0,0,5.194,3.322,53.8,53.8,0,0,0-15.017,6.428c-.779.486.046,1.649.824,1.164a52.346,52.346,0,0,1,28.153-7.886.6.6,0,0,0,.39-.133.705.705,0,0,0,1.056-.467,23.2,23.2,0,0,1,3.382-8.4.873.873,0,0,0,.149-.543.568.568,0,0,0,.04-.851" transform="translate(-71.247 -69.31)" fill="#db7767"/>
        <path id="Trazado_209410" data-name="Trazado 209410" d="M254.169,155.725c-1.515.261-2.762-1.2-3.544-2.311a9.794,9.794,0,0,1-1.689-4.212c-.133-.9-1.555-.785-1.42.124a11.353,11.353,0,0,0,2.082,5.1c1.068,1.442,2.734,3.056,4.7,2.718a.731.731,0,0,0,.648-.773.718.718,0,0,0-.772-.648" transform="translate(-108.936 -65.395)" fill="#db7767"/>
        <path id="Trazado_209411" data-name="Trazado 209411" d="M198.947,250.177a56.243,56.243,0,0,0-15.114,1.662c-.888.221-.386,1.556.5,1.336a54.942,54.942,0,0,1,14.741-1.578c.915.025.784-1.4-.124-1.42" transform="translate(-80.706 -110.102)" fill="#db7767"/>
        <path id="Trazado_209412" data-name="Trazado 209412" d="M157.411,138.839,151.823,124.2a.841.841,0,0,0-1.575.586l5.589,14.636a.84.84,0,0,0,1.574-.586" transform="translate(-66.102 -54.434)" fill="#f9c662"/>
        <path id="Trazado_209413" data-name="Trazado 209413" d="M135.959,154.773l-14.712-11.1c-.861-.649-1.944.634-1.079,1.287l14.712,11.1c.861.649,1.944-.634,1.079-1.287" transform="translate(-52.75 -63.157)" fill="#f9c662"/>
        <path id="Trazado_209414" data-name="Trazado 209414" d="M139.687,179.895l-9.649-.623a.867.867,0,0,0-.978.674.846.846,0,0,0,.674.978l9.65.623a.867.867,0,0,0,.978-.674.847.847,0,0,0-.675-.978" transform="translate(-56.798 -78.902)" fill="#f9c662"/>
        <path id="Trazado_209415" data-name="Trazado 209415" d="M195.088,379.84H141.872l8.387-96.852.146-1.663,1.388-16.051,40.389,3.314.28,10.671.045,1.691Z" transform="translate(-62.443 -116.755)" fill="#ffcf36"/>
        <path id="Trazado_209416" data-name="Trazado 209416" d="M199.1,291.945q-4.452.9-8.953,1.5a143.056,143.056,0,0,1-33.3.538L157,292.32q3.367.344,6.746.526a141.528,141.528,0,0,0,35.311-2.592Z" transform="translate(-69.035 -127.75)" fill="#e84b78"/>
        <path id="Trazado_209417" data-name="Trazado 209417" d="M220.917,277.43a2.951,2.951,0,0,0-2.8-1.865,2.476,2.476,0,0,0-1.794.792.788.788,0,0,0-.158.143,2.493,2.493,0,0,0-.307.488c-.008.016-.013.032-.021.047a2.56,2.56,0,0,0-.126.308,2.5,2.5,0,0,0-.132.55,2.646,2.646,0,0,0,.253,1.5,3.153,3.153,0,0,0,.228.446,2.559,2.559,0,0,0,3.262.956,2.825,2.825,0,0,0,1.6-3.365" transform="translate(-94.875 -121.285)" fill="#e84b78"/>
      </g>
    </g>
  </g>
</svg>
