<svg xmlns="http://www.w3.org/2000/svg" xmlns:xlink="http://www.w3.org/1999/xlink" width="505" height="275.215" viewBox="0 0 505 275.215">
  <defs>
    <clipPath id="clip-path">
      <rect id="Rect치ngulo_48997" data-name="Rect치ngulo 48997" width="263.563" height="267.617" fill="none"/>
    </clipPath>
  </defs>
  <g id="Grupo_169863" data-name="Grupo 169863" transform="translate(-810 -13862.785)">
    <rect id="Rect치ngulo_48877" data-name="Rect치ngulo 48877" width="505" height="274.795" transform="translate(810 13862.785)" fill="#f55d8b"/>
    <g id="Grupo_169724" data-name="Grupo 169724" transform="translate(930.719 13870.384)">
      <g id="Grupo_169723" data-name="Grupo 169723" clip-path="url(#clip-path)">
        <path id="Trazado_209440" data-name="Trazado 209440" d="M209.081,439.595h58.509a80.789,80.789,0,0,1-1.416-10.778c-1.207-18.913,8.451-41.45,8.451-41.45l-66,8.049c3.56,12.236,2.3,30.389.454,44.179" transform="translate(-92.623 -171.978)" fill="#ff83a4"/>
        <path id="Trazado_209441" data-name="Trazado 209441" d="M209.126,444.026H249.1c7.241-4.609,13.395-8.469,17.074-10.659-.778-12.511,3.139-26.582,5.9-34.725l-42.755-1.294-20.692,2.535c3.563,12.3,2.321,30.412.5,44.143" transform="translate(-92.623 -176.409)" fill="#ef739a"/>
        <path id="Trazado_209442" data-name="Trazado 209442" d="M291.146,387.367l-45.306,5.55,42.755,1.294c1.43-4.214,2.551-6.844,2.551-6.844" transform="translate(-109.145 -171.978)" fill="#ef739a"/>
        <path id="Trazado_209443" data-name="Trazado 209443" d="M360.465,271.216s6.036-15.292,17.3-11.67,15.695,48.29-8.451,47.083-25.352-11.268-25.352-11.268Z" transform="translate(-152.709 -114.983)" fill="#ff83a4"/>
        <path id="Trazado_209444" data-name="Trazado 209444" d="M390.844,283.008c-1.214.145-.411-3.267.011-4.414a4.694,4.694,0,0,1,5.2-3.433c6.037.6,6.64,11.268,3.421,20.725s-9.885,7.57-10.891,6.363-.981-4.15.226-6.766,7.043-2.214,6.64-9.457c-.235-4.225-3.3-3.174-4.6-3.018" transform="translate(-172.197 -122.147)" fill="#ef739a"/>
        <path id="Trazado_209445" data-name="Trazado 209445" d="M271.222,213.733c0,48.007-29.323,86.924-65.495,86.924s-65.495-38.917-65.495-86.924,29.625-74.247,65.8-74.247,65.193,26.24,65.193,74.247" transform="translate(-62.259 -61.927)" fill="#ff83a4"/>
        <path id="Trazado_209446" data-name="Trazado 209446" d="M322.247,292.014c-11.455,0-20.742,9.594-20.742,21.429s9.287,21.429,20.742,21.429a20.1,20.1,0,0,0,7.606-1.493A100.76,100.76,0,0,0,340.671,303.6a20.668,20.668,0,0,0-18.424-11.589" transform="translate(-133.858 -129.644)" fill="#ef739a"/>
        <path id="Trazado_209447" data-name="Trazado 209447" d="M203.379,161.183s22.636-16,36.52-13.581,49.712,17.352,49.712,17.352l-39.148-49.949-30.785-7.546Z" transform="translate(-90.293 -47.709)" fill="#e86d9a"/>
        <path id="Trazado_209448" data-name="Trazado 209448" d="M278.269,205.762s-7.317,20.025-5.006,23.491,11.264,5.2,11.264,5.2,29.749-3.273,32.059-5.2,10.4-19.062,8.087-24.839S307.151,184.2,307.151,184.2l6.932,21.565s-15.4-5.777-21.951-5.391-13.864,5.391-13.864,5.391" transform="translate(-121.119 -81.777)" fill="#ef739a"/>
        <path id="Trazado_209449" data-name="Trazado 209449" d="M349.806,237.625s9.627,10.013,11.168,15.789,2.888-14.441,2.888-14.441l-3.273-21.951-5.969-6.161-3.08,4.814Z" transform="translate(-155.302 -93.615)" fill="#ef739a"/>
        <path id="Trazado_209450" data-name="Trazado 209450" d="M186.148,209.507l23.844,18.813s1.509,16.8,1.811,24.95-3.32,27.767-3.32,27.767l-23.24,2.415-19.317-19.92Z" transform="translate(-73.666 -93.014)" fill="#e86d9a"/>
        <path id="Trazado_209451" data-name="Trazado 209451" d="M282.429,211.017s10.195-5.613,20.866-3.184c9.947,2.264,13.195,6.035,13.884,9.44s-.827-2.488-10.962-4.482-24.764,8.687-26.86,5.506,3.072-7.28,3.072-7.28" transform="translate(-123.803 -92)" fill="#d85d89"/>
        <path id="Trazado_209452" data-name="Trazado 209452" d="M242.082,244.623s1.61,26.963.8,33.4-4.225,16.1-4.225,16.1l4.7-1.816a134.091,134.091,0,0,0,1.938-26.957c-.6-13.482-1.61-26.963-3.219-20.725" transform="translate(-105.957 -107.908)" fill="#d85d89"/>
        <path id="Trazado_209453" data-name="Trazado 209453" d="M321.034,251.484a20.054,20.054,0,0,0-4.285-13.691c-5.188-6.736-14.831-4.643-22.519-.171s-12.268,15.061-12.268,15.061,6.84,4.222,21.9,2.275,17.171-3.474,17.171-3.474" transform="translate(-125.182 -103.655)" fill="#a4608c"/>
        <path id="Trazado_209454" data-name="Trazado 209454" d="M337.759,270.459s2.918,2.444,3.327,3.01-.408,1-1.023.909-3.738-3.071-3.738-3.071Z" transform="translate(-149.317 -120.075)" fill="#995685"/>
        <path id="Trazado_209455" data-name="Trazado 209455" d="M326.857,272.914s2.727,2.654,3.093,3.25-.481.967-1.088.83-3.5-3.342-3.5-3.342Z" transform="translate(-144.451 -121.165)" fill="#995685"/>
        <path id="Trazado_209456" data-name="Trazado 209456" d="M347.07,266.572s3.3,1.9,3.8,2.388-.228,1.056-.85,1.073-4.214-2.376-4.214-2.376Z" transform="translate(-153.526 -118.349)" fill="#995685"/>
        <path id="Trazado_209457" data-name="Trazado 209457" d="M322.507,262.2s-12.826,5.407-22.845,5.291a52.411,52.411,0,0,1-17.076-2.914s-1.435,6.131,19.076,5.217c14.364-.64,26.312-6.5,20.845-7.595" transform="translate(-125.449 -116.407)" fill="#995685"/>
        <path id="Trazado_209458" data-name="Trazado 209458" d="M140.045,420.4c.619-4.633-.336-9.188-4.538-12.5-12.878-10.155-4.787-26.141-4.787-26.141l-.846-1.076s-12.273,3.914-26.549,8.983l-1.254-9.619L37.178,344.123S34.16,366.76,23.9,381.85c-4.142,6.091-.378,24.223,3.507,38.545Z" transform="translate(-9.809 -152.779)" fill="#fff"/>
        <path id="Trazado_209459" data-name="Trazado 209459" d="M141.219,130.552c7.695-13.011,18.178-24.429,26.968-32.762,9.443,7.285,23.428,16.639,39.432,22.7,16.507,6.254,20.926,24.145,21.329,36.62.349,10.827-.138,26.963-4.48,52.079-5.33,12.469-12.906,23.024-22.011,30.673-2.4,7.667-5.118,18.683-5,29.013q.019,1.27.1,2.524a80.789,80.789,0,0,0,1.416,10.778h79.848c-3.2-12.231-4.964-28.074,1.636-40.96,12.676-24.749,6.841-66-5.232-88.935s-21.932-56.541-21.932-56.541C250.276,81.859,217.68,40.812,206.211,39c-5.357-.846-12.03.548-17.622,2.272A7.159,7.159,0,0,0,187.5,39.6c-7.243-8.049-35.413-9.256-50.3-2.012S85.685,68.579,78.441,85.078s-24.364,90.052-24.364,90.052,65.009-7.153,87.142-44.579m97.416,35.861c.45-1.486,1.118-3.71,1.926-6.473a10.368,10.368,0,0,1,8.508-.816c11.267,3.622,15.695,48.291-8.451,47.084-2.284-.114-4.355-.31-6.246-.567a219.1,219.1,0,0,1,4.264-39.228" transform="translate(-24.008 -14.562)" fill="#fff"/>
        <path id="Trazado_209460" data-name="Trazado 209460" d="M84.29,453.894c7.706-11.06,15.545-22.712,15.545-22.712L39.459,419.574,7.517,453.894Z" transform="translate(-3.337 -186.277)" fill="#ff83a4"/>
        <path id="Trazado_209461" data-name="Trazado 209461" d="M61.1,256.871a24.351,24.351,0,0,1-28.189-17.2c-2.125-7.482-4.2-16.854-4.2-24.969-.016-16.67-.7-52.473-2.322-58.627s-10.943-29.8-14.929-43.229S4.37,86.851,10.264,85.074s9.69,5.12,10.828,9.427,4.914,13.621,6.993,19,5.566,12.352,7.184,15.984,5.973,13.89,9.142,14.26,6.492-3.251,6.42-4.767-1.565-16.445-2.6-20.633S46.887,80.3,47.217,71.583s-1.125-24.057,9.24-24.271,7.31,23.52,7.985,29.815,2.951,32.351,3.713,39.39.205,11.574,3.4,13.693,6.364-1.242,7.237-3.337.4-13.418,5.116-33.239,9.236-45.882,11.169-50.2,4.169-6.367,9.063-7.221,7.476,5.046,6.973,13.663-2.128,33.473-3.434,38.5-4.85,24.831-6.418,33.29S97.676,133.584,99.513,135s7.549-2.433,12.223-14.638S128.2,85.516,130.593,79.618s6.648-26.33,16.377-26.047,5.944,17.518,1.769,32.444-11.524,31.128-15.348,41.573-8.576,29.046-9.269,38.883-.024,23.537,2.442,27.055,7.9,8.054,12.2,6.917,16.127-7.227,27.283-15.66,27.069-11.319,34.642-6.737,9.93,7.689,3.088,11.691-15.661,6.331-26.849,16.307S156.241,224.892,151.5,231.85s-29.908,25.536-44.965,30.83-24.511,4.343-34.446-5.027c-2.375-2.24-6.369-1.7-10.986-.782" transform="translate(-3.103 -16.042)" fill="#ff99b9"/>
        <path id="Trazado_209462" data-name="Trazado 209462" d="M20.959,181.1a11.237,11.237,0,0,1,5.719-3.8c3.578-.9,5.281-1.4,5.281-1.4s-2.283.949-4.959,2.012a45.856,45.856,0,0,0-6.041,3.18" transform="translate(-9.305 -78.095)" fill="#f28fb7"/>
        <path id="Trazado_209463" data-name="Trazado 209463" d="M33.334,214.182s1.8-3.084,4.971-3.437a16.463,16.463,0,0,0,6.363-2.563s.606,1.1-4.075,2.608-5.412,1.433-7.259,3.392" transform="translate(-14.799 -92.426)" fill="#f28fb7"/>
        <path id="Trazado_209464" data-name="Trazado 209464" d="M48.041,248.326a28.628,28.628,0,0,0,5.714-1.983c2.216-1.178,5.037-5.411,6.216-5.754a9.588,9.588,0,0,0-4.527,3.13c-2.139,2.542-4.121,2.692-6.661,3.858s-.742.749-.742.749" transform="translate(-21.054 -106.813)" fill="#f28fb7"/>
        <path id="Trazado_209465" data-name="Trazado 209465" d="M80.818,121.771a14.824,14.824,0,0,1,8.151-1.306,52.3,52.3,0,0,0,6.642.84,37.551,37.551,0,0,0-8.158-.185c-3.711.44-6.635.652-6.635.652" transform="translate(-35.88 -53.411)" fill="#f28fb7"/>
        <path id="Trazado_209466" data-name="Trazado 209466" d="M81.982,172.778a14.338,14.338,0,0,0,6.515-.332,24.12,24.12,0,0,0,4.784-1.393s5.379-.57,5.728-.1a17.6,17.6,0,0,0-5.885.789c-2.5.94-10.041,3.847-11.143,1.039" transform="translate(-36.397 -75.815)" fill="#f28fb7"/>
        <path id="Trazado_209467" data-name="Trazado 209467" d="M158.882,100.062s5.865-.854,8.551.07,5.711,2.035,5.711,2.035-5.689-1.472-8.895-1.251a11.263,11.263,0,0,1-5.367-.855" transform="translate(-70.538 -44.264)" fill="#f28fb7"/>
        <path id="Trazado_209468" data-name="Trazado 209468" d="M147.891,155.433a16.873,16.873,0,0,1,6.657-.089c4.165.636,5.6,2.635,7.474,2.232s2.822,1.88,2.822,1.88a62.951,62.951,0,0,1-6.29-1.581c-3.587-1.089-9.512-.928-10.663-2.442" transform="translate(-65.659 -68.852)" fill="#f28fb7"/>
        <path id="Trazado_209469" data-name="Trazado 209469" d="M226.443,124.387s4.792-.755,7.42,1.679,7.545,4.309,7.545,4.309.336-.311-3.673-.53-5.461-3.742-8.361-4.178-2.931-1.279-2.931-1.279" transform="translate(-100.533 -55.174)" fill="#f28fb7"/>
        <path id="Trazado_209470" data-name="Trazado 209470" d="M208.005,167.237s6.376,1.023,9.147,3.949,4.483,2.214,5.838,3.206a20.312,20.312,0,0,1,2.1,1.734,6.19,6.19,0,0,0-4.524-1.989c-3.01-.083-3.475-3.147-6.182-4.385s-6.6-1.065-6.383-2.514" transform="translate(-92.343 -74.248)" fill="#f28fb7"/>
        <path id="Trazado_209471" data-name="Trazado 209471" d="M142.714,210.407s4.5,1.891,6.941,1.5,6.666,2.752,6.666,2.752a10.756,10.756,0,0,0-6.056-1.757c-3.248.2-7.551-2.494-7.551-2.494" transform="translate(-63.36 -93.414)" fill="#f28fb7"/>
        <path id="Trazado_209472" data-name="Trazado 209472" d="M189.789,220.647s1.52.091,4.106,2.75,7.24,2.159,9.439,3.118l2.2.96a6.666,6.666,0,0,0-4.852-2.747c-3.419-.391-5.253-1.564-7.922-3.773s-2.969-.309-2.969-.309" transform="translate(-84.26 -97.623)" fill="#f28fb7"/>
        <path id="Trazado_209473" data-name="Trazado 209473" d="M93.5,219s.569,1.221,4.272-.71,8.009-4.358,9.418-3.914.357-1.7-4.345.092-3.984,5-9.345,4.533" transform="translate(-41.513 -94.891)" fill="#f28fb7"/>
        <path id="Trazado_209474" data-name="Trazado 209474" d="M64.016,276.9a158.569,158.569,0,0,0,21-3.338C96,271.007,114.975,257.805,114.7,253.193a53.738,53.738,0,0,1-22.788,16.231A147.251,147.251,0,0,1,64.016,276.9" transform="translate(-28.421 -112.409)" fill="#f28fb7"/>
        <path id="Trazado_209475" data-name="Trazado 209475" d="M85.985,312.474a181.473,181.473,0,0,1,21.937-17.689c11.439-7.595,22.385-12.487,29.324-14.293a84.9,84.9,0,0,1,9.413-2.1s-13.131,1.049-23.823,6.081S98.778,300.006,93.009,305.1s-7.024,7.376-7.024,7.376" transform="translate(-38.174 -123.597)" fill="#f28fb7"/>
        <path id="Trazado_209476" data-name="Trazado 209476" d="M165.43,283.7s-12.337,2.311-17.427,8.272-18.182,26.193-20.244,35.964-1.842,25.915.344,29.758a14.587,14.587,0,0,0,4.977,5.376s-5.388-3.124-5.033-22.422,9.806-30.793,12.815-36.574,5.021-14.258,24.568-20.374" transform="translate(-56.087 -125.951)" fill="#f28fb7"/>
        <path id="Trazado_209477" data-name="Trazado 209477" d="M207.021,304.841s5.039,12.183,11.582,15.611,9.664,3.159,9.664,3.159a20.718,20.718,0,0,1-8.1-.7c-3.71-1.267-8.861-7.729-9.933-10.19s-3.217-7.879-3.217-7.879" transform="translate(-91.91 -135.339)" fill="#f28fb7"/>
        <path id="Trazado_209478" data-name="Trazado 209478" d="M259.694,335.723s-1.825,2.522-.137,10.277l1.689,7.755a55.111,55.111,0,0,0-1.475-9.95,14.965,14.965,0,0,1-.077-8.082" transform="translate(-114.916 -149.05)" fill="#f28fb7"/>
        <path id="Trazado_209479" data-name="Trazado 209479" d="M284.774,311.489a35.829,35.829,0,0,0,3.621,8.046,25.339,25.339,0,0,0,6.576,6.474s-5.124-4.906-6.924-8.648a47.623,47.623,0,0,0-3.273-5.872" transform="translate(-126.43 -138.291)" fill="#f28fb7"/>
        <path id="Trazado_209480" data-name="Trazado 209480" d="M8.96,302.686S-2.6,292.981,1.167,280.41s9.992-16.1,9.992-16.1,8.79,11.089,8.408,20.646S8.96,302.686,8.96,302.686" transform="translate(-0.184 -117.347)" fill="#ffb6d0"/>
        <path id="Trazado_209481" data-name="Trazado 209481" d="M15.783,306.1s3.155-6.574,3.413-17.372S18.041,272,18.041,272s.05,9.846-.137,17.854A91.4,91.4,0,0,1,15.783,306.1" transform="translate(-7.007 -120.758)" fill="#f2ccd9"/>
        <path id="Trazado_209482" data-name="Trazado 209482" d="M7.387,291.793A6.329,6.329,0,0,0,8.2,297.6c2.047,2.9,5.22,4.41,5.448,6.532s.217,2.283.217,2.283-1.147-3.724-3.755-5.281-4.449-7.436-2.726-9.342" transform="translate(-2.982 -129.546)" fill="#f2ccd9"/>
        <path id="Trazado_209483" data-name="Trazado 209483" d="M23.723,282.4a8.969,8.969,0,0,1-.214,5.769c-1.2,2.877-3.232,4.383-3.264,6.491s-.014,2.268-.014,2.268.554-3.7,2.205-5.248,2.546-7.387,1.287-9.28" transform="translate(-8.98 -125.377)" fill="#f2ccd9"/>
        <path id="Trazado_209484" data-name="Trazado 209484" d="M24.98,300.186a7.124,7.124,0,0,1-1.357,5.356c-1.935,2.466-4.558,3.495-5,5.46s-.454,2.118-.454,2.118,1.349-3.357,3.545-4.5,4.349-6.433,3.267-8.439" transform="translate(-8.066 -133.272)" fill="#f2ccd9"/>
        <path id="Trazado_209485" data-name="Trazado 209485" d="M14.822,274.737a9.147,9.147,0,0,0,.331,5.446c1.121,2.675,2.931,4.021,3.011,6.013s.07,2.144.07,2.144-.575-3.477-2.056-4.878-2.407-6.888-1.356-8.725" transform="translate(-6.381 -121.974)" fill="#f2ccd9"/>
        <path id="Trazado_209486" data-name="Trazado 209486" d="M51.193,41.392S33.574,37.825,30.348,22.531,31.628,0,31.628,0s15.514,6.59,20.56,16.805-1,24.587-1,24.587" transform="translate(-12.957 0)" fill="#ffb6d0"/>
        <path id="Trazado_209487" data-name="Trazado 209487" d="M55.137,44.934s-.445-8.675-6.328-20.117S38.068,7.977,38.068,7.977,43.731,18.249,48.1,26.731a108.85,108.85,0,0,1,7.039,18.2" transform="translate(-16.901 -3.542)" fill="#f2ccd9"/>
        <path id="Trazado_209488" data-name="Trazado 209488" d="M36.824,35.477a7.539,7.539,0,0,0,4.164,5.61c3.792,1.862,7.974,1.639,9.421,3.729s1.529,2.265,1.529,2.265S48.616,43.839,45,43.7s-8.892-5.242-8.176-8.219" transform="translate(-16.32 -15.751)" fill="#f2ccd9"/>
        <path id="Trazado_209489" data-name="Trazado 209489" d="M50.974,15.058a10.679,10.679,0,0,1,3.064,6.157c.383,3.694-.884,6.427.285,8.649S55.6,32.245,55.6,32.245s-1.53-4.186-.683-6.746-1.547-9.178-3.943-10.441" transform="translate(-22.631 -6.685)" fill="#f2ccd9"/>
        <path id="Trazado_209490" data-name="Trazado 209490" d="M64.7,31.436a8.484,8.484,0,0,1,1.632,6.377c-.618,3.682-2.777,6.253-2.119,8.561s.732,2.475.732,2.475-.5-4.281,1.147-6.723.882-9.207-1.392-10.69" transform="translate(-28.456 -13.957)" fill="#f2ccd9"/>
        <path id="Trazado_209491" data-name="Trazado 209491" d="M34.752,13.5a10.9,10.9,0,0,0,3.45,5.508c2.7,2.159,5.357,2.536,6.576,4.573s1.294,2.2,1.294,2.2-2.584-3.308-4.93-3.93S34.7,16.019,34.752,13.5" transform="translate(-15.428 -5.993)" fill="#f2ccd9"/>
        <path id="Trazado_209492" data-name="Trazado 209492" d="M0,73.437s11.015-4.02,18.022,3.387,6.967,12.968,6.967,12.968S14.113,91.414,7.826,87.452,0,73.437,0,73.437" transform="translate(0 -32.12)" fill="#ffb6d0"/>
        <path id="Trazado_209493" data-name="Trazado 209493" d="M0,74.307A35.764,35.764,0,0,0,10.375,83.34a56.11,56.11,0,0,0,11.713,5.706s-6.65-3.783-11.97-7.013A71.022,71.022,0,0,1,0,74.307" transform="translate(0 -32.99)" fill="#f2ccd9"/>
        <path id="Trazado_209494" data-name="Trazado 209494" d="M21.146,83.3a4.918,4.918,0,0,0-4.228-1.7c-2.743.256-4.993,1.805-6.511,1.137S8.785,82,8.785,82s2.953.671,5.012-.482S20.53,81.4,21.146,83.3" transform="translate(-3.9 -35.977)" fill="#f2ccd9"/>
        <path id="Trazado_209495" data-name="Trazado 209495" d="M23.4,94.9a6.965,6.965,0,0,1-3.8-2.38c-1.472-1.924-1.7-3.876-3.106-4.713s-1.522-.889-1.522-.889,2.277,1.807,2.679,3.519S21.639,95.014,23.4,94.9" transform="translate(-6.647 -38.588)" fill="#f2ccd9"/>
        <path id="Trazado_209496" data-name="Trazado 209496" d="M11.8,89.344a5.535,5.535,0,0,1-3.081-2.99c-.911-2.259-.586-4.424-1.739-5.484s-1.251-1.127-1.251-1.127,1.738,2.21,1.653,4.13,2.647,5.422,4.417,5.471" transform="translate(-2.542 -35.403)" fill="#f2ccd9"/>
        <path id="Trazado_209497" data-name="Trazado 209497" d="M31.317,94.238a7.108,7.108,0,0,0-3.8-1.887c-2.235-.282-3.844.415-5.217-.3s-1.47-.784-1.47-.784,2.564.96,4.082.506,5.571,1.049,6.4,2.468" transform="translate(-9.25 -40.518)" fill="#f2ccd9"/>
        <path id="Trazado_209498" data-name="Trazado 209498" d="M408.443,47.268s-8.275-15.958,1.611-28.065S428.4,6.065,428.4,6.065s4.6,16.216-.189,26.554-19.772,14.649-19.772,14.649" transform="translate(-179.895 -2.693)" fill="#ffb6d0"/>
        <path id="Trazado_209499" data-name="Trazado 209499" d="M411.032,51.042s6.476-5.789,11.7-17.548S429.1,14.565,429.1,14.565s-4.446,10.854-8.313,19.576a108.872,108.872,0,0,1-9.759,16.9" transform="translate(-182.484 -6.466)" fill="#f2ccd9"/>
        <path id="Trazado_209500" data-name="Trazado 209500" d="M419.334,30.889a7.539,7.539,0,0,0-1.757,6.762c.928,4.121,3.725,7.238,3.006,9.676s-.805,2.611-.805,2.611.44-4.622-1.716-7.526-1.5-10.214,1.272-11.523" transform="translate(-185.037 -13.714)" fill="#f2ccd9"/>
        <path id="Trazado_209501" data-name="Trazado 209501" d="M437.746,29.058a10.682,10.682,0,0,1-2.872,6.249c-2.637,2.615-5.559,3.343-6.557,5.648s-1.053,2.488-1.053,2.488,2.3-3.817,4.825-4.765,6.177-6.962,5.658-9.62" transform="translate(-189.691 -12.901)" fill="#f2ccd9"/>
        <path id="Trazado_209502" data-name="Trazado 209502" d="M431.577,50.4a8.484,8.484,0,0,1-3.942,5.271c-3.256,1.828-6.612,1.76-8,3.72s-1.467,2.123-1.467,2.123,3.018-3.077,5.954-3.325,7.724-5.089,7.452-7.79" transform="translate(-185.654 -22.378)" fill="#f2ccd9"/>
        <path id="Trazado_209503" data-name="Trazado 209503" d="M434.91,15.446a10.894,10.894,0,0,0-2.125,6.142c.011,3.454,1.386,5.763.564,7.991s-.9,2.39-.9,2.39.956-4.088-.032-6.305.5-8.677,2.5-10.217" transform="translate(-191.838 -6.858)" fill="#f2ccd9"/>
        <path id="Trazado_209504" data-name="Trazado 209504" d="M355.772,7.51s10.873,4.392,11.116,14.585-3.511,14.3-3.511,14.3-9.162-6.079-11.179-13.232S355.772,7.51,355.772,7.51" transform="translate(-156.17 -3.334)" fill="#ffb6d0"/>
        <path id="Trazado_209505" data-name="Trazado 209505" d="M358.888,7.51a35.77,35.77,0,0,0,1.656,13.657,56.12,56.12,0,0,0,4.878,12.081s-2.405-7.263-4.193-13.225A71.029,71.029,0,0,1,358.888,7.51" transform="translate(-159.285 -3.334)" fill="#f2ccd9"/>
        <path id="Trazado_209506" data-name="Trazado 209506" d="M368.141,28.924a4.918,4.918,0,0,0-2-4.1c-2.209-1.646-4.918-2-5.6-3.516s-.71-1.635-.71-1.635,1.744,2.476,4.045,3,5.077,4.424,4.262,6.247" transform="translate(-159.754 -8.736)" fill="#f2ccd9"/>
        <path id="Trazado_209507" data-name="Trazado 209507" d="M361.986,38.475a6.964,6.964,0,0,1-1.23-4.314c.2-2.414,1.334-4.016.85-5.58s-.535-1.679-.535-1.679.481,2.866-.367,4.408-.1,6.07,1.282,7.166" transform="translate(-159.981 -11.944)" fill="#f2ccd9"/>
        <path id="Trazado_209508" data-name="Trazado 209508" d="M355.485,26.577a5.536,5.536,0,0,1-.285-4.284c.836-2.287,2.527-3.678,2.381-5.237s-.174-1.675-.174-1.675-.189,2.805-1.538,4.174-1.665,5.8-.384,7.022" transform="translate(-157.463 -6.829)" fill="#f2ccd9"/>
        <path id="Trazado_209509" data-name="Trazado 209509" d="M368.887,43.285a7.1,7.1,0,0,0-1.555-3.944c-1.472-1.706-3.133-2.266-3.671-3.718s-.567-1.567-.567-1.567,1.262,2.43,2.693,3.109,3.435,4.51,3.1,6.12" transform="translate(-161.202 -15.12)" fill="#f2ccd9"/>
        <path id="Trazado_209510" data-name="Trazado 209510" d="M436.826,147.662s-8.736-7.821-5.505-17.491,8.155-12.256,8.155-12.256,6.555,8.828,6.023,16.24-8.673,13.507-8.673,13.507" transform="translate(-191.173 -52.35)" fill="#ffb6d0"/>
        <path id="Trazado_209511" data-name="Trazado 209511" d="M441.794,150.312a35.769,35.769,0,0,0,3.077-13.408,56.069,56.069,0,0,0-.487-13.02s-.2,7.648-.544,13.862a71.015,71.015,0,0,1-2.046,12.565" transform="translate(-196.142 -55.001)" fill="#f2ccd9"/>
        <path id="Trazado_209512" data-name="Trazado 209512" d="M436.246,138.965a4.919,4.919,0,0,0,.492,4.531c1.519,2.3,3.946,3.553,4.071,5.207s.113,1.779.113,1.779-.8-2.921-2.787-4.194-3.273-5.884-1.888-7.322" transform="translate(-193.421 -61.696)" fill="#f2ccd9"/>
        <path id="Trazado_209513" data-name="Trazado 209513" d="M448.928,132.128a6.967,6.967,0,0,1-.307,4.476c-1,2.2-2.618,3.325-2.694,4.961s-.067,1.761-.067,1.761.52-2.86,1.842-4.021,2.158-5.675,1.227-7.176" transform="translate(-197.947 -58.66)" fill="#f2ccd9"/>
        <path id="Trazado_209514" data-name="Trazado 209514" d="M449.5,146.035a5.534,5.534,0,0,1-1.185,4.126c-1.563,1.868-3.626,2.6-4.018,4.118s-.4,1.634-.4,1.634,1.13-2.574,2.864-3.4,3.535-4.89,2.744-6.474" transform="translate(-197.072 -64.835)" fill="#f2ccd9"/>
        <path id="Trazado_209515" data-name="Trazado 209515" d="M442.435,125.9a7.1,7.1,0,0,0,.124,4.238c.8,2.1,2.177,3.195,2.191,4.744s0,1.667,0,1.667-.362-2.715-1.477-3.839-1.7-5.408-.839-6.809" transform="translate(-196.243 -55.894)" fill="#f2ccd9"/>
        <path id="Trazado_209516" data-name="Trazado 209516" d="M370.437,411.362s4.537,10.812-2.529,18.162-12.624,7.573-12.624,7.573-2.135-10.786,1.525-17.254,13.628-8.481,13.628-8.481" transform="translate(-157.459 -182.631)" fill="#ffb6d0"/>
        <path id="Trazado_209517" data-name="Trazado 209517" d="M372.111,411.362a35.767,35.767,0,0,0-8.531,10.792,56.092,56.092,0,0,0-5.145,11.97s3.464-6.823,6.438-12.289a71,71,0,0,1,7.237-10.473" transform="translate(-159.133 -182.631)" fill="#f2ccd9"/>
        <path id="Trazado_209518" data-name="Trazado 209518" d="M373.649,432.946a4.916,4.916,0,0,0,1.5-4.3c-.386-2.728-2.04-4.9-1.444-6.45s.662-1.655.662-1.655-.53,2.982.718,4.984.433,6.72-1.435,7.425" transform="translate(-165.855 -186.704)" fill="#f2ccd9"/>
        <path id="Trazado_209519" data-name="Trazado 209519" d="M357.514,435.713a6.969,6.969,0,0,1,2.2-3.911c1.852-1.561,3.791-1.88,4.561-3.326s.816-1.562.816-1.562-1.7,2.36-3.388,2.842-4.384,4.2-4.186,5.956" transform="translate(-158.719 -189.535)" fill="#f2ccd9"/>
        <path id="Trazado_209520" data-name="Trazado 209520" d="M361.142,423.857a5.533,5.533,0,0,1,2.841-3.219c2.213-1.017,4.392-.8,5.4-2s1.066-1.3,1.066-1.3-2.125,1.84-4.047,1.847-5.291,2.9-5.256,4.671" transform="translate(-160.335 -185.284)" fill="#f2ccd9"/>
        <path id="Trazado_209521" data-name="Trazado 209521" d="M362.63,443.587a7.105,7.105,0,0,0,1.706-3.881c.176-2.246-.6-3.821.055-5.225s.713-1.506.713-1.506-.837,2.608-.312,4.1-.783,5.615-2.162,6.511" transform="translate(-160.996 -192.226)" fill="#f2ccd9"/>
        <path id="Trazado_209522" data-name="Trazado 209522" d="M398.012,410.183s14.814,1.685,18.576,14.092.556,18.71.556,18.71-13.292-4.335-18.193-12.413-.939-20.389-.939-20.389" transform="translate(-176.033 -182.107)" fill="#ffb6d0"/>
        <path id="Trazado_209523" data-name="Trazado 209523" d="M399.22,410.183s.99,7.137,6.67,16.17S415.972,439.5,415.972,439.5s-5.416-8.081-9.632-14.778a90.315,90.315,0,0,1-7.12-14.537" transform="translate(-177.24 -182.107)" fill="#f2ccd9"/>
        <path id="Trazado_209524" data-name="Trazado 209524" d="M417.726,433.306a6.253,6.253,0,0,0-3.843-4.338c-3.267-1.267-6.706-.783-8.052-2.406s-1.425-1.762-1.425-1.762,2.978,2.441,5.976,2.3,7.723,3.7,7.345,6.206" transform="translate(-179.543 -188.597)" fill="#f2ccd9"/>
        <path id="Trazado_209525" data-name="Trazado 209525" d="M414.14,446.9a8.864,8.864,0,0,1-2.974-4.868c-.581-3.025.27-5.374-.854-7.127s-1.227-1.876-1.227-1.876,1.564,3.349,1.048,5.525,1.936,7.473,4.006,8.345" transform="translate(-181.62 -192.253)" fill="#f2ccd9"/>
        <path id="Trazado_209526" data-name="Trazado 209526" d="M403.335,433.99a7.037,7.037,0,0,1-1.805-5.152c.247-3.087,1.847-5.366,1.138-7.226s-.783-1.992-.783-1.992.722,3.5-.465,5.637-.07,7.672,1.916,8.734" transform="translate(-178.001 -186.297)" fill="#f2ccd9"/>
        <path id="Trazado_209527" data-name="Trazado 209527" d="M423.52,450.649a9.037,9.037,0,0,0-3.246-4.3c-2.383-1.591-4.609-1.712-5.762-3.308s-1.228-1.727-1.228-1.727,2.372,2.549,4.356,2.895,5.742,4.358,5.879,6.445" transform="translate(-183.485 -195.926)" fill="#f2ccd9"/>
        <path id="Trazado_209528" data-name="Trazado 209528" d="M395.684,375.794s1.431-10.576,10.368-13.08,13.4-.114,13.4-.114-3.3,9.447-9.161,12.832-14.606.362-14.606.362" transform="translate(-175.67 -160.525)" fill="#ffb6d0"/>
        <path id="Trazado_209529" data-name="Trazado 209529" d="M395.684,377.934a32.563,32.563,0,0,0,11.674-4.528,51.079,51.079,0,0,0,9.562-7.016s-5.867,3.753-10.724,6.669a64.671,64.671,0,0,1-10.512,4.875" transform="translate(-175.67 -162.665)" fill="#f2ccd9"/>
        <path id="Trazado_209530" data-name="Trazado 209530" d="M412.514,366.733a4.476,4.476,0,0,0-3.163,2.685c-.956,2.319-.663,4.787-1.844,5.726s-1.283.993-1.283.993a7.454,7.454,0,0,0,1.736-4.241c-.055-2.147,2.762-5.471,4.553-5.162" transform="translate(-180.35 -162.808)" fill="#f2ccd9"/>
        <path id="Trazado_209531" data-name="Trazado 209531" d="M422.192,374.311a6.343,6.343,0,0,1-3.529,2.054c-2.174.37-3.842-.275-5.113.5s-1.361.849-1.361.849,2.42-1.069,3.97-.666,5.378-1.272,6.034-2.74" transform="translate(-182.998 -166.181)" fill="#f2ccd9"/>
        <path id="Trazado_209532" data-name="Trazado 209532" d="M412.8,383.369a5.037,5.037,0,0,1-3.715,1.214c-2.205-.224-3.812-1.4-5.154-.924s-1.438.529-1.438.529,2.517-.463,4.027.419,5.49.167,6.28-1.238" transform="translate(-178.692 -170.203)" fill="#f2ccd9"/>
        <path id="Trazado_209533" data-name="Trazado 209533" d="M425.014,364.639a6.467,6.467,0,0,0-3.13,2.257c-1.174,1.681-1.295,3.272-2.455,4.074s-1.255.852-1.255.852,1.86-1.659,2.137-3.073,3.207-4.043,4.7-4.11" transform="translate(-185.655 -161.887)" fill="#f2ccd9"/>
      </g>
    </g>
  </g>
</svg>
