<svg xmlns="http://www.w3.org/2000/svg" xmlns:xlink="http://www.w3.org/1999/xlink" width="610" height="293" viewBox="0 0 610 293">
  <defs>
    <clipPath id="clip-path">
      <rect id="Rect치ngulo_49389" data-name="Rect치ngulo 49389" width="533.745" height="280.607" fill="none"/>
    </clipPath>
  </defs>
  <g id="Grupo_172396" data-name="Grupo 172396" transform="translate(-180 -1444)">
    <rect id="Rect치ngulo_215658" data-name="Rect치ngulo 215658" width="610" height="293" transform="translate(180 1444)" fill="#d9d1c4"/>
    <g id="Grupo_170542" data-name="Grupo 170542" transform="translate(218 1456)">
      <g id="Grupo_170541" data-name="Grupo 170541" clip-path="url(#clip-path)">
        <path id="Trazado_211658" data-name="Trazado 211658" d="M431.986,260.77V213.419l-44.643-21.445-2.626-56.916L368.3,116.424l-33.482-8.6-9.874-16.286S270.483,104.52,262.621,97.7s-11.177-36.508-11.177-36.508l-49.1-4.6L178.753,70.382l-40.777-4.6-33.591,45.757h-8.25l-4.224,11.174-53.834,23.4-4.6,58.437L49.238,209l-1.97,23.865L4.6,249.983,0,283.092l126.707,5.416-2.626,10.34s104.347,12.474,181.507,6.565l4.363-10.367s96.431,5.39,152.235,0l7.382-5.212-31.672-8.342Z" transform="translate(0 -26.395)" fill="#ca5c47"/>
        <path id="Trazado_211659" data-name="Trazado 211659" d="M526.983,471.107c0,5.178-69.738,9.375-155.766,9.375s-155.765-4.2-155.765-9.375,69.738-9.375,155.765-9.375,155.766,4.2,155.766,9.375" transform="translate(-100.483 -215.344)" fill="#ab4b38"/>
        <path id="Trazado_211660" data-name="Trazado 211660" d="M480.619,484.934c0,1.8-14.788,3.262-33.03,3.262s-33.03-1.461-33.03-3.262,14.788-3.263,33.03-3.263,33.03,1.461,33.03,3.263" transform="translate(-193.343 -224.643)" fill="#ca5c47"/>
        <path id="Trazado_211661" data-name="Trazado 211661" d="M213.432,166.9a75.539,75.539,0,0,0,4.994-6.824,17.811,17.811,0,0,0,2.55-5.244,7.417,7.417,0,0,0-.666-5.734l-6.748,1.068q-.122-.725-.244-1.45c4.1-.084,7.406-3.517,11.118-5.428,5.3-2.731,11.427-2.318,17.282-2.5a80.181,80.181,0,0,0,20.414-3.3,14.277,14.277,0,0,0,6.507-3.392c2.228-2.323,3.458-6.179,6.446-6.962,2.136-.561,4.271.753,6.142,2.017l5.814,3.924c.585.395,1.253.981,1.126,1.722-.112.654-.78.973-1.363,1.152a16.935,16.935,0,0,1-7.546.546,6.906,6.906,0,0,0-3.756-.024c-1.288.543-2.088,1.931-2.8,3.233a10.443,10.443,0,0,0-1.669,4.882c0,1.482.617,2.891.708,4.37.271,4.4-3.855,7.455-5.548,11.456-1.512,3.575-1.168,8.2-3.75,10.932-.715-2.078-.049-4.383.517-6.517a68.549,68.549,0,0,0,2.117-12.816c-2.261-.281-4.608-.554-6.768.234-2.636.962-4.607,3.36-6.287,5.791a65.445,65.445,0,0,0-6.646,12.253c-.6,1.454-1.388,3.142-2.827,3.351l8.55-18.633-5.793,3.471a23.823,23.823,0,0,1-6.018,2.882,7.727,7.727,0,0,1-6.367-.836c-1.2-.826-2.392-2.168-3.764-1.793-1.394.383-1.87,2.25-2.142,3.8A83.356,83.356,0,0,1,221.3,181.5c-1.094-2.693.1-5.764,1.029-8.53a47.007,47.007,0,0,0,2.424-14.284c-3.006-.446-5.787,1.817-7.8,4.309a61.74,61.74,0,0,0-4.442,6.584,48.611,48.611,0,0,1-3.244,5.284c-.775.95-1.795,2.429-1.79.4,0-2.566,4.511-6.606,5.958-8.366" transform="translate(-96.762 -59.234)" fill="#9c2622"/>
        <path id="Trazado_211662" data-name="Trazado 211662" d="M338.56,123.1a5.305,5.305,0,0,1,1.324-3,.566.566,0,0,1,.346-.186c.266-.007.424.319.514.594a3.787,3.787,0,0,1,.244,2.119,3.633,3.633,0,0,1-.993,1.49,19.561,19.561,0,0,1-1.713,1.74,6.937,6.937,0,0,1,.277-2.762" transform="translate(-157.734 -55.926)" fill="#9c2622"/>
        <path id="Trazado_211663" data-name="Trazado 211663" d="M324.881,123.712c-.429-.306-.918-.8-.731-1.324a.754.754,0,0,1,.38-.411c.75-.372,1.541.388,2.054,1.1a14.145,14.145,0,0,1,1.962,3.13,20.552,20.552,0,0,1-3.664-2.49" transform="translate(-151.159 -56.842)" fill="#9c2622"/>
        <path id="Trazado_211664" data-name="Trazado 211664" d="M435.714,403.965s6.155,4.319,4.427,8.747-16.737,15.766,3.455,24.62h25.376s21.273-7.235,8.962-30.127c0,0,.648,9.394-9.826,12.958,0,0,19-28.831-15.334-38.334,0,0,8.747,7.991,6.479,14.146s-7.343,5.8-11.8,13.984c0,0-3.213-6.209-11.743-5.993" transform="translate(-202.017 -178.078)" fill="#f3e190"/>
        <path id="Trazado_211665" data-name="Trazado 211665" d="M475.307,449.781s-1.75,8.093-15.662,8.618a78.566,78.566,0,0,0-10.719,7.134c.437-6.561-6.261-13.478-6.261-13.478.477,3.5-3.276,7.35-3.276,7.35-3.1-2.005-3.581-6.245-3.587-8.65-3.475,5.331-5.693,12.353,7.795,18.267h25.376a22.579,22.579,0,0,0,6.755-4.061,22.468,22.468,0,0,0-.42-15.181" transform="translate(-202.017 -209.77)" fill="#ffb157"/>
        <path id="Trazado_211666" data-name="Trazado 211666" d="M451.215,441.27a4.974,4.974,0,0,1-1.62,5.723c-3.023,2.376-8.2,9.61,1.946,13.39h18.031s7.343-2.7,8.963-12.634a17.566,17.566,0,0,1-13.714,6.722s11.122-8.5,2.592-23.216a11.022,11.022,0,0,1-4.166,7.639,23.579,23.579,0,0,0-7.5,12.2s2.408-6.939-4.535-9.827" transform="translate(-207.8 -201.13)" fill="#eb5654"/>
        <path id="Trazado_211667" data-name="Trazado 211667" d="M492.042,477.784s-8.316,2.573-11.643,2.53v2.834h13.408Z" transform="translate(-224.05 -222.83)" fill="#ab4b38"/>
        <path id="Trazado_211668" data-name="Trazado 211668" d="M453.139,483.068s9.156-.028,12.482.015l.348-3.125-14.6-2.255Z" transform="translate(-210.513 -222.793)" fill="#ab4b38"/>
        <path id="Trazado_211669" data-name="Trazado 211669" d="M466.152,473.253s3.362,3.468,5.486,3.425l2.324,4.329-9.757-1.3Z" transform="translate(-216.497 -220.717)" fill="#ab4b38"/>
        <path id="Trazado_211670" data-name="Trazado 211670" d="M478.161,472.948a22.131,22.131,0,0,1-5.251,4.792l.243,3.266s5.808.237,8.285-2.682Z" transform="translate(-220.557 -220.575)" fill="#ab4b38"/>
        <path id="Trazado_211671" data-name="Trazado 211671" d="M506.112,478.268c.487.664-2.13,4.743-2.13,4.743l-1.765-5.365s2.981-.623,3.894.622" transform="translate(-234.226 -222.694)" fill="#f3e190"/>
        <path id="Trazado_211672" data-name="Trazado 211672" d="M447.329,482.446c-.487-.664,2.13-4.743,2.13-4.743l1.765,5.365s-2.981.622-3.894-.622" transform="translate(-208.598 -222.792)" fill="#f3e190"/>
        <path id="Trazado_211673" data-name="Trazado 211673" d="M459.524,474.77c-.311.664,2.486,4.937,2.486,4.937l1.948-6.453s-3.851.272-4.434,1.516" transform="translate(-214.303 -220.717)" fill="#f3e190"/>
        <path id="Trazado_211674" data-name="Trazado 211674" d="M480.819,474.623a3.613,3.613,0,0,0,3.1,3.525c1.344,0,1.765-1.578,1.765-3.525s-.542-3.525-1.886-3.525a3.516,3.516,0,0,0-2.982,3.525" transform="translate(-224.246 -219.712)" fill="#f3e190"/>
        <path id="Trazado_211675" data-name="Trazado 211675" d="M449.1,291.557l-3.437,4.349c-1.935,2.449-4.033,5.017-6.982,6.041Z" transform="translate(-204.592 -135.977)" fill="#9c2622"/>
        <path id="Trazado_211676" data-name="Trazado 211676" d="M453.006,277.056a29,29,0,0,1-1.32-4.635c-.352-2.743-.183-6.068,2.164-7.531a7.089,7.089,0,0,1,3.2-.846,32.188,32.188,0,0,1,6.72.144,9.081,9.081,0,0,0,3.076.087,7.506,7.506,0,0,0,3.734-2.688c4.3-4.864,6.992-11.021,12.17-15.081a4.94,4.94,0,0,1,2.742-1.256c1.773-.068,3.17,1.5,3.984,3.078,2.916,5.65,5.194,14.512,11,17.935.828.489,1.9.193,2.821.47,1.47.442,2.106,2.129,2.539,3.6l2.675,9.089a.591.591,0,0,1,.016.427c-.09.179-.324.217-.523.232-2.213.172-4.672.272-6.385-1.139a12.786,12.786,0,0,0-2.2-1.946c-2.24-1.1-4,1.014-5.093,2.64-1.3,1.933-1.209,3.548-1.048,5.882.189,2.756.653,5.483,1.071,8.21.308,2.006.007,5.7.884,7.45a89.564,89.564,0,0,1-4.667-11.467c-.876-2.591-1.862-7.52-5.4-4.955-1.8,1.3-2.029,3.5-2.5,5.551a54.062,54.062,0,0,0-1.293,14.977c-1.019-5.9-2.3-11.933-5.616-16.922-1.748-2.632-9.059-2.178-10.424.327-1.153,2.116-.712,6.641-.845,9.035q-.245,4.426-.191,8.863a28.829,28.829,0,0,1-1.057-4.441c-.742-2.8-2.7-5.157-3.42-7.963-.307-1.2-.3-3.115-1.264-4.032-1.529-1.456-3.1-.67-3.964.844-2.412,4.253-2.411,9.438-4.633,13.784a139.655,139.655,0,0,0,3.251-21.969,16.838,16.838,0,0,0-.142-5.568l-.054-.188" transform="translate(-209.849 -114.38)" fill="#9c2622"/>
        <path id="Trazado_211677" data-name="Trazado 211677" d="M533.022,237.509a23.928,23.928,0,0,0-3.559,9.768,13.97,13.97,0,0,0-.027,3.964,19.758,19.758,0,0,0,1.229,4.012l2.139,5.544c.228.591,1.945,3.877.417,3.4-1.766-.555-2.971-7.113-3.251-8.685-1.043-5.844-.318-12.947,3.051-18" transform="translate(-246.86 -110.77)" fill="#9c2622"/>
        <path id="Trazado_211678" data-name="Trazado 211678" d="M551.626,251.128a46.845,46.845,0,0,0-.2-14.352c.411,2.731,1.848,5.253,2.117,8.123a27.565,27.565,0,0,1-.614,8.853,26.578,26.578,0,0,1-3.331,8.043c-.359.573-1.91,3.428-2.813,2.989-1.174-.571.759-2.673,1.082-3.193a28.439,28.439,0,0,0,3.763-10.462" transform="translate(-254.835 -110.428)" fill="#9c2622"/>
        <path id="Trazado_211679" data-name="Trazado 211679" d="M513.434,266.024a2.408,2.408,0,0,0-1.426-.308c-.484.1-.9.66-.658,1.093a.938.938,0,0,0,1.369-1.208Z" transform="translate(-238.452 -123.871)" fill="#ca5c47"/>
        <path id="Trazado_211680" data-name="Trazado 211680" d="M522.259,275.361l-.181-.022a.492.492,0,0,0-.649.577,1.127,1.127,0,0,0,.26,1.009.741.741,0,0,0,.784.018,1.962,1.962,0,0,0,.6-.568c.193-.25.384-.581.24-.862-.161-.311-.6-.313-.945-.271Z" transform="translate(-243.18 -128.359)" fill="#ca5c47"/>
        <path id="Trazado_211681" data-name="Trazado 211681" d="M514.141,277.425a2.15,2.15,0,0,0-1.18.041c-.2.066-.415.192-.447.4-.036.233.185.434.413.492a.9.9,0,0,0,1.069-.793Z" transform="translate(-239.026 -129.356)" fill="#ca5c47"/>
        <path id="Trazado_211682" data-name="Trazado 211682" d="M522.62,287.771c-.438.219-.931.513-.988,1a1.216,1.216,0,0,0,.8,1.1.922.922,0,0,0,.5.117.908.908,0,0,0,.531-.328,2.662,2.662,0,0,0,.679-1.521,1.778,1.778,0,0,0-1.12.107Z" transform="translate(-243.278 -134.211)" fill="#ca5c47"/>
        <path id="Trazado_211683" data-name="Trazado 211683" d="M510.741,289.431c-.2-.2-.587.028-.6.313a.813.813,0,0,0,.45.679,1.079,1.079,0,0,0,.473.169.971.971,0,0,0,.839-.45,1.88,1.88,0,0,0,.281-.943.636.636,0,0,0-.023-.268.482.482,0,0,0-.577-.237,1.4,1.4,0,0,0-.563.376Z" transform="translate(-237.919 -134.633)" fill="#ca5c47"/>
        <path id="Trazado_211684" data-name="Trazado 211684" d="M504.718,277.327a1.151,1.151,0,0,0-.539-.1.394.394,0,0,0-.356.359c.006.211.226.341.418.429l.631.291a.906.906,0,0,0-.474-.7Z" transform="translate(-234.974 -129.292)" fill="#ca5c47"/>
        <path id="Trazado_211685" data-name="Trazado 211685" d="M617.767,255.1s-21.665-78.226-40.047-95.1L542.925,143.85S496.312,89.943,477.93,44.643l-16.413-10.5-9.191-15.972S372.231,1.97,300.672,0L294.29,7.878s-79.622,8.759-88.813,10.288L180.158,85.148h8.25L222,39.391l40.776,4.6L286.364,30.2l49.1,4.6s3.314,29.686,11.177,36.508,62.326-6.157,62.326-6.157l9.874,16.286,33.482,8.6,16.412,18.633,2.626,56.916,44.643,21.446v47.351l5.909,20.722,31.672,8.342,3.123-2.206Z" transform="translate(-84.023)" fill="#f0786a"/>
        <path id="Trazado_211686" data-name="Trazado 211686" d="M69.2,431.825,84.469,405.03l51.7-9.236,5.2,19.7,5.019,4.118,6.032,18.531-41.607-3.613-18.957,3.832Z" transform="translate(-32.276 -184.592)" fill="#f0786a"/>
        <path id="Trazado_211687" data-name="Trazado 211687" d="M29.713,444.109l-2.954,12.217,22.649.495-2.954-15.244-8.371,2.532Z" transform="translate(-12.48 -205.944)" fill="#f0786a"/>
        <path id="Trazado_211688" data-name="Trazado 211688" d="M419.291,168.542a4.156,4.156,0,0,0-.673,4.758c.851,1.573,2.788,2.791,2.534,4.561-.246,1.717-2.367,2.379-4.1,2.464a22.218,22.218,0,0,1-9.445-1.618,1.767,1.767,0,0,0,.718,2.253,4.992,4.992,0,0,0,2.516.594q4.778.251,9.566.1c1.54,9.352-.254,18.894-2.043,28.2a43.768,43.768,0,0,0,3.454-11.944,5.638,5.638,0,0,1,.752-2.544,1.788,1.788,0,0,1,2.33-.639,2.538,2.538,0,0,1,.768,1.109,93.5,93.5,0,0,1,5.005,14.009c.673-9.863-8.233-18.894-6.307-28.591a46.1,46.1,0,0,1,8.957.228c.664-.817-.164-2.117-1.187-2.364a7.006,7.006,0,0,0-3.1.375c-2.392.527-5.594-.534-5.707-2.981a5.1,5.1,0,0,1,1.407-3.205c3.731-4.75-1.6-8.669-5.446-4.763" transform="translate(-190.016 -77.861)" fill="#9c2622"/>
        <path id="Trazado_211689" data-name="Trazado 211689" d="M194.762,297.967a3.489,3.489,0,0,1-1.631-.617,3.362,3.362,0,0,1-.921-1.666,21.079,21.079,0,0,1-.907-6.886,60.372,60.372,0,0,0,12.692-3.14,21.683,21.683,0,0,0-9.406,1.148c-1.536.548-3.526,1.164-4.57-.09-1.431-1.719.962-4.081,1.072-6.314.095-1.924-1.69-3.546-3.586-3.887a9.834,9.834,0,0,0-5.59,1.07,5.533,5.533,0,0,0-2.275,1.543,3.741,3.741,0,0,0,.167,4.35,6.475,6.475,0,0,0,3.946,2.3c1.577.334,3.662.684,3.888,2.28a2.486,2.486,0,0,1-.522,1.721,5.88,5.88,0,0,1-5.292,2.236,10.531,10.531,0,0,1-5.442-2.361,21.942,21.942,0,0,0-2.01-1.481,137.735,137.735,0,0,0,4.031-13.332,8.667,8.667,0,0,1,1.612-3.7,2.9,2.9,0,0,1,3.648-.727,37.975,37.975,0,0,0-.623-7.951,44.173,44.173,0,0,0-4.963,6.436l1.755.667-5.907,15.162c-.231.591-.718,1.6-1.289,2.8a2.338,2.338,0,0,0-2.612,1.636c.5.244,1,.487,1.514.727-1.4,3.118-2.693,6.56-1.78,7.679a43.158,43.158,0,0,0,3.6-6.858c4.576,1.972,9.525,3.29,13.892,1.232a2.245,2.245,0,0,1,1.693-.346c3.266,1.263,1.53,7.3.432,9.184-2.244,3.851-2.8,7.666-4.167,11.77a43.715,43.715,0,0,1,5.654-11.888,3.84,3.84,0,0,1,1.564-1.526,3.951,3.951,0,0,1,2.346.027,114.246,114.246,0,0,1,14.909,4.374c-3.359-4.282-9.567-4.564-14.916-5.567" transform="translate(-79.031 -122.407)" fill="#9c2622"/>
        <path id="Trazado_211690" data-name="Trazado 211690" d="M529.307,72.73c2.906-.793,5.824-1.511,8.75-2.172,2.923-.687,5.859-1.283,8.792-1.9,2.941-.562,5.872-1.19,8.823-1.693s5.889-1.084,8.847-1.537l-1.031.508c2.722-2.648,5.426-5.315,8.21-7.9l.68-.631.879.106c6.415.775,12.816,1.657,19.2,2.7,3.2.493,6.379,1.078,9.564,1.663,3.182.605,6.361,1.237,9.526,1.988-3.253.012-6.492-.094-9.729-.227-3.234-.154-6.468-.307-9.692-.552-6.454-.434-12.888-1.028-19.311-1.731l1.558-.524c-2.7,2.669-5.483,5.255-8.247,7.859l-.445.419-.588.089c-2.958.45-5.934.784-8.9,1.171s-5.951.674-8.926,1.015c-2.983.287-5.964.593-8.958.808-2.99.241-5.989.426-9,.536" transform="translate(-246.86 -26.774)" fill="#ca5c47"/>
        <path id="Trazado_211691" data-name="Trazado 211691" d="M690.2,148.867a54.145,54.145,0,0,1,11.577,1.473c1.889.386,3.74.9,5.585,1.442s3.662,1.175,5.47,1.842l-1.553.316c.681-.5,1.417-.939,2.128-1.406s1.447-.9,2.188-1.331a37,37,0,0,1,4.641-2.337A37.051,37.051,0,0,1,717,152.932c-.573.637-1.145,1.274-1.751,1.869s-1.18,1.231-1.812,1.795l-.584.521-.969-.206c-1.885-.4-3.765-.817-5.609-1.358s-3.69-1.078-5.494-1.758a54.152,54.152,0,0,1-10.579-4.928" transform="translate(-321.898 -69.429)" fill="#ca5c47"/>
        <path id="Trazado_211692" data-name="Trazado 211692" d="M757.561,280.144c3.036-.494,6.073-.8,9.109-1.065s6.073-.437,9.109-.6l.879-.048.561.874c2.108,3.284,4.17,6.6,6.151,9.954l-2.083-.923c2.7-.617,5.425-1.1,8.136-1.652,2.725-.491,5.448-.985,8.188-1.406s5.485-.808,8.243-1.138c2.765-.3,5.528-.606,8.331-.724-2.613,1.02-5.267,1.85-7.918,2.689q-3.987,1.212-8,2.275c-2.677.717-5.369,1.361-8.061,2.007-2.705.583-5.395,1.241-8.113,1.762l-1.392.267-.691-1.19c-1.958-3.371-3.835-6.791-5.666-10.237l1.44.826c-3.036-.166-6.073-.332-9.109-.6s-6.073-.572-9.109-1.065" transform="translate(-353.313 -129.854)" fill="#ca5c47"/>
        <path id="Trazado_211693" data-name="Trazado 211693" d="M853.525,428.242c3.846-.026,7.669.125,11.479.369s7.614.531,11.4.932c3.8.353,7.573.844,11.353,1.31,3.772.532,7.548,1.029,11.3,1.671l-2.033,1.584c.323-2.14.6-4.284.984-6.417.359-2.135.706-4.272,1.128-6.4l.19-.958.8-.063c3.814-.3,7.642-.505,11.5-.533-3.7,1.1-7.417,2.017-11.153,2.841l.987-1.021c-.071,2.168-.216,4.328-.349,6.489-.113,2.164-.324,4.316-.493,6.473l-.139,1.768-1.895-.185c-3.793-.369-7.567-.884-11.345-1.364-3.769-.546-7.543-1.067-11.3-1.726-3.761-.611-7.508-1.323-11.247-2.1s-7.467-1.629-11.171-2.668" transform="translate(-398.069 -195.758)" fill="#ca5c47"/>
        <path id="Trazado_211694" data-name="Trazado 211694" d="M248.661,185.45l-.985.739v4.1l3.119-.492v-1.313Z" transform="translate(-115.512 -86.491)" fill="#51192b"/>
        <path id="Trazado_211695" data-name="Trazado 211695" d="M303.515,303.991l2,34.449,3.511,60.246s5.982-1.938,11.329-21.7c2.06-7.612,3.232-21.416,3.767-37.576,0,0,1.058-15.434.838-20.664-.2-4.829-.378-9.7-.383-14.393Z" transform="translate(-141.554 -141.776)" fill="#f79885"/>
        <path id="Trazado_211696" data-name="Trazado 211696" d="M361.724,378.2c.925-16.454-9.491-64.373-11.407-73.084l-19.851-1.225c.315,9.445,7.342,35.827,7.342,35.827,4.955,17.017,11.585,36.865,17.282,58.929,0,0,5.871-6.891,6.633-20.447" transform="translate(-154.124 -141.727)" fill="#f79885"/>
        <path id="Trazado_211697" data-name="Trazado 211697" d="M311.309,470.141c-.295-.121-1.578,2.924-3.546,4.528a24.671,24.671,0,0,1-5.843,3.064c-.522.283-.345.849.249.849h8.862a1.173,1.173,0,0,0,1.224-1.333,13.757,13.757,0,0,1-.446-1.988c-.026-.328-.242-5.014-.5-5.12" transform="translate(-140.666 -219.264)" fill="#f79885"/>
        <path id="Trazado_211698" data-name="Trazado 211698" d="M373.78,470.144c-.6,0-.862,2.123-2.61,4.695a7.659,7.659,0,0,1-3.194,2.9c-.522.283-.344.849.25.849H374.1a1.166,1.166,0,0,0,1.224-1.333c-.4-2.038-.8-7.108-1.546-7.108" transform="translate(-171.474 -219.267)" fill="#f79885"/>
        <path id="Trazado_211699" data-name="Trazado 211699" d="M348.983,234.077c5.124,2.769,12.36,22.157,12.387,28.989.048,12.483-32.475,10.563-42.091,3.26,0,0,19.123-5.807,28.671-10.042,0,0-8.836-11.717-12.647-22.4-1.646-4.613,11.734-.735,13.68.193" transform="translate(-148.906 -108.047)" fill="#f0786a"/>
        <path id="Trazado_211700" data-name="Trazado 211700" d="M303.41,266.854s-1.443-35.015,5.7-40.432,31.759.985,34.221,6.155-5.685,35.446-5.685,35.446-10.139,3.811-34.233-1.169" transform="translate(-141.45 -104.639)" fill="#f79885"/>
        <path id="Trazado_211701" data-name="Trazado 211701" d="M347.768,199.147c1.331-1.074,4.8-4.606,4.959-8.43s-8.229-6.4-10.584-5.539c-4.272,1.559-6.922,14.581-5.187,15.914.447.344,4.956,2.779,10.812-1.946" transform="translate(-156.899 -86.287)" fill="#f79885"/>
        <path id="Trazado_211702" data-name="Trazado 211702" d="M337.433,213.355a6.506,6.506,0,0,0,3.26.918l.48-2.972c-2.065,2.392-3.74,2.054-3.74,2.054" transform="translate(-157.373 -98.547)" fill="#f0786a"/>
        <path id="Trazado_211703" data-name="Trazado 211703" d="M339.308,193.677s-1.626,5.034-4.367,3.912c0,0-6.685,4.8-1.28,3.79,0,0-4.851,5.8.32,3.188-3.775,6.483,3.077,5,5.282,1.678,0,0-5.767-.32.562-10.292Z" transform="translate(-154.63 -90.328)" fill="#51192b"/>
        <path id="Trazado_211704" data-name="Trazado 211704" d="M347.718,208.016c-1.664,3.706.049,9.477.049,9.477-2.553,3.788-9.527.153-12.521-1.046a30.913,30.913,0,0,0,3.282-5.888c3.035-8.146,12.2-9.248,9.19-2.542" transform="translate(-156.353 -94.971)" fill="#f79885"/>
        <path id="Trazado_211705" data-name="Trazado 211705" d="M343.395,183.456s-5.156-7.917-2.126-10.986,6.782,4.832,6.782,4.832,7.528-3.43,9.652-1.509-2.9,5.181-2.9,5.181,9.973,4.79.557,5.036c4.8,2.759,3.139,11.448-2.8,4.645.4,5.883-2.026,12.711-5.667,2.56-6.487,10.89-3.5-9.759-3.5-9.759" transform="translate(-158.717 -80.107)" fill="#51192b"/>
        <path id="Trazado_211706" data-name="Trazado 211706" d="M341.408,316.959c-.656-6.237-2.527-14.226-6.738-16.534,0,0,3.447-.621,2.378-2.044s-32.091-5.43-35.017-5.505-8.439-.2-3.745,4.336c-4.226,8.265-3.235,17.89-1.436,23.817.815,0,1.362,1.015,2.155.824.5-.121.65-.745.728-1.255a16.532,16.532,0,0,1,2.257-6.134,2.283,2.283,0,0,1,.876-.93c.974-.466,2.028.477,2.594,1.4s1.192,2.039,2.267,2.129,1.914-.957,2.294-1.973a8.218,8.218,0,0,1,1.3-2.954,32.628,32.628,0,0,0,4.741,9.56c1.15,1.594,2.878,3.242,4.793,2.8.611-.142,1.242-.494,1.826-.265a2,2,0,0,1,.831.806l3.246,4.71a4.029,4.029,0,0,0,2.426,2.022,2.842,2.842,0,0,0,2.665-1.544,13.73,13.73,0,0,0,1.079-3.075,14.18,14.18,0,0,1,2.874-5.172A5.738,5.738,0,0,1,338.1,324.4l1.528-5.6c.309-1.133.609-1.894,1.783-1.847" transform="translate(-137.725 -136.582)" fill="#9c2622"/>
        <path id="Trazado_211707" data-name="Trazado 211707" d="M336.815,304.3a.47.47,0,0,1-.047,0l-36.383-3.215a.529.529,0,0,1-.479-.573.536.536,0,0,1,.573-.479l36.383,3.214a.528.528,0,0,1-.046,1.053" transform="translate(-139.87 -139.929)" fill="#51192b"/>
        <path id="Trazado_211708" data-name="Trazado 211708" d="M315.209,247.3s-3.522,11.9-11.7,15.876l.589-9.292Z" transform="translate(-141.554 -115.336)" fill="#f0786a"/>
        <path id="Trazado_211709" data-name="Trazado 211709" d="M290.67,222.245c-1.872,7.405-17.583,11.166-24.756,11.168-15.2,0-19.542-27.712-12.063-37.947,0,0,7.187,14.679,11.817,24.619,0,0,11.408-4.221,22.546-8.428,4.81-1.817,3.392,8.528,2.455,10.589" transform="translate(-116.722 -91.161)" fill="#f79885"/>
        <path id="Trazado_211710" data-name="Trazado 211710" d="M251.1,197.631c-.484.11-1.4-1.628-1.4-1.628s-4.257-.42-5.3-1.445,1.07-4.174,1.07-4.174-.747-1.128-.486-1.477,2.088.283,3.387,1.06c0,0,.034-1.749.87-1.554.6.139.166,1.707,2.113,4.141.573.876.764,4.846-.254,5.077" transform="translate(-113.852 -87.865)" fill="#f79885"/>
        <path id="Trazado_211711" data-name="Trazado 211711" d="M634.609,398.5s-23.006,38.792-7.094,38.792h37.975c1.725,0-7.129-7.925-8.628-7.285-1.378.588-2.684,2.876-2.684,2.876s-7.012-7.7-15.021-8.052c0,0,22.545-6.934,18.061-25.963Z" transform="translate(-290.047 -185.852)" fill="#f0786a"/>
        <path id="Trazado_211712" data-name="Trazado 211712" d="M650.53,445.526a15.55,15.55,0,0,0-4.239,0l10.179-2.647a24.767,24.767,0,0,1-5.94,2.647" transform="translate(-301.419 -206.551)" fill="#f0786a"/>
        <path id="Trazado_211713" data-name="Trazado 211713" d="M591.718,452.333c-.717,0-1.027,2.531-3.112,5.6a9.14,9.14,0,0,1-3.808,3.454c-.623.337-.41,1.012.3,1.012H592.1a1.39,1.39,0,0,0,1.459-1.59c-.474-2.43-.95-8.474-1.844-8.474" transform="translate(-272.568 -210.96)" fill="#f79885"/>
        <path id="Trazado_211714" data-name="Trazado 211714" d="M619.635,388.889s4.98,27.107-11.527,21.535c-12.275-4.144-19.026-10.692-19.026-10.692s4.038,19.85-3.23,26.229c0,0-8.9-14.084-12.065-27.15-1.7-6.994-1.744-13.712,2.1-17.815,2.584-2.745,9.319-1.131,17.395,1.324,4.668,1.4,9.788,3.117,14.827,4.409,13.389,3.456,11.527,2.159,11.527,2.159" transform="translate(-267.091 -177.021)" fill="#f79885"/>
        <path id="Trazado_211715" data-name="Trazado 211715" d="M598.118,412.817l-6.056-5.182s5.779,8.741,7.062,13.321a60.92,60.92,0,0,0-1.005-8.139" transform="translate(-276.128 -190.114)" fill="#f0786a"/>
        <path id="Trazado_211716" data-name="Trazado 211716" d="M593.282,382.321s-16.587.614-19.494,16.49c-1.7-6.994-1.744-13.712,2.1-17.815,2.584-2.746,9.319-1.131,17.395,1.324" transform="translate(-267.091 -177.021)" fill="#f0786a"/>
        <path id="Trazado_211717" data-name="Trazado 211717" d="M648.529,355.887a85.053,85.053,0,0,1,4.534,18.372s-22.422,8.2-35.82-7.442L613,357.907s23.823-25.977,35.532-2.019" transform="translate(-285.891 -161.247)" fill="#f79885"/>
        <path id="Trazado_211718" data-name="Trazado 211718" d="M605.586,302.313c.791-1.433,2.591-5.817,1.348-9.262s-9.6-2.7-11.381-1.083c-3.221,2.926-.864,15.422,1.155,15.977.52.143,5.4.672,8.878-5.632" transform="translate(-277.016 -135.536)" fill="#f79885"/>
        <path id="Trazado_211719" data-name="Trazado 211719" d="M599.111,320.324a6.224,6.224,0,0,0,3.221-.365l-.649-2.807c-.965,2.866-2.572,3.172-2.572,3.172" transform="translate(-279.415 -147.914)" fill="#f0786a"/>
        <path id="Trazado_211720" data-name="Trazado 211720" d="M610.834,308.094c1.571,3.556,6.773,6.032,6.773,6.032,1.06,4.241-5.99,6.875-8.76,8.237a29.571,29.571,0,0,0-2.089-6.1c-3.852-7.374,1.233-14.6,4.075-8.165" transform="translate(-282.334 -142.528)" fill="#f79885"/>
        <path id="Trazado_211721" data-name="Trazado 211721" d="M588.012,289.966s-8.225,1.178-6.649-2.636c.766-1.853,3.438-2.866,5.984-3.417-10.33-11.082,5.245-.652,5.245-.652s5.43-5.76,8.007-4.825-.693,5.638-.693,5.638,10.569.639,2.313,4.261c5.251.71,6.919,9.01-.8,5.129,4.568,2.471,9.576,12.745.6,3.856,5.05,9.813-.829,10.343-5.74-.251-1.244,12.13-5.973,9.2-3.966-1.168-7.018,12.038-4.3-5.935-4.3-5.935" transform="translate(-271.044 -129.81)" fill="#51192b"/>
        <path id="Trazado_211722" data-name="Trazado 211722" d="M642.169,347.813s-2.961-19.92-17.228-25.573-26.469-.731-30.822,5.916c-5.115,7.812,9.018,18.041,10.633,26.655a1.692,1.692,0,0,0,1.373.072q.414-2.505.828-5.01c1.105.282,1.79,1.5,2.9,1.744,1.39.3,2.594-1.084,3.006-2.446s.411-2.871,1.148-4.088c1.106-.694,2.167.959,3.353,1.5,1.28.587,2.823-.277,3.579-1.464a16.626,16.626,0,0,0,1.41-3.964,4.66,4.66,0,0,1,2.541-3.18c1.845,1.05,1.469,3.781,2.267,5.748.9,2.224,3.311,3.375,5.515,4.324.393-1.81,1.355-4.073,3.2-3.921A3.581,3.581,0,0,1,638.3,346a5.547,5.547,0,0,0,2.132,2.283c.972.418,1.824.581,1.736-.473" transform="translate(-276.569 -149.134)" fill="#ffb157"/>
        <path id="Trazado_211723" data-name="Trazado 211723" d="M615.478,385.366c10.006-3.418,30.005-3.46,38.809.62,1.007.467,2.288,1.884,0,4.442,0,0,5.115,16.017-14.267,26.514-1.462-.051-2.919-.313-4.381-.363a1.057,1.057,0,0,1-.618-.151c-.487-.372-.036-1.126.388-1.569s.734-1.317.162-1.535a1.012,1.012,0,0,0-.8.169,19.946,19.946,0,0,1-5.951,1.991l.528-2.925a1.978,1.978,0,0,0-.068-1.325c-.353-.623-1.22-.669-1.933-.608a25.954,25.954,0,0,0-7,1.6,6.731,6.731,0,0,1-2.043.567,1.951,1.951,0,0,1-1.823-.871c-.29-.533-.243-1.258-.705-1.65-.762-.647-2.143.22-2.865-.472a1.191,1.191,0,0,1-.032-1.488,3.472,3.472,0,0,1,1.271-.979c1.6-.875,3.2-1.75,4.844-2.544l-1.225-1.933a1.073,1.073,0,0,1-.243-.818c.094-.34.48-.493.818-.6l6.02-1.852c.61-.187,1.364-.612,1.209-1.23a1.218,1.218,0,0,0-.6-.655,12.174,12.174,0,0,0-3.07-1.378,3.665,3.665,0,0,1,1.035-1.713c.416-.535.7-1.35.243-1.852-.776-.855-2.626.263-3.2-.739a1.914,1.914,0,0,1-.156-.827c-.181-2.521-2.259-4.4-4.351-5.824" transform="translate(-285.726 -178.559)" fill="#ffb157"/>
        <path id="Trazado_211724" data-name="Trazado 211724" d="M530.413,330.157l-.68.989,1.279,3.791,2.728-1.427-.409-1.213Z" transform="translate(-247.058 -153.979)" fill="#51192b"/>
        <path id="Trazado_211725" data-name="Trazado 211725" d="M577.327,345.295c0,5.793-8.514,19.433-15.141,21.669-14.047,4.74-25.507-18.726-21.787-30.512,0,0,9.521,9.553,16.9,17.3,0,0,10.34-17.47,13.871-17.985,4.424-.646,6.159,7.326,6.16,9.533" transform="translate(-251.702 -156.576)" fill="#f79885"/>
        <path id="Trazado_211726" data-name="Trazado 211726" d="M537.1,339.532c-.413.252-1.8-1.067-1.8-1.067s-4.065.939-5.345.316-.312-4.191-.312-4.191-1.041-.81-.909-1.213,2.018-.389,3.459-.076c0,0-.513-1.626.32-1.707.6-.058.685,1.526,3.242,3.168.8.631,2.216,4.24,1.347,4.771" transform="translate(-246.585 -154.649)" fill="#f79885"/>
        <path id="Trazado_211727" data-name="Trazado 211727" d="M657.125,392.291a.6.6,0,0,1-.257-.058c-.138-.065-14.031-6.463-37.5-5.331a.594.594,0,0,1-.634-.575.6.6,0,0,1,.576-.634c23.787-1.156,37.936,5.38,38.075,5.444a.606.606,0,0,1-.259,1.154" transform="translate(-288.566 -179.817)" fill="#ab4b38"/>
      </g>
    </g>
  </g>
</svg>
