<svg xmlns="http://www.w3.org/2000/svg" width="610" height="298.468" viewBox="0 0 610 298.468">
  <g id="Grupo_170634" data-name="Grupo 170634" transform="translate(-190 -2965.307)">
    <path id="Trazado_211907" data-name="Trazado 211907" d="M77.991,162.406s-9.813-2.18-11.994-8.723,0-12.72-7.269-19.263-10.54-23.624,1.454-29.8S103.8,126.425,103.8,126.425Z" transform="translate(173.131 2892.199)" fill="#1a204a"/>
    <path id="Trazado_211908" data-name="Trazado 211908" d="M83.031,131.638s-1.336,29.719-1.669,35.73S86.036,183.4,86.036,187.4s-11.353,32.725-12.689,36.4-3.006,6.679,0,8.014,15.013-1.1,16.473,1.173-1.623,5.031-.649,9.087,8.763,5.193,8.925,6.329-1.623,2.434-1.623,6.329,6.329,6.49,6.329,6.49,1.3,14.767,4.219,20.608,9.411,12.982,50.3-6.978c0,0,10.061,21.582,10.223,25.963s.162,11.035,8.438,15.578,43,6.978,55.983,4.057,25.963-27.586,25.963-32.291-8.114-13.144-11.846-26.775-11.521-45.273-11.521-45.273L154.728,109.99Z" transform="translate(166.848 2890.175)" fill="#646c9f"/>
    <path id="Trazado_211909" data-name="Trazado 211909" d="M76.578,118.992c6.147.923,9.736,2.109,24.5-4.219s17.2,12.819,21.095,21.419,13.144,11.2,18.174,19.31a70.521,70.521,0,0,1,6.977,14.28s1.623-11.359,11.2-14.929,18.985,2.758,18.336,15.253c0,0-.487,4.868-.487,6.653s12.008,30.345,23.042,35.861,30.831.649,35.861,8.439c0,0-2.6-12.009-.324-18.985s23.131-60.823,14.772-94.623-43.613-35.617-43.613-35.617-22.534-16.719-50.883-12.721S111.614,76.194,97.076,75.831,61.1,79.466,57.824,94.73s9.231,22.832,18.754,24.262" transform="translate(171.491 2906.813)" fill="#212a5b"/>
    <path id="Trazado_211910" data-name="Trazado 211910" d="M233.158,364.969S220,392.046,192.167,392.8s-47.772-9.6-47.772-9.6-15.783,7.724-18.039,10.732-37.23,16.547-62.426,21.436S6.017,441.309,0,455.976H387.343s-5.145-51.647-47.384-59.793a534.429,534.429,0,0,1-85.366-23.692c-5.686-2.108-15.043-6.769-21.436-7.521" transform="translate(190 2807.8)" fill="#1a204a"/>
    <path id="Trazado_211911" data-name="Trazado 211911" d="M100.347,210.521c-.732,1.3-.444,2.769-.189,4.164.154.848.322,1.7.407,2.553s.028,1.681.04,2.528a.136.136,0,0,0,.265.036c.529-1.4.139-3.112-.12-4.531-.265-1.453-.755-3.163-.121-4.585.083-.188-.177-.353-.282-.165" transform="translate(157.731 2857.724)" fill="#515b89"/>
    <path id="Trazado_211912" data-name="Trazado 211912" d="M342.871,379.257c-11.358,18.512-32.156,35.374-54.816,35.274-.535,0-.5.749,0,.809,11.58,1.416,24.1-5.015,33.318-11.5a72.243,72.243,0,0,0,21.841-24.38.2.2,0,0,0-.343-.2" transform="translate(97.064 2803.214)" fill="#0f142d"/>
    <path id="Trazado_211913" data-name="Trazado 211913" d="M261.05,428.3a130.275,130.275,0,0,1-24.784-1.964c-7.873-1.453-15.2-4.194-22.876-6.282-.3-.083-.511.369-.219.519,7.1,3.634,15.655,5.433,23.474,6.726a115.563,115.563,0,0,0,24.4,1.5.249.249,0,0,0,0-.5" transform="translate(121.176 2790.007)" fill="#0f142d"/>
    <path id="Trazado_211914" data-name="Trazado 211914" d="M202.358,415.767c-5.239-2.239-10.035-5.143-15.116-7.669a.149.149,0,0,0-.15.258c4.521,3.312,9.958,5.639,15.119,7.761.2.082.347-.265.148-.35" transform="translate(129.579 2793.873)" fill="#0f142d"/>
    <path id="Trazado_211915" data-name="Trazado 211915" d="M98.861,223.989c3.117,4.795,9.626,4.744,14.412,2.938,3.05-1.151,6-2.589,8.95-3.961,1.516-.7,3.073-1.355,4.548-2.141a16.758,16.758,0,0,0,4.377-2.909.957.957,0,0,0-.669-1.615c-3.075.248-5.982,1.9-8.728,3.213s-5.494,2.69-8.258,4c-4.15,1.961-10.105,3.907-13.571-.339-.485-.594-1.477.179-1.061.819" transform="translate(158.093 2855.831)" fill="#1a204a"/>
    <path id="Trazado_211916" data-name="Trazado 211916" d="M102.212,226.167a6.354,6.354,0,0,0,2.3,1.5,4.1,4.1,0,0,0,2.691.2c.133-.045.166-.278,0-.3a14.166,14.166,0,0,1-2.453-.473,5.665,5.665,0,0,1-2.133-1.322.287.287,0,0,0-.406.406" transform="translate(157.005 2852.801)" fill="#515b89"/>
    <path id="Trazado_211917" data-name="Trazado 211917" d="M89.284,191.689s.91,8.289,4.322,9.881,20.7-9.1,35.938-5.914c0,0-5.914-4.322-10.691-4.777s-20.243,3.994-29.568.81" transform="translate(161.155 2864.053)" fill="#1a204a"/>
    <path id="Trazado_211918" data-name="Trazado 211918" d="M125.647,311.04c-4.577-2.739-12.192-1.62-16.764.659-.657.327-.371,1.51.387,1.428,5.258-.565,10.619-3.934,15.717-.959a.654.654,0,0,0,.66-1.128" transform="translate(154.941 2825.742)" fill="#1a204a"/>
    <path id="Trazado_211919" data-name="Trazado 211919" d="M202.447,226.987c-.38-3.932,1.431-7.714,3.873-10.726,2.566-3.165,8.439-5,9.736.4.207.864,1.37.585,1.45-.2.52-5.08-5.537-6.8-9.327-4.806-4.986,2.619-8.011,9.937-7.379,15.322.121,1.033,1.749,1.063,1.646,0" transform="translate(125.154 2857.59)" fill="#515b89"/>
    <path id="Trazado_211920" data-name="Trazado 211920" d="M209.874,220.363a8.371,8.371,0,0,0-7.891,4.019c-.2.319.219.788.544.544,2.237-1.681,4.167-3.907,7.223-3.643.52.045.648-.848.125-.92" transform="translate(124.762 2854.538)" fill="#515b89"/>
    <path id="Trazado_211921" data-name="Trazado 211921" d="M223.8,234.618c-1.282,5.375-1.437,10.783-2.26,16.218-1.089,7.186-7.716,9.2-13.744,6.183a.656.656,0,0,0-.791,1.026c3.917,4.053,10.591,3.14,13.971-1.135a11.59,11.59,0,0,0,2.26-7.047,88.048,88.048,0,0,1,1.522-14.981c.135-.621-.809-.889-.958-.264" transform="translate(123.187 2850.028)" fill="#515b89"/>
    <path id="Trazado_211922" data-name="Trazado 211922" d="M193.2,284.5a200.646,200.646,0,0,1-6.014,30.656c-1.6,5.425-7.778,9.86-11.98,13.284A97.742,97.742,0,0,1,154.566,341.8c-.335.154-.1.714.252.6,7.553-2.53,14.354-7.478,20.486-12.449a90.616,90.616,0,0,0,9.582-8.739,13.372,13.372,0,0,0,3.274-4.732c1.863-5.463,2.609-11.44,3.555-17.111a134.153,134.153,0,0,0,2-14.858c.018-.336-.47-.316-.511,0" transform="translate(140.117 2833.876)" fill="#515b89"/>
    <path id="Trazado_211923" data-name="Trazado 211923" d="M621.811,382.615c-16.075-16.577-49.982-44.586-44.195-75.256,5.342-28.311,22.969-78.522,16.355-119.053-6.173-37.831-34.845-50.06-34.845-50.06-10.307-3.436-71.164,19.14-95.7,42.207-19.2,18.043-4.757,146.895,2.442,202.161Z" transform="translate(148.372 2881.159)" fill="#1a204a"/>
    <path id="Trazado_211924" data-name="Trazado 211924" d="M578.224,167.113c5.4,6.6,13.192,19.188,14.391,29.382s-.8,15.8,0,20.087c1.893,10.157,25.834,23.051,25.97,27.2.187,5.735-12.649,6.856-14.748,11.953s2.664,7.305,2.869,8.82c.215,1.59-.557,5.692-3.255,6.891,0,0,5.4,3.663,3.854,7.5-.956,2.377-3.9,3.3-3.6,7.8s4.2,19.188-3,21.287-39.8-2.729-42.6-.368c-3.315,2.8-19.9,27.016-19.9,36.68S569.3,358.2,569.3,358.2s-55.953,30.82-63.516,29.979-31.865-43.845-31.865-43.845l4.2-140.34,42.019-39.077Z" transform="translate(141.891 2872.429)" fill="#646c9f"/>
    <path id="Trazado_211925" data-name="Trazado 211925" d="M662.764,482.279C649.7,462.2,623.975,455.8,609.774,454.594c-15.128-1.282-45.128-8.2-45.128-8.2-34.358,14.872-57.947,15.384-57.947,15.384L488.33,482.279Z" transform="translate(137.236 2781.495)" fill="#2b3468"/>
    <path id="Trazado_211926" data-name="Trazado 211926" d="M660.292,321.666a18.664,18.664,0,0,0-5.989.933,27.657,27.657,0,0,0-2.7,1.069,6.645,6.645,0,0,0-2.744,1.631c-.153.207.057.478.277.485a6.728,6.728,0,0,0,2.775-1.037c.876-.413,1.762-.814,2.668-1.158a17.908,17.908,0,0,1,5.715-1.166.379.379,0,0,0,0-.757" transform="translate(85.392 2821.79)" fill="#1a204a"/>
    <path id="Trazado_211927" data-name="Trazado 211927" d="M631.307,252.367c-2.326,4.1-7.7,3.152-11.452,2.1-2.428-.68-4.843-1.4-7.271-2.084-2.348-.659-4.925-1.593-7.39-1.368a.8.8,0,0,0-.4,1.481c2.211,1.6,5.247,2.113,7.842,2.811,2.681.722,5.367,1.52,8.1,2.028,4.187.778,9.639.025,11.553-4.4.282-.653-.609-1.227-.98-.573" transform="translate(99.73 2844.626)" fill="#1a204a"/>
    <path id="Trazado_211928" data-name="Trazado 211928" d="M640.384,252.747a4.754,4.754,0,0,1-1.554,1.377,11.45,11.45,0,0,1-1.952.742c-.111.038-.14.235,0,.256a3.458,3.458,0,0,0,2.218-.543,5.326,5.326,0,0,0,1.705-1.588c.177-.258-.238-.493-.417-.244" transform="translate(89.275 2844.089)" fill="#515b89"/>
    <path id="Trazado_211929" data-name="Trazado 211929" d="M641.481,239.964c.732,1.095.583,2.563.571,3.815a7.482,7.482,0,0,0,.556,3.792.114.114,0,0,0,.207-.087c-.114-.707-.279-1.393-.328-2.112s-.034-1.432-.028-2.149a5.061,5.061,0,0,0-.763-3.426c-.1-.12-.3.037-.215.167" transform="translate(87.764 2848.252)" fill="#515b89"/>
    <path id="Trazado_211930" data-name="Trazado 211930" d="M641.147,253.953s3.33,1.746,5.9.565c0,0-4.93,4.241-14.012,4.064a12.343,12.343,0,0,0,8.112-4.629" transform="translate(90.486 2843.666)" fill="#1a204a"/>
    <path id="Trazado_211931" data-name="Trazado 211931" d="M629.24,221.188s.827,5.193-2.479,6.61-19.357.826-29.273,4.013c0,0,10.505-6.256,20.656-6.61,9.1-.317,11.1-4.013,11.1-4.013" transform="translate(101.97 2854.251)" fill="#1a204a"/>
    <path id="Trazado_211932" data-name="Trazado 211932" d="M627.776,358.639a102.513,102.513,0,0,1-33.278-12.77c-10.447-6.336-18.647-14.539-26.683-23.612-.2-.222-.581.07-.412.317,6.561,9.663,16.351,17.648,26.251,23.691a94.116,94.116,0,0,0,34.037,12.675c.195.031.282-.262.084-.3" transform="translate(111.703 2821.624)" fill="#515b89"/>
    <path id="Trazado_211933" data-name="Trazado 211933" d="M542.49,282.669c-1.649-4.149-5.648-9.426-10.471-9.891-3.617-.349-7.669,2.752-7.617,6.513a.486.486,0,0,0,.9.243c1.96-3.674,4.6-6.785,9.175-4.261,3.172,1.749,5.211,4.8,7.029,7.811.3.5,1.219.172.985-.416" transform="translate(125.582 2837.593)" fill="#515b89"/>
    <path id="Trazado_211934" data-name="Trazado 211934" d="M542.871,280.19c-2.451-1.637-6.147-2.724-8.868-1.109a.386.386,0,0,0,.194.714c2.975-.005,5.424-.271,8.116,1.35.615.371,1.146-.563.559-.956" transform="translate(122.539 2835.805)" fill="#515b89"/>
    <path id="Trazado_211935" data-name="Trazado 211935" d="M333.121,379.19H461.885c-9.661-23.951,3.013-61.545,9.823-76.6,7.9-17.469,6.256-48.864,1.123-49.89S460,244.234,458.2,236.536s3.336-17.449,11.034-17.705,13.588,8.824,13.588,8.824c0-6.017,5.467-25.943,21.914-35.971s27.359-19.637,32.213-30.89c3.043-7.054.229-23.606-18.092-29.566-34.674-11.28-70.164,5.295-70.164,5.295-61.559,1.664-77.232,85.792-72.656,142.359,3.435,42.469-27.358,82.827-42.921,100.306" transform="translate(187.379 2884.584)" fill="#212a5b"/>
    <path id="Trazado_211936" data-name="Trazado 211936" d="M550.315,309.786c-3.065,2.193-6.238,2.176-9.816,1.688-.282-.038-.5.327-.208.493,3.349,1.931,7.622.654,10.419-1.669.282-.234-.094-.728-.4-.512" transform="translate(120.493 2825.646)" fill="#515b89"/>
    <path id="Trazado_211937" data-name="Trazado 211937" d="M513.831,477.021a34.573,34.573,0,0,0,11.575-.663c.191-.047.1-.313-.079-.287a50.794,50.794,0,0,1-11.5.524c-.275-.023-.271.4,0,.426" transform="translate(24.063 2771.907)" fill="#202a54"/>
    <path id="Trazado_211938" data-name="Trazado 211938" d="M535.233,467.1a174.968,174.968,0,0,0,21.051-5.13,165.916,165.916,0,0,0,19.909-7.431c2.811-1.284,5.734-2.935,7.127-5.828a.277.277,0,0,0-.478-.279,15.3,15.3,0,0,1-6.688,5.282c-3.1,1.459-6.314,2.71-9.517,3.924a192.125,192.125,0,0,1-20.041,6.371c-3.8.982-7.633,1.883-11.481,2.668-.279.057-.159.473.117.424" transform="translate(122.172 2780.879)" fill="#202a54"/>
  </g>
</svg>
