<?xml version="1.0" encoding="utf-8"?>
<!-- Generator: Adobe Illustrator 26.2.1, SVG Export Plug-In . SVG Version: 6.00 Build 0)  -->
<svg version="1.1" id="Layer_1" xmlns="http://www.w3.org/2000/svg" xmlns:xlink="http://www.w3.org/1999/xlink" x="0px" y="0px"
	 viewBox="0 0 619.7 431" style="enable-background:new 0 0 619.7 431;" xml:space="preserve">
<style type="text/css">
	.st0{clip-path:url(#SVGID_00000139995058381271247760000017905081119139542401_);}
	.st1{fill:#43B572;}
	.st2{fill:#79D894;}
	.st3{fill:#36995E;}
	.st4{fill:#B1D5DE;}
	.st5{fill:#84C0CE;}
	.st6{fill:#434A59;}
	.st7{fill:#F27C79;}
	.st8{fill:#FF867A;}
	.st9{fill:#7F635D;}
	.st10{fill:#E7F2F2;}
	.st11{fill:#FFAE43;}
	.st12{fill:#D47328;}
	.st13{fill:#FFE3C7;}
	.st14{fill:#C66C67;}
	.st15{fill:#FFFFFF;}
	.st16{fill:#F2C3A7;}
	.st17{fill:#664E4A;}
</style>
<g id="Grupo_170524" transform="translate(263.278 2468.899)">
	<g>
		<defs>
			<rect id="SVGID_1_" x="-147.5" y="-2439.6" width="388" height="372.4"/>
		</defs>
		<clipPath id="SVGID_00000179629908697609047010000002203189194115488416_">
			<use xlink:href="#SVGID_1_"  style="overflow:visible;"/>
		</clipPath>
		<g id="Grupo_170523" style="clip-path:url(#SVGID_00000179629908697609047010000002203189194115488416_);">
			<path id="Trazado_211439" class="st1" d="M151.9-2103.5c0,0,49.6-64.2,43.5-77.4c-6.2-13.2-21.3-1.7-21.3-8.7
				s32.4-43.9,27.5-55.2s-11.2-10.2-10.1-18.1s27.2-41.9,2.4-45.2s-27.6,38.2-37.2,42.8c-9.6,4.6-15.8-0.5-25.4,14.3
				c-9.6,14.7,1.2,48.8-8.6,52.6s-18.1-0.7-21.9,8c-3.8,8.7-4.3,70.2,6.3,75.1C117.6-2110.5,151.9-2103.5,151.9-2103.5"/>
			<path id="Trazado_211440" class="st2" d="M141.7-2164.5c6.9-23,26.1-85.5,32.4-98.1c5.3-10.5,18.2-36.2,22.6-44.9
				c0.4,0.1,0.7,0.2,1,0.3c-4.3,8.6-17.4,34.4-22.7,45c-6.3,12.6-25.5,75-32.3,98c-5,16.6-12.9,45.4-15.5,55.1l-1-0.3
				C128.9-2119,136.8-2147.9,141.7-2164.5"/>
			<path id="Trazado_211441" class="st3" d="M176.6-2098.3c0,0,42.8-26.1,42.6-36.2c-0.1-10.1-2.5-15.3-2-20.3
				c0.5-5,37.1-33.6,17.7-45.3s-37.9,27.1-45.5,28.7s-11.6,0.1-22.9,5c-11.3,4.9-42.3,63.4-30.5,78S176.6-2098.3,176.6-2098.3"/>
			<path id="Trazado_211442" class="st2" d="M178.5-2136.5c5.3-5.6,10.6-12.1,16.2-19c5.2-6.4,10.7-13.1,16.1-18.9
				c7.9-8.6,19.4-19.6,25.1-25c0.5,0.3,0.9,0.7,1.4,1.1c-5.7,5.4-17.1,16.3-25.1,24.9c-5.4,5.8-10.8,12.4-16,18.8
				c-5.7,6.9-11,13.5-16.3,19.1c-2.3,2.4-4.2,4.4-5.9,6.1c-6.1,6.1-9.8,9.8-18.7,24.7c-5.3,8.9-9.3,15.6-12.3,20.5
				c-0.6-0.1-1.2-0.3-1.8-0.5c3-4.9,7.1-11.7,12.4-20.7c9-15.1,12.7-18.9,18.9-25.1C174.3-2132.1,176.2-2134.1,178.5-2136.5"/>
			<path id="Trazado_211443" class="st4" d="M-33.3-2243c-1.8,0-63.8,2.4-76.6,0c-12.8-2.4-26.6,44.1-30.1,71.7
				c-3.6,27.6-14.8,76.1,0,83c14.8,6.9,103.2,2.4,116.9,3.9s36.8,2.3,41.4,0.1S5.5-2160.1,5-2166.2c-0.5-6.1-4.6-47.5-10.2-57.2
				S-16.4-2243.1-33.3-2243"/>
			<path id="Trazado_211444" class="st5" d="M-0.7-2138.6c0.1-8.7-9.6-67.8-14.7-76.8c-4.2-7.5-59.2-21.8-78-26.6
				c-1.9,0-3.7-0.1-5.3-0.1c4.8,7,25.8,37.6,34.6,45.8c8.2,7.6,13.8,84.5,19.2,111.6c10.4-0.1,18.4-0.1,21.9,0.3
				c11.3,1.2,28.8,2,37.2,1C10.6-2096.1-0.7-2131.4-0.7-2138.6"/>
			<path id="Trazado_211445" class="st6" d="M45.4-2434.8c0,0,4.1,0.7,4.7,4c0.6,3.2-1.8,6.8-1.1,8.6c0.7,1.8,1.5,1.9,0.7,3
				s-2.4,0-2.4,0s1.8,7.2,2.4,10.1s-0.6,6.7-1.5,6.2l-0.9-0.5c0,0,3.1,8.5,5.9,9.9c2.8,1.4,5.1,1.9,4.5,3.8c-0.2,1-0.9,1.9-1.8,2.4
				c0,0,5.3,5.2,6.1,10.4c0.7,5.2-11.2,13.2-20.9,8.6s-25.4-22.9-28.9-31.7s-1.4-17.8,0-21.7s6.1-7.1,6.1-7.1s-4.4,2.1-3.5-0.1
				s7.5-3.2,7.5-3.2s-7.7-3.2-4.1-4.3c3.6-1.1,8.4,3,8.4,3s-0.6-6,2.1-6.3c2.7-0.3,1,5.4,1,5.4S39.9-2438.5,45.4-2434.8"/>
			<path id="Trazado_211446" class="st7" d="M28-2389.1l40.3,40.2c0,0,46.5-55.5,53.1-47.7c6.6,7.8-27.9,77.1-49.6,76.5
				s-38.6-20.9-46.4-32.6C17.6-2364.4,28-2389.1,28-2389.1"/>
			<path id="Trazado_211447" class="st8" d="M37.6-2103.8l2.6,18.8c-0.1,4.1,2,7.9,5.4,10.1c5.9,4.1,33.6,5.7,35.4,3.9
				s-15.4-12.4-18.8-16c-3.4-3.6-9.5-13.3-13.2-16.7S39.2-2108,37.6-2103.8"/>
			<path id="Trazado_211448" class="st8" d="M-10.4-2390.4c0,0-44.8,53.2-74.8,78.4c-28.1,23.6-41,59.3-15,73.9
				c26,14.6,124,14.6,124,14.6l67.9,132.2l17.8-10c0,0-26.4-129.1-35.1-142.3s-76.2-30.8-76.2-30.8c1.7-9.4,4.9-18.4,9.6-26.7
				c9.2-15.6,24.7-31.5,31.5-42.8C51.7-2364.4,23.2-2426.6-10.4-2390.4"/>
			<path id="Trazado_211449" class="st8" d="M-21.8-2268.2c0,0,57.5,24.2,65.2,37.4s13.2,144.1,13.2,144.1l-16.5,1.6L6.5-2203.9
				c0,0-101.1-18.8-113.2-39.1s2-33.9,17-38.9S-21.8-2268.2-21.8-2268.2"/>
			<path id="Trazado_211450" class="st9" d="M-19.1-2380.7c0,0,11.6,13.2,26.3,13.8c14.8,0.7,36.5,3.9,36.5,3.9s1.4,17.2,0,20.9
				c-1.4,3.6-14.3,15.4-17.7,19.5c-3.4,4.1-24.1,42.4-24.1,42.4s6.4,0,4.8,1.6l-1.6,1.6c0,0,29.5,8.4,32.7,11.1s34.1,15.9,34,17.7
				c-0.1,1.8-37.9,20.4-43.4,25.9s-6.6,8.4-10.9,6.4c-4.3-2-20.7-8.4-18.6-4.5c2,3.9,11.8,9.1,12.5,10.2s-8.9,12.9-10.2,12
				s-62.4-17.7-69.2-20.4s-32.2-12.5-45.2-25.4s1.4-54.5,22-67.9c20.7-13.4,34-28.8,34.7-30.2c0.7-1.4-0.5-7,3.2-8.2s4.1-0.9,6.4-3
				s4.8-7.5,8.6-11.1s5-4.5,6.6-6.1C-30-2372.1-19.1-2380.7-19.1-2380.7"/>
			<path id="Trazado_211451" class="st10" d="M39.1-2366.3c0,0,3.4,0.2,4.8,1.4s3,7.7,3.1,8.5s-4.5,2.3-6.6,0.8
				c-2-1.5-4.9-5.6-4.9-5.6s-0.2,5.3-2.2,5.1c-1.9-0.2-11.6-1.8-15.5-2.6c-3.2-0.6-6.5-1-9.8-1.1c-4.4-0.3-20.7-3.6-24.4-5.2
				c-3.7-1.6-11.7-4.7-12.5-5.9s-3.4-1.6-1.6-2.8c1.8-1.2,9.4-7.1,11.9-7.6c2.5-0.5,1.6-1.5,4.4,0c2.8,1.5,27.5,11.6,34,12.3
				c6.6,0.7,2.7-1.2,7.7,0.9c5,2,7.3,0.9,9,1.2C37.5-2367,38.3-2366.7,39.1-2366.3"/>
			<path id="Trazado_211452" class="st11" d="M44.7-2321.8c0,0-13.6,7.8-19.3,14.8s-10.4,29.7-15.4,41.5
				c-5,11.8-41.1,77.4-40.4,85.1c1.3,15,10.8,3.9,10.8,3.9s-3.8,10.9,1.9,13.4c3,1.3,12.7-7.5,12.7-7.5s-3.2,10.9,6.9,8.1
				c4.4-1.3,8.2-4.3,10.3-8.3c6.6-12.2,23.5-43.2,25.5-42.4c2.5,0.9-2.3,38.4,1.6,53.1c3.9,14.8,35.6,80,46.5,86
				c10.9,6,54,7.3,62,6.8c7.9-0.5,48.3-14.3,53.8-19.7s-38.6-22-51.8-27.2s-2-27.9-8.9-45.6s-20-50.6-20.9-59.2
				c-0.9-8.6,0.7-41.5-5.7-57s-22.7-32.1-30.9-38.2S69.4-2331.1,44.7-2321.8"/>
			<path id="Trazado_211453" class="st8" d="M12.1-2385.3c5.6,19.1-33.9,68.1-33.9,68.1s64.5-15.4,69.5-7.5
				c5,7.9-60.5,52.9-95.6,35.9c-35-17,32.1-100.1,40.6-102.1S10.7-2389.8,12.1-2385.3"/>
			<path id="Trazado_211454" class="st6" d="M-10.9-2224.3c-1.5,3-3,5.9-4.5,8.9c3.8,2.3,8.9,5.2,13.1,5.6
				c6.6,0.7,21.4,2.4,21.4,2.4c-7.4-4.8-15-9.1-22.9-12.9C-6.3-2221.5-8.6-2222.8-10.9-2224.3"/>
			<path id="Trazado_211455" class="st6" d="M84.6-2270.9c8.2-1.1,18.4-5.4,25-5.7c1.5-0.1,2.8-0.9,3.6-2.1
				c-1.9-3.9-4.1-7.7-6.7-11.2c-4.5,0.9-9.7,2.5-13.7,4.9c-8.9,5.3-18.4,11.2-18.4,11.2S76.4-2269.7,84.6-2270.9"/>
			<path id="Trazado_211456" class="st6" d="M66-2237.8c8.9-1.7,10.4-1.9,14.1-3.8c3.6-1.8,9.5-6.4,15.3-7.5s13.1-2.7,13.1-2.7
				s-14.9-0.4-18.6,0c0,0-13.4,1.4-20.9,2.7c-7.5,1.4-10.7,4.1-12.3,4.3l-7.9,1.7l-2.2,5.8c-1.2-0.2-4.9-0.6-10.9-1.2
				c-7.5-0.7-9.5,0-14.1-2.3c-4.5-2.3-13.6-5.7-13.6-5.7c2.1,3.9,5.3,7.1,9.3,9.2c6.6,3.5,6.8,1.9,12.7,3.7s14.2,4.1,14.2,4.1l2-5.8
				C48.5-2235.3,58.2-2236.3,66-2237.8"/>
			<path id="Trazado_211457" class="st6" d="M97.1-2219.3c-5,1.4-9.9,3-14.8,5c-4.1,1.6-5,1.6-10.4,2.5c-5.4,0.9-8.2,3-3,3.4
				s10.9-2.5,22.2-3.4c11.3-0.9,13.4-2.7,20.4-1.4c3.3,0.7,6.7,1.2,10.1,1.4c-0.8-2.4-1.4-4.8-1.7-7.3c0-0.2,0-0.5-0.1-0.7
				C113.3-2220.3,102.4-2220.9,97.1-2219.3"/>
			<path id="Trazado_211458" class="st6" d="M107.1-2227.7c3.6,0.1,8.6-0.1,12.6-0.4c0-2-0.1-4.1-0.1-6.4c-3.5,0.4-9.3,0.8-12.5,2.2
				C102.5-2230.2,100-2228,107.1-2227.7"/>
			<path id="Trazado_211459" class="st6" d="M81.1-2176.1c9.6-2.6,14.2-4,18.9-5.6c4.8-1.6,1.8-5.3-7-4.3c0,0-9.3,0.2-17,3.2
				c-5.7,2.1-11.2,4.5-16.6,7.3c-4,2-8.6,4.1-9.9,5s-4.5,4.1-3.7,4.3c0.8,0.2,16.9-3.6,22.1-5C73-2172.6,71.5-2173.5,81.1-2176.1"/>
			<path id="Trazado_211460" class="st6" d="M96.9-2163c-5.4,3.1-12,2.9-11.1,6.5c0.9,3.6,8.9-1.1,20.2-3.9s14.8-3,20.7-4.3
				c4-0.9,8.3-1.8,11.4-2.6c-0.9-2.4-1.9-5-3-7.6c-5.9,1.2-14.4,3.1-18.7,4.8C109.3-2167.4,102.3-2166.1,96.9-2163"/>
			<path id="Trazado_211461" class="st6" d="M116.4-2142.9c5.9-1.1,13.4-10-1.7-7.9c0,0-28.9,3.6-35,5.9s-15.9,5-15.7,8.6
				c0.2,3.6,16.3-1.6,26.8-2C101.2-2138.8,110.5-2141.8,116.4-2142.9"/>
			<path id="Trazado_211462" class="st6" d="M129.9-2090.8c0,0-27.7,9-33.3,12.4c-2.6,1.6-6,3.4-8.8,5.3c3.4,1.2,6.8,2.1,10.4,2.6
				c3.5-1.4,7-2.6,10.6-3.5c10.2-2.4,14.9-9.4,20.5-11.6C134.8-2087.8,148.5-2095.2,129.9-2090.8"/>
			<path id="Trazado_211463" class="st8" d="M41.2-2326.7c0,0,7.7-2.6,9.8-2.6c2.1,0,13.4,5.1,13.1,5.8c-0.7,1.9-9-1.3-9-1.3
				s7.6,4.1,7.4,5.2c-0.2,1.2-0.9,1.3-0.9,1.3c0.2,0.7-0.1,1.4-0.7,1.8c-0.7,0.5-7.7-1.2-7.7-1.2c1.6,0.6,3,1.4,4.4,2.4
				c1.5,1.2-4.1-0.2-6.6-0.5c-2.5-0.3-7.4,1.8-12.2,1.4c-4.8-0.4-7.2-2.3-7.2-3.7S37.7-2325.6,41.2-2326.7"/>
			<path id="Trazado_211464" class="st12" d="M82.8-2101.4c-0.9,0-1.7-0.7-1.8-1.6c0-0.9,0.7-1.7,1.7-1.8c1.4-0.2,20.2-3.9,34-7
				c13.9-3.1,28.9-6.5,29-6.6c0.9-0.2,1.8,0.4,2,1.3c0.2,0.9-0.4,1.8-1.3,2c-0.2,0-15.1,3.4-29,6.6
				C105.1-2105.7,83.9-2101.4,82.8-2101.4 M82.8-2104.8C82.8-2104.8,82.7-2104.8,82.8-2104.8L82.8-2104.8L82.8-2104.8z"/>
			<path id="Trazado_211465" class="st12" d="M37.6-2211.5c-0.9,0-1.7-0.8-1.7-1.7c0-0.2,0.1-0.5,0.1-0.7
				c0.1-0.3,11.3-25.4,12.7-37.5c1.5-12.3,3.2-22.6,3.2-22.7c0.2-0.9,1-1.6,2-1.4c0.9,0.2,1.6,1,1.4,2c0,0.1-1.7,10.3-3.2,22.6
				c-1.5,12.5-12.5,37.4-13,38.4C38.9-2211.9,38.3-2211.5,37.6-2211.5"/>
			<path id="Trazado_211466" class="st13" d="M63.2-2302.3c-0.8,0-1.4-0.6-1.4-1.4c0-0.4,0.2-0.8,0.5-1l15.9-14.3
				c0.6-0.5,1.4-0.4,1.9,0.1c0.5,0.6,0.4,1.4-0.1,1.9l-15.9,14.3C63.8-2302.4,63.5-2302.3,63.2-2302.3"/>
			<path id="Trazado_211467" class="st13" d="M84.5-2309.1c-0.1,0-0.1,0-0.2,0l-25.4-3.8c-0.7-0.1-1.2-0.8-1.1-1.6
				c0.1-0.7,0.8-1.2,1.5-1.1l25.4,3.8c0.7,0.1,1.3,0.8,1.1,1.5C85.7-2309.6,85.2-2309.1,84.5-2309.1"/>
			<path id="Trazado_211468" class="st13" d="M98.8-2292.9c0,0-0.1,0-0.1,0l-32.6-3.6c-0.7-0.1-1.3-0.7-1.2-1.5s0.7-1.3,1.5-1.2
				c0,0,0,0,0,0l32.6,3.6c0.7,0.1,1.3,0.8,1.2,1.5C100.1-2293.4,99.5-2292.9,98.8-2292.9"/>
			<path id="Trazado_211469" class="st13" d="M77.8-2282.9c-0.8,0-1.4-0.6-1.4-1.4c0-0.2,0.1-0.5,0.2-0.7l12.1-20.4
				c0.4-0.7,1.2-0.9,1.9-0.5c0.7,0.4,0.9,1.2,0.5,1.9c0,0,0,0,0,0.1l-12.1,20.4C78.7-2283.2,78.2-2282.9,77.8-2282.9"/>
			<path id="Trazado_211470" class="st7" d="M115.8-2396.4c-1.3-1.3-2.4-2.7-3.3-4.3c-1.2-2.4,0.4-4.5,0.9-6.1s1.1-1.1,1.7,0
				s-0.2,2.7,0.6,3.8c0.3,0.4,3.1,1.1,3.1-0.7c0-1.9-2.9-2.7-3.4-4.6s0.7-1.9,1.4-1c0.6,1,4.2,0.8,4.6,1.1s1.8-0.5,2.9,0
				c1.1,0.5,3.3,4.1,4.1,5.8c0.7,1.7-6.2,8.8-7.5,9.2S116-2394.8,115.8-2396.4"/>
			<path id="Trazado_211471" class="st13" d="M71.9-2318.7c-0.8,0-1.4-0.6-1.4-1.4c0-0.4,0.2-0.8,0.5-1c11.3-10.3,20.8-22.4,28-35.9
				c9-17.1,17.4-44.6,17.5-44.9c0.3-0.7,1-1.1,1.7-0.8c0.7,0.2,1,0.9,0.9,1.6c-0.1,0.3-8.6,28-17.7,45.4
				c-7.4,13.8-17,26.2-28.6,36.8C72.5-2318.8,72.2-2318.7,71.9-2318.7"/>
			<path id="Trazado_211472" class="st4" d="M109.5-2419.6c0.9,1.4,1.7,2.8,2.5,4.2l2.5,4.2l2.5,4.2c0.8,1.4,1.7,2.8,2.5,4.2
				c0.4,0.8,0.2,1.7-0.6,2.2c-0.8,0.4-1.7,0.2-2.2-0.6c0-0.1-0.1-0.1-0.1-0.2c-0.6-1.5-1.2-3-1.8-4.5l-1.8-4.5l-1.8-4.5
				C110.7-2416.6,110.1-2418.1,109.5-2419.6"/>
			<path id="Trazado_211473" class="st8" d="M26.2-2416L13-2401.7c-2.2,2.4-0.7,12.6,5.8,12.9c1.9,0.1,3.4-4.5,4.5-8l6.3-12.7
				L26.2-2416z"/>
			<path id="Trazado_211474" class="st8" d="M29-2424.1c0,0-1.8,2.5-3.5,5.7c-2.6,4.7-0.8,8.6,3.5,11.8c4.2,3.1,6.3,3.1,9.1,0.5
				c0.9-0.8,1.6-1.7,2.2-2.7c1.3-2.4,1.9-5.1,1.9-7.8c0.1-1.3,0.2-2.5,0.4-3.7c0.4-5.3-2.1-7.1-6.9-5.3
				C34.6-2425.2,34.2-2424.6,29-2424.1"/>
			<path id="Trazado_211475" class="st8" d="M26.6-2420.2c-0.1-0.6-0.1-1.3,0-1.9c0.1-1.2,0-3-1.9-2.3c-2.8,1-3,7.6,0,8.3
				C26.9-2415.5,26.8-2418.6,26.6-2420.2"/>
			<path id="Trazado_211476" class="st14" d="M37.8-2414c-0.2-0.1-0.2-0.3-0.1-0.4c0.1-0.1,0.2-0.2,0.4-0.1c1,0.4,1.3-0.4,1.4-0.4
				c0.1-0.2,0.3-0.2,0.4-0.2c0.2,0.1,0.2,0.2,0.2,0.4C39.6-2413.9,38.7-2413.6,37.8-2414C37.8-2413.9,37.8-2413.9,37.8-2414
				C37.8-2414,37.8-2414,37.8-2414"/>
			<path id="Trazado_211477" class="st6" d="M36.3-2418.8c-0.2,0.4-0.5,0.6-0.8,0.5c-0.2-0.1-0.3-0.5-0.1-0.9
				c0.2-0.4,0.5-0.6,0.8-0.5C36.4-2419.6,36.4-2419.2,36.3-2418.8"/>
			<path id="Trazado_211478" class="st6" d="M42-2416.9c-0.2,0.4-0.5,0.6-0.8,0.5c-0.2-0.1-0.3-0.5-0.1-0.9c0.2-0.4,0.5-0.6,0.8-0.5
				S42.2-2417.3,42-2416.9"/>
			<path id="Trazado_211479" class="st15" d="M34.1-2414c0.4,1.6,1.6,2.9,3,3.5c2.4,1,3.8-1.4,3.8-1.4L34.1-2414z"/>
			<path id="Trazado_211480" class="st14" d="M31-2407.8c2.2,0.9,4.5,1.5,6.8,1.9c-2.6,2.3-4.7,2.3-8.8-0.7
				c-0.2-0.2-0.4-0.3-0.6-0.5l-1.9,3.8c-2.2-3.1-2-9.1-2-9.1C26.4-2410.5,28.6-2409,31-2407.8"/>
			<path id="Trazado_211481" class="st6" d="M34-2421.8c1.1-0.4,2.1-0.7,3.1,0.2c0.2,0.1,0.2,0.4,0.1,0.5c-0.1,0.1-0.2,0.2-0.4,0.1
				c-0.9-0.3-1.9-0.3-2.8-0.2C33.5-2421,33.3-2421.6,34-2421.8"/>
			<path id="Trazado_211482" class="st6" d="M42.8-2419.8c-0.4-0.5-1-0.9-1.6-0.9c-0.4-0.1-0.8,0.2-0.4,0.5c1.2,0.9,1.2,0.7,1.7,1.2
				C42.8-2418.6,43.2-2419.2,42.8-2419.8"/>
			<path id="Trazado_211483" class="st16" d="M-73-2272c0-1.6-1-3-2.5-3.6c-1.3-0.5-3.1-0.9-4.4-0.2c-2.4,1.2,1.5,9.5,3.6,8.3
				C-74.9-2268.4-73-2269.9-73-2272"/>
			<path id="Trazado_211484" class="st16" d="M-80.7-2263c0-1.2-0.7-2.2-1.8-2.6c-1-0.5-2.2-0.6-3.2-0.2c-1.7,0.9,1.1,6.9,2.6,6
				C-82.1-2260.4-80.8-2261.4-80.7-2263"/>
			<path id="Trazado_211485" class="st16" d="M-94.1-2293c0-1.2-0.7-2.2-1.8-2.6c-1-0.5-2.2-0.6-3.2-0.2c-1.7,0.9,1.1,6.9,2.6,6
				C-95.5-2290.4-94.2-2291.4-94.1-2293"/>
			<path id="Trazado_211486" class="st16" d="M-45-2282.2c0,0-4-0.5-4.8,1.4s2.2,9,4.8,7.4C-42.4-2275.1-41-2281.9-45-2282.2"/>
			<path id="Trazado_211487" class="st16" d="M-6.6-2262.8c0,0-4-0.5-4.8,1.4s2.2,9,4.8,7.4C-4-2255.6-2.7-2262.4-6.6-2262.8"/>
			<path id="Trazado_211488" class="st16" d="M-39-2248.5c0,0-0.1-2.8-3.5,0s-0.9,6.8,1.8,5.8S-39-2248.5-39-2248.5"/>
			<path id="Trazado_211489" class="st16" d="M-67.8-2313.2c0,0-0.1-2.8-3.5,0c-3.4,2.8-0.9,6.8,1.8,5.8
				C-66.9-2308.4-67.8-2313.2-67.8-2313.2"/>
			<path id="Trazado_211490" class="st16" d="M4.5-2332.8c0,0-0.1-2.8-3.5,0c-3.4,2.8-0.9,6.8,1.8,5.8
				C5.4-2328,4.5-2332.8,4.5-2332.8"/>
			<path id="Trazado_211491" class="st16" d="M33.7-2345.8c0,0-0.1-2.8-3.5,0c-3.4,2.8-0.9,6.8,1.8,5.8
				C34.6-2341.1,33.7-2345.8,33.7-2345.8"/>
			<path id="Trazado_211492" class="st16" d="M10.4-2351.5c0,0-0.1-2.8-3.5,0c-3.4,2.8-0.9,6.8,1.8,5.8
				C11.3-2346.8,10.4-2351.5,10.4-2351.5"/>
			<path id="Trazado_211493" class="st17" d="M-32.2-2268.3c-1.3,0-2.4-1.1-2.4-2.4c0-1.2,0.9-2.2,2.1-2.4
				c12.5-1.4,33.4-9.3,33.6-9.4c1.2-0.5,2.6,0.2,3.1,1.4c0.5,1.2-0.2,2.6-1.4,3.1c-0.9,0.3-21.7,8.2-34.7,9.7
				C-32-2268.3-32.1-2268.3-32.2-2268.3"/>
			<path id="Trazado_211494" class="st14" d="M-44.2-2306.5c-0.8,0-1.4-0.6-1.4-1.4c0-0.5,0.3-1,0.8-1.3l22.3-9.3
				c0.7-0.3,1.5,0,1.8,0.7c0.3,0.7,0,1.5-0.7,1.8l0,0l-22.3,9.3C-43.8-2306.5-44-2306.5-44.2-2306.5"/>
			<path id="Trazado_211495" class="st14" d="M66.5-2334.2c-0.7,0-1.3-0.5-1.3-1.2c-0.7-4.9,0-9.9,2-14.5c0.3-0.7,1.2-0.9,1.8-0.6
				c0.7,0.3,0.9,1.2,0.6,1.8l0,0c-1.8,4.1-2.4,8.5-1.8,12.9c0.1,0.7-0.4,1.4-1.2,1.5C66.6-2334.2,66.6-2334.1,66.5-2334.2"/>
		</g>
	</g>
</g>
</svg>
