<svg xmlns="http://www.w3.org/2000/svg" xmlns:xlink="http://www.w3.org/1999/xlink" width="610" height="293" viewBox="0 0 610 293">
  <defs>
    <clipPath id="clip-path">
      <rect id="Rectángulo_49390" data-name="Rectángulo 49390" width="118.404" height="260.543" fill="none"/>
    </clipPath>
    <clipPath id="clip-path-2">
      <rect id="Rectángulo_49416" data-name="Rectángulo 49416" width="127.829" height="260.543" fill="none"/>
    </clipPath>
    <clipPath id="clip-path-4">
      <rect id="Rectángulo_49391" data-name="Rectángulo 49391" width="10.873" height="9.568" fill="none"/>
    </clipPath>
    <clipPath id="clip-path-5">
      <rect id="Rectángulo_49392" data-name="Rectángulo 49392" width="12.657" height="4.012" fill="none"/>
    </clipPath>
    <clipPath id="clip-path-6">
      <rect id="Rectángulo_49393" data-name="Rectángulo 49393" width="3.444" height="30.902" fill="none"/>
    </clipPath>
    <clipPath id="clip-path-7">
      <rect id="Rectángulo_49394" data-name="Rectángulo 49394" width="10.986" height="37.097" fill="none"/>
    </clipPath>
    <clipPath id="clip-path-8">
      <rect id="Rectángulo_49395" data-name="Rectángulo 49395" width="6.893" height="22.875" fill="none"/>
    </clipPath>
    <clipPath id="clip-path-9">
      <rect id="Rectángulo_49396" data-name="Rectángulo 49396" width="4.129" height="32.491" fill="none"/>
    </clipPath>
    <clipPath id="clip-path-10">
      <rect id="Rectángulo_49397" data-name="Rectángulo 49397" width="24.915" height="3.971" fill="none"/>
    </clipPath>
    <clipPath id="clip-path-11">
      <rect id="Rectángulo_49398" data-name="Rectángulo 49398" width="19.899" height="4.382" fill="none"/>
    </clipPath>
    <clipPath id="clip-path-12">
      <rect id="Rectángulo_49399" data-name="Rectángulo 49399" width="3.311" height="28.059" fill="none"/>
    </clipPath>
    <clipPath id="clip-path-13">
      <rect id="Rectángulo_49400" data-name="Rectángulo 49400" width="5.953" height="2.821" fill="none"/>
    </clipPath>
    <clipPath id="clip-path-14">
      <rect id="Rectángulo_49401" data-name="Rectángulo 49401" width="4.045" height="1.657" fill="none"/>
    </clipPath>
    <clipPath id="clip-path-15">
      <rect id="Rectángulo_49402" data-name="Rectángulo 49402" width="11.106" height="8.764" fill="none"/>
    </clipPath>
    <clipPath id="clip-path-16">
      <rect id="Rectángulo_49403" data-name="Rectángulo 49403" width="4.643" height="6.238" fill="none"/>
    </clipPath>
    <clipPath id="clip-path-17">
      <rect id="Rectángulo_49404" data-name="Rectángulo 49404" width="6.763" height="10.101" fill="none"/>
    </clipPath>
    <clipPath id="clip-path-18">
      <rect id="Rectángulo_49405" data-name="Rectángulo 49405" width="3.768" height="11.175" fill="none"/>
    </clipPath>
    <clipPath id="clip-path-19">
      <rect id="Rectángulo_49406" data-name="Rectángulo 49406" width="7.037" height="8.383" fill="none"/>
    </clipPath>
    <clipPath id="clip-path-20">
      <rect id="Rectángulo_49407" data-name="Rectángulo 49407" width="20.221" height="8.14" fill="none"/>
    </clipPath>
    <clipPath id="clip-path-21">
      <rect id="Rectángulo_49408" data-name="Rectángulo 49408" width="7.598" height="29.342" fill="none"/>
    </clipPath>
    <clipPath id="clip-path-22">
      <rect id="Rectángulo_49409" data-name="Rectángulo 49409" width="7.821" height="28.344" fill="none"/>
    </clipPath>
    <clipPath id="clip-path-23">
      <rect id="Rectángulo_49410" data-name="Rectángulo 49410" width="5.54" height="1.402" fill="none"/>
    </clipPath>
    <clipPath id="clip-path-24">
      <rect id="Rectángulo_49411" data-name="Rectángulo 49411" width="4.758" height="1.961" fill="none"/>
    </clipPath>
    <clipPath id="clip-path-25">
      <rect id="Rectángulo_49412" data-name="Rectángulo 49412" width="4.249" height="7.598" fill="none"/>
    </clipPath>
    <clipPath id="clip-path-26">
      <rect id="Rectángulo_49413" data-name="Rectángulo 49413" width="9.736" height="2.833" fill="none"/>
    </clipPath>
    <clipPath id="clip-path-27">
      <rect id="Rectángulo_49414" data-name="Rectángulo 49414" width="4.734" height="25.119" fill="none"/>
    </clipPath>
    <clipPath id="clip-path-28">
      <path id="Trazado_211866" data-name="Trazado 211866" d="M159.4,143.072c-.615,0,.077.3.615,4.84,1.368,11.548,2.822,20.768,2.919,27.35.134,9.091-.67,11.8-.153,21.972.635,12.513,2.067,12.654,1.844,20.743-.153,5.53-.858,6.755-4.3,23.816-4.216,20.883-4.148,23.939-3.995,23.97.134.027.608-2.214,1.271-4.456s1.521-4.493,2.417-4.456c1.842.077,1.523,9.715,5.531,10.909,1.347.4,2.455-.368,3.611-1.136,1.123-.747,2.29-1.494,3.764-1.168,4.23.934,4.017,9.163,8.144,9.987,1.437.287,2.6-.483,3.672-1.254,1.121-.809,2.135-1.617,3.243-1.2,3.562,1.329,1.536,12.855,4.609,13.675.808.216,1.613-.4,2.478-1.025.922-.661,1.913-1.321,3.054-.973,1.66.506,1.449,2.482,2.766,2.765,2.025.436,4.309-3.849,9.68-7.836.609-.452,2.129-1.719,2.766-.922.615.768,1.69,3.841,2.151,2.458s3.534-19.053,3.534-23.611-4.3-32.626-4.739-35.852-2.011-32.59-1.874-33.957-5.219.307-9.089-2.766-6.233-7.76-8.422-10.064-6.3-.077-10.856-2.382-16.465-21.7-18.027-28.838c-.139-.634-1.467-.8-2.9-.8-1.623,0-3.383.216-3.709.216" transform="translate(-156.278 -142.856)" fill="none"/>
    </clipPath>
    <clipPath id="clip-path-29">
      <rect id="Rectángulo_49417" data-name="Rectángulo 49417" width="293.125" height="205.434" fill="none"/>
    </clipPath>
  </defs>
  <g id="Grupo_172395" data-name="Grupo 172395" transform="translate(-810 -1924)">
    <rect id="Rectángulo_215659" data-name="Rectángulo 215659" width="610" height="293" transform="translate(810 1924)" fill="#d3e6c3"/>
    <g id="Grupo_172394" data-name="Grupo 172394" transform="translate(23.114 217)">
      <g id="Grupo_170544" data-name="Grupo 170544" transform="translate(1253.34 1734)">
        <g id="Grupo_170543" data-name="Grupo 170543" clip-path="url(#clip-path)">
          <path id="Trazado_211728" data-name="Trazado 211728" d="M134.306,291.744c-8.706,6.465-17.24,15.212-20.333,23.532s8.014,17.155,14.727,12.631,5.606-36.163,5.606-36.163" transform="translate(-81.937 -210.725)" fill="#4e0c09"/>
          <path id="Trazado_211729" data-name="Trazado 211729" d="M166.5,33.277c.738-1.546,2.156-2.524,2.959-4,.854-1.565-.836-3.457-.685-5.184.121-1.37.731-2.606.9-3.936-.784-.926-2.424-3.056-2.306-4.556.155-1.965,4.4-5.584,4.72-6.123a11.3,11.3,0,0,0,1.478-4.4c.155-1.965,3.723-4.225,5.754-4.912A3.678,3.678,0,0,1,180.294,0a33.32,33.32,0,0,1-.007,8.149c-.76-.076-1.356-.1-1.588-.121-.842-.067,0,0-.436,1.943s-.761,2.482-3.162,4.269-1.906,2.674-1.906,2.674l9.187,15.978,1.37,7.024s-2.992,7.147-7.867,4.5-7.053-7.99-6.418-10.169a19.812,19.812,0,0,1,2.913-5.508,11.347,11.347,0,0,1-1.823-2.059,3.753,3.753,0,0,1,.358,1.881c-.158,1.384-1.246,2.36-2.1,3.356a8.335,8.335,0,0,0-2.041,5.95c.029.748-1.112.739-1.158,0a9.214,9.214,0,0,1,.882-4.592" transform="translate(-119.608)" fill="#4a3333"/>
          <path id="Trazado_211730" data-name="Trazado 211730" d="M104.856,436.39c-1.573,4.16,12.267,16.8,14.267,21.041s6.8,7.68,8.72,8.24,30.721,13.707,30.8,8.64-5.52-16.374-9.68-21.281-27.841-25.921-28.588-26.561-11.04,4.723-12.534,5.814-2.987,4.107-2.987,4.107" transform="translate(-75.647 -307.998)" fill="#a44b22"/>
          <path id="Trazado_211731" data-name="Trazado 211731" d="M118.4,920.066c.252,2.87-44.379,2.508-52.285,2.508-47.068,0-65.82.836-66.117-2.717-.229-2.745,38.331-3.135,85.4-3.135,11.043,0,32.654-.627,33,3.344" transform="translate(0 -662.116)" fill="#837894"/>
          <path id="Trazado_211732" data-name="Trazado 211732" d="M138.054,167.542c-6.135,14.461-9.86,22.1-8.956,29.168.473,3.7,7.409,5.052,10.038-.426s4.259-23.265,3.492-24.8-4.574-3.944-4.574-3.944" transform="translate(-93.15 -121.014)" fill="#c66038"/>
          <path id="Trazado_211733" data-name="Trazado 211733" d="M57.369,429.6S47.88,454.446,45.68,466.25C43.769,478.11,51.4,551.5,49.491,555.9c-2.694,6.2-20.2,9.967-19.126,12.392s32.156,1.363,32.326,0c.539-4.31-2.727-11.337-1.751-22.224,3.272-36.495,3.236-47.062,2.794-71.8-.032-1.781,1.554-5.348,2.378-6.927,5.813-11.149,9.832-25.5,9.832-25.5Z" transform="translate(-21.898 -310.294)" fill="#da7142"/>
          <path id="Trazado_211734" data-name="Trazado 211734" d="M231.479,514.085c-.253,1.911-21.122,4.053-21.982,1.957s8.818-10.422,7.844-12.76c-7.521-18.054-31.891-51.2-43.32-73.758-1.575-3.109-2.068-7.444-1.137-12.2.446-2.279,3.343-15.741,3.722-18.2,2.9-18.827,7.614-30.567,7.614-30.567l21.215-9.5s.169,10.864-.3,29.272a71.571,71.571,0,0,1-2.8,17.076c-1.895,6.892-5.752,10.872-7.021,15.738-.826,3.17-1.114,4.43-.207,6.2,4.446,8.685,12.048,23.267,16.729,34.579,4.116,9.948,13.177,36.438,14.738,39.56s5.156,10.681,4.9,12.592" transform="translate(-124.534 -259.349)" fill="#da7142"/>
          <path id="Trazado_211735" data-name="Trazado 211735" d="M138.5,449.9l-13.871-9.14a37.454,37.454,0,0,1-7.7,5.055c7.824-1.346,14.646,21.146,14.791,23.135A170.544,170.544,0,0,0,138.5,449.9" transform="translate(-84.454 -318.357)" fill="#1a1a1a"/>
          <path id="Trazado_211736" data-name="Trazado 211736" d="M199.877,519.039c.044-.173.091-.35.139-.536,1.269-4.866,5.126-8.847,7.021-15.739.045-.162.086-.329.13-.492-3.757-3.708-20.339-9.63-23.032-8.211-3.008,1.585-5.217,14.2-5.217,14.2,9.638-.371,17.957,7.525,20.959,10.773" transform="translate(-129.231 -356.703)" fill="#1a1a1a"/>
          <path id="Trazado_211737" data-name="Trazado 211737" d="M142.566,358.448c7.5,3.528,14.3,7.68,16.4,12.587,2.78-21,6.55-50.128.556-78.047q-.425-1.979-.946-4c.066-2.712-1.576-4.233-4.13-4.975-.271-.08-.554-.149-.848-.211-8.689-1.835-25.7,3.742-25.7,3.742-.2.884-.452,1.759-.74,2.635-2.135,6.481-6.513,12.952-12.111,23.572-5.714,10.839-8.64,16.907-9.867,19.361,0,0,10-3.92,14.973,1.2s5.8,14.935,4.975,19.681,8.823.4,17.441,4.454" transform="translate(-75.969 -204.722)" fill="#f4b44e"/>
          <path id="Trazado_211738" data-name="Trazado 211738" d="M274.788,174.325l.063.131a.711.711,0,0,1-.056-.047Z" transform="translate(-198.478 -125.914)" fill="#e94550"/>
          <path id="Trazado_211739" data-name="Trazado 211739" d="M157.143,135.5c3.612-2.491,12.845-4.373,12.9-4.355-2.447,3.643-4.518,11.169,1.034,13.117,0,0,7.779-11.57,12.934-13.035,1.333-.379,11.429.6,13.483,6.269,1.815,5.01.411,17.938,0,19.252s-3.465,8.159-3.465,8.159c-.281,1.123-4.387,5.953-2.316,17.464a189.814,189.814,0,0,1-23.314-.942c-4.413-.543-7.477-1.315-8.445-2.447a15.687,15.687,0,0,0,.945-3.8c.486-5.145.976-10.891-3.017-15.853-1.336-1.66-.536-4.057-1.479-5.259a36.806,36.806,0,0,0-6.245-6.162c.822-4.437,4.6-10.764,6.984-12.407" transform="translate(-108.459 -94.728)" fill="#f4b44e"/>
          <path id="Trazado_211740" data-name="Trazado 211740" d="M291.563,140.822a9.7,9.7,0,0,0-4.912,2.865.322.322,0,0,0,.5.4,9.3,9.3,0,0,1,5.3-2.815c-.292-.157-.588-.307-.887-.452" transform="translate(-206.995 -101.715)" fill="#776d3a"/>
          <path id="Trazado_211741" data-name="Trazado 211741" d="M216.915,87.251c-2.194,1.784-9.282,9.73-12.218,9.748-3.841.024-5.685-8.441-7.161-12.574,1.028-.743,5.94-1.657,6.263-1.983a3.677,3.677,0,0,0,.668-1.9c.011-.073.022-.149.033-.225a14.17,14.17,0,0,0-.572-4.682c-.017-.062-.026-.1-.026-.1l1.95-2.283,7.419-9.172,9.12,18.171a37.619,37.619,0,0,1-5.476,4.993" transform="translate(-142.679 -46.29)" fill="#da7142"/>
          <path id="Trazado_211742" data-name="Trazado 211742" d="M220.234,97.2c.009-.074.017-.15.025-.226a14.177,14.177,0,0,0-.725-4.661l1.845-2.44,5.938-2.7A8.69,8.69,0,0,1,220.234,97.2" transform="translate(-158.569 -62.967)" fill="#1a1a1a"/>
          <path id="Trazado_211743" data-name="Trazado 211743" d="M255.529,59.477m.015-.334h0Zm-.012.334h0" transform="translate(-184.567 -42.719)" fill="#f0404c"/>
          <path id="Trazado_211744" data-name="Trazado 211744" d="M192.218,32.612c.294,1.663-1.67,13.99,6.852,15.352,3.635.581,7.954-2.412,9.952-6.4.666-1.329.7-5.311.7-5.311s4.072.087,2.863-4.073c-.592-2.038-2.673-2.749-3.709-1.579a7.723,7.723,0,0,0-1.311,2.327s.985-4.5-.132-7.024a7.61,7.61,0,0,0-1.813-2.212c-3.579-1.039-9.946-2.672-13.393,3.868a19.463,19.463,0,0,0-.011,5.049" transform="translate(-138.715 -16.411)" fill="#da7142"/>
          <path id="Trazado_211745" data-name="Trazado 211745" d="M225.842,63.311a.554.554,0,0,1,.514-.219h.069a.121.121,0,0,1,.025,0c.009,0,.015,0,.024.006.707.086,1.013,1.1.741,1.664a.52.52,0,0,1-.186.334.568.568,0,0,1-.374.1.123.123,0,0,1-.035.015.689.689,0,0,1-.726-.44,1.187,1.187,0,0,1-.053-1.455" transform="translate(-162.962 -45.567)" fill="#1a1a1a"/>
          <path id="Trazado_211746" data-name="Trazado 211746" d="M194.56,67.065a.768.768,0,0,1,1.19-.113.831.831,0,0,1,.1.1.72.72,0,0,1,.183.421c0,.019,0,.037,0,.055s0,.011,0,.017a1.684,1.684,0,0,1-.154.784c-.251.442-.862.355-1.208-.055a1.072,1.072,0,0,1-.115-1.211" transform="translate(-140.431 -48.194)" fill="#1a1a1a"/>
          <path id="Trazado_211747" data-name="Trazado 211747" d="M209.851,80.76a.391.391,0,0,1,.476-.37l.712.16a.561.561,0,0,1,.415.562.391.391,0,0,1-.476.37l-.712-.16a.561.561,0,0,1-.414-.562" transform="translate(-151.574 -58.058)" fill="#c0562b"/>
          <path id="Trazado_211748" data-name="Trazado 211748" d="M220.024,46.54c.51-.431.43-.425.966-.833s1.141-.771,1.7-1.168c.505-.358,1.131.265.621.626-.559.4-1.159.752-1.7,1.167s-.456.4-.966.834c-.47.4-1.092-.229-.621-.626" transform="translate(-158.801 -32.092)" fill="#4a3333"/>
          <path id="Trazado_211749" data-name="Trazado 211749" d="M195.813,286.81c-.174-.211-2.084.572-2.153,1.631-.046.707.768.915.848,1.892.066.8-.455,1.005-.457,1.762,0,1.4,1.786,2.627,2.088,2.414.234-.165-.617-1.061-.326-2.284.225-.945.886-1.051.848-1.7-.056-.96-1.545-1.153-1.632-2.153-.073-.839.914-1.407.783-1.566" transform="translate(-139.878 -207.136)" fill="#4e0c09"/>
          <path id="Trazado_211750" data-name="Trazado 211750" d="M211.051,274.786c.039-.467,1.582-1.087,2.74-.587.9.389.815,1.132,2.153,2.153.859.656,1.054.47,1.5.979a3.424,3.424,0,0,1,.588,3.328c-.4,1-1.093.948-1.632,2.284-.28.694-.242,1.079-.522,1.174-.532.182-1.708-.85-1.632-1.762.1-1.2,2.335-1.617,2.219-2.349-.091-.573-1.463-.341-2.349-1.435-.612-.756-.233-1.206-.848-2.088-.871-1.25-2.257-1.247-2.219-1.7" transform="translate(-152.44 -197.919)" fill="#4e0c09"/>
          <path id="Trazado_211751" data-name="Trazado 211751" d="M206.8,310.785c-.124-.472.9-1.224,1.827-1.5,1.1-.327,2.481-.116,2.61.392.11.435-.716,1.033-1.305,1.3-1.278.589-2.988.352-3.132-.2" transform="translate(-149.36 -223.281)" fill="#4e0c09"/>
          <path id="Trazado_211752" data-name="Trazado 211752" d="M261.6,256.285c.231-.145-.3-2.141-1.342-2.345-.695-.136-1.006.645-1.985.6-.8-.038-.938-.58-1.689-.679-1.392-.183-2.835,1.435-2.662,1.761.134.253,1.131-.476,2.307-.031.908.344.929,1.013,1.574,1.059.959.068,1.342-1.384,2.345-1.342.842.036,1.279,1.087,1.453.978" transform="translate(-183.395 -183.351)" fill="#4e0c09"/>
          <path id="Trazado_211753" data-name="Trazado 211753" d="M264.692,273.467c.457.1.875,1.708.231,2.793-.5.846-1.227.663-2.412,1.86-.761.769-.6.985-1.163,1.363a3.424,3.424,0,0,1-3.376.156c-.939-.522-.8-1.2-2.056-1.911-.653-.367-1.039-.379-1.1-.668-.113-.551,1.062-1.584,1.956-1.392,1.18.254,1.3,2.523,2.045,2.5.58-.017.526-1.407,1.725-2.146.828-.51,1.225-.076,2.18-.573,1.351-.7,1.526-2.078,1.967-1.983" transform="translate(-184.049 -197.52)" fill="#4e0c09"/>
          <path id="Trazado_211754" data-name="Trazado 211754" d="M250.972,264.367c.483-.062,1.1,1.048,1.254,2,.183,1.129-.2,2.476-.723,2.539-.445.054-.933-.842-1.127-1.462-.421-1.343.034-3.009.6-3.081" transform="translate(-180.726 -190.949)" fill="#4e0c09"/>
          <path id="Trazado_211755" data-name="Trazado 211755" d="M181.361,196a1.5,1.5,0,0,0-1.827.391c-.82.965-.064,3.006.587,4.764.494,1.333.813,1.676.718,2.48-.136,1.141-.894,1.415-.848,2.349.063,1.3,1.6,2.349,1.892,2.153s-.859-1.452-.392-2.675c.5-1.307,2.295-1.144,2.48-2.088.23-1.174-2.487-1.75-2.936-3.915-.344-1.657.913-2.938.326-3.458" transform="translate(-129.417 -141.446)" fill="#4e0c09"/>
          <path id="Trazado_211756" data-name="Trazado 211756" d="M192.885,199.39c-.5.589.123,1.7.2,1.827.532.919,1.728,1.645,2.284,1.305.642-.392.594-2.311-.457-3.067-.585-.421-1.6-.565-2.023-.065" transform="translate(-139.179 -143.789)" fill="#4e0c09"/>
          <path id="Trazado_211757" data-name="Trazado 211757" d="M200.87,219.714c.23.04.418,1.079.131,2.023-.531,1.746-2.615,2.939-3.132,2.545-.369-.281-.136-1.521.522-2.219.5-.535.93-.4,1.566-1.044.66-.667.724-1.338.913-1.3" transform="translate(-142.793 -158.697)" fill="#4e0c09"/>
          <path id="Trazado_211758" data-name="Trazado 211758" d="M244.113,191.582a1.5,1.5,0,0,0-.183,1.86c.669,1.075,2.844.976,4.717.89,1.42-.065,1.844-.265,2.58.071,1.045.476,1.076,1.282,1.979,1.523,1.254.334,2.725-.81,2.627-1.147s-1.644.376-2.668-.441c-1.093-.873-.392-2.534-1.234-3-1.049-.577-2.424,1.837-4.623,1.606-1.683-.177-2.521-1.763-3.2-1.363" transform="translate(-176.023 -138.139)" fill="#4e0c09"/>
          <path id="Trazado_211759" data-name="Trazado 211759" d="M250.381,181.606c.408.658,1.658.4,1.8.37,1.037-.227,2.092-1.146,1.938-1.778-.178-.731-2.02-1.269-3.06-.5-.579.429-1.024,1.348-.678,1.907" transform="translate(-180.761 -129.524)" fill="#4e0c09"/>
          <path id="Trazado_211760" data-name="Trazado 211760" d="M274.044,178.247c.108-.207,1.154-.07,1.967.491,1.5,1.037,2,3.386,1.471,3.758-.38.265-1.49-.333-1.955-1.172-.356-.644-.1-1.008-.518-1.81-.435-.832-1.054-1.1-.965-1.267" transform="translate(-197.934 -128.681)" fill="#4e0c09"/>
          <path id="Trazado_211761" data-name="Trazado 211761" d="M194.507,57.371a2.224,2.224,0,0,1,1.308.651c.415.352-.161,1.155-.581.8a1.589,1.589,0,0,0-.871-.509c-.566-.046-.423-.987.145-.941" transform="translate(-140.127 -41.437)" fill="#4a3333"/>
          <path id="Trazado_211762" data-name="Trazado 211762" d="M208.836,90.71a.164.164,0,0,0-.006.037c-.013.253.53.584.71.706a7.142,7.142,0,0,0,1.245.67,2.783,2.783,0,0,0,1.148.347.271.271,0,0,0,.24-.022.857.857,0,0,0,.326-.535,7.126,7.126,0,0,0,.229-1.313c.012-.113-.021-.251-.129-.287a.325.325,0,0,0-.218.034,6.073,6.073,0,0,1-2.429.335c-.212-.006-.423-.018-.634-.031-.152-.01-.438-.1-.483.06" transform="translate(-150.837 -65.226)" fill="#fff"/>
          <path id="Trazado_211763" data-name="Trazado 211763" d="M123.843,99.776c-7.688-11.167-27.186-48.345-34.7-57.493S75.21,37.1,73.562,41.238s-.529,10.96,11.183,21.8,34.8,37.047,36.874,38.734,3.914.454,2.224-2" transform="translate(-52.698 -26.523)" fill="#a44b22"/>
          <path id="Trazado_211764" data-name="Trazado 211764" d="M96.522,100.339c-.418-2.227-1.842-4.08-5.189-6.4a62.1,62.1,0,0,1-5.85-4.7c-.665-.562-.672-2.118-.329-3.671s.3-3.3.912-3.621,1.369-.136,1.475.391-.007-1.289.587-1.595c.491-.252,1.3-.263,1.412.376a14.523,14.523,0,0,1,.17,1.778s.127-1.038.788-1.011.986.306,1.118,1.14-.23,3.151-.028,3.835a9.336,9.336,0,0,0,1.854,2.688,18.589,18.589,0,0,1-1.088-2.4,3.755,3.755,0,0,1,.806-2.911.647.647,0,0,1,1.177.519,4.378,4.378,0,0,0-.129,2.391,7.822,7.822,0,0,0,2.658,3.435c1.709,1.216,3.51,3.023,3.807,3.863s5.5,22.707,7.2,33.251c1.885,11.708-8.292,10.51-10.717,7.537-2.274-2.788-2.07-10.811-1.843-18.907s1.374-15.1,1.207-15.989" transform="translate(-61.344 -58.207)" fill="#da7142"/>
          <path id="Trazado_211765" data-name="Trazado 211765" d="M93.2,93.89a.269.269,0,0,0,.067-.058.266.266,0,0,0-.037-.375c-.624-.513-2.258-2.034-2.316-2.9a20.244,20.244,0,0,1,.422-3.795c.052-.317.106-.651.16-.993a.369.369,0,0,1-.022-.08.653.653,0,0,0-.431-.469c-.078.509-.157,1-.232,1.457a20.427,20.427,0,0,0-.428,3.915c.083,1.25,2.261,3.073,2.509,3.277a.267.267,0,0,0,.308.021" transform="translate(-65.273 -61.554)" fill="#c0562b"/>
          <path id="Trazado_211766" data-name="Trazado 211766" d="M98.963,91.877c.511.751,2.672,3.375,2.764,3.486a.266.266,0,0,0,.344.058.325.325,0,0,0,.031-.022.266.266,0,0,0,.036-.375C102.115,95,99.9,92.309,99.4,91.578c-.448-.658-.241-1.623.547-4.869a.265.265,0,0,0-.1-.277,1.918,1.918,0,0,0-.234.677s-.01-.3-.041-.7a.261.261,0,0,0-.141.172c-.831,3.424-1.044,4.448-.469,5.293" transform="translate(-71.247 -62.414)" fill="#c0562b"/>
          <path id="Trazado_211767" data-name="Trazado 211767" d="M193.586,154.652c-.737.58-1.8,3.049-1.479,4.165s1.032.662,1.032.662-.655,1.839.247,2.451c.854.579,1.609-.083,2.044-1.47,0,0-.012.155-.414,2.088-.407,1.959.21,2.225.667,2.325s1.033.161,1.1.045a4.267,4.267,0,0,0,.306,1.984c.507,1.07,1.779,1.131,2.087.719s-.081-1.521-.2-1.983.4-1.045,1.166-.747,1.351.993,1.984,2.483,3.022,2.318,4.41,3.145,8.614,11.213,13.544,13.774,9.355-.13,9.642-5.82c.156-3.08-1.054-28.075-1.2-29.252-.78-6.5-12.625-7.826-11.986,4.169.183,3.433,1.235,17.149,1.235,17.149a76.423,76.423,0,0,1-7.266-5.427c-2.695-2.42-8.247-10.7-8.993-11.47s-7.2.428-7.935,1.008" transform="translate(-138.715 -104.248)" fill="#da7142"/>
          <path id="Trazado_211768" data-name="Trazado 211768" d="M282.907,236.883c.022.323.036.51.036.51s-.255-.168-.676-.453a.247.247,0,0,0,.138.258c5.722,2.7,8.355,4.456,10.059,6.7a.251.251,0,0,0,.35.048.25.25,0,0,0,.048-.35c-1.729-2.279-4.356-4.053-9.956-6.715" transform="translate(-203.878 -171.099)" fill="#c0562b"/>
          <path id="Trazado_211769" data-name="Trazado 211769" d="M212.633,201.954h0c-2.5-.5-3.63,1.062-4.4,2.654a5.72,5.72,0,0,0-.5,1.924c.2.011.348,0,.381-.059a6.157,6.157,0,0,0,.092,1.355,6.528,6.528,0,0,1,.475-3c.986-2.038,2.1-2.729,3.851-2.381a.25.25,0,0,0,.1-.49" transform="translate(-150.043 -145.801)" fill="#c0562b"/>
          <path id="Trazado_211770" data-name="Trazado 211770" d="M206.272,192.277a.25.25,0,1,0,.028-.5c-2.152-.12-3.566.753-3.85,1.676-.141.457-.558,1.727-.85,2.61a3.249,3.249,0,0,0,.729-1.341s-.011.141-.354,1.8c.287-.867.794-2.405.953-2.921.19-.616,1.353-1.434,3.344-1.324" transform="translate(-145.614 -138.512)" fill="#c0562b"/>
          <path id="Trazado_211771" data-name="Trazado 211771" d="M199.67,184.135c-2.9.053-4.154,1.312-4.693,2.359a8,8,0,0,0-.568,1.816.657.657,0,0,0,.435-.08,4.2,4.2,0,0,0-.217,1.524.241.241,0,0,0,.056-.12,12.261,12.261,0,0,1,.739-2.911c.692-1.345,2.124-2.048,4.256-2.087a.25.25,0,1,0-.009-.5" transform="translate(-140.42 -132.999)" fill="#c0562b"/>
          <path id="Trazado_211772" data-name="Trazado 211772" d="M216.864,294.291c-7.5,0-19.4-5.488-25.526-9.8-2.188-1.542-4.863-3.772-5.181-5.639a.5.5,0,1,1,.988-.168c.2,1.175,1.939,2.993,4.77,4.987,9.505,6.7,21.786,10.363,26.864,9.468a.5.5,0,1,1,.174.988,12.067,12.067,0,0,1-2.089.168" transform="translate(-134.455 -200.987)" fill="#a44b22"/>
          <path id="Trazado_211773" data-name="Trazado 211773" d="M207.7,317.42a43.258,43.258,0,0,1-7.78-.714c-4.662-.865-13.113-3.316-17.328-10.012a.5.5,0,1,1,.848-.534c6.737,10.7,26.578,11.764,32.919,8.892a.5.5,0,0,1,.414.913,23.569,23.569,0,0,1-9.072,1.455" transform="translate(-131.83 -220.968)" fill="#a44b22"/>
          <path id="Trazado_211774" data-name="Trazado 211774" d="M213.352,136.8a6.521,6.521,0,0,1-2.471-.436c-1.4-.572-3.033-2-2.866-5.573a.5.5,0,0,1,1,.047c-.112,2.4.642,3.943,2.243,4.6,3.028,1.238,10.019-1,14.157-5.626a.5.5,0,0,1,.748.668,21.355,21.355,0,0,1-7.387,5.068,14.452,14.452,0,0,1-5.426,1.254" transform="translate(-150.24 -93.639)" fill="#a44b22"/>
          <path id="Trazado_211775" data-name="Trazado 211775" d="M181.7,13.595c.155-1.965,1.692-3.538,2.017-4.077a25.866,25.866,0,0,0,1.477-4.4C186,2.072,188.918.891,190.949.2s5.978,1.081,7.489,1.722c3.774,1.6,8.369,2.163,11,5.623.023.03.041.062.064.093a12.173,12.173,0,0,1,2.356,3.246,12.351,12.351,0,0,1,1.058,3.042c.308,1.518.131,3.182,1.041,4.509a13.168,13.168,0,0,0,3.1,2.661A17.9,17.9,0,0,1,219.8,23.61,9.138,9.138,0,0,1,222.24,30.3c-.06.693-1.117.717-1.1,0a9.269,9.269,0,0,0-3.416-7.139c-1.545-1.415-3.724-2.432-4.872-4.243s-.788-4.183-1.457-6.168c-.059-.174-.123-.346-.189-.516.287,2.041.215,4.191.349,6.176a7.811,7.811,0,0,0,.286,1.9,5.946,5.946,0,0,0,.906,1.655c1.461,1.992,3.477,3.493,5.229,5.234,2.162,2.148,3.868,5,3.586,8.144a51.5,51.5,0,0,1-1.4,7.183c-3.927-3.76-7.305-1.908-7.719-1.694-.141.073-1.921,2.023-2.449,2.386a8.169,8.169,0,0,1-1.207.731,4.958,4.958,0,0,1-5.277-1.073,6.992,6.992,0,0,1-1.787-2.869A15.947,15.947,0,0,1,202,29.572a14.5,14.5,0,0,0,.687-1.8c.065-.322-.15-.421-.367-.652a6.415,6.415,0,0,1-1.462-2.322,9.072,9.072,0,0,1,.12-5.106s-2.487-.53-2.908-5.93c-.235-3.023-7.741-5.7-8.177-3.753s-.761,2.482-3.161,4.269-1.906,2.674-1.906,2.674-3.279-1.389-3.124-3.354" transform="translate(-131.237 -0.035)" fill="#4a3333"/>
          <path id="Trazado_211776" data-name="Trazado 211776" d="M286.587,336.021c5.1,8.571-2.8,15.717-2.8,15.717s1.151-1.727,1.407-6.523a12.392,12.392,0,0,0-2.878-8.249Z" transform="translate(-203.917 -242.706)" fill="#fff"/>
          <path id="Trazado_211777" data-name="Trazado 211777" d="M282.98,336.929l3.721-1.247a.488.488,0,0,0,.308-.618l-.072-.214a.488.488,0,0,0-.618-.308l-3.721,1.247a.488.488,0,0,0-.308.618l.072.214a.488.488,0,0,0,.618.308" transform="translate(-203.878 -241.619)" fill="#4e0c09"/>
          <path id="Trazado_211778" data-name="Trazado 211778" d="M245.83,335.413c-6.5,14.234,7.036,24.036,7.036,24.036s-2.089-2.5-3.3-9.933a19.439,19.439,0,0,1,3.084-13.355Z" transform="translate(-176.287 -242.267)" fill="#fff"/>
          <path id="Trazado_211779" data-name="Trazado 211779" d="M254.461,336.178l-6.016-1.312a.766.766,0,0,1-.585-.912l.076-.345a.766.766,0,0,1,.912-.585l6.016,1.312a.766.766,0,0,1,.585.912l-.076.345a.766.766,0,0,1-.912.585" transform="translate(-179.015 -240.528)" fill="#4e0c09"/>
          <path id="Trazado_211780" data-name="Trazado 211780" d="M169.257,353.258c-.152-.548-2.982-.908-4.437.522-1.135,1.116-.415,2.32-1.7,3.654-1.019,1.06-1.778.616-2.871,1.827-.254.282-1.457,1.615-1.044,3,.293.985,1.337,1.783,1.827,1.566.684-.3-.043-2.436.783-2.871.617-.325,1.271.733,2.349.522a2.719,2.719,0,0,0,1.827-2.088c.263-1.187-.5-1.593-.392-2.61.234-2.118,3.834-2.876,3.654-3.524" transform="translate(-114.933 -254.808)" fill="#4e0c09"/>
          <path id="Trazado_211781" data-name="Trazado 211781" d="M167.45,395.448c.746-.049,1.065,1.489,1.892,1.435.6-.039.67-.855,1.827-1.631.328-.22,1.2-.8,1.632-.522.482.313.24,1.577-.065,2.349-.13.33-1.095,2.653-3.263,2.806-1.174.083-2.826-.462-3.2-1.762-.335-1.172.466-2.628,1.174-2.675" transform="translate(-120.043 -285.057)" fill="#4e0c09"/>
          <path id="Trazado_211782" data-name="Trazado 211782" d="M196.224,357.911c.321-.246,1.708.468,2.219,1.7s-.34,1.823-.261,4.046c.061,1.727.6,2.043.261,2.871-.689,1.688-3.625,2.091-3.785,1.762-.141-.29,1.915-1.076,1.827-2.219-.077-1-1.721-1.205-1.762-2.153s1.615-1.127,2.088-2.545c.534-1.6-.984-3.154-.587-3.459" transform="translate(-140.595 -258.482)" fill="#4e0c09"/>
          <path id="Trazado_211783" data-name="Trazado 211783" d="M273.55,461.183c.4-.289-.159-3.079-1.778-4.09-1.263-.789-2.036.214-3.523-.657-1.182-.692-1.048-1.532-2.376-2.256-.309-.168-1.771-.964-2.788-.207-.721.538-1.062,1.742-.734,2.152.457.572,1.992-.681,2.6-.007.455.5-.217,1.4.284,2.375a2.5,2.5,0,0,0,2.274,1.192c1.056-.061,1.158-.9,2.03-1.058,1.814-.333,3.532,2.9,4.01,2.557" transform="translate(-189.404 -327.669)" fill="#4e0c09"/>
          <path id="Trazado_211784" data-name="Trazado 211784" d="M251.384,466.415c.267.7-.9,1.406-.607,2.18.213.559.908.414,1.9,1.312.28.255,1.025.93.925,1.417-.111.542-1.226.642-1.953.555a4.074,4.074,0,0,1-3.3-2.372c-.425-1.1-.479-2.814.479-3.509a1.876,1.876,0,0,1,2.559.417" transform="translate(-179.169 -336.357)" fill="#4e0c09"/>
          <path id="Trazado_211785" data-name="Trazado 211785" d="M278.013,486.089c.3.241.134,1.75-.722,2.559s-1.6.155-3.409.813c-1.4.512-1.5,1.107-2.284,1-1.6-.213-2.823-2.9-2.6-3.143.2-.211,1.467,1.542,2.381,1.158.8-.336.469-1.956,1.237-2.244s1.418,1.243,2.729,1.321c1.479.088,2.3-1.766,2.668-1.467" transform="translate(-194.277 -351.076)" fill="#4e0c09"/>
          <path id="Trazado_211786" data-name="Trazado 211786" d="M138.96,427.685c.308-.22-.121-2.346-1.354-3.116-.962-.6-1.551.163-2.683-.5-.9-.527-.8-1.167-1.81-1.718-.235-.128-1.349-.734-2.123-.157-.55.41-.809,1.327-.559,1.639.349.436,1.517-.518,1.981-.006.347.383-.165,1.069.217,1.809a1.9,1.9,0,0,0,1.732.908c.8-.046.882-.684,1.546-.806,1.382-.254,2.69,2.207,3.055,1.947" transform="translate(-94.14 -304.771)" fill="#4e0c09"/>
          <path id="Trazado_211787" data-name="Trazado 211787" d="M122.077,431.672c.2.532-.687,1.071-.462,1.66.162.425.691.315,1.446,1,.214.194.781.709.7,1.08-.085.413-.933.489-1.488.422a3.1,3.1,0,0,1-2.514-1.807c-.324-.836-.365-2.143.364-2.673a1.429,1.429,0,0,1,1.949.317" transform="translate(-86.344 -311.389)" fill="#4e0c09"/>
          <path id="Trazado_211788" data-name="Trazado 211788" d="M176.732,435.088c-.242.706-1.59.5-1.859,1.283-.194.565.431.9.615,2.219.052.375.191,1.369-.2,1.678-.432.344-1.35-.291-1.852-.824a4.066,4.066,0,0,1-1.013-3.929c.376-1.112,1.433-2.462,2.611-2.383,1.062.072,1.924,1.286,1.695,1.956" transform="translate(-124.411 -312.846)" fill="#4e0c09"/>
          <path id="Trazado_211789" data-name="Trazado 211789" d="M142.36,446.657c.229.184.1,1.333-.55,1.949s-1.221.118-2.6.62c-1.069.39-1.142.843-1.74.763-1.218-.162-2.15-2.212-1.98-2.394.149-.16,1.118,1.174,1.814.882.611-.256.357-1.49.942-1.709s1.081.947,2.079,1.007c1.127.067,1.75-1.345,2.032-1.118" transform="translate(-97.851 -322.6)" fill="#4e0c09"/>
          <path id="Trazado_211790" data-name="Trazado 211790" d="M218.206,416.69c-.174-.211-2.084.572-2.153,1.631-.046.707.768.915.848,1.892.066.8-.455,1.005-.457,1.762,0,1.4,1.786,2.627,2.088,2.414.234-.165-.617-1.061-.326-2.284.225-.945.886-1.051.848-1.7-.056-.96-1.544-1.153-1.631-2.153-.073-.839.914-1.407.783-1.566" transform="translate(-156.052 -300.947)" fill="#4e0c09"/>
          <path id="Trazado_211791" data-name="Trazado 211791" d="M233.443,404.666c.039-.467,1.582-1.087,2.741-.587.9.39.815,1.132,2.153,2.153.859.656,1.054.47,1.5.979a3.423,3.423,0,0,1,.587,3.328c-.4,1-1.092.948-1.631,2.284-.28.694-.242,1.079-.522,1.174-.532.182-1.708-.85-1.631-1.762.1-1.2,2.335-1.617,2.218-2.349-.091-.573-1.463-.341-2.349-1.436-.612-.755-.232-1.205-.848-2.088-.871-1.249-2.257-1.247-2.219-1.7" transform="translate(-168.614 -291.73)" fill="#4e0c09"/>
          <path id="Trazado_211792" data-name="Trazado 211792" d="M229.189,440.665c-.124-.472.9-1.224,1.827-1.5,1.1-.327,2.481-.116,2.61.392.11.435-.716,1.033-1.3,1.3-1.278.589-2.988.352-3.132-.2" transform="translate(-165.535 -317.092)" fill="#4e0c09"/>
          <path id="Trazado_211793" data-name="Trazado 211793" d="M220.457,511.966c-.174-.211-2.084.572-2.153,1.631-.046.707.768.915.848,1.892.066.8-.455,1.005-.457,1.762,0,1.4,1.786,2.627,2.088,2.414.234-.165-.617-1.061-.326-2.284.225-.945.886-1.051.848-1.7-.056-.96-1.545-1.153-1.632-2.153-.073-.839.914-1.407.783-1.566" transform="translate(-157.678 -369.765)" fill="#4e0c09"/>
          <path id="Trazado_211794" data-name="Trazado 211794" d="M235.694,499.942c.039-.467,1.582-1.087,2.741-.587.9.389.814,1.132,2.153,2.153.86.656,1.054.47,1.5.979a3.424,3.424,0,0,1,.587,3.328c-.4,1-1.093.947-1.631,2.284-.28.694-.242,1.078-.522,1.174-.532.182-1.708-.85-1.631-1.762.1-1.2,2.335-1.617,2.218-2.349-.091-.573-1.463-.341-2.349-1.435-.612-.756-.233-1.206-.848-2.088-.871-1.25-2.257-1.247-2.219-1.7" transform="translate(-170.24 -360.547)" fill="#4e0c09"/>
          <path id="Trazado_211795" data-name="Trazado 211795" d="M183.268,507.218c.039-.467,1.582-1.087,2.74-.587.9.389.814,1.132,2.153,2.153.859.656,1.054.47,1.5.979a3.423,3.423,0,0,1,.587,3.328c-.4,1-1.092.948-1.631,2.284-.28.694-.242,1.079-.522,1.174-.532.182-1.708-.85-1.632-1.762.1-1.2,2.335-1.617,2.218-2.349-.091-.573-1.463-.341-2.349-1.436-.612-.755-.233-1.205-.848-2.088-.871-1.25-2.257-1.247-2.218-1.7" transform="translate(-132.373 -365.803)" fill="#4e0c09"/>
          <path id="Trazado_211796" data-name="Trazado 211796" d="M276.709,541.8c.273.38-.5,1.854-1.7,2.227-.939.29-1.355-.331-3.036-.238-1.079.06-1.107.327-1.777.231a3.425,3.425,0,0,1-2.608-2.149c-.346-1.017.215-1.43-.244-2.8-.238-.71-.517-.977-.366-1.232.286-.484,1.851-.463,2.385.28.7.98-.725,2.746-.161,3.227.442.376,1.334-.692,2.718-.435.956.177.96.765,2,1.036,1.474.384,2.526-.518,2.789-.151" transform="translate(-192.804 -388.242)" fill="#4e0c09"/>
          <path id="Trazado_211797" data-name="Trazado 211797" d="M231.44,535.941c-.124-.472.9-1.224,1.827-1.5,1.1-.327,2.481-.116,2.61.392.11.435-.716,1.033-1.305,1.3-1.278.589-2.988.352-3.132-.2" transform="translate(-167.16 -385.909)" fill="#4e0c09"/>
          <path id="Trazado_211798" data-name="Trazado 211798" d="M198.39,451.336a1.5,1.5,0,0,0-1.827.391c-.82.965-.064,3.006.587,4.763.494,1.333.813,1.676.718,2.48-.136,1.141-.894,1.415-.848,2.349.063,1.3,1.6,2.349,1.892,2.153s-.859-1.452-.392-2.675c.5-1.307,2.295-1.144,2.48-2.088.23-1.174-2.487-1.75-2.936-3.915-.344-1.657.913-2.938.326-3.458" transform="translate(-141.717 -325.871)" fill="#4e0c09"/>
          <path id="Trazado_211799" data-name="Trazado 211799" d="M209.915,454.723c-.5.589.123,1.7.2,1.827.532.919,1.728,1.645,2.284,1.305.642-.392.594-2.311-.457-3.067-.585-.421-1.6-.565-2.023-.065" transform="translate(-151.48 -328.214)" fill="#4e0c09"/>
          <path id="Trazado_211800" data-name="Trazado 211800" d="M217.9,475.047c.23.04.418,1.079.131,2.023-.531,1.746-2.615,2.939-3.132,2.545-.368-.281-.136-1.521.522-2.219.5-.535.93-.4,1.566-1.044.66-.667.724-1.338.913-1.3" transform="translate(-155.093 -343.122)" fill="#4e0c09"/>
        </g>
      </g>
      <g id="Grupo_170622" data-name="Grupo 170622" transform="translate(811.886 1734)">
        <g id="Grupo_170621" data-name="Grupo 170621" clip-path="url(#clip-path-2)">
          <g id="Grupo_170618" data-name="Grupo 170618">
            <g id="Grupo_170617" data-name="Grupo 170617" clip-path="url(#clip-path-2)">
              <path id="Trazado_211801" data-name="Trazado 211801" d="M203.049,1.048c-6.959-1.827-8.8-1.089-11.418.871s-5.391,3.54-5.555,7.678.817,5.5-.871,8.332-4.139,3.921-3.921,8.169,2.723,4.52,3.431,6.208-.49,3.7,1.307,5.446,7.515,1.579,7.733,1.361-1.5-14.649-1.595-14.812,17.533,2.832,18.441,4.193-4.7,13.067,2.641,13.067c4.34,0,2.4-12.414,3.548-12.9a5.333,5.333,0,0,0,2.886-5.446c-.436-2.941-1.743-4.193-1.906-4.956s.817-2.451.545-5.01a8.562,8.562,0,0,0-4.139-6.208c-2.069-1.144-1.144-3.812-3.376-5.228A7.793,7.793,0,0,0,204.991.5c-1.216.381-1.527.654-1.942.545" transform="translate(-132.234 0)" fill="#621406"/>
              <path id="Trazado_211802" data-name="Trazado 211802" d="M158.6,940.526c0-4.825-27.644-4.694-60.558-4.695s-50.095-.314-49.693,4c.253,2.721,17.671,3.361,50.585,3.361s59.664.406,59.666-2.667" transform="translate(-35.263 -682.668)" fill="#817892"/>
              <path id="Trazado_211803" data-name="Trazado 211803" d="M193.871,102.837s18.63,14.852,21.3,14.744,8.874-16.975,8.874-16.975-7.827-2.469-9.1-3.025a.756.756,0,0,1-.342-.239,3.865,3.865,0,0,1-.378-1.165,27.434,27.434,0,0,1-.382-2.831l-12.687-7.812s.548,11.679-.35,12.817-6.936,4.487-6.936,4.487" transform="translate(-141.425 -62.395)" fill="#e8936b"/>
              <path id="Trazado_211804" data-name="Trazado 211804" d="M233.747,112.289c3.962.332,4.842-1.326,4.956-1.584a.756.756,0,0,1-.342-.239,3.861,3.861,0,0,1-.378-1.165c-2.232-1.27-12.036-7.577-11.524-5.275.572,2.586,2.994,7.9,7.288,8.263" transform="translate(-165.184 -75.519)" fill="#1a1a1a"/>
              <path id="Trazado_211805" data-name="Trazado 211805" d="M77.407,57.008c5.212.975,11.483-2.018,15.473-1.875s4.846.213,5.558,1.033,6.841-4.169,9.264-3.6-1.425-15.678-2.28-16.533S94.444,38.287,92.95,37.8s-2.92-6.186-3.062-7.468S96.016,26.2,98.582,26.2s10.4,5.559,12.114,7.126,15.392,20.666,16.818,25.512-2.28,8.409-5.273,8.409-2.423,7.839-8.126,11.206C105.981,83.255,102,80.359,102,80.359S104.112,89.793,99.2,95c-1.754,1.857-.793,37.99-.328,39.516s-44.808,2.858-44.923-2.062-4.105-20.242-5.815-25.3c-.658-1.947-2.56-18.738-7.34-18.738a19.969,19.969,0,0,1-16.461-2.961c-6.188-4.041-6.556-8.231-6.556-8.231S-1.54,70.169.1,59.123C1.129,52.18,31.6,29.051,33.591,28.2s9.264-2.28,10.689-2,3.42,5.131,2.993,7.7-14.537,3.82-15.25,3.905-9.692,14.765-9.692,14.765,2.775-1.378,8.088,1.066c4.988,2.295,4.6,5.213,4.6,5.213s2.565-1.325,11.4-.809A72.437,72.437,0,0,1,60.671,60.1Z" transform="translate(0 -19.086)" fill="#e8936b"/>
              <path id="Trazado_211806" data-name="Trazado 211806" d="M129.009,406.969c-4.605,21.4-10.565,42.8-11.107,52.013s.542,13.816,0,16.525-10.565,16.8-12.19,27.632.813,29.936,1.083,36.166-5.96,16.118-5.147,16.93,18.286,2,18.557.373-4.2-14.189-2.032-23.4,11.107-24.381,12.732-33.05,1.084-16.152,2.438-18.37,4.605-1.947,8.4-11.7,4.876-32.779,4.876-32.779l4.876.542s-.232,23.073,1.084,29.8c1.376,7.037,1.219,9.752.948,12.461s-3.928,9.211-5.553,20.588,4.063,34.2,5.147,38.807-3.522,11.851-2.98,13.747,11.649.813,15.712.813,19.5.813,20.859-1.084-2.438-4.876-9.482-6.231-13.071-5.315-12.529-9.379.068-34.778,3.318-44.53,1.49-16.8,2.844-20.047a73.008,73.008,0,0,0,5.012-28.174c-.271-14.087-3.522-33.592-4.334-34.946s-42.531-2.709-42.531-2.709" transform="translate(-74.097 -296.876)" fill="#e8936b"/>
              <g id="Grupo_170547" data-name="Grupo 170547" transform="translate(86.282 175.942)" opacity="0.63">
                <g id="Grupo_170546" data-name="Grupo 170546">
                  <g id="Grupo_170545" data-name="Grupo 170545" clip-path="url(#clip-path-4)">
                    <path id="Trazado_211807" data-name="Trazado 211807" d="M319.656,659.956h-.118a.6.6,0,0,1-.588-.605.6.6,0,0,1,.605-.588h.1c3.667,0,6.867-2.839,9.02-8.007a.6.6,0,0,1,1.1.459c-2.351,5.642-5.941,8.742-10.12,8.742" transform="translate(-318.949 -650.388)" fill="#d15c48"/>
                  </g>
                </g>
              </g>
              <g id="Grupo_170550" data-name="Grupo 170550" transform="translate(50.252 181.5)" opacity="0.63">
                <g id="Grupo_170549" data-name="Grupo 170549">
                  <g id="Grupo_170548" data-name="Grupo 170548" clip-path="url(#clip-path-5)">
                    <path id="Trazado_211808" data-name="Trazado 211808" d="M190.645,674.947A7.531,7.531,0,0,1,186,673.418a.6.6,0,1,1,.72-.952,7.119,7.119,0,0,0,6.425.924,11.218,11.218,0,0,0,4.257-2.281.6.6,0,1,1,.844.844,12.148,12.148,0,0,1-7.6,2.993" transform="translate(-185.761 -670.935)" fill="#d15c48"/>
                  </g>
                </g>
              </g>
              <g id="Grupo_170553" data-name="Grupo 170553" transform="translate(47.802 148.399)" opacity="0.41">
                <g id="Grupo_170552" data-name="Grupo 170552">
                  <g id="Grupo_170551" data-name="Grupo 170551" clip-path="url(#clip-path-6)">
                    <path id="Trazado_211809" data-name="Trazado 211809" d="M177.179,579.474a.4.4,0,0,1-.395-.354c-.287-2.583.153-16.987,2.577-30.221a.4.4,0,1,1,.783.143c-2.411,13.158-2.853,27.436-2.569,29.989a.4.4,0,0,1-.351.44l-.045,0" transform="translate(-176.707 -548.572)" fill="#d15c48"/>
                  </g>
                </g>
              </g>
              <g id="Grupo_170556" data-name="Grupo 170556" transform="translate(38.937 195.435)" opacity="0.41">
                <g id="Grupo_170555" data-name="Grupo 170555">
                  <g id="Grupo_170554" data-name="Grupo 170554" clip-path="url(#clip-path-7)">
                    <path id="Trazado_211810" data-name="Trazado 211810" d="M144.334,759.543a.442.442,0,0,1-.064,0,.4.4,0,0,1-.329-.457c.042-.259,4.28-26.062,10.238-36.435a.4.4,0,1,1,.69.4c-5.887,10.248-10.1,35.909-10.142,36.166a.4.4,0,0,1-.392.334" transform="translate(-143.936 -722.447)" fill="#d15c48"/>
                  </g>
                </g>
              </g>
              <g id="Grupo_170559" data-name="Grupo 170559" transform="translate(86.478 151.685)" opacity="0.41">
                <g id="Grupo_170558" data-name="Grupo 170558">
                  <g id="Grupo_170557" data-name="Grupo 170557" clip-path="url(#clip-path-8)">
                    <path id="Trazado_211811" data-name="Trazado 211811" d="M326.172,583.594a.4.4,0,0,1-.341-.192c-.063-.1-6.288-10.527-6.153-22.289a.393.393,0,0,1,.4-.393.4.4,0,0,1,.393.4c-.133,11.529,5.976,21.766,6.038,21.868a.4.4,0,0,1-.34.6" transform="translate(-319.676 -560.719)" fill="#d15c48"/>
                  </g>
                </g>
              </g>
              <g id="Grupo_170562" data-name="Grupo 170562" transform="translate(84.637 193.675)" opacity="0.41">
                <g id="Grupo_170561" data-name="Grupo 170561">
                  <g id="Grupo_170560" data-name="Grupo 170560" clip-path="url(#clip-path-9)">
                    <path id="Trazado_211812" data-name="Trazado 211812" d="M313.485,748.431a.4.4,0,0,1-.387-.306c-.732-3.074.286-23.262,3.124-31.911a.4.4,0,1,1,.756.248c-2.867,8.736-3.714,28.925-3.106,31.479a.4.4,0,0,1-.387.49" transform="translate(-312.869 -715.94)" fill="#d15c48"/>
                  </g>
                </g>
              </g>
              <g id="Grupo_170565" data-name="Grupo 170565" transform="translate(51.064 75.829)" opacity="0.63">
                <g id="Grupo_170564" data-name="Grupo 170564">
                  <g id="Grupo_170563" data-name="Grupo 170563" clip-path="url(#clip-path-10)">
                    <path id="Trazado_211813" data-name="Trazado 211813" d="M198.352,284.282a22.989,22.989,0,0,1-9.215-1.705.628.628,0,0,1,.507-1.149c4.857,2.143,10.882,1.743,15.081,1.031a47.789,47.789,0,0,0,8.1-2.107.628.628,0,0,1,.449,1.173,48.157,48.157,0,0,1-8.314,2.168,39.849,39.849,0,0,1-6.608.589" transform="translate(-188.762 -280.31)" fill="#d15c48"/>
                  </g>
                </g>
              </g>
              <g id="Grupo_170568" data-name="Grupo 170568" transform="translate(81.006 73.422)" opacity="0.63">
                <g id="Grupo_170567" data-name="Grupo 170567">
                  <g id="Grupo_170566" data-name="Grupo 170566" clip-path="url(#clip-path-11)">
                    <path id="Trazado_211814" data-name="Trazado 211814" d="M309.158,275.793a37.515,37.515,0,0,1-9.24-1.252.628.628,0,0,1,.316-1.215c9.429,2.451,15.835.918,18-1.688a.628.628,0,1,1,.966.8c-1.574,1.894-4.436,3.033-8.276,3.294-.571.039-1.162.058-1.768.058" transform="translate(-299.448 -271.411)" fill="#d15c48"/>
                  </g>
                </g>
              </g>
              <g id="Grupo_170571" data-name="Grupo 170571" transform="translate(81.288 79.097)" opacity="0.41">
                <g id="Grupo_170570" data-name="Grupo 170570">
                  <g id="Grupo_170569" data-name="Grupo 170569" clip-path="url(#clip-path-12)">
                    <path id="Trazado_211815" data-name="Trazado 211815" d="M303.382,320.451a.419.419,0,0,1-.4-.313,27.192,27.192,0,0,1-.794-5.08,12.05,12.05,0,0,0-.718-2.774c-.793-2.391-1.779-5.366.114-6.7,2.091-1.476,1.613-5.262-.166-12.672a.419.419,0,0,1,.814-.2c1.666,6.94,2.554,11.632-.166,13.552-1.386.978-.545,3.516.2,5.756a12.411,12.411,0,0,1,.76,3.01,26.823,26.823,0,0,0,.767,4.9.419.419,0,0,1-.405.524" transform="translate(-300.491 -292.392)" fill="#d15c48"/>
                  </g>
                </g>
              </g>
              <path id="Trazado_211816" data-name="Trazado 211816" d="M408.4,130.19a.419.419,0,0,1-.392-.272c-.764-2.037-6.391-7.849-12.233-12.009a.419.419,0,0,1,.486-.682c5.528,3.937,11.617,9.962,12.531,12.4a.419.419,0,0,1-.392.566" transform="translate(-288.583 -85.458)" fill="#fff"/>
              <g id="Grupo_170574" data-name="Grupo 170574" transform="translate(102.877 14.535)" opacity="0.41">
                <g id="Grupo_170573" data-name="Grupo 170573">
                  <g id="Grupo_170572" data-name="Grupo 170572" clip-path="url(#clip-path-13)">
                    <path id="Trazado_211817" data-name="Trazado 211817" d="M380.717,56.55a.419.419,0,0,1-.121-.819,34.4,34.4,0,0,0,5.047-1.956.419.419,0,0,1,.38.746,34.523,34.523,0,0,1-5.184,2.011.421.421,0,0,1-.121.018" transform="translate(-380.298 -53.729)" fill="#d15c48"/>
                  </g>
                </g>
              </g>
              <g id="Grupo_170577" data-name="Grupo 170577" transform="translate(28.398 17.478)" opacity="0.41">
                <g id="Grupo_170576" data-name="Grupo 170576">
                  <g id="Grupo_170575" data-name="Grupo 170575" clip-path="url(#clip-path-14)">
                    <path id="Trazado_211818" data-name="Trazado 211818" d="M108.6,66.267a.418.418,0,0,1-.166-.034,7.681,7.681,0,0,0-3.02-.785.424.424,0,0,1-.439-.4.419.419,0,0,1,.4-.439,8.431,8.431,0,0,1,3.393.853.419.419,0,0,1-.166.8" transform="translate(-104.977 -64.61)" fill="#d15c48"/>
                  </g>
                </g>
              </g>
              <g id="Grupo_170580" data-name="Grupo 170580" transform="translate(83.762 37.179)" opacity="0.41">
                <g id="Grupo_170579" data-name="Grupo 170579">
                  <g id="Grupo_170578" data-name="Grupo 170578" clip-path="url(#clip-path-15)">
                    <path id="Trazado_211819" data-name="Trazado 211819" d="M320.321,146.2a.417.417,0,0,1-.33-.16c-.049-.063-5-6.325-10.055-7.783a.419.419,0,1,1,.232-.8c5.313,1.533,10.273,7.8,10.481,8.071a.418.418,0,0,1-.329.677" transform="translate(-309.634 -137.435)" fill="#d15c48"/>
                  </g>
                </g>
              </g>
              <g id="Grupo_170583" data-name="Grupo 170583" transform="translate(98.776 36.641)" opacity="0.41">
                <g id="Grupo_170582" data-name="Grupo 170582">
                  <g id="Grupo_170581" data-name="Grupo 170581" clip-path="url(#clip-path-16)">
                    <path id="Trazado_211820" data-name="Trazado 211820" d="M369.361,141.687a.419.419,0,0,1-.384-.252,16.74,16.74,0,0,0-3.691-5.246.419.419,0,1,1,.54-.64,17.282,17.282,0,0,1,3.919,5.554.419.419,0,0,1-.384.585" transform="translate(-365.137 -135.449)" fill="#d15c48"/>
                  </g>
                </g>
              </g>
              <path id="Trazado_211821" data-name="Trazado 211821" d="M372.7,206.868a.419.419,0,0,1-.419-.419,39.779,39.779,0,0,0-2.542-13.864.419.419,0,1,1,.79-.277,40.575,40.575,0,0,1,2.589,14.141.419.419,0,0,1-.419.419" transform="translate(-269.703 -140.08)" fill="#fff"/>
              <g id="Grupo_170586" data-name="Grupo 170586" transform="translate(68.407 43.894)" opacity="0.41">
                <g id="Grupo_170585" data-name="Grupo 170585">
                  <g id="Grupo_170584" data-name="Grupo 170584" clip-path="url(#clip-path-17)">
                    <path id="Trazado_211822" data-name="Trazado 211822" d="M259.22,172.361a.419.419,0,0,1-.38-.242,46.768,46.768,0,0,0-5.865-9.169.419.419,0,1,1,.637-.544,47.66,47.66,0,0,1,5.987,9.359.419.419,0,0,1-.379.6" transform="translate(-252.875 -162.26)" fill="#d15c48"/>
                  </g>
                </g>
              </g>
              <g id="Grupo_170589" data-name="Grupo 170589" transform="translate(55.203 39.542)" opacity="0.41">
                <g id="Grupo_170588" data-name="Grupo 170588">
                  <g id="Grupo_170587" data-name="Grupo 170587" clip-path="url(#clip-path-18)">
                    <path id="Trazado_211823" data-name="Trazado 211823" d="M207.4,157.347h-.035a.419.419,0,0,1-.383-.451,17.922,17.922,0,0,0-2.846-10.078.419.419,0,0,1,.7-.452,18.427,18.427,0,0,1,2.976,10.6.419.419,0,0,1-.417.384" transform="translate(-204.065 -146.172)" fill="#d15c48"/>
                  </g>
                </g>
              </g>
              <g id="Grupo_170592" data-name="Grupo 170592" transform="translate(28.398 39.341)" opacity="0.41">
                <g id="Grupo_170591" data-name="Grupo 170591">
                  <g id="Grupo_170590" data-name="Grupo 170590" clip-path="url(#clip-path-19)">
                    <path id="Trazado_211824" data-name="Trazado 211824" d="M105.4,153.814a.419.419,0,0,1-.2-.786c.056-.031,5.582-3.084,5.983-7.219a.419.419,0,0,1,.833.081c-.444,4.579-6.173,7.741-6.417,7.873a.418.418,0,0,1-.2.051" transform="translate(-104.977 -145.43)" fill="#d15c48"/>
                  </g>
                </g>
              </g>
              <g id="Grupo_170595" data-name="Grupo 170595" transform="translate(72.509 77.353)" opacity="0.41">
                <g id="Grupo_170594" data-name="Grupo 170594">
                  <g id="Grupo_170593" data-name="Grupo 170593" clip-path="url(#clip-path-20)">
                    <path id="Trazado_211825" data-name="Trazado 211825" d="M268.456,294.083a.419.419,0,0,1-.245-.759,48.977,48.977,0,0,0,5.045-4.349c2.137-2.031,3.549-3.373,4.616-2.956,1.564.612,9.005,6.092,10.263,7.35a.419.419,0,0,1-.592.592c-1.266-1.266-8.655-6.646-9.976-7.162-.571-.224-2.178,1.305-3.734,2.783A49.672,49.672,0,0,1,268.7,294a.419.419,0,0,1-.244.079" transform="translate(-268.037 -285.943)" fill="#d15c48"/>
                  </g>
                </g>
              </g>
              <g id="Grupo_170598" data-name="Grupo 170598" transform="translate(69.74 89.787)" opacity="0.41">
                <g id="Grupo_170597" data-name="Grupo 170597">
                  <g id="Grupo_170596" data-name="Grupo 170596" clip-path="url(#clip-path-21)">
                    <path id="Trazado_211826" data-name="Trazado 211826" d="M264.979,361.247a.419.419,0,0,1-.394-.277c-.268-.747-6.574-18.306-6.765-19.9-.179-1.494.922-2.411,2.087-3.381.263-.219.536-.446.8-.685.231-.208.355-.38.36-.5.009-.231-.381-.638-.874-1.155a20.417,20.417,0,0,1-2.306-2.79.419.419,0,1,1,.693-.471,19.673,19.673,0,0,0,2.219,2.682c.679.71,1.127,1.18,1.105,1.765a1.561,1.561,0,0,1-.637,1.088c-.278.25-.557.482-.826.707-1.188.989-1.91,1.646-1.791,2.638.149,1.247,4.9,14.657,6.722,19.719a.419.419,0,0,1-.394.56" transform="translate(-257.8 -331.906)" fill="#d15c48"/>
                  </g>
                </g>
              </g>
              <g id="Grupo_170601" data-name="Grupo 170601" transform="translate(86.334 89.787)" opacity="0.41">
                <g id="Grupo_170600" data-name="Grupo 170600">
                  <g id="Grupo_170599" data-name="Grupo 170599" clip-path="url(#clip-path-22)">
                    <path id="Trazado_211827" data-name="Trazado 211827" d="M319.56,360.249a.418.418,0,0,1-.385-.583c3.049-7.159,6.2-17.686,5.958-19.15A5.032,5.032,0,0,0,324,338.48a3.82,3.82,0,0,1-1.135-2.489c.143-1.569,3.1-3.761,3.436-4.006a.419.419,0,0,1,.493.677c-1.153.839-3.013,2.506-3.1,3.405-.053.58.441,1.222.965,1.9a5.711,5.711,0,0,1,1.3,2.409c.318,1.907-3.258,13.145-6.014,19.616a.418.418,0,0,1-.385.255" transform="translate(-319.142 -331.905)" fill="#d15c48"/>
                  </g>
                </g>
              </g>
              <g id="Grupo_170604" data-name="Grupo 170604" transform="translate(59.967 73.63)" opacity="0.41">
                <g id="Grupo_170603" data-name="Grupo 170603">
                  <g id="Grupo_170602" data-name="Grupo 170602" clip-path="url(#clip-path-23)">
                    <path id="Trazado_211828" data-name="Trazado 211828" d="M224.456,273.585a5.72,5.72,0,0,1-2.547-.607.419.419,0,1,1,.37-.751,4.735,4.735,0,0,0,4.307.014.419.419,0,0,1,.424.722,5.37,5.37,0,0,1-2.553.622" transform="translate(-221.674 -272.184)" fill="#d15c48"/>
                  </g>
                </g>
              </g>
              <g id="Grupo_170607" data-name="Grupo 170607" transform="translate(90.537 71.472)" opacity="0.41">
                <g id="Grupo_170606" data-name="Grupo 170606">
                  <g id="Grupo_170605" data-name="Grupo 170605" clip-path="url(#clip-path-24)">
                    <path id="Trazado_211829" data-name="Trazado 211829" d="M336.25,266.166a6.027,6.027,0,0,1-1.239-.135.419.419,0,1,1,.173-.82,3.467,3.467,0,0,0,3.5-.844.419.419,0,1,1,.663.512,3.944,3.944,0,0,1-3.1,1.286" transform="translate(-334.679 -264.205)" fill="#d15c48"/>
                  </g>
                </g>
              </g>
              <path id="Trazado_211830" data-name="Trazado 211830" d="M23.6,125.405a.419.419,0,0,1-.007-.837c.119,0,11.935-.292,17.3-7.836a.419.419,0,1,1,.682.486c-2.942,4.135-7.678,6.141-11.132,7.1a30.085,30.085,0,0,1-6.839,1.092H23.6" transform="translate(-16.912 -85.025)" fill="#fff"/>
              <path id="Trazado_211831" data-name="Trazado 211831" d="M256.875,103.525c1.39.962,5.02,0,5.476,0s-1.108,3.2-2.731,3.152-2.745-3.152-2.745-3.152" transform="translate(-187.386 -75.52)" fill="#fff"/>
              <path id="Trazado_211832" data-name="Trazado 211832" d="M228.47,103.486c3.213.327,10.755-.327,11.64-.381s8.345.472,8.345.472-1.508,7.478-2.66,8.785-1.424,1.579-1.37,3.54a6.052,6.052,0,0,1-1.743,4.738c-1.143.98-.98,2.069-1.525,3.1s-2.45.545-2.7-1.089-1.824-1.852-3.022-3.1a4.276,4.276,0,0,1-1.416-3.7c.163-1.307-4.892-2.332-5.219-3.966a36.47,36.47,0,0,1-.84-4.8,19.234,19.234,0,0,1,.5-3.594" transform="translate(-166.295 -75.211)" fill="#621406"/>
              <path id="Trazado_211833" data-name="Trazado 211833" d="M239.158,28.613c-2.662.508-3.679.8-4.623,3.413s-1.633,6.261-3.739,7.869-3.078,1.933-3.227,2.732-.4,7.157.5,8.858,4.465,1.379,4.847.726,2.2-3.552,3.213-2.211,5.664,1.637,6.5,0,1.546.48,2.214.469a2.653,2.653,0,0,0,1.888-2.687V41.247c0-2.469.653-5.3-.581-7.987s-2.505-4.792-4.3-4.647a12.511,12.511,0,0,1-2.692,0" transform="translate(-165.898 -20.867)" fill="#e89067"/>
              <path id="Trazado_211834" data-name="Trazado 211834" d="M216.943,71.819a5.77,5.77,0,0,0-.272,3.921l.327.817s-.49,0-.871,1.416A3.4,3.4,0,0,0,217,80.75a3.572,3.572,0,0,0-.943,2.56A4.792,4.792,0,0,0,217,85.76a2.942,2.942,0,0,0-.477,2.777,3.6,3.6,0,0,0,1.566,2.342s-.98.98,0,2.723,1.8,1.688,1.8,1.688-1.143.272-.545,1.743,1.253,1.688,1.8,1.579,1.361-1.688,1.361-2.5-1.143-1.144-1.143-1.144.708-.272.762-2.342a2.351,2.351,0,0,0-1.525-2.5,4.5,4.5,0,0,0,.871-3.05c-.163-1.8-1.525-1.84-1.525-1.84a4.056,4.056,0,0,0,.98-2.517,2.425,2.425,0,0,0-1.143-1.96s.381,0,.762-1.688a2.739,2.739,0,0,0-.654-2.614s.49.218.871-1.743-1.253-3.867-1.253-3.867-2.124-.272-2.559.98" transform="translate(-157.6 -51.657)" fill="#621406"/>
              <path id="Trazado_211835" data-name="Trazado 211835" d="M238.278,59.754a.6.6,0,0,1-.023-1.2c1.416-.055,4.166,0,4.282,0a.6.6,0,0,1,.59.613.591.591,0,0,1-.613.59c-.028,0-2.83-.054-4.213,0h-.023" transform="translate(-173.38 -42.694)" fill="#621406"/>
              <path id="Trazado_211836" data-name="Trazado 211836" d="M284.372,60.409a.587.587,0,0,1-.078-.005l-5.228-.678a.6.6,0,1,1,.155-1.194l5.228.678a.6.6,0,0,1-.077,1.2" transform="translate(-203.191 -42.695)" fill="#621406"/>
              <path id="Trazado_211837" data-name="Trazado 211837" d="M261.776,96.907c2.832,3.267,4.465,1.307,4.828.436s-.98-2.105-2.033-1.924a9.486,9.486,0,0,0-2.8,1.488" transform="translate(-190.961 -69.593)" fill="#1a1a1a"/>
              <path id="Trazado_211838" data-name="Trazado 211838" d="M247.977,67.374c0-.606-.366-1.1-.817-1.1s-.817.492-.817,1.1.366,1.1.817,1.1.817-.492.817-1.1" transform="translate(-179.703 -48.347)" fill="#1a1a1a"/>
              <path id="Trazado_211839" data-name="Trazado 211839" d="M248.335,94.312c.093-.179.187-.342.281-.486.926-1.416,1.552-2.342,2.818-2.124s1.811,1.035,2.137,2.287c.036.139.075.328.116.557a49.744,49.744,0,0,1,.664,6.989c-.109.926,1.834-1.229,2.378-3.244a11.266,11.266,0,0,0,.473-4.372,5.945,5.945,0,0,0-1.218-2.926c-1.944-2.5-3.774-2.42-4.756-2.4-3.158.066-5.228.874-6.97,4.033a8.116,8.116,0,0,0-.773,3.867,15.485,15.485,0,0,0,1.154,6.045c.436.436,1.579-.708,1.851-2.342a24.49,24.49,0,0,1,1.843-5.886" transform="translate(-177.619 -64.625)" fill="#621406"/>
              <path id="Trazado_211840" data-name="Trazado 211840" d="M285.286,67.374c0-.606-.366-1.1-.817-1.1s-.817.492-.817,1.1.366,1.1.817,1.1.817-.492.817-1.1" transform="translate(-206.919 -48.347)" fill="#1a1a1a"/>
              <path id="Trazado_211841" data-name="Trazado 211841" d="M268.262,87.266a3.188,3.188,0,0,1-1.349-.28.408.408,0,1,1,.344-.739,3.19,3.19,0,0,0,2.21-.009.408.408,0,0,1,.3.757,4.427,4.427,0,0,1-1.506.271" transform="translate(-194.536 -62.888)" fill="#c0562b"/>
              <path id="Trazado_211842" data-name="Trazado 211842" d="M268.334,526.858a.586.586,0,0,1-.014-1.172c6.4-.156,8.517-.742,10.764-2.982a.586.586,0,1,1,.828.83c-2.484,2.477-4.861,3.161-11.563,3.324h-.015" transform="translate(-195.318 -381.178)" fill="#4a3333"/>
              <path id="Trazado_211843" data-name="Trazado 211843" d="M225.444,438.059a85.052,85.052,0,0,1-26.644-3.95.586.586,0,0,1,.374-1.111c20.263,6.828,42.388,2.73,43.732,2.164a.586.586,0,1,1,.455,1.081c-1.309.551-8.493,1.815-17.917,1.815" transform="translate(-144.73 -315.843)" fill="#4a3333"/>
              <g id="Grupo_170610" data-name="Grupo 170610" transform="translate(79.568 238.263)" opacity="0.63">
                <g id="Grupo_170609" data-name="Grupo 170609">
                  <g id="Grupo_170608" data-name="Grupo 170608" clip-path="url(#clip-path-25)">
                    <path id="Trazado_211844" data-name="Trazado 211844" d="M294.757,888.363a.628.628,0,0,1-.537-.953,37.9,37.9,0,0,0,2.937-6.224.628.628,0,1,1,1.186.412,38.435,38.435,0,0,1-3.049,6.461.627.627,0,0,1-.538.3" transform="translate(-294.13 -880.764)" fill="#d15c48"/>
                  </g>
                </g>
              </g>
              <g id="Grupo_170613" data-name="Grupo 170613" transform="translate(33.168 246.984)" opacity="0.63">
                <g id="Grupo_170612" data-name="Grupo 170612">
                  <g id="Grupo_170611" data-name="Grupo 170611" clip-path="url(#clip-path-26)">
                    <path id="Trazado_211845" data-name="Trazado 211845" d="M131.716,915.836a.625.625,0,0,1-.418-.16c-.124-.109-3.133-2.684-7.807-.607a.628.628,0,1,1-.51-1.148c5.439-2.418,9,.685,9.154.818a.628.628,0,0,1-.419,1.1" transform="translate(-122.608 -913.003)" fill="#d15c48"/>
                  </g>
                </g>
              </g>
              <path id="Trazado_211846" data-name="Trazado 211846" d="M177.96,467.337a.41.41,0,0,1-.088-.009.418.418,0,0,1-.322-.5c.037-.174,3.752-17.534,6.4-29.228a.419.419,0,0,1,.816.185c-2.645,11.69-6.359,29.045-6.4,29.219a.419.419,0,0,1-.409.331" transform="translate(-129.512 -318.984)" fill="#fff"/>
              <path id="Trazado_211847" data-name="Trazado 211847" d="M187.22,469.933a.42.42,0,0,1-.409-.509c.037-.166,3.673-16.672,5.836-28.248a.419.419,0,0,1,.823.154c-2.166,11.589-5.805,28.109-5.842,28.274a.419.419,0,0,1-.408.328" transform="translate(-136.267 -321.581)" fill="#fff"/>
              <path id="Trazado_211848" data-name="Trazado 211848" d="M166.011,143.659c1.563,7.137,13.471,26.533,18.027,28.838s8.667.077,10.856,2.382,4.552,6.991,8.422,10.064,9.227,1.4,9.089,2.766,1.437,30.73,1.873,33.957,4.739,31.294,4.739,35.852-3.073,22.228-3.534,23.611-1.537-1.69-2.151-2.458c-.637-.8-2.157.47-2.766.922-5.371,3.987-7.655,8.272-9.68,7.836-1.317-.284-1.106-2.259-2.766-2.766-2.211-.675-3.862,2.443-5.531,2-3.073-.82-1.047-12.346-4.61-13.675-2.163-.807-3.969,3.047-6.914,2.458-4.126-.824-3.914-9.054-8.144-9.988-2.991-.66-4.72,3.1-7.375,2.3-4.009-1.194-3.69-10.832-5.532-10.909-1.789-.075-3.419,8.966-3.688,8.912-.153-.031-.221-3.087,4-23.97,3.445-17.061,4.15-18.286,4.3-23.816.223-8.089-1.209-8.23-1.844-20.743-.516-10.173.288-12.881.154-21.972-.1-6.582-1.551-15.8-2.919-27.35-.538-4.538-1.229-4.84-.615-4.84s6.314-.765,6.61.587" transform="translate(-114.001 -104.211)" fill="#f4b44e"/>
              <g id="Grupo_170616" data-name="Grupo 170616" transform="translate(40.944 44.711)" opacity="0.41">
                <g id="Grupo_170615" data-name="Grupo 170615">
                  <g id="Grupo_170614" data-name="Grupo 170614" clip-path="url(#clip-path-27)">
                    <path id="Trazado_211849" data-name="Trazado 211849" d="M151.773,190.4a.419.419,0,0,1-.388-.575c.065-.161,6.432-16.207,2.665-23.942a.419.419,0,0,1,.753-.367c1.657,3.4,1.712,8.59.165,15.415a68.4,68.4,0,0,1-2.806,9.206.419.419,0,0,1-.389.263" transform="translate(-151.354 -165.28)" fill="#d15c48"/>
                  </g>
                </g>
              </g>
            </g>
          </g>
          <g id="Grupo_170620" data-name="Grupo 170620" transform="translate(42.276 38.645)">
            <g id="Grupo_170619" data-name="Grupo 170619" clip-path="url(#clip-path-28)">
              <path id="Trazado_211850" data-name="Trazado 211850" d="M211.892,338.679c.978-.164,1.915.92,2.381,1.46,1.414,1.636,1.192,2.818,2.3,5.608a20.393,20.393,0,0,0,2.3,4.379c1.152,1.642,2.2,2.57,2.689,4.533.174.694.386,1.59-.076,2.074-.593.62-1.6-.159-3.227.307-1.308.374-1.186,1.029-2.458,1.383a6.25,6.25,0,0,1-3.611-.384,7.479,7.479,0,0,1-2.843-1.306c-1.45-1.176-1.389-2.311-2.843-3-.777-.367-.988-.133-1.69-.384-2.293-.82-3.007-4.367-3.38-6.223-.438-2.176-.824-6.078.384-6.53.784-.293,1.472,1.152,2.689.922,1.491-.282,1.735-2.7,2.842-2.689.95.007,1.254,1.785,2.228,1.767.953-.018,1.168-1.73,2.305-1.921" transform="translate(-188.915 -285.693)" fill="#4e0c09"/>
              <path id="Trazado_211851" data-name="Trazado 211851" d="M211.626,356.75c1.888.9,2.382.23,4.379-.768s4.379,1.46,5.608,2.228.922,4.379,0,5.762-3.611.538-4.917,0-2.151-.077-3.15.154-3.064-7.917-1.921-7.375" transform="translate(-196.409 -298.156)" fill="#dc7e13"/>
              <path id="Trazado_211852" data-name="Trazado 211852" d="M247.908,571.839c1.269.585,1.5,2.591,1.616,3.591.349,3.028-.848,4.228-1.767,8.362a28.77,28.77,0,0,0-.791,6.93c.038,2.826.52,4.738-.466,7.414-.348.946-.813,2.158-1.736,2.355-1.182.252-1.738-1.454-4-2.2-1.821-.6-2.2.257-3.961-.341-1.673-.567-2.667-1.792-3.9-3.314a10.541,10.541,0,0,1-2.275-3.777c-.756-2.52.216-3.794-.933-5.746-.615-1.044-1.045-.939-1.664-1.789-2.02-2.775-.036-7.474,1-9.932,1.217-2.882,3.865-7.734,5.631-7.3,1.146.281.8,2.511,2.4,3.208,1.961.855,4.161-1.764,5.445-.876,1.1.762.044,3.075,1.193,3.827,1.124.736,2.734-1.088,4.209-.408" transform="translate(-207.982 -451.576)" fill="#4e0c09"/>
              <path id="Trazado_211853" data-name="Trazado 211853" d="M243.516,588.409c1.489,2.542,2.591,2.159,5.711,2.581s3.942,5.176,4.764,7.046-2.4,5.833-4.573,6.712-4.633-2.239-5.727-3.9-2.445-1.8-3.791-2.321,2.716-11.654,3.617-10.115" transform="translate(-217.081 -467.772)" fill="#dc7e13"/>
              <path id="Trazado_211854" data-name="Trazado 211854" d="M307.615,378.3c-.765.177-1.559-.634-1.954-1.038-1.2-1.224-1.08-2.17-2.1-4.322a16.152,16.152,0,0,0-2.036-3.35c-.991-1.242-1.863-1.924-2.347-3.453-.171-.54-.383-1.238-.041-1.644.438-.519,1.273.047,2.536-.4,1.016-.36.887-.871,1.876-1.214a4.949,4.949,0,0,1,2.874.127,5.923,5.923,0,0,1,2.311.894c1.2.859,1.211,1.759,2.394,2.23.633.252.787.057,1.355.221,1.853.536,2.591,3.306,2.977,4.755.452,1.7.948,4.765.015,5.182-.605.27-1.221-.839-2.171-.6-1.165.3-1.24,2.217-2.116,2.265-.751.041-1.079-1.35-1.848-1.288-.753.061-.839,1.425-1.729,1.631" transform="translate(-260.36 -303.238)" fill="#4e0c09"/>
              <path id="Trazado_211855" data-name="Trazado 211855" d="M320.443,379.241c-.491-1.581-1.143-1.512-2.8-2.14s-1.5-3.336-1.71-4.464,2.058-2.887,3.358-3.091,2.25,1.816,2.638,2.866,1.109,1.295,1.779,1.753-2.971,6.033-3.268,5.076" transform="translate(-272.735 -308.212)" fill="#dc7e13"/>
              <path id="Trazado_211856" data-name="Trazado 211856" d="M163.246,192.125c-.748.739-2.221.37-2.955.186-2.223-.556-2.752-1.716-5.418-3.458a21.622,21.622,0,0,0-4.668-2.392c-2-.721-3.473-.888-5.1-2.291-.574-.5-1.3-1.143-1.2-1.845.136-.9,1.484-.838,2.61-2.234.906-1.122.4-1.615,1.289-2.7a6.623,6.623,0,0,1,3.365-1.868,7.925,7.925,0,0,1,3.261-.6c1.974.135,2.613,1.157,4.291.865.9-.156.938-.487,1.7-.7,2.488-.687,5.27,1.953,6.725,3.335,1.706,1.62,4.421,4.768,3.648,5.9-.5.732-1.979-.1-2.894.84-1.121,1.154.14,3.4-.825,4.065-.828.573-2.176-.783-3.009-.174-.816.6.042,2.213-.828,3.071" transform="translate(-147.249 -166.24)" fill="#4e0c09"/>
              <path id="Trazado_211857" data-name="Trazado 211857" d="M179.553,191.685c-1.668-1.458-2.363-.922-4.688-.479s-4.045-2.752-5.078-3.891.323-4.733,1.662-5.877,3.838.493,5.015,1.418,2.172.7,3.257.752.841,8.96-.169,8.077" transform="translate(-165.867 -170.715)" fill="#dc7e13"/>
              <path id="Trazado_211858" data-name="Trazado 211858" d="M255.636,459.915c2.261-1.7,3.688-1.229,5.532-2.228s2.381-2.382,3.841-2.535,3.38,4.917,4.763,4.763,3.3.615,3.688,2.151-1.383,3.073-3.38,5.3-3,6.53-3.995,6.684-5.685-2.228-7.759-2.3-2.843.691-3.841.461-2.939-3.3-.97-5.071.636-6.105,2.123-7.221" transform="translate(-226.59 -370.668)" fill="#4e0c09"/>
              <path id="Trazado_211859" data-name="Trazado 211859" d="M276.021,465.069c-3.736,2.99-5.916,2.535-6.761,3.841s-.307,3.38-.537,5.147,2.3,1.229,3.649,1.537,2.42,1.306,3.649,1.767,1.229-2.535,2.3-4.072,2.919-2.228,3.457-3.534-3.073-.922-3.765-2.228-.507-3.651-2-2.458" transform="translate(-238.293 -377.665)" fill="#dc7e13"/>
              <path id="Trazado_211860" data-name="Trazado 211860" d="M262.227,249.678c.636,2.355-.2,3.348.015,5.145s1.146,2.671.8,3.889-5.021,1.135-5.341,2.292a2.988,2.988,0,0,1-2.9,2.266c-1.354-.184-2.019-2.092-3.165-4.405s-4.273-4.491-4.077-5.34,3.6-3.842,4.33-5.479.356-2.5.86-3.225,3.588-1.3,4.373.845,4.688,2.464,5.107,4.012" transform="translate(-222.858 -216.759)" fill="#4e0c09"/>
              <path id="Trazado_211861" data-name="Trazado 211861" d="M270.044,268.5c-1.2-3.951-.138-5.551-.914-6.646s-2.61-1.328-3.952-2.078-1.723,1.453-2.4,2.432-1.821,1.521-2.584,2.358,1.638,1.8,2.525,3.15.851,3.052,1.725,3.9,1.722-2.167,2.99-2.3,3.088.762,2.609-.813" transform="translate(-231.976 -228.035)" fill="#dc7e13"/>
              <path id="Trazado_211862" data-name="Trazado 211862" d="M148.551,490.99c2.6-.332,3.531.7,5.471.736s3.006-.828,4.251-.285.473,5.5,1.657,6.013,2.378,2.005,1.985,3.418-2.518,1.841-5.145,2.722-5.4,3.887-6.272,3.554-3.558-4.393-5.192-5.4-2.6-.743-3.3-1.385-.856-4,1.537-4.526,3.3-4.624,5.011-4.843" transform="translate(-145.535 -396.765)" fill="#4e0c09"/>
              <path id="Trazado_211863" data-name="Trazado 211863" d="M171.415,505.105c-3.286.525-4.447-.5-5.406,0s-1.347,1.938-2.093,2.927.971,1.535,1.679,2.182a20.232,20.232,0,0,1,1.6,2.321c.585.7,1.614-1.111,2.792-1.67s2.53-.344,3.3-.95-1.541-1.613-1.511-2.639.947-2.382-.363-2.172" transform="translate(-161.715 -407.008)" fill="#dc7e13"/>
              <path id="Trazado_211864" data-name="Trazado 211864" d="M350.731,558.636c2.152,1.341,2.218,2.685,3.649,3.9s2.765,1.221,3.364,2.392-3.041,4.413-2.467,5.52.546,2.96-.62,3.777-3.024-.163-5.537-1.113-6.445-.4-6.9-1.18.042-5.472-.561-7.23-1.495-2.153-1.622-3.062,1.828-3.524,3.944-2.449,5.33-1.44,6.745-.558" transform="translate(-290.325 -446.02)" fill="#4e0c09"/>
              <path id="Trazado_211865" data-name="Trazado 211865" d="M366.868,571.758c-3.712-2.157-4.03-4.126-5.4-4.41s-2.936.835-4.494,1.213-.291,2.323-.116,3.547-.318,2.444-.31,3.621,2.524.209,4.159.611,2.809,1.721,4.079,1.748-.215-2.866.66-3.866,2.9-1.6,1.421-2.464" transform="translate(-302.123 -452.481)" fill="#dc7e13"/>
            </g>
          </g>
        </g>
      </g>
      <g id="Grupo_170624" data-name="Grupo 170624" transform="translate(960.215 1789.109)">
        <g id="Grupo_170623" data-name="Grupo 170623" clip-path="url(#clip-path-29)">
          <path id="Trazado_211867" data-name="Trazado 211867" d="M95.235,331.827s-24.961-1.691-59.815-4.563c0,0,7.647-24.249,8.3-37.893s-.113-59.791,19.06-79.444,36.647,19.72,36.647,19.72Z" transform="translate(-22.745 -131.277)" fill="#ca5c47"/>
          <path id="Trazado_211868" data-name="Trazado 211868" d="M567.914,207.314s32.839,32.977,38.583,117.473c0,0-65.833,9.087-86.137,6.895L516.416,219.7s20.575-33.422,51.5-12.384" transform="translate(-331.623 -128.665)" fill="#ca5c47"/>
          <path id="Trazado_211869" data-name="Trazado 211869" d="M211.109,316.775s68.328,7.263,106.4,1c0,0,9.095-82.527-3.224-113.5s-71.226-34.807-97.294,11.635c0,0-8.278,70.462-5.884,100.861" transform="translate(-135.287 -116.226)" fill="#265173"/>
          <path id="Trazado_211870" data-name="Trazado 211870" d="M51.924,228.6c-2.246,4.317-4.311,8.713-6.305,13.14a69.6,69.6,0,0,0-4.9,13.513,78.321,78.321,0,0,0-1.533,14.173l-.257,7.213c-.1,2.417-.282,4.843-.465,7.282-.41,4.861-.773,9.8-1.581,14.655a124.047,124.047,0,0,0-1.894,14.312,50.409,50.409,0,0,1-.911,7.427,45.462,45.462,0,0,1-2.446,7.062,45.464,45.464,0,0,0-2.387,6.715,11.5,11.5,0,0,0,.065,6.634l-3,.619c-.486-5.5,1.361-10.324,2.958-14.872a59.371,59.371,0,0,0,2.071-6.77,47.9,47.9,0,0,0,.872-7.015c.161-2.41.39-4.924.776-7.345l1.2-7.2a80.909,80.909,0,0,0,.977-14.342c0-2.413-.082-4.842-.035-7.277.03-2.435.181-4.886.374-7.338a70.125,70.125,0,0,1,2.82-14.58,138.123,138.123,0,0,1,5.423-13.691c1.9-4.468,3.729-8.967,5.378-13.546Z" transform="translate(-16.843 -146.008)" fill="#f0786a"/>
          <path id="Trazado_211871" data-name="Trazado 211871" d="M97.464,293.405a38.344,38.344,0,0,1-5.931,12.741c-2.567,3.832-5.491,7.337-8.045,11.047-2.6,3.679-4.952,7.527-7.381,11.321-1.233,1.884-2.429,3.8-3.7,5.662-1.255,1.877-2.592,3.7-3.891,5.56-2.671,3.665-5.1,7.494-7.6,11.286s-5.008,7.591-7.654,11.3A121.91,121.91,0,0,1,44.823,373.1,61.325,61.325,0,0,0,40.6,378.3a16.823,16.823,0,0,0-2.795,5.827l-2.856-1.109a66.673,66.673,0,0,1,3.763-6.042c1.34-1.9,2.767-3.7,4.155-5.495,2.726-3.6,5.511-7.1,8.123-10.781,5.2-7.352,10.245-14.862,14.74-22.753A137.211,137.211,0,0,1,81.518,315.68a111.791,111.791,0,0,0,8.3-10.664,26.282,26.282,0,0,0,4.616-12.086Z" transform="translate(-22.445 -188.108)" fill="#f0786a"/>
          <path id="Trazado_211872" data-name="Trazado 211872" d="M45.42,283.255c4.241,8.505,5.666,17.674,9.588,25.745a81.6,81.6,0,0,0,7.083,11.362c1.286,1.849,2.612,3.685,3.877,5.585s2.452,3.857,3.644,5.806c4.7,7.841,9.819,15.394,14.533,23.212,2.385,3.89,4.748,7.794,6.9,11.82,1.091,2,2.187,4,3.323,5.981a52.1,52.1,0,0,0,3.7,5.768l-2.673,1.5a46.457,46.457,0,0,0-3.028-6.121q-1.689-2.962-3.507-5.849c-2.439-3.839-4.736-7.759-7.09-11.646-4.759-7.738-9.447-15.537-14.9-22.819-2.716-3.647-5.416-7.273-7.855-11.191a71.153,71.153,0,0,1-6.285-12.419c-1.649-4.357-2.907-8.761-4.345-13.063A48.658,48.658,0,0,0,42.775,284.8Z" transform="translate(-27.468 -181.895)" fill="#ab4b38"/>
          <path id="Trazado_211873" data-name="Trazado 211873" d="M64.773,269.679a47.851,47.851,0,0,0,4.915,6.12,54.427,54.427,0,0,0,5.732,5.353c2.04,1.645,4.175,3.165,6.24,4.751,1.022.806,2.052,1.6,3.045,2.44s1.939,1.741,2.92,2.6a66.121,66.121,0,0,0,6.162,4.888c2.132,1.551,4.292,3.088,6.4,4.723a47.651,47.651,0,0,1,5.967,5.392c.912.994,1.8,2.011,2.691,3.025.429.522.876,1.03,1.346,1.522a15.609,15.609,0,0,0,1.47,1.455l-2.5,1.765a11.489,11.489,0,0,0-2.057-3.236c-.438-.469-.851-.96-1.309-1.411-.473-.438-.924-.893-1.411-1.315-1.95-1.681-3.9-3.369-5.944-4.974-2.028-1.625-4.121-3.193-6.253-4.733-2.143-1.524-4.286-3.07-6.563-4.473-1.115-.731-2.245-1.45-3.3-2.266s-2.063-1.689-3.048-2.587c-1.955-1.816-3.751-3.8-5.552-5.759s-3.65-3.854-5.51-5.742-3.756-3.743-5.75-5.533Z" transform="translate(-40.109 -173.177)" fill="#ab4b38"/>
          <path id="Trazado_211874" data-name="Trazado 211874" d="M99.811,226.722c.759,9.681.03,19.18-.034,28.655-.029,4.735.079,9.447.333,14.1l.222,3.477.3,3.456c.127,1.145.261,2.288.363,3.44l.51,3.418c.367,2.272,1,4.59,1.378,7.038a39.911,39.911,0,0,1,.432,7.342l-.277,14.226c-.091,4.737-.162,9.474-.438,14.207-.122,2.367-.22,4.734-.268,7.1a53.2,53.2,0,0,0,.223,7.113l-3.063-.067a53.2,53.2,0,0,0,.535-7.1c.055-2.368.06-4.738.043-7.107-.068-4.741.068-9.477.184-14.213l.329-14.194a34.7,34.7,0,0,0-.49-6.82c-.448-2.221-1.166-4.454-1.813-6.81-.286-1.182-.577-2.368-.835-3.56-.215-1.2-.435-2.4-.594-3.6-.124-1.206-.24-2.416-.321-3.624l-.106-3.622c-.012-4.825.458-9.59.878-14.318.827-9.421,1.377-18.968-.518-28.109Z" transform="translate(-61.916 -145.592)" fill="#f0786a"/>
          <path id="Trazado_211875" data-name="Trazado 211875" d="M99.677,273.823c-1.159,4.179-2.187,8.367-3.266,12.543L93.182,298.9c-1.052,4.191-2.181,8.375-3.525,12.491-.7,2.047-1.439,4.084-2.248,6.09q-1.278,2.986-2.7,5.906c-3.832,7.759-7.4,15.622-11.656,23.15-1.037,1.895-2.152,3.745-3.225,5.62-1.136,1.831-2.312,3.664-3.5,5.441a22.927,22.927,0,0,0-2.85,5.436,5.77,5.77,0,0,0,.4,5.274l-2.77,1.31a11.419,11.419,0,0,1,.18-7.293,33.179,33.179,0,0,1,2.892-6.061c2.127-3.736,4.35-7.358,6.442-11.087a164.08,164.08,0,0,0,11.045-23.086c1.457-4.016,2.91-8.016,4.52-11.965,1.552-3.969,3.205-7.914,4.619-11.951q1.1-3.014,1.977-6.1c.622-2.046,1.135-4.123,1.637-6.2a106.963,106.963,0,0,0,2.248-12.623Z" transform="translate(-38.906 -175.472)" fill="#f0786a"/>
          <path id="Trazado_211876" data-name="Trazado 211876" d="M150.417,267.6c-1.084,8.9-4.408,16.882-6.388,25.19l-2.915,12.488c-.521,2.07-1.006,4.148-1.578,6.2s-1.188,4.1-1.795,6.15A254.91,254.91,0,0,0,132.1,342.62c-.763,4.2-1.487,8.411-2.326,12.6q-.628,3.145-1.094,6.316a40.628,40.628,0,0,0-.527,6.4l-3.036-.41A46.858,46.858,0,0,0,126.4,361.2c.322-2.122.593-4.252.875-6.382.5-4.269,1.3-8.493,2.088-12.714,1.553-8.454,3.616-16.79,5.17-25.253.428-2.107.809-4.228,1.321-6.316s1.082-4.162,1.7-6.222c1.228-4.122,2.7-8.172,4.1-12.235,1.426-4.055,2.792-8.134,3.939-12.219a41.9,41.9,0,0,0,1.769-12.4Z" transform="translate(-80.342 -171.751)" fill="#ab4b38"/>
          <path id="Trazado_211877" data-name="Trazado 211877" d="M74.678,244.244c-.023,4.464.141,8.915.414,13.359s.615,8.883,1.135,13.309c.5,4.428,1.094,8.85,1.523,13.283.2,2.217.4,4.435.515,6.658s.15,4.452.21,6.679c.134,8.918,1.019,17.774,1.57,26.672.3,4.448.594,8.908.576,13.383l.038,6.711a61.414,61.414,0,0,0,.329,6.726l-3.063-.077a37.975,37.975,0,0,0,.428-6.629c-.011-2.214-.117-4.429-.263-6.642-.324-4.423-.551-8.854-.826-13.291-.639-8.87-1-17.778-2.089-26.626-.246-2.214-.528-4.426-.709-6.645s-.3-4.442-.4-6.666c-.184-4.45-.2-8.911-.316-13.366-.093-4.456-.366-8.9-.7-13.339s-.788-8.871-1.424-13.289Z" transform="translate(-45.992 -156.844)" fill="#f0786a"/>
          <path id="Trazado_211878" data-name="Trazado 211878" d="M22.862,423.2a10.126,10.126,0,0,0,7.062.9,35.361,35.361,0,0,0,7.447-2.425,65.4,65.4,0,0,1,7.652-2.758c1.295-.355,2.582-.692,3.875-.96s2.593-.454,3.878-.713a47.877,47.877,0,0,0,7.6-2.047c2.489-.857,4.942-1.825,7.383-2.833,2.45-.984,4.873-2.046,7.367-2.96,1.241-.471,2.472-.968,3.682-1.515a16.667,16.667,0,0,0,3.478-1.985l1.263,2.791a17.007,17.007,0,0,0-3.8,1.3c-1.217.542-2.415,1.127-3.608,1.729-2.376,1.227-4.844,2.258-7.326,3.267-2.492.984-5.011,1.909-7.549,2.792-2.533.9-5.1,1.7-7.642,2.657-1.28.451-2.566.889-3.862,1.225s-2.6.592-3.9.85c-2.6.486-5.167.855-7.716,1.52-2.574.631-5.131,1.525-7.847,2.083a17.521,17.521,0,0,1-8.63-.086Z" transform="translate(-13.922 -260.656)" fill="#ab4b38"/>
          <path id="Trazado_211879" data-name="Trazado 211879" d="M567.939,197.7c.557,11.651-1.557,22.953-3.631,34.115-1,5.6-2.039,11.169-2.924,16.718-.92,5.533-1.633,11.137-2.8,16.729a158.346,158.346,0,0,1-4.131,16.712,84.59,84.59,0,0,1-3.109,8.079c-1.206,2.612-2.482,5.192-3.873,7.686-2.749,5.019-5.683,9.855-8.477,14.727a73.016,73.016,0,0,0-3.764,7.5,35.5,35.5,0,0,0-2.487,7.965l-2.941-.859c1.171-2.674,2.161-5.372,3.3-8.012,1.108-2.656,2.356-5.239,3.62-7.809,2.561-5.123,5.606-9.93,8.306-14.853a81.289,81.289,0,0,0,6.794-15.267A87.979,87.979,0,0,0,555.17,264.7c.668-5.595,1.454-11.235,2.665-16.838s2.742-11.067,4.124-16.554a126.467,126.467,0,0,0,3.11-16.608,63.943,63.943,0,0,0-.178-16.693Z" transform="translate(-340.219 -126.956)" fill="#ab4b38"/>
          <path id="Trazado_211880" data-name="Trazado 211880" d="M608.885,244.212a125.515,125.515,0,0,1-5.112,15.44c-2.094,4.973-4.437,9.818-6.85,14.628-2.456,4.78-4.978,9.534-7.682,14.147-1.353,2.3-2.732,4.593-4.137,6.85l-4.3,6.719a109,109,0,0,0-7.6,13.931c-.594,1.182-1.063,2.414-1.557,3.635s-1.015,2.431-1.448,3.676l-2.627,7.56a67.3,67.3,0,0,1-3.122,7.549c-1.23,2.447-2.632,4.747-4.013,7.025a62.211,62.211,0,0,0-3.753,6.938,19.65,19.65,0,0,0-1.863,7.4l-3.032-.444a54.461,54.461,0,0,1,2.787-7.885c1.121-2.5,2.393-4.9,3.662-7.258s2.567-4.671,3.7-7.017a64.556,64.556,0,0,0,3.015-7.24l2.654-7.567c.452-1.275,1.008-2.511,1.509-3.768s1.019-2.508,1.6-3.725l1.7-3.679,1.826-3.607c.575-1.222,1.222-2.4,1.846-3.592s1.208-2.41,1.859-3.583c2.484-4.777,5.233-9.376,8.15-13.848s5.887-8.88,8.655-13.416a100.881,100.881,0,0,0,7.12-14.19,68.113,68.113,0,0,0,4-15.231Z" transform="translate(-354.34 -156.466)" fill="#f0786a"/>
          <path id="Trazado_211881" data-name="Trazado 211881" d="M579.825,371.738a12.952,12.952,0,0,1,1.492-1.588,3.467,3.467,0,0,1,.612-.4c.215-.1.509-.221.384-.151-.25.244-.063.118.013-.112.4-.935.718-2.216,1.074-3.361a68.792,68.792,0,0,1,2.56-6.842,141.056,141.056,0,0,1,6.57-12.963c2.387-4.2,4.9-8.3,7.458-12.308,2.526-4.028,5.216-7.913,7.466-12.045a98.846,98.846,0,0,0,5.449-13.113,79.726,79.726,0,0,1,6.013-13.277,86.756,86.756,0,0,1,8.216-11.98c2.987-3.791,6.18-7.38,8.805-11.426l2.361,1.953A79.961,79.961,0,0,0,629.12,285.1c-2.735,3.889-5.432,7.778-7.781,11.861a78.949,78.949,0,0,0-5.874,12.836c-1.629,4.468-3.213,9.077-5.282,13.519a88.382,88.382,0,0,1-6.985,12.768c-2.633,4.039-5.519,7.855-8.218,11.77a75.463,75.463,0,0,0-7.152,12.249,49.753,49.753,0,0,0-2.43,6.618c-.355,1.142-.536,2.208-.877,3.55a3.718,3.718,0,0,1-.222.585,1.99,1.99,0,0,1-.685.805c-.381.225-.376.2-.416.256l-.1.142a6.418,6.418,0,0,0-.66,1.275Z" transform="translate(-372.341 -174.777)" fill="#ab4b38"/>
          <path id="Trazado_211882" data-name="Trazado 211882" d="M612.091,355.131a127.13,127.13,0,0,0-11.541-5.745c-3.936-1.724-7.924-3.332-12-4.7-8.152-2.774-16.433-4.934-24.416-8.345-7.989-3.314-16.243-6.2-23.8-10.716a55.761,55.761,0,0,1-10.583-7.827c-1.592-1.522-3.129-3.1-4.57-4.774l-4.315-5.072,2.572-1.665a22,22,0,0,0,3.481,5.223,38.423,38.423,0,0,0,4.519,4.4,83.721,83.721,0,0,0,10.314,7.316,104.029,104.029,0,0,0,23.476,9.994c2.056.622,4.131,1.2,6.178,1.871s4.079,1.412,6.1,2.18c4.039,1.562,7.994,3.34,11.946,5.1s7.926,3.448,11.907,5.125,7.976,3.32,12.033,4.856Z" transform="translate(-334.479 -196.688)" fill="#f0786a"/>
          <path id="Trazado_211883" data-name="Trazado 211883" d="M561.524,252.648a135.705,135.705,0,0,0,12.883,25.429c5.128,8.033,10.966,15.571,15.409,24.177,2.242,4.268,4.536,8.536,6.51,12.949a122.064,122.064,0,0,1,5.215,13.522,89.686,89.686,0,0,1,3.4,14.082c.193,1.192.379,2.385.526,3.583.179,1.193.337,2.389.481,3.587.3,2.395.583,4.787,1.067,7.181l-3.058.194a37.054,37.054,0,0,0-.3-7.088q-.435-3.522-1.207-6.99c-1.036-4.613-2.146-9.2-3.567-13.71a100.208,100.208,0,0,0-11.911-25.622L583.033,298c-1.3-2-2.545-4.031-3.786-6.079-2.461-4.114-4.735-8.354-6.985-12.593L558.727,253.9Z" transform="translate(-358.793 -162.241)" fill="#f0786a"/>
          <path id="Trazado_211884" data-name="Trazado 211884" d="M659.133,215.12a197.388,197.388,0,0,0,5.555,29.163c1.336,4.76,2.882,9.446,4.45,14.1,1.561,4.677,3.2,9.206,4.676,14.069a56.467,56.467,0,0,1,1.731,7.475c.4,2.526.632,5.027.871,7.483a95.07,95.07,0,0,0,2.669,14.425c1.206,4.772,2.64,9.534,3.645,14.437.532,2.443.992,4.911,1.43,7.386.417,2.483.769,4.974,1.246,7.5l-3.059.165c.3-4.871-.822-9.715-2.078-14.453-1.319-4.741-2.684-9.5-3.886-14.354A98.075,98.075,0,0,1,673.7,287.7c-.276-2.476-.5-4.919-.945-7.283a37.662,37.662,0,0,0-2.069-6.894c-.869-2.271-1.9-4.524-2.759-6.889s-1.632-4.745-2.317-7.154c-1.363-4.824-2.373-9.727-3.337-14.618-1.929-9.779-3.786-19.53-6.152-29.188Z" transform="translate(-421.334 -138.142)" fill="#ab4b38"/>
          <path id="Trazado_211885" data-name="Trazado 211885" d="M662.447,202.49c5.375,9.369,11.2,18.406,17.383,27.281a68.475,68.475,0,0,1,7.973,14.412,81.544,81.544,0,0,1,2.6,7.79c.737,2.623,1.315,5.263,1.925,7.9,2.344,10.553,5.123,21.007,7.034,31.674.986,5.323,1.844,10.68,2.3,16.084l.683,8.1c.08,1.353.213,2.7.348,4.052s.271,2.7.5,4.052l-3.062.111a52.067,52.067,0,0,0-.087-8.034l-.381-4-.519-3.986c-.794-5.3-1.578-10.6-2.53-15.877a266.628,266.628,0,0,0-7.487-31.318l-2.385-7.685c-.784-2.547-1.537-5.089-2.411-7.575a78.059,78.059,0,0,0-2.89-7.327c-1.105-2.385-2.38-4.72-3.718-7.039q-8.267-13.85-17.851-26.938Z" transform="translate(-423.749 -130.031)" fill="#f0786a"/>
          <path id="Trazado_211886" data-name="Trazado 211886" d="M609.189,494.827c-4.254-.471-8.515-.748-12.782-.962-4.267-.2-8.535-.392-12.818-.441-4.281-.1-8.578-.134-12.863-.473a89.467,89.467,0,0,1-12.758-1.858c-8.406-1.838-16.853-3.514-25.045-6.239-2.037-.7-4.076-1.412-6.092-2.166-2-.794-3.955-1.633-5.9-2.45A48.843,48.843,0,0,0,515,478.145a18.272,18.272,0,0,0-6.1-.731l.242-3.054c2.214.5,4.354.991,6.468,1.561s4.175,1.25,6.213,1.949c4.084,1.415,7.976,2.989,11.976,4.34a122.566,122.566,0,0,0,24.695,5.619l6.317.656,6.3.793c4.2.578,8.41,1.18,12.639,1.668s8.484.736,12.742.87,8.524.138,12.8-.051Z" transform="translate(-326.795 -304.615)" fill="#ab4b38"/>
          <path id="Trazado_211887" data-name="Trazado 211887" d="M518.606,386.968a89.325,89.325,0,0,0,10.25,7.457,98.163,98.163,0,0,0,11.124,6.083c3.835,1.785,7.762,3.345,11.67,4.911l5.854,2.363,5.831,2.439c3.863,1.677,7.985,2.784,12.029,4.5a34.044,34.044,0,0,1,5.874,3.1,36.353,36.353,0,0,1,5.074,4.258c3.079,3.093,5.858,6.243,8.637,9.485,1.384,1.616,2.786,3.216,4.225,4.782a42.9,42.9,0,0,0,4.588,4.45l-2.26,2.069a42.913,42.913,0,0,0-4.029-4.962c-1.434-1.571-2.9-3.109-4.392-4.63s-2.958-3.059-4.41-4.613c-1.438-1.573-2.848-3.141-4.319-4.6a33.753,33.753,0,0,0-4.669-3.955,29.27,29.27,0,0,0-5.378-2.868,119.1,119.1,0,0,0-12.068-3.9c-2.053-.632-4.114-1.256-6.126-2.016s-3.985-1.615-5.936-2.517c-3.893-1.828-7.645-3.94-11.349-6.1-3.7-2.174-7.394-4.317-11.051-6.539l-10.966-6.719Z" transform="translate(-331.877 -248.496)" fill="#ab4b38"/>
          <path id="Trazado_211888" data-name="Trazado 211888" d="M636.711,432.222a92.5,92.5,0,0,1,4.317-9.767c1.615-3.137,3.4-6.158,5.14-9.208a148.3,148.3,0,0,1,11.412-17.431,155.658,155.658,0,0,0,11.008-17.572c1.712-3,3.344-6.051,5.1-9.038.867-1.5,1.7-3.017,2.472-4.565a26.2,26.2,0,0,0,1.957-4.819l2.759,1.332a31.219,31.219,0,0,0-2.657,4.523c-.786,1.556-1.539,3.128-2.289,4.7-1.469,3.167-3.158,6.222-4.876,9.258-1.739,3.025-3.535,6.015-5.346,9s-3.671,5.93-5.361,9c-.876,1.513-1.746,3.033-2.7,4.5s-1.983,2.878-3.022,4.274c-2.094,2.78-4.323,5.435-6.375,8.208-4.066,5.523-7.441,11.725-8.574,18.4Z" transform="translate(-408.871 -231.064)" fill="#f0786a"/>
          <path id="Trazado_211889" data-name="Trazado 211889" d="M589.648,193.256a131.956,131.956,0,0,1,17.287,28.977,138.191,138.191,0,0,1,6.052,15.762c.813,2.692,1.58,5.4,2.209,8.135s1.136,5.5,1.628,8.253c1.877,11.042,3.952,21.981,6.074,32.9l3.327,16.335c.558,2.721,1.164,5.431,1.853,8.12a59.159,59.159,0,0,0,2.541,7.929l-2.945.846c-.468-2.78-1.127-5.5-1.83-8.2l-2.087-8.123c-1.42-5.409-2.529-10.888-3.592-16.366-2.208-10.941-3.8-21.991-6.574-32.745l-4.156-16.062q-1.051-4-2.2-7.977c-.789-2.644-1.661-5.262-2.6-7.86-3.819-10.333-9.5-20.127-17.268-27.873Z" transform="translate(-377.185 -124.102)" fill="#f0786a"/>
          <path id="Trazado_211890" data-name="Trazado 211890" d="M414.3,252.517c22.591,27.03,3.333,92.236,3.333,92.236-2.419-1.623-6.952.508-9.453-.985a7.892,7.892,0,0,1-2.061-2.05A123.211,123.211,0,0,1,391.218,317a4.621,4.621,0,0,0-1.189-1.812c-1.854-1.466-4.414.554-6.766.794-3.279.334-5.718-2.843-7.45-5.647-3.331-5.395-6.664-10.79-9.852-16.271-1.443-2.48-2.884-5.057-3.264-7.9-.671-5.021,2.042-9.806,4.655-14.145,5.857-9.728,12.43-20.082,22.983-24.275,8.079-3.21,18.395-1.893,23.97,4.777" transform="translate(-232.843 -158.015)" fill="#db7d00"/>
          <path id="Trazado_211891" data-name="Trazado 211891" d="M205.111,289.695c8.911,1.727,15.173,10.643,24.127,12.133a141.62,141.62,0,0,1,3.075-15.534,6.093,6.093,0,0,1,.733-1.908,6.252,6.252,0,0,1,2.862-1.964l9.1-3.984a12.687,12.687,0,0,0,4.377-2.677,4.326,4.326,0,0,0,.987-4.747l15.788,2.236q.726-8.9,1.452-17.795c.138-1.693.331-3.518,1.467-4.781,1.369-1.522,3.645-1.736,5.692-1.772a84.718,84.718,0,0,1,14.175.944,3.069,3.069,0,0,0,2.226-.216,3,3,0,0,0,.951-2.116q1.5-9.755,2.333-19.6a131.082,131.082,0,0,0,22.681-2.34,46.563,46.563,0,0,0-23.783-22.706s-24.374-22.82-61.715,11.01-26.524,75.816-26.524,75.816" transform="translate(-130.78 -125.441)" fill="#ed9d22"/>
          <path id="Trazado_211892" data-name="Trazado 211892" d="M531.19,103.125c10.095,7.521,18.858,17.346,23.046,29.217L541.6,129.329a21.079,21.079,0,0,0-1.212,7.609l-18.22-5.616a25.189,25.189,0,0,1-2.2,8.708,151.423,151.423,0,0,1-14.843-10.688c-1.941.653-2.9,2.945-2.781,4.99a19.775,19.775,0,0,0,1.792,5.845,33.351,33.351,0,0,1,2.248,11.244,20.074,20.074,0,0,1-8.1-3.172c-.5,2.152-1.721,4.842-3.915,4.575a5.831,5.831,0,0,1-2.226-1.072,10.6,10.6,0,0,0-7.223-1.419c-2.526.42-5.079,1.759-7.517.974-1.9-.612-3.173-2.367-4.241-4.056-3.291-5.208-6.064-10.937-10.773-14.909-2.646-2.232-5.928-3.947-7.559-7a13.481,13.481,0,0,1-1.239-6.651,37.861,37.861,0,0,1,9.609-23.774,50.648,50.648,0,0,1,21.674-14.137c4.54-1.571,9.2-2.2,12.892,1.388,2.806,2.731,4.219,4.336,7.951,6.154,8.837,4.3,17.582,8.919,25.484,14.806" transform="translate(-291.269 -51.068)" fill="#db7d00"/>
          <path id="Trazado_211893" data-name="Trazado 211893" d="M55.874,185.893a29.546,29.546,0,0,0,16.743-4.348l5.446,15.879,10.15-4.181a3.1,3.1,0,0,1,2.319-.3,3.17,3.17,0,0,1,1.331,1.457,61.884,61.884,0,0,0,11.311,14.024c4.652-1.037,8.728-3.784,12.5-6.7a119.273,119.273,0,0,0,13.479-12.17c1.719-1.809,3.462-3.84,3.761-6.317.37-3.07-1.561-5.9-3.476-8.328-5.067-6.42-10.773-12.436-17.584-16.962a44.394,44.394,0,0,0-17.466-7.055c-5.816-.923-7.933.589-12.056,4.587a238.355,238.355,0,0,0-26.456,30.416" transform="translate(-35.88 -96.728)" fill="#ffb157"/>
          <path id="Trazado_211894" data-name="Trazado 211894" d="M152.134,34.079a45.467,45.467,0,0,1,5.279-7.536c7.057-7.543,18.374-8.806,28.673-9.6l23.007-1.778c1.67-.129,3.486-.222,4.869.722,2.543,1.735,2,5.653.667,8.43-2.183,4.565-5.628,8.393-9.136,12.04A245.652,245.652,0,0,1,185.7,54.78c-3.9,3.247-8.03,6.542-10.168,11.141-1.786,3.839-1.991,8.2-2.167,12.428q-.6,14.355-1.193,28.71a36.854,36.854,0,0,1-9.835-2.809,4.165,4.165,0,0,1-2.1-1.588,4.392,4.392,0,0,1-.357-2.139q.007-4.59.014-9.18a4.1,4.1,0,0,0-.234-1.683,3.761,3.761,0,0,0-1.381-1.441,21.754,21.754,0,0,0-17.036-3.35,139.5,139.5,0,0,1-1.5-15.09c-2.322-.5-10.617-1.006-10.563-3.743.047-2.364,6.645-8.3,8.18-10.326q7.92-10.438,14.773-21.631" transform="translate(-82.955 -9.685)" fill="#db7d00"/>
          <path id="Trazado_211895" data-name="Trazado 211895" d="M237.669,33.919a38.883,38.883,0,0,1-6.808,4.416,46.47,46.47,0,0,1-5.052,1.956L201.027,48.8c.849,3.831,4.583,6.511,5.463,10.334.67,2.911-.439,5.905-1.529,8.687L200.79,78.463a2.21,2.21,0,0,0-.2,1.542c.31.831,1.4.958,2.245,1.215,2.924.886,4.084,4.392,4.367,7.434s.233,6.4,2.218,8.726c2.8,3.274,7.9,2.7,12.039,3.87a6.21,6.21,0,0,0,2.574.432,5.018,5.018,0,0,0,2.122-1.084C240.763,89.85,255.283,77.506,273.1,74.091c-.52-6.04-1.025-12.254.739-18.054,1.043-3.43,2.845-6.587,3.95-10,1.869-5.769,1.468-12.614-2.45-17.243-2.867-3.388-7.256-5.2-11.651-5.806-4.062-.565-10.358-1.076-14.156.848-4.295,2.175-8.008,7.112-11.859,10.081" transform="translate(-128.761 -14.434)" fill="#ed9d22"/>
          <path id="Trazado_211896" data-name="Trazado 211896" d="M320.4,14.057a136.607,136.607,0,0,1,19.362,16.111L328.88,41.28a2.894,2.894,0,0,0-.844,1.234c-.247.977.546,1.884,1.288,2.566,2.724,2.5,5.676,4.8,7.925,7.739s3.753,6.7,3.027,10.324a4.391,4.391,0,0,0-.13,2.409,3.551,3.551,0,0,0,1.967,1.66q12.438,6,25.422,10.756a7.65,7.65,0,0,0,3.2.666,7.756,7.756,0,0,0,3.317-1.387l7-4.317a34.886,34.886,0,0,1-3.027-6.233,2.948,2.948,0,0,1-.139-2.386,3.06,3.06,0,0,1,1.615-1.158L390.77,58.4a3.921,3.921,0,0,0,1.624-1.031,3.939,3.939,0,0,0,.586-2.405q.165-6.954.331-13.907l22-4.287c1.391-2.283-.941-5-3.132-6.532-13.519-9.447-30.072-13.429-44.567-21.3-3.949-2.143-7.76-4.582-11.938-6.235C344.994-1.519,334,.19,322.945,1.292c-2.691.268-8.927.534-10.353,3.438-1.622,3.3,5.533,7.763,7.811,9.327" transform="translate(-200.582 0)" fill="#ffb157"/>
          <path id="Trazado_211897" data-name="Trazado 211897" d="M180.618,223.5s48.963-42.448,57.261-45.639,32.554.319,52.661,22.819c0,0-19.725-33.772-46.277-38.458-16.277-2.873-79.59,53.493-79.59,53.493s.958,6.7,5.107,8.617,10.839-.833,10.839-.833" transform="translate(-105.746 -104.105)" fill="#e1f0fa"/>
          <path id="Trazado_211898" data-name="Trazado 211898" d="M501.706,255.193s-1.989-3.4-5.545-8.188a7.039,7.039,0,0,1-2.652.2,82.481,82.481,0,0,1,8.2,7.99" transform="translate(-316.913 -158.617)" fill="#b5d6ea"/>
          <path id="Trazado_211899" data-name="Trazado 211899" d="M174.381,301.958a5.531,5.531,0,0,1,.193.629c4.162,1.677,10.557-.94,10.557-.94s7.337-6.36,16.81-14.34a4.4,4.4,0,0,0-2.084-2.892c-5.661-3.222-7.683,7.519-12.131,6.445-1.648-.4-4.653-3.83-7.6-6.432-3.607,3.044-6.518,5.56-8.429,7.226a42.719,42.719,0,0,0,2.68,10.305" transform="translate(-110.26 -182.251)" fill="#b5d6ea"/>
          <path id="Trazado_211900" data-name="Trazado 211900" d="M187.134,296.825c-2.242-.647-7.66-9.8-10.532-8.782s-3.192,9.458,0,19.253c1.342,4.119-.686,18.293-1.117,31.919-.407,12.87.852,25.251-.313,28.2-2.4,6.08-5.591,15.2-1.761,17.9s9.255-3.04,10.851-2.365,6.7,4.833,10.213,3.092-6.7-12.212-6.7-17.616c0-2.7-1.368-15.911-.171-29.047s4.958-26.2,6.235-28.613c2.553-4.827,7.34-16.987,2.872-20.026s-6.064,7.093-9.575,6.08" transform="translate(-110.215 -184.92)" fill="#e1f0fa"/>
          <path id="Trazado_211901" data-name="Trazado 211901" d="M457.336,242.492c-1.621,4.594,13.724,16.6,14.362,21.383.337,2.528,4.328,19.982,4.669,36.671.305,14.922-2.879,29.111-4.989,33.4-4.468,9.082-13.4,15.465-9.894,20.572s15.958-2.553,17.553-1.915,9.894,3.83,13.085.958-4.149-14.015-5.745-18.976c-.793-2.463,2.842-17.9,3.83-34,1-16.331-.638-33.335-.638-35.746,0-4.788-2.553-26.49-7.66-27.767s-5.745,6.064-8.617,6.064-14.043-6.064-15.958-.638" transform="translate(-293.606 -152.139)" fill="#e1f0fa"/>
          <path id="Trazado_211902" data-name="Trazado 211902" d="M183.8,334.836a.957.957,0,0,1-.09-1.911l19.679-1.9a.984.984,0,0,1,1.045.862.959.959,0,0,1-.862,1.045l-19.678,1.9c-.03,0-.062,0-.093,0" transform="translate(-117.415 -212.568)" fill="#ab4b38"/>
          <path id="Trazado_211903" data-name="Trazado 211903" d="M183.8,342.238a.958.958,0,0,1-.2-1.894l18.871-3.99a.958.958,0,1,1,.4,1.874L184,342.218a.994.994,0,0,1-.2.02" transform="translate(-117.415 -215.981)" fill="#ab4b38"/>
          <path id="Trazado_211904" data-name="Trazado 211904" d="M488.844,279.815a.957.957,0,0,1-.484-1.784l18.311-10.689a.958.958,0,1,1,.966,1.654l-18.311,10.689a.952.952,0,0,1-.482.13" transform="translate(-313.301 -171.593)" fill="#ab4b38"/>
          <path id="Trazado_211905" data-name="Trazado 211905" d="M482.545,286.078a.957.957,0,0,1-.132-1.905l21.5-3.03a.958.958,0,0,1,.266,1.9l-21.5,3.029a.947.947,0,0,1-.134.009" transform="translate(-309.257 -180.532)" fill="#ab4b38"/>
          <path id="Trazado_211906" data-name="Trazado 211906" d="M8.639,514.5A13.791,13.791,0,0,1,.291,499.079,140.253,140.253,0,0,1,9.921,511.1a28.9,28.9,0,0,1,16.374-18.573,32.177,32.177,0,0,1-1.753,19.227,32.842,32.842,0,0,1,15.166-10.064,17.207,17.207,0,0,1-5.034,11.321,60.417,60.417,0,0,1,17.6-9.6,28.285,28.285,0,0,0,2.99,7.659,42.51,42.51,0,0,1,1.876-17.632,22.3,22.3,0,0,1,7.583,17.33,18.58,18.58,0,0,1,11.314-10.982,42.109,42.109,0,0,1-7.814,15.758,40.974,40.974,0,0,1,14.695-8.769,20.6,20.6,0,0,1-1.341,10,23.384,23.384,0,0,1,9.352-6.42L92.651,515a41.35,41.35,0,0,1,3.218-13.5,16.163,16.163,0,0,1,5.589,11.083,14.138,14.138,0,0,1,7.876-8.424,10.492,10.492,0,0,1-2.7,9.512A26.027,26.027,0,0,1,121.3,502.6c.279,3.2-4.1,13.8-5.468,16.7,1.534-3.36,8.149-13.446,11.538-14.913a2.439,2.439,0,0,1,1.95-.209c.814.379,1.01,1.427,1.1,2.32.232,2.278-.282,9.058-.05,11.336,1.821-5.956,2.93-16.853,1.8-22.978,2.978,5.753,7.021,17.225,10,22.978,1.5-4.624,3.6-14.408,7.715-16.993a22.461,22.461,0,0,1-2.855,13A17.447,17.447,0,0,1,157.468,503.8a11.587,11.587,0,0,1-3.086,11,7.255,7.255,0,0,1,13.76,1.19l-2.589-12.12a41.59,41.59,0,0,1,8.556,11.88,15.6,15.6,0,0,1,8.242-11.659,62.075,62.075,0,0,1-6.606,15.688l14.478-13.458a16.163,16.163,0,0,1,.345,9.41,25.4,25.4,0,0,0,9-14.111,48,48,0,0,1,2.574,12.918,28.045,28.045,0,0,0,2.165-13.856,54.29,54.29,0,0,1,7.882,14.773,20.794,20.794,0,0,1,12.748-13.446c-.278,5.385-4.97,10.5-8.578,14.5,3.8-5.741,11.8-10.2,18.1-12.968,1.262,4.235-1.667,9.24-4.627,12.521,4.507-5.36,12.321-9.614,18.943-11.895.642,3.139-3.8,8.913-6.084,11.161,4.682-5.765,14.062-12.809,20.769-16a15.048,15.048,0,0,1-1.295,10.763l10.274-12.526a30.851,30.851,0,0,1-2.851,16.269,29.359,29.359,0,0,1,23.533-14.445c-2.427,7.262-7.384,10.949-13.814,15.1-81.405,10.476-173.095,8.735-270.671,0" transform="translate(0 -316.283)" fill="#f3e190"/>
        </g>
      </g>
    </g>
  </g>
</svg>
