<svg xmlns="http://www.w3.org/2000/svg" xmlns:xlink="http://www.w3.org/1999/xlink" width="503.114" height="355.674" viewBox="0 0 503.114 355.674">
  <defs>
    <clipPath id="clip-path">
      <rect id="Rectángulo_49659" data-name="Rectángulo 49659" width="385.859" height="101.84" fill="none"/>
    </clipPath>
    <clipPath id="clip-path-3">
      <rect id="Rectángulo_49657" data-name="Rectángulo 49657" width="151.026" height="17.761" transform="translate(0.02 84.079)" fill="none"/>
    </clipPath>
    <clipPath id="clip-path-4">
      <rect id="Rectángulo_49656" data-name="Rectángulo 49656" width="319.642" height="259.001" fill="none"/>
    </clipPath>
    <clipPath id="clip-path-6">
      <rect id="Rectángulo_49644" data-name="Rectángulo 49644" width="105.746" height="38.367" fill="none"/>
    </clipPath>
    <clipPath id="clip-path-7">
      <rect id="Rectángulo_49645" data-name="Rectángulo 49645" width="49.865" height="18.597" fill="none"/>
    </clipPath>
    <clipPath id="clip-path-8">
      <rect id="Rectángulo_49648" data-name="Rectángulo 49648" width="207.678" height="142.327" fill="none"/>
    </clipPath>
    <clipPath id="clip-path-9">
      <rect id="Rectángulo_49646" data-name="Rectángulo 49646" width="59.66" height="93.036" fill="none"/>
    </clipPath>
    <clipPath id="clip-path-10">
      <rect id="Rectángulo_49647" data-name="Rectángulo 49647" width="137.943" height="142.299" fill="none"/>
    </clipPath>
    <clipPath id="clip-path-11">
      <rect id="Rectángulo_49651" data-name="Rectángulo 49651" width="135.541" height="48.464" fill="none"/>
    </clipPath>
    <clipPath id="clip-path-12">
      <rect id="Rectángulo_49649" data-name="Rectángulo 49649" width="59.66" height="48.464" fill="none"/>
    </clipPath>
    <clipPath id="clip-path-13">
      <rect id="Rectángulo_49650" data-name="Rectángulo 49650" width="15.379" height="11.777" fill="none"/>
    </clipPath>
    <clipPath id="clip-path-14">
      <rect id="Rectángulo_49652" data-name="Rectángulo 49652" width="21.201" height="45.279" fill="none"/>
    </clipPath>
    <clipPath id="clip-path-15">
      <rect id="Rectángulo_49653" data-name="Rectángulo 49653" width="1.84" height="2.691" fill="none"/>
    </clipPath>
    <clipPath id="clip-path-16">
      <rect id="Rectángulo_49654" data-name="Rectángulo 49654" width="4.049" height="1.172" fill="none"/>
    </clipPath>
  </defs>
  <g id="Grupo_171384" data-name="Grupo 171384" transform="translate(-811.886 -8435)">
    <rect id="BG" width="503.114" height="355.674" transform="translate(811.886 8435)" fill="#e3f3ff" opacity="0.949"/>
    <g id="Grupo_171383" data-name="Grupo 171383">
      <g id="Grupo_171382" data-name="Grupo 171382" transform="translate(907 8443.08)">
        <g id="Grupo_171381" data-name="Grupo 171381" clip-path="url(#clip-path)">
          <g id="Grupo_171380" data-name="Grupo 171380">
            <g id="Grupo_171379" data-name="Grupo 171379" clip-path="url(#clip-path)">
              <path id="Trazado_212536" data-name="Trazado 212536" d="M9.406,81.715C7.943,69.679,24.16,70.887,30.146,76.074,23.092,64.5,32.116,54.316,42.746,50.8c6.5-2.151,20.293,1.91,20.824,11.912,7.668-14.546,29.215-5,24.026,11.445,6.173-6.091,25.682-6.8,27.074,8.205,10.062-7.518,19.338-2.332,23.934,6.886,5.155-2.989,12.92,1.876,12.42,5.206-.866,5.782-10.168,12.815-30.923.866-6.728,3.206-6.353,6.315-14.361,5.976-4.435-.188-8.025-1.613-11.964-3.931-5.019-2.951-3.513-3.349-8.651-1.59-4.128,1.412-5.8,3.636-10.844,3.02-3.691-.452-7.493-4.384-10.711-3.959-3.272.433-5.174,4.406-9.4,4.57-4.1.157-6.02-1.025-8.8-3.832-3.548,3.467-10.316,4.412-15.094,4.462-7.8.081-8.609-2.383-14.464-6.3-4.964-3.32-11.074.174-14.463-5.05-4.33-6.675,2.728-8.659,8.062-6.966" fill="#edf9ff"/>
              <g id="Grupo_171378" data-name="Grupo 171378" style="mix-blend-mode: multiply;isolation: isolate">
                <g id="Grupo_171377" data-name="Grupo 171377">
                  <g id="Grupo_171376" data-name="Grupo 171376" clip-path="url(#clip-path-3)">
                    <path id="Trazado_212537" data-name="Trazado 212537" d="M1.344,88.681C.1,86.763-.18,85.247.143,84.08c3.258,1.889,6.111,4.588,9.9,5.438,2.53.565,5.207-.466,7.549-.318,3.812.245,2.07.145,5.186,1.556,8.271,3.752,17.054,2.757,24.372-3.993,3.858,5.715,10.353,4.921,15.093,1.089,9.152,11.275,19.927,6.367,30.831.8,6.833,11.562,21.42,6.615,30.168,1.577,7.806,9.577,19.208,8.482,27.227,2.2a3.012,3.012,0,0,1,.554,2.021c-.867,5.782-10.168,12.814-30.923.866-6.728,3.205-6.353,6.314-14.361,5.976-4.435-.189-8.024-1.613-11.964-3.931-5.019-2.952-3.513-3.349-8.651-1.59-4.128,1.412-5.8,3.636-10.844,3.02-3.69-.452-7.493-4.384-10.711-3.959-3.272.433-5.174,4.406-9.4,4.57-4.1.157-6.02-1.025-8.8-3.832-3.548,3.467-10.317,4.412-15.1,4.462-7.8.081-8.608-2.383-14.463-6.3-4.963-3.32-11.075.174-14.463-5.05" fill="#e1ebfa"/>
                  </g>
                </g>
              </g>
              <path id="Trazado_212538" data-name="Trazado 212538" d="M360.178,6.959a10.8,10.8,0,0,0-10.645-.384c-2.225,1.217,1.892-.307,2.219-.373,5.842-1.223,8.289,2.968,9.05,1.76.2-.32,1.358-6.369,6.117-7.7,1.616-.453-3.546-1.258-6.741,6.694" fill="#fff"/>
              <path id="Trazado_212539" data-name="Trazado 212539" d="M376.565,23.161a10.886,10.886,0,0,0-10.535-2.754c-2.391.719,1.842.09,2.249.093,5.134.009,7.473,3.8,8.152,3.746.3.021.426-.282,1.487-1.173,5.9-4.951,7.686-1.921,7.938-2.871.143-.542-4.178-1.436-9.291,2.959" fill="#fff"/>
              <path id="Trazado_212540" data-name="Trazado 212540" d="M227.4,55.225a29.959,29.959,0,1,0,29.959-29.959A29.959,29.959,0,0,0,227.4,55.225" fill="#edf9ff"/>
            </g>
          </g>
        </g>
      </g>
      <g id="Grupo_171375" data-name="Grupo 171375" transform="translate(955.386 8508)">
        <g id="Grupo_171374" data-name="Grupo 171374" clip-path="url(#clip-path-4)">
          <g id="Grupo_171373" data-name="Grupo 171373">
            <g id="Grupo_171372" data-name="Grupo 171372" clip-path="url(#clip-path-4)">
              <path id="Trazado_212414" data-name="Trazado 212414" d="M230.264,162.568c13.58,5.825,32.546,9.823,44.465,12.118,4.88.941,8.578,1.594,10.241,1.972,5.726,1.3,35.123,32.547,36.263,34.916s.178,20.032-.594,22.139-12.647-4.806-13.6-6.838,2.445-7.348,3.6-8.7,3.16-2.821,2.935-4.022-3.756,1.027-5.367-.285-13.282-17.512-22.317-21.467c-1.581-.692-5.97.158-10.636-4.163-1.6-1.483-52.916-3.681-52.916-3.681Z" transform="translate(-20.398 -14.915)" fill="#4a1f1f"/>
              <path id="Trazado_212415" data-name="Trazado 212415" d="M101.935,119.22c-38.517,17.073-18.686,65.126-16.874,70.011,4.55,12.258-6.059,12.377-11.7,13.1-4.577.587-22.038,34.99-27.9,39.245-4.342,3.153,4.753,3.662,3.982,6.144s-5.24,5.379-7.836,6.268,1.423,12.619,4.8,15.676c2.235,2.022,10.754-10.892,10.617-14.218-.351-8.5,10.444-28.844,18.447-35.4,2.429-1.991,52.166.554,66.085-40.552,0,0-21.327-68.382-39.626-60.272" transform="translate(-3.741 -10.877)" fill="#4a1f1f"/>
              <path id="Trazado_212416" data-name="Trazado 212416" d="M47.456,263.736c.322,3.883,3.123,10.731,5.592,12.964a.78.78,0,0,0,.281.121c-2.548,3.853-5.685,7.277-6.916,6.162-3.381-3.055-7.4-14.785-4.8-15.675a18.822,18.822,0,0,0,5.848-3.572" transform="translate(-3.741 -24.197)" fill="#261717"/>
              <path id="Trazado_212417" data-name="Trazado 212417" d="M318.932,224.122c1.423,1.765,7.717,5.6,11.148,6.617a53.078,53.078,0,0,1-.9,8.621c-.772,2.107-12.647-4.806-13.6-6.838-.892-1.9,2.035-6.691,3.354-8.4" transform="translate(-28.938 -20.562)" fill="#261717"/>
              <path id="Trazado_212418" data-name="Trazado 212418" d="M105.581,116.525C90.477,84,50.509,92.739,40.564,95.9,28.106,99.869,15.32,90.539,15.32,90.539s-5.027,6.942-2.057,13.881c0,0-4.7,1.133-10.586-3,0,0-7.69,15.68,3,26.916,7.791,8.189,24.8,14.5,44.484,3.554s41.975-21.468,49.553-12.1,5.867-3.262,5.867-3.262" transform="translate(0 -8.307)" fill="#3b2a2a"/>
              <g id="Grupo_171341" data-name="Grupo 171341" transform="translate(0.001 91.063)" opacity="0.3" style="mix-blend-mode: multiply;isolation: isolate">
                <g id="Grupo_171340" data-name="Grupo 171340">
                  <g id="Grupo_171339" data-name="Grupo 171339" clip-path="url(#clip-path-6)">
                    <path id="Trazado_212419" data-name="Trazado 212419" d="M.188,114.286C33.328,147.6,59.8,99.314,85.464,106.764a45.08,45.08,0,0,1,20.24,12.521c.185,2.98,0,9.325-5.991,1.918-7.578-9.365-29.867,1.157-49.553,12.1s-36.693,4.635-44.484-3.554a20.877,20.877,0,0,1-5.66-15.6,1.491,1.491,0,0,1,.171.131" transform="translate(-0.001 -100.786)" fill="#331f1f"/>
                    <path id="Trazado_212420" data-name="Trazado 212420" d="M74.525,100.308s-3.586,1.527-8.731,4.263c-15.466,8.223-34.727,12.013-51.285.74a11.783,11.783,0,0,1-.928-4.857c37.218,18.448,52.173-1.272,60.945-.146" transform="translate(-1.246 -100.262)" fill="#331f1f"/>
                  </g>
                </g>
              </g>
              <path id="Trazado_212421" data-name="Trazado 212421" d="M201.923,107.03c-16.355,24.411-69.514,4.031-90.083,6.834-43.3,5.9-39.54,63.411-38.4,68.691,2.87,13.253-8.04,11.817-13.938,11.731-4.786-.071-27.768,32.684-34.411,36.191-4.922,2.6,4.341,4.459,3.185,6.894s-6.17,4.752-8.966,5.284-.393,13.165,2.628,16.8c2,2.4,12.642-9.6,12.989-13.036.889-8.776,14.963-28.08,24.142-33.637,2.786-1.687,53.477,8.237,73.809-31.921,0,0,65.221,29.9,102.051-6.485,7.642-7.549,6.428-25.464,12.071-41.239,4.387-12.262-45.08-26.106-45.08-26.106" transform="translate(-1.658 -9.82)" fill="#642b2b"/>
              <path id="Trazado_212422" data-name="Trazado 212422" d="M25.841,253.263c-.239,4.034,1.629,11.477,3.836,14.132a.818.818,0,0,0,.27.165c-3.182,3.581-6.905,6.635-8.006,5.311-3.023-3.634-5.425-16.268-2.629-16.8a19.513,19.513,0,0,0,6.529-2.807" transform="translate(-1.658 -23.236)" fill="#331f1f"/>
              <path id="Trazado_212423" data-name="Trazado 212423" d="M230.248,165.034c11.931,8.719,29.518,16.864,40.619,21.772,4.546,2.01,8,3.476,9.539,4.216,5.289,2.549,26.939,39.589,27.518,42.153s-4.314,19.563-5.539,21.443-11.249-7.518-11.721-9.711,4.029-6.613,5.453-7.674,3.712-2.043,3.761-3.262-3.89.159-5.167-1.48-9.021-20.043-16.94-25.921c-1.386-1.029-5.854-1.184-9.432-6.441-1.229-1.8-50.746-15.442-50.746-15.442Z" transform="translate(-19.963 -15.141)" fill="#642b2b"/>
              <path id="Trazado_212424" data-name="Trazado 212424" d="M303.192,244.789c.993,2.038,6.266,7.183,9.381,8.946a53.216,53.216,0,0,1-2.81,8.2c-1.225,1.88-11.249-7.518-11.722-9.711-.442-2.055,3.483-6.066,5.151-7.435" transform="translate(-27.341 -22.458)" fill="#331f1f"/>
              <path id="Trazado_212425" data-name="Trazado 212425" d="M269.446,69.337c5.95-2.6,17.213-.372,24.272,2.736,1.389.611,1.785,3.048-.72,3.645s-4.435.739-7.054,1.285-18.656-6.721-16.5-7.666" transform="translate(-24.702 -6.256)" fill="#4b2121"/>
              <path id="Trazado_212426" data-name="Trazado 212426" d="M339.765,99.582c.251-2.567-.78-10.774-5.212-13.163-3.613-1.948-3.221-.841-9.083-3.278S294.59,71.765,287.654,71.93c-12.189.29-64.387,11.86-67.754,45.346s43.621,19.251,45.6,12.641c4.122-13.741,19.3-24.2,29.463-27.269,0,0,3.244,4.534,10.664,3.666,4.966-.582,18.423-7.165,19.825-6.591s.553,3.713,5.577,4.432,5.085-.833,5.308-3.155c0,0,3.3-.129,3.425-1.418" transform="translate(-20.159 -6.599)" fill="#642b2b"/>
              <path id="Trazado_212427" data-name="Trazado 212427" d="M345.721,90.283c.881-1.736,2.04,2.141,2.218,3.773.358,3.287-3.341-1.559-2.218-3.773" transform="translate(-31.699 -8.243)" fill="#331f1f"/>
              <g id="Grupo_171344" data-name="Grupo 171344" transform="translate(269.742 81.263)" opacity="0.3" style="mix-blend-mode: multiply;isolation: isolate">
                <g id="Grupo_171343" data-name="Grupo 171343">
                  <g id="Grupo_171342" data-name="Grupo 171342" clip-path="url(#clip-path-7)">
                    <path id="Trazado_212428" data-name="Trazado 212428" d="M315.892,107.163a13.605,13.605,0,0,1-9.931-.074,9.637,9.637,0,0,1-3.906-2.832c-5.119-8.41-6.063-18.319-4.152-13.538s29.463,5.136,36.462,6.792,5.531,3.832,12.489,3.679c-.125,1.289-3.425,1.417-3.425,1.417-.037.391-.072.757-.124,1.1-5.6-2.48-8.86-3.953-10.76-2.372-1.164-.477-10.627,3.971-16.652,5.831" transform="translate(-296.989 -89.472)" fill="#5d3131"/>
                  </g>
                </g>
              </g>
              <path id="Trazado_212429" data-name="Trazado 212429" d="M220.127,103.73C245.6,74.366,268.549,73.793,283.854,71.3c12.508-2.038,35.46,9.324,41.322,11.761,2.124.883,2.815.927,5.1,1.751-2.272,6.881-.673,11.309-5.92,12.207-6.131,1.051-22.987,4.651-27.648,1.355-2.934-2.074-6.354-8.58-8.519-15.574-18.812,15.5-33.458,22.479-40.121,53.561-14.781,1.522-41.249-17.293-27.942-32.631" transform="translate(-19.863 -6.519)" fill="#fc4958"/>
              <path id="Trazado_212430" data-name="Trazado 212430" d="M310.815,80.433c2.024-.1,1.614,3.807,1.852,4.333s-7.038,2.253-8.351,2.69,5.072-6.951,6.5-7.024" transform="translate(-27.903 -7.379)" fill="#e6e7e8"/>
              <path id="Trazado_212431" data-name="Trazado 212431" d="M309.112,81.954a5.578,5.578,0,0,1,2.159-1.52c2.024-.1,2.018,3.509,1.9,4.351-.035.25-1.225.665-2.869,1.14a8.09,8.09,0,0,1-1.188-3.97" transform="translate(-28.36 -7.379)" fill="#44312e"/>
              <path id="Trazado_212432" data-name="Trazado 212432" d="M304.294,87.369c1.618-2.628,8.614-7.888,8.614-7.888l-1.8.115a2.812,2.812,0,0,0-1.875.882c-1.433,1.529-4.412,4.816-4.993,6.311-.771,1.985.058.579.058.579" transform="translate(-27.882 -7.292)" fill="#563d38"/>
              <path id="Trazado_212433" data-name="Trazado 212433" d="M335.849,84.273l2.815.927c-5.272,5.451-2.83,15.655-2.83,15.655l-2.647.589s-1.8-12.556,2.662-17.171" transform="translate(-30.536 -7.732)" fill="#f7aa3d"/>
              <path id="Trazado_212434" data-name="Trazado 212434" d="M115.869,113.864c20.57-2.8,73.728,17.578,90.083-6.833,0,0,10.309,2.885,21.1,7.188l.014.008,6.833,25.434c-3.018,33.323,14.429,57.426,14.429,57.426-1.908,7.666-39.861,24.987-65.292,18.432l-3.2-38.322c-6.854,3.71-34.007,4.133-43.319-.684,0,0-4.123,21.758-14.85,40.413a270.108,270.108,0,0,1-36.59-15.772C70.213,193.453,62,174.484,62,174.484c16.813-15.428,15.075-55.335,53.868-60.621" transform="translate(-5.688 -9.82)" fill="#fc4958"/>
              <g id="Grupo_171353" data-name="Grupo 171353" transform="translate(56.313 64.78)" opacity="0.5" style="mix-blend-mode: multiply;isolation: isolate">
                <g id="Grupo_171352" data-name="Grupo 171352">
                  <g id="Grupo_171351" data-name="Grupo 171351" clip-path="url(#clip-path-8)">
                    <g id="Grupo_171347" data-name="Grupo 171347" transform="translate(0 49.291)" opacity="0.5">
                      <g id="Grupo_171346" data-name="Grupo 171346">
                        <g id="Grupo_171345" data-name="Grupo 171345" clip-path="url(#clip-path-9)">
                          <path id="Trazado_212435" data-name="Trazado 212435" d="M92.889,125.594c-.1.33-.205.661-.31,1-8.5,27.918,5.614,67.047,29.083,92.033a270.2,270.2,0,0,1-36.591-15.773c-14.858-7.7-23.07-26.67-23.07-26.67,12.465-11.438,14.737-36.329,30.887-50.593" transform="translate(-62.002 -125.594)" fill="#fc4958"/>
                        </g>
                      </g>
                    </g>
                    <g id="Grupo_171350" data-name="Grupo 171350" transform="translate(69.735)" opacity="0.5">
                      <g id="Grupo_171349" data-name="Grupo 171349">
                        <g id="Grupo_171348" data-name="Grupo 171348" clip-path="url(#clip-path-10)">
                          <path id="Trazado_212436" data-name="Trazado 212436" d="M224.355,151.605l-29.344,38.373,9.576,21.531s-1.946.868-4.968,2.114a47.482,47.482,0,0,1-9.542-1.38l-3.2-38.322c-.18.1-.38.19-.585.282a22.538,22.538,0,0,1,1.076-2.573c2.983-5.569,4.4-21.982,2.423-24.189s-23.865-29.572-51.009-36.276c23.809,2.916,58.651,11.449,72.778-5.5A17.347,17.347,0,0,1,213,103.755c25.477-29.364,48.422-29.937,63.728-32.431-57.832,31.013-52.369,80.282-52.369,80.282" transform="translate(-138.781 -71.324)" fill="#fc4958"/>
                        </g>
                      </g>
                    </g>
                  </g>
                </g>
              </g>
              <path id="Trazado_212437" data-name="Trazado 212437" d="M291.081,73.15c-7.747-2.594-19.409-3.645-24.595.084-1.882,1.352,15.774,7.479,18.211,6.518s4.3-1.376,6.612-2.38,1.3-3.711-.229-4.222" transform="translate(-24.436 -6.496)" fill="#642b2b"/>
              <path id="Trazado_212438" data-name="Trazado 212438" d="M289.6,74.912c-11.947-.222-18.626-2.371-20.576-1.084s13.468,7.124,15.905,6.163,4.3-1.376,6.612-2.38-.317-2.669-1.941-2.7" transform="translate(-24.666 -6.736)" fill="#4b2121"/>
              <path id="Trazado_212439" data-name="Trazado 212439" d="M256.26,198.388a62.769,62.769,0,0,0,4.2,7.082c-1.908,7.665-39.861,24.986-65.293,18.431l-.868-10.4c22,5.214,52.831-6.853,61.958-15.116" transform="translate(-17.826 -18.201)" fill="#f7aa3d"/>
              <path id="Trazado_212440" data-name="Trazado 212440" d="M67.034,174.668A83.235,83.235,0,0,0,94.168,199.68,171.3,171.3,0,0,0,126.285,214.1c-1.381,3.022-2.918,6.064-4.622,9.028A270.028,270.028,0,0,1,85.072,207.36C70.214,199.66,62,180.691,62,180.691a32.488,32.488,0,0,0,5.032-6.023" transform="translate(-5.688 -16.025)" fill="#f7aa3d"/>
              <g id="Grupo_171362" data-name="Grupo 171362" transform="translate(56.313 158.643)" opacity="0.5" style="mix-blend-mode: multiply;isolation: isolate">
                <g id="Grupo_171361" data-name="Grupo 171361">
                  <g id="Grupo_171360" data-name="Grupo 171360" clip-path="url(#clip-path-11)">
                    <g id="Grupo_171356" data-name="Grupo 171356" opacity="0.5">
                      <g id="Grupo_171355" data-name="Grupo 171355">
                        <g id="Grupo_171354" data-name="Grupo 171354" clip-path="url(#clip-path-12)">
                          <path id="Trazado_212441" data-name="Trazado 212441" d="M63.274,179.433c.123-.129.241-.264.361-.4.292-.318.58-.641.861-.974.125-.149.249-.3.372-.453q.418-.514.821-1.05c.1-.138.207-.275.31-.415q.469-.642.917-1.312c.038-.056.078-.108.115-.165A83.241,83.241,0,0,0,94.168,199.68a170.65,170.65,0,0,0,15.2,7.812,116.937,116.937,0,0,0,12.3,15.64s-5.519-1.8-14.048-5.316q-1.383-.571-2.869-1.2-.678-.287-1.375-.589-.981-.424-2-.871-1.589-.7-3.259-1.459-1.439-.655-2.933-1.355c-2.412-1.13-4.923-2.347-7.506-3.65-.861-.435-1.727-.876-2.6-1.33a37.158,37.158,0,0,1-6.472-4.32,52.745,52.745,0,0,1-7.357-7.5q-.9-1.116-1.725-2.223A71.032,71.032,0,0,1,62,180.69c.438-.4.86-.824,1.273-1.257" transform="translate(-62.002 -174.668)" fill="#f7aa3d"/>
                        </g>
                      </g>
                    </g>
                    <g id="Grupo_171359" data-name="Grupo 171359" transform="translate(120.162 36.66)" opacity="0.5">
                      <g id="Grupo_171358" data-name="Grupo 171358">
                        <g id="Grupo_171357" data-name="Grupo 171357" clip-path="url(#clip-path-13)">
                          <path id="Trazado_212442" data-name="Trazado 212442" d="M205.941,216.286l3.739,8.407s-1.946.869-4.968,2.114q-1.236-.06-2.451-.173h-.021q-1.2-.114-2.379-.281l-.07-.01c-.773-.112-1.537-.24-2.292-.389l-.087-.018q-1.136-.223-2.243-.508l-.868-10.4a50.758,50.758,0,0,0,11.639,1.255" transform="translate(-194.302 -215.031)" fill="#f7aa3d"/>
                        </g>
                      </g>
                    </g>
                  </g>
                </g>
              </g>
              <path id="Trazado_212443" data-name="Trazado 212443" d="M178.246,27.5s-6.409,6.273-14.083,4.767-27.479-5.718-34.905,2.577c0,0,6.919-1.809,11.2,3.4s-2.852,14.934,10.828,15.88,35.861-.812,36.469-2.184,15.6-28.754,15.6-28.754Z" transform="translate(-11.859 -2.127)" fill="#f1f2f2"/>
              <path id="Trazado_212444" data-name="Trazado 212444" d="M181.245,38.587s-5.219.759-7.7,5.1S163,59.367,144.167,58.783s-27.889-10.092-40.422,0c0,0,9.052-4.767,15.318-1.631,0,0-16.426-1.378-21.674,8.885,0,0,11.926-2.443,16.1,3.33s10.322,26.081,42.642,15,40.949-33.359,38.123-45.144-13.012-.635-13.012-.635" transform="translate(-8.935 -3.102)" fill="#e38400"/>
              <path id="Trazado_212445" data-name="Trazado 212445" d="M195.793,171.417s2.608,11.007,7.292,11.539,2.21-12.879,2.21-12.879Z" transform="translate(-17.963 -15.604)" fill="#403061"/>
              <path id="Trazado_212446" data-name="Trazado 212446" d="M223.546,169.249s6.216,9.45,10.8,8.348-2.331-12.857-2.331-12.857Z" transform="translate(-20.509 -15.114)" fill="#403061"/>
              <path id="Trazado_212447" data-name="Trazado 212447" d="M156.618,184.483s-5.317,3.832-6.038,5.955c-.815,2.4,3.027,11.045,11.039,12.706s9.317-.673,5.878-4.093-6.758-8.727-5.878-13.317-5-1.252-5-1.252" transform="translate(-13.805 -16.818)" fill="#403061"/>
              <path id="Trazado_212448" data-name="Trazado 212448" d="M237,157.794c-1.188.371-1.234,5.414-14.221,9.155a60.9,60.9,0,0,1-16.468,2.182c-8,.046-17.767-1.1-29.678-4.168,6.072-6.73,17.04-33.449,10.207-37.338-29.641-16.9-9.566-29.936-1.88-37.465,0,0,17.879-8.558,23.821-.77s21.435-3.794,24.5,31.352c1.6,18.315,5.8,36.394,3.722,37.053" transform="translate(-15.703 -7.901)" fill="#226160"/>
              <path id="Trazado_212449" data-name="Trazado 212449" d="M224.939,167.291a60.9,60.9,0,0,1-16.468,2.182c29.873-68.175-13.711-79.63-13.711-79.63s7.334.1,8.707.631c32.612,12.783,27.923,47.957,21.472,76.817" transform="translate(-17.868 -8.243)" fill="#fc4958"/>
              <path id="Trazado_212450" data-name="Trazado 212450" d="M144.272,103.088s-4.582,10.64-1.121,14.454S172.5,139.331,172.5,139.331s-13.384,6.249-19.415,39.463c0,0,.867,5.185,7.782,2.372A258.142,258.142,0,0,1,175.14,158.24c6.931-9.538,15.222-15.6,15.222-20.574,0-4.833-15.794-24.159-17.893-27.09s-2.609-12.236-2.609-12.236Z" transform="translate(-13.015 -9.022)" fill="#e6e7e8"/>
              <path id="Trazado_212451" data-name="Trazado 212451" d="M179.131,74.257s7.648.331,7.214,3.007c-.866,5.34-15.291,13.073-15.291,13.073l-3.093-2.3s7.883-11.489,11.17-13.785" transform="translate(-15.41 -6.813)" fill="#4f3b78"/>
              <path id="Trazado_212452" data-name="Trazado 212452" d="M146.333,70.612S155.275,85.8,158.27,86.383s5.222-8.6,3.742-10.522-5.868-12.1-5.868-12.1Z" transform="translate(-13.425 -5.85)" fill="#4f3b78"/>
              <path id="Trazado_212453" data-name="Trazado 212453" d="M178.8,59.509s8.332,13.755,7.716,16.4-8.226,2.343-9.248.44-7.408-13.016-7.408-13.016Z" transform="translate(-15.584 -5.46)" fill="#4f3b78"/>
              <path id="Trazado_212454" data-name="Trazado 212454" d="M170.086,44.391c2.807-2.539,3.649-2.735,8.283,1.3s8.427,7.291,7.373,9.495-2.844,8.714-6.32,9.974-10.005,1.679-10.005,1.679Z" transform="translate(-15.543 -3.905)" fill="#403061"/>
              <path id="Trazado_212455" data-name="Trazado 212455" d="M183.573,52.425a13.407,13.407,0,0,1,1.078,5.932c-.285.706-.6,1.453-.961,2.192a18.664,18.664,0,0,0-2.25-6.128c-1.506-2.856-3.308-5.724-6.085-7.381a20.244,20.244,0,0,0-4.651-1.818,6.245,6.245,0,0,1,5.118-.03,13.579,13.579,0,0,1,7.751,7.234" transform="translate(-15.661 -4.097)" fill="#fc4958"/>
              <path id="Trazado_212456" data-name="Trazado 212456" d="M175.57,65.613a17.634,17.634,0,0,1-3.064-6.954,16.531,16.531,0,0,1,.023-4.293,37.153,37.153,0,0,1,.856-4.786,68.968,68.968,0,0,0,4.779,16.682c-.593.15-1.222.282-1.859.4-.245-.35-.5-.694-.736-1.05" transform="translate(-15.815 -4.549)" fill="#fc4958"/>
              <path id="Trazado_212457" data-name="Trazado 212457" d="M169.8,88.644c3.241,5.291,1.533,10.032,2.276,14.236.411,2.334-3.633,5.88-14.69,4.727-8.644-.9-17.108-.987-19.853-.568,0,0,4.611-16.377,10.588-20.261S169.8,88.644,169.8,88.644" transform="translate(-12.618 -7.838)" fill="#403061"/>
              <path id="Trazado_212458" data-name="Trazado 212458" d="M162.8,34.639c.527,8.212,2.528,8.633,6.109,9.368s4.532,4.317,4.667,5.187c.993,6.427,2.916,13.4-4.3,32.924,0,0-5.952,4.2-20.881,0,0,0-1.4-8.925-2.47-15.119s-7.773-19.213-4.4-21.208,9.058-1.26,11.165-2.2,1.158-8.948,1.158-8.948Z" transform="translate(-12.898 -3.178)" fill="#4f3b78"/>
              <path id="Trazado_212459" data-name="Trazado 212459" d="M170.357,85.6l.383,3.007a21.073,21.073,0,0,1-10.057,1.913,50.836,50.836,0,0,1-12.868-2.556l.975-2.95a21.755,21.755,0,0,0,11.893,2.76c7.049-.348,9.674-2.174,9.674-2.174" transform="translate(-13.561 -7.8)" fill="#fc4958"/>
              <path id="Trazado_212460" data-name="Trazado 212460" d="M132.962,108.687a114.108,114.108,0,0,0-7.773,23.089c-.082.381.274.547.514.238a114.278,114.278,0,0,0,12.662-20.828c5.918-12.718,9.506-23.587,8.014-24.278s-7.5,9.061-13.417,21.779" transform="translate(-11.484 -7.97)" fill="#99a7d8"/>
              <g id="Grupo_171365" data-name="Grupo 171365" transform="translate(113.693 78.904)" opacity="0.3" style="mix-blend-mode: multiply;isolation: isolate">
                <g id="Grupo_171364" data-name="Grupo 171364">
                  <g id="Grupo_171363" data-name="Grupo 171363" clip-path="url(#clip-path-14)">
                    <path id="Trazado_212461" data-name="Trazado 212461" d="M125.189,131.775a114.128,114.128,0,0,1,7.773-23.089c5.918-12.717,11.925-22.468,13.417-21.778l-21.053,45.245a.316.316,0,0,1-.136-.378" transform="translate(-125.177 -86.874)" fill="#99a7d8"/>
                  </g>
                </g>
              </g>
              <path id="Trazado_212462" data-name="Trazado 212462" d="M147.433,87.915h0A1.934,1.934,0,0,0,150,86.978l3.314-7.123a1.93,1.93,0,0,0-3.5-1.62l-3.314,7.123a1.922,1.922,0,0,0,.939,2.557" transform="translate(-13.424 -7.075)" fill="#d69334"/>
              <path id="Trazado_212463" data-name="Trazado 212463" d="M152.324,91.162h0a.962.962,0,0,0-.47-1.279l-8.9-4.113a.963.963,0,1,0-.813,1.747l8.9,4.114a.967.967,0,0,0,1.282-.469" transform="translate(-12.99 -7.861)" fill="#d69334"/>
              <path id="Trazado_212464" data-name="Trazado 212464" d="M174.516,50.4s1.785,19.884-6.192,31.436c0,0-4.282-21.683-8.935-28.959Z" transform="translate(-14.623 -4.624)" fill="#fc4958"/>
              <path id="Trazado_212465" data-name="Trazado 212465" d="M173.869,50.418h0c-.067-.412-.134-.82-.2-1.225-.134-.87-1.085-4.451-4.667-5.186s-5.582-1.155-6.109-9.369h-8.953s.948,8-1.158,8.948-7.795.211-11.165,2.205c15.894,12.449,31.8,11.347,32.248,4.627" transform="translate(-12.993 -3.178)" fill="#e6e7e8"/>
              <path id="Trazado_212466" data-name="Trazado 212466" d="M153.876,43.587c2.106-.945,1.159-8.948,1.159-8.948h8.952c.466,7.257,2.084,8.429,4.925,9.111.214,3.707.65,4.487-2.378,4.487s-11.094-2.753-13.033-4.512a3.47,3.47,0,0,0,.376-.137" transform="translate(-14.083 -3.178)" fill="#e69665"/>
              <path id="Trazado_212467" data-name="Trazado 212467" d="M186.346,85.845V90a53.172,53.172,0,0,0,14.219,1.383c7.378-.384,9.607-2.153,9.607-2.153l-.615-4.9Z" transform="translate(-17.096 -7.737)" fill="#eba43f"/>
              <path id="Trazado_212468" data-name="Trazado 212468" d="M191.554,14.227c2.335-2.844,10.834-1.787,13.96.63s4.546,8.985,3.419,14.135-7.682,4.95-7.682,4.95Z" transform="translate(-17.574 -1.149)" fill="#e38400"/>
              <path id="Trazado_212469" data-name="Trazado 212469" d="M212.538,63.042c2.867,9.511,3.525,15.516,4.274,16.359s8.272,1.575,8.155.488c-.323-3.019-3.093-25.551-4.292-26.223-.337-.189-8.137,9.376-8.137,9.376" transform="translate(-19.499 -4.923)" fill="#2f7869"/>
              <path id="Trazado_212470" data-name="Trazado 212470" d="M211.091,46.948c2.83-2.273,8.561-1.537,9.637,3.491,1.242,5.807-2.434,14.286-5.539,14.834a6.663,6.663,0,0,1-6.3-2.537Z" transform="translate(-19.165 -4.195)" fill="#226160"/>
              <path id="Trazado_212471" data-name="Trazado 212471" d="M220.892,50.629a6.474,6.474,0,0,0-.473-1.386,9.056,9.056,0,0,0-1.477-.786,9.738,9.738,0,0,0-7.926.4l-.329,2.36a11.148,11.148,0,0,1,7.567.392,15.95,15.95,0,0,1,2.879,1.522,12.023,12.023,0,0,0-.241-2.5" transform="translate(-19.33 -4.385)" fill="#eba43f"/>
              <path id="Trazado_212472" data-name="Trazado 212472" d="M214.575,65.275a9.4,9.4,0,0,1-5.364-1.9c-.057-.048-.107-.106-.163-.158l-.156,1.12a6.662,6.662,0,0,0,6.3,2.538,4.057,4.057,0,0,0,2.169-1.526c-.928,0-1.857,0-2.782-.078" transform="translate(-19.165 -5.8)" fill="#eba43f"/>
              <path id="Trazado_212473" data-name="Trazado 212473" d="M218.836,57.227a13.257,13.257,0,0,0-6.968-2.379,8.979,8.979,0,0,0-1.706.146l-.441,3.167,9.084,3.156c.167.058.336.114.5.172a20.147,20.147,0,0,0,1.107-3.115c-.511-.4-1.036-.789-1.58-1.147" transform="translate(-19.241 -5.032)" fill="#eba43f"/>
              <path id="Trazado_212474" data-name="Trazado 212474" d="M191.257,28.75c1.23,4.686.353,12.172-2.307,13.94-5,3.322-8.537,3.181-10,6.918-1.727,4.416,17.893,32.532,22.231,29.37,4.106-2.994,11.091-15.18,10.327-23.619-.31-3.422-.721-9.145-3.176-9.968-1.484-.5-6.094-1.613-7.559-3.139-1.184-1.233-2.248-5.17-1.461-11.24.269-2.075-8.057-2.262-8.057-2.262" transform="translate(-16.408 -2.638)" fill="#e69665"/>
              <path id="Trazado_212475" data-name="Trazado 212475" d="M211.729,57.974a59.007,59.007,0,0,0-9.042-.722c-8.59,0-13.925,2.375-18.427,5.93a35.184,35.184,0,0,1-3.024,2c2.844,9.837,4.64,18.177,4.64,18.177s19.6,2.426,23.21-1.516c0,0,3.94-12.287,4.555-16.052s-1.914-7.818-1.914-7.818" transform="translate(-16.628 -5.253)" fill="#226160"/>
              <path id="Trazado_212476" data-name="Trazado 212476" d="M204.247,84.081l7.48-24.279-3.314.3L203.6,75.716l-6.014-14.628-3.929.357,9.352,22.749c.42-.032.833-.068,1.234-.113" transform="translate(-17.767 -5.487)" fill="#eba43f"/>
              <path id="Trazado_212477" data-name="Trazado 212477" d="M184.479,66.075c4.826-3.555,12.239-5.9,21.447-5.9a46.475,46.475,0,0,1,7.08.545,15.823,15.823,0,0,0-1.275-2.747,59.017,59.017,0,0,0-9.042-.722c-8.59,0-13.925,2.375-18.428,5.931a35.213,35.213,0,0,1-3.023,2c.243.842.493,1.661.747,2.469.713-.413,1.781-1.053,2.494-1.578" transform="translate(-16.628 -5.253)" fill="#f1f2f2"/>
              <path id="Trazado_212478" data-name="Trazado 212478" d="M216.178,81.865A63.908,63.908,0,0,0,205.72,91.5c-.54.688,1.074,4.262,3.206,5.646s8.367-.639,9.776-1.636c2.066-1.463,8.826-6.848,5.188-14.181-1.038-2.092-7.713.54-7.713.54" transform="translate(-18.864 -7.387)" fill="#2f7869"/>
              <path id="Trazado_212479" data-name="Trazado 212479" d="M197.711,47.406c-2.163,0-4.807-1.052-7.895-3.142a.231.231,0,0,1,.26-.381c3.927,2.659,7.083,3.593,9.374,2.777a4.431,4.431,0,0,0,2.626-2.652.231.231,0,0,1,.442.131,4.816,4.816,0,0,1-2.9,2.952,5.577,5.577,0,0,1-1.9.315" transform="translate(-17.406 -4.022)" fill="#2f7869"/>
              <path id="Trazado_212480" data-name="Trazado 212480" d="M200.851,47.8c.183,1.223-.269,2.3-1.008,2.414s-1.489-.79-1.671-2.013.268-2.3,1.008-2.415,1.488.791,1.671,2.014" transform="translate(-18.178 -4.2)" fill="#226160"/>
              <path id="Trazado_212481" data-name="Trazado 212481" d="M200.571,47.9c.14.936-.205,1.765-.772,1.849s-1.14-.6-1.281-1.542.206-1.765.772-1.849,1.141.606,1.281,1.542" transform="translate(-18.21 -4.252)" fill="#eba43f"/>
              <path id="Trazado_212482" data-name="Trazado 212482" d="M203.66,45.529a1.191,1.191,0,0,1-.3,1.615c-.481.231-1.128-.118-1.445-.778a1.191,1.191,0,0,1,.3-1.615c.481-.231,1.129.117,1.446.778" transform="translate(-18.509 -4.099)" fill="#226160"/>
              <path id="Trazado_212483" data-name="Trazado 212483" d="M203.48,45.656a.914.914,0,0,1-.228,1.238c-.369.176-.865-.091-1.108-.6a.913.913,0,0,1,.229-1.237c.369-.177.865.09,1.107.6" transform="translate(-18.534 -4.129)" fill="#eba43f"/>
              <path id="Trazado_212484" data-name="Trazado 212484" d="M194.512,46.572a1.191,1.191,0,0,0,.3,1.615c.481.231,1.128-.118,1.445-.778a1.191,1.191,0,0,0-.3-1.615c-.481-.232-1.129.117-1.446.778" transform="translate(-17.83 -4.195)" fill="#226160"/>
              <path id="Trazado_212485" data-name="Trazado 212485" d="M194.741,46.7a.912.912,0,0,0,.228,1.237c.369.177.865-.09,1.107-.6a.912.912,0,0,0-.228-1.237c-.369-.177-.865.091-1.107.6" transform="translate(-17.854 -4.225)" fill="#eba43f"/>
              <path id="Trazado_212486" data-name="Trazado 212486" d="M192.18,29.707s-.649-4.343.283-7.147a7.022,7.022,0,0,1,5.881-4.666,11.041,11.041,0,0,1,4.537.082c1.907.622,2.52,2.1,3.089,3.717a18.443,18.443,0,0,1,.412,8.291c-.5,3.262-2.1,7.854-3.635,8.737a3.882,3.882,0,0,1-2.906-.042,12.072,12.072,0,0,1-6.121-3.662,10.709,10.709,0,0,1-2.133-3.206,1.794,1.794,0,0,1,.592-2.1" transform="translate(-17.565 -1.624)" fill="#f5a573"/>
              <g id="Grupo_171368" data-name="Grupo 171368" transform="translate(184.422 27.769)" opacity="0.5" style="mix-blend-mode: multiply;isolation: isolate">
                <g id="Grupo_171367" data-name="Grupo 171367">
                  <g id="Grupo_171366" data-name="Grupo 171366" clip-path="url(#clip-path-15)">
                    <path id="Trazado_212487" data-name="Trazado 212487" d="M203.719,30.574a5.168,5.168,0,0,1,.629,1.644c.057.665-1.3,1.017-1.3,1.017s1.627.237,1.834-.614c.108-.444-1.166-2.047-1.166-2.047" transform="translate(-203.051 -30.574)" fill="#ffb28d"/>
                  </g>
                </g>
              </g>
              <path id="Trazado_212488" data-name="Trazado 212488" d="M200.8,28.746a4.059,4.059,0,0,0-1.877-.85,6.245,6.245,0,0,0-2.408,1.047s-.253.64,2.188.541c1.708-.069,2.1-.738,2.1-.738" transform="translate(-18.029 -2.559)" fill="#efefee"/>
              <path id="Trazado_212489" data-name="Trazado 212489" d="M199.086,27.921a.907.907,0,0,1,.618,1.024,1.032,1.032,0,0,1-.162.46,5.116,5.116,0,0,1-.8.1c-.067,0-.125,0-.19,0a1.065,1.065,0,0,1-.242-.782c.044-.5.393-.863.777-.8" transform="translate(-18.194 -2.561)" fill="#339fcc"/>
              <path id="Trazado_212490" data-name="Trazado 212490" d="M199.587,28.849a.72.72,0,0,0-.5-.819c-.308-.049-.589.233-.625.64a.728.728,0,0,0,.5.821c.311.05.589-.238.624-.642" transform="translate(-18.208 -2.571)" fill="#121212"/>
              <path id="Trazado_212491" data-name="Trazado 212491" d="M198.872,28.482a.337.337,0,0,0-.231-.381c-.145-.024-.274.111-.291.3a.336.336,0,0,0,.231.383c.144.024.274-.111.291-.3" transform="translate(-18.198 -2.578)" fill="#efefee"/>
              <path id="Trazado_212492" data-name="Trazado 212492" d="M200.793,28.791a3.062,3.062,0,0,0-2-1.072,7.674,7.674,0,0,0-2.88,1.153l.579.218s1.04-.431,1.621-.664a3.137,3.137,0,0,1,2.68.365" transform="translate(-17.974 -2.543)" fill="#226160"/>
              <path id="Trazado_212493" data-name="Trazado 212493" d="M204.344,28.228s1.075-1.19,1.723-1.188a4.447,4.447,0,0,1,1.619.533s.11.478-1.646.886a4.48,4.48,0,0,1-1.7-.232" transform="translate(-18.748 -2.481)" fill="#efefee"/>
              <path id="Trazado_212494" data-name="Trazado 212494" d="M205.735,28.455a1.119,1.119,0,0,1-.117-.775,1.094,1.094,0,0,1,.309-.59.775.775,0,0,1,.254-.049,2.028,2.028,0,0,1,.521.082,1.063,1.063,0,0,1,.19.886,1.2,1.2,0,0,1-.094.272c-.183.061-.388.121-.642.18a1.017,1.017,0,0,1-.421,0" transform="translate(-18.862 -2.481)" fill="#339fcc"/>
              <path id="Trazado_212495" data-name="Trazado 212495" d="M205.774,27.623c.08-.4.371-.673.653-.6a.712.712,0,0,1,.369.864.877.877,0,0,1-.246.472l-.38.1a.687.687,0,0,1-.4-.834" transform="translate(-18.877 -2.478)" fill="#121212"/>
              <path id="Trazado_212496" data-name="Trazado 212496" d="M205.724,27.253c-.006-.179.1-.328.229-.332s.247.135.253.314-.1.33-.23.334-.246-.135-.253-.316" transform="translate(-18.874 -2.47)" fill="#efefee"/>
              <path id="Trazado_212497" data-name="Trazado 212497" d="M204.344,28.21s.773-1.293,1.826-1.357a2.775,2.775,0,0,1,1.95.575l-.43.206a4.788,4.788,0,0,0-1.3-.364,3.907,3.907,0,0,0-2.045.94" transform="translate(-18.748 -2.463)" fill="#226160"/>
              <path id="Trazado_212498" data-name="Trazado 212498" d="M200.362,26.663c-2.2-.334-3.321-.664-4.464-.083a10.459,10.459,0,0,1-1.18.54,2.662,2.662,0,0,1,1.45-1.4,6.737,6.737,0,0,1,3.97-.079c.49.205.475,1.056.224,1.018" transform="translate(-17.865 -2.329)" fill="#e38400"/>
              <path id="Trazado_212499" data-name="Trazado 212499" d="M204.336,26.344c1.292-.658,2.861-1.681,3.331-1.065l-.037-.267c-.038-.407-.264-.595-.359-.6-.529-.032-2.4.125-3.1.978-.2.238,0,1.044.17.955" transform="translate(-18.724 -2.239)" fill="#e38400"/>
              <path id="Trazado_212500" data-name="Trazado 212500" d="M205.461,34.711a6.794,6.794,0,0,1-.918.46c-.436.087-1.618.032-1.924.089-.531.052-2.35.213-2.35.213A7.084,7.084,0,0,0,202.325,37a2.335,2.335,0,0,0,2.323-.52,8.128,8.128,0,0,0,.812-1.765" transform="translate(-18.374 -3.185)" fill="#db3d3d"/>
              <g id="Grupo_171371" data-name="Grupo 171371" transform="translate(182.73 31.748)" style="mix-blend-mode: multiply;isolation: isolate">
                <g id="Grupo_171370" data-name="Grupo 171370">
                  <g id="Grupo_171369" data-name="Grupo 171369" clip-path="url(#clip-path-16)">
                    <path id="Trazado_212501" data-name="Trazado 212501" d="M202.69,36.069a4.071,4.071,0,0,1-1.5-.559,14.062,14.062,0,0,0,1.543,0c.305-.057,1.459-.232,1.895-.319a4.107,4.107,0,0,0,.611-.238,2.852,2.852,0,0,1-.569.712,2.236,2.236,0,0,1-1.978.4" transform="translate(-201.188 -34.955)" fill="#cc2f36"/>
                  </g>
                </g>
              </g>
              <path id="Trazado_212502" data-name="Trazado 212502" d="M202.712,35.942a2.6,2.6,0,0,1-1.22-.43,9.311,9.311,0,0,0,1.266,0c.306-.057,1.46-.232,1.9-.319a2.226,2.226,0,0,0,.509-.233,1.8,1.8,0,0,1-.473.579,2.232,2.232,0,0,1-1.978.4" transform="translate(-18.486 -3.207)" fill="#f1f2f2"/>
              <path id="Trazado_212503" data-name="Trazado 212503" d="M200.269,35.472s2.808.066,3.623-.032a3.516,3.516,0,0,0,1.569-.729,6.444,6.444,0,0,1-1.006.062c-.258-.025-.48.151-.731.183a3.794,3.794,0,0,1-.708-.061,15.76,15.76,0,0,0-2.746.577" transform="translate(-18.374 -3.185)" fill="#cc2f36"/>
              <path id="Trazado_212504" data-name="Trazado 212504" d="M198.46,16.47c1.413,2.376-5.272,5.658-6.042,7.053s.968,6.643.062,10.186l-.906,3.542s-6.536.882-7.188-2.8-2.79-13.638.087-17.146c6.891-8.4,13.987-.83,13.987-.83" transform="translate(-16.79 -1.224)" fill="#e38400"/>
              <path id="Trazado_212505" data-name="Trazado 212505" d="M202.162,95.674c.4-.962,2.285-2.091,3.784-2.864a1.854,1.854,0,0,1,2.53,2.406c-.884,1.96-3.021,3.522-4.056,4.669-.4.443-.991,1.475-1.738,1.646-1.637.372-1.031-4.633-.52-5.857" transform="translate(-18.497 -8.496)" fill="#e69665"/>
              <path id="Trazado_212506" data-name="Trazado 212506" d="M204.077,96.033c-.827-.76-3.489-1.144-5.561-1.332a2.375,2.375,0,0,0-2.722,1.945,1.552,1.552,0,0,0,.558,1.23c1.765,1.526,4.886,2.227,6.539,2.934.639.273,1.718,1.031,2.674.922,2.094-.239-.433-4.731-1.487-5.7" transform="translate(-17.963 -8.687)" fill="#f5a573"/>
              <path id="Trazado_212507" data-name="Trazado 212507" d="M171.678,57.377c-1.845,10.508-6.965,32.3-5.89,34.141s10.027,8.868,19.369,7.974c7.762-.743,9.477-4.005,9.477-4.005s2.162-3.92-.74-5.188c-1.55-.678-16.755-5.006-17.434-4.891s5.2-18.973,5.2-18.973Z" transform="translate(-15.197 -5.264)" fill="#2f7869"/>
              <path id="Trazado_212508" data-name="Trazado 212508" d="M183.147,68.066c3.167-2.878,1.163-7.424-.842-10.394s-3.9-4.662-3.733-6.971-7.032-2.681-9.247,2.071c-2.527,5.419,1.03,8.877,3.923,11.508,3.827,3.48,8.29,5.249,9.9,3.787" transform="translate(-15.456 -4.5)" fill="#226160"/>
              <path id="Trazado_212509" data-name="Trazado 212509" d="M185.315,62.719a17.121,17.121,0,0,1-2.572,4.147,10.027,10.027,0,0,1-2.913,2.312c1.9.782,3.52.906,4.36.142,1.992-1.809,1.937-4.278,1.125-6.6" transform="translate(-16.499 -5.754)" fill="#eba43f"/>
              <path id="Trazado_212510" data-name="Trazado 212510" d="M169.944,55.713a10.184,10.184,0,0,0-1.375,1.983,7.939,7.939,0,0,0,1.209,3.013,16.106,16.106,0,0,1,1.6-2.247,13.829,13.829,0,0,1,5.2-4.034,9.086,9.086,0,0,1,2.816-.652,5.53,5.53,0,0,1-.761-1.916,7.542,7.542,0,0,0-2.322,0,11.162,11.162,0,0,0-6.362,3.85" transform="translate(-15.465 -4.75)" fill="#eba43f"/>
              <path id="Trazado_212511" data-name="Trazado 212511" d="M177.055,59.555a8.049,8.049,0,0,0-3.826,5.155c.153.142.306.282.457.419a22.868,22.868,0,0,0,2.44,1.932c.343-.589.671-1.188,1.035-1.764a15.34,15.34,0,0,1,6.329-5.586c-.243-.417-.494-.817-.747-1.19-.048-.072-.1-.134-.143-.2a10.185,10.185,0,0,0-5.544,1.238" transform="translate(-15.893 -5.349)" fill="#eba43f"/>
              <path id="Trazado_212512" data-name="Trazado 212512" d="M199.3,16.679a14.616,14.616,0,0,0,7.585,5.083L205.083,16l-5.128-1.034Z" transform="translate(-18.285 -1.373)" fill="#e38400"/>
              <path id="Trazado_212513" data-name="Trazado 212513" d="M160.339,76.909l-4.28-13.147-10.647,3.583s6.181,18.947,12.773,19.038,2.153-9.474,2.153-9.474" transform="translate(-13.341 -5.85)" fill="#594984"/>
              <path id="Trazado_212514" data-name="Trazado 212514" d="M160.257,67.446c-.428.758-1.872,1.623-3.771,2.434-.535.233-1.105.463-1.7.687a50.52,50.52,0,0,1-5.767,1.738h-.009c-.107.027-.214.053-.312.072l-.615.134c-.178.035-.357.071-.526.106a12.376,12.376,0,0,1-4.867.312c-2.934-.9-8.362-7.015-10.172-11.439s3.388-15.065,8.238-14.576a12.686,12.686,0,0,1,2.175.732c.428.159.9.356,1.409.569,1.265.527,2.755,1.177,4.3,1.872.918.419,1.854.847,2.781,1.275,3.022,1.41,5.876,2.809,7.328,3.638,3.691,2.1,2.978,9.877,1.516,12.445" transform="translate(-12.124 -4.303)" fill="#403061"/>
              <path id="Trazado_212515" data-name="Trazado 212515" d="M149.792,72.381c-.107.026-.214.054-.312.072l-.615.134c-.178.035-.356.071-.526.107-11.313-6.107-7.453-18.713-4.627-24.972.428.161.9.357,1.409.57-2.675,8.184-3.2,16.725,4.671,24.089" transform="translate(-12.91 -4.378)" fill="#fc4958"/>
              <path id="Trazado_212516" data-name="Trazado 212516" d="M158.257,68.589a15.43,15.43,0,0,1-.107,1.614c-.535.233-1.105.463-1.7.687a34.73,34.73,0,0,1-.883-3.833c-2.381-12.954-4.28-12.944-5.109-16.378,0-.008-.062-.106-.16-.268.918.419,1.854.847,2.781,1.275,5.3,7.479,5.35,9.673,5.18,16.9" transform="translate(-13.789 -4.625)" fill="#fc4958"/>
              <path id="Trazado_212517" data-name="Trazado 212517" d="M161.542,77.9s-4.968,8.292-2.153,9.474c5.616,2.359,22.839-8.156,22.839-8.156l-.023-4.679s-16.237,1.292-20.663,3.361" transform="translate(-14.544 -6.838)" fill="#594984"/>
              <path id="Trazado_212518" data-name="Trazado 212518" d="M273.709,105.91c-22.34,0-53.424-5.571-85.314-29.008l1.1-1.5c34.81,25.581,68.62,29.612,90.861,28.479,24.118-1.223,40.212-8.6,40.372-8.675l.785,1.683c-.163.075-16.521,7.587-40.979,8.842-2.169.112-4.448.174-6.824.174" transform="translate(-17.284 -6.918)" fill="#f7aa3d"/>
              <path id="Trazado_212519" data-name="Trazado 212519" d="M188.389,71.445c-1.162,0-3.249,1.812-4.786,3.321a3.014,3.014,0,0,0-.269,3.9,1.709,1.709,0,0,0,1.356.629c2.4-.086,5.048-1.992,6.718-2.7.646-.276,1.973-.482,2.527-1.351,1.21-1.9-4.068-3.8-5.546-3.8" transform="translate(-16.765 -6.555)" fill="#f5a573"/>
              <path id="Trazado_212520" data-name="Trazado 212520" d="M171.487,26.83c-.094-.373.513-1.317.524-1.7s-1.242-4.021-2.22-4.928c-3.093-2.864-5.381-4.077-9.023-3.794a9.633,9.633,0,0,0-7.6,5.722c-1.053,2.77,5.559,13.572,11.353,16.355.255.1,4.328,2.035,6.29,1.2.564-.241.9-1.386.871-2s-.639-1.3.185-1.839c.193-.125-1.691-1.619-1.621-1.787s2.673-.43,2.512-.639-.2-.829.509-1.391c.461-.368.95-.439.975-1.285.023-.773-2.461-2.759-2.751-3.909" transform="translate(-14.042 -1.501)" fill="#f5a573"/>
              <path id="Trazado_212521" data-name="Trazado 212521" d="M174.168,33.477a2.349,2.349,0,0,1,.54-.23,1.273,1.273,0,0,1,.685-.02l-.063.073a1.01,1.01,0,0,1-.582.3c-.113.025-.228.026-.343.046a1.3,1.3,0,0,0-.269.1c-.069.027-.179.064-.184-.04s.149-.187.216-.228" transform="translate(-15.959 -3.045)" fill="#ad7d6c"/>
              <path id="Trazado_212522" data-name="Trazado 212522" d="M173.4,26.086c-1.617.2-4.2.579-4.2.579s-.041-.9.557-1.094a15.664,15.664,0,0,1,3.535-.544c.162.145.373,1.026.109,1.058" transform="translate(-15.523 -2.294)" fill="#481e1e"/>
              <path id="Trazado_212523" data-name="Trazado 212523" d="M174.413,35.134a.824.824,0,0,1-.344.708l-2.652-.407s1.381,1.509,2.257,1.19c0,0,.522.573-.031.875-.293.159-.64-.134-.813-.279a6.188,6.188,0,0,1-1.717-2.029c.718.319,3.29-.17,3.3-.058" transform="translate(-15.699 -3.222)" fill="#b8716c"/>
              <path id="Trazado_212524" data-name="Trazado 212524" d="M173.074,36.111l-1.627-.643s1.38,1.509,2.256,1.19Z" transform="translate(-15.73 -3.254)" fill="#99504f"/>
              <path id="Trazado_212525" data-name="Trazado 212525" d="M174.1,35.875l-2.652-.407a6.31,6.31,0,0,0,2.508.693Z" transform="translate(-15.73 -3.254)" fill="#f1f2f2"/>
              <path id="Trazado_212526" data-name="Trazado 212526" d="M172.424,27.941a1.646,1.646,0,0,1-.626,1.473,1.475,1.475,0,0,1-1.4-.475,2.675,2.675,0,0,1-.172-.872c.518-.1,2.2-.126,2.2-.126" transform="translate(-15.618 -2.563)" fill="#f1f2f2"/>
              <path id="Trazado_212527" data-name="Trazado 212527" d="M172.454,27.811l-1.113.2a1.7,1.7,0,0,0,.377,1.176c.376.329,1.083-.675.736-1.381" transform="translate(-15.719 -2.552)" fill="#15a8c2"/>
              <path id="Trazado_212528" data-name="Trazado 212528" d="M172.125,27.926c.131-.046.182-.009.282.075l.1.1c.046.168-.149,1.053-.446.808-.13-.113-.134-.411-.148-.562-.022-.22-.011-.342.21-.419" transform="translate(-15.772 -2.56)" fill="#1d1d1b"/>
              <path id="Trazado_212529" data-name="Trazado 212529" d="M172.206,27.685l.854-.084-.625.544-2.849-.054Z" transform="translate(-15.559 -2.532)" fill="#1d1d1b"/>
              <path id="Trazado_212530" data-name="Trazado 212530" d="M170.358,21.269a7.376,7.376,0,0,1-5.255.618s-4.23,9.931-2.041,12.452-13.672,4.135-14.162-.011-.44-11.735,3.224-15.464,11.83-4.868,16.043-2.622,2.191,5.027,2.191,5.027" transform="translate(-13.641 -1.385)" fill="#481e1e"/>
              <path id="Trazado_212531" data-name="Trazado 212531" d="M167.018,12.784c-4.511-6.98-9.579-6.694-13.662-2.444s-8.514,3.72-5.994,8.938,19.656-6.494,19.656-6.494" transform="translate(-13.452 -0.671)" fill="#403061"/>
              <path id="Trazado_212532" data-name="Trazado 212532" d="M161.682,6.826a3.724,3.724,0,0,0-1.75-.056,41.807,41.807,0,0,0-4.262-1.858c.536-.576,1.1-1.128,1.662-1.676a19.921,19.921,0,0,0-2.94,1.179,17.246,17.246,0,0,1-2.737-1.271l1.776-.822a23.175,23.175,0,0,1-2.6.143,1.331,1.331,0,0,1-.315-1.256c.546-2.093,4.085-1.193,7.35.623q.432.535.846,1.084c-.044-.217-.074-.433-.1-.648a16.83,16.83,0,0,1,4.067,3.309c1.076,1.3,3.7,6.439,3.4,7.5a11.087,11.087,0,0,0-5.207-5.786c.268-.154.539-.3.8-.467" transform="translate(-13.805 0)" fill="#f1f2f2"/>
              <path id="Trazado_212533" data-name="Trazado 212533" d="M170.362,9.527a.972.972,0,0,1,1.294.712c.944,3.868-.106,6.884-1.726,7.293-1.774.448-8.916-1.512-15.266,4.277s-6.324,4.715-8.822,4.485a11.731,11.731,0,0,1-4.374-1.755,1.872,1.872,0,0,1-.6-2.564c1.71-2.5,5.619-7.261,11.1-8.288,6.194-1.162,15.456-2.925,18.4-4.161" transform="translate(-12.898 -0.868)" fill="#594984"/>
              <path id="Trazado_212534" data-name="Trazado 212534" d="M192.436,24.551s-6.205,3.066-9.241,3.079l.172,1.567s6.649-1.4,9.07-3.023Z" transform="translate(-16.807 -2.252)" fill="#f1f2f2"/>
              <path id="Trazado_212535" data-name="Trazado 212535" d="M207.653,22.448a8.146,8.146,0,0,0,2.892.672l.156,1.238a4.8,4.8,0,0,1-2.814-.559Z" transform="translate(-19.051 -2.06)" fill="#f1f2f2"/>
            </g>
          </g>
        </g>
      </g>
    </g>
  </g>
</svg>
